<?xml version="1.0" encoding="utf-8"?>
<!-- Generator: Adobe Illustrator 22.1.0, SVG Export Plug-In . SVG Version: 6.00 Build 0)  -->
<svg version="1.1" xmlns="http://www.w3.org/2000/svg" xmlns:xlink="http://www.w3.org/1999/xlink" x="0px" y="0px"
	 viewBox="0 0 54.3 180" style="enable-background:new 0 0 54.3 180;" xml:space="preserve">
<style type="text/css">
	.st0{display:none;}
	.st1{display:inline;fill:#FF0000;}
</style>
<g id="bg" class="st0">
	<polygon class="st1" points="0.2,0 0.2,0 0.2,0 0.1,0 0.1,0 0.1,0 0.1,0 0.1,0 0.1,0 0.1,0 0.1,0 0.1,0 0.1,0 0.1,0 0.1,0 0.1,0 
		0.1,0 0.1,0 0.1,0 0.1,0 0.1,0 0.1,0 0.1,0 0.1,0 0.1,0 0.1,0 0.1,0 0.1,0 0.1,0 0.1,0 0.1,0 0.1,0 0.1,0 0.1,0 0.1,0 0.1,0 0.1,0 
		0.1,0 0.1,0 0.1,0 0.1,0 0.1,0 0.1,0 0.1,0 0.1,0 0.1,0 0.1,0 0.1,0 0.1,0 0.1,0 0.1,0 0.1,0 0.1,0 0.1,0 0.1,0 0.1,0 0.1,0 0.1,0 
		0.1,0 0.1,0 0.1,0 0.1,0 0.1,0 0.1,0 0.1,0 0.1,0 0.1,0 0.1,0 0.1,0 0.1,0 0.1,0 0.1,0 0.1,0 0.1,0 0.1,0 0.1,0 0.1,0 0.1,0 0.1,0 
		0.1,0 0.1,0 0.1,0 0.1,0 0.1,0 0.1,0 0.1,0 0.1,0 0.1,0 0.1,0 0.1,0 0.1,0 0.1,0 0.1,0 0.1,0 0.1,0 0.1,0 0.1,0 0.1,0 0.1,0 0.1,0 
		0.1,0 0.1,0 0.1,0 0.1,0 0.1,0 0.1,0 0.1,0 0.1,0 0.1,0 0.1,0 0.1,0 0.1,0 0.1,0 0.1,0 0.1,0 0.1,0 0.1,0 0.1,0 0.1,0 0.1,0 0.1,0 
		0.1,0 0.1,0 0.1,0 0.1,0 0.1,0 0.1,0 0.1,0 0.1,0 0.1,0 0.1,0 0.1,0 0.1,0 0.1,0 0.1,0 0.1,0 0.1,0 0.1,0 0.1,0 0.1,0 0.1,0 0.1,0 
		0.1,0 0.1,0 0.1,0 0.1,0 0.1,0 0.1,0 0.1,0 0.1,0 0.1,0 0.1,0 0.1,0 0.1,0 0.1,0 0.1,0 0.1,0 0.1,0 0.1,0 0.1,0 0.1,0 0.1,0 0.1,0 
		0.1,0 0.1,0 0.1,0 0.1,0 0.1,0 0.1,0 0.1,0 0.1,0 0.1,0 0.1,0 0.1,0 0.1,0 0.1,0 0.1,0 0.1,0 0.1,0 0.1,0 0.1,0 0.1,0 0.1,0 0.1,0 
		0.1,0 0.1,0 0.1,0 0.1,0 0.1,0 0.1,0 0.1,0 0.1,0 0.1,0 0.1,0 0.1,0 0.1,0 0.1,0 0.1,0 0.1,0 0.1,0 0.1,0 0.1,0 0.1,0 0.1,0 0.1,0 
		0.1,0 0.1,0 0.1,0 0.1,0 0.1,0 0.1,0 0.1,0 0.1,0 0.1,0 0.1,0 0.1,0 0.1,0 0.1,0 0.1,0 0.1,0 0.1,0 0.1,0 0.1,0 0.1,0 0.1,0 0.1,0 
		0.1,0 0.1,0 0.1,0 0.1,0 0.1,0 0.1,0 0.1,0 0.1,0 0.1,0 0.1,0 0.1,0 0.1,0 0.1,0 0.1,0 0.1,0 0.1,0 0.1,0 0.1,0 0.1,0 0.1,0 0.1,0 
		0.1,0 0.1,0 0.1,0 0.1,0 0.1,0 0.1,0 0.1,0 0.1,0 0.1,0 0.1,0 0.1,0 0.1,0 0.1,0 0.1,0 0.1,0 0.1,0 0.1,0 0.1,0 0.1,0 0.1,0 0.1,0 
		0.1,0 0.1,0 0.1,0 0.1,0 0.1,0 0.1,0 0.1,0 0.1,0 0.1,0 0.1,0 0.1,0 0.1,0 0.1,0 0.1,0 0.1,0 0.1,0 0.1,0 0.1,0 0.1,0 0.1,0 0.1,0 
		0.1,0 0.1,0 0.1,0 0.1,0 0.1,0 0.1,0 0.1,0 0.1,0 0.1,0 0.1,0 0.1,0 0.1,0 0.1,0 0.1,0 0.1,0 0.1,0 0.1,0 0.1,0 0.1,0 0.1,0 0.1,0 
		0.1,0 0.1,0 0.1,0 0.1,0 0.1,0 0.1,0 0.1,0 0.1,0 0.1,0 0.1,0 0.1,0 0.1,0 0.1,0 0.1,0 0.1,0 0.1,0 0.1,0 0.1,0 0.1,0 0.1,0 0.1,0 
		0.1,0 0.1,0 0.1,0 0.1,0 0.1,0 0.1,0 0.1,0 0.1,0 0.1,0 0.1,0 0.1,0 0,0 0,0 0,0 0,0 0,0 0,0 0,0 0,0 0,0 0,0 0,0 0,0 0,0 0,0 0,0 
		0,0 0,0 0,0 0,0 0,0 0,0 0,0 0,0 0,0 0,0 0,0 0,0 0,0 0,0 0,0 0,0 0,0 0,0 0,0 0,0 0,0 0,0 0,0 0,0 0,0 0,0 0,0 0,0 0,0 0,0 0,0 
		0,0 0,0 0,0 0,0 0,0 0,0 0,0 0,0 0,0 0,0 0,0 0,0 0,0 0,0 0,0 0,0 0,0 0,0 0,0 0,0 0,0 0,0 0,0 0,0 0,0 0,0 0,0 0,0 0,0 0,0 0,0 
		0,0 0,0 0,0 0,0 0,0 0,0 0,0 0,0 0,0 0,0 0,0 0,0 0,180 0,180 0,180 0,180 0,180 0,180 0,180 0,180 0,180 0,180 0,180 0,180 0,180 
		0,180 0,180 0,180 0,180 0,180 0,180 0,180 0,180 0,180 0,180 0,180 0,180 0,180 0,180 0,180 0,180 0,180 0,180 0,180 0,180 0,180 
		0,180 0,180 0,180 0,180 0,180 0,180 0,180 0,180 0,180 0,180 0,180 0,180 0,180 0,180 0,180 0,180 0,180 0,180 0,180 0,180 0,180 
		0,180 0,180 0,180 0,180 0,180 0,180 0,180 0,180 0,180 0,180 0,180 0,180 0,180 0,180 0,180 0,180 0,180 0,180 0,180 0,180 0,180 
		0,180 0,180 0,180 0,180 0,180 0,180 0,180 0,180 0,180 0,180 0,180 0,180 0,180 0.1,180 0.1,180 0.1,180 0.1,180 0.1,180 0.1,180 
		0.1,180 0.1,180 0.1,180 0.1,180 0.1,180 0.1,180 0.1,180 0.1,180 0.1,180 0.1,180 0.1,180 0.1,180 0.1,180 0.1,180 0.1,180 
		0.1,180 0.1,180 0.1,180 0.1,180 0.1,180 0.1,180 0.1,180 0.1,180 0.1,180 0.1,180 0.1,180 0.1,180 0.1,180 0.1,180 0.1,180 
		0.1,180 0.1,180 0.1,180 0.1,180 0.1,180 0.1,180 0.1,180 0.1,180 0.1,180 0.1,180 0.1,180 0.1,180 0.1,180 0.1,180 0.1,180 
		0.1,180 0.1,180 0.1,180 0.1,180 0.1,180 0.1,180 0.1,180 0.1,180 0.1,180 0.1,180 0.1,180 0.1,180 0.1,180 0.1,180 0.1,180 
		0.1,180 0.1,180 0.1,180 0.1,180 0.1,180 0.1,180 0.1,180 0.1,180 0.1,180 0.1,180 0.1,180 0.1,180 0.1,180 0.1,180 0.1,180 
		0.1,180 0.1,180 0.1,180 0.1,180 0.1,180 0.1,180 0.1,180 0.1,180 0.1,180 0.1,180 0.1,180 0.1,180 0.1,180 0.1,180 0.1,180 
		0.1,180 0.1,180 0.1,180 0.1,180 0.1,180 0.1,180 0.1,180 0.1,180 0.1,180 0.1,180 0.1,180 0.1,180 0.1,180 0.1,180 0.1,180 
		0.1,180 0.1,180 0.1,180 0.1,180 0.1,180 0.1,180 0.1,180 0.1,180 0.1,180 0.1,180 0.1,180 0.1,180 0.1,180 0.1,180 0.1,180 
		0.1,180 0.1,180 0.1,180 0.1,180 0.1,180 0.1,180 0.1,180 0.1,180 0.1,180 0.1,180 0.1,180 0.1,180 0.1,180 0.1,180 0.1,180 
		0.1,180 0.1,180 0.1,180 0.1,180 0.1,180 0.1,180 0.1,180 0.1,180 0.1,180 0.1,180 0.1,180 0.1,180 0.1,180 0.1,180 0.1,180 
		0.1,180 0.1,180 0.1,180 0.1,180 0.1,180 0.1,180 0.1,180 0.1,180 0.1,180 0.1,180 0.1,180 0.1,180 0.1,180 0.1,180 0.1,180 
		0.1,180 0.1,180 0.1,180 0.1,180 0.1,180 0.1,180 0.1,180 0.1,180 0.1,180 0.1,180 0.1,180 0.1,180 0.1,180 0.1,180 0.1,180 
		0.1,180 0.1,180 0.1,180 0.1,180 0.1,180 0.1,180 0.1,180 0.1,180 0.1,180 0.1,180 0.1,180 0.1,180 0.1,180 0.1,180 0.1,180 
		0.1,180 0.1,180 0.1,180 0.1,180 0.1,180 0.1,180 0.1,180 0.1,180 0.1,180 0.1,180 0.1,180 0.1,180 0.1,180 0.1,180 0.1,180 
		0.1,180 0.1,180 0.1,180 0.1,180 0.1,180 0.1,180 0.1,180 0.1,180 0.1,180 0.1,180 0.1,180 0.1,180 0.1,180 0.1,180 0.1,180 
		0.1,180 0.1,180 0.1,180 0.1,180 0.1,180 0.1,180 0.1,180 0.1,180 0.1,180 0.1,180 0.1,180 0.1,180 0.1,180 0.1,180 0.1,180 
		0.1,180 0.1,180 0.1,180 0.1,180 0.1,180 0.1,180 0.1,180 0.1,180 0.1,180 0.1,180 0.1,180 0.1,180 0.1,180 0.1,180 0.1,180 
		0.1,180 0.1,180 0.1,180 0.1,180 0.1,180 0.1,180 0.1,180 0.1,180 0.1,180 0.1,180 0.1,180 0.1,180 0.1,180 0.1,180 0.1,180 
		0.1,180 0.1,180 0.1,180 0.1,180 0.1,180 0.1,180 0.1,180 0.1,180 0.1,180 0.1,180 0.1,180 0.1,180 0.1,180 0.1,180 0.1,180 
		0.1,180 0.1,180 0.1,180 0.1,180 0.1,180 0.1,180 0.1,180 0.1,180 0.1,180 0.1,180 0.1,180 0.1,180 0.1,180 0.1,180 0.1,180 
		0.1,180 0.1,180 0.1,180 0.1,180 0.1,180 0.1,180 0.1,180 0.1,180 0.1,180 0.1,180 0.1,180 0.1,180 0.1,180 0.1,180 0.1,180 
		0.1,180 0.1,180 0.1,180 0.1,180 0.1,180 0.1,180 0.1,180 0.1,180 0.1,180 0.1,180 0.1,180 0.1,180 0.1,180 0.1,180 0.1,180 
		0.1,180 0.1,180 0.1,180 0.2,180 0.2,180 0.2,180 54.3,180 54.3,0 	"/>
</g>
<g id="figure">
	<path d="M44.3,108.9l-2.9,2.4c-4.5,3.7-7.8,6.4-10,7.9c-2.2,1.5-4.1,2.3-5.7,2.3c-1.1,0-1.6-0.6-1.6-1.9c0-1.3,0.5-3.1,1.5-5.5
		c-5.4,4.9-9.3,7.4-11.8,7.4c-1.1,0-2-0.4-2.8-1.3c-0.7-0.9-1.1-2.2-1.1-3.8c0-1.9,0.6-3.8,1.7-5.6c1.1-1.9,2.6-3.5,4.5-4.9
		c1.9-1.4,4-2.5,6.3-3.4c2.3-0.8,4.6-1.2,6.8-1.2c1.1,0,1.9,0.2,2.4,0.6c0.5,0.4,0.8,1,0.8,1.9c0,0.2-0.1,0.4-0.1,0.5
		c0,0.2-0.1,0.4-0.1,0.7c-0.1,0.3-0.1,0.5-0.1,0.7l3.5-4.2l4.7-0.3L39,103c-1.2,1.4-2.2,2.6-2.9,3.5c-0.7,0.9-1.4,1.7-1.9,2.3
		c-5.8,6.3-8.8,10-8.8,11.1c0,0.6,0.3,0.8,0.8,0.8c0.7,0,1.8-0.4,3.2-1.3c1.4-0.8,3-2,4.8-3.3c1.8-1.4,3.8-3,6.1-4.9
		c2.3-1.9,3.6-3,4-3.3V108.9z M29.5,102c-2.2,0-4.7,1.1-7.5,3.3c-2.8,2.2-5.1,4.7-7.2,7.5c-2,2.8-3.1,4.8-3.1,6c0,0.6,0.2,1,0.6,1.4
		c0.4,0.4,0.8,0.6,1.4,0.6c1.5,0,3.7-1.1,6.6-3.2c2.9-2.1,5.5-4.5,7.8-7.2c2.3-2.7,3.5-4.8,3.5-6.3C31.6,102.7,30.9,102,29.5,102z"
		/>
</g>
</svg>
