<?xml version="1.0" encoding="utf-8"?>
<!-- Generator: Adobe Illustrator 22.1.0, SVG Export Plug-In . SVG Version: 6.00 Build 0)  -->
<svg version="1.1" xmlns="http://www.w3.org/2000/svg" xmlns:xlink="http://www.w3.org/1999/xlink" x="0px" y="0px"
	 viewBox="0 0 126.4 180" style="enable-background:new 0 0 126.4 180;" xml:space="preserve">
<style type="text/css">
	.st0{display:none;}
	.st1{display:inline;fill:#FF0000;}
</style>
<g id="bg" class="st0">
	<polygon class="st1" points="123.3,0 122.5,0 102.3,0 100.3,0 99.5,0 99.3,0 98.6,0 98.4,0 98.2,0 96.4,0 96.2,0 95.6,0 95.4,0 
		95.2,0 94.7,0 94.6,0 94.3,0 92.6,0 92.4,0 92.2,0 91.6,0 91.5,0 91.3,0 90.8,0 90.6,0 90.5,0 88.6,0 88.5,0 88.3,0 87.8,0 87.6,0 
		87.5,0 86.9,0 86.7,0 86.5,0 85.8,0 84.8,0 84.5,0 84.4,0 83.9,0 83.7,0 83.5,0 83.2,0 82.9,0 82.7,0 82.7,0 81.9,0 81.7,0 80.9,0 
		80.7,0 80.5,0 80.2,0 79.8,0 79.7,0 79.6,0 79.3,0 79.1,0 78.9,0 78.8,0 78.7,0 78,0 77.8,0 77.6,0 77.3,0 77.2,0 76.8,0 76.6,0 
		76.3,0 76.1,0 75.8,0 75.8,0 75.6,0 75.5,0 75.3,0 75.1,0 75,0 74.8,0 74.6,0 74.3,0 74.1,0 74,0 73.8,0 73.5,0 73.3,0 73.3,0 
		73.1,0 72.7,0 72.5,0 72.2,0 72,0 72,0 71.8,0 71.6,0 71.5,0 71.4,0 71.3,0 71.2,0 71.1,0 70.9,0 70.7,0 70.4,0 70.2,0 70.2,0 
		70,0 69.9,0 69.6,0 69.4,0 69.4,0 69.2,0 69.2,0 69,0 68.5,0 68.4,0 68.2,0 68,0 67.9,0 67.7,0 67.7,0 67.5,0 67.4,0 67.3,0 
		67.2,0 67.2,0 67,0 66.9,0 66.6,0 66.4,0 66.4,0 66.2,0 66.1,0 65.9,0 65.7,0 65.5,0 65.5,0 65.4,0 65.3,0 65.2,0 64.6,0 64.4,0 
		64.3,0 64.2,0 64,0 63.8,0 63.8,0 63.6,0 63.6,0 63.4,0 63.4,0 63.3,0 63.1,0 63.1,0 62.9,0 62.6,0 62.6,0 62.5,0 62.3,0 62.3,0 
		62.1,0 61.8,0 61.6,0 61.6,0 61.5,0 61.4,0 61.3,0 60.8,0 60.6,0 60.4,0 60.3,0 60.1,0 59.9,0 59.7,0 59.6,0 59.6,0 59.5,0 59.5,0 
		59.3,0 59.3,0 59,0 58.8,0 58.8,0 58.6,0 58.5,0 58.4,0 58.2,0 57.9,0 57.7,0 57.7,0 57.5,0 57.5,0 57.3,0 56.7,0 56.7,0 56.6,0 
		56.5,0 56.2,0 56,0 55.7,0 55.7,0 55.7,0 55.5,0 55.5,0 55.4,0 55.2,0 54.9,0 54.9,0 54.7,0 54.7,0 54.5,0 54.5,0 54.2,0 53.9,0 
		53.7,0 53.7,0 53.6,0 53.5,0 52.9,0 52.7,0 52.7,0 52.6,0 52.5,0 52.2,0 51.9,0 51.9,0 51.7,0 51.7,0 51.5,0 51.5,0 51.2,0 50.9,0 
		50.8,0 50.8,0 50.7,0 50.6,0 50.6,0 50.3,0 50.1,0 49.9,0 49.8,0 49.7,0 49.6,0 49,0 48.8,0 48.8,0 48.6,0 48.6,0 48.4,0 48.1,0 
		47.9,0 47.8,0 47.8,0 47.6,0 47.6,0 47.3,0 47.1,0 47.1,0 46.9,0 46.8,0 46.8,0 46.7,0 46.6,0 46.5,0 46.3,0 46,0 46,0 45.8,0 
		45.6,0 45.1,0 44.9,0 44.9,0 44.8,0 44.7,0 44.6,0 44.3,0 44.1,0 44,0 43.8,0 43.7,0 43.7,0 43.4,0 43.2,0 43.2,0 43,0 43,0 43,0 
		42.8,0 42.8,0 42.6,0 42.5,0 42.4,0 42.2,0 42,0 41.9,0 41.7,0 41.2,0 41,0 41,0 40.9,0 40.8,0 40.7,0 40.4,0 40.2,0 40.2,0 40,0 
		40,0 39.8,0 39.5,0 39.4,0 39.2,0 39.1,0 39,0 38.9,0 38.9,0 38.7,0 38.6,0 38.4,0 38.3,0 38.2,0 38,0 37.9,0 37.3,0 37.2,0 
		37.1,0 37,0 36.9,0 36.7,0 36.5,0 36.3,0 36.1,0 36.1,0 35.9,0 35.6,0 35.4,0 35.3,0 35.1,0 35.1,0 34.9,0 34.8,0 34.8,0 34.6,0 
		34.4,0 34.3,0 34.1,0 33.9,0 33.6,0 33.3,0 33.1,0 33.1,0 32.9,0 32.6,0 32.4,0 32.3,0 32,0 31.8,0 31.5,0 31.3,0 31.3,0 31.1,0 
		30.9,0 30.7,0 30.6,0 30.5,0 30.2,0 30,0 29.7,0 29.5,0 29.2,0 29,0 28.7,0 28.5,0 28.3,0 27.7,0 27.6,0 27.5,0 27.2,0 27,0 
		26.7,0 26.6,0 26.5,0 26.2,0 25.9,0 25.7,0 25.5,0 24.7,0 24.5,0 23.7,0 23.6,0 23.5,0 23.1,0 22.9,0 22.6,0 22.4,0 21.9,0 21.8,0 
		21.6,0 20.6,0 19.8,0 19.6,0 19.4,0 18.9,0 18.8,0 18.6,0 18.1,0 17.8,0 17.7,0 15.9,0 15.8,0 15.5,0 15,0 14.8,0 14.7,0 14.2,0 
		14,0 13.8,0 12,0 11.8,0 11.7,0 11.2,0 11,0 10.8,0 10.1,0 9.9,0 8.1,0 7.9,0 7.7,0 7.1,0 6.9,0 6,0 4.1,0 3.9,0 3,0 0,0 0,180 
		3,180 3.9,180 4.1,180 6,180 6.9,180 7.1,180 7.7,180 7.9,180 8.1,180 9.9,180 10.1,180 10.8,180 11,180 11.2,180 11.7,180 
		11.8,180 12,180 13.8,180 14,180 14.2,180 14.7,180 14.8,180 15,180 15.5,180 15.8,180 15.9,180 17.7,180 17.8,180 18.1,180 
		18.6,180 18.8,180 18.9,180 19.4,180 19.6,180 19.8,180 20.6,180 21.6,180 21.8,180 21.9,180 22.4,180 22.6,180 22.9,180 23.1,180 
		23.5,180 23.6,180 23.7,180 24.5,180 24.7,180 25.5,180 25.7,180 25.9,180 26.2,180 26.5,180 26.6,180 26.7,180 27,180 27.2,180 
		27.5,180 27.6,180 27.7,180 28.3,180 28.5,180 28.7,180 29,180 29.2,180 29.5,180 29.7,180 30,180 30.2,180 30.5,180 30.6,180 
		30.7,180 30.9,180 31.1,180 31.3,180 31.3,180 31.5,180 31.8,180 32,180 32.3,180 32.4,180 32.6,180 32.9,180 33.1,180 33.1,180 
		33.3,180 33.6,180 33.9,180 34.1,180 34.3,180 34.4,180 34.6,180 34.8,180 34.8,180 34.9,180 35.1,180 35.1,180 35.3,180 35.4,180 
		35.6,180 35.9,180 36.1,180 36.1,180 36.3,180 36.5,180 36.7,180 36.9,180 37,180 37.1,180 37.2,180 37.3,180 37.9,180 38,180 
		38.2,180 38.3,180 38.4,180 38.6,180 38.7,180 38.9,180 38.9,180 39,180 39.1,180 39.2,180 39.4,180 39.5,180 39.8,180 40,180 
		40,180 40.2,180 40.2,180 40.4,180 40.7,180 40.8,180 40.9,180 41,180 41,180 41.2,180 41.7,180 41.9,180 42,180 42.2,180 
		42.4,180 42.5,180 42.6,180 42.8,180 42.8,180 43,180 43,180 43,180 43.2,180 43.2,180 43.4,180 43.7,180 43.7,180 43.8,180 
		44,180 44.1,180 44.3,180 44.6,180 44.7,180 44.8,180 44.9,180 44.9,180 45.1,180 45.6,180 45.8,180 46,180 46,180 46.3,180 
		46.5,180 46.6,180 46.7,180 46.8,180 46.8,180 46.9,180 47.1,180 47.1,180 47.3,180 47.6,180 47.6,180 47.8,180 47.8,180 47.9,180 
		48.1,180 48.4,180 48.6,180 48.6,180 48.8,180 48.8,180 49,180 49.6,180 49.7,180 49.8,180 49.9,180 50.1,180 50.3,180 50.6,180 
		50.6,180 50.7,180 50.8,180 50.8,180 50.9,180 51.2,180 51.5,180 51.5,180 51.7,180 51.7,180 51.9,180 51.9,180 52.2,180 52.5,180 
		52.6,180 52.7,180 52.7,180 52.9,180 53.5,180 53.6,180 53.7,180 53.7,180 53.9,180 54.2,180 54.5,180 54.5,180 54.7,180 54.7,180 
		54.9,180 54.9,180 55.2,180 55.4,180 55.5,180 55.5,180 55.7,180 55.7,180 55.7,180 56,180 56.2,180 56.5,180 56.6,180 56.7,180 
		56.7,180 57.3,180 57.5,180 57.5,180 57.7,180 57.7,180 57.9,180 58.2,180 58.4,180 58.5,180 58.6,180 58.8,180 58.8,180 59,180 
		59.3,180 59.3,180 59.5,180 59.5,180 59.6,180 59.6,180 59.7,180 59.9,180 60.1,180 60.3,180 60.4,180 60.6,180 60.8,180 61.3,180 
		61.4,180 61.5,180 61.6,180 61.6,180 61.8,180 62.1,180 62.3,180 62.3,180 62.5,180 62.6,180 62.6,180 62.9,180 63.1,180 63.1,180 
		63.3,180 63.4,180 63.4,180 63.6,180 63.6,180 63.8,180 63.8,180 64,180 64.2,180 64.3,180 64.4,180 64.6,180 65.2,180 65.3,180 
		65.4,180 65.5,180 65.5,180 65.7,180 65.9,180 66.1,180 66.2,180 66.4,180 66.4,180 66.6,180 66.9,180 67,180 67.2,180 67.2,180 
		67.3,180 67.4,180 67.5,180 67.7,180 67.7,180 67.9,180 68,180 68.2,180 68.4,180 68.5,180 69,180 69.2,180 69.2,180 69.4,180 
		69.4,180 69.6,180 69.9,180 70,180 70.2,180 70.2,180 70.4,180 70.7,180 70.9,180 71.1,180 71.2,180 71.3,180 71.4,180 71.5,180 
		71.6,180 71.8,180 72,180 72,180 72.2,180 72.5,180 72.7,180 73.1,180 73.3,180 73.3,180 73.5,180 73.8,180 74,180 74.1,180 
		74.3,180 74.6,180 74.8,180 75,180 75.1,180 75.3,180 75.5,180 75.6,180 75.8,180 75.8,180 76.1,180 76.3,180 76.6,180 76.8,180 
		77.2,180 77.3,180 77.6,180 77.8,180 78,180 78.7,180 78.8,180 78.9,180 79.1,180 79.3,180 79.6,180 79.7,180 79.8,180 80.2,180 
		80.5,180 80.7,180 80.9,180 81.7,180 81.9,180 82.7,180 82.7,180 82.9,180 83.2,180 83.5,180 83.7,180 83.9,180 84.4,180 84.5,180 
		84.8,180 85.8,180 86.5,180 86.7,180 86.9,180 87.5,180 87.6,180 87.8,180 88.3,180 88.5,180 88.6,180 90.5,180 90.6,180 90.8,180 
		91.3,180 91.5,180 91.6,180 92.2,180 92.4,180 92.6,180 94.3,180 94.6,180 94.7,180 95.2,180 95.4,180 95.6,180 96.2,180 96.4,180 
		98.2,180 98.4,180 98.6,180 99.3,180 99.5,180 100.3,180 102.3,180 102.5,180 103.3,180 126.4,180 126.4,0 	"/>
</g>
<g id="figure">
	<path d="M64.4,95.7c7.5-6.6,13.6-11.9,18.2-15.8c4.6-3.9,9-7.3,13.1-10.4c4.1-3,7.7-5.4,10.9-7.1c3.2-1.7,6.3-2.8,9.2-3.5l0.6,0.4
		l-1.6,1.5c-4.9,4.6-9.3,9-13.2,13c-3.9,4-8,8.5-12.4,13.4c-4.4,5-8.5,9.8-12.3,14.5c-3.8,4.7-7.8,9.9-12,15.5
		c1.8,0,3.8-0.6,6.2-1.7c2.4-1.1,4.7-2.6,7.2-4.4c2.4-1.8,4.6-3.7,6.6-5.7v1c-2.2,2.4-5.3,4.9-9.3,7.6c-3.9,2.7-7.6,4-11.1,4
		l-2.3,3.3h-5.2l3-3.9c-2.7-0.5-5-1.3-6.8-2.2c-1.8-0.9-3.8-2.3-6-4.1c-3.3,2.1-6.3,3.9-9,5.5c-2.8,1.6-5.7,2.9-8.8,4
		c-3.1,1.1-6.2,1.7-9.3,1.7c-3.1,0-5.5-0.6-7.3-1.7c-1.7-1.2-2.6-2.8-2.6-4.8c0-1.4,0.4-2.6,1.3-3.6c0.9-1,1.9-1.6,3.1-1.6
		c0.8,0,1.4,0.2,1.8,0.6c0.4,0.4,0.6,0.8,0.6,1.2c0,1.2-0.7,1.7-2.1,1.7c-1.2,0-1.9-0.6-2.1-1.9c-1.2,1-1.7,2.2-1.7,3.7
		c0,1.7,0.8,3.1,2.3,4c1.5,1,3.7,1.5,6.6,1.5c2.9,0,5.9-0.5,9-1.6c3.1-1.1,6-2.4,8.8-4c2.8-1.6,5.7-3.3,8.6-5.3
		c-2.9-3.2-5-6.1-6.3-8.8c-1.3-2.6-1.9-5.6-1.9-8.8c0-3.4,0.9-6.5,2.7-9.1c1.8-2.6,4.5-3.9,8-3.9c3.9,0,7.2,1.4,9.9,4.3
		C61.3,87.4,63.2,91.1,64.4,95.7z M63.6,96.4c-0.7-3.9-2.4-7.4-5-10.6C56,82.6,52.7,81,48.9,81c-2.8,0-4.9,0.8-6.4,2.3
		c-1.5,1.6-2.5,3.2-2.9,4.9c-0.5,1.7-0.7,3.1-0.7,4c0,3.6,0.6,6.7,1.9,9.3c1.2,2.7,3.3,5.5,6.3,8.6C51,107.2,56.5,102.6,63.6,96.4z
		 M63.8,97.3c-1.5,1.4-4,3.5-7.2,6.3c-3.3,2.8-6.3,5.2-8.9,7.2c2.3,1.8,4.4,3.2,6.2,4.2c1.9,1,4.1,1.6,6.6,2
		c1.6-3.5,2.7-6.8,3.2-9.9C64.2,104,64.2,100.7,63.8,97.3z M94.1,79.9l1.5-1.6c1.6-1.7,4.6-4.7,9.2-9.1c4.5-4.4,7.6-7.2,9.1-8.6
		c-2.9,0.6-6.7,2.3-11.3,5.3c-4.6,3-9.3,6.4-14,10.2c-4.7,3.8-9.1,7.5-13.2,11.1c-4.1,3.6-7.6,6.7-10.6,9.4c0.4,3.4,0.5,6.5,0.1,9.2
		c-0.4,2.7-1.2,5.6-2.4,8.8c1.5-1.8,3.3-3.9,5.4-6.3c2.2-2.4,4-4.4,5.4-5.9c1.4-1.5,3.7-4,6.9-7.4C83.3,91.5,87.9,86.5,94.1,79.9z"
		/>
</g>
</svg>
