<?xml version="1.0" encoding="utf-8"?>
<!-- Generator: Adobe Illustrator 22.1.0, SVG Export Plug-In . SVG Version: 6.00 Build 0)  -->
<svg version="1.1" xmlns="http://www.w3.org/2000/svg" xmlns:xlink="http://www.w3.org/1999/xlink" x="0px" y="0px"
	 viewBox="0 0 91.4 180" style="enable-background:new 0 0 91.4 180;" xml:space="preserve">
<style type="text/css">
	.st0{display:none;}
	.st1{display:inline;fill:#FF0000;}
</style>
<g id="bg" class="st0">
	<polyline class="st1" points="91.4,0 0,0 0,0 0,0 0,0 0,0 0,0 0,0 0,0 0,0 0,0 0,0 0,0 0,0 0,0 0,0 0,0 0,0 0,0 0,0 0,0 0,0 0,0 
		0,0 0,0 0,0 0,0 0,0 0,0 0,0 0,0 0,0 0,0 0,0 0,0 0,0 0,0 0,0 0,0 0,0 0,0 0,0 0,0 0,0 0,0 0,0 0,0 0,0 0,0 0,0 0,0 0,0 0,0 0,0 
		0,0 0,0 0,0 0,0 0,0 0,0 0,0 0,0 0,0 0,0 0,0 0,0 0,0 0,0 0,0 0,0 0,0 0,0 0,0 0,0 0,0 0,0 0,0 0,0 0,0 0,0 0,0 0,0 0,0 0,0 0,0 
		0,0 0,0 0,0 0,0 0,0 0,0 0,0 0,0 0,0 0,0 0,0 0,0 0,0 0,0 0,0 0,0 0,0 0,0 0,0 0,0 0,0 0,0 0,0 0,0 0,0 0,0 0,0 0,0 0,0 0,0 0,0 
		0,0 0,0 0,0 0,0 0,0 0,0 0,0 0,0 0,0 0,0 0,0 0,0 0,0 0,0 0,0 0,0 0,0 0,0 0,0 0,0 0,0 0,0 0,0 0,0 0,0 0,0 0,0 0,0 0,0 0,0 0,0 
		0,0 0,0 0,0 0,0 0,0 0,0 0,0 0,0 0,0 0,0 0,0 0,0 0,0 0,0 0,0 0,0 0,0 0,0 0,0 0,0 0,0 0,0 0,0 0,0 0,0 0,0 0,0 0,0 0,0 0,0 0,0 
		0,0 0,0 0,0 0,0 0,0 0,0 0,0 0,0 0,0 0,0 0,0 0,0 0,0 0,0 0,0 0,0 0,0 0,0 0,0 0,0 0,0 0,0 0,0 0,0 0,0 0,0 0,0 0,0 0,0 0,0 0,0 
		0,0 0,0 0,0 0,0 0,0 0,0 0,0 0,0 0,0 0,0 0,0 0,0 0,0 0,0 0,0 0,0 0,0 0,0 0,0 0,0 0,0 0,0 0,0 0,0 0,0 0,0 0,0 0,0 0,0 0,0 0,0 
		0,0 0,0 0,0 0,0 0,0 0,0 0,0 0,0 0,0 0,0 0,0 0,0 0,0 0,0 0,0 0,0 0,0 0,0 0,0 0,0 0,0 0,0 0,0 0,0 0,0 0,0 0,0 0,0 0,0 0,0 0,0 
		0,0 0,0 0,0 0,0 0,0 0,0 0,0 0,0 0,0 0,0 0,0 0,0 0,0 0,0 0,0 0,0 0,0 0,0 0,0 0,0 0,0 0,0 0,0 0,0 0,0 0,0 0,0 0,0 0,0 0,0 0,0 
		0,0 0,0 0,0 0,0 0,0 0,0 0,0 0,0 0,0 0,0 0,0 0,0 0,0 0,0 0,0 0,0 0,0 0,0 0,0 0,0 0,0 0,0 0,0 0,0 0,0 0,0 0,0 0,0 0,0 0,0 0,0 
		0,0 0,0 0,0 0,0 0,0 0,0 0,0 0,0 0,0 0,0 0,0 0,0 0,0 0,0 0,0 0,0 0,0 0,0 0,0 0,0 0,0 0,0 0,0 0,0 0,0 0,0 0,0 0,0 0,0 0,0 0,0 
		0,0 0,0 0,0 0,0 0,0 0,0 0,0 0,0 0,0 0,0 0,0 0,0 0,0 0,0 0,0 0,0 0,0 0,0 0,0 0,0 0,0 0,0 0,0 0,0 0,0 0,0 0,0 0,0 0,0 0,0 0,0 
		0,0 0,0 0,0 0,0 0,0 0,0 0,0 0,0 0,0 0,0 0,0 0,0 0,0 0,0 0,0 0,0 0,0 0,0 0,0 0,0 0,0 0,0 0,0 0,0 0,0 0,0 0,0 0,0 0,0 0,0 0,0 
		0,0 0,0 0,0 0,0 0,0 0,0 0,180 0,180 0,180 0,180 0,180 0,180 0,180 0,180 0,180 0,180 0,180 0,180 0,180 0,180 0,180 0,180 0,180 
		0,180 0,180 0,180 0,180 0,180 0,180 0,180 0,180 0,180 0,180 0,180 0,180 0,180 0,180 0,180 0,180 0,180 0,180 0,180 0,180 0,180 
		0,180 0,180 0,180 0,180 0,180 0,180 0,180 0,180 0,180 0,180 0,180 0,180 0,180 0,180 0,180 0,180 0,180 0,180 0,180 0,180 0,180 
		0,180 0,180 0,180 0,180 0,180 0,180 0,180 0,180 0,180 0,180 0,180 0,180 0,180 0,180 0,180 0,180 0,180 0,180 0,180 0,180 0,180 
		0,180 0,180 0,180 0,180 0,180 0,180 0,180 0,180 0,180 0,180 0,180 0,180 0,180 0,180 0,180 0,180 0,180 0,180 0,180 0,180 0,180 
		0,180 0,180 0,180 0,180 0,180 0,180 0,180 0,180 0,180 0,180 0,180 0,180 0,180 0,180 0,180 0,180 0,180 0,180 0,180 0,180 0,180 
		0,180 0,180 0,180 0,180 0,180 0,180 0,180 0,180 0,180 0,180 0,180 0,180 0,180 0,180 0,180 0,180 0,180 0,180 0,180 0,180 0,180 
		0,180 0,180 0,180 0,180 0,180 0,180 0,180 0,180 0,180 0,180 0,180 0,180 0,180 0,180 0,180 0,180 0,180 0,180 0,180 0,180 0,180 
		0,180 0,180 0,180 0,180 0,180 0,180 0,180 0,180 0,180 0,180 0,180 0,180 0,180 0,180 0,180 0,180 0,180 0,180 0,180 0,180 0,180 
		0,180 0,180 0,180 0,180 0,180 0,180 0,180 0,180 0,180 0,180 0,180 0,180 0,180 0,180 0,180 0,180 0,180 0,180 0,180 0,180 0,180 
		0,180 0,180 0,180 0,180 0,180 0,180 0,180 0,180 0,180 0,180 0,180 0,180 0,180 0,180 0,180 0,180 0,180 0,180 0,180 0,180 0,180 
		0,180 0,180 0,180 0,180 0,180 0,180 0,180 0,180 0,180 0,180 0,180 0,180 0,180 0,180 0,180 0,180 0,180 0,180 0,180 0,180 0,180 
		0,180 0,180 0,180 0,180 0,180 0,180 0,180 0,180 0,180 0,180 0,180 0,180 0,180 0,180 0,180 0,180 0,180 0,180 0,180 0,180 0,180 
		0,180 0,180 0,180 0,180 0,180 0,180 0,180 0,180 0,180 0,180 0,180 0,180 0,180 0,180 0,180 0,180 0,180 0,180 0,180 0,180 0,180 
		0,180 0,180 0,180 0,180 0,180 0,180 0,180 0,180 0,180 0,180 0,180 0,180 0,180 0,180 0,180 0,180 0,180 0,180 0,180 0,180 0,180 
		0,180 0,180 0,180 0,180 0,180 0,180 0,180 0,180 0,180 0,180 0,180 0,180 0,180 0,180 0,180 0,180 0,180 0,180 0,180 0,180 0,180 
		0,180 0,180 0,180 0,180 0,180 0,180 0,180 0,180 0,180 0,180 0,180 0,180 0,180 0,180 0,180 0,180 0,180 0,180 0,180 0,180 0,180 
		0,180 0,180 0,180 0,180 0,180 0,180 0,180 0,180 0,180 0,180 0,180 0,180 0,180 0,180 0,180 0,180 0,180 0,180 0,180 0,180 0,180 
		0,180 0,180 0,180 0,180 0,180 0,180 0,180 0,180 0,180 0,180 0,180 0,180 0,180 0,180 0,180 0,180 0,180 0,180 0,180 0,180 0,180 
		0,180 0,180 0,180 0,180 0,180 0,180 0,180 0,180 0,180 0,180 0,180 0,180 0,180 0,180 0,180 0,180 0,180 0,180 0,180 0,180 0,180 
		0,180 0,180 0,180 0,180 0,180 0,180 0,180 0,180 0,180 0,180 0,180 0,180 0,180 0,180 0,180 91.4,180 	"/>
</g>
<g id="figure">
	<g>
		<path d="M41.4,89.8c0.7,0,1.4-0.4,1.9-1.1c0.5-0.7,0.8-1.6,0.8-2.5c0-1.5-0.6-2.3-1.8-2.3c-0.6,0-1.2,0.4-1.8,1.1
			c-0.6,0.7-0.9,1.6-0.9,2.5c0,0.7,0.2,1.2,0.5,1.7C40.4,89.6,40.9,89.8,41.4,89.8z"/>
		<path d="M32.4,89.8c0.8,0,1.4-0.4,1.9-1.1c0.5-0.7,0.8-1.6,0.8-2.5c0-1.5-0.6-2.3-1.9-2.3c-0.6,0-1.2,0.4-1.8,1.1
			c-0.6,0.7-0.8,1.6-0.8,2.5c0,0.6,0.2,1.2,0.5,1.6S31.9,89.8,32.4,89.8z"/>
		<path d="M70.1,116.7c-3,2-6.6,3.8-10.8,5.5l18-20.6H73c-2,2-4.9,4.6-8.6,7.6c-3.7,3.1-7.2,5.7-10.7,8c-3.4,2.3-5.8,3.5-7.2,3.5
			c-0.7,0-1-0.3-1-0.8c0-0.9,1.6-2.8,4.8-5.6c4.5-3.9,6.7-7.5,6.7-10.8c0-1.5-0.6-2.3-1.7-2.3c-1.4,0-3.1,0.7-5,2
			c-1.7,1.2-3.9,2.9-6.5,5.2c-0.7,0.5-1.8,1.5-3.4,2.8c-2.3,1.9-4.3,3.5-6.1,4.9c-1.8,1.4-3.4,2.5-4.8,3.3c-1.4,0.8-2.5,1.3-3.2,1.3
			c-0.5,0-0.8-0.3-0.8-0.8c0-1.1,2.9-4.8,8.8-11.1c0.5-0.6,1.2-1.4,1.9-2.3c0.7-0.9,1.7-2.1,2.9-3.5l1.5-1.8l-4.7,0.3l-3.5,4.2
			c0-0.2,0.1-0.4,0.1-0.7c0.1-0.3,0.1-0.5,0.1-0.7c0-0.2,0-0.3,0.1-0.5c0-0.9-0.3-1.5-0.8-1.9c-0.5-0.4-1.3-0.6-2.4-0.6
			c-2.2,0-4.5,0.4-6.8,1.2c-2.3,0.8-4.5,1.9-6.3,3.4c-1.9,1.4-3.4,3.1-4.5,4.9c-1.1,1.9-1.7,3.7-1.7,5.6c0,1.7,0.4,3,1.1,3.8
			c0.7,0.9,1.6,1.3,2.8,1.3c2.5,0,6.5-2.5,11.8-7.4c-1,2.4-1.5,4.2-1.5,5.5c0,1.2,0.5,1.9,1.6,1.9c1.6,0,3.5-0.8,5.7-2.3
			c2.2-1.5,5.5-4.2,10-7.9l2.9-2.5c2.1-1.8,4.1-3.3,5.7-4.6c2-1.5,3.7-2.3,4.9-2.3c0.7,0,1.1,0.3,1.1,1c0,1.3-1.6,3.2-4.8,5.6
			c-1.8,1.3-3.2,2.6-4.3,3.7c-1.1,1.1-1.8,2.3-2.3,3.4s-0.7,2.3-0.7,3.5c0,0.7,0.2,1.3,0.6,1.7c0.4,0.4,0.9,0.6,1.6,0.6
			c1,0,2.3-0.3,3.6-0.9c1.4-0.6,2.9-1.5,4.7-2.7c1.8-1.2,3.3-2.3,4.5-3.3c1.3-1,3.9-3,7.9-6.1c-5.8,6.4-10.6,12-14.3,16.7
			c-6.9,3.2-12.6,6.2-17,9.1c-4.5,2.9-7.7,5.5-9.9,7.9c-2.1,2.4-3.2,4.4-3.2,5.9c0,2.2,1.2,3.3,3.5,3.3c3.1,0,7.1-2.3,12-6.8
			c4.8-4.5,11.2-11.2,19-19.9l1-1.1c4.9-1.8,9-3.8,12.2-5.9c3.2-2.1,7-5.1,11.2-9v-1C76.9,111.7,73.1,114.7,70.1,116.7z M20.3,117.6
			c-2.9,2.1-5.1,3.2-6.6,3.2c-0.6,0-1-0.2-1.4-0.6c-0.4-0.4-0.6-0.8-0.6-1.4c0-1.2,1-3.1,3.1-6s4.4-5.3,7.2-7.5
			c2.8-2.2,5.3-3.3,7.5-3.3c1.4,0,2.1,0.7,2.1,2c0,1.5-1.2,3.7-3.5,6.3C25.8,113,23.2,115.4,20.3,117.6z M47.7,131.4
			c-1.7,2.1-3.3,4-4.7,5.8c-2.7,3.2-5.1,5.8-7.2,7.7c-2,1.9-3.9,3.4-5.5,4.3c-1.6,0.9-3.1,1.4-4.4,1.4c-0.7,0-1.2-0.2-1.7-0.6
			c-0.5-0.4-0.7-1-0.7-1.7c0-2.7,2.7-6,8.2-10.1c5.4-4,12.1-8,20-11.9C50.6,127.7,49.4,129.3,47.7,131.4z"/>
	</g>
</g>
</svg>
