<?xml version="1.0" encoding="utf-8"?>
<!-- Generator: Adobe Illustrator 22.1.0, SVG Export Plug-In . SVG Version: 6.00 Build 0)  -->
<svg version="1.1" xmlns="http://www.w3.org/2000/svg" xmlns:xlink="http://www.w3.org/1999/xlink" x="0px" y="0px"
	 viewBox="0 0 128.2 180" style="enable-background:new 0 0 128.2 180;" xml:space="preserve">
<style type="text/css">
	.st0{display:none;}
	.st1{display:inline;fill:#FF0000;}
</style>
<g id="bg" class="st0">
	<polyline class="st1" points="128.2,0 0,0 0,0 0,0 0,0 0,0 0,0 0,0 0,0 0,0 0,0 0,0 0,0 0,0 0,0 0,0 0,0 0,0 0,0 0,0 0,0 0,0 0,0 
		0,0 0,0 0,0 0,0 0,0 0,0 0,0 0,0 0,0 0,0 0,0 0,0 0,0 0,0 0,0 0,0 0,0 0,0 0,0 0,0 0,0 0,0 0,0 0,0 0,0 0,0 0,0 0,0 0,0 0,0 0,0 
		0,0 0,0 0,0 0,0 0,0 0,0 0,0 0,0 0,0 0,0 0,0 0,0 0,0 0,0 0,0 0,0 0,0 0,0 0,0 0,0 0,0 0,0 0,0 0,0 0,0 0,0 0,0 0,0 0,0 0,0 0,0 
		0,0 0,0 0,0 0,0 0,0 0,0 0,0 0,0 0,0 0,0 0,0 0,0 0,0 0,0 0,0 0,0 0,0 0,0 0,0 0,0 0,0 0,0 0,0 0,0 0,0 0,0 0,0 0,0 0,0 0,0 0,0 
		0,0 0,0 0,0 0,0 0,0 0,0 0,0 0,0 0,0 0,0 0,0 0,0 0,0 0,0 0,0 0,0 0,0 0,0 0,0 0,0 0,0 0,0 0,0 0,0 0,0 0,0 0,0 0,0 0,0 0,0 0,0 
		0,0 0,0 0,0 0,0 0,0 0,0 0,0 0,0 0,0 0,0 0,0 0,0 0,0 0,0 0,0 0,0 0,0 0,0 0,0 0,0 0,0 0,0 0,0 0,0 0,0 0,0 0,0 0,0 0,0 0,0 0,0 
		0,0 0,0 0,0 0,0 0,0 0,0 0,0 0,0 0,0 0,0 0,0 0,0 0,0 0,0 0,0 0,0 0,0 0,0 0,0 0,0 0,0 0,0 0,0 0,0 0,0 0,0 0,0 0,0 0,0 0,0 0,0 
		0,0 0,0 0,0 0,0 0,0 0,0 0,0 0,0 0,0 0,0 0,0 0,0 0,0 0,0 0,0 0,0 0,0 0,0 0,0 0,0 0,0 0,0 0,0 0,0 0,0 0,0 0,0 0,0 0,0 0,0 0,0 
		0,0 0,0 0,0 0,0 0,0 0,0 0,0 0,0 0,0 0,0 0,0 0,0 0,0 0,0 0,0 0,0 0,0 0,0 0,0 0,0 0,0 0,0 0,0 0,0 0,0 0,0 0,0 0,0 0,0 0,0 0,0 
		0,0 0,0 0,0 0,0 0,0 0,0 0,0 0,0 0,0 0,0 0,0 0,0 0,0 0,0 0,0 0,0 0,0 0,0 0,0 0,0 0,0 0,0 0,0 0,0 0,0 0,0 0,0 0,0 0,0 0,0 0,0 
		0,0 0,0 0,0 0,0 0,0 0,0 0,0 0,0 0,0 0,0 0,0 0,0 0,0 0,0 0,0 0,0 0,0 0,0 0,0 0,0 0,0 0,0 0,0 0,0 0,0 0,0 0,0 0,0 0,0 0,0 0,0 
		0,0 0,0 0,0 0,0 0,0 0,0 0,0 0,0 0,0 0,0 0,0 0,0 0,0 0,0 0,0 0,0 0,0 0,0 0,0 0,0 0,0 0,0 0,0 0,0 0,0 0,0 0,0 0,0 0,0 0,0 0,0 
		0,0 0,0 0,0 0,0 0,0 0,0 0,0 0,0 0,0 0,0 0,0 0,0 0,0 0,0 0,0 0,0 0,0 0,0 0,0 0,0 0,0 0,0 0,0 0,0 0,0 0,0 0,0 0,0 0,0 0,0 0,0 
		0,0 0,0 0,0 0,0 0,0 0,0 0,0 0,0 0,0 0,0 0,0 0,0 0,0 0,0 0,0 0,0 0,0 0,0 0,0 0,0 0,0 0,0 0,0 0,0 0,0 0,0 0,0 0,0 0,0 0,0 0,0 
		0,0 0,0 0,0 0,0 0,0 0,0 0,180 0,180 0,180 0,180 0,180 0,180 0,180 0,180 0,180 0,180 0,180 0,180 0,180 0,180 0,180 0,180 0,180 
		0,180 0,180 0,180 0,180 0,180 0,180 0,180 0,180 0,180 0,180 0,180 0,180 0,180 0,180 0,180 0,180 0,180 0,180 0,180 0,180 0,180 
		0,180 0,180 0,180 0,180 0,180 0,180 0,180 0,180 0,180 0,180 0,180 0,180 0,180 0,180 0,180 0,180 0,180 0,180 0,180 0,180 0,180 
		0,180 0,180 0,180 0,180 0,180 0,180 0,180 0,180 0,180 0,180 0,180 0,180 0,180 0,180 0,180 0,180 0,180 0,180 0,180 0,180 0,180 
		0,180 0,180 0,180 0,180 0,180 0,180 0,180 0,180 0,180 0,180 0,180 0,180 0,180 0,180 0,180 0,180 0,180 0,180 0,180 0,180 0,180 
		0,180 0,180 0,180 0,180 0,180 0,180 0,180 0,180 0,180 0,180 0,180 0,180 0,180 0,180 0,180 0,180 0,180 0,180 0,180 0,180 0,180 
		0,180 0,180 0,180 0,180 0,180 0,180 0,180 0,180 0,180 0,180 0,180 0,180 0,180 0,180 0,180 0,180 0,180 0,180 0,180 0,180 0,180 
		0,180 0,180 0,180 0,180 0,180 0,180 0,180 0,180 0,180 0,180 0,180 0,180 0,180 0,180 0,180 0,180 0,180 0,180 0,180 0,180 0,180 
		0,180 0,180 0,180 0,180 0,180 0,180 0,180 0,180 0,180 0,180 0,180 0,180 0,180 0,180 0,180 0,180 0,180 0,180 0,180 0,180 0,180 
		0,180 0,180 0,180 0,180 0,180 0,180 0,180 0,180 0,180 0,180 0,180 0,180 0,180 0,180 0,180 0,180 0,180 0,180 0,180 0,180 0,180 
		0,180 0,180 0,180 0,180 0,180 0,180 0,180 0,180 0,180 0,180 0,180 0,180 0,180 0,180 0,180 0,180 0,180 0,180 0,180 0,180 0,180 
		0,180 0,180 0,180 0,180 0,180 0,180 0,180 0,180 0,180 0,180 0,180 0,180 0,180 0,180 0,180 0,180 0,180 0,180 0,180 0,180 0,180 
		0,180 0,180 0,180 0,180 0,180 0,180 0,180 0,180 0,180 0,180 0,180 0,180 0,180 0,180 0,180 0,180 0,180 0,180 0,180 0,180 0,180 
		0,180 0,180 0,180 0,180 0,180 0,180 0,180 0,180 0,180 0,180 0,180 0,180 0,180 0,180 0,180 0,180 0,180 0,180 0,180 0,180 0,180 
		0,180 0,180 0,180 0,180 0,180 0,180 0,180 0,180 0,180 0,180 0,180 0,180 0,180 0,180 0,180 0,180 0,180 0,180 0,180 0,180 0,180 
		0,180 0,180 0,180 0,180 0,180 0,180 0,180 0,180 0,180 0,180 0,180 0,180 0,180 0,180 0,180 0,180 0,180 0,180 0,180 0,180 0,180 
		0,180 0,180 0,180 0,180 0,180 0,180 0,180 0,180 0,180 0,180 0,180 0,180 0,180 0,180 0,180 0,180 0,180 0,180 0,180 0,180 0,180 
		0,180 0,180 0,180 0,180 0,180 0,180 0,180 0,180 0,180 0,180 0,180 0,180 0,180 0,180 0,180 0,180 0,180 0,180 0,180 0,180 0,180 
		0,180 0,180 0,180 0,180 0,180 0,180 0,180 0,180 0,180 0,180 0,180 0,180 0,180 0,180 0,180 0,180 0,180 0,180 0,180 0,180 0,180 
		0,180 0,180 0,180 0,180 0,180 0,180 0,180 0,180 0,180 0,180 0,180 0,180 0,180 0,180 0,180 0,180 0,180 0,180 0,180 0,180 0,180 
		0,180 0,180 0,180 0,180 0,180 0,180 0,180 0,180 0,180 0,180 0,180 0,180 0,180 0,180 0,180 128.2,180 	"/>
</g>
<g id="figure">
	<g>
		<path d="M64.4,97.7c7.5-6.6,13.6-11.9,18.2-15.8c4.6-3.9,9-7.3,13.1-10.4c4.1-3,7.7-5.4,10.9-7.1c3.2-1.7,6.3-2.8,9.2-3.5l0.6,0.4
			l-1.6,1.5c-4.9,4.6-9.3,9-13.2,13c-3.9,4-8,8.5-12.4,13.4c-4.4,5-8.5,9.8-12.3,14.5c-3.8,4.7-7.8,9.9-12,15.5
			c1.8,0,3.8-0.6,6.2-1.7c2.4-1.1,4.7-2.6,7.2-4.4c2.4-1.8,4.6-3.7,6.6-5.7v1c-2.2,2.4-5.3,4.9-9.3,7.6c-4,2.7-7.6,4-11.1,4
			l-2.3,3.3h-5.2l3-3.9c-2.7-0.5-5-1.3-6.8-2.2c-1.8-0.9-3.8-2.3-6-4.1c-3.3,2.1-6.3,3.9-9,5.5c-2.8,1.6-5.7,2.9-8.8,4
			c-3.1,1.1-6.2,1.7-9.3,1.7c-3.1,0-5.5-0.6-7.3-1.7c-1.7-1.2-2.6-2.8-2.6-4.8c0-1.4,0.4-2.6,1.3-3.6s1.9-1.6,3.1-1.6
			c0.8,0,1.4,0.2,1.8,0.6s0.6,0.8,0.6,1.2c0,1.2-0.7,1.7-2.1,1.7c-1.2,0-1.9-0.6-2.1-1.9c-1.2,1-1.7,2.2-1.7,3.7
			c0,1.7,0.8,3.1,2.3,4c1.5,1,3.7,1.5,6.6,1.5c2.9,0,5.9-0.5,9-1.6c3.1-1.1,6-2.4,8.8-4s5.7-3.3,8.6-5.3c-2.9-3.2-5-6.1-6.3-8.8
			c-1.3-2.6-1.9-5.6-1.9-8.8c0-3.4,0.9-6.5,2.7-9.1c1.8-2.6,4.5-3.9,8-3.9c3.9,0,7.2,1.4,9.9,4.3C61.3,89.4,63.2,93.1,64.4,97.7z
			 M63.6,98.4c-0.7-3.9-2.4-7.4-5-10.6C56,84.6,52.7,83,48.9,83c-2.8,0-4.9,0.8-6.4,2.3c-1.5,1.6-2.5,3.2-2.9,4.9
			c-0.5,1.7-0.7,3.1-0.7,4c0,3.6,0.6,6.7,1.9,9.3c1.2,2.7,3.3,5.5,6.3,8.6C51,109.2,56.5,104.6,63.6,98.4z M63.8,99.3
			c-1.5,1.4-4,3.5-7.2,6.3c-3.3,2.8-6.3,5.2-8.9,7.2c2.3,1.8,4.4,3.2,6.2,4.2c1.9,1,4.1,1.6,6.6,2c1.6-3.5,2.7-6.8,3.2-9.9
			C64.2,106,64.2,102.7,63.8,99.3z M94.1,81.9l1.5-1.6c1.6-1.7,4.6-4.7,9.2-9.1c4.5-4.4,7.6-7.2,9.1-8.6c-2.9,0.6-6.7,2.3-11.3,5.3
			c-4.6,3-9.3,6.4-14,10.2c-4.7,3.8-9.1,7.5-13.2,11.1c-4.1,3.6-7.6,6.7-10.6,9.4c0.4,3.4,0.5,6.5,0.1,9.2c-0.4,2.7-1.2,5.6-2.4,8.8
			c1.5-1.8,3.3-3.9,5.4-6.3c2.2-2.4,4-4.4,5.4-5.9c1.4-1.5,3.7-4,6.9-7.4C83.3,93.5,87.9,88.5,94.1,81.9z M106.9,49.8
			c1.2,0,1.9,0.8,1.9,2.3c0,1-0.3,1.8-0.8,2.5c-0.5,0.7-1.2,1.1-1.9,1.1c-0.5,0-1-0.2-1.3-0.7s-0.5-1-0.5-1.6c0-0.9,0.3-1.7,0.8-2.5
			C105.7,50.2,106.3,49.8,106.9,49.8z M115.9,49.8c1.2,0,1.8,0.8,1.8,2.3c0,0.9-0.3,1.8-0.8,2.5c-0.5,0.7-1.1,1.1-1.9,1.1
			c-0.5,0-1-0.2-1.3-0.6c-0.4-0.4-0.5-1-0.5-1.7c0-0.9,0.3-1.7,0.9-2.5C114.7,50.2,115.3,49.8,115.9,49.8z"/>
		<path d="M84.7,108.7v-1c2.5-2.4,4.4-3.5,8.8-6.1h4.7l-12.5,14.3c-2.1,2.4-3.1,3.8-3.1,4.2c0,0.4,0.3,0.6,1,0.6
			c2.1,0,5.4-1.8,10.1-5.5c4.7-3.6,9.9-8.2,15.6-13.5h4.4l-13.1,14.9c-0.2,0.2-0.5,0.5-0.9,1.1c-0.5,0.5-0.8,1-1.1,1.4
			c-0.2,0.4-0.3,0.8-0.3,1.1c0,0.4,0.3,0.6,0.9,0.6c1.4,0,4-1.2,7.8-3.7s7.5-5.6,11.2-9.3v1c-3.7,3.7-7.4,6.8-11.1,9.2
			c-3.7,2.4-6.4,3.7-8.1,3.7c-1.3,0-2-0.7-2-2c0-1.2,0.6-2.8,1.7-4.7c1.1-1.9,2.9-4.3,5.3-7.2l1.1-1.2l-2.1,1.9
			c-4.5,4-8.4,7.3-11.7,9.6c-3.3,2.4-5.8,3.6-7.7,3.6c-1.4,0-2.1-0.8-2.1-2.4c0-1,0.3-2.2,0.9-3.5c0.6-1.3,1.4-2.6,2.5-3.9
			s2.1-2.7,3.3-4c1.2-1.3,2.3-2.6,3.5-4l-2.9,1.7C86.3,107.5,85.9,107.6,84.7,108.7z"/>
	</g>
</g>
</svg>
