<?xml version="1.0" encoding="utf-8"?>
<!-- Generator: Adobe Illustrator 22.1.0, SVG Export Plug-In . SVG Version: 6.00 Build 0)  -->
<svg version="1.1" xmlns="http://www.w3.org/2000/svg" xmlns:xlink="http://www.w3.org/1999/xlink" x="0px" y="0px"
	 viewBox="0 0 87.9 180" style="enable-background:new 0 0 87.9 180;" xml:space="preserve">
<style type="text/css">
	.st0{display:none;}
	.st1{display:inline;fill:#FF0000;}
</style>
<g id="bg" class="st0">
	<polyline class="st1" points="87.9,0 0,0 0,0 0,0 0,0 0,0 0,0 0,0 0,0 0,0 0,0 0,0 0,0 0,0 0,0 0,0 0,0 0,0 0,0 0,0 0,0 0,0 0,0 
		0,0 0,0 0,0 0,0 0,0 0,0 0,0 0,0 0,0 0,0 0,0 0,0 0,0 0,0 0,0 0,0 0,0 0,0 0,0 0,0 0,0 0,0 0,0 0,0 0,0 0,0 0,0 0,0 0,0 0,0 0,0 
		0,0 0,0 0,0 0,0 0,0 0,0 0,0 0,0 0,0 0,0 0,0 0,0 0,0 0,0 0,0 0,0 0,0 0,0 0,0 0,0 0,0 0,0 0,0 0,0 0,0 0,0 0,0 0,0 0,0 0,0 0,0 
		0,0 0,0 0,0 0,0 0,0 0,0 0,0 0,0 0,0 0,0 0,0 0,0 0,0 0,0 0,0 0,0 0,0 0,0 0,0 0,0 0,0 0,0 0,0 0,0 0,0 0,0 0,0 0,0 0,0 0,0 0,0 
		0,0 0,0 0,0 0,0 0,0 0,0 0,0 0,0 0,0 0,0 0,0 0,0 0,0 0,0 0,0 0,0 0,0 0,0 0,0 0,0 0,0 0,0 0,0 0,0 0,0 0,0 0,0 0,0 0,0 0,0 0,0 
		0,0 0,0 0,0 0,0 0,0 0,0 0,0 0,0 0,0 0,0 0,0 0,0 0,0 0,0 0,0 0,0 0,0 0,0 0,0 0,0 0,0 0,0 0,0 0,0 0,0 0,0 0,0 0,0 0,0 0,0 0,0 
		0,0 0,0 0,0 0,0 0,0 0,0 0,0 0,0 0,0 0,0 0,0 0,0 0,0 0,0 0,0 0,0 0,0 0,0 0,0 0,0 0,0 0,0 0,0 0,0 0,0 0,0 0,0 0,0 0,0 0,0 0,0 
		0,0 0,0 0,0 0,0 0,0 0,0 0,0 0,0 0,0 0,0 0,0 0,0 0,0 0,0 0,0 0,0 0,0 0,0 0,0 0,0 0,0 0,0 0,0 0,0 0,0 0,0 0,0 0,0 0,0 0,0 0,0 
		0,0 0,0 0,0 0,0 0,0 0,0 0,0 0,0 0,0 0,0 0,0 0,0 0,0 0,0 0,0 0,0 0,0 0,0 0,0 0,0 0,0 0,0 0,0 0,0 0,0 0,0 0,0 0,0 0,0 0,0 0,0 
		0,0 0,0 0,0 0,0 0,0 0,0 0,0 0,0 0,0 0,0 0,0 0,0 0,0 0,0 0,0 0,0 0,0 0,0 0,0 0,0 0,0 0,0 0,0 0,0 0,0 0,0 0,0 0,0 0,0 0,0 0,0 
		0,0 0,0 0,0 0,0 0,0 0,0 0,0 0,0 0,0 0,0 0,0 0,0 0,0 0,0 0,0 0,0 0,0 0,0 0,0 0,0 0,0 0,0 0,0 0,0 0,0 0,0 0,0 0,0 0,0 0,0 0,0 
		0,0 0,0 0,0 0,0 0,0 0,0 0,0 0,0 0,0 0,0 0,0 0,0 0,0 0,0 0,0 0,0 0,0 0,0 0,0 0,0 0,0 0,0 0,0 0,0 0,0 0,0 0,0 0,0 0,0 0,0 0,0 
		0,0 0,0 0,0 0,0 0,0 0,0 0,0 0,0 0,0 0,0 0,0 0,0 0,0 0,0 0,0 0,0 0,0 0,0 0,0 0,0 0,0 0,0 0,0 0,0 0,0 0,0 0,0 0,0 0,0 0,0 0,0 
		0,0 0,0 0,0 0,0 0,0 0,0 0,0 0,0 0,0 0,0 0,0 0,0 0,0 0,0 0,0 0,0 0,0 0,0 0,0 0,0 0,0 0,0 0,0 0,0 0,0 0,0 0,0 0,0 0,0 0,0 0,0 
		0,0 0,0 0,0 0,0 0,0 0,0 0,180 0,180 0,180 0,180 0,180 0,180 0,180 0,180 0,180 0,180 0,180 0,180 0,180 0,180 0,180 0,180 0,180 
		0,180 0,180 0,180 0,180 0,180 0,180 0,180 0,180 0,180 0,180 0,180 0,180 0,180 0,180 0,180 0,180 0,180 0,180 0,180 0,180 0,180 
		0,180 0,180 0,180 0,180 0,180 0,180 0,180 0,180 0,180 0,180 0,180 0,180 0,180 0,180 0,180 0,180 0,180 0,180 0,180 0,180 0,180 
		0,180 0,180 0,180 0,180 0,180 0,180 0,180 0,180 0,180 0,180 0,180 0,180 0,180 0,180 0,180 0,180 0,180 0,180 0,180 0,180 0,180 
		0,180 0,180 0,180 0,180 0,180 0,180 0,180 0,180 0,180 0,180 0,180 0,180 0,180 0,180 0,180 0,180 0,180 0,180 0,180 0,180 0,180 
		0,180 0,180 0,180 0,180 0,180 0,180 0,180 0,180 0,180 0,180 0,180 0,180 0,180 0,180 0,180 0,180 0,180 0,180 0,180 0,180 0,180 
		0,180 0,180 0,180 0,180 0,180 0,180 0,180 0,180 0,180 0,180 0,180 0,180 0,180 0,180 0,180 0,180 0,180 0,180 0,180 0,180 0,180 
		0,180 0,180 0,180 0,180 0,180 0,180 0,180 0,180 0,180 0,180 0,180 0,180 0,180 0,180 0,180 0,180 0,180 0,180 0,180 0,180 0,180 
		0,180 0,180 0,180 0,180 0,180 0,180 0,180 0,180 0,180 0,180 0,180 0,180 0,180 0,180 0,180 0,180 0,180 0,180 0,180 0,180 0,180 
		0,180 0,180 0,180 0,180 0,180 0,180 0,180 0,180 0,180 0,180 0,180 0,180 0,180 0,180 0,180 0,180 0,180 0,180 0,180 0,180 0,180 
		0,180 0,180 0,180 0,180 0,180 0,180 0,180 0,180 0,180 0,180 0,180 0,180 0,180 0,180 0,180 0,180 0,180 0,180 0,180 0,180 0,180 
		0,180 0,180 0,180 0,180 0,180 0,180 0,180 0,180 0,180 0,180 0,180 0,180 0,180 0,180 0,180 0,180 0,180 0,180 0,180 0,180 0,180 
		0,180 0,180 0,180 0,180 0,180 0,180 0,180 0,180 0,180 0,180 0,180 0,180 0,180 0,180 0,180 0,180 0,180 0,180 0,180 0,180 0,180 
		0,180 0,180 0,180 0,180 0,180 0,180 0,180 0,180 0,180 0,180 0,180 0,180 0,180 0,180 0,180 0,180 0,180 0,180 0,180 0,180 0,180 
		0,180 0,180 0,180 0,180 0,180 0,180 0,180 0,180 0,180 0,180 0,180 0,180 0,180 0,180 0,180 0,180 0,180 0,180 0,180 0,180 0,180 
		0,180 0,180 0,180 0,180 0,180 0,180 0,180 0,180 0,180 0,180 0,180 0,180 0,180 0,180 0,180 0,180 0,180 0,180 0,180 0,180 0,180 
		0,180 0,180 0,180 0,180 0,180 0,180 0,180 0,180 0,180 0,180 0,180 0,180 0,180 0,180 0,180 0,180 0,180 0,180 0,180 0,180 0,180 
		0,180 0,180 0,180 0,180 0,180 0,180 0,180 0,180 0,180 0,180 0,180 0,180 0,180 0,180 0,180 0,180 0,180 0,180 0,180 0,180 0,180 
		0,180 0,180 0,180 0,180 0,180 0,180 0,180 0,180 0,180 0,180 0,180 0,180 0,180 0,180 0,180 0,180 0,180 0,180 0,180 0,180 0,180 
		0,180 0,180 0,180 0,180 0,180 0,180 0,180 0,180 0,180 0,180 0,180 0,180 0,180 0,180 0,180 0,180 0,180 0,180 0,180 0,180 0,180 
		0,180 0,180 0,180 0,180 0,180 0,180 0,180 0,180 0,180 0,180 0,180 0,180 0,180 0,180 0,180 87.9,180 	"/>
</g>
<g id="figure">
	<g>
		<path d="M44.3,108.9l-2.9,2.4c-4.5,3.7-7.8,6.4-10,7.9c-2.2,1.5-4.1,2.3-5.7,2.3c-1.1,0-1.6-0.6-1.6-1.9c0-1.3,0.5-3.1,1.5-5.5
			c-5.4,4.9-9.3,7.4-11.8,7.4c-1.1,0-2-0.4-2.8-1.3c-0.7-0.9-1.1-2.2-1.1-3.8c0-1.9,0.6-3.8,1.7-5.6c1.1-1.9,2.6-3.5,4.5-4.9
			c1.9-1.4,4-2.5,6.3-3.4c2.3-0.8,4.6-1.2,6.8-1.2c1.1,0,1.9,0.2,2.4,0.6c0.5,0.4,0.8,1,0.8,1.9c0,0.2-0.1,0.4-0.1,0.5
			c0,0.2-0.1,0.4-0.1,0.7c-0.1,0.3-0.1,0.5-0.1,0.7l3.5-4.2l4.7-0.3L39,103c-1.2,1.4-2.2,2.6-2.9,3.5c-0.7,0.9-1.4,1.7-1.9,2.3
			c-5.8,6.3-8.8,10-8.8,11.1c0,0.6,0.3,0.8,0.8,0.8c0.7,0,1.8-0.4,3.2-1.3c1.4-0.8,3-2,4.8-3.3c1.8-1.4,3.8-3,6.1-4.9
			c2.3-1.9,3.6-3,4-3.3V108.9z M29.5,102c-2.2,0-4.7,1.1-7.5,3.3c-2.8,2.2-5.1,4.7-7.2,7.5s-3.1,4.8-3.1,6c0,0.6,0.2,1,0.6,1.4
			c0.4,0.4,0.8,0.6,1.4,0.6c1.5,0,3.7-1.1,6.6-3.2c2.9-2.1,5.5-4.5,7.8-7.2c2.3-2.7,3.5-4.8,3.5-6.3C31.6,102.7,30.9,102,29.5,102z"
			/>
		<path d="M44.3,108.9v-1c2.5-2.4,4.6-3.7,9-6.3H58l-12.5,14.3c-2.1,2.4-3.1,3.8-3.1,4.2c0,0.4,0.3,0.6,1,0.6
			c2.1,0,5.4-1.8,10.1-5.5c4.7-3.6,9.9-8.2,15.6-13.5h4.4l-13.1,14.9c-0.2,0.2-0.5,0.5-0.9,1.1c-0.5,0.5-0.8,1-1.1,1.4
			c-0.2,0.4-0.3,0.8-0.3,1.1c0,0.4,0.3,0.6,0.9,0.6c1.4,0,4-1.2,7.8-3.7s7.5-5.6,11.2-9.3v1c-3.7,3.7-7.4,6.8-11.1,9.2
			c-3.7,2.4-6.4,3.7-8.1,3.7c-1.3,0-2-0.7-2-2c0-1.2,0.6-2.8,1.7-4.7c1.1-1.9,2.9-4.3,5.3-7.2l1.1-1.2l-2.1,1.9
			c-4.5,4-8.4,7.3-11.7,9.6c-3.3,2.4-5.8,3.6-7.7,3.6c-1.4,0-2.1-0.8-2.1-2.4c0-1,0.3-2.2,0.9-3.5c0.6-1.3,1.4-2.6,2.5-3.9
			s2.1-2.7,3.3-4c1.2-1.3,2.3-2.6,3.5-4l-2.9,1.7C46,107.5,45.5,107.8,44.3,108.9z"/>
	</g>
</g>
</svg>
