<?xml version="1.0" encoding="utf-8"?>
<!-- Generator: Adobe Illustrator 22.1.0, SVG Export Plug-In . SVG Version: 6.00 Build 0)  -->
<svg version="1.1" xmlns="http://www.w3.org/2000/svg" xmlns:xlink="http://www.w3.org/1999/xlink" x="0px" y="0px"
	 viewBox="0 0 63.1 180" style="enable-background:new 0 0 63.1 180;" xml:space="preserve">
<style type="text/css">
	.st0{display:none;}
	.st1{display:inline;fill:#FF0000;}
</style>
<g id="bg" class="st0">
	<polygon class="st1" points="0.1,0 0.1,0 0.1,0 0.1,0 0.1,0 0.1,0 0.1,0 0.1,0 0.1,0 0.1,0 0.1,0 0.1,0 0.1,0 0.1,0 0.1,0 0.1,0 
		0.1,0 0.1,0 0.1,0 0.1,0 0.1,0 0.1,0 0.1,0 0.1,0 0.1,0 0.1,0 0.1,0 0.1,0 0.1,0 0.1,0 0.1,0 0.1,0 0.1,0 0.1,0 0.1,0 0.1,0 0.1,0 
		0.1,0 0.1,0 0.1,0 0.1,0 0.1,0 0.1,0 0.1,0 0.1,0 0.1,0 0.1,0 0.1,0 0.1,0 0.1,0 0.1,0 0.1,0 0.1,0 0.1,0 0.1,0 0.1,0 0.1,0 0.1,0 
		0.1,0 0.1,0 0.1,0 0.1,0 0.1,0 0.1,0 0.1,0 0.1,0 0.1,0 0.1,0 0.1,0 0.1,0 0.1,0 0.1,0 0.1,0 0.1,0 0.1,0 0.1,0 0.1,0 0.1,0 0.1,0 
		0.1,0 0.1,0 0.1,0 0.1,0 0.1,0 0.1,0 0.1,0 0.1,0 0.1,0 0.1,0 0.1,0 0.1,0 0.1,0 0.1,0 0.1,0 0.1,0 0.1,0 0.1,0 0.1,0 0.1,0 0.1,0 
		0.1,0 0.1,0 0.1,0 0.1,0 0.1,0 0.1,0 0.1,0 0.1,0 0.1,0 0.1,0 0.1,0 0.1,0 0.1,0 0.1,0 0.1,0 0.1,0 0.1,0 0.1,0 0.1,0 0.1,0 0.1,0 
		0.1,0 0.1,0 0.1,0 0.1,0 0.1,0 0.1,0 0.1,0 0.1,0 0.1,0 0.1,0 0.1,0 0.1,0 0.1,0 0.1,0 0.1,0 0.1,0 0.1,0 0.1,0 0.1,0 0.1,0 0.1,0 
		0.1,0 0.1,0 0.1,0 0.1,0 0.1,0 0.1,0 0.1,0 0.1,0 0.1,0 0.1,0 0.1,0 0.1,0 0.1,0 0.1,0 0.1,0 0.1,0 0.1,0 0.1,0 0.1,0 0.1,0 0.1,0 
		0.1,0 0.1,0 0.1,0 0.1,0 0.1,0 0.1,0 0.1,0 0.1,0 0.1,0 0.1,0 0.1,0 0.1,0 0.1,0 0.1,0 0.1,0 0.1,0 0.1,0 0.1,0 0.1,0 0.1,0 0.1,0 
		0.1,0 0.1,0 0.1,0 0.1,0 0.1,0 0.1,0 0.1,0 0.1,0 0.1,0 0.1,0 0.1,0 0.1,0 0.1,0 0.1,0 0.1,0 0.1,0 0.1,0 0.1,0 0.1,0 0.1,0 0.1,0 
		0.1,0 0.1,0 0.1,0 0.1,0 0.1,0 0.1,0 0.1,0 0.1,0 0.1,0 0.1,0 0.1,0 0.1,0 0.1,0 0.1,0 0.1,0 0.1,0 0.1,0 0.1,0 0.1,0 0.1,0 0.1,0 
		0.1,0 0.1,0 0.1,0 0.1,0 0.1,0 0.1,0 0.1,0 0.1,0 0.1,0 0.1,0 0.1,0 0.1,0 0.1,0 0.1,0 0.1,0 0.1,0 0.1,0 0.1,0 0.1,0 0.1,0 0.1,0 
		0.1,0 0.1,0 0.1,0 0.1,0 0.1,0 0.1,0 0.1,0 0.1,0 0.1,0 0.1,0 0.1,0 0.1,0 0.1,0 0.1,0 0.1,0 0.1,0 0.1,0 0.1,0 0.1,0 0.1,0 0.1,0 
		0.1,0 0.1,0 0.1,0 0.1,0 0.1,0 0.1,0 0.1,0 0.1,0 0.1,0 0.1,0 0.1,0 0.1,0 0.1,0 0.1,0 0.1,0 0.1,0 0,0 0,0 0,0 0,0 0,0 0,0 0,0 
		0,0 0,0 0,0 0,0 0,0 0,0 0,0 0,0 0,0 0,0 0,0 0,0 0,0 0,0 0,0 0,0 0,0 0,0 0,0 0,0 0,0 0,0 0,0 0,0 0,0 0,0 0,0 0,0 0,0 0,0 0,0 
		0,0 0,0 0,0 0,0 0,0 0,0 0,0 0,0 0,0 0,0 0,0 0,0 0,0 0,0 0,0 0,0 0,0 0,0 0,0 0,0 0,0 0,0 0,0 0,0 0,0 0,0 0,0 0,0 0,0 0,0 0,0 
		0,0 0,0 0,0 0,0 0,0 0,0 0,0 0,0 0,0 0,0 0,0 0,0 0,0 0,0 0,0 0,0 0,0 0,0 0,0 0,0 0,0 0,0 0,0 0,0 0,0 0,0 0,0 0,0 0,0 0,0 0,0 
		0,0 0,0 0,0 0,0 0,0 0,0 0,0 0,0 0,0 0,0 0,0 0,0 0,0 0,0 0,0 0,0 0,0 0,0 0,0 0,0 0,0 0,0 0,0 0,0 0,0 0,0 0,0 0,0 0,0 0,0 0,0 
		0,0 0,0 0,0 0,0 0,0 0,0 0,0 0,0 0,0 0,0 0,0 0,0 0,0 0,0 0,0 0,0 0,180 0,180 0,180 0,180 0,180 0,180 0,180 0,180 0,180 0,180 
		0,180 0,180 0,180 0,180 0,180 0,180 0,180 0,180 0,180 0,180 0,180 0,180 0,180 0,180 0,180 0,180 0,180 0,180 0,180 0,180 0,180 
		0,180 0,180 0,180 0,180 0,180 0,180 0,180 0,180 0,180 0,180 0,180 0,180 0,180 0,180 0,180 0,180 0,180 0,180 0,180 0,180 0,180 
		0,180 0,180 0,180 0,180 0,180 0,180 0,180 0,180 0,180 0,180 0,180 0,180 0,180 0,180 0,180 0,180 0,180 0,180 0,180 0,180 0,180 
		0,180 0,180 0,180 0,180 0,180 0,180 0,180 0,180 0,180 0,180 0,180 0,180 0,180 0,180 0,180 0,180 0,180 0,180 0,180 0,180 0,180 
		0,180 0,180 0,180 0,180 0,180 0,180 0,180 0,180 0,180 0,180 0,180 0,180 0,180 0,180 0,180 0,180 0,180 0,180 0,180 0,180 0,180 
		0,180 0,180 0,180 0,180 0,180 0,180 0,180 0,180 0,180 0,180 0,180 0,180 0,180 0,180 0,180 0,180 0,180 0,180 0,180 0,180 0,180 
		0,180 0,180 0,180 0,180 0,180 0,180 0,180 0,180 0,180 0,180 0,180 0.1,180 0.1,180 0.1,180 0.1,180 0.1,180 0.1,180 0.1,180 
		0.1,180 0.1,180 0.1,180 0.1,180 0.1,180 0.1,180 0.1,180 0.1,180 0.1,180 0.1,180 0.1,180 0.1,180 0.1,180 0.1,180 0.1,180 
		0.1,180 0.1,180 0.1,180 0.1,180 0.1,180 0.1,180 0.1,180 0.1,180 0.1,180 0.1,180 0.1,180 0.1,180 0.1,180 0.1,180 0.1,180 
		0.1,180 0.1,180 0.1,180 0.1,180 0.1,180 0.1,180 0.1,180 0.1,180 0.1,180 0.1,180 0.1,180 0.1,180 0.1,180 0.1,180 0.1,180 
		0.1,180 0.1,180 0.1,180 0.1,180 0.1,180 0.1,180 0.1,180 0.1,180 0.1,180 0.1,180 0.1,180 0.1,180 0.1,180 0.1,180 0.1,180 
		0.1,180 0.1,180 0.1,180 0.1,180 0.1,180 0.1,180 0.1,180 0.1,180 0.1,180 0.1,180 0.1,180 0.1,180 0.1,180 0.1,180 0.1,180 
		0.1,180 0.1,180 0.1,180 0.1,180 0.1,180 0.1,180 0.1,180 0.1,180 0.1,180 0.1,180 0.1,180 0.1,180 0.1,180 0.1,180 0.1,180 
		0.1,180 0.1,180 0.1,180 0.1,180 0.1,180 0.1,180 0.1,180 0.1,180 0.1,180 0.1,180 0.1,180 0.1,180 0.1,180 0.1,180 0.1,180 
		0.1,180 0.1,180 0.1,180 0.1,180 0.1,180 0.1,180 0.1,180 0.1,180 0.1,180 0.1,180 0.1,180 0.1,180 0.1,180 0.1,180 0.1,180 
		0.1,180 0.1,180 0.1,180 0.1,180 0.1,180 0.1,180 0.1,180 0.1,180 0.1,180 0.1,180 0.1,180 0.1,180 0.1,180 0.1,180 0.1,180 
		0.1,180 0.1,180 0.1,180 0.1,180 0.1,180 0.1,180 0.1,180 0.1,180 0.1,180 0.1,180 0.1,180 0.1,180 0.1,180 0.1,180 0.1,180 
		0.1,180 0.1,180 0.1,180 0.1,180 0.1,180 0.1,180 0.1,180 0.1,180 0.1,180 0.1,180 0.1,180 0.1,180 0.1,180 0.1,180 0.1,180 
		0.1,180 0.1,180 0.1,180 0.1,180 0.1,180 0.1,180 0.1,180 0.1,180 0.1,180 0.1,180 0.1,180 0.1,180 0.1,180 0.1,180 0.1,180 
		0.1,180 0.1,180 0.1,180 0.1,180 0.1,180 0.1,180 0.1,180 0.1,180 0.1,180 0.1,180 0.1,180 0.1,180 0.1,180 0.1,180 0.1,180 
		0.1,180 0.1,180 0.1,180 0.1,180 0.1,180 0.1,180 0.1,180 0.1,180 0.1,180 0.1,180 0.1,180 0.1,180 0.1,180 0.1,180 0.1,180 
		0.1,180 0.1,180 0.1,180 0.1,180 0.1,180 0.1,180 0.1,180 0.1,180 0.1,180 0.1,180 0.1,180 0.1,180 0.1,180 0.1,180 0.1,180 
		0.1,180 0.1,180 0.1,180 0.1,180 0.1,180 0.1,180 0.1,180 0.1,180 0.1,180 0.1,180 0.1,180 0.1,180 0.1,180 0.1,180 0.1,180 
		0.1,180 0.1,180 0.1,180 0.1,180 0.1,180 0.1,180 0.1,180 0.1,180 0.1,180 0.1,180 0.1,180 0.1,180 0.1,180 0.1,180 0.1,180 
		0.1,180 0.1,180 0.1,180 0.1,180 0.1,180 0.1,180 0.1,180 0.1,180 0.1,180 0.1,180 0.1,180 0.1,180 0.1,180 0.1,180 0.1,180 
		0.1,180 0.1,180 0.1,180 0.1,180 0.1,180 0.1,180 0.1,180 63.1,180 63.1,0 	"/>
</g>
<g id="figure">
	<path d="M35.2,86.6L48.3,72h4.8l-36.2,40.3c-2.6,2.9-4.1,5-4.7,6.4c-0.5,1.4-0.3,2.1,0.8,2.1c2.8,0,5.8-1,8.9-3
		c3.1-2,5.7-4.3,7.8-6.9c2.1-2.6,3.1-4.7,3.1-6.1c0-2.1,0.6-3.1,1.7-3.1c0.4,0,0.7,0.2,0.7,0.7c0,2.5-1.6,5.6-4.8,9.3
		c2,0.1,3.5-0.1,4.5-0.6s2.3-1.6,4-3.4v1c-1.6,1.8-2.9,2.9-4.1,3.3c-1.2,0.4-2.9,0.6-5.1,0.4c-2.8,3.1-5.7,5.5-8.7,7
		c-3,1.5-5.7,2.2-8.2,2.2c-1.7,0-2.5-0.8-2.5-2.4c0-1.4,0.3-2.8,1-4.2c0.7-1.4,1.9-3.2,3.6-5.4c0.4-0.6,1.1-1.5,2.1-2.6
		c1-1.1,2.3-2.6,4-4.5c1.7-1.9,3.2-3.6,4.6-5.2c1.4-1.6,2.1-2.4,2.2-2.5L10,110v-0.9l1.8-1.6c3.4-3,6.3-5.4,8.4-7.4
		c2.2-1.9,4.6-4,7.2-6.3c2.6-2.3,4.4-3.9,5.3-4.8C33.6,88.2,34.4,87.4,35.2,86.6z"/>
</g>
</svg>
