<?xml version="1.0" encoding="utf-8"?>
<!-- Generator: Adobe Illustrator 22.1.0, SVG Export Plug-In . SVG Version: 6.00 Build 0)  -->
<svg version="1.1" xmlns="http://www.w3.org/2000/svg" xmlns:xlink="http://www.w3.org/1999/xlink" x="0px" y="0px"
	 viewBox="0 0 117.4 180" style="enable-background:new 0 0 117.4 180;" xml:space="preserve">
<style type="text/css">
	.st0{display:none;}
	.st1{display:inline;fill:#FF0000;}
</style>
<g id="bg" class="st0">
	<polygon class="st1" points="95,0 94.4,0 78.8,0 77.3,0 76.6,0 76.5,0 76,0 75.8,0 75.7,0 74.3,0 74.2,0 73.7,0 73.5,0 73.3,0 
		72.9,0 72.9,0 72.7,0 71.3,0 71.2,0 71,0 70.6,0 70.5,0 70.4,0 70,0 69.8,0 69.7,0 68.3,0 68.2,0 68,0 67.6,0 67.5,0 67.4,0 67,0 
		66.8,0 66.7,0 66.1,0 65.3,0 65.2,0 65.1,0 64.7,0 64.5,0 64.3,0 64.1,0 63.9,0 63.8,0 63.7,0 63.1,0 63,0 62.3,0 62.2,0 62,0 
		61.8,0 61.5,0 61.4,0 61.4,0 61.1,0 61,0 60.8,0 60.7,0 60.6,0 60.1,0 60,0 59.8,0 59.6,0 59.5,0 59.2,0 59,0 58.8,0 58.7,0 
		58.4,0 58.4,0 58.3,0 58.2,0 58,0 57.8,0 57.8,0 57.6,0 57.5,0 57.3,0 57.1,0 57,0 56.8,0 56.6,0 56.5,0 56.5,0 56.3,0 56.1,0 
		55.8,0 55.7,0 55.5,0 55.5,0 55.3,0 55.2,0 55.1,0 55,0 54.9,0 54.9,0 54.8,0 54.7,0 54.5,0 54.3,0 54.1,0 54.1,0 53.9,0 53.9,0 
		53.6,0 53.5,0 53.5,0 53.3,0 53.3,0 53.2,0 52.8,0 52.7,0 52.5,0 52.4,0 52.3,0 52.2,0 52.1,0 52,0 52,0 51.9,0 51.8,0 51.8,0 
		51.6,0 51.5,0 51.3,0 51.1,0 51.1,0 51,0 51,0 50.8,0 50.6,0 50.5,0 50.5,0 50.4,0 50.3,0 50.2,0 49.8,0 49.6,0 49.6,0 49.4,0 
		49.3,0 49.2,0 49.2,0 49,0 49,0 48.8,0 48.8,0 48.8,0 48.7,0 48.6,0 48.5,0 48.3,0 48.3,0 48.2,0 48,0 48,0 47.8,0 47.6,0 47.5,0 
		47.5,0 47.4,0 47.3,0 47.2,0 46.8,0 46.7,0 46.5,0 46.5,0 46.3,0 46.1,0 46,0 45.9,0 45.9,0 45.9,0 45.8,0 45.7,0 45.7,0 45.5,0 
		45.3,0 45.3,0 45.1,0 45.1,0 45,0 44.9,0 44.6,0 44.5,0 44.5,0 44.3,0 44.3,0 44.2,0 43.7,0 43.7,0 43.6,0 43.5,0 43.3,0 43.2,0 
		43,0 42.9,0 42.9,0 42.8,0 42.8,0 42.7,0 42.5,0 42.3,0 42.3,0 42.1,0 42.1,0 42,0 42,0 41.8,0 41.5,0 41.4,0 41.4,0 41.3,0 
		41.2,0 40.8,0 40.6,0 40.6,0 40.6,0 40.5,0 40.2,0 40,0 40,0 39.8,0 39.8,0 39.7,0 39.6,0 39.4,0 39.2,0 39.2,0 39.2,0 39.1,0 
		39,0 39,0 38.8,0 38.6,0 38.4,0 38.4,0 38.3,0 38.2,0 37.8,0 37.6,0 37.6,0 37.5,0 37.5,0 37.3,0 37.1,0 36.9,0 36.8,0 36.8,0 
		36.7,0 36.7,0 36.5,0 36.3,0 36.3,0 36.1,0 36.1,0 36,0 36,0 35.9,0 35.8,0 35.6,0 35.5,0 35.4,0 35.3,0 35.1,0 34.7,0 34.6,0 
		34.6,0 34.5,0 34.5,0 34.3,0 34.1,0 34,0 33.9,0 33.8,0 33.7,0 33.7,0 33.5,0 33.3,0 33.3,0 33.2,0 33.1,0 33.1,0 33,0 33,0 
		32.8,0 32.8,0 32.7,0 32.5,0 32.4,0 32.3,0 32.1,0 31.7,0 31.6,0 31.6,0 31.5,0 31.5,0 31.4,0 31.1,0 31,0 31,0 30.8,0 30.8,0 
		30.6,0 30.4,0 30.3,0 30.2,0 30.2,0 30.1,0 30,0 30,0 29.8,0 29.8,0 29.6,0 29.5,0 29.4,0 29.3,0 29.2,0 28.8,0 28.6,0 28.6,0 
		28.5,0 28.4,0 28.3,0 28.1,0 28,0 27.8,0 27.8,0 27.7,0 27.4,0 27.3,0 27.2,0 27.1,0 27,0 26.9,0 26.8,0 26.8,0 26.6,0 26.5,0 
		26.4,0 26.3,0 26.1,0 25.9,0 25.6,0 25.5,0 25.5,0 25.3,0 25.1,0 25,0 24.9,0 24.7,0 24.5,0 24.3,0 24.2,0 24.1,0 23.9,0 23.8,0 
		23.7,0 23.6,0 23.5,0 23.3,0 23.1,0 22.9,0 22.8,0 22.5,0 22.4,0 22.1,0 22,0 21.8,0 21.3,0 21.2,0 21.2,0 21,0 20.8,0 20.6,0 
		20.5,0 20.4,0 20.2,0 19.9,0 19.8,0 19.6,0 19,0 18.8,0 18.3,0 18.2,0 18.1,0 17.8,0 17.6,0 17.4,0 17.3,0 16.9,0 16.8,0 16.6,0 
		15.9,0 15.3,0 15.1,0 15,0 14.6,0 14.5,0 14.3,0 13.9,0 13.8,0 13.7,0 12.2,0 12.1,0 12,0 11.6,0 11.4,0 11.3,0 10.9,0 10.8,0 
		10.6,0 9.3,0 9.1,0 9,0 8.6,0 8.4,0 8.3,0 7.8,0 7.6,0 6.3,0 6.1,0 6,0 5.5,0 5.3,0 4.7,0 3.1,0 3,0 2.3,0 0,0 0,180 2.3,180 
		3,180 3.1,180 4.7,180 5.3,180 5.5,180 6,180 6.1,180 6.3,180 7.6,180 7.8,180 8.3,180 8.4,180 8.6,180 9,180 9.1,180 9.3,180 
		10.6,180 10.8,180 10.9,180 11.3,180 11.4,180 11.6,180 12,180 12.1,180 12.2,180 13.7,180 13.8,180 13.9,180 14.3,180 14.5,180 
		14.6,180 15,180 15.1,180 15.3,180 15.9,180 16.6,180 16.8,180 16.9,180 17.3,180 17.4,180 17.6,180 17.8,180 18.1,180 18.2,180 
		18.3,180 18.8,180 19,180 19.6,180 19.8,180 19.9,180 20.2,180 20.4,180 20.5,180 20.6,180 20.8,180 21,180 21.2,180 21.2,180 
		21.3,180 21.8,180 22,180 22.1,180 22.4,180 22.5,180 22.8,180 22.9,180 23.1,180 23.3,180 23.5,180 23.6,180 23.7,180 23.8,180 
		23.9,180 24.1,180 24.2,180 24.3,180 24.5,180 24.7,180 24.9,180 25,180 25.1,180 25.3,180 25.5,180 25.5,180 25.6,180 25.9,180 
		26.1,180 26.3,180 26.4,180 26.5,180 26.6,180 26.8,180 26.8,180 26.9,180 27,180 27.1,180 27.2,180 27.3,180 27.4,180 27.7,180 
		27.8,180 27.8,180 28,180 28.1,180 28.3,180 28.4,180 28.5,180 28.6,180 28.6,180 28.8,180 29.2,180 29.3,180 29.4,180 29.5,180 
		29.6,180 29.8,180 29.8,180 30,180 30,180 30.1,180 30.2,180 30.2,180 30.3,180 30.4,180 30.6,180 30.8,180 30.8,180 31,180 
		31,180 31.1,180 31.4,180 31.5,180 31.5,180 31.6,180 31.6,180 31.7,180 32.1,180 32.3,180 32.4,180 32.5,180 32.7,180 32.8,180 
		32.8,180 33,180 33,180 33.1,180 33.1,180 33.2,180 33.3,180 33.3,180 33.5,180 33.7,180 33.7,180 33.8,180 33.9,180 34,180 
		34.1,180 34.3,180 34.5,180 34.5,180 34.6,180 34.6,180 34.7,180 35.1,180 35.3,180 35.4,180 35.5,180 35.6,180 35.8,180 35.9,180 
		36,180 36,180 36.1,180 36.1,180 36.3,180 36.3,180 36.5,180 36.7,180 36.7,180 36.8,180 36.8,180 36.9,180 37.1,180 37.3,180 
		37.5,180 37.5,180 37.6,180 37.6,180 37.8,180 38.2,180 38.3,180 38.4,180 38.4,180 38.6,180 38.8,180 39,180 39,180 39.1,180 
		39.2,180 39.2,180 39.2,180 39.4,180 39.6,180 39.7,180 39.8,180 39.8,180 40,180 40,180 40.2,180 40.5,180 40.6,180 40.6,180 
		40.6,180 40.8,180 41.2,180 41.3,180 41.4,180 41.4,180 41.5,180 41.8,180 42,180 42,180 42.1,180 42.1,180 42.3,180 42.3,180 
		42.5,180 42.7,180 42.8,180 42.8,180 42.9,180 42.9,180 43,180 43.2,180 43.3,180 43.5,180 43.6,180 43.7,180 43.7,180 44.2,180 
		44.3,180 44.3,180 44.5,180 44.5,180 44.6,180 44.9,180 45,180 45.1,180 45.1,180 45.3,180 45.3,180 45.5,180 45.7,180 45.7,180 
		45.8,180 45.9,180 45.9,180 45.9,180 46,180 46.1,180 46.3,180 46.5,180 46.5,180 46.7,180 46.8,180 47.2,180 47.3,180 47.4,180 
		47.5,180 47.5,180 47.6,180 47.8,180 48,180 48,180 48.2,180 48.3,180 48.3,180 48.5,180 48.6,180 48.7,180 48.8,180 48.8,180 
		48.8,180 49,180 49,180 49.2,180 49.2,180 49.3,180 49.4,180 49.6,180 49.6,180 49.8,180 50.2,180 50.3,180 50.4,180 50.5,180 
		50.5,180 50.6,180 50.8,180 51,180 51,180 51.1,180 51.1,180 51.3,180 51.5,180 51.6,180 51.8,180 51.8,180 51.9,180 52,180 
		52,180 52.1,180 52.2,180 52.3,180 52.4,180 52.5,180 52.7,180 52.8,180 53.2,180 53.3,180 53.3,180 53.5,180 53.5,180 53.6,180 
		53.9,180 53.9,180 54.1,180 54.1,180 54.3,180 54.5,180 54.7,180 54.8,180 54.9,180 54.9,180 55,180 55.1,180 55.2,180 55.3,180 
		55.5,180 55.5,180 55.7,180 55.8,180 56.1,180 56.3,180 56.5,180 56.5,180 56.6,180 56.8,180 57,180 57.1,180 57.3,180 57.5,180 
		57.6,180 57.8,180 57.8,180 58,180 58.2,180 58.3,180 58.4,180 58.4,180 58.7,180 58.8,180 59,180 59.2,180 59.5,180 59.6,180 
		59.8,180 60,180 60.1,180 60.6,180 60.7,180 60.8,180 61,180 61.1,180 61.4,180 61.4,180 61.5,180 61.8,180 62,180 62.2,180 
		62.3,180 63,180 63.1,180 63.7,180 63.8,180 63.9,180 64.1,180 64.3,180 64.5,180 64.7,180 65.1,180 65.2,180 65.3,180 66.1,180 
		66.7,180 66.8,180 67,180 67.4,180 67.5,180 67.6,180 68,180 68.2,180 68.3,180 69.7,180 69.8,180 70,180 70.4,180 70.5,180 
		70.6,180 71,180 71.2,180 71.3,180 72.7,180 72.9,180 72.9,180 73.3,180 73.5,180 73.7,180 74.2,180 74.3,180 75.7,180 75.8,180 
		76,180 76.5,180 76.6,180 77.3,180 78.8,180 79,180 79.6,180 117.4,180 117.4,0 	"/>
</g>
<g id="figure">
	<path d="M70.8,64.4l0.9,0.1c0,3.3-1.1,6.8-3.2,10.4c-2.2,3.6-4.9,7-8.2,10s-6.8,5.5-10.5,7.4c-3.7,1.9-6.9,2.8-9.8,2.8
		c-2.3,0-4.1-0.7-5.4-2s-1.9-3.2-1.9-5.6c0-3.4,1.2-6.9,3.7-10.4c2.4-3.5,5.7-6.6,9.9-9.5c4.2-2.8,9-5.1,14.5-6.8
		c5.5-1.7,11.2-2.6,17.1-2.6c2.7,0,4.9,0.2,6.9,0.5c1.9,0.3,3.7,0.9,5.3,1.6c1.6,0.7,3.4,1.9,5.3,3.4c1.9-1.2,3.9-2.3,6-3.3
		c2.1-1,3.9-1.7,5.4-2.2l0.7,0.9c-1.6,0.5-3.6,1.3-5.8,2.4s-4,2.1-5.4,3c1.2,1.3,2,2.7,2.3,3.9c0.4,1.3,0.5,2.8,0.5,4.6
		c0,2.4-0.5,4.6-1.6,6.6c-1.1,2-2.7,3.8-4.9,5.6c-2.2,1.7-5.1,3.4-8.6,5c0.8,1.4,1.4,2.7,1.7,3.9c0.3,1.2,0.5,2.6,0.5,4.1
		c0,2.9-0.8,5.8-2.4,8.7s-3.6,5.6-6.2,7.9c-2.6,2.3-5.5,4.2-8.8,5.6c-3.3,1.4-6.5,2.1-9.7,2.1c-3.5,0-5.3-1.5-5.3-4.4
		c0-2.2,0.9-4.5,2.7-7c1.8-2.5,4.1-4.7,7.1-6.8s6-3.5,9.2-4.3l0.2,0.8c-5.3,1.8-9.4,4.1-12.2,6.8c-1.9,1.8-3.5,3.7-4.6,5.6
		c-1.1,1.9-1.7,3.6-1.7,5.1c0,2.3,1.5,3.4,4.6,3.4c3.2,0,6.3-1,9.3-3.1c3-2,5.7-4.6,8-7.8c2.3-3.1,4.1-6.3,5.4-9.3s1.9-5.6,1.9-7.6
		c0-1.2-0.2-2.4-0.7-3.4c-1.7,0.9-3.6,1.4-5.7,1.4c-1.5,0-2.6-0.3-3.2-0.8c-0.6-0.5-0.9-1.3-0.9-2.2c0-0.9,0.3-1.6,0.9-2.2
		c0.6-0.6,1.5-1,2.7-1c2.2,0,4.3,1.2,6.4,3.6c2.4-1.3,4.6-3.1,6.7-5.3c2.1-2.2,3.7-4.5,4.9-7c1.2-2.5,1.8-4.8,1.8-7
		c0-2.3-0.5-3.9-1.5-4.9c-3.9,2.2-8,5.3-12.3,9.3c-4.3,4-8.9,9.6-13.8,16.8c-2.5,3.9-4.7,6.8-6.6,8.9s-4.2,4.5-7,7.1
		c-3,2.8-6,5.2-8.9,7.3c-2.9,2.1-5.7,3.7-8.3,4.8c-2.6,1.1-5.2,2-7.7,2.5c-2.6,0.5-5.3,0.8-8.1,0.8c-8.4,0-12.6-2.1-12.6-6.4
		c0-1,0.3-1.9,0.8-2.5c0.5-0.6,1.3-1,2.2-1c0.6,0,1,0.2,1.4,0.6s0.6,0.9,0.6,1.5c0,0.5-0.2,0.9-0.6,1.2c-0.4,0.3-0.8,0.5-1.2,0.5
		c-0.7,0-1.3-0.3-1.7-1c-0.1-0.1-0.2-0.2-0.3-0.2s-0.2,0.4-0.2,1.1c0,1.6,1,2.9,3,3.9c2,1,4.8,1.5,8.5,1.5c3.8,0,7.2-0.5,10.3-1.4
		c3-1,5.9-2.4,8.6-4.5s5.8-4.9,9.4-8.7c0.8-0.9,2-2.3,3.8-4.3c1.7-2,3.9-4.5,6.4-7.5c2.6-3,4.9-5.7,6.9-8c2-2.3,3.5-3.8,4.3-4.5
		l3.4-3.3c5.4-5,8.9-8.3,10.8-9.8c1.8-1.5,4.6-3.3,8.2-5.5c-4-3.5-9.5-5.3-16.3-5.3c-6.2,0-12,0.9-17.5,2.6
		c-5.4,1.8-10.2,4.1-14.2,6.9c-4,2.8-7.2,5.9-9.4,9.3c-2.3,3.4-3.4,6.5-3.4,9.5c0,2.1,0.6,3.8,1.7,5.1c1.1,1.2,2.7,1.9,4.7,1.9
		c2.7,0,5.8-0.9,9.4-2.8c3.6-1.9,7-4.2,10.3-7.2c3.3-2.9,5.9-6.1,8-9.6C69.8,71.1,70.8,67.7,70.8,64.4z M82.5,89.7
		c-1.6-2.1-3.5-3.1-5.7-3.1c-0.7,0-1.4,0.3-1.9,0.8c-0.5,0.5-0.8,1.1-0.8,1.8c0,1.5,1.1,2.2,3.4,2.1c0.8,0,1.6-0.2,2.4-0.4
		C80.7,90.5,81.6,90.1,82.5,89.7z"/>
</g>
</svg>
