<?xml version="1.0" encoding="utf-8"?>
<!-- Generator: Adobe Illustrator 22.1.0, SVG Export Plug-In . SVG Version: 6.00 Build 0)  -->
<svg version="1.1" xmlns="http://www.w3.org/2000/svg" xmlns:xlink="http://www.w3.org/1999/xlink" x="0px" y="0px"
	 viewBox="0 0 46.7 180" style="enable-background:new 0 0 46.7 180;" xml:space="preserve">
<style type="text/css">
	.st0{display:none;}
	.st1{display:inline;fill:#FF0000;}
</style>
<g id="bg" class="st0">
	<polygon class="st1" points="0.1,0 0.1,0 0.1,0 0,0 0,0 0,0 0,0 0,0 0,0 0,0 0,0 0,0 0,0 0,0 0,0 0,0 0,0 0,0 0,0 0,0 0,0 0,0 0,0 
		0,0 0,0 0,0 0,0 0,0 0,0 0,0 0,0 0,0 0,0 0,0 0,0 0,0 0,0 0,0 0,0 0,0 0,0 0,0 0,0 0,0 0,0 0,0 0,0 0,0 0,0 0,0 0,0 0,0 0,0 0,0 
		0,0 0,0 0,0 0,0 0,0 0,0 0,0 0,0 0,0 0,0 0,0 0,0 0,0 0,0 0,0 0,0 0,0 0,0 0,0 0,0 0,0 0,0 0,0 0,0 0,0 0,0 0,0 0,0 0,0 0,0 0,0 
		0,0 0,0 0,0 0,0 0,0 0,0 0,0 0,0 0,0 0,0 0,0 0,0 0,0 0,0 0,0 0,0 0,0 0,0 0,0 0,0 0,0 0,0 0,0 0,0 0,0 0,0 0,0 0,0 0,0 0,0 0,0 
		0,0 0,0 0,0 0,0 0,0 0,0 0,0 0,0 0,0 0,0 0,0 0,0 0,0 0,0 0,0 0,0 0,0 0,0 0,0 0,0 0,0 0,0 0,0 0,0 0,0 0,0 0,0 0,0 0,0 0,0 0,0 
		0,0 0,0 0,0 0,0 0,0 0,0 0,0 0,0 0,0 0,0 0,0 0,0 0,0 0,0 0,0 0,0 0,0 0,0 0,0 0,0 0,0 0,0 0,0 0,0 0,0 0,0 0,0 0,0 0,0 0,0 0,0 
		0,0 0,0 0,0 0,0 0,0 0,0 0,0 0,0 0,0 0,0 0,0 0,0 0,0 0,0 0,0 0,0 0,0 0,0 0,0 0,0 0,0 0,0 0,0 0,0 0,0 0,0 0,0 0,0 0,0 0,0 0,0 
		0,0 0,0 0,0 0,0 0,0 0,0 0,0 0,0 0,0 0,0 0,0 0,0 0,0 0,0 0,0 0,0 0,0 0,0 0,0 0,0 0,0 0,0 0,0 0,0 0,0 0,0 0,0 0,0 0,0 0,0 0,0 
		0,0 0,0 0,0 0,0 0,0 0,0 0,0 0,0 0,0 0,0 0,0 0,0 0,0 0,0 0,0 0,0 0,0 0,0 0,0 0,0 0,0 0,0 0,0 0,0 0,0 0,0 0,0 0,0 0,0 0,0 0,0 
		0,0 0,0 0,0 0,0 0,0 0,0 0,0 0,0 0,0 0,0 0,0 0,0 0,0 0,0 0,0 0,0 0,0 0,0 0,0 0,0 0,0 0,0 0,0 0,0 0,0 0,0 0,0 0,0 0,0 0,0 0,0 
		0,0 0,0 0,0 0,0 0,0 0,0 0,0 0,0 0,0 0,0 0,0 0,0 0,0 0,0 0,0 0,0 0,0 0,0 0,0 0,0 0,0 0,0 0,0 0,0 0,0 0,0 0,0 0,0 0,0 0,0 0,0 
		0,0 0,0 0,0 0,0 0,0 0,0 0,0 0,0 0,0 0,0 0,0 0,0 0,0 0,0 0,0 0,0 0,0 0,0 0,0 0,0 0,0 0,0 0,0 0,0 0,0 0,0 0,0 0,0 0,0 0,0 0,0 
		0,0 0,0 0,0 0,0 0,0 0,0 0,0 0,0 0,0 0,0 0,0 0,0 0,0 0,0 0,0 0,0 0,0 0,0 0,0 0,0 0,0 0,0 0,0 0,0 0,0 0,0 0,0 0,0 0,0 0,0 0,0 
		0,0 0,0 0,0 0,0 0,0 0,0 0,0 0,0 0,0 0,0 0,0 0,0 0,0 0,0 0,0 0,0 0,0 0,0 0,0 0,0 0,0 0,0 0,0 0,0 0,0 0,0 0,0 0,0 0,0 0,0 0,0 
		0,0 0,0 0,0 0,0 0,0 0,180 0,180 0,180 0,180 0,180 0,180 0,180 0,180 0,180 0,180 0,180 0,180 0,180 0,180 0,180 0,180 0,180 
		0,180 0,180 0,180 0,180 0,180 0,180 0,180 0,180 0,180 0,180 0,180 0,180 0,180 0,180 0,180 0,180 0,180 0,180 0,180 0,180 0,180 
		0,180 0,180 0,180 0,180 0,180 0,180 0,180 0,180 0,180 0,180 0,180 0,180 0,180 0,180 0,180 0,180 0,180 0,180 0,180 0,180 0,180 
		0,180 0,180 0,180 0,180 0,180 0,180 0,180 0,180 0,180 0,180 0,180 0,180 0,180 0,180 0,180 0,180 0,180 0,180 0,180 0,180 0,180 
		0,180 0,180 0,180 0,180 0,180 0,180 0,180 0,180 0,180 0,180 0,180 0,180 0,180 0,180 0,180 0,180 0,180 0,180 0,180 0,180 0,180 
		0,180 0,180 0,180 0,180 0,180 0,180 0,180 0,180 0,180 0,180 0,180 0,180 0,180 0,180 0,180 0,180 0,180 0,180 0,180 0,180 0,180 
		0,180 0,180 0,180 0,180 0,180 0,180 0,180 0,180 0,180 0,180 0,180 0,180 0,180 0,180 0,180 0,180 0,180 0,180 0,180 0,180 0,180 
		0,180 0,180 0,180 0,180 0,180 0,180 0,180 0,180 0,180 0,180 0,180 0,180 0,180 0,180 0,180 0,180 0,180 0,180 0,180 0,180 0,180 
		0,180 0,180 0,180 0,180 0,180 0,180 0,180 0,180 0,180 0,180 0,180 0,180 0,180 0,180 0,180 0,180 0,180 0,180 0,180 0,180 0,180 
		0,180 0,180 0,180 0,180 0,180 0,180 0,180 0,180 0,180 0,180 0,180 0,180 0,180 0,180 0,180 0,180 0,180 0,180 0,180 0,180 0,180 
		0,180 0,180 0,180 0,180 0,180 0,180 0,180 0,180 0,180 0,180 0,180 0,180 0,180 0,180 0,180 0,180 0,180 0,180 0,180 0,180 0,180 
		0,180 0,180 0,180 0,180 0,180 0,180 0,180 0,180 0,180 0,180 0,180 0,180 0,180 0,180 0,180 0,180 0,180 0,180 0,180 0,180 0,180 
		0,180 0,180 0,180 0,180 0,180 0,180 0,180 0,180 0,180 0,180 0,180 0,180 0,180 0,180 0,180 0,180 0,180 0,180 0,180 0,180 0,180 
		0,180 0,180 0,180 0,180 0,180 0,180 0,180 0,180 0,180 0,180 0,180 0,180 0,180 0,180 0,180 0,180 0,180 0,180 0,180 0,180 0,180 
		0,180 0,180 0,180 0,180 0,180 0,180 0,180 0,180 0,180 0,180 0,180 0,180 0,180 0,180 0,180 0,180 0,180 0,180 0,180 0,180 0,180 
		0,180 0,180 0,180 0,180 0,180 0,180 0,180 0,180 0,180 0,180 0,180 0,180 0,180 0,180 0,180 0,180 0,180 0,180 0,180 0,180 0,180 
		0,180 0,180 0,180 0,180 0,180 0,180 0,180 0,180 0,180 0,180 0,180 0,180 0,180 0,180 0,180 0,180 0,180 0,180 0,180 0,180 0,180 
		0,180 0,180 0,180 0,180 0,180 0,180 0,180 0,180 0,180 0,180 0,180 0,180 0,180 0,180 0,180 0,180 0,180 0,180 0,180 0,180 0,180 
		0,180 0,180 0,180 0,180 0,180 0,180 0,180 0,180 0,180 0,180 0,180 0,180 0,180 0,180 0,180 0,180 0,180 0,180 0,180 0,180 0,180 
		0,180 0,180 0,180 0,180 0,180 0,180 0,180 0,180 0,180 0,180 0,180 0,180 0,180 0,180 0,180 0,180 0,180 0,180 0,180 0,180 0,180 
		0,180 0,180 0,180 0,180 0,180 0,180 0,180 0,180 0,180 0,180 0,180 0,180 0.1,180 0.1,180 0.1,180 46.7,180 46.7,0 	"/>
</g>
<g id="figure">
	<path d="M36.7,107.7v1c-8.9,8.6-16.3,12.9-22.2,12.9c-1.6,0-2.7-0.4-3.4-1.2c-0.7-0.8-1.1-2.2-1.1-4.3c0-1.8,0.6-3.6,1.7-5.4
		c1.1-1.8,2.6-3.5,4.5-4.9c1.9-1.4,3.9-2.5,6.2-3.3c2.2-0.8,4.4-1.2,6.6-1.2c1,0,1.8,0.2,2.4,0.7c0.6,0.5,0.9,1.2,0.9,2
		c0,1-0.4,1.8-1.2,2.6c-0.8,0.8-1.6,1.2-2.6,1.2c-1.1,0-1.7-0.5-1.7-1.5c0-1.5,0.7-2.2,2-2.2c0.7,0,1.2,0.3,1.3,1
		c0.1,0.2,0.3,0.3,0.4,0.3c0.2,0,0.4-0.1,0.6-0.4c0.2-0.3,0.3-0.6,0.3-1c0-0.6-0.2-1.1-0.6-1.4c-0.4-0.4-1-0.5-1.7-0.5
		c-2,0-4.4,1.1-7.2,3.2c-2.8,2.1-5.3,4.6-7.3,7.3s-3.1,4.9-3.1,6.4c0,1.2,0.9,1.9,2.8,1.9c3.4,0,6.7-1,9.9-3.1
		C27.5,115.5,31.6,112.2,36.7,107.7z"/>
</g>
</svg>
