<?xml version="1.0" encoding="utf-8"?>
<!-- Generator: Adobe Illustrator 22.1.0, SVG Export Plug-In . SVG Version: 6.00 Build 0)  -->
<svg version="1.1" xmlns="http://www.w3.org/2000/svg" xmlns:xlink="http://www.w3.org/1999/xlink" x="0px" y="0px"
	 viewBox="0 0 112.8 180" style="enable-background:new 0 0 112.8 180;" xml:space="preserve">
<style type="text/css">
	.st0{display:none;}
	.st1{display:inline;fill:#FF0000;}
</style>
<g id="bg" class="st0">
	<polyline class="st1" points="112.8,0 0,0 0,0 0,0 0,0 0,0 0,0 0,0 0,0 0,0 0,0 0,0 0,0 0,0 0,0 0,0 0,0 0,0 0,0 0,0 0,0 0,0 0,0 
		0,0 0,0 0,0 0,0 0,0 0,0 0,0 0,0 0,0 0,0 0,0 0,0 0,0 0,0 0,0 0,0 0,0 0,0 0,0 0,0 0,0 0,0 0,0 0,0 0,0 0,0 0,0 0,0 0,0 0,0 0,0 
		0,0 0,0 0,0 0,0 0,0 0,0 0,0 0,0 0,0 0,0 0,0 0,0 0,0 0,0 0,0 0,0 0,0 0,0 0,0 0,0 0,0 0,0 0,0 0,0 0,0 0,0 0,0 0,0 0,0 0,0 0,0 
		0,0 0,0 0,0 0,0 0,0 0,0 0,0 0,0 0,0 0,0 0,0 0,0 0,0 0,0 0,0 0,0 0,0 0,0 0,0 0,0 0,0 0,0 0,0 0,0 0,0 0,0 0,0 0,0 0,0 0,0 0,0 
		0,0 0,0 0,0 0,0 0,0 0,0 0,0 0,0 0,0 0,0 0,0 0,0 0,0 0,0 0,0 0,0 0,0 0,0 0,0 0,0 0,0 0,0 0,0 0,0 0,0 0,0 0,0 0,0 0,0 0,0 0,0 
		0,0 0,0 0,0 0,0 0,0 0,0 0,0 0,0 0,0 0,0 0,0 0,0 0,0 0,0 0,0 0,0 0,0 0,0 0,0 0,0 0,0 0,0 0,0 0,0 0,0 0,0 0,0 0,0 0,0 0,0 0,0 
		0,0 0,0 0,0 0,0 0,0 0,0 0,0 0,0 0,0 0,0 0,0 0,0 0,0 0,0 0,0 0,0 0,0 0,0 0,0 0,0 0,0 0,0 0,0 0,0 0,0 0,0 0,0 0,0 0,0 0,0 0,0 
		0,0 0,0 0,0 0,0 0,0 0,0 0,0 0,0 0,0 0,0 0,0 0,0 0,0 0,0 0,0 0,0 0,0 0,0 0,0 0,0 0,0 0,0 0,0 0,0 0,0 0,0 0,0 0,0 0,0 0,0 0,0 
		0,0 0,0 0,0 0,0 0,0 0,0 0,0 0,0 0,0 0,0 0,0 0,0 0,0 0,0 0,0 0,0 0,0 0,0 0,0 0,0 0,0 0,0 0,0 0,0 0,0 0,0 0,0 0,0 0,0 0,0 0,0 
		0,0 0,0 0,0 0,0 0,0 0,0 0,0 0,0 0,0 0,0 0,0 0,0 0,0 0,0 0,0 0,0 0,0 0,0 0,0 0,0 0,0 0,0 0,0 0,0 0,0 0,0 0,0 0,0 0,0 0,0 0,0 
		0,0 0,0 0,0 0,0 0,0 0,0 0,0 0,0 0,0 0,0 0,0 0,0 0,0 0,0 0,0 0,0 0,0 0,0 0,0 0,0 0,0 0,0 0,0 0,0 0,0 0,0 0,0 0,0 0,0 0,0 0,0 
		0,0 0,0 0,0 0,0 0,0 0,0 0,0 0,0 0,0 0,0 0,0 0,0 0,0 0,0 0,0 0,0 0,0 0,0 0,0 0,0 0,0 0,0 0,0 0,0 0,0 0,0 0,0 0,0 0,0 0,0 0,0 
		0,0 0,0 0,0 0,0 0,0 0,0 0,0 0,0 0,0 0,0 0,0 0,0 0,0 0,0 0,0 0,0 0,0 0,0 0,0 0,0 0,0 0,0 0,0 0,0 0,0 0,0 0,0 0,0 0,0 0,0 0,0 
		0,0 0,0 0,0 0,0 0,0 0,0 0,0 0,0 0,0 0,0 0,0 0,0 0,0 0,0 0,0 0,0 0,0 0,0 0,0 0,0 0,0 0,0 0,0 0,0 0,0 0,0 0,0 0,0 0,0 0,0 0,0 
		0,0 0,0 0,0 0,0 0,0 0,0 0,180 0,180 0,180 0,180 0,180 0,180 0,180 0,180 0,180 0,180 0,180 0,180 0,180 0,180 0,180 0,180 0,180 
		0,180 0,180 0,180 0,180 0,180 0,180 0,180 0,180 0,180 0,180 0,180 0,180 0,180 0,180 0,180 0,180 0,180 0,180 0,180 0,180 0,180 
		0,180 0,180 0,180 0,180 0,180 0,180 0,180 0,180 0,180 0,180 0,180 0,180 0,180 0,180 0,180 0,180 0,180 0,180 0,180 0,180 0,180 
		0,180 0,180 0,180 0,180 0,180 0,180 0,180 0,180 0,180 0,180 0,180 0,180 0,180 0,180 0,180 0,180 0,180 0,180 0,180 0,180 0,180 
		0,180 0,180 0,180 0,180 0,180 0,180 0,180 0,180 0,180 0,180 0,180 0,180 0,180 0,180 0,180 0,180 0,180 0,180 0,180 0,180 0,180 
		0,180 0,180 0,180 0,180 0,180 0,180 0,180 0,180 0,180 0,180 0,180 0,180 0,180 0,180 0,180 0,180 0,180 0,180 0,180 0,180 0,180 
		0,180 0,180 0,180 0,180 0,180 0,180 0,180 0,180 0,180 0,180 0,180 0,180 0,180 0,180 0,180 0,180 0,180 0,180 0,180 0,180 0,180 
		0,180 0,180 0,180 0,180 0,180 0,180 0,180 0,180 0,180 0,180 0,180 0,180 0,180 0,180 0,180 0,180 0,180 0,180 0,180 0,180 0,180 
		0,180 0,180 0,180 0,180 0,180 0,180 0,180 0,180 0,180 0,180 0,180 0,180 0,180 0,180 0,180 0,180 0,180 0,180 0,180 0,180 0,180 
		0,180 0,180 0,180 0,180 0,180 0,180 0,180 0,180 0,180 0,180 0,180 0,180 0,180 0,180 0,180 0,180 0,180 0,180 0,180 0,180 0,180 
		0,180 0,180 0,180 0,180 0,180 0,180 0,180 0,180 0,180 0,180 0,180 0,180 0,180 0,180 0,180 0,180 0,180 0,180 0,180 0,180 0,180 
		0,180 0,180 0,180 0,180 0,180 0,180 0,180 0,180 0,180 0,180 0,180 0,180 0,180 0,180 0,180 0,180 0,180 0,180 0,180 0,180 0,180 
		0,180 0,180 0,180 0,180 0,180 0,180 0,180 0,180 0,180 0,180 0,180 0,180 0,180 0,180 0,180 0,180 0,180 0,180 0,180 0,180 0,180 
		0,180 0,180 0,180 0,180 0,180 0,180 0,180 0,180 0,180 0,180 0,180 0,180 0,180 0,180 0,180 0,180 0,180 0,180 0,180 0,180 0,180 
		0,180 0,180 0,180 0,180 0,180 0,180 0,180 0,180 0,180 0,180 0,180 0,180 0,180 0,180 0,180 0,180 0,180 0,180 0,180 0,180 0,180 
		0,180 0,180 0,180 0,180 0,180 0,180 0,180 0,180 0,180 0,180 0,180 0,180 0,180 0,180 0,180 0,180 0,180 0,180 0,180 0,180 0,180 
		0,180 0,180 0,180 0,180 0,180 0,180 0,180 0,180 0,180 0,180 0,180 0,180 0,180 0,180 0,180 0,180 0,180 0,180 0,180 0,180 0,180 
		0,180 0,180 0,180 0,180 0,180 0,180 0,180 0,180 0,180 0,180 0,180 0,180 0,180 0,180 0,180 0,180 0,180 0,180 0,180 0,180 0,180 
		0,180 0,180 0,180 0,180 0,180 0,180 0,180 0,180 0,180 0,180 0,180 0,180 0,180 0,180 0,180 0,180 0,180 0,180 0,180 0,180 0,180 
		0,180 0,180 0,180 0,180 0,180 0,180 0,180 0,180 0,180 0,180 0,180 0,180 0,180 0,180 0,180 0,180 0,180 0,180 0,180 0,180 0,180 
		0,180 0,180 0,180 0,180 0,180 0,180 0,180 0,180 0,180 0,180 0,180 0,180 0,180 0,180 0,180 112.8,180 	"/>
</g>
<g id="figure">
	<g>
		<path d="M27.8,93.1c-6.5,0.4-11.1-0.5-13.8-2.9c-2.7-2.3-4-5.3-4-8.9c0-1.9,0.6-4.1,1.8-6.5c1.2-2.4,3.3-4.7,6.2-6.9
			c2.9-2.2,7-4.1,12.3-5.6c5.2-1.5,11.8-2.2,19.6-2.2V61c-8.2,0-14.9,0.8-20.3,2.4c-5.4,1.6-9.3,3.5-12,5.7
			c-2.6,2.2-4.4,4.4-5.4,6.7c-1,2.2-1.5,4.2-1.5,5.9c0,3.5,1.4,6.3,4.2,8.3c2.8,2.1,7.3,2.9,13.5,2.5c3.1-3.3,6.9-6.9,11.2-10.7
			c4.4-3.8,8.9-7.3,13.6-10.6c4.7-3.3,9.2-5.9,13.6-7.9c4.4-2,8.2-3.1,11.5-3.1c2.8,0,4.3,1.3,4.3,4c0,2.8-2.3,6.1-6.9,9.9
			c-4.6,3.7-10.6,7.2-18,10.5s-15.3,5.8-23.6,7.6c-3.6,4-6.5,7.5-8.7,10.4c-2.2,2.9-3.8,5.6-4.8,7.9c-1,2.3-1.6,4.4-1.6,6.3
			c0,1.9,0.9,3.5,2.6,4.9c1.7,1.4,4,2.1,6.8,2.1c3.8,0,7.7-1,11.6-3c3.9-2,7.1-4.5,9.7-7.4c2.6-3,3.8-5.7,3.8-8.2
			c0-2-0.6-3.5-1.7-4.5c-1.2-1-2.8-1.5-4.9-1.5c-2.8,0-6.2,1.3-10.1,3.8c-3.9,2.6-7.7,7.3-11.5,14.3l-0.8-0.6
			c3.4-6.4,7.1-11.1,11.1-14c4-2.9,7.8-4.4,11.5-4.4c2.4,0,4.3,0.6,5.5,1.9c1.2,1.2,1.9,2.9,1.9,4.9c0,2.1-0.8,4.3-2.3,6.6
			S48.6,116,46,118c-2.6,2-5.4,3.6-8.5,4.7c-3,1.2-5.9,1.8-8.7,1.8c-3.7,0-6.6-0.9-8.6-2.7c-2-1.8-3.1-4.5-3.1-8.1
			c0-3.2,0.8-6.3,2.4-9.4C21.1,101.3,23.8,97.6,27.8,93.1z M35,91.3c6.1-1.5,12.1-3.5,18-5.8c5.8-2.3,10.9-4.8,15.3-7.3
			c4.3-2.6,7.7-5.1,10.1-7.5c2.4-2.4,3.5-4.7,3.5-6.7c0-2.1-1.2-3.1-3.5-3.1c-3.8,0-8.2,1.5-13.4,4.6c-5.1,3.1-10.3,6.9-15.4,11.4
			C44.4,81.5,39.6,86.3,35,91.3z"/>
		<path d="M98.2,72h4.6l-37.3,42.3c3.6-3,7.5-5.9,11.9-8.8c4.4-2.9,7.3-4.3,8.8-4.3c1.7,0,2.5,0.9,2.5,2.8c0,2.1-0.7,4-2.1,5.7
			c-1.4,1.6-3.3,3.3-5.6,5.1c-2.9,2.1-4.4,3.7-4.4,4.8c0,0.8,0.5,1.2,1.4,1.2c1.8,0,4.2-1.1,7.2-3.2c3-2.1,6.9-5.3,11.5-9.6v1
			l-1.6,1.5c-3.7,3.4-7.1,6.2-10.1,8.2c-3,2-5.3,3-7,3c-1.7,0-2.5-0.8-2.5-2.4c0-3.1,1.6-6,4.9-8.9c2.5-2.2,4.2-3.8,5.2-4.8
			c0.9-1,1.4-1.8,1.4-2.6c0-0.2-0.1-0.4-0.3-0.6c-0.2-0.2-0.5-0.3-0.8-0.3c-1.5,0-5.6,2.4-12.3,7.2c-5.5,4-10.4,8.1-14.5,12.3h-4.8
			l29.8-33.9L58.3,110v-0.9L74.4,95c4.5-3.9,8-7,10.4-9.2c2.4-2.2,4.5-4.2,6.4-6.2C93,77.7,95.4,75.2,98.2,72z"/>
	</g>
</g>
</svg>
