<?xml version="1.0" encoding="utf-8"?>
<!-- Generator: Adobe Illustrator 22.1.0, SVG Export Plug-In . SVG Version: 6.00 Build 0)  -->
<svg version="1.1" xmlns="http://www.w3.org/2000/svg" xmlns:xlink="http://www.w3.org/1999/xlink" x="0px" y="0px"
	 viewBox="0 0 107.3 180" style="enable-background:new 0 0 107.3 180;" xml:space="preserve">
<style type="text/css">
	.st0{display:none;}
	.st1{display:inline;fill:#FF0000;}
</style>
<g id="bg" class="st0">
	<polyline class="st1" points="107.3,0 0,0 0,0 0,0 0,0 0,0 0,0 0,0 0,0 0,0 0,0 0,0 0,0 0,0 0,0 0,0 0,0 0,0 0,0 0,0 0,0 0,0 0,0 
		0,0 0,0 0,0 0,0 0,0 0,0 0,0 0,0 0,0 0,0 0,0 0,0 0,0 0,0 0,0 0,0 0,0 0,0 0,0 0,0 0,0 0,0 0,0 0,0 0,0 0,0 0,0 0,0 0,0 0,0 0,0 
		0,0 0,0 0,0 0,0 0,0 0,0 0,0 0,0 0,0 0,0 0,0 0,0 0,0 0,0 0,0 0,0 0,0 0,0 0,0 0,0 0,0 0,0 0,0 0,0 0,0 0,0 0,0 0,0 0,0 0,0 0,0 
		0,0 0,0 0,0 0,0 0,0 0,0 0,0 0,0 0,0 0,0 0,0 0,0 0,0 0,0 0,0 0,0 0,0 0,0 0,0 0,0 0,0 0,0 0,0 0,0 0,0 0,0 0,0 0,0 0,0 0,0 0,0 
		0,0 0,0 0,0 0,0 0,0 0,0 0,0 0,0 0,0 0,0 0,0 0,0 0,0 0,0 0,0 0,0 0,0 0,0 0,0 0,0 0,0 0,0 0,0 0,0 0,0 0,0 0,0 0,0 0,0 0,0 0,0 
		0,0 0,0 0,0 0,0 0,0 0,0 0,0 0,0 0,0 0,0 0,0 0,0 0,0 0,0 0,0 0,0 0,0 0,0 0,0 0,0 0,0 0,0 0,0 0,0 0,0 0,0 0,0 0,0 0,0 0,0 0,0 
		0,0 0,0 0,0 0,0 0,0 0,0 0,0 0,0 0,0 0,0 0,0 0,0 0,0 0,0 0,0 0,0 0,0 0,0 0,0 0,0 0,0 0,0 0,0 0,0 0,0 0,0 0,0 0,0 0,0 0,0 0,0 
		0,0 0,0 0,0 0,0 0,0 0,0 0,0 0,0 0,0 0,0 0,0 0,0 0,0 0,0 0,0 0,0 0,0 0,0 0,0 0,0 0,0 0,0 0,0 0,0 0,0 0,0 0,0 0,0 0,0 0,0 0,0 
		0,0 0,0 0,0 0,0 0,0 0,0 0,0 0,0 0,0 0,0 0,0 0,0 0,0 0,0 0,0 0,0 0,0 0,0 0,0 0,0 0,0 0,0 0,0 0,0 0,0 0,0 0,0 0,0 0,0 0,0 0,0 
		0,0 0,0 0,0 0,0 0,0 0,0 0,0 0,0 0,0 0,0 0,0 0,0 0,0 0,0 0,0 0,0 0,0 0,0 0,0 0,0 0,0 0,0 0,0 0,0 0,0 0,0 0,0 0,0 0,0 0,0 0,0 
		0,0 0,0 0,0 0,0 0,0 0,0 0,0 0,0 0,0 0,0 0,0 0,0 0,0 0,0 0,0 0,0 0,0 0,0 0,0 0,0 0,0 0,0 0,0 0,0 0,0 0,0 0,0 0,0 0,0 0,0 0,0 
		0,0 0,0 0,0 0,0 0,0 0,0 0,0 0,0 0,0 0,0 0,0 0,0 0,0 0,0 0,0 0,0 0,0 0,0 0,0 0,0 0,0 0,0 0,0 0,0 0,0 0,0 0,0 0,0 0,0 0,0 0,0 
		0,0 0,0 0,0 0,0 0,0 0,0 0,0 0,0 0,0 0,0 0,0 0,0 0,0 0,0 0,0 0,0 0,0 0,0 0,0 0,0 0,0 0,0 0,0 0,0 0,0 0,0 0,0 0,0 0,0 0,0 0,0 
		0,0 0,0 0,0 0,0 0,0 0,0 0,0 0,0 0,0 0,0 0,0 0,0 0,0 0,0 0,0 0,0 0,0 0,0 0,0 0,0 0,0 0,0 0,0 0,0 0,0 0,0 0,0 0,0 0,0 0,0 0,0 
		0,0 0,0 0,0 0,0 0,0 0,0 0,180 0,180 0,180 0,180 0,180 0,180 0,180 0,180 0,180 0,180 0,180 0,180 0,180 0,180 0,180 0,180 0,180 
		0,180 0,180 0,180 0,180 0,180 0,180 0,180 0,180 0,180 0,180 0,180 0,180 0,180 0,180 0,180 0,180 0,180 0,180 0,180 0,180 0,180 
		0,180 0,180 0,180 0,180 0,180 0,180 0,180 0,180 0,180 0,180 0,180 0,180 0,180 0,180 0,180 0,180 0,180 0,180 0,180 0,180 0,180 
		0,180 0,180 0,180 0,180 0,180 0,180 0,180 0,180 0,180 0,180 0,180 0,180 0,180 0,180 0,180 0,180 0,180 0,180 0,180 0,180 0,180 
		0,180 0,180 0,180 0,180 0,180 0,180 0,180 0,180 0,180 0,180 0,180 0,180 0,180 0,180 0,180 0,180 0,180 0,180 0,180 0,180 0,180 
		0,180 0,180 0,180 0,180 0,180 0,180 0,180 0,180 0,180 0,180 0,180 0,180 0,180 0,180 0,180 0,180 0,180 0,180 0,180 0,180 0,180 
		0,180 0,180 0,180 0,180 0,180 0,180 0,180 0,180 0,180 0,180 0,180 0,180 0,180 0,180 0,180 0,180 0,180 0,180 0,180 0,180 0,180 
		0,180 0,180 0,180 0,180 0,180 0,180 0,180 0,180 0,180 0,180 0,180 0,180 0,180 0,180 0,180 0,180 0,180 0,180 0,180 0,180 0,180 
		0,180 0,180 0,180 0,180 0,180 0,180 0,180 0,180 0,180 0,180 0,180 0,180 0,180 0,180 0,180 0,180 0,180 0,180 0,180 0,180 0,180 
		0,180 0,180 0,180 0,180 0,180 0,180 0,180 0,180 0,180 0,180 0,180 0,180 0,180 0,180 0,180 0,180 0,180 0,180 0,180 0,180 0,180 
		0,180 0,180 0,180 0,180 0,180 0,180 0,180 0,180 0,180 0,180 0,180 0,180 0,180 0,180 0,180 0,180 0,180 0,180 0,180 0,180 0,180 
		0,180 0,180 0,180 0,180 0,180 0,180 0,180 0,180 0,180 0,180 0,180 0,180 0,180 0,180 0,180 0,180 0,180 0,180 0,180 0,180 0,180 
		0,180 0,180 0,180 0,180 0,180 0,180 0,180 0,180 0,180 0,180 0,180 0,180 0,180 0,180 0,180 0,180 0,180 0,180 0,180 0,180 0,180 
		0,180 0,180 0,180 0,180 0,180 0,180 0,180 0,180 0,180 0,180 0,180 0,180 0,180 0,180 0,180 0,180 0,180 0,180 0,180 0,180 0,180 
		0,180 0,180 0,180 0,180 0,180 0,180 0,180 0,180 0,180 0,180 0,180 0,180 0,180 0,180 0,180 0,180 0,180 0,180 0,180 0,180 0,180 
		0,180 0,180 0,180 0,180 0,180 0,180 0,180 0,180 0,180 0,180 0,180 0,180 0,180 0,180 0,180 0,180 0,180 0,180 0,180 0,180 0,180 
		0,180 0,180 0,180 0,180 0,180 0,180 0,180 0,180 0,180 0,180 0,180 0,180 0,180 0,180 0,180 0,180 0,180 0,180 0,180 0,180 0,180 
		0,180 0,180 0,180 0,180 0,180 0,180 0,180 0,180 0,180 0,180 0,180 0,180 0,180 0,180 0,180 0,180 0,180 0,180 0,180 0,180 0,180 
		0,180 0,180 0,180 0,180 0,180 0,180 0,180 0,180 0,180 0,180 0,180 0,180 0,180 0,180 0,180 0,180 0,180 0,180 0,180 0,180 0,180 
		0,180 0,180 0,180 0,180 0,180 0,180 0,180 0,180 0,180 0,180 0,180 0,180 0,180 0,180 0,180 0,180 0,180 0,180 0,180 0,180 0,180 
		0,180 0,180 0,180 0,180 0,180 0,180 0,180 0,180 0,180 0,180 0,180 0,180 0,180 0,180 0,180 107.3,180 	"/>
</g>
<g id="figure">
	<g>
		<path d="M36.7,107.7v1c-8.9,8.6-16.3,12.9-22.2,12.9c-1.6,0-2.7-0.4-3.4-1.2c-0.7-0.8-1.1-2.2-1.1-4.3c0-1.8,0.6-3.6,1.7-5.4
			c1.1-1.8,2.6-3.5,4.5-4.9c1.9-1.4,3.9-2.5,6.2-3.3c2.2-0.8,4.4-1.2,6.6-1.2c1,0,1.8,0.2,2.4,0.7c0.6,0.5,0.9,1.2,0.9,2
			c0,1-0.4,1.8-1.2,2.6c-0.8,0.8-1.6,1.2-2.6,1.2c-1.1,0-1.7-0.5-1.7-1.5c0-1.5,0.7-2.2,2-2.2c0.7,0,1.2,0.3,1.3,1
			c0.1,0.2,0.3,0.3,0.4,0.3c0.2,0,0.4-0.1,0.6-0.4c0.2-0.3,0.3-0.6,0.3-1c0-0.6-0.2-1.1-0.6-1.4s-1-0.5-1.7-0.5
			c-2,0-4.4,1.1-7.2,3.2c-2.8,2.1-5.3,4.6-7.3,7.3s-3.1,4.9-3.1,6.4c0,1.2,0.9,1.9,2.8,1.9c3.4,0,6.7-1,9.9-3.1
			C27.5,115.5,31.6,112.2,36.7,107.7z"/>
		<path d="M50.7,95.7l9.8-8.4c2.4-2.1,5-4.5,7.7-7.4c2.7-2.9,5-5.5,6.9-7.9h4.7L36,121h-4.7l29-32.5c-1.2,1.1-2.5,2.2-3.8,3.3
			c-1.3,1.1-2.5,2.1-3.4,2.9c-1,0.8-2.2,1.9-3.8,3.3c-3.7,3.1-5.9,5.1-6.7,5.8c-0.8,0.7-5.9,4.8-5.9,4.8v-1l4.4-3.8
			C41,104,44.3,101.2,50.7,95.7z M72,109.1l1.5-0.4l-2.8,2.4c-4.5,3.9-8,6.6-10.5,8.1c-2.5,1.5-4.8,2.3-6.9,2.3c-1.8,0-2.6-1-2.6-3
			c0-1.9,0.9-3.9,2.6-6.1c0.8-0.9,1.2-1.7,1.2-2.4c0-0.4-0.2-0.7-0.7-0.7c-0.1,0-0.4,0-1,0.1c-0.5,0.1-0.9,0.1-1,0.1
			c-1.6,0-2.4-0.3-2.4-0.9c0-0.5,0.5-0.7,1.5-0.7c0.6,0,1.7,0.2,3.3,0.7c1.6-0.7,3.5-1.9,5.5-3.6c1.8-1.5,3.3-2.5,4.5-3.1
			c1.2-0.5,2.5-0.8,3.8-0.8c2.1,0,3.1,0.6,3.1,1.8c0,0.9-0.4,1.3-1.3,1.3c-1,0-1.5-0.4-1.5-1.3l0.2-1c0-0.1-0.1-0.2-0.3-0.2
			c-1.9,0-4,1.1-6.5,3.3c-1.4,1.3-3.7,2.7-6.8,4c0.8,1.1,1.2,2.3,1.2,3.4c0,1.7-0.7,3.3-2.2,4.7c-1.2,1.3-1.7,2.2-1.7,2.5
			c0,0.6,0.4,1,1.2,1c1.8,0,4.3-1,7.3-3C63.9,115.8,66.6,113.9,72,109.1z"/>
		<path d="M72,109.1L83.7,99c0.9-1.1,1.7-2.1,2.5-3c0.7-0.9,1.3-1.4,1.6-1.4c0.3,0,0.6,0.1,0.8,0.3c0.2,0.2,0.4,0.4,0.4,0.8
			c0,0.7-1,1.6-3.1,2.6c1.2,1.8,2.1,3.4,2.6,4.7c0.5,1.3,0.8,3.1,1,5.1c-0.1,1.3-0.3,2.3-0.4,3.2c1.3,0.3,2.6,0.3,3.7-0.1
			c1.1-0.4,2.6-1.6,4.6-3.5v1c-1.5,1.9-2.9,3-4.2,3.5c-1.3,0.4-2.8,0.4-4.4-0.1c-0.9,2-2.4,3.8-4.4,5.2c-2,1.4-4.1,2.5-6.2,3.2
			c-2.1,0.7-4,1-5.5,1c-1.5,0-2.6-0.3-3.6-0.9c-0.9-0.6-1.4-1.4-1.4-2.4c0-0.9,0.3-1.7,0.8-2.3c0.5-0.6,1.3-0.9,2.4-0.9
			c0.7,0,1.2,0.2,1.7,0.5c0.4,0.4,0.6,0.8,0.6,1.4c0,0.5-0.2,0.9-0.7,1.3c-0.5,0.4-1,0.6-1.5,0.6c-0.7,0-1.2-0.6-1.6-1.7
			c-0.5,0.3-0.7,0.8-0.7,1.5c0,0.4,0.4,0.9,1.2,1.3c0.8,0.5,1.7,0.7,2.7,0.7c2,0,4.1-0.9,6.3-2.6c2.2-1.7,4.1-3.8,5.5-6.4
			c1.5-2.6,2.2-5.1,2.2-7.5c0-1.7-0.5-3.5-1.6-5.3L72,110V109.1z"/>
	</g>
</g>
</svg>
