<?xml version="1.0" encoding="utf-8"?>
<!-- Generator: Adobe Illustrator 22.1.0, SVG Export Plug-In . SVG Version: 6.00 Build 0)  -->
<svg version="1.1" xmlns="http://www.w3.org/2000/svg" xmlns:xlink="http://www.w3.org/1999/xlink" x="0px" y="0px"
	 viewBox="0 0 66.1 180" style="enable-background:new 0 0 66.1 180;" xml:space="preserve">
<style type="text/css">
	.st0{display:none;}
	.st1{display:inline;fill:#FF0000;}
</style>
<g id="bg" class="st0">
	<polyline class="st1" points="66.1,0 0,0 0,0 0,0 0,0 0,0 0,0 0,0 0,0 0,0 0,0 0,0 0,0 0,0 0,0 0,0 0,0 0,0 0,0 0,0 0,0 0,0 0,0 
		0,0 0,0 0,0 0,0 0,0 0,0 0,0 0,0 0,0 0,0 0,0 0,0 0,0 0,0 0,0 0,0 0,0 0,0 0,0 0,0 0,0 0,0 0,0 0,0 0,0 0,0 0,0 0,0 0,0 0,0 0,0 
		0,0 0,0 0,0 0,0 0,0 0,0 0,0 0,0 0,0 0,0 0,0 0,0 0,0 0,0 0,0 0,0 0,0 0,0 0,0 0,0 0,0 0,0 0,0 0,0 0,0 0,0 0,0 0,0 0,0 0,0 0,0 
		0,0 0,0 0,0 0,0 0,0 0,0 0,0 0,0 0,0 0,0 0,0 0,0 0,0 0,0 0,0 0,0 0,0 0,0 0,0 0,0 0,0 0,0 0,0 0,0 0,0 0,0 0,0 0,0 0,0 0,0 0,0 
		0,0 0,0 0,0 0,0 0,0 0,0 0,0 0,0 0,0 0,0 0,0 0,0 0,0 0,0 0,0 0,0 0,0 0,0 0,0 0,0 0,0 0,0 0,0 0,0 0,0 0,0 0,0 0,0 0,0 0,0 0,0 
		0,0 0,0 0,0 0,0 0,0 0,0 0,0 0,0 0,0 0,0 0,0 0,0 0,0 0,0 0,0 0,0 0,0 0,0 0,0 0,0 0,0 0,0 0,0 0,0 0,0 0,0 0,0 0,0 0,0 0,0 0,0 
		0,0 0,0 0,0 0,0 0,0 0,0 0,0 0,0 0,0 0,0 0,0 0,0 0,0 0,0 0,0 0,0 0,0 0,0 0,0 0,0 0,0 0,0 0,0 0,0 0,0 0,0 0,0 0,0 0,0 0,0 0,0 
		0,0 0,0 0,0 0,0 0,0 0,0 0,0 0,0 0,0 0,0 0,0 0,0 0,0 0,0 0,0 0,0 0,0 0,0 0,0 0,0 0,0 0,0 0,0 0,0 0,0 0,0 0,0 0,0 0,0 0,0 0,0 
		0,0 0,0 0,0 0,0 0,0 0,0 0,0 0,0 0,0 0,0 0,0 0,0 0,0 0,0 0,0 0,0 0,0 0,0 0,0 0,0 0,0 0,0 0,0 0,0 0,0 0,0 0,0 0,0 0,0 0,0 0,0 
		0,0 0,0 0,0 0,0 0,0 0,0 0,0 0,0 0,0 0,0 0,0 0,0 0,0 0,0 0,0 0,0 0,0 0,0 0,0 0,0 0,0 0,0 0,0 0,0 0,0 0,0 0,0 0,0 0,0 0,0 0,0 
		0,0 0,0 0,0 0,0 0,0 0,0 0,0 0,0 0,0 0,0 0,0 0,0 0,0 0,0 0,0 0,0 0,0 0,0 0,0 0,0 0,0 0,0 0,0 0,0 0,0 0,0 0,0 0,0 0,0 0,0 0,0 
		0,0 0,0 0,0 0,0 0,0 0,0 0,0 0,0 0,0 0,0 0,0 0,0 0,0 0,0 0,0 0,0 0,0 0,0 0,0 0,0 0,0 0,0 0,0 0,0 0,0 0,0 0,0 0,0 0,0 0,0 0,0 
		0,0 0,0 0,0 0,0 0,0 0,0 0,0 0,0 0,0 0,0 0,0 0,0 0,0 0,0 0,0 0,0 0,0 0,0 0,0 0,0 0,0 0,0 0,0 0,0 0,0 0,0 0,0 0,0 0,0 0,0 0,0 
		0,0 0,0 0,0 0,0 0,0 0,0 0,0 0,0 0,0 0,0 0,0 0,0 0,0 0,0 0,0 0,0 0,0 0,0 0,0 0,0 0,0 0,0 0,0 0,0 0,0 0,0 0,0 0,0 0,0 0,0 0,0 
		0,0 0,0 0,0 0,0 0,0 0,0 0,180 0,180 0,180 0,180 0,180 0,180 0,180 0,180 0,180 0,180 0,180 0,180 0,180 0,180 0,180 0,180 0,180 
		0,180 0,180 0,180 0,180 0,180 0,180 0,180 0,180 0,180 0,180 0,180 0,180 0,180 0,180 0,180 0,180 0,180 0,180 0,180 0,180 0,180 
		0,180 0,180 0,180 0,180 0,180 0,180 0,180 0,180 0,180 0,180 0,180 0,180 0,180 0,180 0,180 0,180 0,180 0,180 0,180 0,180 0,180 
		0,180 0,180 0,180 0,180 0,180 0,180 0,180 0,180 0,180 0,180 0,180 0,180 0,180 0,180 0,180 0,180 0,180 0,180 0,180 0,180 0,180 
		0,180 0,180 0,180 0,180 0,180 0,180 0,180 0,180 0,180 0,180 0,180 0,180 0,180 0,180 0,180 0,180 0,180 0,180 0,180 0,180 0,180 
		0,180 0,180 0,180 0,180 0,180 0,180 0,180 0,180 0,180 0,180 0,180 0,180 0,180 0,180 0,180 0,180 0,180 0,180 0,180 0,180 0,180 
		0,180 0,180 0,180 0,180 0,180 0,180 0,180 0,180 0,180 0,180 0,180 0,180 0,180 0,180 0,180 0,180 0,180 0,180 0,180 0,180 0,180 
		0,180 0,180 0,180 0,180 0,180 0,180 0,180 0,180 0,180 0,180 0,180 0,180 0,180 0,180 0,180 0,180 0,180 0,180 0,180 0,180 0,180 
		0,180 0,180 0,180 0,180 0,180 0,180 0,180 0,180 0,180 0,180 0,180 0,180 0,180 0,180 0,180 0,180 0,180 0,180 0,180 0,180 0,180 
		0,180 0,180 0,180 0,180 0,180 0,180 0,180 0,180 0,180 0,180 0,180 0,180 0,180 0,180 0,180 0,180 0,180 0,180 0,180 0,180 0,180 
		0,180 0,180 0,180 0,180 0,180 0,180 0,180 0,180 0,180 0,180 0,180 0,180 0,180 0,180 0,180 0,180 0,180 0,180 0,180 0,180 0,180 
		0,180 0,180 0,180 0,180 0,180 0,180 0,180 0,180 0,180 0,180 0,180 0,180 0,180 0,180 0,180 0,180 0,180 0,180 0,180 0,180 0,180 
		0,180 0,180 0,180 0,180 0,180 0,180 0,180 0,180 0,180 0,180 0,180 0,180 0,180 0,180 0,180 0,180 0,180 0,180 0,180 0,180 0,180 
		0,180 0,180 0,180 0,180 0,180 0,180 0,180 0,180 0,180 0,180 0,180 0,180 0,180 0,180 0,180 0,180 0,180 0,180 0,180 0,180 0,180 
		0,180 0,180 0,180 0,180 0,180 0,180 0,180 0,180 0,180 0,180 0,180 0,180 0,180 0,180 0,180 0,180 0,180 0,180 0,180 0,180 0,180 
		0,180 0,180 0,180 0,180 0,180 0,180 0,180 0,180 0,180 0,180 0,180 0,180 0,180 0,180 0,180 0,180 0,180 0,180 0,180 0,180 0,180 
		0,180 0,180 0,180 0,180 0,180 0,180 0,180 0,180 0,180 0,180 0,180 0,180 0,180 0,180 0,180 0,180 0,180 0,180 0,180 0,180 0,180 
		0,180 0,180 0,180 0,180 0,180 0,180 0,180 0,180 0,180 0,180 0,180 0,180 0,180 0,180 0,180 0,180 0,180 0,180 0,180 0,180 0,180 
		0,180 0,180 0,180 0,180 0,180 0,180 0,180 0,180 0,180 0,180 0,180 0,180 0,180 0,180 0,180 0,180 0,180 0,180 0,180 0,180 0,180 
		0,180 0,180 0,180 0,180 0,180 0,180 0,180 0,180 0,180 0,180 0,180 0,180 0,180 0,180 0,180 0,180 0,180 0,180 0,180 0,180 0,180 
		0,180 0,180 0,180 0,180 0,180 0,180 0,180 0,180 0,180 0,180 0,180 0,180 0,180 0,180 0,180 66.1,180 	"/>
</g>
<g id="figure">
	<g>
		<path d="M36.8,107.7v1c-4.2,4.2-8,7.4-11.5,9.6c-3.5,2.2-7,3.3-10.6,3.3c-3.1,0-4.7-1.8-4.7-5.4c0-3,1.1-5.6,3.4-7.9s4.9-4,8-5.2
			c3.1-1.2,5.5-1.8,7.4-1.8c1.1,0,1.9,0.3,2.6,0.8c0.6,0.5,0.9,1.2,0.9,2c0,1.3-0.7,2.4-2.1,3.5c-1.4,1.1-3.3,1.9-5.8,2.6
			c-2.5,0.7-5.4,1.1-8.7,1.2c-2.8,3.2-4.3,5.7-4.3,7.4c0,0.6,0.3,1.1,0.9,1.5c0.6,0.4,1.4,0.6,2.3,0.6
			C20.7,120.8,28.1,116.4,36.8,107.7z M16.8,110.3c3.1,0,5.7-0.4,7.9-1.2c2.1-0.8,3.8-1.7,4.9-2.8c1.1-1.1,1.7-2,1.7-2.6
			c0-1.1-0.6-1.6-1.9-1.6c-1.7,0-3.7,0.7-5.9,2.2C21.2,105.7,19,107.7,16.8,110.3z"/>
		<path d="M36.8,108.7l-1,0.4l1-1.4c2.8-2.6,4.7-3.7,8.6-6.1h5.1l-13.3,14.8c-0.9,1-1.5,2-1.8,2.9c-0.3,0.9,0,1.3,0.7,1.3
			c1.9,0,4.7-1.4,8.4-4.2c3.7-2.8,7.1-5.7,10.3-8.8v1c-3.6,3.5-7.1,6.5-10.5,9c-3.4,2.5-6.1,3.8-8.3,3.8c-1.2,0-1.9-0.7-1.9-2
			c0-3.9,3-8.9,9.1-14.9c0.3-0.3,0.6-0.7,0.9-1c0.3-0.3,0.6-0.6,0.8-0.9C41.5,104.8,39.7,106,36.8,108.7z M54.9,89.8
			c0.8,0,1.2,0.5,1.2,1.5c0,0.6-0.2,1.1-0.5,1.5c-0.3,0.4-0.8,0.6-1.3,0.6c-1,0-1.5-0.4-1.5-1.3c0-0.5,0.2-1,0.6-1.5
			C53.8,90.1,54.3,89.8,54.9,89.8z"/>
	</g>
</g>
</svg>
