<?xml version="1.0" encoding="utf-8"?>
<!-- Generator: Adobe Illustrator 22.1.0, SVG Export Plug-In . SVG Version: 6.00 Build 0)  -->
<svg version="1.1" xmlns="http://www.w3.org/2000/svg" xmlns:xlink="http://www.w3.org/1999/xlink" x="0px" y="0px"
	 viewBox="0 0 83.8 180" style="enable-background:new 0 0 83.8 180;" xml:space="preserve">
<style type="text/css">
	.st0{display:none;}
	.st1{display:inline;fill:#FF0000;}
</style>
<g id="bg" class="st0">
	<polyline class="st1" points="83.8,0 0,0 0,0 0,0 0,0 0,0 0,0 0,0 0,0 0,0 0,0 0,0 0,0 0,0 0,0 0,0 0,0 0,0 0,0 0,0 0,0 0,0 0,0 
		0,0 0,0 0,0 0,0 0,0 0,0 0,0 0,0 0,0 0,0 0,0 0,0 0,0 0,0 0,0 0,0 0,0 0,0 0,0 0,0 0,0 0,0 0,0 0,0 0,0 0,0 0,0 0,0 0,0 0,0 0,0 
		0,0 0,0 0,0 0,0 0,0 0,0 0,0 0,0 0,0 0,0 0,0 0,0 0,0 0,0 0,0 0,0 0,0 0,0 0,0 0,0 0,0 0,0 0,0 0,0 0,0 0,0 0,0 0,0 0,0 0,0 0,0 
		0,0 0,0 0,0 0,0 0,0 0,0 0,0 0,0 0,0 0,0 0,0 0,0 0,0 0,0 0,0 0,0 0,0 0,0 0,0 0,0 0,0 0,0 0,0 0,0 0,0 0,0 0,0 0,0 0,0 0,0 0,0 
		0,0 0,0 0,0 0,0 0,0 0,0 0,0 0,0 0,0 0,0 0,0 0,0 0,0 0,0 0,0 0,0 0,0 0,0 0,0 0,0 0,0 0,0 0,0 0,0 0,0 0,0 0,0 0,0 0,0 0,0 0,0 
		0,0 0,0 0,0 0,0 0,0 0,0 0,0 0,0 0,0 0,0 0,0 0,0 0,0 0,0 0,0 0,0 0,0 0,0 0,0 0,0 0,0 0,0 0,0 0,0 0,0 0,0 0,0 0,0 0,0 0,0 0,0 
		0,0 0,0 0,0 0,0 0,0 0,0 0,0 0,0 0,0 0,0 0,0 0,0 0,0 0,0 0,0 0,0 0,0 0,0 0,0 0,0 0,0 0,0 0,0 0,0 0,0 0,0 0,0 0,0 0,0 0,0 0,0 
		0,0 0,0 0,0 0,0 0,0 0,0 0,0 0,0 0,0 0,0 0,0 0,0 0,0 0,0 0,0 0,0 0,0 0,0 0,0 0,0 0,0 0,0 0,0 0,0 0,0 0,0 0,0 0,0 0,0 0,0 0,0 
		0,0 0,0 0,0 0,0 0,0 0,0 0,0 0,0 0,0 0,0 0,0 0,0 0,0 0,0 0,0 0,0 0,0 0,0 0,0 0,0 0,0 0,0 0,0 0,0 0,0 0,0 0,0 0,0 0,0 0,0 0,0 
		0,0 0,0 0,0 0,0 0,0 0,0 0,0 0,0 0,0 0,0 0,0 0,0 0,0 0,0 0,0 0,0 0,0 0,0 0,0 0,0 0,0 0,0 0,0 0,0 0,0 0,0 0,0 0,0 0,0 0,0 0,0 
		0,0 0,0 0,0 0,0 0,0 0,0 0,0 0,0 0,0 0,0 0,0 0,0 0,0 0,0 0,0 0,0 0,0 0,0 0,0 0,0 0,0 0,0 0,0 0,0 0,0 0,0 0,0 0,0 0,0 0,0 0,0 
		0,0 0,0 0,0 0,0 0,0 0,0 0,0 0,0 0,0 0,0 0,0 0,0 0,0 0,0 0,0 0,0 0,0 0,0 0,0 0,0 0,0 0,0 0,0 0,0 0,0 0,0 0,0 0,0 0,0 0,0 0,0 
		0,0 0,0 0,0 0,0 0,0 0,0 0,0 0,0 0,0 0,0 0,0 0,0 0,0 0,0 0,0 0,0 0,0 0,0 0,0 0,0 0,0 0,0 0,0 0,0 0,0 0,0 0,0 0,0 0,0 0,0 0,0 
		0,0 0,0 0,0 0,0 0,0 0,0 0,0 0,0 0,0 0,0 0,0 0,0 0,0 0,0 0,0 0,0 0,0 0,0 0,0 0,0 0,0 0,0 0,0 0,0 0,0 0,0 0,0 0,0 0,0 0,0 0,0 
		0,0 0,0 0,0 0,0 0,0 0,0 0,180 0,180 0,180 0,180 0,180 0,180 0,180 0,180 0,180 0,180 0,180 0,180 0,180 0,180 0,180 0,180 0,180 
		0,180 0,180 0,180 0,180 0,180 0,180 0,180 0,180 0,180 0,180 0,180 0,180 0,180 0,180 0,180 0,180 0,180 0,180 0,180 0,180 0,180 
		0,180 0,180 0,180 0,180 0,180 0,180 0,180 0,180 0,180 0,180 0,180 0,180 0,180 0,180 0,180 0,180 0,180 0,180 0,180 0,180 0,180 
		0,180 0,180 0,180 0,180 0,180 0,180 0,180 0,180 0,180 0,180 0,180 0,180 0,180 0,180 0,180 0,180 0,180 0,180 0,180 0,180 0,180 
		0,180 0,180 0,180 0,180 0,180 0,180 0,180 0,180 0,180 0,180 0,180 0,180 0,180 0,180 0,180 0,180 0,180 0,180 0,180 0,180 0,180 
		0,180 0,180 0,180 0,180 0,180 0,180 0,180 0,180 0,180 0,180 0,180 0,180 0,180 0,180 0,180 0,180 0,180 0,180 0,180 0,180 0,180 
		0,180 0,180 0,180 0,180 0,180 0,180 0,180 0,180 0,180 0,180 0,180 0,180 0,180 0,180 0,180 0,180 0,180 0,180 0,180 0,180 0,180 
		0,180 0,180 0,180 0,180 0,180 0,180 0,180 0,180 0,180 0,180 0,180 0,180 0,180 0,180 0,180 0,180 0,180 0,180 0,180 0,180 0,180 
		0,180 0,180 0,180 0,180 0,180 0,180 0,180 0,180 0,180 0,180 0,180 0,180 0,180 0,180 0,180 0,180 0,180 0,180 0,180 0,180 0,180 
		0,180 0,180 0,180 0,180 0,180 0,180 0,180 0,180 0,180 0,180 0,180 0,180 0,180 0,180 0,180 0,180 0,180 0,180 0,180 0,180 0,180 
		0,180 0,180 0,180 0,180 0,180 0,180 0,180 0,180 0,180 0,180 0,180 0,180 0,180 0,180 0,180 0,180 0,180 0,180 0,180 0,180 0,180 
		0,180 0,180 0,180 0,180 0,180 0,180 0,180 0,180 0,180 0,180 0,180 0,180 0,180 0,180 0,180 0,180 0,180 0,180 0,180 0,180 0,180 
		0,180 0,180 0,180 0,180 0,180 0,180 0,180 0,180 0,180 0,180 0,180 0,180 0,180 0,180 0,180 0,180 0,180 0,180 0,180 0,180 0,180 
		0,180 0,180 0,180 0,180 0,180 0,180 0,180 0,180 0,180 0,180 0,180 0,180 0,180 0,180 0,180 0,180 0,180 0,180 0,180 0,180 0,180 
		0,180 0,180 0,180 0,180 0,180 0,180 0,180 0,180 0,180 0,180 0,180 0,180 0,180 0,180 0,180 0,180 0,180 0,180 0,180 0,180 0,180 
		0,180 0,180 0,180 0,180 0,180 0,180 0,180 0,180 0,180 0,180 0,180 0,180 0,180 0,180 0,180 0,180 0,180 0,180 0,180 0,180 0,180 
		0,180 0,180 0,180 0,180 0,180 0,180 0,180 0,180 0,180 0,180 0,180 0,180 0,180 0,180 0,180 0,180 0,180 0,180 0,180 0,180 0,180 
		0,180 0,180 0,180 0,180 0,180 0,180 0,180 0,180 0,180 0,180 0,180 0,180 0,180 0,180 0,180 0,180 0,180 0,180 0,180 0,180 0,180 
		0,180 0,180 0,180 0,180 0,180 0,180 0,180 0,180 0,180 0,180 0,180 0,180 0,180 0,180 0,180 0,180 0,180 0,180 0,180 0,180 0,180 
		0,180 0,180 0,180 0,180 0,180 0,180 0,180 0,180 0,180 0,180 0,180 0,180 0,180 0,180 0,180 0,180 0,180 0,180 0,180 0,180 0,180 
		0,180 0,180 0,180 0,180 0,180 0,180 0,180 0,180 0,180 0,180 0,180 0,180 0,180 0,180 0,180 83.8,180 	"/>
</g>
<g id="figure">
	<g>
		<path d="M36.8,107.7v1c-4.2,4.2-8,7.4-11.5,9.6c-3.5,2.2-7,3.3-10.6,3.3c-3.1,0-4.7-1.8-4.7-5.4c0-3,1.1-5.6,3.4-7.9s4.9-4,8-5.2
			c3.1-1.2,5.5-1.8,7.4-1.8c1.1,0,1.9,0.3,2.6,0.8c0.6,0.5,0.9,1.2,0.9,2c0,1.3-0.7,2.4-2.1,3.5c-1.4,1.1-3.3,1.9-5.8,2.6
			c-2.5,0.7-5.4,1.1-8.7,1.2c-2.8,3.2-4.3,5.7-4.3,7.4c0,0.6,0.3,1.1,0.9,1.5c0.6,0.4,1.4,0.6,2.3,0.6
			C20.7,120.8,28.1,116.4,36.8,107.7z M16.8,110.3c3.1,0,5.7-0.4,7.9-1.2c2.1-0.8,3.8-1.7,4.9-2.8c1.1-1.1,1.7-2,1.7-2.6
			c0-1.1-0.6-1.6-1.9-1.6c-1.7,0-3.7,0.7-5.9,2.2C21.2,105.7,19,107.7,16.8,110.3z"/>
		<path d="M36.8,108.7l-1,0.4l1-1.3c5.7-5.3,8.1-6.5,10.4-6.5c1.3,0,1.9,0.8,1.9,2.4c0,1.3-0.4,2.5-1.2,3.8
			c-0.8,1.2-2.4,3.4-4.8,6.5c4.6-3.9,8.7-6.9,12.1-9.2c3.4-2.3,6.3-3.4,8.8-3.4c1.3,0,1.9,0.9,1.9,2.6c0,1.7-0.6,3.4-1.8,5.1
			c-1.2,1.7-3.2,3.5-5.9,5.5c-2.9,2.2-4.4,3.8-4.4,4.7c0,0.4,0.2,0.7,0.5,1c0.4,0.3,0.7,0.5,1.1,0.5c1.3,0,3-0.7,5.2-2.2
			c2.2-1.4,4.5-3.3,7-5.5c2.5-2.2,4.6-4,6.2-5.4v1c-2.3,2.1-4.5,4.1-6.7,6c-2.2,1.9-4.3,3.5-6.5,4.8c-2.2,1.4-3.9,2-5.4,2
			c-0.9,0-1.5-0.3-1.9-0.9c-0.4-0.6-0.6-1.2-0.6-1.9c0-1.4,0.6-3,1.7-4.8c1.1-1.8,2.7-3.5,4.7-5.2c2.3-2,3.9-3.6,4.7-4.9
			c0.9-1.2,0.6-1.8-0.8-1.8c-1.8,0-4.4,1.2-8,3.6c-3.6,2.4-6.9,4.9-10,7.5c-3.1,2.6-6,5.2-8.8,7.8h-4.4l7.5-8.4
			c5.5-6.1,8.2-9.4,8.2-10c0-0.4-0.2-0.6-0.7-0.6C45.3,102,43,103.3,36.8,108.7z"/>
	</g>
</g>
</svg>
