<?xml version="1.0" encoding="utf-8"?>
<!-- Generator: Adobe Illustrator 22.1.0, SVG Export Plug-In . SVG Version: 6.00 Build 0)  -->
<svg version="1.1" xmlns="http://www.w3.org/2000/svg" xmlns:xlink="http://www.w3.org/1999/xlink" x="0px" y="0px"
	 viewBox="0 0 100.4 180" style="enable-background:new 0 0 100.4 180;" xml:space="preserve">
<style type="text/css">
	.st0{display:none;}
	.st1{display:inline;fill:#FF0000;}
</style>
<g id="bg" class="st0">
	<polyline class="st1" points="100.4,0 0,0 0,0 0,0 0,0 0,0 0,0 0,0 0,0 0,0 0,0 0,0 0,0 0,0 0,0 0,0 0,0 0,0 0,0 0,0 0,0 0,0 0,0 
		0,0 0,0 0,0 0,0 0,0 0,0 0,0 0,0 0,0 0,0 0,0 0,0 0,0 0,0 0,0 0,0 0,0 0,0 0,0 0,0 0,0 0,0 0,0 0,0 0,0 0,0 0,0 0,0 0,0 0,0 0,0 
		0,0 0,0 0,0 0,0 0,0 0,0 0,0 0,0 0,0 0,0 0,0 0,0 0,0 0,0 0,0 0,0 0,0 0,0 0,0 0,0 0,0 0,0 0,0 0,0 0,0 0,0 0,0 0,0 0,0 0,0 0,0 
		0,0 0,0 0,0 0,0 0,0 0,0 0,0 0,0 0,0 0,0 0,0 0,0 0,0 0,0 0,0 0,0 0,0 0,0 0,0 0,0 0,0 0,0 0,0 0,0 0,0 0,0 0,0 0,0 0,0 0,0 0,0 
		0,0 0,0 0,0 0,0 0,0 0,0 0,0 0,0 0,0 0,0 0,0 0,0 0,0 0,0 0,0 0,0 0,0 0,0 0,0 0,0 0,0 0,0 0,0 0,0 0,0 0,0 0,0 0,0 0,0 0,0 0,0 
		0,0 0,0 0,0 0,0 0,0 0,0 0,0 0,0 0,0 0,0 0,0 0,0 0,0 0,0 0,0 0,0 0,0 0,0 0,0 0,0 0,0 0,0 0,0 0,0 0,0 0,0 0,0 0,0 0,0 0,0 0,0 
		0,0 0,0 0,0 0,0 0,0 0,0 0,0 0,0 0,0 0,0 0,0 0,0 0,0 0,0 0,0 0,0 0,0 0,0 0,0 0,0 0,0 0,0 0,0 0,0 0,0 0,0 0,0 0,0 0,0 0,0 0,0 
		0,0 0,0 0,0 0,0 0,0 0,0 0,0 0,0 0,0 0,0 0,0 0,0 0,0 0,0 0,0 0,0 0,0 0,0 0,0 0,0 0,0 0,0 0,0 0,0 0,0 0,0 0,0 0,0 0,0 0,0 0,0 
		0,0 0,0 0,0 0,0 0,0 0,0 0,0 0,0 0,0 0,0 0,0 0,0 0,0 0,0 0,0 0,0 0,0 0,0 0,0 0,0 0,0 0,0 0,0 0,0 0,0 0,0 0,0 0,0 0,0 0,0 0,0 
		0,0 0,0 0,0 0,0 0,0 0,0 0,0 0,0 0,0 0,0 0,0 0,0 0,0 0,0 0,0 0,0 0,0 0,0 0,0 0,0 0,0 0,0 0,0 0,0 0,0 0,0 0,0 0,0 0,0 0,0 0,0 
		0,0 0,0 0,0 0,0 0,0 0,0 0,0 0,0 0,0 0,0 0,0 0,0 0,0 0,0 0,0 0,0 0,0 0,0 0,0 0,0 0,0 0,0 0,0 0,0 0,0 0,0 0,0 0,0 0,0 0,0 0,0 
		0,0 0,0 0,0 0,0 0,0 0,0 0,0 0,0 0,0 0,0 0,0 0,0 0,0 0,0 0,0 0,0 0,0 0,0 0,0 0,0 0,0 0,0 0,0 0,0 0,0 0,0 0,0 0,0 0,0 0,0 0,0 
		0,0 0,0 0,0 0,0 0,0 0,0 0,0 0,0 0,0 0,0 0,0 0,0 0,0 0,0 0,0 0,0 0,0 0,0 0,0 0,0 0,0 0,0 0,0 0,0 0,0 0,0 0,0 0,0 0,0 0,0 0,0 
		0,0 0,0 0,0 0,0 0,0 0,0 0,0 0,0 0,0 0,0 0,0 0,0 0,0 0,0 0,0 0,0 0,0 0,0 0,0 0,0 0,0 0,0 0,0 0,0 0,0 0,0 0,0 0,0 0,0 0,0 0,0 
		0,0 0,0 0,0 0,0 0,0 0,0 0,180 0,180 0,180 0,180 0,180 0,180 0,180 0,180 0,180 0,180 0,180 0,180 0,180 0,180 0,180 0,180 0,180 
		0,180 0,180 0,180 0,180 0,180 0,180 0,180 0,180 0,180 0,180 0,180 0,180 0,180 0,180 0,180 0,180 0,180 0,180 0,180 0,180 0,180 
		0,180 0,180 0,180 0,180 0,180 0,180 0,180 0,180 0,180 0,180 0,180 0,180 0,180 0,180 0,180 0,180 0,180 0,180 0,180 0,180 0,180 
		0,180 0,180 0,180 0,180 0,180 0,180 0,180 0,180 0,180 0,180 0,180 0,180 0,180 0,180 0,180 0,180 0,180 0,180 0,180 0,180 0,180 
		0,180 0,180 0,180 0,180 0,180 0,180 0,180 0,180 0,180 0,180 0,180 0,180 0,180 0,180 0,180 0,180 0,180 0,180 0,180 0,180 0,180 
		0,180 0,180 0,180 0,180 0,180 0,180 0,180 0,180 0,180 0,180 0,180 0,180 0,180 0,180 0,180 0,180 0,180 0,180 0,180 0,180 0,180 
		0,180 0,180 0,180 0,180 0,180 0,180 0,180 0,180 0,180 0,180 0,180 0,180 0,180 0,180 0,180 0,180 0,180 0,180 0,180 0,180 0,180 
		0,180 0,180 0,180 0,180 0,180 0,180 0,180 0,180 0,180 0,180 0,180 0,180 0,180 0,180 0,180 0,180 0,180 0,180 0,180 0,180 0,180 
		0,180 0,180 0,180 0,180 0,180 0,180 0,180 0,180 0,180 0,180 0,180 0,180 0,180 0,180 0,180 0,180 0,180 0,180 0,180 0,180 0,180 
		0,180 0,180 0,180 0,180 0,180 0,180 0,180 0,180 0,180 0,180 0,180 0,180 0,180 0,180 0,180 0,180 0,180 0,180 0,180 0,180 0,180 
		0,180 0,180 0,180 0,180 0,180 0,180 0,180 0,180 0,180 0,180 0,180 0,180 0,180 0,180 0,180 0,180 0,180 0,180 0,180 0,180 0,180 
		0,180 0,180 0,180 0,180 0,180 0,180 0,180 0,180 0,180 0,180 0,180 0,180 0,180 0,180 0,180 0,180 0,180 0,180 0,180 0,180 0,180 
		0,180 0,180 0,180 0,180 0,180 0,180 0,180 0,180 0,180 0,180 0,180 0,180 0,180 0,180 0,180 0,180 0,180 0,180 0,180 0,180 0,180 
		0,180 0,180 0,180 0,180 0,180 0,180 0,180 0,180 0,180 0,180 0,180 0,180 0,180 0,180 0,180 0,180 0,180 0,180 0,180 0,180 0,180 
		0,180 0,180 0,180 0,180 0,180 0,180 0,180 0,180 0,180 0,180 0,180 0,180 0,180 0,180 0,180 0,180 0,180 0,180 0,180 0,180 0,180 
		0,180 0,180 0,180 0,180 0,180 0,180 0,180 0,180 0,180 0,180 0,180 0,180 0,180 0,180 0,180 0,180 0,180 0,180 0,180 0,180 0,180 
		0,180 0,180 0,180 0,180 0,180 0,180 0,180 0,180 0,180 0,180 0,180 0,180 0,180 0,180 0,180 0,180 0,180 0,180 0,180 0,180 0,180 
		0,180 0,180 0,180 0,180 0,180 0,180 0,180 0,180 0,180 0,180 0,180 0,180 0,180 0,180 0,180 0,180 0,180 0,180 0,180 0,180 0,180 
		0,180 0,180 0,180 0,180 0,180 0,180 0,180 0,180 0,180 0,180 0,180 0,180 0,180 0,180 0,180 0,180 0,180 0,180 0,180 0,180 0,180 
		0,180 0,180 0,180 0,180 0,180 0,180 0,180 0,180 0,180 0,180 0,180 0,180 0,180 0,180 0,180 0,180 0,180 0,180 0,180 0,180 0,180 
		0,180 0,180 0,180 0,180 0,180 0,180 0,180 0,180 0,180 0,180 0,180 0,180 0,180 0,180 0,180 100.4,180 	"/>
</g>
<g id="figure">
	<g>
		<path d="M41.1,86.3l-0.2-1.7c-3.3,0.4-6,0.7-8.1,0.7c-4.8,0-8.7-0.9-11.5-2.7c-2.8-1.8-4.3-4.3-4.3-7.6c0-1.8,0.7-3.8,2.1-6.1
			c1.4-2.2,4.2-4.3,8.4-6.1c4.2-1.8,10.1-2.8,17.7-2.8V61c-5.5,0-10.2,0.5-13.9,1.6c-3.7,1.1-6.6,2.4-8.5,4
			c-1.9,1.6-3.2,3.2-3.8,4.7c-0.7,1.5-1,3-1,4.3c0,2.2,1.2,4.3,3.5,6.1c2.3,1.9,6.1,2.8,11.5,2.8c1.6,0,4.2-0.3,7.8-0.8
			c0.1-2.7,0.5-5,1.2-6.8c0.7-1.8,2-3.8,3.8-5.9c2.8-3.1,6.3-5.7,10.6-7.8c4.2-2.1,8.1-3.1,11.6-3.1c1.6,0,2.8,0.3,3.7,1
			c0.9,0.6,1.3,1.5,1.3,2.6c0,1.8-0.9,3.8-2.6,6c-1.7,2.2-4,4.4-6.9,6.4c-2.9,2-6.1,3.8-9.6,5.3c-3.5,1.5-7.3,2.5-11.3,3.1l-0.2,1.8
			c2.6-0.3,4.7-0.1,6.3,0.6c1.6,0.7,2.4,1.8,2.4,3.3c0,1-0.4,1.8-1.2,2.3c-0.8,0.5-1.7,0.8-2.7,0.8c-3,0-5-2.1-5.9-6.2
			c-4.9,0.9-9.1,2.6-12.8,5c-3.7,2.5-6.6,5.2-8.8,8.1c-2.2,3-3.8,5.8-4.9,8.6c-1.1,2.8-1.6,5-1.6,6.8c0,5.4,3.2,8.1,9.5,8.1
			c4,0,8.1-1,12.3-2.9c4.1-1.9,7.5-4.4,10.2-7.5c2.7-3.1,4-6.1,4-9.1c0-1.7-0.6-3.1-1.8-4c-1.2-1-2.8-1.5-4.8-1.5
			c-2.5,0-5.2,0.7-8,2c-2.8,1.3-5.3,3.2-7.5,5.6c-1.4,1.4-2.5,2.8-3.4,4.2c-0.9,1.4-1.9,3.4-3,6h-0.8c1.3-3.1,2.4-5.3,3.3-6.7
			c0.9-1.4,2-2.9,3.5-4.4c5.1-5,10.4-7.5,16.1-7.5c2.2,0,3.9,0.5,5.2,1.6c1.3,1.1,1.9,2.6,1.9,4.5c0,3.4-1.4,6.6-4.1,9.8
			c-2.7,3.2-6.2,5.7-10.5,7.7c-4.2,2-8.4,2.9-12.3,2.9c-4.4,0-7.6-1.1-9.8-3.3c-2.2-2.2-3.2-5.3-3.2-9.2c0-2.9,0.8-5.8,2.5-8.6
			c1.6-2.8,3.9-5.4,6.7-7.6c2.8-2.3,6.1-4.2,9.9-5.9C32.9,88.2,36.9,87.1,41.1,86.3z M42.2,87c0.3,1.8,0.8,3.2,1.5,4.1
			c0.7,0.9,1.9,1.4,3.6,1.4c0.7,0,1.4-0.2,1.9-0.6c0.5-0.4,0.8-1,0.8-1.7c0-1.1-0.7-1.9-2.1-2.6C46.6,87,44.7,86.8,42.2,87z
			 M42.5,83.4c5.1-0.8,10-2.4,14.5-4.7s8.2-4.9,10.9-7.7c2.7-2.8,4.1-5.2,4.1-7.1c0-0.9-0.4-1.6-1.1-2c-0.8-0.5-1.8-0.7-3.3-0.7
			c-2.7,0-5.8,1-9.2,2.9c-3.4,1.9-6.6,4.6-9.5,7.9C45.9,75.3,43.8,79.1,42.5,83.4z"/>
		<path d="M55.5,110v-0.9c2.5-2.4,5.9-4.9,10.3-7.5h4.7L58,115.9c-2.1,2.4-3.1,3.8-3.1,4.2c0,0.4,0.3,0.6,1,0.6
			c2.1,0,5.4-1.8,10.1-5.5c4.7-3.6,9.9-8.2,15.6-13.5h4.4l-13.1,14.9c-0.2,0.2-0.5,0.5-0.9,1.1c-0.5,0.5-0.8,1-1.1,1.4
			c-0.2,0.4-0.3,0.8-0.3,1.1c0,0.4,0.3,0.6,0.9,0.6c1.4,0,4-1.2,7.8-3.7s7.5-5.6,11.2-9.3v1c-3.7,3.7-7.4,6.8-11.1,9.2
			c-3.7,2.4-6.4,3.7-8.1,3.7c-1.3,0-2-0.7-2-2c0-1.2,0.6-2.8,1.7-4.7c1.1-1.9,2.9-4.3,5.3-7.2l1.1-1.2l-2.1,1.9
			c-4.5,4-8.4,7.3-11.7,9.6c-3.3,2.4-5.8,3.6-7.7,3.6c-1.4,0-2.1-0.8-2.1-2.4c0-1,0.3-2.2,0.9-3.5c0.6-1.3,1.4-2.6,2.5-3.9
			s2.1-2.7,3.3-4c1.2-1.3,2.3-2.6,3.5-4l-2.9,1.7C58.5,107.5,56.6,109,55.5,110z"/>
	</g>
</g>
</svg>
