<?xml version="1.0" encoding="utf-8"?>
<!-- Generator: Adobe Illustrator 22.1.0, SVG Export Plug-In . SVG Version: 6.00 Build 0)  -->
<svg version="1.1" xmlns="http://www.w3.org/2000/svg" xmlns:xlink="http://www.w3.org/1999/xlink" x="0px" y="0px"
	 viewBox="0 0 138.8 180" style="enable-background:new 0 0 138.8 180;" xml:space="preserve">
<style type="text/css">
	.st0{display:none;}
	.st1{display:inline;fill:#FF0000;}
</style>
<g id="bg" class="st0">
	<polygon class="st1" points="20.9,0 20.8,0 17.4,0 17,0 16.9,0 16.9,0 16.8,0 16.7,0 16.7,0 16.4,0 16.3,0 16.2,0 16.2,0 16.2,0 
		16.1,0 16.1,0 16,0 15.7,0 15.7,0 15.7,0 15.6,0 15.5,0 15.5,0 15.4,0 15.4,0 15.4,0 15.1,0 15,0 15,0 14.9,0 14.9,0 14.9,0 
		14.8,0 14.7,0 14.7,0 14.6,0 14.4,0 14.4,0 14.3,0 14.3,0 14.2,0 14.2,0 14.1,0 14.1,0 14.1,0 14,0 13.9,0 13.9,0 13.7,0 13.7,0 
		13.7,0 13.6,0 13.6,0 13.5,0 13.5,0 13.5,0 13.4,0 13.4,0 13.4,0 13.4,0 13.3,0 13.2,0 13.2,0 13.1,0 13.1,0 13,0 13,0 13,0 
		12.9,0 12.9,0 12.9,0 12.8,0 12.8,0 12.8,0 12.8,0 12.7,0 12.7,0 12.7,0 12.6,0 12.6,0 12.6,0 12.5,0 12.5,0 12.4,0 12.4,0 12.4,0 
		12.4,0 12.3,0 12.3,0 12.2,0 12.2,0 12.2,0 12.2,0 12.1,0 12.1,0 12.1,0 12.1,0 12.1,0 12,0 12,0 12,0 11.9,0 11.9,0 11.9,0 
		11.9,0 11.8,0 11.8,0 11.8,0 11.8,0 11.8,0 11.7,0 11.6,0 11.6,0 11.6,0 11.6,0 11.5,0 11.5,0 11.5,0 11.5,0 11.5,0 11.4,0 11.4,0 
		11.4,0 11.4,0 11.4,0 11.3,0 11.3,0 11.3,0 11.2,0 11.2,0 11.2,0 11.2,0 11.1,0 11.1,0 11.1,0 11.1,0 11.1,0 11,0 10.9,0 10.9,0 
		10.9,0 10.9,0 10.8,0 10.8,0 10.8,0 10.8,0 10.8,0 10.8,0 10.8,0 10.7,0 10.7,0 10.7,0 10.6,0 10.6,0 10.6,0 10.6,0 10.6,0 10.5,0 
		10.5,0 10.5,0 10.5,0 10.4,0 10.4,0 10.4,0 10.3,0 10.3,0 10.3,0 10.2,0 10.2,0 10.2,0 10.1,0 10.1,0 10.1,0 10.1,0 10.1,0 10.1,0 
		10.1,0 10,0 10,0 10,0 9.9,0 9.9,0 9.9,0 9.9,0 9.8,0 9.8,0 9.8,0 9.8,0 9.8,0 9.7,0 9.6,0 9.6,0 9.6,0 9.6,0 9.6,0 9.5,0 9.5,0 
		9.5,0 9.5,0 9.4,0 9.4,0 9.4,0 9.4,0 9.3,0 9.3,0 9.3,0 9.3,0 9.3,0 9.3,0 9.2,0 9.1,0 9.1,0 9.1,0 9.1,0 9.1,0 9,0 9,0 8.9,0 
		8.9,0 8.9,0 8.9,0 8.8,0 8.8,0 8.8,0 8.8,0 8.7,0 8.7,0 8.7,0 8.7,0 8.6,0 8.6,0 8.6,0 8.6,0 8.6,0 8.5,0 8.5,0 8.5,0 8.5,0 8.4,0 
		8.4,0 8.3,0 8.3,0 8.3,0 8.3,0 8.3,0 8.2,0 8.2,0 8.1,0 8.1,0 8.1,0 8.1,0 8.1,0 8,0 8,0 8,0 8,0 8,0 7.9,0 7.9,0 7.9,0 7.9,0 
		7.9,0 7.8,0 7.8,0 7.8,0 7.7,0 7.7,0 7.6,0 7.6,0 7.6,0 7.6,0 7.6,0 7.5,0 7.5,0 7.5,0 7.4,0 7.4,0 7.4,0 7.4,0 7.3,0 7.3,0 7.3,0 
		7.3,0 7.3,0 7.3,0 7.3,0 7.2,0 7.2,0 7.2,0 7.2,0 7.1,0 7.1,0 7.1,0 7,0 7,0 7,0 6.9,0 6.9,0 6.9,0 6.9,0 6.8,0 6.8,0 6.8,0 6.8,0 
		6.8,0 6.7,0 6.7,0 6.7,0 6.6,0 6.6,0 6.6,0 6.6,0 6.6,0 6.6,0 6.5,0 6.5,0 6.5,0 6.4,0 6.4,0 6.3,0 6.3,0 6.3,0 6.3,0 6.3,0 6.2,0 
		6.2,0 6.2,0 6.1,0 6.1,0 6.1,0 6.1,0 6,0 6,0 6,0 6,0 5.9,0 5.9,0 5.9,0 5.9,0 5.8,0 5.8,0 5.8,0 5.8,0 5.7,0 5.6,0 5.6,0 5.6,0 
		5.6,0 5.5,0 5.5,0 5.5,0 5.4,0 5.4,0 5.4,0 5.3,0 5.3,0 5.3,0 5.2,0 5.2,0 5.2,0 5.2,0 5.1,0 5.1,0 5.1,0 5,0 5,0 4.9,0 4.9,0 
		4.8,0 4.8,0 4.7,0 4.7,0 4.7,0 4.6,0 4.6,0 4.5,0 4.5,0 4.5,0 4.4,0 4.4,0 4.4,0 4.3,0 4.2,0 4.2,0 4,0 4,0 4,0 3.9,0 3.9,0 3.8,0 
		3.8,0 3.7,0 3.7,0 3.7,0 3.5,0 3.4,0 3.3,0 3.3,0 3.2,0 3.2,0 3.2,0 3.1,0 3,0 3,0 2.7,0 2.7,0 2.6,0 2.6,0 2.5,0 2.5,0 2.4,0 
		2.4,0 2.3,0 2,0 2,0 2,0 1.9,0 1.9,0 1.8,0 1.7,0 1.7,0 1.4,0 1.3,0 1.3,0 1.2,0 1.2,0 1,0 0.7,0 0.7,0 0.5,0 0,0 0,180 0.5,180 
		0.7,180 0.7,180 1,180 1.2,180 1.2,180 1.3,180 1.3,180 1.4,180 1.7,180 1.7,180 1.8,180 1.9,180 1.9,180 2,180 2,180 2,180 
		2.3,180 2.4,180 2.4,180 2.5,180 2.5,180 2.6,180 2.6,180 2.7,180 2.7,180 3,180 3,180 3.1,180 3.2,180 3.2,180 3.2,180 3.3,180 
		3.3,180 3.4,180 3.5,180 3.7,180 3.7,180 3.7,180 3.8,180 3.8,180 3.9,180 3.9,180 4,180 4,180 4,180 4.2,180 4.2,180 4.3,180 
		4.4,180 4.4,180 4.4,180 4.5,180 4.5,180 4.5,180 4.6,180 4.6,180 4.7,180 4.7,180 4.7,180 4.8,180 4.8,180 4.9,180 4.9,180 5,180 
		5,180 5.1,180 5.1,180 5.1,180 5.2,180 5.2,180 5.2,180 5.2,180 5.3,180 5.3,180 5.3,180 5.4,180 5.4,180 5.4,180 5.5,180 5.5,180 
		5.5,180 5.6,180 5.6,180 5.6,180 5.6,180 5.7,180 5.8,180 5.8,180 5.8,180 5.8,180 5.9,180 5.9,180 5.9,180 5.9,180 6,180 6,180 
		6,180 6,180 6.1,180 6.1,180 6.1,180 6.1,180 6.2,180 6.2,180 6.2,180 6.3,180 6.3,180 6.3,180 6.3,180 6.3,180 6.4,180 6.4,180 
		6.5,180 6.5,180 6.5,180 6.6,180 6.6,180 6.6,180 6.6,180 6.6,180 6.6,180 6.7,180 6.7,180 6.7,180 6.8,180 6.8,180 6.8,180 
		6.8,180 6.8,180 6.9,180 6.9,180 6.9,180 6.9,180 7,180 7,180 7,180 7.1,180 7.1,180 7.1,180 7.2,180 7.2,180 7.2,180 7.2,180 
		7.3,180 7.3,180 7.3,180 7.3,180 7.3,180 7.3,180 7.3,180 7.4,180 7.4,180 7.4,180 7.4,180 7.5,180 7.5,180 7.5,180 7.6,180 
		7.6,180 7.6,180 7.6,180 7.6,180 7.7,180 7.7,180 7.8,180 7.8,180 7.8,180 7.9,180 7.9,180 7.9,180 7.9,180 7.9,180 8,180 8,180 
		8,180 8,180 8,180 8.1,180 8.1,180 8.1,180 8.1,180 8.1,180 8.2,180 8.2,180 8.3,180 8.3,180 8.3,180 8.3,180 8.3,180 8.4,180 
		8.4,180 8.5,180 8.5,180 8.5,180 8.5,180 8.6,180 8.6,180 8.6,180 8.6,180 8.6,180 8.7,180 8.7,180 8.7,180 8.7,180 8.8,180 
		8.8,180 8.8,180 8.8,180 8.9,180 8.9,180 8.9,180 8.9,180 9,180 9,180 9.1,180 9.1,180 9.1,180 9.1,180 9.1,180 9.2,180 9.3,180 
		9.3,180 9.3,180 9.3,180 9.3,180 9.3,180 9.4,180 9.4,180 9.4,180 9.4,180 9.5,180 9.5,180 9.5,180 9.5,180 9.6,180 9.6,180 
		9.6,180 9.6,180 9.6,180 9.7,180 9.8,180 9.8,180 9.8,180 9.8,180 9.8,180 9.9,180 9.9,180 9.9,180 9.9,180 10,180 10,180 10,180 
		10.1,180 10.1,180 10.1,180 10.1,180 10.1,180 10.1,180 10.1,180 10.2,180 10.2,180 10.2,180 10.3,180 10.3,180 10.3,180 10.4,180 
		10.4,180 10.4,180 10.5,180 10.5,180 10.5,180 10.5,180 10.6,180 10.6,180 10.6,180 10.6,180 10.6,180 10.7,180 10.7,180 10.7,180 
		10.8,180 10.8,180 10.8,180 10.8,180 10.8,180 10.8,180 10.8,180 10.9,180 10.9,180 10.9,180 10.9,180 11,180 11.1,180 11.1,180 
		11.1,180 11.1,180 11.1,180 11.2,180 11.2,180 11.2,180 11.2,180 11.3,180 11.3,180 11.3,180 11.4,180 11.4,180 11.4,180 11.4,180 
		11.4,180 11.5,180 11.5,180 11.5,180 11.5,180 11.5,180 11.6,180 11.6,180 11.6,180 11.6,180 11.7,180 11.8,180 11.8,180 11.8,180 
		11.8,180 11.8,180 11.9,180 11.9,180 11.9,180 11.9,180 12,180 12,180 12,180 12.1,180 12.1,180 12.1,180 12.1,180 12.1,180 
		12.2,180 12.2,180 12.2,180 12.2,180 12.3,180 12.3,180 12.4,180 12.4,180 12.4,180 12.4,180 12.5,180 12.5,180 12.6,180 12.6,180 
		12.6,180 12.7,180 12.7,180 12.7,180 12.8,180 12.8,180 12.8,180 12.8,180 12.9,180 12.9,180 12.9,180 13,180 13,180 13,180 
		13.1,180 13.1,180 13.2,180 13.2,180 13.3,180 13.4,180 13.4,180 13.4,180 13.4,180 13.5,180 13.5,180 13.5,180 13.6,180 13.6,180 
		13.7,180 13.7,180 13.7,180 13.9,180 13.9,180 14,180 14.1,180 14.1,180 14.1,180 14.2,180 14.2,180 14.3,180 14.3,180 14.4,180 
		14.4,180 14.6,180 14.7,180 14.7,180 14.8,180 14.9,180 14.9,180 14.9,180 15,180 15,180 15.1,180 15.4,180 15.4,180 15.4,180 
		15.5,180 15.5,180 15.6,180 15.7,180 15.7,180 15.7,180 16,180 16.1,180 16.1,180 16.2,180 16.2,180 16.2,180 16.3,180 16.4,180 
		16.7,180 16.7,180 16.8,180 16.9,180 16.9,180 17,180 17.4,180 17.4,180 17.6,180 138.8,180 138.8,0 	"/>
</g>
<g id="figure">
	<path d="M90.1,106.7c-1.3,1.3-2.7,2.6-4.2,4c-1.6,1.3-3.2,2.5-4.9,3.6c-1.7,1-3.7,2-5.9,2.8c-2.2,0.8-5.2,1.8-8.9,2.8
		c-2.6,2.5-5.7,5.3-9.3,8.3c-3.6,3-7.5,5.8-11.7,8.5c-4.2,2.7-8.6,4.9-13.1,6.6c-4.5,1.7-9,2.5-13.2,2.5c-2.6,0-4.7-0.5-6.3-1.5
		c-1.6-1-2.4-2.2-2.4-3.7c0-8.3,17.1-15.1,51.3-20.4c3.8-4.2,8-9.4,12.5-15.5c4.7-6.4,8-10.5,9.8-12.4c-2.7-1-4.5-2.2-5.6-3.6
		c-1.1-1.4-1.6-3.2-1.6-5.4c0-3.7,1.4-7.2,4.1-10.6c2.7-3.4,6.5-6.3,11.3-8.6c4.8-2.4,10.4-4.1,16.8-5.2c6.4-1.1,13.1-1.3,20.2-0.6
		V59c-4.6-0.1-9.3,1.4-14.2,4.5c-4.8,3.2-9.4,7.3-13.8,12.3c-4.4,5-8.5,10.4-12.4,16.3c3.9,0,7.2-0.6,9.7-1.7c2.5-1.1,4.5-2.6,6-4.4
		s2.8-4,4-6.6h1c-1.8,4.6-4.3,8-7.5,10.1c-3.1,2.2-7.2,3.2-12.1,3.2h-2l-2.2,3.2c-3.3,4.9-6.2,8.8-8.6,11.9
		c-2.5,3.1-5.6,6.6-9.3,10.5c3.8-1.1,7-2.2,9.5-3.4c2.5-1.2,4.5-2.3,6-3.5c1.5-1.1,3.9-3.1,7-6V106.7z M60.4,121.4
		c-8.6,1.3-16.6,2.8-24,4.7c-7.4,1.8-13.6,4-18.4,6.4c-4.8,2.5-7.3,5.1-7.3,8c0,1.3,0.8,2.3,2.3,3.2c1.5,0.9,3.5,1.3,5.9,1.3
		c5.4,0,11.1-1.5,17-4.6c5.9-3.1,11-6.5,15.5-10.2C55.8,126.4,58.8,123.5,60.4,121.4z M84.3,91.5c2-2.2,4.3-4.9,7-7.9
		c2.7-3.1,5.8-6.3,9.4-9.9c3.6-3.5,7.4-6.7,11.4-9.5s8-4.7,11.7-5.6c-7.5-0.3-14.2,0.4-20.1,1.9c-5.9,1.5-10.8,3.6-14.7,6.1
		c-3.9,2.6-6.8,5.4-8.8,8.4c-2,3-3,5.8-3,8.4C77.3,87.5,79.6,90.2,84.3,91.5z"/>
</g>
</svg>
