<?xml version="1.0" encoding="utf-8"?>
<!-- Generator: Adobe Illustrator 22.1.0, SVG Export Plug-In . SVG Version: 6.00 Build 0)  -->
<svg version="1.1" xmlns="http://www.w3.org/2000/svg" xmlns:xlink="http://www.w3.org/1999/xlink" x="0px" y="0px"
	 viewBox="0 0 134.8 180" style="enable-background:new 0 0 134.8 180;" xml:space="preserve">
<style type="text/css">
	.st0{display:none;}
	.st1{display:inline;fill:#FF0000;}
</style>
<g id="bg" class="st0">
	<polygon class="st1" points="17.3,0 17.2,0 14.4,0 14.1,0 14,0 13.9,0 13.9,0 13.8,0 13.8,0 13.5,0 13.5,0 13.4,0 13.4,0 13.4,0 
		13.3,0 13.3,0 13.3,0 13,0 13,0 12.9,0 12.9,0 12.9,0 12.8,0 12.8,0 12.7,0 12.7,0 12.4,0 12.4,0 12.4,0 12.3,0 12.3,0 12.3,0 
		12.2,0 12.2,0 12.2,0 12,0 11.9,0 11.9,0 11.9,0 11.8,0 11.8,0 11.7,0 11.7,0 11.6,0 11.6,0 11.6,0 11.5,0 11.5,0 11.4,0 11.3,0 
		11.3,0 11.3,0 11.2,0 11.2,0 11.2,0 11.1,0 11.1,0 11.1,0 11.1,0 11.1,0 11,0 10.9,0 10.9,0 10.9,0 10.8,0 10.8,0 10.8,0 10.7,0 
		10.7,0 10.7,0 10.6,0 10.6,0 10.6,0 10.6,0 10.5,0 10.5,0 10.5,0 10.5,0 10.4,0 10.4,0 10.4,0 10.4,0 10.3,0 10.3,0 10.3,0 10.3,0 
		10.2,0 10.2,0 10.2,0 10.1,0 10.1,0 10.1,0 10.1,0 10,0 10,0 10,0 10,0 10,0 10,0 9.9,0 9.9,0 9.9,0 9.9,0 9.8,0 9.8,0 9.8,0 
		9.8,0 9.8,0 9.7,0 9.7,0 9.7,0 9.6,0 9.6,0 9.6,0 9.6,0 9.5,0 9.5,0 9.5,0 9.5,0 9.5,0 9.5,0 9.4,0 9.4,0 9.4,0 9.4,0 9.4,0 9.3,0 
		9.3,0 9.3,0 9.3,0 9.3,0 9.2,0 9.2,0 9.2,0 9.2,0 9.2,0 9.2,0 9.1,0 9.1,0 9,0 9,0 9,0 9,0 9,0 8.9,0 8.9,0 8.9,0 8.9,0 8.9,0 
		8.9,0 8.9,0 8.8,0 8.8,0 8.8,0 8.8,0 8.8,0 8.7,0 8.7,0 8.7,0 8.7,0 8.7,0 8.6,0 8.6,0 8.6,0 8.5,0 8.5,0 8.5,0 8.5,0 8.4,0 8.4,0 
		8.4,0 8.4,0 8.4,0 8.4,0 8.4,0 8.3,0 8.3,0 8.3,0 8.3,0 8.3,0 8.2,0 8.2,0 8.2,0 8.2,0 8.1,0 8.1,0 8.1,0 8.1,0 8.1,0 8.1,0 8,0 
		8,0 7.9,0 7.9,0 7.9,0 7.9,0 7.8,0 7.8,0 7.8,0 7.8,0 7.8,0 7.8,0 7.8,0 7.7,0 7.7,0 7.7,0 7.7,0 7.7,0 7.7,0 7.6,0 7.6,0 7.5,0 
		7.5,0 7.5,0 7.5,0 7.4,0 7.4,0 7.4,0 7.4,0 7.4,0 7.3,0 7.3,0 7.3,0 7.3,0 7.3,0 7.2,0 7.2,0 7.2,0 7.2,0 7.1,0 7.1,0 7.1,0 7.1,0 
		7.1,0 7.1,0 7,0 7,0 7,0 7,0 7,0 6.9,0 6.9,0 6.9,0 6.8,0 6.8,0 6.8,0 6.8,0 6.7,0 6.7,0 6.7,0 6.7,0 6.7,0 6.6,0 6.6,0 6.6,0 
		6.6,0 6.6,0 6.6,0 6.6,0 6.6,0 6.5,0 6.5,0 6.5,0 6.5,0 6.4,0 6.4,0 6.3,0 6.3,0 6.3,0 6.3,0 6.3,0 6.3,0 6.2,0 6.2,0 6.2,0 6.2,0 
		6.1,0 6.1,0 6.1,0 6.1,0 6.1,0 6,0 6,0 6,0 6,0 6,0 6,0 6,0 6,0 5.9,0 5.9,0 5.9,0 5.9,0 5.8,0 5.8,0 5.8,0 5.7,0 5.7,0 5.7,0 
		5.7,0 5.6,0 5.6,0 5.6,0 5.6,0 5.6,0 5.5,0 5.5,0 5.5,0 5.5,0 5.5,0 5.5,0 5.5,0 5.4,0 5.4,0 5.4,0 5.4,0 5.4,0 5.3,0 5.3,0 5.2,0 
		5.2,0 5.2,0 5.2,0 5.2,0 5.2,0 5.1,0 5.1,0 5.1,0 5.1,0 5,0 5,0 5,0 5,0 4.9,0 4.9,0 4.9,0 4.9,0 4.9,0 4.9,0 4.8,0 4.8,0 4.8,0 
		4.8,0 4.7,0 4.7,0 4.6,0 4.6,0 4.6,0 4.6,0 4.6,0 4.5,0 4.5,0 4.5,0 4.4,0 4.4,0 4.4,0 4.4,0 4.3,0 4.3,0 4.3,0 4.3,0 4.2,0 4.2,0 
		4.2,0 4.1,0 4.1,0 4.1,0 4,0 4,0 4,0 3.9,0 3.9,0 3.9,0 3.8,0 3.8,0 3.8,0 3.7,0 3.7,0 3.7,0 3.6,0 3.6,0 3.6,0 3.5,0 3.4,0 3.3,0 
		3.3,0 3.3,0 3.3,0 3.2,0 3.2,0 3.2,0 3.1,0 3.1,0 3,0 2.9,0 2.8,0 2.8,0 2.7,0 2.7,0 2.6,0 2.6,0 2.5,0 2.5,0 2.5,0 2.2,0 2.2,0 
		2.2,0 2.1,0 2.1,0 2.1,0 2,0 2,0 1.9,0 1.7,0 1.7,0 1.6,0 1.6,0 1.5,0 1.5,0 1.4,0 1.4,0 1.1,0 1.1,0 1.1,0 1,0 1,0 0.8,0 0.6,0 
		0.5,0 0.4,0 0,0 0,180 0.4,180 0.5,180 0.6,180 0.8,180 1,180 1,180 1.1,180 1.1,180 1.1,180 1.4,180 1.4,180 1.5,180 1.5,180 
		1.6,180 1.6,180 1.7,180 1.7,180 1.9,180 2,180 2,180 2.1,180 2.1,180 2.1,180 2.2,180 2.2,180 2.2,180 2.5,180 2.5,180 2.5,180 
		2.6,180 2.6,180 2.7,180 2.7,180 2.8,180 2.8,180 2.9,180 3,180 3.1,180 3.1,180 3.2,180 3.2,180 3.2,180 3.3,180 3.3,180 3.3,180 
		3.3,180 3.4,180 3.5,180 3.6,180 3.6,180 3.6,180 3.7,180 3.7,180 3.7,180 3.8,180 3.8,180 3.8,180 3.9,180 3.9,180 3.9,180 4,180 
		4,180 4,180 4.1,180 4.1,180 4.1,180 4.2,180 4.2,180 4.2,180 4.3,180 4.3,180 4.3,180 4.3,180 4.4,180 4.4,180 4.4,180 4.4,180 
		4.5,180 4.5,180 4.5,180 4.6,180 4.6,180 4.6,180 4.6,180 4.6,180 4.7,180 4.7,180 4.8,180 4.8,180 4.8,180 4.8,180 4.9,180 
		4.9,180 4.9,180 4.9,180 4.9,180 4.9,180 5,180 5,180 5,180 5,180 5.1,180 5.1,180 5.1,180 5.1,180 5.2,180 5.2,180 5.2,180 
		5.2,180 5.2,180 5.2,180 5.3,180 5.3,180 5.4,180 5.4,180 5.4,180 5.4,180 5.4,180 5.5,180 5.5,180 5.5,180 5.5,180 5.5,180 
		5.5,180 5.5,180 5.6,180 5.6,180 5.6,180 5.6,180 5.6,180 5.7,180 5.7,180 5.7,180 5.7,180 5.8,180 5.8,180 5.8,180 5.9,180 
		5.9,180 5.9,180 5.9,180 6,180 6,180 6,180 6,180 6,180 6,180 6,180 6,180 6.1,180 6.1,180 6.1,180 6.1,180 6.1,180 6.2,180 
		6.2,180 6.2,180 6.2,180 6.3,180 6.3,180 6.3,180 6.3,180 6.3,180 6.3,180 6.4,180 6.4,180 6.5,180 6.5,180 6.5,180 6.5,180 
		6.6,180 6.6,180 6.6,180 6.6,180 6.6,180 6.6,180 6.6,180 6.6,180 6.7,180 6.7,180 6.7,180 6.7,180 6.7,180 6.8,180 6.8,180 
		6.8,180 6.8,180 6.9,180 6.9,180 6.9,180 7,180 7,180 7,180 7,180 7,180 7.1,180 7.1,180 7.1,180 7.1,180 7.1,180 7.1,180 7.2,180 
		7.2,180 7.2,180 7.2,180 7.3,180 7.3,180 7.3,180 7.3,180 7.3,180 7.4,180 7.4,180 7.4,180 7.4,180 7.4,180 7.5,180 7.5,180 
		7.5,180 7.5,180 7.6,180 7.6,180 7.7,180 7.7,180 7.7,180 7.7,180 7.7,180 7.7,180 7.8,180 7.8,180 7.8,180 7.8,180 7.8,180 
		7.8,180 7.8,180 7.9,180 7.9,180 7.9,180 7.9,180 8,180 8,180 8.1,180 8.1,180 8.1,180 8.1,180 8.1,180 8.1,180 8.2,180 8.2,180 
		8.2,180 8.2,180 8.3,180 8.3,180 8.3,180 8.3,180 8.3,180 8.4,180 8.4,180 8.4,180 8.4,180 8.4,180 8.4,180 8.4,180 8.5,180 
		8.5,180 8.5,180 8.5,180 8.6,180 8.6,180 8.6,180 8.7,180 8.7,180 8.7,180 8.7,180 8.7,180 8.8,180 8.8,180 8.8,180 8.8,180 
		8.8,180 8.9,180 8.9,180 8.9,180 8.9,180 8.9,180 8.9,180 8.9,180 9,180 9,180 9,180 9,180 9,180 9.1,180 9.1,180 9.2,180 9.2,180 
		9.2,180 9.2,180 9.2,180 9.2,180 9.3,180 9.3,180 9.3,180 9.3,180 9.3,180 9.4,180 9.4,180 9.4,180 9.4,180 9.4,180 9.5,180 
		9.5,180 9.5,180 9.5,180 9.5,180 9.5,180 9.6,180 9.6,180 9.6,180 9.6,180 9.7,180 9.7,180 9.7,180 9.8,180 9.8,180 9.8,180 
		9.8,180 9.8,180 9.9,180 9.9,180 9.9,180 9.9,180 10,180 10,180 10,180 10,180 10,180 10,180 10.1,180 10.1,180 10.1,180 10.1,180 
		10.2,180 10.2,180 10.2,180 10.3,180 10.3,180 10.3,180 10.3,180 10.4,180 10.4,180 10.4,180 10.4,180 10.5,180 10.5,180 10.5,180 
		10.5,180 10.6,180 10.6,180 10.6,180 10.6,180 10.7,180 10.7,180 10.7,180 10.8,180 10.8,180 10.8,180 10.9,180 10.9,180 10.9,180 
		11,180 11.1,180 11.1,180 11.1,180 11.1,180 11.1,180 11.2,180 11.2,180 11.2,180 11.3,180 11.3,180 11.3,180 11.4,180 11.5,180 
		11.5,180 11.6,180 11.6,180 11.6,180 11.7,180 11.7,180 11.8,180 11.8,180 11.9,180 11.9,180 11.9,180 12,180 12.2,180 12.2,180 
		12.2,180 12.3,180 12.3,180 12.3,180 12.4,180 12.4,180 12.4,180 12.7,180 12.7,180 12.8,180 12.8,180 12.9,180 12.9,180 12.9,180 
		13,180 13,180 13.3,180 13.3,180 13.3,180 13.4,180 13.4,180 13.4,180 13.5,180 13.5,180 13.8,180 13.8,180 13.9,180 13.9,180 
		14,180 14.1,180 14.4,180 14.4,180 14.5,180 134.8,180 134.8,0 	"/>
</g>
<g id="figure">
	<path d="M64.5,71.2l0.6,0.4c-2.4,2.8-4.9,5-7.6,6.5c-2.7,1.5-5.7,2.3-8.8,2.3c-2.9,0-5.3-0.6-7-1.9c-1.8-1.3-2.6-2.9-2.6-5
		c0-2.6,0.9-5.1,2.8-7.5c1.8-2.4,4.5-4.2,7.9-5.7c3.5-1.4,7.4-2.1,11.8-2.1c6.3,0,9.4,2.2,9.4,6.6c0,0.1-0.1,0.7-0.2,1.6
		c-0.2,0.9-0.2,1.5-0.2,1.7c0,1.3,0.8,1.9,2.5,1.9c1.4,0,2.8-0.4,4.2-1.2c1.4-0.8,2.9-1.8,4.4-3c1.5-1.2,2.4-1.9,2.6-2.1
		c0.4-0.3,1.1-0.9,2-1.7c0.9-0.8,1.7-1.5,2.6-2.1c0.8-0.5,1.5-0.8,2.1-0.8c0.5,0,0.5,0.3,0,0.8c-0.5,0.5-1,1-1.5,1.3
		c-1.1,0.7-3.3,2.5-6.6,5.3c-3.7,3.3-6.7,6.5-9.1,9.5c-2.4,3-5.5,7.6-9.3,13.6c-2.1,3.3-3.9,6-5.3,8.1c-1.4,2-2.8,3.9-4.2,5.6
		c-1.4,1.7-2.9,3.4-4.5,5.1c-2.9,3-5.8,5.6-8.8,7.7s-6.1,3.7-9.5,4.9c-3.4,1.1-7.3,1.7-11.7,1.7c-3.6,0-6.2-0.7-7.9-2
		c-1.7-1.3-2.6-3-2.6-5.1c0-1.2,0.3-2.2,1-3c0.6-0.7,1.6-1.1,2.8-1.1c1.5,0,2.2,0.6,2.2,1.9c0,1.2-0.7,1.9-2.2,1.9
		c-1.3,0-1.9-0.7-1.9-2.2c-0.7,0.4-1.1,1.3-1.1,2.6c0,1.7,0.8,3.2,2.5,4.4c1.6,1.2,4.2,1.8,7.6,1.8c3.7,0,7.1-0.6,10.2-1.9
		c3.1-1.2,5.9-2.9,8.3-4.9c2.5-2.1,4.6-4.1,6.3-6.3c1.8-2.1,4.1-5.1,6.9-8.9c3.2-4.4,5.6-7.7,7.2-9.7c1.6-2.1,3.7-4.7,6.4-7.9
		l1.3-1.5c1.8-2.1,4.8-5.3,9-9.5l1.8-2c-0.3,0.2-0.8,0.4-1.5,0.7c-0.7,0.3-1.3,0.5-2,0.7c-0.7,0.2-1.5,0.2-2.4,0.2
		c-1.3,0-2.4-0.4-3.3-1.2c-0.8-0.8-1.2-1.8-1.2-3.1c0,0.1,0.1-0.4,0.3-1.5c0.2-1.1,0.3-1.9,0.3-2.3c0-2.5-2.3-3.8-7-3.8
		c-4.5,0-8.4,0.7-11.7,2.2c-3.2,1.5-5.7,3.3-7.4,5.5c-1.7,2.2-2.6,4.4-2.6,6.7c0,1.8,0.8,3.3,2.5,4.4c1.6,1.2,3.8,1.7,6.4,1.7
		C54.5,79.5,59.7,76.7,64.5,71.2z M89.1,105.7v1c-4.7,4.2-8.2,7.3-10.6,9.3c-2.4,2-4.7,3.6-6.8,4.8c-2.1,1.1-4.1,1.7-6,1.7
		c-2.4,0-3.5-1.4-3.5-4.2c0-1.9,0.2-3.5,0.6-4.9c0.4-1.3,0.9-2.6,1.7-3.8c0.7-1.2,1.5-2.3,2.2-3.1c0.8-0.9,1.8-2,3-3.2
		c4.5-4.7,6.7-8.2,6.7-10.4c0-1.1-0.1-1.8-0.3-2.2c-1.5,0.6-2.9,0.9-4.3,0.9c-1.3,0-2.4-0.3-3.3-0.9c-0.9-0.6-1.3-1.4-1.3-2.3
		c0-0.9,0.4-1.6,1.1-2.1c0.7-0.5,1.6-0.8,2.7-0.8c2.4,0,4.4,1.3,5.9,4c2.3-1.1,4.3-2.3,6.1-3.6c1.8-1.3,4.3-3.8,7.5-7.4
		c5.7-6.3,10.8-11.3,15.5-14.9c4.7-3.6,9.4-5.4,14.1-5.4c3.2,0,4.8,1,4.8,3c0,1-0.5,1.6-1.4,1.6c-0.8,0-1.2-0.4-1.2-1.3
		c0-0.1,0-0.3,0.1-0.8c0.1-0.4,0.1-0.7,0.1-0.8c0-0.3-0.2-0.6-0.7-0.8c-0.5-0.2-1.1-0.3-1.8-0.3c-5.8,0-11.4,3.1-16.7,9.3
		c-3.4,4-6.3,7.2-8.8,9.7c-2.4,2.5-5.2,5-8.2,7.3c-3.1,2.3-6.1,4.1-9.2,5.3c0.2,1.2,0.3,2.2,0.3,2.8c0,2.3-0.8,5.1-2.3,8.2
		c-1.6,3.2-3.8,6.4-6.7,9.9c-3.4,4-5.1,6.7-5.1,8c0,1.7,1,2.5,2.9,2.5c1.3,0,2.8-0.4,4.4-1.3c1.7-0.9,3.3-1.9,5-3.2
		c1.6-1.2,3.5-2.8,5.5-4.5c2.1-1.8,3.7-3.2,5-4.3L89.1,105.7z M75.9,89.8c-1.4-2.4-3.1-3.6-5.2-3.6c-0.8,0-1.5,0.2-2,0.6
		c-0.5,0.4-0.8,0.9-0.8,1.4c0,1.6,1.3,2.4,3.9,2.4C72.8,90.7,74.2,90.4,75.9,89.8z"/>
</g>
</svg>
