<?xml version="1.0" encoding="utf-8"?>
<!-- Generator: Adobe Illustrator 22.1.0, SVG Export Plug-In . SVG Version: 6.00 Build 0)  -->
<svg version="1.1" xmlns="http://www.w3.org/2000/svg" xmlns:xlink="http://www.w3.org/1999/xlink" x="0px" y="0px"
	 viewBox="0 0 137.6 180" style="enable-background:new 0 0 137.6 180;" xml:space="preserve">
<style type="text/css">
	.st0{display:none;}
	.st1{display:inline;fill:#FF0000;}
</style>
<g id="bg" class="st0">
	<polygon class="st1" points="10.5,0 10.4,0 8.7,0 8.5,0 8.5,0 8.5,0 8.4,0 8.4,0 8.4,0 8.2,0 8.2,0 8.1,0 8.1,0 8.1,0 8.1,0 8.1,0 
		8,0 7.9,0 7.9,0 7.9,0 7.8,0 7.8,0 7.8,0 7.7,0 7.7,0 7.7,0 7.5,0 7.5,0 7.5,0 7.5,0 7.5,0 7.4,0 7.4,0 7.4,0 7.4,0 7.3,0 7.2,0 
		7.2,0 7.2,0 7.1,0 7.1,0 7.1,0 7.1,0 7.1,0 7,0 7,0 7,0 7,0 6.9,0 6.9,0 6.9,0 6.8,0 6.8,0 6.8,0 6.8,0 6.8,0 6.7,0 6.7,0 6.7,0 
		6.7,0 6.6,0 6.6,0 6.6,0 6.6,0 6.6,0 6.5,0 6.5,0 6.5,0 6.5,0 6.5,0 6.5,0 6.4,0 6.4,0 6.4,0 6.4,0 6.4,0 6.4,0 6.4,0 6.3,0 6.3,0 
		6.3,0 6.3,0 6.3,0 6.2,0 6.2,0 6.2,0 6.2,0 6.2,0 6.2,0 6.1,0 6.1,0 6.1,0 6.1,0 6.1,0 6.1,0 6.1,0 6.1,0 6.1,0 6,0 6,0 6,0 6,0 
		6,0 6,0 6,0 5.9,0 5.9,0 5.9,0 5.9,0 5.9,0 5.9,0 5.8,0 5.8,0 5.8,0 5.8,0 5.8,0 5.8,0 5.8,0 5.7,0 5.7,0 5.7,0 5.7,0 5.7,0 5.7,0 
		5.7,0 5.7,0 5.7,0 5.7,0 5.6,0 5.6,0 5.6,0 5.6,0 5.6,0 5.6,0 5.6,0 5.6,0 5.5,0 5.5,0 5.5,0 5.5,0 5.5,0 5.4,0 5.4,0 5.4,0 5.4,0 
		5.4,0 5.4,0 5.4,0 5.4,0 5.4,0 5.4,0 5.4,0 5.3,0 5.3,0 5.3,0 5.3,0 5.3,0 5.3,0 5.3,0 5.2,0 5.2,0 5.2,0 5.2,0 5.2,0 5.2,0 5.2,0 
		5.1,0 5.1,0 5.1,0 5.1,0 5.1,0 5.1,0 5.1,0 5.1,0 5.1,0 5,0 5,0 5,0 5,0 5,0 5,0 5,0 5,0 5,0 4.9,0 4.9,0 4.9,0 4.9,0 4.9,0 4.9,0 
		4.8,0 4.8,0 4.8,0 4.8,0 4.8,0 4.8,0 4.7,0 4.7,0 4.7,0 4.7,0 4.7,0 4.7,0 4.7,0 4.7,0 4.7,0 4.7,0 4.7,0 4.6,0 4.6,0 4.6,0 4.6,0 
		4.6,0 4.6,0 4.6,0 4.6,0 4.5,0 4.5,0 4.5,0 4.5,0 4.5,0 4.4,0 4.4,0 4.4,0 4.4,0 4.4,0 4.4,0 4.4,0 4.4,0 4.3,0 4.3,0 4.3,0 4.3,0 
		4.3,0 4.3,0 4.3,0 4.3,0 4.2,0 4.2,0 4.2,0 4.2,0 4.2,0 4.2,0 4.2,0 4.1,0 4.1,0 4.1,0 4.1,0 4.1,0 4.1,0 4.1,0 4.1,0 4.1,0 4,0 
		4,0 4,0 4,0 4,0 4,0 4,0 4,0 4,0 3.9,0 3.9,0 3.9,0 3.9,0 3.9,0 3.8,0 3.8,0 3.8,0 3.8,0 3.8,0 3.8,0 3.8,0 3.8,0 3.8,0 3.7,0 
		3.7,0 3.7,0 3.7,0 3.7,0 3.7,0 3.7,0 3.7,0 3.7,0 3.6,0 3.6,0 3.6,0 3.6,0 3.6,0 3.6,0 3.6,0 3.6,0 3.6,0 3.5,0 3.5,0 3.5,0 3.5,0 
		3.5,0 3.5,0 3.4,0 3.4,0 3.4,0 3.4,0 3.4,0 3.4,0 3.4,0 3.4,0 3.3,0 3.3,0 3.3,0 3.3,0 3.3,0 3.3,0 3.3,0 3.3,0 3.3,0 3.3,0 3.2,0 
		3.2,0 3.2,0 3.2,0 3.2,0 3.1,0 3.1,0 3.1,0 3.1,0 3.1,0 3.1,0 3.1,0 3.1,0 3,0 3,0 3,0 3,0 3,0 3,0 3,0 3,0 2.9,0 2.9,0 2.9,0 
		2.9,0 2.9,0 2.9,0 2.8,0 2.8,0 2.8,0 2.8,0 2.8,0 2.8,0 2.7,0 2.7,0 2.7,0 2.7,0 2.7,0 2.7,0 2.6,0 2.6,0 2.6,0 2.6,0 2.6,0 2.6,0 
		2.6,0 2.5,0 2.5,0 2.5,0 2.5,0 2.4,0 2.4,0 2.4,0 2.4,0 2.3,0 2.3,0 2.3,0 2.3,0 2.3,0 2.3,0 2.3,0 2.2,0 2.2,0 2.2,0 2.2,0 2.1,0 
		2.1,0 2,0 2,0 2,0 2,0 1.9,0 1.9,0 1.9,0 1.9,0 1.9,0 1.8,0 1.8,0 1.7,0 1.7,0 1.7,0 1.6,0 1.6,0 1.6,0 1.5,0 1.5,0 1.5,0 1.4,0 
		1.3,0 1.3,0 1.3,0 1.3,0 1.3,0 1.2,0 1.2,0 1.2,0 1,0 1,0 1,0 1,0 0.9,0 0.9,0 0.9,0 0.8,0 0.7,0 0.7,0 0.7,0 0.6,0 0.6,0 0.5,0 
		0.3,0 0.3,0 0.3,0 0,0 0,180 0.3,180 0.3,180 0.3,180 0.5,180 0.6,180 0.6,180 0.7,180 0.7,180 0.7,180 0.8,180 0.9,180 0.9,180 
		0.9,180 1,180 1,180 1,180 1,180 1.2,180 1.2,180 1.2,180 1.3,180 1.3,180 1.3,180 1.3,180 1.3,180 1.4,180 1.5,180 1.5,180 
		1.5,180 1.6,180 1.6,180 1.6,180 1.7,180 1.7,180 1.7,180 1.8,180 1.8,180 1.9,180 1.9,180 1.9,180 1.9,180 1.9,180 2,180 2,180 
		2,180 2,180 2.1,180 2.1,180 2.2,180 2.2,180 2.2,180 2.2,180 2.3,180 2.3,180 2.3,180 2.3,180 2.3,180 2.3,180 2.3,180 2.4,180 
		2.4,180 2.4,180 2.4,180 2.5,180 2.5,180 2.5,180 2.5,180 2.6,180 2.6,180 2.6,180 2.6,180 2.6,180 2.6,180 2.6,180 2.7,180 
		2.7,180 2.7,180 2.7,180 2.7,180 2.7,180 2.8,180 2.8,180 2.8,180 2.8,180 2.8,180 2.8,180 2.9,180 2.9,180 2.9,180 2.9,180 
		2.9,180 2.9,180 3,180 3,180 3,180 3,180 3,180 3,180 3,180 3,180 3.1,180 3.1,180 3.1,180 3.1,180 3.1,180 3.1,180 3.1,180 
		3.1,180 3.2,180 3.2,180 3.2,180 3.2,180 3.2,180 3.3,180 3.3,180 3.3,180 3.3,180 3.3,180 3.3,180 3.3,180 3.3,180 3.3,180 
		3.3,180 3.4,180 3.4,180 3.4,180 3.4,180 3.4,180 3.4,180 3.4,180 3.4,180 3.5,180 3.5,180 3.5,180 3.5,180 3.5,180 3.5,180 
		3.6,180 3.6,180 3.6,180 3.6,180 3.6,180 3.6,180 3.6,180 3.6,180 3.6,180 3.7,180 3.7,180 3.7,180 3.7,180 3.7,180 3.7,180 
		3.7,180 3.7,180 3.7,180 3.8,180 3.8,180 3.8,180 3.8,180 3.8,180 3.8,180 3.8,180 3.8,180 3.8,180 3.9,180 3.9,180 3.9,180 
		3.9,180 3.9,180 4,180 4,180 4,180 4,180 4,180 4,180 4,180 4,180 4,180 4.1,180 4.1,180 4.1,180 4.1,180 4.1,180 4.1,180 4.1,180 
		4.1,180 4.1,180 4.2,180 4.2,180 4.2,180 4.2,180 4.2,180 4.2,180 4.2,180 4.3,180 4.3,180 4.3,180 4.3,180 4.3,180 4.3,180 
		4.3,180 4.3,180 4.4,180 4.4,180 4.4,180 4.4,180 4.4,180 4.4,180 4.4,180 4.4,180 4.5,180 4.5,180 4.5,180 4.5,180 4.5,180 
		4.6,180 4.6,180 4.6,180 4.6,180 4.6,180 4.6,180 4.6,180 4.6,180 4.7,180 4.7,180 4.7,180 4.7,180 4.7,180 4.7,180 4.7,180 
		4.7,180 4.7,180 4.7,180 4.7,180 4.8,180 4.8,180 4.8,180 4.8,180 4.8,180 4.8,180 4.9,180 4.9,180 4.9,180 4.9,180 4.9,180 
		4.9,180 5,180 5,180 5,180 5,180 5,180 5,180 5,180 5,180 5,180 5.1,180 5.1,180 5.1,180 5.1,180 5.1,180 5.1,180 5.1,180 5.1,180 
		5.1,180 5.2,180 5.2,180 5.2,180 5.2,180 5.2,180 5.2,180 5.2,180 5.3,180 5.3,180 5.3,180 5.3,180 5.3,180 5.3,180 5.3,180 
		5.4,180 5.4,180 5.4,180 5.4,180 5.4,180 5.4,180 5.4,180 5.4,180 5.4,180 5.4,180 5.4,180 5.5,180 5.5,180 5.5,180 5.5,180 
		5.5,180 5.6,180 5.6,180 5.6,180 5.6,180 5.6,180 5.6,180 5.6,180 5.6,180 5.7,180 5.7,180 5.7,180 5.7,180 5.7,180 5.7,180 
		5.7,180 5.7,180 5.7,180 5.7,180 5.8,180 5.8,180 5.8,180 5.8,180 5.8,180 5.8,180 5.8,180 5.9,180 5.9,180 5.9,180 5.9,180 
		5.9,180 5.9,180 6,180 6,180 6,180 6,180 6,180 6,180 6,180 6.1,180 6.1,180 6.1,180 6.1,180 6.1,180 6.1,180 6.1,180 6.1,180 
		6.1,180 6.2,180 6.2,180 6.2,180 6.2,180 6.2,180 6.2,180 6.3,180 6.3,180 6.3,180 6.3,180 6.3,180 6.4,180 6.4,180 6.4,180 
		6.4,180 6.4,180 6.4,180 6.4,180 6.5,180 6.5,180 6.5,180 6.5,180 6.5,180 6.5,180 6.6,180 6.6,180 6.6,180 6.6,180 6.6,180 
		6.7,180 6.7,180 6.7,180 6.7,180 6.8,180 6.8,180 6.8,180 6.8,180 6.8,180 6.9,180 6.9,180 6.9,180 7,180 7,180 7,180 7,180 
		7.1,180 7.1,180 7.1,180 7.1,180 7.1,180 7.2,180 7.2,180 7.2,180 7.3,180 7.4,180 7.4,180 7.4,180 7.4,180 7.5,180 7.5,180 
		7.5,180 7.5,180 7.5,180 7.7,180 7.7,180 7.7,180 7.8,180 7.8,180 7.8,180 7.9,180 7.9,180 7.9,180 8,180 8.1,180 8.1,180 8.1,180 
		8.1,180 8.1,180 8.2,180 8.2,180 8.4,180 8.4,180 8.4,180 8.5,180 8.5,180 8.5,180 8.7,180 8.7,180 8.8,180 137.6,180 137.6,0 	"/>
</g>
<g id="figure">
	<path d="M74.2,77.4l-2.4,13.1c-0.4,2.2-0.9,4.6-1.7,7.3c-0.8,2.6-1.7,5.7-2.8,9.2l10.6-14.3c7.6-10.4,13.9-18,18.8-22.9
		c3.7-3.7,7.4-6.5,11.3-8.5c3.9-2,7.5-3,11-3c5.8,0,8.8,1.8,8.8,5.3c0,1-0.3,1.8-0.8,2.4c-0.6,0.7-1.2,1-1.9,1c-0.4,0-0.7-0.2-1-0.5
		c-0.3-0.4-0.5-0.8-0.5-1.2c0-0.5,0.1-0.9,0.4-1.2c0.3-0.3,0.7-0.4,1.2-0.4c0.2,0,0.5,0.1,0.8,0.3c0.3,0.2,0.6,0.4,0.8,0.5
		c0.1,0,0.2-0.3,0.2-0.8c0-3.1-2.6-4.6-7.8-4.6c-4.2,0-8.8,1.7-13.7,5c-4.9,3.3-10,8.1-15.4,14.5c-1.8,2.1-4.1,5-6.8,8.5
		c-2.7,3.5-5.5,7.4-8.5,11.6c-3,4.2-5.8,8.3-8.6,12.3c-3.2,4.6-5.4,7.7-6.8,9.4s-2.6,2.5-3.6,2.5c-0.4,0-0.6-0.1-0.6-0.3
		c0-0.4,0.5-1,1.6-1.7c2.4-1.6,4.3-3.7,5.7-6.2c1.4-2.5,2.4-5.9,2.9-10.1l0.2-1.9c0.7-6.1,1.7-11,2.9-14.9c1.2-3.9,2.8-8.2,4.8-13.1
		c0.7-1.6,1.2-2.7,1.4-3.1l-0.8,0.9l-1,1.4c-3,3.9-6.1,8-9.4,12.2c-3.3,4.2-6.1,7.7-8.5,10.4c-2.3,2.7-4.9,5.5-7.6,8.5
		c-2.7,2.9-4.9,5.2-6.5,6.8c-1.9,1.8-3.7,3.4-5.4,4.7c-1.7,1.3-3.4,2.4-5.1,3.3c-1.7,0.9-3.6,1.7-5.5,2.2c-1.9,0.6-3.9,0.8-6,0.8
		c-2.8,0-4.9-0.5-6.4-1.5c-1.5-1-2.3-2.4-2.3-4.2c0-1.3,0.4-2.3,1.1-3.2c0.7-0.9,1.7-1.3,2.8-1.3c1.5,0,2.2,0.7,2.2,2.1
		s-0.7,2.1-2.2,2.1c-1.2,0-1.9-0.7-2.2-2c-0.6,0.8-0.9,1.7-0.9,2.6c0,1.3,0.7,2.4,2.2,3.3c1.4,0.9,3.2,1.3,5.4,1.3
		c2.4,0,4.6-0.4,6.8-1.1c2.2-0.7,4.4-1.8,6.7-3.3c2.3-1.5,4.7-3.4,7.1-5.6c2.5-2.2,5.2-5,8.2-8.3c3.4-3.7,7.6-8.5,12.5-14.5
		c5-6,8.6-10.5,10.8-13.5l5.7-8c2.6-3.5,4-5.5,4.4-6.1c1.3-2.1,2.3-3.2,2.8-3.2c0.3,0,0.4,0.1,0.4,0.4c0,0.2-0.2,0.5-0.6,1
		C78.3,65.6,75.3,71.5,74.2,77.4z"/>
</g>
</svg>
