<?xml version="1.0" encoding="utf-8"?>
<!-- Generator: Adobe Illustrator 22.1.0, SVG Export Plug-In . SVG Version: 6.00 Build 0)  -->
<svg version="1.1" xmlns="http://www.w3.org/2000/svg" xmlns:xlink="http://www.w3.org/1999/xlink" x="0px" y="0px"
	 viewBox="0 0 90.9 180" style="enable-background:new 0 0 90.9 180;" xml:space="preserve">
<style type="text/css">
	.st0{display:none;}
	.st1{display:inline;fill:#FF0000;}
</style>
<g id="bg" class="st0">
	<polygon class="st1" points="5.4,0 5.4,0 4.5,0 4.4,0 4.4,0 4.4,0 4.3,0 4.3,0 4.3,0 4.2,0 4.2,0 4.2,0 4.2,0 4.2,0 4.2,0 4.1,0 
		4.1,0 4.1,0 4.1,0 4,0 4,0 4,0 4,0 4,0 4,0 4,0 3.9,0 3.9,0 3.9,0 3.8,0 3.8,0 3.8,0 3.8,0 3.8,0 3.8,0 3.8,0 3.7,0 3.7,0 3.7,0 
		3.7,0 3.7,0 3.7,0 3.6,0 3.6,0 3.6,0 3.6,0 3.6,0 3.6,0 3.5,0 3.5,0 3.5,0 3.5,0 3.5,0 3.5,0 3.5,0 3.5,0 3.5,0 3.5,0 3.5,0 3.4,0 
		3.4,0 3.4,0 3.4,0 3.4,0 3.4,0 3.4,0 3.4,0 3.3,0 3.3,0 3.3,0 3.3,0 3.3,0 3.3,0 3.3,0 3.3,0 3.3,0 3.3,0 3.3,0 3.3,0 3.2,0 3.2,0 
		3.2,0 3.2,0 3.2,0 3.2,0 3.2,0 3.2,0 3.2,0 3.2,0 3.2,0 3.2,0 3.1,0 3.1,0 3.1,0 3.1,0 3.1,0 3.1,0 3.1,0 3.1,0 3.1,0 3.1,0 3.1,0 
		3.1,0 3.1,0 3.1,0 3.1,0 3,0 3,0 3,0 3,0 3,0 3,0 3,0 3,0 3,0 3,0 3,0 3,0 3,0 3,0 3,0 2.9,0 2.9,0 2.9,0 2.9,0 2.9,0 2.9,0 2.9,0 
		2.9,0 2.9,0 2.9,0 2.9,0 2.9,0 2.9,0 2.9,0 2.9,0 2.9,0 2.8,0 2.8,0 2.8,0 2.8,0 2.8,0 2.8,0 2.8,0 2.8,0 2.8,0 2.8,0 2.8,0 2.8,0 
		2.8,0 2.8,0 2.8,0 2.7,0 2.7,0 2.7,0 2.7,0 2.7,0 2.7,0 2.7,0 2.7,0 2.7,0 2.7,0 2.7,0 2.7,0 2.7,0 2.7,0 2.6,0 2.6,0 2.6,0 2.6,0 
		2.6,0 2.6,0 2.6,0 2.6,0 2.6,0 2.6,0 2.6,0 2.6,0 2.6,0 2.6,0 2.6,0 2.6,0 2.6,0 2.6,0 2.5,0 2.5,0 2.5,0 2.5,0 2.5,0 2.5,0 2.5,0 
		2.5,0 2.5,0 2.5,0 2.5,0 2.5,0 2.4,0 2.4,0 2.4,0 2.4,0 2.4,0 2.4,0 2.4,0 2.4,0 2.4,0 2.4,0 2.4,0 2.4,0 2.4,0 2.4,0 2.4,0 2.4,0 
		2.4,0 2.4,0 2.3,0 2.3,0 2.3,0 2.3,0 2.3,0 2.3,0 2.3,0 2.3,0 2.3,0 2.3,0 2.3,0 2.3,0 2.3,0 2.2,0 2.2,0 2.2,0 2.2,0 2.2,0 2.2,0 
		2.2,0 2.2,0 2.2,0 2.2,0 2.2,0 2.2,0 2.2,0 2.1,0 2.1,0 2.1,0 2.1,0 2.1,0 2.1,0 2.1,0 2.1,0 2.1,0 2.1,0 2.1,0 2.1,0 2.1,0 2.1,0 
		2.1,0 2.1,0 2.1,0 2.1,0 2.1,0 2,0 2,0 2,0 2,0 2,0 2,0 2,0 2,0 2,0 2,0 2,0 2,0 2,0 1.9,0 1.9,0 1.9,0 1.9,0 1.9,0 1.9,0 1.9,0 
		1.9,0 1.9,0 1.9,0 1.9,0 1.9,0 1.9,0 1.9,0 1.9,0 1.9,0 1.9,0 1.9,0 1.8,0 1.8,0 1.8,0 1.8,0 1.8,0 1.8,0 1.8,0 1.8,0 1.8,0 1.8,0 
		1.8,0 1.8,0 1.8,0 1.8,0 1.7,0 1.7,0 1.7,0 1.7,0 1.7,0 1.7,0 1.7,0 1.7,0 1.7,0 1.7,0 1.7,0 1.7,0 1.7,0 1.7,0 1.7,0 1.6,0 1.6,0 
		1.6,0 1.6,0 1.6,0 1.6,0 1.6,0 1.6,0 1.6,0 1.6,0 1.6,0 1.6,0 1.6,0 1.5,0 1.5,0 1.5,0 1.5,0 1.5,0 1.5,0 1.5,0 1.5,0 1.5,0 1.5,0 
		1.5,0 1.5,0 1.5,0 1.5,0 1.4,0 1.4,0 1.4,0 1.4,0 1.4,0 1.4,0 1.4,0 1.4,0 1.4,0 1.4,0 1.4,0 1.4,0 1.3,0 1.3,0 1.3,0 1.3,0 1.3,0 
		1.3,0 1.3,0 1.3,0 1.3,0 1.3,0 1.3,0 1.2,0 1.2,0 1.2,0 1.2,0 1.2,0 1.2,0 1.2,0 1.2,0 1.2,0 1.1,0 1.1,0 1.1,0 1.1,0 1.1,0 1.1,0 
		1,0 1,0 1,0 1,0 1,0 1,0 1,0 1,0 1,0 0.9,0 0.9,0 0.9,0 0.9,0 0.9,0 0.8,0 0.8,0 0.8,0 0.8,0 0.8,0 0.8,0 0.7,0 0.7,0 0.7,0 0.7,0 
		0.7,0 0.6,0 0.6,0 0.6,0 0.6,0 0.5,0 0.5,0 0.5,0 0.5,0 0.5,0 0.5,0 0.4,0 0.4,0 0.4,0 0.3,0 0.3,0 0.3,0 0.3,0 0.3,0 0.2,0 0.2,0 
		0.1,0 0,0 0,180 0.1,180 0.2,180 0.2,180 0.3,180 0.3,180 0.3,180 0.3,180 0.3,180 0.4,180 0.4,180 0.4,180 0.5,180 0.5,180 
		0.5,180 0.5,180 0.5,180 0.5,180 0.6,180 0.6,180 0.6,180 0.6,180 0.7,180 0.7,180 0.7,180 0.7,180 0.7,180 0.8,180 0.8,180 
		0.8,180 0.8,180 0.8,180 0.8,180 0.9,180 0.9,180 0.9,180 0.9,180 0.9,180 1,180 1,180 1,180 1,180 1,180 1,180 1,180 1,180 1,180 
		1.1,180 1.1,180 1.1,180 1.1,180 1.1,180 1.1,180 1.2,180 1.2,180 1.2,180 1.2,180 1.2,180 1.2,180 1.2,180 1.2,180 1.2,180 
		1.3,180 1.3,180 1.3,180 1.3,180 1.3,180 1.3,180 1.3,180 1.3,180 1.3,180 1.3,180 1.3,180 1.4,180 1.4,180 1.4,180 1.4,180 
		1.4,180 1.4,180 1.4,180 1.4,180 1.4,180 1.4,180 1.4,180 1.4,180 1.5,180 1.5,180 1.5,180 1.5,180 1.5,180 1.5,180 1.5,180 
		1.5,180 1.5,180 1.5,180 1.5,180 1.5,180 1.5,180 1.5,180 1.6,180 1.6,180 1.6,180 1.6,180 1.6,180 1.6,180 1.6,180 1.6,180 
		1.6,180 1.6,180 1.6,180 1.6,180 1.6,180 1.7,180 1.7,180 1.7,180 1.7,180 1.7,180 1.7,180 1.7,180 1.7,180 1.7,180 1.7,180 
		1.7,180 1.7,180 1.7,180 1.7,180 1.7,180 1.8,180 1.8,180 1.8,180 1.8,180 1.8,180 1.8,180 1.8,180 1.8,180 1.8,180 1.8,180 
		1.8,180 1.8,180 1.8,180 1.8,180 1.9,180 1.9,180 1.9,180 1.9,180 1.9,180 1.9,180 1.9,180 1.9,180 1.9,180 1.9,180 1.9,180 
		1.9,180 1.9,180 1.9,180 1.9,180 1.9,180 1.9,180 1.9,180 2,180 2,180 2,180 2,180 2,180 2,180 2,180 2,180 2,180 2,180 2,180 
		2,180 2,180 2.1,180 2.1,180 2.1,180 2.1,180 2.1,180 2.1,180 2.1,180 2.1,180 2.1,180 2.1,180 2.1,180 2.1,180 2.1,180 2.1,180 
		2.1,180 2.1,180 2.1,180 2.1,180 2.1,180 2.2,180 2.2,180 2.2,180 2.2,180 2.2,180 2.2,180 2.2,180 2.2,180 2.2,180 2.2,180 
		2.2,180 2.2,180 2.2,180 2.3,180 2.3,180 2.3,180 2.3,180 2.3,180 2.3,180 2.3,180 2.3,180 2.3,180 2.3,180 2.3,180 2.3,180 
		2.3,180 2.4,180 2.4,180 2.4,180 2.4,180 2.4,180 2.4,180 2.4,180 2.4,180 2.4,180 2.4,180 2.4,180 2.4,180 2.4,180 2.4,180 
		2.4,180 2.4,180 2.4,180 2.4,180 2.5,180 2.5,180 2.5,180 2.5,180 2.5,180 2.5,180 2.5,180 2.5,180 2.5,180 2.5,180 2.5,180 
		2.5,180 2.6,180 2.6,180 2.6,180 2.6,180 2.6,180 2.6,180 2.6,180 2.6,180 2.6,180 2.6,180 2.6,180 2.6,180 2.6,180 2.6,180 
		2.6,180 2.6,180 2.6,180 2.6,180 2.7,180 2.7,180 2.7,180 2.7,180 2.7,180 2.7,180 2.7,180 2.7,180 2.7,180 2.7,180 2.7,180 
		2.7,180 2.7,180 2.7,180 2.8,180 2.8,180 2.8,180 2.8,180 2.8,180 2.8,180 2.8,180 2.8,180 2.8,180 2.8,180 2.8,180 2.8,180 
		2.8,180 2.8,180 2.8,180 2.9,180 2.9,180 2.9,180 2.9,180 2.9,180 2.9,180 2.9,180 2.9,180 2.9,180 2.9,180 2.9,180 2.9,180 
		2.9,180 2.9,180 2.9,180 2.9,180 3,180 3,180 3,180 3,180 3,180 3,180 3,180 3,180 3,180 3,180 3,180 3,180 3,180 3,180 3,180 
		3.1,180 3.1,180 3.1,180 3.1,180 3.1,180 3.1,180 3.1,180 3.1,180 3.1,180 3.1,180 3.1,180 3.1,180 3.1,180 3.1,180 3.1,180 
		3.2,180 3.2,180 3.2,180 3.2,180 3.2,180 3.2,180 3.2,180 3.2,180 3.2,180 3.2,180 3.2,180 3.2,180 3.3,180 3.3,180 3.3,180 
		3.3,180 3.3,180 3.3,180 3.3,180 3.3,180 3.3,180 3.3,180 3.3,180 3.3,180 3.4,180 3.4,180 3.4,180 3.4,180 3.4,180 3.4,180 
		3.4,180 3.4,180 3.5,180 3.5,180 3.5,180 3.5,180 3.5,180 3.5,180 3.5,180 3.5,180 3.5,180 3.5,180 3.5,180 3.6,180 3.6,180 
		3.6,180 3.6,180 3.6,180 3.6,180 3.7,180 3.7,180 3.7,180 3.7,180 3.7,180 3.7,180 3.8,180 3.8,180 3.8,180 3.8,180 3.8,180 
		3.8,180 3.8,180 3.9,180 3.9,180 3.9,180 4,180 4,180 4,180 4,180 4,180 4,180 4,180 4.1,180 4.1,180 4.1,180 4.1,180 4.2,180 
		4.2,180 4.2,180 4.2,180 4.2,180 4.2,180 4.3,180 4.3,180 4.3,180 4.4,180 4.4,180 4.4,180 4.5,180 4.5,180 4.5,180 90.9,180 
		90.9,0 	"/>
</g>
<g id="figure">
	<path d="M32.3,90.8h-0.7c1.8-4.5,4.1-8.5,6.9-12c2.8-3.5,5.7-6.4,8.8-8.6c3.1-2.2,6-3.9,8.8-5c2.8-1.1,5.2-1.6,7.1-1.6
		c1.9,0,3.4,0.6,4.5,1.8c1.1,1.2,1.7,2.9,1.7,5c0,3.6-1.6,8.4-4.8,14.3c-3.2,5.9-7.4,11.8-12.6,17.6S41.3,113,35.6,116.8
		c-5.7,3.8-11,5.7-15.8,5.7c-2.9,0-5.2-0.9-7-2.6c-1.8-1.7-2.7-4.3-2.7-7.7c0-3.9,1-7.9,2.9-12.1s4.9-8.5,8.8-13
		c3.9-4.5,8.7-9,14.4-13.6c6.4-5.1,12.4-8.9,18.1-11.4c5.7-2.6,11.1-3.8,16.3-3.8c3.2,0,5.8,0.7,7.6,2c1.9,1.3,2.8,3.2,2.8,5.5
		c0,2.6-0.8,4.6-2.5,6.1c-1.6,1.5-4,2.7-7.2,3.5l0.1-0.8c2.9-0.7,5.1-1.8,6.5-3.4c1.4-1.6,2.2-3.4,2.2-5.4c0-2.1-0.9-3.8-2.6-4.9
		c-1.8-1.2-4.2-1.7-7.2-1.7c-5.5,0-11.3,1.5-17.2,4.4c-5.9,2.9-11.5,7-16.6,12.3c-3,3.1-6,6.5-8.8,10.1s-5.4,7.2-7.8,10.9
		c-2.4,3.7-4.2,7.1-5.6,10.2c-1.4,3.1-2.1,5.7-2.1,7.8c0,1.9,0.7,3.6,2,5c1.3,1.4,3.2,2.1,5.5,2.1c4.6,0,9.8-1.9,15.4-5.6
		c5.6-3.8,11-8.5,16.2-14.3c5.2-5.8,9.4-11.6,12.6-17.4c3.2-5.8,4.9-10.5,4.9-14c0-1.9-0.5-3.4-1.4-4.5c-0.9-1.1-2.2-1.7-3.8-1.7
		c-1.9,0-4.3,0.6-7.2,1.8c-2.9,1.2-5.8,2.9-8.8,5.1c-2.9,2.2-5.7,5-8.5,8.4C36.1,82.9,33.9,86.7,32.3,90.8z"/>
</g>
</svg>
