<?xml version="1.0" encoding="utf-8"?>
<!-- Generator: Adobe Illustrator 22.1.0, SVG Export Plug-In . SVG Version: 6.00 Build 0)  -->
<svg version="1.1" xmlns="http://www.w3.org/2000/svg" xmlns:xlink="http://www.w3.org/1999/xlink" x="0px" y="0px"
	 viewBox="0 0 132.6 180" style="enable-background:new 0 0 132.6 180;" xml:space="preserve">
<style type="text/css">
	.st0{display:none;}
	.st1{display:inline;fill:#FF0000;}
</style>
<g id="bg" class="st0">
	<polyline class="st1" points="132.6,0 0,0 0,0 0,0 0,0 0,0 0,0 0,0 0,0 0,0 0,0 0,0 0,0 0,0 0,0 0,0 0,0 0,0 0,0 0,0 0,0 0,0 0,0 
		0,0 0,0 0,0 0,0 0,0 0,0 0,0 0,0 0,0 0,0 0,0 0,0 0,0 0,0 0,0 0,0 0,0 0,0 0,0 0,0 0,0 0,0 0,0 0,0 0,0 0,0 0,0 0,0 0,0 0,0 0,0 
		0,0 0,0 0,0 0,0 0,0 0,0 0,0 0,0 0,0 0,0 0,0 0,0 0,0 0,0 0,0 0,0 0,0 0,0 0,0 0,0 0,0 0,0 0,0 0,0 0,0 0,0 0,0 0,0 0,0 0,0 0,0 
		0,0 0,0 0,0 0,0 0,0 0,0 0,0 0,0 0,0 0,0 0,0 0,0 0,0 0,0 0,0 0,0 0,0 0,0 0,0 0,0 0,0 0,0 0,0 0,0 0,0 0,0 0,0 0,0 0,0 0,0 0,0 
		0,0 0,0 0,0 0,0 0,0 0,0 0,0 0,0 0,0 0,0 0,0 0,0 0,0 0,0 0,0 0,0 0,0 0,0 0,0 0,0 0,0 0,0 0,0 0,0 0,0 0,0 0,0 0,0 0,0 0,0 0,0 
		0,0 0,0 0,0 0,0 0,0 0,0 0,0 0,0 0,0 0,0 0,0 0,0 0,0 0,0 0,0 0,0 0,0 0,0 0,0 0,0 0,0 0,0 0,0 0,0 0,0 0,0 0,0 0,0 0,0 0,0 0,0 
		0,0 0,0 0,0 0,0 0,0 0,0 0,0 0,0 0,0 0,0 0,0 0,0 0,0 0,0 0,0 0,0 0,0 0,0 0,0 0,0 0,0 0,0 0,0 0,0 0,0 0,0 0,0 0,0 0,0 0,0 0,0 
		0,0 0,0 0,0 0,0 0,0 0,0 0,0 0,0 0,0 0,0 0,0 0,0 0,0 0,0 0,0 0,0 0,0 0,0 0,0 0,0 0,0 0,0 0,0 0,0 0,0 0,0 0,0 0,0 0,0 0,0 0,0 
		0,0 0,0 0,0 0,0 0,0 0,0 0,0 0,0 0,0 0,0 0,0 0,0 0,0 0,0 0,0 0,0 0,0 0,0 0,0 0,0 0,0 0,0 0,0 0,0 0,0 0,0 0,0 0,0 0,0 0,0 0,0 
		0,0 0,0 0,0 0,0 0,0 0,0 0,0 0,0 0,0 0,0 0,0 0,0 0,0 0,0 0,0 0,0 0,0 0,0 0,0 0,0 0,0 0,0 0,0 0,0 0,0 0,0 0,0 0,0 0,0 0,0 0,0 
		0,0 0,0 0,0 0,0 0,0 0,0 0,0 0,0 0,0 0,0 0,0 0,0 0,0 0,0 0,0 0,0 0,0 0,0 0,0 0,0 0,0 0,0 0,0 0,0 0,0 0,0 0,0 0,0 0,0 0,0 0,0 
		0,0 0,0 0,0 0,0 0,0 0,0 0,0 0,0 0,0 0,0 0,0 0,0 0,0 0,0 0,0 0,0 0,0 0,0 0,0 0,0 0,0 0,0 0,0 0,0 0,0 0,0 0,0 0,0 0,0 0,0 0,0 
		0,0 0,0 0,0 0,0 0,0 0,0 0,0 0,0 0,0 0,0 0,0 0,0 0,0 0,0 0,0 0,0 0,0 0,0 0,0 0,0 0,0 0,0 0,0 0,0 0,0 0,0 0,0 0,0 0,0 0,0 0,0 
		0,0 0,0 0,0 0,0 0,0 0,0 0,0 0,0 0,0 0,0 0,0 0,0 0,0 0,0 0,0 0,0 0,0 0,0 0,0 0,0 0,0 0,0 0,0 0,0 0,0 0,0 0,0 0,0 0,0 0,0 0,0 
		0,0 0,0 0,0 0,0 0,0 0,0 0,180 0,180 0,180 0,180 0,180 0,180 0,180 0,180 0,180 0,180 0,180 0,180 0,180 0,180 0,180 0,180 0,180 
		0,180 0,180 0,180 0,180 0,180 0,180 0,180 0,180 0,180 0,180 0,180 0,180 0,180 0,180 0,180 0,180 0,180 0,180 0,180 0,180 0,180 
		0,180 0,180 0,180 0,180 0,180 0,180 0,180 0,180 0,180 0,180 0,180 0,180 0,180 0,180 0,180 0,180 0,180 0,180 0,180 0,180 0,180 
		0,180 0,180 0,180 0,180 0,180 0,180 0,180 0,180 0,180 0,180 0,180 0,180 0,180 0,180 0,180 0,180 0,180 0,180 0,180 0,180 0,180 
		0,180 0,180 0,180 0,180 0,180 0,180 0,180 0,180 0,180 0,180 0,180 0,180 0,180 0,180 0,180 0,180 0,180 0,180 0,180 0,180 0,180 
		0,180 0,180 0,180 0,180 0,180 0,180 0,180 0,180 0,180 0,180 0,180 0,180 0,180 0,180 0,180 0,180 0,180 0,180 0,180 0,180 0,180 
		0,180 0,180 0,180 0,180 0,180 0,180 0,180 0,180 0,180 0,180 0,180 0,180 0,180 0,180 0,180 0,180 0,180 0,180 0,180 0,180 0,180 
		0,180 0,180 0,180 0,180 0,180 0,180 0,180 0,180 0,180 0,180 0,180 0,180 0,180 0,180 0,180 0,180 0,180 0,180 0,180 0,180 0,180 
		0,180 0,180 0,180 0,180 0,180 0,180 0,180 0,180 0,180 0,180 0,180 0,180 0,180 0,180 0,180 0,180 0,180 0,180 0,180 0,180 0,180 
		0,180 0,180 0,180 0,180 0,180 0,180 0,180 0,180 0,180 0,180 0,180 0,180 0,180 0,180 0,180 0,180 0,180 0,180 0,180 0,180 0,180 
		0,180 0,180 0,180 0,180 0,180 0,180 0,180 0,180 0,180 0,180 0,180 0,180 0,180 0,180 0,180 0,180 0,180 0,180 0,180 0,180 0,180 
		0,180 0,180 0,180 0,180 0,180 0,180 0,180 0,180 0,180 0,180 0,180 0,180 0,180 0,180 0,180 0,180 0,180 0,180 0,180 0,180 0,180 
		0,180 0,180 0,180 0,180 0,180 0,180 0,180 0,180 0,180 0,180 0,180 0,180 0,180 0,180 0,180 0,180 0,180 0,180 0,180 0,180 0,180 
		0,180 0,180 0,180 0,180 0,180 0,180 0,180 0,180 0,180 0,180 0,180 0,180 0,180 0,180 0,180 0,180 0,180 0,180 0,180 0,180 0,180 
		0,180 0,180 0,180 0,180 0,180 0,180 0,180 0,180 0,180 0,180 0,180 0,180 0,180 0,180 0,180 0,180 0,180 0,180 0,180 0,180 0,180 
		0,180 0,180 0,180 0,180 0,180 0,180 0,180 0,180 0,180 0,180 0,180 0,180 0,180 0,180 0,180 0,180 0,180 0,180 0,180 0,180 0,180 
		0,180 0,180 0,180 0,180 0,180 0,180 0,180 0,180 0,180 0,180 0,180 0,180 0,180 0,180 0,180 0,180 0,180 0,180 0,180 0,180 0,180 
		0,180 0,180 0,180 0,180 0,180 0,180 0,180 0,180 0,180 0,180 0,180 0,180 0,180 0,180 0,180 0,180 0,180 0,180 0,180 0,180 0,180 
		0,180 0,180 0,180 0,180 0,180 0,180 0,180 0,180 0,180 0,180 0,180 0,180 0,180 0,180 0,180 0,180 0,180 0,180 0,180 0,180 0,180 
		0,180 0,180 0,180 0,180 0,180 0,180 0,180 0,180 0,180 0,180 0,180 0,180 0,180 0,180 0,180 0,180 0,180 0,180 0,180 0,180 0,180 
		0,180 0,180 0,180 0,180 0,180 0,180 0,180 0,180 0,180 0,180 0,180 0,180 0,180 0,180 0,180 132.6,180 	"/>
</g>
<g id="figure">
	<g>
		<path d="M68.3,69.3l0.7,0.2c-1.5,5.6-3.8,10.6-7.2,14.9c-3.3,4.4-7,7.8-11.2,10.2c-4.1,2.4-8.1,3.6-11.8,3.6
			c-2.2,0-3.9-0.6-5.2-1.8c-1.3-1.2-1.9-2.9-1.9-4.9c0-3.2,1.2-6.7,3.5-10.3c2.3-3.7,5.5-7.1,9.6-10.3c4.1-3.2,8.8-5.8,14-7.8
			c5.3-2,10.7-2.9,16.3-2.9c5.1,0,9.3,1.7,12.7,5.1c3.5-2.3,6.6-3.9,9.4-4.9l0.2,0.6c-2.9,1.1-6,2.8-9.1,5.2c1,1.3,1.6,2.5,1.9,3.6
			c0.3,1,0.5,2.5,0.5,4.4c0,1.9-0.6,4.2-1.7,6.7c-1.2,2.5-2.8,4.7-4.8,6.5c-2.1,1.8-4.3,2.7-6.8,2.7c-1,0-1.9-0.4-2.5-1.1
			c-0.7-0.7-1-1.6-1-2.5c0-2.1,1-4.1,3-6c2-1.9,4.6-3.4,7.9-4.4l0.3,0.6c-3.4,1.1-6,2.5-7.8,4.3c-1.8,1.7-2.7,3.6-2.7,5.6
			c0,0.8,0.2,1.5,0.7,2c0.5,0.5,1.1,0.8,1.9,0.8c1.2,0,2.4-0.5,3.8-1.5c1.4-1,2.7-2.4,4.1-4.2s2.4-3.7,3.2-5.7
			c0.8-2,1.2-3.9,1.2-5.8c0-1.8-0.6-3.5-1.8-5.3c-3,2.1-5.6,4.4-7.9,6.8c-2.3,2.4-4.3,4.8-5.9,7.1c-1.6,2.3-3.2,5-4.9,8.1
			c-3.1,6-5.8,10.7-8.1,14.1c-2.3,3.4-4.7,6.2-7.2,8.5c-3,2.8-6.3,5.1-9.9,7.1c-3.6,2-7.3,3.5-11,4.5c-3.8,1-7.5,1.5-11.2,1.5
			c-3.7,0-6.6-0.6-8.5-1.9c-1.9-1.3-2.8-3-2.8-5.1c0-1.1,0.4-2.1,1.3-3c0.8-0.9,1.8-1.3,2.9-1.3c1.7,0,2.5,0.8,2.5,2.4
			c0,1.5-0.8,2.2-2.5,2.2c-0.6,0-1.1-0.1-1.4-0.4c-0.3-0.3-0.6-0.8-1-1.7v-0.1c-0.5,0.3-0.8,1.2-0.8,2.5c0,1.4,0.9,2.7,2.8,3.8
			c1.9,1.2,4.4,1.8,7.6,1.8c5.5,0,10.6-1.3,15.4-3.9c4.8-2.6,9.2-6.1,13.2-10.6c4-4.5,8.1-9.8,12.1-16c2.5-4,4.9-7.3,7-10.1
			c2.1-2.8,4.1-5.2,6-7.2c1.9-2,3.8-3.8,5.8-5.4c1.9-1.6,3.9-3.2,6.1-4.7c-2.7-3.3-6.6-4.9-11.7-4.9c-6,0-11.5,1-16.8,3.1
			c-5.2,2.1-9.7,4.7-13.6,7.9c-3.8,3.2-6.8,6.5-9,10.1c-2.2,3.5-3.3,6.6-3.3,9.2c0,1.9,0.6,3.4,1.7,4.6c1.1,1.2,2.6,1.8,4.4,1.8
			c3.5,0,7.3-1.3,11.5-3.8c4.1-2.5,7.9-6,11.2-10.4C64.6,79,67,74.3,68.3,69.3z"/>
		<path d="M68.7,109.6v-1c0.1-0.1,0.7-0.5,1.8-1.2c1.1-0.7,1.7-1.1,1.8-1.2c0-1.2,0.4-2.2,1-3.2c0.6-1,1.2-1.5,1.9-1.5
			c1,0,1.4,0.7,1.1,2.2c5-2.5,7.7-3.9,8.3-4.2l13.5-15.7c9.8-11.5,17-17.2,21.6-17.2c0.9,0,1.6,0.3,2.2,0.8c0.6,0.5,0.9,1.2,0.9,2.1
			c0,2.3-1.5,5.1-4.5,8.4c-3,3.3-7.1,6.8-12.4,10.5c-5.3,3.7-11.1,7.1-17.5,10.3l-12.1,14.5c1.5,0.7,2.8,1.1,4,1.1
			c2.7,0,4.8-0.5,6.5-1.5c1.6-1,3.7-2.6,6.2-5v1c-2.4,2.4-4.5,4-6.2,4.9c-1.7,0.9-3.8,1.3-6.3,1.3c-1.6,0-3.2-0.4-4.7-1.1
			l-27.1,32.4H44l10.4-12c1.8-2.1,3.9-4.8,6.3-8c2.4-3.3,4.5-6.2,6.3-8.8c1.8-2.6,3.5-5.3,5-8.1l-0.1-1.9c-0.6,0.3-1.1,0.7-1.7,1
			C69.8,108.8,69.2,109.2,68.7,109.6z M73.5,112.1l-1.1-1.9c-0.1,0.2-0.8,1.2-2,3.1c-1.2,1.9-2.2,3.4-3,4.7
			c-0.8,1.3-1.7,2.6-2.7,4.2L73.5,112.1z M82.8,101.1c-1.6,0.7-3.9,1.9-6.8,3.5c0,0.3-0.2,0.7-0.4,1.1s-0.5,0.8-0.7,1.1
			c-0.2,0.3-0.5,0.8-0.9,1.2c-0.6,0.7-0.9,1.2-0.9,1.6c0.1,0.5,0.4,1.1,1,1.6c0.4-0.5,1.8-2.2,4.3-5.1S82.5,101.6,82.8,101.1z
			 M95,90.4L89.6,97c4.2-2.1,8.2-4.4,12-6.9c3.8-2.5,7.2-5,10.3-7.6c3.1-2.6,5.5-5,7.2-7.3c1.8-2.3,2.6-4.2,2.6-5.7
			c0-0.7-0.2-1.2-0.6-1.6c-0.4-0.4-1-0.6-1.7-0.6c-2.5,0-5.7,2-9.6,6.1C105.9,77.5,101,83.2,95,90.4z"/>
	</g>
</g>
</svg>
