<?xml version="1.0" encoding="utf-8"?>
<!-- Generator: Adobe Illustrator 22.1.0, SVG Export Plug-In . SVG Version: 6.00 Build 0)  -->
<svg version="1.1" xmlns="http://www.w3.org/2000/svg" xmlns:xlink="http://www.w3.org/1999/xlink" x="0px" y="0px"
	 viewBox="0 0 91 180" style="enable-background:new 0 0 91 180;" xml:space="preserve">
<style type="text/css">
	.st0{display:none;}
	.st1{display:inline;fill:#FF0000;}
</style>
<g id="bg" class="st0">
	<polygon class="st1" points="2.8,0 2.8,0 2.4,0 2.3,0 2.3,0 2.3,0 2.3,0 2.3,0 2.3,0 2.2,0 2.2,0 2.2,0 2.2,0 2.2,0 2.2,0 2.2,0 
		2.2,0 2.1,0 2.1,0 2.1,0 2.1,0 2.1,0 2.1,0 2.1,0 2.1,0 2.1,0 2,0 2,0 2,0 2,0 2,0 2,0 2,0 2,0 2,0 2,0 2,0 1.9,0 1.9,0 1.9,0 
		1.9,0 1.9,0 1.9,0 1.9,0 1.9,0 1.9,0 1.9,0 1.9,0 1.9,0 1.9,0 1.9,0 1.8,0 1.8,0 1.8,0 1.8,0 1.8,0 1.8,0 1.8,0 1.8,0 1.8,0 1.8,0 
		1.8,0 1.8,0 1.8,0 1.8,0 1.8,0 1.8,0 1.8,0 1.8,0 1.7,0 1.7,0 1.7,0 1.7,0 1.7,0 1.7,0 1.7,0 1.7,0 1.7,0 1.7,0 1.7,0 1.7,0 1.7,0 
		1.7,0 1.7,0 1.7,0 1.7,0 1.7,0 1.7,0 1.7,0 1.7,0 1.7,0 1.7,0 1.6,0 1.6,0 1.6,0 1.6,0 1.6,0 1.6,0 1.6,0 1.6,0 1.6,0 1.6,0 1.6,0 
		1.6,0 1.6,0 1.6,0 1.6,0 1.6,0 1.6,0 1.6,0 1.6,0 1.6,0 1.6,0 1.6,0 1.6,0 1.6,0 1.6,0 1.6,0 1.6,0 1.6,0 1.6,0 1.5,0 1.5,0 1.5,0 
		1.5,0 1.5,0 1.5,0 1.5,0 1.5,0 1.5,0 1.5,0 1.5,0 1.5,0 1.5,0 1.5,0 1.5,0 1.5,0 1.5,0 1.5,0 1.5,0 1.5,0 1.5,0 1.5,0 1.5,0 1.5,0 
		1.5,0 1.5,0 1.5,0 1.5,0 1.5,0 1.5,0 1.4,0 1.4,0 1.4,0 1.4,0 1.4,0 1.4,0 1.4,0 1.4,0 1.4,0 1.4,0 1.4,0 1.4,0 1.4,0 1.4,0 1.4,0 
		1.4,0 1.4,0 1.4,0 1.4,0 1.4,0 1.4,0 1.4,0 1.4,0 1.4,0 1.4,0 1.4,0 1.4,0 1.4,0 1.4,0 1.3,0 1.3,0 1.3,0 1.3,0 1.3,0 1.3,0 1.3,0 
		1.3,0 1.3,0 1.3,0 1.3,0 1.3,0 1.3,0 1.3,0 1.3,0 1.3,0 1.3,0 1.3,0 1.3,0 1.3,0 1.3,0 1.3,0 1.3,0 1.3,0 1.3,0 1.3,0 1.3,0 1.3,0 
		1.3,0 1.2,0 1.2,0 1.2,0 1.2,0 1.2,0 1.2,0 1.2,0 1.2,0 1.2,0 1.2,0 1.2,0 1.2,0 1.2,0 1.2,0 1.2,0 1.2,0 1.2,0 1.2,0 1.2,0 1.2,0 
		1.2,0 1.2,0 1.2,0 1.2,0 1.2,0 1.2,0 1.2,0 1.1,0 1.1,0 1.1,0 1.1,0 1.1,0 1.1,0 1.1,0 1.1,0 1.1,0 1.1,0 1.1,0 1.1,0 1.1,0 1.1,0 
		1.1,0 1.1,0 1.1,0 1.1,0 1.1,0 1.1,0 1.1,0 1.1,0 1.1,0 1.1,0 1.1,0 1.1,0 1.1,0 1.1,0 1.1,0 1,0 1,0 1,0 1,0 1,0 1,0 1,0 1,0 1,0 
		1,0 1,0 1,0 1,0 1,0 1,0 1,0 1,0 1,0 1,0 1,0 1,0 1,0 1,0 1,0 1,0 1,0 1,0 1,0 0.9,0 0.9,0 0.9,0 0.9,0 0.9,0 0.9,0 0.9,0 0.9,0 
		0.9,0 0.9,0 0.9,0 0.9,0 0.9,0 0.9,0 0.9,0 0.9,0 0.9,0 0.9,0 0.9,0 0.9,0 0.9,0 0.9,0 0.9,0 0.9,0 0.9,0 0.9,0 0.9,0 0.9,0 0.9,0 
		0.9,0 0.9,0 0.8,0 0.8,0 0.8,0 0.8,0 0.8,0 0.8,0 0.8,0 0.8,0 0.8,0 0.8,0 0.8,0 0.8,0 0.8,0 0.8,0 0.8,0 0.8,0 0.8,0 0.8,0 0.8,0 
		0.8,0 0.8,0 0.8,0 0.8,0 0.8,0 0.8,0 0.7,0 0.7,0 0.7,0 0.7,0 0.7,0 0.7,0 0.7,0 0.7,0 0.7,0 0.7,0 0.7,0 0.7,0 0.7,0 0.7,0 0.7,0 
		0.7,0 0.7,0 0.7,0 0.7,0 0.7,0 0.7,0 0.6,0 0.6,0 0.6,0 0.6,0 0.6,0 0.6,0 0.6,0 0.6,0 0.6,0 0.6,0 0.6,0 0.6,0 0.6,0 0.6,0 0.5,0 
		0.5,0 0.5,0 0.5,0 0.5,0 0.5,0 0.5,0 0.5,0 0.5,0 0.5,0 0.5,0 0.5,0 0.5,0 0.4,0 0.4,0 0.4,0 0.4,0 0.4,0 0.4,0 0.4,0 0.4,0 0.4,0 
		0.4,0 0.3,0 0.3,0 0.3,0 0.3,0 0.3,0 0.3,0 0.3,0 0.3,0 0.3,0 0.3,0 0.3,0 0.2,0 0.2,0 0.2,0 0.2,0 0.2,0 0.2,0 0.2,0 0.2,0 0.1,0 
		0.1,0 0.1,0 0.1,0 0,0 0,180 0.1,180 0.1,180 0.1,180 0.1,180 0.2,180 0.2,180 0.2,180 0.2,180 0.2,180 0.2,180 0.2,180 0.2,180 
		0.3,180 0.3,180 0.3,180 0.3,180 0.3,180 0.3,180 0.3,180 0.3,180 0.3,180 0.3,180 0.3,180 0.4,180 0.4,180 0.4,180 0.4,180 
		0.4,180 0.4,180 0.4,180 0.4,180 0.4,180 0.4,180 0.5,180 0.5,180 0.5,180 0.5,180 0.5,180 0.5,180 0.5,180 0.5,180 0.5,180 
		0.5,180 0.5,180 0.5,180 0.5,180 0.6,180 0.6,180 0.6,180 0.6,180 0.6,180 0.6,180 0.6,180 0.6,180 0.6,180 0.6,180 0.6,180 
		0.6,180 0.6,180 0.6,180 0.7,180 0.7,180 0.7,180 0.7,180 0.7,180 0.7,180 0.7,180 0.7,180 0.7,180 0.7,180 0.7,180 0.7,180 
		0.7,180 0.7,180 0.7,180 0.7,180 0.7,180 0.7,180 0.7,180 0.7,180 0.7,180 0.8,180 0.8,180 0.8,180 0.8,180 0.8,180 0.8,180 
		0.8,180 0.8,180 0.8,180 0.8,180 0.8,180 0.8,180 0.8,180 0.8,180 0.8,180 0.8,180 0.8,180 0.8,180 0.8,180 0.8,180 0.8,180 
		0.8,180 0.8,180 0.8,180 0.8,180 0.9,180 0.9,180 0.9,180 0.9,180 0.9,180 0.9,180 0.9,180 0.9,180 0.9,180 0.9,180 0.9,180 
		0.9,180 0.9,180 0.9,180 0.9,180 0.9,180 0.9,180 0.9,180 0.9,180 0.9,180 0.9,180 0.9,180 0.9,180 0.9,180 0.9,180 0.9,180 
		0.9,180 0.9,180 0.9,180 0.9,180 0.9,180 1,180 1,180 1,180 1,180 1,180 1,180 1,180 1,180 1,180 1,180 1,180 1,180 1,180 1,180 
		1,180 1,180 1,180 1,180 1,180 1,180 1,180 1,180 1,180 1,180 1,180 1,180 1,180 1,180 1.1,180 1.1,180 1.1,180 1.1,180 1.1,180 
		1.1,180 1.1,180 1.1,180 1.1,180 1.1,180 1.1,180 1.1,180 1.1,180 1.1,180 1.1,180 1.1,180 1.1,180 1.1,180 1.1,180 1.1,180 
		1.1,180 1.1,180 1.1,180 1.1,180 1.1,180 1.1,180 1.1,180 1.1,180 1.1,180 1.2,180 1.2,180 1.2,180 1.2,180 1.2,180 1.2,180 
		1.2,180 1.2,180 1.2,180 1.2,180 1.2,180 1.2,180 1.2,180 1.2,180 1.2,180 1.2,180 1.2,180 1.2,180 1.2,180 1.2,180 1.2,180 
		1.2,180 1.2,180 1.2,180 1.2,180 1.2,180 1.2,180 1.3,180 1.3,180 1.3,180 1.3,180 1.3,180 1.3,180 1.3,180 1.3,180 1.3,180 
		1.3,180 1.3,180 1.3,180 1.3,180 1.3,180 1.3,180 1.3,180 1.3,180 1.3,180 1.3,180 1.3,180 1.3,180 1.3,180 1.3,180 1.3,180 
		1.3,180 1.3,180 1.3,180 1.3,180 1.3,180 1.4,180 1.4,180 1.4,180 1.4,180 1.4,180 1.4,180 1.4,180 1.4,180 1.4,180 1.4,180 
		1.4,180 1.4,180 1.4,180 1.4,180 1.4,180 1.4,180 1.4,180 1.4,180 1.4,180 1.4,180 1.4,180 1.4,180 1.4,180 1.4,180 1.4,180 
		1.4,180 1.4,180 1.4,180 1.4,180 1.5,180 1.5,180 1.5,180 1.5,180 1.5,180 1.5,180 1.5,180 1.5,180 1.5,180 1.5,180 1.5,180 
		1.5,180 1.5,180 1.5,180 1.5,180 1.5,180 1.5,180 1.5,180 1.5,180 1.5,180 1.5,180 1.5,180 1.5,180 1.5,180 1.5,180 1.5,180 
		1.5,180 1.5,180 1.5,180 1.5,180 1.6,180 1.6,180 1.6,180 1.6,180 1.6,180 1.6,180 1.6,180 1.6,180 1.6,180 1.6,180 1.6,180 
		1.6,180 1.6,180 1.6,180 1.6,180 1.6,180 1.6,180 1.6,180 1.6,180 1.6,180 1.6,180 1.6,180 1.6,180 1.6,180 1.6,180 1.6,180 
		1.6,180 1.6,180 1.6,180 1.7,180 1.7,180 1.7,180 1.7,180 1.7,180 1.7,180 1.7,180 1.7,180 1.7,180 1.7,180 1.7,180 1.7,180 
		1.7,180 1.7,180 1.7,180 1.7,180 1.7,180 1.7,180 1.7,180 1.7,180 1.7,180 1.7,180 1.7,180 1.8,180 1.8,180 1.8,180 1.8,180 
		1.8,180 1.8,180 1.8,180 1.8,180 1.8,180 1.8,180 1.8,180 1.8,180 1.8,180 1.8,180 1.8,180 1.8,180 1.8,180 1.8,180 1.9,180 
		1.9,180 1.9,180 1.9,180 1.9,180 1.9,180 1.9,180 1.9,180 1.9,180 1.9,180 1.9,180 1.9,180 1.9,180 1.9,180 2,180 2,180 2,180 
		2,180 2,180 2,180 2,180 2,180 2,180 2,180 2,180 2.1,180 2.1,180 2.1,180 2.1,180 2.1,180 2.1,180 2.1,180 2.1,180 2.1,180 
		2.2,180 2.2,180 2.2,180 2.2,180 2.2,180 2.2,180 2.2,180 2.2,180 2.3,180 2.3,180 2.3,180 2.3,180 2.3,180 2.3,180 2.4,180 
		2.4,180 2.4,180 91,180 91,0 	"/>
</g>
<g id="figure">
	<path d="M62.3,106.7c-3.7,3.2-6.8,5.7-9.2,7.6c-2.4,1.9-4.6,3.5-6.6,4.7c-2,1.2-3.8,2.1-5.4,2.7c-1.7,0.6-3.2,0.9-4.6,0.9
		c-3.2,0-5.7-0.6-7.4-1.9c-3.1,1.3-6.3,1.9-9.3,1.9c-3.1,0-5.5-0.9-7.3-2.8c-1.7-1.9-2.6-4.5-2.6-7.7c0-5.3,2-11.1,6-17.3
		c4-6.2,9.3-12.2,15.9-17.8c6.6-5.6,13.3-10.2,20.2-13.6c6.9-3.4,13.1-5.1,18.5-5.1c3.3,0,5.8,0.7,7.7,2c1.8,1.4,2.7,3.3,2.7,5.9
		c0,2.4-0.8,4.4-2.3,6c-1.6,1.6-3.9,2.8-7.1,3.5v-0.6c2.9-0.7,5.1-1.9,6.5-3.5c1.5-1.6,2.2-3.4,2.2-5.5c0-2.2-0.8-4-2.4-5.3
		c-1.6-1.3-4-1.9-7.2-1.9c-7,0-14,2.2-20.9,6.7c-6.9,4.5-13.2,10-18.8,16.5c-5.6,6.5-10.1,12.9-13.5,19.1
		c-3.4,6.2-5.1,10.7-5.1,13.6c0,2.1,0.7,3.8,2,5c1.4,1.2,3.3,1.8,5.9,1.8c2.5,0,5.3-0.7,8.5-2c-0.3-0.9-0.5-1.8-0.7-2.6
		c-0.7-4-2.7-6.1-5.8-6.1c-1.6,0-3.6,0.6-5.7,1.9l-0.4-0.6c2.2-1.5,4.2-2.2,6.1-2.2c1.9,0,3.5,0.6,4.9,1.7c1.4,1.1,3,3.2,4.8,6.3
		c3-1.6,5.4-3.2,7.4-4.8c2-1.5,4.3-3.6,7.1-6.3c3.3-3.2,6.7-7,10.2-11.5c3.5-4.4,6.4-8.9,8.8-13.4c2.4-4.5,3.6-8.4,3.6-11.8
		c0-1.8-0.5-3.2-1.5-4.3c-1-1.1-2.3-1.6-4-1.6c-3,0-6.5,1.1-10.4,3.2c-3.9,2.1-7.8,5.2-11.5,9.2c-3.7,4-6.7,8.7-8.9,14.1l-1-0.2
		c1.3-3.5,3.2-6.9,5.5-10.1c2.4-3.3,5.1-6.2,8-8.7c3-2.5,6.1-4.5,9.3-6c3.2-1.5,6.2-2.2,9-2.2c1.9,0,3.4,0.6,4.5,1.9
		c1.1,1.3,1.6,2.9,1.6,4.9c0,4.2-1.6,9-4.9,14.6c-3.3,5.6-7.3,11-12,16.3c-4.7,5.3-8.6,9.1-11.7,11.6c-2,1.6-4.9,3.5-8.6,5.8
		c0.9,1.2,1.7,2,2.4,2.3s1.7,0.5,3,0.5c4.2,0,12.4-5.3,24.6-16V106.7z"/>
</g>
</svg>
