<?xml version="1.0" encoding="utf-8"?>
<!-- Generator: Adobe Illustrator 22.1.0, SVG Export Plug-In . SVG Version: 6.00 Build 0)  -->
<svg version="1.1" xmlns="http://www.w3.org/2000/svg" xmlns:xlink="http://www.w3.org/1999/xlink" x="0px" y="0px"
	 viewBox="0 0 115.1 180" style="enable-background:new 0 0 115.1 180;" xml:space="preserve">
<style type="text/css">
	.st0{display:none;}
	.st1{display:inline;fill:#FF0000;}
</style>
<g id="bg" class="st0">
	<polygon class="st1" points="4.6,0 4.6,0 3.8,0 3.7,0 3.7,0 3.7,0 3.7,0 3.7,0 3.7,0 3.6,0 3.6,0 3.6,0 3.6,0 3.6,0 3.5,0 3.5,0 
		3.5,0 3.5,0 3.5,0 3.4,0 3.4,0 3.4,0 3.4,0 3.4,0 3.4,0 3.4,0 3.3,0 3.3,0 3.3,0 3.3,0 3.3,0 3.3,0 3.2,0 3.2,0 3.2,0 3.2,0 3.2,0 
		3.2,0 3.2,0 3.1,0 3.1,0 3.1,0 3.1,0 3.1,0 3.1,0 3.1,0 3.1,0 3.1,0 3,0 3,0 3,0 3,0 3,0 3,0 3,0 3,0 3,0 2.9,0 2.9,0 2.9,0 2.9,0 
		2.9,0 2.9,0 2.9,0 2.9,0 2.9,0 2.9,0 2.9,0 2.8,0 2.8,0 2.8,0 2.8,0 2.8,0 2.8,0 2.8,0 2.8,0 2.8,0 2.8,0 2.8,0 2.8,0 2.8,0 2.8,0 
		2.7,0 2.7,0 2.7,0 2.7,0 2.7,0 2.7,0 2.7,0 2.7,0 2.7,0 2.7,0 2.7,0 2.7,0 2.7,0 2.7,0 2.7,0 2.7,0 2.7,0 2.6,0 2.6,0 2.6,0 2.6,0 
		2.6,0 2.6,0 2.6,0 2.6,0 2.6,0 2.6,0 2.6,0 2.6,0 2.6,0 2.6,0 2.5,0 2.5,0 2.5,0 2.5,0 2.5,0 2.5,0 2.5,0 2.5,0 2.5,0 2.5,0 2.5,0 
		2.5,0 2.5,0 2.5,0 2.5,0 2.5,0 2.5,0 2.5,0 2.5,0 2.4,0 2.4,0 2.4,0 2.4,0 2.4,0 2.4,0 2.4,0 2.4,0 2.4,0 2.4,0 2.4,0 2.4,0 2.4,0 
		2.4,0 2.4,0 2.4,0 2.4,0 2.4,0 2.4,0 2.4,0 2.3,0 2.3,0 2.3,0 2.3,0 2.3,0 2.3,0 2.3,0 2.3,0 2.3,0 2.3,0 2.3,0 2.3,0 2.3,0 2.3,0 
		2.3,0 2.3,0 2.2,0 2.2,0 2.2,0 2.2,0 2.2,0 2.2,0 2.2,0 2.2,0 2.2,0 2.2,0 2.2,0 2.2,0 2.2,0 2.2,0 2.2,0 2.2,0 2.2,0 2.2,0 2.2,0 
		2.1,0 2.1,0 2.1,0 2.1,0 2.1,0 2.1,0 2.1,0 2.1,0 2.1,0 2.1,0 2.1,0 2.1,0 2.1,0 2.1,0 2.1,0 2.1,0 2.1,0 2.1,0 2,0 2,0 2,0 2,0 
		2,0 2,0 2,0 2,0 2,0 2,0 2,0 2,0 2,0 2,0 2,0 1.9,0 1.9,0 1.9,0 1.9,0 1.9,0 1.9,0 1.9,0 1.9,0 1.9,0 1.9,0 1.9,0 1.9,0 1.9,0 
		1.9,0 1.9,0 1.9,0 1.9,0 1.9,0 1.9,0 1.9,0 1.8,0 1.8,0 1.8,0 1.8,0 1.8,0 1.8,0 1.8,0 1.8,0 1.8,0 1.8,0 1.8,0 1.8,0 1.8,0 1.8,0 
		1.8,0 1.8,0 1.7,0 1.7,0 1.7,0 1.7,0 1.7,0 1.7,0 1.7,0 1.7,0 1.7,0 1.7,0 1.7,0 1.7,0 1.7,0 1.7,0 1.7,0 1.7,0 1.7,0 1.6,0 1.6,0 
		1.6,0 1.6,0 1.6,0 1.6,0 1.6,0 1.6,0 1.6,0 1.6,0 1.6,0 1.6,0 1.6,0 1.6,0 1.6,0 1.6,0 1.6,0 1.6,0 1.6,0 1.6,0 1.5,0 1.5,0 1.5,0 
		1.5,0 1.5,0 1.5,0 1.5,0 1.5,0 1.5,0 1.5,0 1.5,0 1.5,0 1.5,0 1.5,0 1.5,0 1.5,0 1.5,0 1.5,0 1.5,0 1.4,0 1.4,0 1.4,0 1.4,0 1.4,0 
		1.4,0 1.4,0 1.4,0 1.4,0 1.4,0 1.4,0 1.4,0 1.4,0 1.4,0 1.4,0 1.4,0 1.3,0 1.3,0 1.3,0 1.3,0 1.3,0 1.3,0 1.3,0 1.3,0 1.3,0 1.3,0 
		1.3,0 1.3,0 1.3,0 1.3,0 1.3,0 1.3,0 1.2,0 1.2,0 1.2,0 1.2,0 1.2,0 1.2,0 1.2,0 1.2,0 1.2,0 1.2,0 1.2,0 1.2,0 1.2,0 1.2,0 1.1,0 
		1.1,0 1.1,0 1.1,0 1.1,0 1.1,0 1.1,0 1.1,0 1.1,0 1.1,0 1.1,0 1.1,0 1,0 1,0 1,0 1,0 1,0 1,0 1,0 1,0 1,0 1,0 1,0 1,0 0.9,0 0.9,0 
		0.9,0 0.9,0 0.9,0 0.9,0 0.9,0 0.8,0 0.8,0 0.8,0 0.8,0 0.8,0 0.8,0 0.7,0 0.7,0 0.7,0 0.7,0 0.7,0 0.7,0 0.7,0 0.7,0 0.7,0 0.6,0 
		0.6,0 0.6,0 0.6,0 0.6,0 0.5,0 0.5,0 0.5,0 0.5,0 0.4,0 0.4,0 0.4,0 0.4,0 0.4,0 0.4,0 0.4,0 0.4,0 0.3,0 0.3,0 0.3,0 0.3,0 0.3,0 
		0.2,0 0.2,0 0.1,0 0.1,0 0,0 0,180 0.1,180 0.1,180 0.2,180 0.2,180 0.3,180 0.3,180 0.3,180 0.3,180 0.3,180 0.4,180 0.4,180 
		0.4,180 0.4,180 0.4,180 0.4,180 0.4,180 0.4,180 0.5,180 0.5,180 0.5,180 0.5,180 0.6,180 0.6,180 0.6,180 0.6,180 0.6,180 
		0.7,180 0.7,180 0.7,180 0.7,180 0.7,180 0.7,180 0.7,180 0.7,180 0.7,180 0.8,180 0.8,180 0.8,180 0.8,180 0.8,180 0.8,180 
		0.9,180 0.9,180 0.9,180 0.9,180 0.9,180 0.9,180 0.9,180 1,180 1,180 1,180 1,180 1,180 1,180 1,180 1,180 1,180 1,180 1,180 
		1,180 1.1,180 1.1,180 1.1,180 1.1,180 1.1,180 1.1,180 1.1,180 1.1,180 1.1,180 1.1,180 1.1,180 1.1,180 1.2,180 1.2,180 1.2,180 
		1.2,180 1.2,180 1.2,180 1.2,180 1.2,180 1.2,180 1.2,180 1.2,180 1.2,180 1.2,180 1.2,180 1.3,180 1.3,180 1.3,180 1.3,180 
		1.3,180 1.3,180 1.3,180 1.3,180 1.3,180 1.3,180 1.3,180 1.3,180 1.3,180 1.3,180 1.3,180 1.3,180 1.4,180 1.4,180 1.4,180 
		1.4,180 1.4,180 1.4,180 1.4,180 1.4,180 1.4,180 1.4,180 1.4,180 1.4,180 1.4,180 1.4,180 1.4,180 1.4,180 1.5,180 1.5,180 
		1.5,180 1.5,180 1.5,180 1.5,180 1.5,180 1.5,180 1.5,180 1.5,180 1.5,180 1.5,180 1.5,180 1.5,180 1.5,180 1.5,180 1.5,180 
		1.5,180 1.5,180 1.6,180 1.6,180 1.6,180 1.6,180 1.6,180 1.6,180 1.6,180 1.6,180 1.6,180 1.6,180 1.6,180 1.6,180 1.6,180 
		1.6,180 1.6,180 1.6,180 1.6,180 1.6,180 1.6,180 1.6,180 1.7,180 1.7,180 1.7,180 1.7,180 1.7,180 1.7,180 1.7,180 1.7,180 
		1.7,180 1.7,180 1.7,180 1.7,180 1.7,180 1.7,180 1.7,180 1.7,180 1.7,180 1.8,180 1.8,180 1.8,180 1.8,180 1.8,180 1.8,180 
		1.8,180 1.8,180 1.8,180 1.8,180 1.8,180 1.8,180 1.8,180 1.8,180 1.8,180 1.8,180 1.9,180 1.9,180 1.9,180 1.9,180 1.9,180 
		1.9,180 1.9,180 1.9,180 1.9,180 1.9,180 1.9,180 1.9,180 1.9,180 1.9,180 1.9,180 1.9,180 1.9,180 1.9,180 1.9,180 1.9,180 2,180 
		2,180 2,180 2,180 2,180 2,180 2,180 2,180 2,180 2,180 2,180 2,180 2,180 2,180 2,180 2.1,180 2.1,180 2.1,180 2.1,180 2.1,180 
		2.1,180 2.1,180 2.1,180 2.1,180 2.1,180 2.1,180 2.1,180 2.1,180 2.1,180 2.1,180 2.1,180 2.1,180 2.1,180 2.2,180 2.2,180 
		2.2,180 2.2,180 2.2,180 2.2,180 2.2,180 2.2,180 2.2,180 2.2,180 2.2,180 2.2,180 2.2,180 2.2,180 2.2,180 2.2,180 2.2,180 
		2.2,180 2.2,180 2.3,180 2.3,180 2.3,180 2.3,180 2.3,180 2.3,180 2.3,180 2.3,180 2.3,180 2.3,180 2.3,180 2.3,180 2.3,180 
		2.3,180 2.3,180 2.3,180 2.4,180 2.4,180 2.4,180 2.4,180 2.4,180 2.4,180 2.4,180 2.4,180 2.4,180 2.4,180 2.4,180 2.4,180 
		2.4,180 2.4,180 2.4,180 2.4,180 2.4,180 2.4,180 2.4,180 2.4,180 2.5,180 2.5,180 2.5,180 2.5,180 2.5,180 2.5,180 2.5,180 
		2.5,180 2.5,180 2.5,180 2.5,180 2.5,180 2.5,180 2.5,180 2.5,180 2.5,180 2.5,180 2.5,180 2.5,180 2.6,180 2.6,180 2.6,180 
		2.6,180 2.6,180 2.6,180 2.6,180 2.6,180 2.6,180 2.6,180 2.6,180 2.6,180 2.6,180 2.6,180 2.7,180 2.7,180 2.7,180 2.7,180 
		2.7,180 2.7,180 2.7,180 2.7,180 2.7,180 2.7,180 2.7,180 2.7,180 2.7,180 2.7,180 2.7,180 2.7,180 2.7,180 2.8,180 2.8,180 
		2.8,180 2.8,180 2.8,180 2.8,180 2.8,180 2.8,180 2.8,180 2.8,180 2.8,180 2.8,180 2.8,180 2.8,180 2.9,180 2.9,180 2.9,180 
		2.9,180 2.9,180 2.9,180 2.9,180 2.9,180 2.9,180 2.9,180 2.9,180 3,180 3,180 3,180 3,180 3,180 3,180 3,180 3,180 3,180 3.1,180 
		3.1,180 3.1,180 3.1,180 3.1,180 3.1,180 3.1,180 3.1,180 3.1,180 3.2,180 3.2,180 3.2,180 3.2,180 3.2,180 3.2,180 3.2,180 
		3.3,180 3.3,180 3.3,180 3.3,180 3.3,180 3.3,180 3.4,180 3.4,180 3.4,180 3.4,180 3.4,180 3.4,180 3.4,180 3.5,180 3.5,180 
		3.5,180 3.5,180 3.5,180 3.6,180 3.6,180 3.6,180 3.6,180 3.6,180 3.7,180 3.7,180 3.7,180 3.7,180 3.7,180 3.7,180 3.8,180 
		3.8,180 3.9,180 115.1,180 115.1,0 	"/>
</g>
<g id="figure">
	<path d="M72.6,66.7l0.7-0.1c-0.9,5.2-2.5,9.8-4.8,13.6c-2.3,3.9-5.1,7-8.2,9.5c-3.1,2.5-6.1,4.3-9.1,5.4c-3,1.1-5.6,1.7-8,1.7
		c-2.8,0-5-0.6-6.3-1.8c-1.4-1.2-2.1-2.9-2.1-5c0-2.7,1-5.8,3.1-9.3c2-3.6,5-7.1,9-10.6c4-3.5,8.8-6.3,14.5-8.5
		c5.7-2.2,12-3.3,18.8-3.3c3.6,0,6.5,0.3,8.8,1c2.3,0.7,4.6,2,6.9,4c3-1.6,6-2.9,9-3.8l0.2,0.6c-3.2,1.1-6.1,2.4-8.6,3.8
		c2.8,3.5,4.3,7.2,4.3,11.3c0,3.1-0.8,5.9-2.3,8.6c-1.6,2.7-3.9,5.1-7,7.3c-3.1,2.2-7,4-11.6,5.4c0,2.8-0.4,5.1-1.2,6.8
		c-0.8,1.7-2.6,4.1-5.2,7c-3.9,4.4-5.8,7.6-5.8,9.8c0,1.2,0.5,1.7,1.6,1.7c1.3,0,3.7-1.4,7-4.2c3.3-2.8,7.6-6.7,12.8-11.8v1
		c-3.7,3.9-7.6,7.6-11.6,10.9c-4,3.3-6.8,5-8.3,5c-1.8,0-2.8-1.2-2.8-3.5c0-3,0.6-5.5,1.9-7.7c1.3-2.2,2.9-4.3,4.9-6.4
		c1.9-2,3.3-3.5,4.1-4.7c0.8-1.1,1.3-2.3,1.6-3.5c-1.2,0.2-2.5,0.3-3.9,0.3c-1.2,0-2.1-0.3-2.7-0.8c-0.7-0.5-1-1.2-1-2
		c0-0.9,0.3-1.7,1-2.3c0.7-0.6,1.5-0.9,2.6-0.9c2.2,0,3.9,1.4,4.9,4.2c4.3-1.5,7.8-3.8,10.6-6.9c2.8-3.1,4.7-6.3,5.9-9.5
		c1.2-3.3,1.8-5.9,1.8-8c0-2.5-0.8-4.7-2.4-6.5c-3,1.9-5.7,3.8-8.1,5.9c-2.4,2-4.7,4.5-7.1,7.4c-2.3,2.9-5.2,6.9-8.6,11.9L70.7,91
		c-1.7,2.5-3.1,4.5-4,5.9c-1,1.4-1.9,2.6-2.8,3.7c-0.9,1.1-2,2.3-3.3,3.7c-11.8,12.2-24.6,18.2-38.4,18.2c-4,0-7-0.6-9.1-1.8
		c-2.1-1.2-3.1-2.9-3.1-5.2c0-1.2,0.3-2.2,1-3c0.6-0.9,1.5-1.3,2.5-1.3c1.5,0,2.3,0.6,2.3,1.9c0,0.5-0.2,0.9-0.6,1.3
		c-0.4,0.4-0.9,0.6-1.3,0.6c-1.1,0-1.7-0.7-1.8-2.2c-0.3,0-0.5,0.3-0.8,1c-0.3,0.6-0.4,1.3-0.4,2c0,1.9,1,3.4,2.9,4.5
		c2,1.1,4.7,1.6,8.2,1.6c4.7,0,9-0.7,12.8-2.2c3.8-1.5,7.4-3.5,10.6-6c3.2-2.5,6.1-5.2,8.7-8.2c2.6-2.9,6-6.9,10.1-11.9l1.6-2
		c4.9-6,9.4-11.1,13.5-15.5c4.1-4.4,9.3-8.5,15.6-12.3c-1.7-1.7-3.7-2.9-5.9-3.6c-2.2-0.7-5.2-1.1-9-1.1c-6.6,0-12.7,1.1-18.3,3.3
		c-5.6,2.2-10.3,4.9-14.1,8.2c-3.8,3.3-6.7,6.7-8.8,10.2c-2.1,3.5-3.1,6.5-3.1,8.9c0,1.9,0.6,3.4,1.9,4.5c1.3,1.2,3,1.7,5.1,1.7
		c2.7,0,5.6-0.7,8.7-2c3.1-1.3,6-3.3,9-5.8s5.5-5.7,7.7-9.4C70.2,75,71.7,71,72.6,66.7z M78.8,95.6c-0.6-2.4-2-3.6-4-3.6
		c-0.8,0-1.5,0.2-2,0.6c-0.5,0.4-0.8,1-0.8,1.7c0,0.8,0.3,1.3,1,1.5c0.7,0.2,1.5,0.4,2.7,0.4C76.6,96.2,77.6,96,78.8,95.6z"/>
</g>
</svg>
