<?xml version="1.0" encoding="utf-8"?>
<!-- Generator: Adobe Illustrator 22.1.0, SVG Export Plug-In . SVG Version: 6.00 Build 0)  -->
<svg version="1.1" xmlns="http://www.w3.org/2000/svg" xmlns:xlink="http://www.w3.org/1999/xlink" x="0px" y="0px"
	 viewBox="0 0 123.5 180" style="enable-background:new 0 0 123.5 180;" xml:space="preserve">
<style type="text/css">
	.st0{display:none;}
	.st1{display:inline;fill:#FF0000;}
</style>
<g id="bg" class="st0">
	<polyline class="st1" points="123.5,0 0,0 0,0 0,0 0,0 0,0 0,0 0,0 0,0 0,0 0,0 0,0 0,0 0,0 0,0 0,0 0,0 0,0 0,0 0,0 0,0 0,0 0,0 
		0,0 0,0 0,0 0,0 0,0 0,0 0,0 0,0 0,0 0,0 0,0 0,0 0,0 0,0 0,0 0,0 0,0 0,0 0,0 0,0 0,0 0,0 0,0 0,0 0,0 0,0 0,0 0,0 0,0 0,0 0,0 
		0,0 0,0 0,0 0,0 0,0 0,0 0,0 0,0 0,0 0,0 0,0 0,0 0,0 0,0 0,0 0,0 0,0 0,0 0,0 0,0 0,0 0,0 0,0 0,0 0,0 0,0 0,0 0,0 0,0 0,0 0,0 
		0,0 0,0 0,0 0,0 0,0 0,0 0,0 0,0 0,0 0,0 0,0 0,0 0,0 0,0 0,0 0,0 0,0 0,0 0,0 0,0 0,0 0,0 0,0 0,0 0,0 0,0 0,0 0,0 0,0 0,0 0,0 
		0,0 0,0 0,0 0,0 0,0 0,0 0,0 0,0 0,0 0,0 0,0 0,0 0,0 0,0 0,0 0,0 0,0 0,0 0,0 0,0 0,0 0,0 0,0 0,0 0,0 0,0 0,0 0,0 0,0 0,0 0,0 
		0,0 0,0 0,0 0,0 0,0 0,0 0,0 0,0 0,0 0,0 0,0 0,0 0,0 0,0 0,0 0,0 0,0 0,0 0,0 0,0 0,0 0,0 0,0 0,0 0,0 0,0 0,0 0,0 0,0 0,0 0,0 
		0,0 0,0 0,0 0,0 0,0 0,0 0,0 0,0 0,0 0,0 0,0 0,0 0,0 0,0 0,0 0,0 0,0 0,0 0,0 0,0 0,0 0,0 0,0 0,0 0,0 0,0 0,0 0,0 0,0 0,0 0,0 
		0,0 0,0 0,0 0,0 0,0 0,0 0,0 0,0 0,0 0,0 0,0 0,0 0,0 0,0 0,0 0,0 0,0 0,0 0,0 0,0 0,0 0,0 0,0 0,0 0,0 0,0 0,0 0,0 0,0 0,0 0,0 
		0,0 0,0 0,0 0,0 0,0 0,0 0,0 0,0 0,0 0,0 0,0 0,0 0,0 0,0 0,0 0,0 0,0 0,0 0,0 0,0 0,0 0,0 0,0 0,0 0,0 0,0 0,0 0,0 0,0 0,0 0,0 
		0,0 0,0 0,0 0,0 0,0 0,0 0,0 0,0 0,0 0,0 0,0 0,0 0,0 0,0 0,0 0,0 0,0 0,0 0,0 0,0 0,0 0,0 0,0 0,0 0,0 0,0 0,0 0,0 0,0 0,0 0,0 
		0,0 0,0 0,0 0,0 0,0 0,0 0,0 0,0 0,0 0,0 0,0 0,0 0,0 0,0 0,0 0,0 0,0 0,0 0,0 0,0 0,0 0,0 0,0 0,0 0,0 0,0 0,0 0,0 0,0 0,0 0,0 
		0,0 0,0 0,0 0,0 0,0 0,0 0,0 0,0 0,0 0,0 0,0 0,0 0,0 0,0 0,0 0,0 0,0 0,0 0,0 0,0 0,0 0,0 0,0 0,0 0,0 0,0 0,0 0,0 0,0 0,0 0,0 
		0,0 0,0 0,0 0,0 0,0 0,0 0,0 0,0 0,0 0,0 0,0 0,0 0,0 0,0 0,0 0,0 0,0 0,0 0,0 0,0 0,0 0,0 0,0 0,0 0,0 0,0 0,0 0,0 0,0 0,0 0,0 
		0,0 0,0 0,0 0,0 0,0 0,0 0,0 0,0 0,0 0,0 0,0 0,0 0,0 0,0 0,0 0,0 0,0 0,0 0,0 0,0 0,0 0,0 0,0 0,0 0,0 0,0 0,0 0,0 0,0 0,0 0,0 
		0,0 0,0 0,0 0,0 0,0 0,0 0,180 0,180 0,180 0,180 0,180 0,180 0,180 0,180 0,180 0,180 0,180 0,180 0,180 0,180 0,180 0,180 0,180 
		0,180 0,180 0,180 0,180 0,180 0,180 0,180 0,180 0,180 0,180 0,180 0,180 0,180 0,180 0,180 0,180 0,180 0,180 0,180 0,180 0,180 
		0,180 0,180 0,180 0,180 0,180 0,180 0,180 0,180 0,180 0,180 0,180 0,180 0,180 0,180 0,180 0,180 0,180 0,180 0,180 0,180 0,180 
		0,180 0,180 0,180 0,180 0,180 0,180 0,180 0,180 0,180 0,180 0,180 0,180 0,180 0,180 0,180 0,180 0,180 0,180 0,180 0,180 0,180 
		0,180 0,180 0,180 0,180 0,180 0,180 0,180 0,180 0,180 0,180 0,180 0,180 0,180 0,180 0,180 0,180 0,180 0,180 0,180 0,180 0,180 
		0,180 0,180 0,180 0,180 0,180 0,180 0,180 0,180 0,180 0,180 0,180 0,180 0,180 0,180 0,180 0,180 0,180 0,180 0,180 0,180 0,180 
		0,180 0,180 0,180 0,180 0,180 0,180 0,180 0,180 0,180 0,180 0,180 0,180 0,180 0,180 0,180 0,180 0,180 0,180 0,180 0,180 0,180 
		0,180 0,180 0,180 0,180 0,180 0,180 0,180 0,180 0,180 0,180 0,180 0,180 0,180 0,180 0,180 0,180 0,180 0,180 0,180 0,180 0,180 
		0,180 0,180 0,180 0,180 0,180 0,180 0,180 0,180 0,180 0,180 0,180 0,180 0,180 0,180 0,180 0,180 0,180 0,180 0,180 0,180 0,180 
		0,180 0,180 0,180 0,180 0,180 0,180 0,180 0,180 0,180 0,180 0,180 0,180 0,180 0,180 0,180 0,180 0,180 0,180 0,180 0,180 0,180 
		0,180 0,180 0,180 0,180 0,180 0,180 0,180 0,180 0,180 0,180 0,180 0,180 0,180 0,180 0,180 0,180 0,180 0,180 0,180 0,180 0,180 
		0,180 0,180 0,180 0,180 0,180 0,180 0,180 0,180 0,180 0,180 0,180 0,180 0,180 0,180 0,180 0,180 0,180 0,180 0,180 0,180 0,180 
		0,180 0,180 0,180 0,180 0,180 0,180 0,180 0,180 0,180 0,180 0,180 0,180 0,180 0,180 0,180 0,180 0,180 0,180 0,180 0,180 0,180 
		0,180 0,180 0,180 0,180 0,180 0,180 0,180 0,180 0,180 0,180 0,180 0,180 0,180 0,180 0,180 0,180 0,180 0,180 0,180 0,180 0,180 
		0,180 0,180 0,180 0,180 0,180 0,180 0,180 0,180 0,180 0,180 0,180 0,180 0,180 0,180 0,180 0,180 0,180 0,180 0,180 0,180 0,180 
		0,180 0,180 0,180 0,180 0,180 0,180 0,180 0,180 0,180 0,180 0,180 0,180 0,180 0,180 0,180 0,180 0,180 0,180 0,180 0,180 0,180 
		0,180 0,180 0,180 0,180 0,180 0,180 0,180 0,180 0,180 0,180 0,180 0,180 0,180 0,180 0,180 0,180 0,180 0,180 0,180 0,180 0,180 
		0,180 0,180 0,180 0,180 0,180 0,180 0,180 0,180 0,180 0,180 0,180 0,180 0,180 0,180 0,180 0,180 0,180 0,180 0,180 0,180 0,180 
		0,180 0,180 0,180 0,180 0,180 0,180 0,180 0,180 0,180 0,180 0,180 0,180 0,180 0,180 0,180 0,180 0,180 0,180 0,180 0,180 0,180 
		0,180 0,180 0,180 0,180 0,180 0,180 0,180 0,180 0,180 0,180 0,180 0,180 0,180 0,180 0,180 0,180 0,180 0,180 0,180 0,180 0,180 
		0,180 0,180 0,180 0,180 0,180 0,180 0,180 0,180 0,180 0,180 0,180 0,180 0,180 0,180 0,180 123.5,180 	"/>
</g>
<g id="figure">
	<g>
		<path d="M68.2,91.7l-1.1,2.2c-10.7,20.4-25.5,30.7-44.2,30.7c-4,0-7.1-0.6-9.4-1.9c-2.3-1.3-3.4-3-3.4-5.1c0-0.9,0.2-1.8,0.7-2.5
			c0.5-0.7,1.2-1.1,2.2-1.1c0.7,0,1.3,0.2,1.7,0.7c0.4,0.4,0.6,1,0.6,1.6c0,0.4-0.2,0.8-0.5,1.2c-0.4,0.4-0.8,0.6-1.3,0.6
			c-0.6,0-1,0-1.2-0.1c-0.2-0.1-0.5-0.4-0.9-1c-0.2,0.1-0.2,0.6-0.2,1.3c0,0.8,0.3,1.6,1,2.4c0.7,0.9,1.9,1.6,3.8,2.2
			c1.9,0.6,4.5,1,7.7,1c6.6,0,12.6-1.7,17.8-5.2c5.2-3.5,9.5-7.3,12.7-11.6c3.2-4.2,6.1-8.8,8.6-13.5c-4.9,1.4-9,2.1-12.5,2.1
			c-4.8,0-8.7-1.2-11.8-3.5c-3.1-2.3-4.7-5.2-4.7-8.7c0-3.8,1.7-7.6,5.1-11.3c3.4-3.7,8.1-6.7,14.2-9.1c6-2.4,12.6-3.5,19.8-3.5v0.7
			c-7.5,0-14.1,1.3-20,3.7c-5.8,2.4-10.2,5.4-13.3,8.9c-3,3.5-4.5,6.9-4.5,10.1c0,3.6,1.4,6.4,4.2,8.6c2.8,2.2,6.4,3.3,10.8,3.3
			c4.3,0,8.8-0.8,13.4-2.4c0.4-0.5,1.1-1.4,2-2.9c3.1-4.9,6.3-9.2,9.5-12.9c3.2-3.8,6.3-6.8,9.1-9.2c2.8-2.4,5.6-4.2,8.1-5.4
			c2.6-1.2,4.9-1.8,6.9-1.8c2.1,0,3.1,0.8,3.1,2.4c0,2.5-1.7,5.7-5.1,9.6c-3.4,3.9-7.8,7.6-13,11.2C78.8,87,73.5,89.7,68.2,91.7z
			 M68.6,90.7c4-2.5,7.9-5.1,11.8-8c3.9-2.9,7.4-5.7,10.7-8.5c3.2-2.8,5.8-5.2,7.6-7.2s2.7-3.4,2.7-4.3c0-1.2-0.7-1.7-2.2-1.7
			c-3.1,0-6.5,1.3-10.2,3.8c-3.7,2.5-7.2,5.8-10.4,9.8c-1.7,2.1-3.3,4.3-4.9,6.9C72.1,83.9,70.4,87,68.6,90.7z"/>
		<path d="M84.4,95.7l9.8-8.4c2.4-2.1,5-4.5,7.7-7.4c2.7-2.9,5-5.5,6.9-7.9h4.7l-43.8,49H65l29-32.5c-1.2,1.1-2.5,2.2-3.8,3.3
			c-1.3,1.1-2.5,2.1-3.4,2.9c-1,0.8-2.2,1.9-3.8,3.3c-3.7,3.1-5.9,5.1-6.7,5.8c-0.8,0.7-2.7,2.3-5.6,4.7l-1.8,1.5v-0.9l6-5.2
			C74.7,104,77.9,101.2,84.4,95.7z M107.2,107.7v1l-2.8,2.4c-4.5,3.9-8,6.6-10.5,8.1c-2.5,1.5-4.8,2.3-6.9,2.3c-1.8,0-2.6-1-2.6-3
			c0-1.9,0.9-3.9,2.6-6.1c0.8-0.9,1.2-1.7,1.2-2.4c0-0.4-0.2-0.7-0.7-0.7c-0.1,0-0.4,0-1,0.1c-0.5,0.1-0.9,0.1-1,0.1
			c-1.6,0-2.4-0.3-2.4-0.9c0-0.5,0.5-0.7,1.5-0.7c0.6,0,1.7,0.2,3.3,0.7c1.6-0.7,3.5-1.9,5.5-3.6c1.8-1.5,3.3-2.5,4.5-3.1
			c1.2-0.5,2.5-0.8,3.8-0.8c2.1,0,3.1,0.6,3.1,1.8c0,0.9-0.4,1.3-1.3,1.3c-1,0-1.5-0.4-1.5-1.3l0.2-1c0-0.1-0.1-0.2-0.3-0.2
			c-1.9,0-4,1.1-6.5,3.3c-1.4,1.3-3.7,2.7-6.8,4c0.8,1.1,1.2,2.3,1.2,3.4c0,1.7-0.7,3.3-2.2,4.7c-1.2,1.3-1.7,2.2-1.7,2.5
			c0,0.6,0.4,1,1.2,1c1.8,0,4.3-1,7.3-3C97.6,115.8,101.8,112.5,107.2,107.7z"/>
	</g>
</g>
</svg>
