<?xml version="1.0" encoding="utf-8"?>
<!-- Generator: Adobe Illustrator 22.1.0, SVG Export Plug-In . SVG Version: 6.00 Build 0)  -->
<svg version="1.1" xmlns="http://www.w3.org/2000/svg" xmlns:xlink="http://www.w3.org/1999/xlink" x="0px" y="0px"
	 viewBox="0 0 90 180" style="enable-background:new 0 0 90 180;" xml:space="preserve">
<style type="text/css">
	.st0{display:none;}
	.st1{display:inline;fill:#FF0000;}
</style>
<g id="bg" class="st0">
	<polyline class="st1" points="90,0 0,0 0,0 0,0 0,0 0,0 0,0 0,0 0,0 0,0 0,0 0,0 0,0 0,0 0,0 0,0 0,0 0,0 0,0 0,0 0,0 0,0 0,0 0,0 
		0,0 0,0 0,0 0,0 0,0 0,0 0,0 0,0 0,0 0,0 0,0 0,0 0,0 0,0 0,0 0,0 0,0 0,0 0,0 0,0 0,0 0,0 0,0 0,0 0,0 0,0 0,0 0,0 0,0 0,0 0,0 
		0,0 0,0 0,0 0,0 0,0 0,0 0,0 0,0 0,0 0,0 0,0 0,0 0,0 0,0 0,0 0,0 0,0 0,0 0,0 0,0 0,0 0,0 0,0 0,0 0,0 0,0 0,0 0,0 0,0 0,0 0,0 
		0,0 0,0 0,0 0,0 0,0 0,0 0,0 0,0 0,0 0,0 0,0 0,0 0,0 0,0 0,0 0,0 0,0 0,0 0,0 0,0 0,0 0,0 0,0 0,0 0,0 0,0 0,0 0,0 0,0 0,0 0,0 
		0,0 0,0 0,0 0,0 0,0 0,0 0,0 0,0 0,0 0,0 0,0 0,0 0,0 0,0 0,0 0,0 0,0 0,0 0,0 0,0 0,0 0,0 0,0 0,0 0,0 0,0 0,0 0,0 0,0 0,0 0,0 
		0,0 0,0 0,0 0,0 0,0 0,0 0,0 0,0 0,0 0,0 0,0 0,0 0,0 0,0 0,0 0,0 0,0 0,0 0,0 0,0 0,0 0,0 0,0 0,0 0,0 0,0 0,0 0,0 0,0 0,0 0,0 
		0,0 0,0 0,0 0,0 0,0 0,0 0,0 0,0 0,0 0,0 0,0 0,0 0,0 0,0 0,0 0,0 0,0 0,0 0,0 0,0 0,0 0,0 0,0 0,0 0,0 0,0 0,0 0,0 0,0 0,0 0,0 
		0,0 0,0 0,0 0,0 0,0 0,0 0,0 0,0 0,0 0,0 0,0 0,0 0,0 0,0 0,0 0,0 0,0 0,0 0,0 0,0 0,0 0,0 0,0 0,0 0,0 0,0 0,0 0,0 0,0 0,0 0,0 
		0,0 0,0 0,0 0,0 0,0 0,0 0,0 0,0 0,0 0,0 0,0 0,0 0,0 0,0 0,0 0,0 0,0 0,0 0,0 0,0 0,0 0,0 0,0 0,0 0,0 0,0 0,0 0,0 0,0 0,0 0,0 
		0,0 0,0 0,0 0,0 0,0 0,0 0,0 0,0 0,0 0,0 0,0 0,0 0,0 0,0 0,0 0,0 0,0 0,0 0,0 0,0 0,0 0,0 0,0 0,0 0,0 0,0 0,0 0,0 0,0 0,0 0,0 
		0,0 0,0 0,0 0,0 0,0 0,0 0,0 0,0 0,0 0,0 0,0 0,0 0,0 0,0 0,0 0,0 0,0 0,0 0,0 0,0 0,0 0,0 0,0 0,0 0,0 0,0 0,0 0,0 0,0 0,0 0,0 
		0,0 0,0 0,0 0,0 0,0 0,0 0,0 0,0 0,0 0,0 0,0 0,0 0,0 0,0 0,0 0,0 0,0 0,0 0,0 0,0 0,0 0,0 0,0 0,0 0,0 0,0 0,0 0,0 0,0 0,0 0,0 
		0,0 0,0 0,0 0,0 0,0 0,0 0,0 0,0 0,0 0,0 0,0 0,0 0,0 0,0 0,0 0,0 0,0 0,0 0,0 0,0 0,0 0,0 0,0 0,0 0,0 0,0 0,0 0,0 0,0 0,0 0,0 
		0,0 0,0 0,0 0,0 0,0 0,0 0,0 0,0 0,0 0,0 0,0 0,0 0,0 0,0 0,0 0,0 0,0 0,0 0,0 0,0 0,0 0,0 0,0 0,0 0,0 0,0 0,0 0,0 0,0 0,0 0,0 
		0,0 0,0 0,0 0,0 0,0 0,180 0,180 0,180 0,180 0,180 0,180 0,180 0,180 0,180 0,180 0,180 0,180 0,180 0,180 0,180 0,180 0,180 
		0,180 0,180 0,180 0,180 0,180 0,180 0,180 0,180 0,180 0,180 0,180 0,180 0,180 0,180 0,180 0,180 0,180 0,180 0,180 0,180 0,180 
		0,180 0,180 0,180 0,180 0,180 0,180 0,180 0,180 0,180 0,180 0,180 0,180 0,180 0,180 0,180 0,180 0,180 0,180 0,180 0,180 0,180 
		0,180 0,180 0,180 0,180 0,180 0,180 0,180 0,180 0,180 0,180 0,180 0,180 0,180 0,180 0,180 0,180 0,180 0,180 0,180 0,180 0,180 
		0,180 0,180 0,180 0,180 0,180 0,180 0,180 0,180 0,180 0,180 0,180 0,180 0,180 0,180 0,180 0,180 0,180 0,180 0,180 0,180 0,180 
		0,180 0,180 0,180 0,180 0,180 0,180 0,180 0,180 0,180 0,180 0,180 0,180 0,180 0,180 0,180 0,180 0,180 0,180 0,180 0,180 0,180 
		0,180 0,180 0,180 0,180 0,180 0,180 0,180 0,180 0,180 0,180 0,180 0,180 0,180 0,180 0,180 0,180 0,180 0,180 0,180 0,180 0,180 
		0,180 0,180 0,180 0,180 0,180 0,180 0,180 0,180 0,180 0,180 0,180 0,180 0,180 0,180 0,180 0,180 0,180 0,180 0,180 0,180 0,180 
		0,180 0,180 0,180 0,180 0,180 0,180 0,180 0,180 0,180 0,180 0,180 0,180 0,180 0,180 0,180 0,180 0,180 0,180 0,180 0,180 0,180 
		0,180 0,180 0,180 0,180 0,180 0,180 0,180 0,180 0,180 0,180 0,180 0,180 0,180 0,180 0,180 0,180 0,180 0,180 0,180 0,180 0,180 
		0,180 0,180 0,180 0,180 0,180 0,180 0,180 0,180 0,180 0,180 0,180 0,180 0,180 0,180 0,180 0,180 0,180 0,180 0,180 0,180 0,180 
		0,180 0,180 0,180 0,180 0,180 0,180 0,180 0,180 0,180 0,180 0,180 0,180 0,180 0,180 0,180 0,180 0,180 0,180 0,180 0,180 0,180 
		0,180 0,180 0,180 0,180 0,180 0,180 0,180 0,180 0,180 0,180 0,180 0,180 0,180 0,180 0,180 0,180 0,180 0,180 0,180 0,180 0,180 
		0,180 0,180 0,180 0,180 0,180 0,180 0,180 0,180 0,180 0,180 0,180 0,180 0,180 0,180 0,180 0,180 0,180 0,180 0,180 0,180 0,180 
		0,180 0,180 0,180 0,180 0,180 0,180 0,180 0,180 0,180 0,180 0,180 0,180 0,180 0,180 0,180 0,180 0,180 0,180 0,180 0,180 0,180 
		0,180 0,180 0,180 0,180 0,180 0,180 0,180 0,180 0,180 0,180 0,180 0,180 0,180 0,180 0,180 0,180 0,180 0,180 0,180 0,180 0,180 
		0,180 0,180 0,180 0,180 0,180 0,180 0,180 0,180 0,180 0,180 0,180 0,180 0,180 0,180 0,180 0,180 0,180 0,180 0,180 0,180 0,180 
		0,180 0,180 0,180 0,180 0,180 0,180 0,180 0,180 0,180 0,180 0,180 0,180 0,180 0,180 0,180 0,180 0,180 0,180 0,180 0,180 0,180 
		0,180 0,180 0,180 0,180 0,180 0,180 0,180 0,180 0,180 0,180 0,180 0,180 0,180 0,180 0,180 0,180 0,180 0,180 0,180 0,180 0,180 
		0,180 0,180 0,180 0,180 0,180 0,180 0,180 0,180 0,180 0,180 0,180 0,180 0,180 0,180 0,180 0,180 0,180 0,180 0,180 0,180 0,180 
		0,180 0,180 0,180 0,180 0,180 0,180 0,180 0,180 0,180 0,180 0,180 0,180 0,180 0,180 0,180 90,180 	"/>
</g>
<g id="figure">
	<g>
		<path d="M59.9,120.8c-0.7,0-0.9-0.4-0.7-1.3c0.3-0.9,0.9-1.9,1.8-2.9l13.3-14.8h-5.1c-3.8,2.3-5.5,3.5-8.4,6.1l0,0
			c-1.9,1.9-3.5,3.1-4.6,3.5c-1.1,0.4-2.3,0.4-3.7,0.1c0.2-0.9,0.3-1.9,0.4-3.2c-0.1-2.1-0.4-3.8-1-5.1c-0.5-1.3-1.4-2.9-2.6-4.7
			c2.1-1,3.1-1.9,3.1-2.6c0-0.3-0.1-0.6-0.4-0.8c-0.2-0.2-0.5-0.3-0.8-0.3c-0.3,0-0.9,0.5-1.6,1.4C49,97,48.2,98,47.3,99l-7.7,8.7
			l0,0v0c-1.9,1.9-3.5,3.1-4.6,3.5c-1.1,0.4-2.3,0.4-3.7,0.1c0.2-0.9,0.3-1.9,0.4-3.2c-0.1-2.1-0.4-3.8-1-5.1
			c-0.5-1.3-1.4-2.9-2.6-4.7c2.1-1,3.1-1.9,3.1-2.6c0-0.3-0.1-0.6-0.4-0.8c-0.2-0.2-0.5-0.3-0.8-0.3c-0.3,0-0.9,0.5-1.6,1.4
			C27.8,97,27,98,26.1,99l-11.7,10.1v0.9l12.9-11c1.1,1.8,1.6,3.6,1.6,5.3c0,2.4-0.7,4.9-2.2,7.5c-1.5,2.6-3.3,4.7-5.5,6.4
			c-2.2,1.7-4.3,2.6-6.3,2.6c-1,0-1.9-0.2-2.7-0.7c-0.8-0.5-1.2-0.9-1.2-1.3c0-0.7,0.2-1.2,0.7-1.5c0.3,1.2,0.9,1.7,1.6,1.7
			c0.5,0,1-0.2,1.5-0.6c0.5-0.4,0.7-0.8,0.7-1.3c0-0.6-0.2-1.1-0.6-1.4c-0.4-0.4-1-0.5-1.7-0.5c-1,0-1.8,0.3-2.4,0.9
			c-0.5,0.6-0.8,1.3-0.8,2.3c0,1,0.5,1.9,1.4,2.4c0.9,0.6,2.1,0.9,3.6,0.9c1.5,0,3.4-0.3,5.5-1c2.1-0.7,4.2-1.8,6.2-3.2
			c2-1.4,3.5-3.2,4.4-5.2c1.7,0.5,3.2,0.5,4.4,0.1c1.3-0.4,2.7-1.4,4.2-3.3l0,0l8.8-9.9c1.1,1.8,1.6,3.6,1.6,5.3
			c0,2.4-0.7,4.9-2.2,7.5c-1.5,2.6-3.3,4.7-5.5,6.4c-2.2,1.7-4.3,2.6-6.3,2.6c-1,0-1.9-0.2-2.7-0.7c-0.8-0.5-1.2-0.9-1.2-1.3
			c0-0.7,0.2-1.2,0.7-1.5c0.3,1.2,0.9,1.7,1.6,1.7c0.5,0,1-0.2,1.5-0.6c0.5-0.4,0.7-0.8,0.7-1.3c0-0.6-0.2-1.1-0.6-1.4
			c-0.4-0.4-1-0.5-1.7-0.5c-1,0-1.8,0.3-2.4,0.9c-0.5,0.6-0.8,1.3-0.8,2.3c0,1,0.5,1.9,1.4,2.4c0.9,0.6,2.1,0.9,3.6,0.9
			c1.5,0,3.4-0.3,5.5-1c2.1-0.7,4.2-1.8,6.2-3.2c2-1.4,3.5-3.2,4.4-5.2c1.7,0.5,3.2,0.5,4.4,0.1c1.3-0.4,2.7-1.6,4.2-3.5l0,0
			c2.9-2.7,4.6-3.9,7.9-5.9c-0.3,0.3-0.5,0.6-0.8,0.9c-0.3,0.3-0.6,0.6-0.9,1c-6.1,6.1-9.1,11-9.1,14.9c0,1.3,0.6,2,1.9,2
			c2.1,0,4.9-1.3,8.3-3.8c3.4-2.5,6.9-5.5,10.5-9v-1c-3.1,3.1-6.6,6-10.3,8.8S61.8,120.8,59.9,120.8z"/>
		<path d="M78.8,89.8c-0.6,0-1,0.2-1.5,0.7c-0.4,0.5-0.6,1-0.6,1.5c0,0.9,0.5,1.3,1.5,1.3c0.5,0,1-0.2,1.3-0.6s0.5-0.9,0.5-1.5
			C80,90.3,79.6,89.8,78.8,89.8z"/>
	</g>
</g>
</svg>
