<?xml version="1.0" encoding="utf-8"?>
<!-- Generator: Adobe Illustrator 22.1.0, SVG Export Plug-In . SVG Version: 6.00 Build 0)  -->
<svg version="1.1" xmlns="http://www.w3.org/2000/svg" xmlns:xlink="http://www.w3.org/1999/xlink" x="0px" y="0px"
	 viewBox="0 0 123.7 180" style="enable-background:new 0 0 123.7 180;" xml:space="preserve">
<style type="text/css">
	.st0{display:none;}
	.st1{display:inline;fill:#FF0000;}
</style>
<g id="bg" class="st0">
	<polyline class="st1" points="123.7,0 0,0 0,0 0,0 0,0 0,0 0,0 0,0 0,0 0,0 0,0 0,0 0,0 0,0 0,0 0,0 0,0 0,0 0,0 0,0 0,0 0,0 0,0 
		0,0 0,0 0,0 0,0 0,0 0,0 0,0 0,0 0,0 0,0 0,0 0,0 0,0 0,0 0,0 0,0 0,0 0,0 0,0 0,0 0,0 0,0 0,0 0,0 0,0 0,0 0,0 0,0 0,0 0,0 0,0 
		0,0 0,0 0,0 0,0 0,0 0,0 0,0 0,0 0,0 0,0 0,0 0,0 0,0 0,0 0,0 0,0 0,0 0,0 0,0 0,0 0,0 0,0 0,0 0,0 0,0 0,0 0,0 0,0 0,0 0,0 0,0 
		0,0 0,0 0,0 0,0 0,0 0,0 0,0 0,0 0,0 0,0 0,0 0,0 0,0 0,0 0,0 0,0 0,0 0,0 0,0 0,0 0,0 0,0 0,0 0,0 0,0 0,0 0,0 0,0 0,0 0,0 0,0 
		0,0 0,0 0,0 0,0 0,0 0,0 0,0 0,0 0,0 0,0 0,0 0,0 0,0 0,0 0,0 0,0 0,0 0,0 0,0 0,0 0,0 0,0 0,0 0,0 0,0 0,0 0,0 0,0 0,0 0,0 0,0 
		0,0 0,0 0,0 0,0 0,0 0,0 0,0 0,0 0,0 0,0 0,0 0,0 0,0 0,0 0,0 0,0 0,0 0,0 0,0 0,0 0,0 0,0 0,0 0,0 0,0 0,0 0,0 0,0 0,0 0,0 0,0 
		0,0 0,0 0,0 0,0 0,0 0,0 0,0 0,0 0,0 0,0 0,0 0,0 0,0 0,0 0,0 0,0 0,0 0,0 0,0 0,0 0,0 0,0 0,0 0,0 0,0 0,0 0,0 0,0 0,0 0,0 0,0 
		0,0 0,0 0,0 0,0 0,0 0,0 0,0 0,0 0,0 0,0 0,0 0,0 0,0 0,0 0,0 0,0 0,0 0,0 0,0 0,0 0,0 0,0 0,0 0,0 0,0 0,0 0,0 0,0 0,0 0,0 0,0 
		0,0 0,0 0,0 0,0 0,0 0,0 0,0 0,0 0,0 0,0 0,0 0,0 0,0 0,0 0,0 0,0 0,0 0,0 0,0 0,0 0,0 0,0 0,0 0,0 0,0 0,0 0,0 0,0 0,0 0,0 0,0 
		0,0 0,0 0,0 0,0 0,0 0,0 0,0 0,0 0,0 0,0 0,0 0,0 0,0 0,0 0,0 0,0 0,0 0,0 0,0 0,0 0,0 0,0 0,0 0,0 0,0 0,0 0,0 0,0 0,0 0,0 0,0 
		0,0 0,0 0,0 0,0 0,0 0,0 0,0 0,0 0,0 0,0 0,0 0,0 0,0 0,0 0,0 0,0 0,0 0,0 0,0 0,0 0,0 0,0 0,0 0,0 0,0 0,0 0,0 0,0 0,0 0,0 0,0 
		0,0 0,0 0,0 0,0 0,0 0,0 0,0 0,0 0,0 0,0 0,0 0,0 0,0 0,0 0,0 0,0 0,0 0,0 0,0 0,0 0,0 0,0 0,0 0,0 0,0 0,0 0,0 0,0 0,0 0,0 0,0 
		0,0 0,0 0,0 0,0 0,0 0,0 0,0 0,0 0,0 0,0 0,0 0,0 0,0 0,0 0,0 0,0 0,0 0,0 0,0 0,0 0,0 0,0 0,0 0,0 0,0 0,0 0,0 0,0 0,0 0,0 0,0 
		0,0 0,0 0,0 0,0 0,0 0,0 0,0 0,0 0,0 0,0 0,0 0,0 0,0 0,0 0,0 0,0 0,0 0,0 0,0 0,0 0,0 0,0 0,0 0,0 0,0 0,0 0,0 0,0 0,0 0,0 0,0 
		0,0 0,0 0,0 0,0 0,0 0,0 0,180 0,180 0,180 0,180 0,180 0,180 0,180 0,180 0,180 0,180 0,180 0,180 0,180 0,180 0,180 0,180 0,180 
		0,180 0,180 0,180 0,180 0,180 0,180 0,180 0,180 0,180 0,180 0,180 0,180 0,180 0,180 0,180 0,180 0,180 0,180 0,180 0,180 0,180 
		0,180 0,180 0,180 0,180 0,180 0,180 0,180 0,180 0,180 0,180 0,180 0,180 0,180 0,180 0,180 0,180 0,180 0,180 0,180 0,180 0,180 
		0,180 0,180 0,180 0,180 0,180 0,180 0,180 0,180 0,180 0,180 0,180 0,180 0,180 0,180 0,180 0,180 0,180 0,180 0,180 0,180 0,180 
		0,180 0,180 0,180 0,180 0,180 0,180 0,180 0,180 0,180 0,180 0,180 0,180 0,180 0,180 0,180 0,180 0,180 0,180 0,180 0,180 0,180 
		0,180 0,180 0,180 0,180 0,180 0,180 0,180 0,180 0,180 0,180 0,180 0,180 0,180 0,180 0,180 0,180 0,180 0,180 0,180 0,180 0,180 
		0,180 0,180 0,180 0,180 0,180 0,180 0,180 0,180 0,180 0,180 0,180 0,180 0,180 0,180 0,180 0,180 0,180 0,180 0,180 0,180 0,180 
		0,180 0,180 0,180 0,180 0,180 0,180 0,180 0,180 0,180 0,180 0,180 0,180 0,180 0,180 0,180 0,180 0,180 0,180 0,180 0,180 0,180 
		0,180 0,180 0,180 0,180 0,180 0,180 0,180 0,180 0,180 0,180 0,180 0,180 0,180 0,180 0,180 0,180 0,180 0,180 0,180 0,180 0,180 
		0,180 0,180 0,180 0,180 0,180 0,180 0,180 0,180 0,180 0,180 0,180 0,180 0,180 0,180 0,180 0,180 0,180 0,180 0,180 0,180 0,180 
		0,180 0,180 0,180 0,180 0,180 0,180 0,180 0,180 0,180 0,180 0,180 0,180 0,180 0,180 0,180 0,180 0,180 0,180 0,180 0,180 0,180 
		0,180 0,180 0,180 0,180 0,180 0,180 0,180 0,180 0,180 0,180 0,180 0,180 0,180 0,180 0,180 0,180 0,180 0,180 0,180 0,180 0,180 
		0,180 0,180 0,180 0,180 0,180 0,180 0,180 0,180 0,180 0,180 0,180 0,180 0,180 0,180 0,180 0,180 0,180 0,180 0,180 0,180 0,180 
		0,180 0,180 0,180 0,180 0,180 0,180 0,180 0,180 0,180 0,180 0,180 0,180 0,180 0,180 0,180 0,180 0,180 0,180 0,180 0,180 0,180 
		0,180 0,180 0,180 0,180 0,180 0,180 0,180 0,180 0,180 0,180 0,180 0,180 0,180 0,180 0,180 0,180 0,180 0,180 0,180 0,180 0,180 
		0,180 0,180 0,180 0,180 0,180 0,180 0,180 0,180 0,180 0,180 0,180 0,180 0,180 0,180 0,180 0,180 0,180 0,180 0,180 0,180 0,180 
		0,180 0,180 0,180 0,180 0,180 0,180 0,180 0,180 0,180 0,180 0,180 0,180 0,180 0,180 0,180 0,180 0,180 0,180 0,180 0,180 0,180 
		0,180 0,180 0,180 0,180 0,180 0,180 0,180 0,180 0,180 0,180 0,180 0,180 0,180 0,180 0,180 0,180 0,180 0,180 0,180 0,180 0,180 
		0,180 0,180 0,180 0,180 0,180 0,180 0,180 0,180 0,180 0,180 0,180 0,180 0,180 0,180 0,180 0,180 0,180 0,180 0,180 0,180 0,180 
		0,180 0,180 0,180 0,180 0,180 0,180 0,180 0,180 0,180 0,180 0,180 0,180 0,180 0,180 0,180 0,180 0,180 0,180 0,180 0,180 0,180 
		0,180 0,180 0,180 0,180 0,180 0,180 0,180 0,180 0,180 0,180 0,180 0,180 0,180 0,180 0,180 123.7,180 	"/>
</g>
<g id="figure">
	<g>
		<path d="M93.6,120.8c-0.7,0-0.9-0.4-0.7-1.3c0.3-0.9,0.9-1.9,1.8-2.9l13.3-14.8h-5.1c-3.8,2.3-5.4,3.5-8.3,6.1l0,0
			c-1.9,1.9-3.5,3.1-4.6,3.5c-1.1,0.4-2.3,0.4-3.7,0.1c0.2-0.9,0.3-1.9,0.4-3.2c-0.1-2.1-0.4-3.8-1-5.1c-0.5-1.3-1.4-2.9-2.6-4.7
			c2.1-1,3.1-1.9,3.1-2.6c0-0.3-0.1-0.6-0.4-0.8c-0.2-0.2-0.5-0.3-0.8-0.3c-0.3,0-0.9,0.5-1.6,1.4C82.8,97,82,98,81.1,99l-11.7,10.1
			l0,0v0c-0.6,0.4-1.9,1.4-4.1,3.1s-4.7,3.2-4.7,3.2l-4,2.6c0,0-0.6,0.3-0.9,0.5c-2.5,1.4-4.5,2.4-5.9,3.1c0,0,0,0,0,0l0,0
			c0.4-0.5,1.8-2.2,4.3-5.1c0,0,0.1-0.1,0.1-0.1l2.2-2.7l3.6-4.2l2.7-3.2l4.8-5.7l1.7-2c6.4-3.1,12.2-6.6,17.5-10.3
			c5.3-3.7,9.4-7.2,12.4-10.5c3-3.3,4.5-6.1,4.5-8.4c0-0.9-0.3-1.6-0.9-2.1c-0.6-0.5-1.3-0.8-2.2-0.8c-4.6,0-11.8,5.7-21.6,17.2
			L65.3,99.5c0,0,0,0,0,0c-0.5,0.2-2.6,1.3-6.4,3.2c-2.7,1.4-5.7,3.4-5.7,3.4s0,0,0,0c-0.1,0.1-0.7,0.5-1.8,1.2
			c-0.5,0.3-0.8,0.6-1.1,0.7c-0.4,0.3-0.6,0.4-0.7,0.5v1c0.6-0.4,1.1-0.8,1.7-1.2c0.5-0.4,1.7-1.2,1.7-1.2l4-2.6
			c0,0,0.6-0.3,0.9-0.5c2.5-1.4,4.5-2.4,5.9-3.1l0,0l0,0c-0.3,0.4-1.1,1.4-2.5,3.1l-15.2,18l-1.7,2c-6.4,3.1-12.2,6.6-17.5,10.3
			c-5.3,3.7-9.4,7.2-12.4,10.5c-3,3.3-4.5,6.1-4.5,8.4c0,0.9,0.3,1.6,0.9,2.1c0.6,0.5,1.3,0.8,2.2,0.8c4.6,0,11.8-5.7,21.6-17.2
			l13.5-15.7c0,0,0,0,0,0c0.5-0.2,2.6-1.3,6.4-3.2c2.7-1.4,5.7-3.4,5.7-3.4s0,0,0,0c0.1-0.1,5.1-3.3,5.9-3.9c0.7-0.6,3-2.5,3.1-2.6
			l0,0l12.9-11c1.1,1.8,1.6,3.6,1.6,5.3c0,2.4-0.7,4.9-2.2,7.5c-1.5,2.6-3.3,4.7-5.5,6.4c-2.2,1.7-4.3,2.6-6.3,2.6
			c-1,0-1.9-0.2-2.7-0.7c-0.8-0.5-1.2-0.9-1.2-1.3c0-0.7,0.2-1.2,0.7-1.5c0.3,1.2,0.9,1.7,1.6,1.7c0.5,0,1-0.2,1.5-0.6
			c0.5-0.4,0.7-0.8,0.7-1.3c0-0.6-0.2-1.1-0.6-1.4c-0.4-0.4-1-0.5-1.7-0.5c-1,0-1.8,0.3-2.4,0.9c-0.5,0.6-0.8,1.3-0.8,2.3
			c0,1,0.5,1.9,1.4,2.4c0.9,0.6,2.1,0.9,3.6,0.9c1.5,0,3.4-0.3,5.5-1c2.1-0.7,4.2-1.8,6.2-3.2c2-1.4,3.5-3.2,4.4-5.2
			c1.7,0.5,3.2,0.5,4.4,0.1c1.3-0.4,2.7-1.6,4.2-3.5l0,0c2.9-2.7,4.5-3.9,7.8-5.9c-0.3,0.3-0.5,0.6-0.8,0.9c-0.3,0.3-0.6,0.6-0.9,1
			c-6.1,6.1-9.1,11-9.1,14.9c0,1.3,0.6,2,1.9,2c2.1,0,4.9-1.3,8.3-3.8c3.4-2.5,6.9-5.5,10.5-9v-1c-3.1,3.1-6.6,6-10.3,8.8
			C98.3,119.4,95.5,120.8,93.6,120.8z M75.9,90.4c6-7.2,10.9-12.9,14.9-16.9c3.9-4,7.2-6.1,9.6-6.1c0.7,0,1.3,0.2,1.7,0.6
			c0.4,0.4,0.6,0.9,0.6,1.6c0,1.5-0.9,3.4-2.6,5.7c-1.8,2.3-4.2,4.7-7.2,7.3c-3.1,2.6-6.5,5.1-10.3,7.6c-3.8,2.5-7.8,4.7-12,6.9
			L75.9,90.4z M37.6,132.3c-6,7.2-10.9,12.9-14.9,16.9c-3.9,4-7.2,6.1-9.6,6.1c-0.7,0-1.3-0.2-1.7-0.6c-0.4-0.4-0.6-0.9-0.6-1.6
			c0-1.5,0.9-3.4,2.6-5.7c1.8-2.3,4.2-4.7,7.2-7.3c3.1-2.6,6.5-5.1,10.3-7.6c3.8-2.5,7.8-4.7,12-6.9L37.6,132.3z"/>
		<path d="M112.5,89.8c-0.6,0-1,0.2-1.5,0.7c-0.4,0.5-0.6,1-0.6,1.5c0,0.9,0.5,1.3,1.5,1.3c0.5,0,1-0.2,1.3-0.6
			c0.3-0.4,0.5-0.9,0.5-1.5C113.7,90.3,113.3,89.8,112.5,89.8z"/>
	</g>
</g>
</svg>
