<?xml version="1.0" encoding="utf-8"?>
<!-- Generator: Adobe Illustrator 22.1.0, SVG Export Plug-In . SVG Version: 6.00 Build 0)  -->
<svg version="1.1" xmlns="http://www.w3.org/2000/svg" xmlns:xlink="http://www.w3.org/1999/xlink" x="0px" y="0px"
	 viewBox="0 0 131.6 180" style="enable-background:new 0 0 131.6 180;" xml:space="preserve">
<style type="text/css">
	.st0{display:none;}
	.st1{display:inline;fill:#FF0000;}
</style>
<g id="bg" class="st0">
	<polyline class="st1" points="131.6,0 0,0 0,0 0,0 0,0 0,0 0,0 0,0 0,0 0,0 0,0 0,0 0,0 0,0 0,0 0,0 0,0 0,0 0,0 0,0 0,0 0,0 0,0 
		0,0 0,0 0,0 0,0 0,0 0,0 0,0 0,0 0,0 0,0 0,0 0,0 0,0 0,0 0,0 0,0 0,0 0,0 0,0 0,0 0,0 0,0 0,0 0,0 0,0 0,0 0,0 0,0 0,0 0,0 0,0 
		0,0 0,0 0,0 0,0 0,0 0,0 0,0 0,0 0,0 0,0 0,0 0,0 0,0 0,0 0,0 0,0 0,0 0,0 0,0 0,0 0,0 0,0 0,0 0,0 0,0 0,0 0,0 0,0 0,0 0,0 0,0 
		0,0 0,0 0,0 0,0 0,0 0,0 0,0 0,0 0,0 0,0 0,0 0,0 0,0 0,0 0,0 0,0 0,0 0,0 0,0 0,0 0,0 0,0 0,0 0,0 0,0 0,0 0,0 0,0 0,0 0,0 0,0 
		0,0 0,0 0,0 0,0 0,0 0,0 0,0 0,0 0,0 0,0 0,0 0,0 0,0 0,0 0,0 0,0 0,0 0,0 0,0 0,0 0,0 0,0 0,0 0,0 0,0 0,0 0,0 0,0 0,0 0,0 0,0 
		0,0 0,0 0,0 0,0 0,0 0,0 0,0 0,0 0,0 0,0 0,0 0,0 0,0 0,0 0,0 0,0 0,0 0,0 0,0 0,0 0,0 0,0 0,0 0,0 0,0 0,0 0,0 0,0 0,0 0,0 0,0 
		0,0 0,0 0,0 0,0 0,0 0,0 0,0 0,0 0,0 0,0 0,0 0,0 0,0 0,0 0,0 0,0 0,0 0,0 0,0 0,0 0,0 0,0 0,0 0,0 0,0 0,0 0,0 0,0 0,0 0,0 0,0 
		0,0 0,0 0,0 0,0 0,0 0,0 0,0 0,0 0,0 0,0 0,0 0,0 0,0 0,0 0,0 0,0 0,0 0,0 0,0 0,0 0,0 0,0 0,0 0,0 0,0 0,0 0,0 0,0 0,0 0,0 0,0 
		0,0 0,0 0,0 0,0 0,0 0,0 0,0 0,0 0,0 0,0 0,0 0,0 0,0 0,0 0,0 0,0 0,0 0,0 0,0 0,0 0,0 0,0 0,0 0,0 0,0 0,0 0,0 0,0 0,0 0,0 0,0 
		0,0 0,0 0,0 0,0 0,0 0,0 0,0 0,0 0,0 0,0 0,0 0,0 0,0 0,0 0,0 0,0 0,0 0,0 0,0 0,0 0,0 0,0 0,0 0,0 0,0 0,0 0,0 0,0 0,0 0,0 0,0 
		0,0 0,0 0,0 0,0 0,0 0,0 0,0 0,0 0,0 0,0 0,0 0,0 0,0 0,0 0,0 0,0 0,0 0,0 0,0 0,0 0,0 0,0 0,0 0,0 0,0 0,0 0,0 0,0 0,0 0,0 0,0 
		0,0 0,0 0,0 0,0 0,0 0,0 0,0 0,0 0,0 0,0 0,0 0,0 0,0 0,0 0,0 0,0 0,0 0,0 0,0 0,0 0,0 0,0 0,0 0,0 0,0 0,0 0,0 0,0 0,0 0,0 0,0 
		0,0 0,0 0,0 0,0 0,0 0,0 0,0 0,0 0,0 0,0 0,0 0,0 0,0 0,0 0,0 0,0 0,0 0,0 0,0 0,0 0,0 0,0 0,0 0,0 0,0 0,0 0,0 0,0 0,0 0,0 0,0 
		0,0 0,0 0,0 0,0 0,0 0,0 0,0 0,0 0,0 0,0 0,0 0,0 0,0 0,0 0,0 0,0 0,0 0,0 0,0 0,0 0,0 0,0 0,0 0,0 0,0 0,0 0,0 0,0 0,0 0,0 0,0 
		0,0 0,0 0,0 0,0 0,0 0,0 0,180 0,180 0,180 0,180 0,180 0,180 0,180 0,180 0,180 0,180 0,180 0,180 0,180 0,180 0,180 0,180 0,180 
		0,180 0,180 0,180 0,180 0,180 0,180 0,180 0,180 0,180 0,180 0,180 0,180 0,180 0,180 0,180 0,180 0,180 0,180 0,180 0,180 0,180 
		0,180 0,180 0,180 0,180 0,180 0,180 0,180 0,180 0,180 0,180 0,180 0,180 0,180 0,180 0,180 0,180 0,180 0,180 0,180 0,180 0,180 
		0,180 0,180 0,180 0,180 0,180 0,180 0,180 0,180 0,180 0,180 0,180 0,180 0,180 0,180 0,180 0,180 0,180 0,180 0,180 0,180 0,180 
		0,180 0,180 0,180 0,180 0,180 0,180 0,180 0,180 0,180 0,180 0,180 0,180 0,180 0,180 0,180 0,180 0,180 0,180 0,180 0,180 0,180 
		0,180 0,180 0,180 0,180 0,180 0,180 0,180 0,180 0,180 0,180 0,180 0,180 0,180 0,180 0,180 0,180 0,180 0,180 0,180 0,180 0,180 
		0,180 0,180 0,180 0,180 0,180 0,180 0,180 0,180 0,180 0,180 0,180 0,180 0,180 0,180 0,180 0,180 0,180 0,180 0,180 0,180 0,180 
		0,180 0,180 0,180 0,180 0,180 0,180 0,180 0,180 0,180 0,180 0,180 0,180 0,180 0,180 0,180 0,180 0,180 0,180 0,180 0,180 0,180 
		0,180 0,180 0,180 0,180 0,180 0,180 0,180 0,180 0,180 0,180 0,180 0,180 0,180 0,180 0,180 0,180 0,180 0,180 0,180 0,180 0,180 
		0,180 0,180 0,180 0,180 0,180 0,180 0,180 0,180 0,180 0,180 0,180 0,180 0,180 0,180 0,180 0,180 0,180 0,180 0,180 0,180 0,180 
		0,180 0,180 0,180 0,180 0,180 0,180 0,180 0,180 0,180 0,180 0,180 0,180 0,180 0,180 0,180 0,180 0,180 0,180 0,180 0,180 0,180 
		0,180 0,180 0,180 0,180 0,180 0,180 0,180 0,180 0,180 0,180 0,180 0,180 0,180 0,180 0,180 0,180 0,180 0,180 0,180 0,180 0,180 
		0,180 0,180 0,180 0,180 0,180 0,180 0,180 0,180 0,180 0,180 0,180 0,180 0,180 0,180 0,180 0,180 0,180 0,180 0,180 0,180 0,180 
		0,180 0,180 0,180 0,180 0,180 0,180 0,180 0,180 0,180 0,180 0,180 0,180 0,180 0,180 0,180 0,180 0,180 0,180 0,180 0,180 0,180 
		0,180 0,180 0,180 0,180 0,180 0,180 0,180 0,180 0,180 0,180 0,180 0,180 0,180 0,180 0,180 0,180 0,180 0,180 0,180 0,180 0,180 
		0,180 0,180 0,180 0,180 0,180 0,180 0,180 0,180 0,180 0,180 0,180 0,180 0,180 0,180 0,180 0,180 0,180 0,180 0,180 0,180 0,180 
		0,180 0,180 0,180 0,180 0,180 0,180 0,180 0,180 0,180 0,180 0,180 0,180 0,180 0,180 0,180 0,180 0,180 0,180 0,180 0,180 0,180 
		0,180 0,180 0,180 0,180 0,180 0,180 0,180 0,180 0,180 0,180 0,180 0,180 0,180 0,180 0,180 0,180 0,180 0,180 0,180 0,180 0,180 
		0,180 0,180 0,180 0,180 0,180 0,180 0,180 0,180 0,180 0,180 0,180 0,180 0,180 0,180 0,180 0,180 0,180 0,180 0,180 0,180 0,180 
		0,180 0,180 0,180 0,180 0,180 0,180 0,180 0,180 0,180 0,180 0,180 0,180 0,180 0,180 0,180 0,180 0,180 0,180 0,180 0,180 0,180 
		0,180 0,180 0,180 0,180 0,180 0,180 0,180 0,180 0,180 0,180 0,180 0,180 0,180 0,180 0,180 131.6,180 	"/>
</g>
<g id="figure">
	<g>
		<path d="M65,94.3l1.5-2.1c9.2-12.9,18.7-21.7,28.4-26.4l0.6,0.4c-3.4,1.8-6.4,3.6-9,5.6c-2.6,2-5,4.3-7.1,6.9
			c-2.1,2.6-4.1,5.4-5.8,8.6c-3.2,5.8-5.7,10-7.4,12.7c-1.7,2.7-3.5,5-5.3,7.1c-2.5,2.8-5.4,5.3-8.5,7.6c-3.1,2.2-6.2,4.1-9.3,5.5
			c-3.1,1.4-6.4,2.5-9.9,3.3c-3.5,0.7-6.9,1.1-10.2,1.1c-4.5,0-7.7-0.7-9.7-2c-2-1.3-3.1-3-3.1-5c0-1.3,0.4-2.3,1.1-3.1
			c0.7-0.8,1.6-1.2,2.5-1.2c1.7,0,2.5,0.7,2.5,2.2c0,0.5-0.2,0.9-0.5,1.3c-0.4,0.4-0.8,0.6-1.3,0.6c-1.8,0-2.3-1-1.7-3.1
			c-0.6,0.4-1.1,0.8-1.3,1.3c-0.2,0.5-0.4,1.1-0.4,1.9c0,1.8,1,3.3,3,4.5c2,1.2,4.8,1.8,8.4,1.8c5.4,0,10.5-0.9,15.3-2.8
			c4.8-1.8,8.4-3.9,10.8-6.3c1.5-1.4,2.8-2.8,4-4.1s2.9-3.4,4.9-6C59.5,101.9,62,98.5,65,94.3z M75.8,70.2h0.8
			c-3,6.1-6.5,10.7-10.3,13.8c-3.9,3.1-7.2,5-10.1,5.8c-2.9,0.8-5,1.2-6.5,1.2c-2.8,0-5.1-0.7-6.7-2.1c-1.6-1.4-2.5-3.3-2.5-5.6
			c0-2,0.7-4.3,2.1-6.8c1.4-2.5,3.6-5,6.5-7.3c2.9-2.3,6.7-4.3,11.3-5.8c4.6-1.5,10-2.3,16.3-2.3c4.3,0,9.9,0.3,16.9,1
			c6.4,0.6,11.2,1,14.5,1c3.2,0,5.8-0.2,8-0.6c2.1-0.4,3.6-0.9,4.5-1.5h1c-1.5,1.3-4,2.4-7.5,3.3c-3.5,0.8-6.6,1.2-9.3,1.2
			c-1.5,0-5.6-0.5-12.3-1.5c-9.6-1.4-15.6-2.1-18.2-2.1c-4.9,0-9.5,0.7-13.7,2c-4.2,1.4-7.7,3.2-10.6,5.4c-2.9,2.3-5.1,4.6-6.6,7.1
			c-1.5,2.5-2.2,4.8-2.2,6.9c0,2.1,0.8,3.8,2.3,5c1.5,1.3,3.5,1.9,5.9,1.9c1.9,0,4-0.4,6.5-1.3c2.5-0.9,4.9-2.2,7.3-3.8
			c2.4-1.7,4.8-3.8,7-6.4C72.5,76.1,74.4,73.2,75.8,70.2z"/>
		<path d="M110.5,72h4.6l-37.3,42.3c3.6-3,7.5-5.9,11.9-8.8c4.4-2.9,7.3-4.3,8.8-4.3c1.7,0,2.5,0.9,2.5,2.8c0,2.1-0.7,4-2.1,5.7
			c-1.4,1.6-3.3,3.3-5.6,5.1c-2.9,2.1-4.4,3.7-4.4,4.8c0,0.8,0.5,1.2,1.4,1.2c1.8,0,4.2-1.1,7.2-3.2c3-2.1,6.9-5.3,11.5-9.6v1
			l-1.6,1.5c-3.7,3.4-7.1,6.2-10.1,8.2c-3,2-5.3,3-7,3c-1.7,0-2.5-0.8-2.5-2.4c0-3.1,1.6-6,4.9-8.9c2.5-2.2,4.2-3.8,5.2-4.8
			c0.9-1,1.4-1.8,1.4-2.6c0-0.2-0.1-0.4-0.3-0.6c-0.2-0.2-0.5-0.3-0.8-0.3c-1.5,0-5.6,2.4-12.3,7.2c-5.5,4-10.4,8.1-14.5,12.3h-4.8
			l29.8-33.9L70.6,110v-0.9L86.7,95c4.5-3.9,8-7,10.4-9.2c2.4-2.2,4.5-4.2,6.4-6.2C105.4,77.7,107.7,75.2,110.5,72z"/>
	</g>
</g>
</svg>
