<?xml version="1.0" encoding="utf-8"?>
<!-- Generator: Adobe Illustrator 22.1.0, SVG Export Plug-In . SVG Version: 6.00 Build 0)  -->
<svg version="1.1" xmlns="http://www.w3.org/2000/svg" xmlns:xlink="http://www.w3.org/1999/xlink" x="0px" y="0px"
	 viewBox="0 0 94.1 180" style="enable-background:new 0 0 94.1 180;" xml:space="preserve">
<style type="text/css">
	.st0{display:none;}
	.st1{display:inline;fill:#FF0000;}
</style>
<g id="bg" class="st0">
	<polygon class="st1" points="1.6,0 1.6,0 1.3,0 1.3,0 1.3,0 1.3,0 1.3,0 1.3,0 1.3,0 1.3,0 1.3,0 1.2,0 1.2,0 1.2,0 1.2,0 1.2,0 
		1.2,0 1.2,0 1.2,0 1.2,0 1.2,0 1.2,0 1.2,0 1.2,0 1.2,0 1.2,0 1.2,0 1.2,0 1.2,0 1.1,0 1.1,0 1.1,0 1.1,0 1.1,0 1.1,0 1.1,0 1.1,0 
		1.1,0 1.1,0 1.1,0 1.1,0 1.1,0 1.1,0 1.1,0 1.1,0 1.1,0 1.1,0 1.1,0 1.1,0 1.1,0 1.1,0 1,0 1,0 1,0 1,0 1,0 1,0 1,0 1,0 1,0 1,0 
		1,0 1,0 1,0 1,0 1,0 1,0 1,0 1,0 1,0 1,0 1,0 1,0 1,0 1,0 1,0 1,0 1,0 1,0 1,0 1,0 1,0 1,0 1,0 1,0 1,0 1,0 0.9,0 0.9,0 0.9,0 
		0.9,0 0.9,0 0.9,0 0.9,0 0.9,0 0.9,0 0.9,0 0.9,0 0.9,0 0.9,0 0.9,0 0.9,0 0.9,0 0.9,0 0.9,0 0.9,0 0.9,0 0.9,0 0.9,0 0.9,0 0.9,0 
		0.9,0 0.9,0 0.9,0 0.9,0 0.9,0 0.9,0 0.9,0 0.9,0 0.9,0 0.9,0 0.9,0 0.9,0 0.9,0 0.9,0 0.9,0 0.9,0 0.9,0 0.9,0 0.9,0 0.9,0 0.9,0 
		0.9,0 0.9,0 0.9,0 0.9,0 0.9,0 0.8,0 0.8,0 0.8,0 0.8,0 0.8,0 0.8,0 0.8,0 0.8,0 0.8,0 0.8,0 0.8,0 0.8,0 0.8,0 0.8,0 0.8,0 0.8,0 
		0.8,0 0.8,0 0.8,0 0.8,0 0.8,0 0.8,0 0.8,0 0.8,0 0.8,0 0.8,0 0.8,0 0.8,0 0.8,0 0.8,0 0.8,0 0.8,0 0.8,0 0.8,0 0.8,0 0.8,0 0.8,0 
		0.8,0 0.8,0 0.8,0 0.8,0 0.8,0 0.8,0 0.8,0 0.8,0 0.8,0 0.8,0 0.8,0 0.8,0 0.8,0 0.8,0 0.8,0 0.7,0 0.7,0 0.7,0 0.7,0 0.7,0 0.7,0 
		0.7,0 0.7,0 0.7,0 0.7,0 0.7,0 0.7,0 0.7,0 0.7,0 0.7,0 0.7,0 0.7,0 0.7,0 0.7,0 0.7,0 0.7,0 0.7,0 0.7,0 0.7,0 0.7,0 0.7,0 0.7,0 
		0.7,0 0.7,0 0.7,0 0.7,0 0.7,0 0.7,0 0.7,0 0.7,0 0.7,0 0.7,0 0.7,0 0.7,0 0.7,0 0.7,0 0.7,0 0.7,0 0.7,0 0.7,0 0.7,0 0.7,0 0.7,0 
		0.7,0 0.6,0 0.6,0 0.6,0 0.6,0 0.6,0 0.6,0 0.6,0 0.6,0 0.6,0 0.6,0 0.6,0 0.6,0 0.6,0 0.6,0 0.6,0 0.6,0 0.6,0 0.6,0 0.6,0 0.6,0 
		0.6,0 0.6,0 0.6,0 0.6,0 0.6,0 0.6,0 0.6,0 0.6,0 0.6,0 0.6,0 0.6,0 0.6,0 0.6,0 0.6,0 0.6,0 0.6,0 0.6,0 0.6,0 0.6,0 0.6,0 0.6,0 
		0.6,0 0.6,0 0.6,0 0.6,0 0.6,0 0.6,0 0.6,0 0.6,0 0.6,0 0.6,0 0.6,0 0.5,0 0.5,0 0.5,0 0.5,0 0.5,0 0.5,0 0.5,0 0.5,0 0.5,0 0.5,0 
		0.5,0 0.5,0 0.5,0 0.5,0 0.5,0 0.5,0 0.5,0 0.5,0 0.5,0 0.5,0 0.5,0 0.5,0 0.5,0 0.5,0 0.5,0 0.5,0 0.5,0 0.5,0 0.5,0 0.5,0 0.5,0 
		0.5,0 0.5,0 0.5,0 0.5,0 0.5,0 0.5,0 0.5,0 0.5,0 0.5,0 0.5,0 0.5,0 0.5,0 0.5,0 0.5,0 0.5,0 0.5,0 0.5,0 0.5,0 0.4,0 0.4,0 0.4,0 
		0.4,0 0.4,0 0.4,0 0.4,0 0.4,0 0.4,0 0.4,0 0.4,0 0.4,0 0.4,0 0.4,0 0.4,0 0.4,0 0.4,0 0.4,0 0.4,0 0.4,0 0.4,0 0.4,0 0.4,0 0.4,0 
		0.4,0 0.4,0 0.4,0 0.4,0 0.4,0 0.4,0 0.4,0 0.4,0 0.4,0 0.4,0 0.4,0 0.4,0 0.3,0 0.3,0 0.3,0 0.3,0 0.3,0 0.3,0 0.3,0 0.3,0 0.3,0 
		0.3,0 0.3,0 0.3,0 0.3,0 0.3,0 0.3,0 0.3,0 0.3,0 0.3,0 0.3,0 0.3,0 0.3,0 0.3,0 0.3,0 0.2,0 0.2,0 0.2,0 0.2,0 0.2,0 0.2,0 0.2,0 
		0.2,0 0.2,0 0.2,0 0.2,0 0.2,0 0.2,0 0.2,0 0.2,0 0.2,0 0.2,0 0.2,0 0.1,0 0.1,0 0.1,0 0.1,0 0.1,0 0.1,0 0.1,0 0.1,0 0.1,0 0.1,0 
		0.1,0 0.1,0 0.1,0 0,0 0,0 0,180 0,180 0.1,180 0.1,180 0.1,180 0.1,180 0.1,180 0.1,180 0.1,180 0.1,180 0.1,180 0.1,180 0.1,180 
		0.1,180 0.1,180 0.2,180 0.2,180 0.2,180 0.2,180 0.2,180 0.2,180 0.2,180 0.2,180 0.2,180 0.2,180 0.2,180 0.2,180 0.2,180 
		0.2,180 0.2,180 0.2,180 0.2,180 0.2,180 0.3,180 0.3,180 0.3,180 0.3,180 0.3,180 0.3,180 0.3,180 0.3,180 0.3,180 0.3,180 
		0.3,180 0.3,180 0.3,180 0.3,180 0.3,180 0.3,180 0.3,180 0.3,180 0.3,180 0.3,180 0.3,180 0.3,180 0.3,180 0.4,180 0.4,180 
		0.4,180 0.4,180 0.4,180 0.4,180 0.4,180 0.4,180 0.4,180 0.4,180 0.4,180 0.4,180 0.4,180 0.4,180 0.4,180 0.4,180 0.4,180 
		0.4,180 0.4,180 0.4,180 0.4,180 0.4,180 0.4,180 0.4,180 0.4,180 0.4,180 0.4,180 0.4,180 0.4,180 0.4,180 0.4,180 0.4,180 
		0.4,180 0.4,180 0.4,180 0.4,180 0.5,180 0.5,180 0.5,180 0.5,180 0.5,180 0.5,180 0.5,180 0.5,180 0.5,180 0.5,180 0.5,180 
		0.5,180 0.5,180 0.5,180 0.5,180 0.5,180 0.5,180 0.5,180 0.5,180 0.5,180 0.5,180 0.5,180 0.5,180 0.5,180 0.5,180 0.5,180 
		0.5,180 0.5,180 0.5,180 0.5,180 0.5,180 0.5,180 0.5,180 0.5,180 0.5,180 0.5,180 0.5,180 0.5,180 0.5,180 0.5,180 0.5,180 
		0.5,180 0.5,180 0.5,180 0.5,180 0.5,180 0.5,180 0.5,180 0.5,180 0.6,180 0.6,180 0.6,180 0.6,180 0.6,180 0.6,180 0.6,180 
		0.6,180 0.6,180 0.6,180 0.6,180 0.6,180 0.6,180 0.6,180 0.6,180 0.6,180 0.6,180 0.6,180 0.6,180 0.6,180 0.6,180 0.6,180 
		0.6,180 0.6,180 0.6,180 0.6,180 0.6,180 0.6,180 0.6,180 0.6,180 0.6,180 0.6,180 0.6,180 0.6,180 0.6,180 0.6,180 0.6,180 
		0.6,180 0.6,180 0.6,180 0.6,180 0.6,180 0.6,180 0.6,180 0.6,180 0.6,180 0.6,180 0.6,180 0.6,180 0.6,180 0.6,180 0.6,180 
		0.7,180 0.7,180 0.7,180 0.7,180 0.7,180 0.7,180 0.7,180 0.7,180 0.7,180 0.7,180 0.7,180 0.7,180 0.7,180 0.7,180 0.7,180 
		0.7,180 0.7,180 0.7,180 0.7,180 0.7,180 0.7,180 0.7,180 0.7,180 0.7,180 0.7,180 0.7,180 0.7,180 0.7,180 0.7,180 0.7,180 
		0.7,180 0.7,180 0.7,180 0.7,180 0.7,180 0.7,180 0.7,180 0.7,180 0.7,180 0.7,180 0.7,180 0.7,180 0.7,180 0.7,180 0.7,180 
		0.7,180 0.7,180 0.7,180 0.7,180 0.8,180 0.8,180 0.8,180 0.8,180 0.8,180 0.8,180 0.8,180 0.8,180 0.8,180 0.8,180 0.8,180 
		0.8,180 0.8,180 0.8,180 0.8,180 0.8,180 0.8,180 0.8,180 0.8,180 0.8,180 0.8,180 0.8,180 0.8,180 0.8,180 0.8,180 0.8,180 
		0.8,180 0.8,180 0.8,180 0.8,180 0.8,180 0.8,180 0.8,180 0.8,180 0.8,180 0.8,180 0.8,180 0.8,180 0.8,180 0.8,180 0.8,180 
		0.8,180 0.8,180 0.8,180 0.8,180 0.8,180 0.8,180 0.8,180 0.8,180 0.8,180 0.8,180 0.8,180 0.9,180 0.9,180 0.9,180 0.9,180 
		0.9,180 0.9,180 0.9,180 0.9,180 0.9,180 0.9,180 0.9,180 0.9,180 0.9,180 0.9,180 0.9,180 0.9,180 0.9,180 0.9,180 0.9,180 
		0.9,180 0.9,180 0.9,180 0.9,180 0.9,180 0.9,180 0.9,180 0.9,180 0.9,180 0.9,180 0.9,180 0.9,180 0.9,180 0.9,180 0.9,180 
		0.9,180 0.9,180 0.9,180 0.9,180 0.9,180 0.9,180 0.9,180 0.9,180 0.9,180 0.9,180 0.9,180 0.9,180 0.9,180 0.9,180 0.9,180 
		0.9,180 1,180 1,180 1,180 1,180 1,180 1,180 1,180 1,180 1,180 1,180 1,180 1,180 1,180 1,180 1,180 1,180 1,180 1,180 1,180 
		1,180 1,180 1,180 1,180 1,180 1,180 1,180 1,180 1,180 1,180 1,180 1,180 1,180 1,180 1,180 1,180 1,180 1.1,180 1.1,180 1.1,180 
		1.1,180 1.1,180 1.1,180 1.1,180 1.1,180 1.1,180 1.1,180 1.1,180 1.1,180 1.1,180 1.1,180 1.1,180 1.1,180 1.1,180 1.1,180 
		1.1,180 1.1,180 1.1,180 1.1,180 1.2,180 1.2,180 1.2,180 1.2,180 1.2,180 1.2,180 1.2,180 1.2,180 1.2,180 1.2,180 1.2,180 
		1.2,180 1.2,180 1.2,180 1.2,180 1.2,180 1.2,180 1.2,180 1.3,180 1.3,180 1.3,180 1.3,180 1.3,180 1.3,180 1.3,180 1.3,180 
		1.3,180 1.3,180 1.4,180 94.1,180 94.1,0 	"/>
</g>
<g id="figure">
	<path d="M43,63.9h0.8c-1,2.8-2.3,5.5-4,7.8c-1.7,2.4-3.8,4.5-6.1,6.5c-2.4,2-4.8,3.5-7.2,4.5c-2.5,1-4.9,1.6-7.2,1.6
		c-4.2,0-6.2-1.7-6.2-5.1c0-2.9,1.3-6,4-9.3c2.6-3.3,6.2-6.1,10.6-8.4c4.5-2.2,9.2-3.4,14.2-3.4c6.1,0,9.1,2.4,9.1,7.2
		c0,5.6-2.2,10.9-6.6,15.9l-27,30.7c-2.1,2.4-3.5,4.2-4.3,5.2c-0.8,1.1-1.2,1.9-1.2,2.6c0,1.2,0.8,1.9,2.4,1.9
		c3.4,0,7.8-1.9,13.1-5.6c5.3-3.7,10.4-7.9,15.3-12.6s8.4-8.2,10.3-10.4l26-29.4h5.2L37,117.3c-1,1.2-1.5,2.2-1.5,3
		c0,1,0.6,1.5,1.7,1.5c1.9,0,4.6-1.4,8-4.1c3.4-2.7,7.8-6.7,13.3-11.9v1c-5.6,5.4-10,9.3-13.2,11.9c-3.2,2.6-6,3.9-8.4,3.9
		c-0.7,0-1.3-0.3-1.8-0.8c-0.5-0.5-0.8-1.2-0.8-2c0-3.6,2.7-8.5,8.1-14.7c0.6-0.7,0.9-1.1,1.1-1.2c0.1-0.1,0.3-0.2,0.5-0.4
		c-5.2,4.8-9.8,8.7-13.7,11.5c-3.9,2.9-7.1,4.8-9.7,5.9c-2.5,1.1-4.8,1.6-6.8,1.6c-1.5,0-2.5-0.4-3-1.1c-0.5-0.7-0.8-1.3-0.8-1.7
		c0-2.1,0.6-4.2,1.9-6.4c1.3-2.2,3.2-4.7,5.7-7.7l26-29.6c4.2-4.9,6.3-8.7,6.3-11.5c0-1.7-0.7-3-2.1-4.1c-1.4-1-3.6-1.5-6.5-1.5
		c-4.6,0-9,1.1-13.3,3.3c-4.2,2.2-7.6,5-10.2,8.2c-2.6,3.2-3.9,6.1-4,8.6c0,1.3,0.4,2.4,1.5,3.3c1,0.8,2.2,1.2,3.7,1.2
		c2.4,0,5.1-0.7,8.2-2.2s6-3.7,8.9-6.7C38.9,71.7,41.2,68.1,43,63.9z"/>
</g>
</svg>
