<?xml version="1.0" encoding="utf-8"?>
<!-- Generator: Adobe Illustrator 22.1.0, SVG Export Plug-In . SVG Version: 6.00 Build 0)  -->
<svg version="1.1" xmlns="http://www.w3.org/2000/svg" xmlns:xlink="http://www.w3.org/1999/xlink" x="0px" y="0px"
	 viewBox="0 0 109.3 180" style="enable-background:new 0 0 109.3 180;" xml:space="preserve">
<style type="text/css">
	.st0{display:none;}
	.st1{display:inline;fill:#FF0000;}
</style>
<g id="bg" class="st0">
	<polygon class="st1" points="1.5,0 1.5,0 1.3,0 1.2,0 1.2,0 1.2,0 1.2,0 1.2,0 1.2,0 1.2,0 1.2,0 1.2,0 1.2,0 1.2,0 1.2,0 1.2,0 
		1.2,0 1.1,0 1.1,0 1.1,0 1.1,0 1.1,0 1.1,0 1.1,0 1.1,0 1.1,0 1.1,0 1.1,0 1.1,0 1.1,0 1.1,0 1.1,0 1.1,0 1.1,0 1.1,0 1.1,0 1.1,0 
		1,0 1,0 1,0 1,0 1,0 1,0 1,0 1,0 1,0 1,0 1,0 1,0 1,0 1,0 1,0 1,0 1,0 1,0 1,0 1,0 1,0 1,0 1,0 1,0 1,0 1,0 1,0 1,0 1,0 1,0 0.9,0 
		0.9,0 0.9,0 0.9,0 0.9,0 0.9,0 0.9,0 0.9,0 0.9,0 0.9,0 0.9,0 0.9,0 0.9,0 0.9,0 0.9,0 0.9,0 0.9,0 0.9,0 0.9,0 0.9,0 0.9,0 0.9,0 
		0.9,0 0.9,0 0.9,0 0.9,0 0.9,0 0.9,0 0.9,0 0.9,0 0.9,0 0.9,0 0.9,0 0.9,0 0.9,0 0.9,0 0.9,0 0.9,0 0.9,0 0.9,0 0.9,0 0.9,0 0.9,0 
		0.9,0 0.9,0 0.8,0 0.8,0 0.8,0 0.8,0 0.8,0 0.8,0 0.8,0 0.8,0 0.8,0 0.8,0 0.8,0 0.8,0 0.8,0 0.8,0 0.8,0 0.8,0 0.8,0 0.8,0 0.8,0 
		0.8,0 0.8,0 0.8,0 0.8,0 0.8,0 0.8,0 0.8,0 0.8,0 0.8,0 0.8,0 0.8,0 0.8,0 0.8,0 0.8,0 0.8,0 0.8,0 0.8,0 0.8,0 0.8,0 0.8,0 0.8,0 
		0.8,0 0.8,0 0.8,0 0.8,0 0.8,0 0.8,0 0.8,0 0.8,0 0.8,0 0.8,0 0.8,0 0.8,0 0.8,0 0.8,0 0.7,0 0.7,0 0.7,0 0.7,0 0.7,0 0.7,0 0.7,0 
		0.7,0 0.7,0 0.7,0 0.7,0 0.7,0 0.7,0 0.7,0 0.7,0 0.7,0 0.7,0 0.7,0 0.7,0 0.7,0 0.7,0 0.7,0 0.7,0 0.7,0 0.7,0 0.7,0 0.7,0 0.7,0 
		0.7,0 0.7,0 0.7,0 0.7,0 0.7,0 0.7,0 0.7,0 0.7,0 0.7,0 0.7,0 0.7,0 0.7,0 0.7,0 0.7,0 0.7,0 0.7,0 0.7,0 0.7,0 0.7,0 0.7,0 0.7,0 
		0.7,0 0.7,0 0.7,0 0.7,0 0.7,0 0.6,0 0.6,0 0.6,0 0.6,0 0.6,0 0.6,0 0.6,0 0.6,0 0.6,0 0.6,0 0.6,0 0.6,0 0.6,0 0.6,0 0.6,0 0.6,0 
		0.6,0 0.6,0 0.6,0 0.6,0 0.6,0 0.6,0 0.6,0 0.6,0 0.6,0 0.6,0 0.6,0 0.6,0 0.6,0 0.6,0 0.6,0 0.6,0 0.6,0 0.6,0 0.6,0 0.6,0 0.6,0 
		0.6,0 0.6,0 0.6,0 0.6,0 0.6,0 0.6,0 0.6,0 0.6,0 0.6,0 0.6,0 0.6,0 0.6,0 0.6,0 0.6,0 0.6,0 0.5,0 0.5,0 0.5,0 0.5,0 0.5,0 0.5,0 
		0.5,0 0.5,0 0.5,0 0.5,0 0.5,0 0.5,0 0.5,0 0.5,0 0.5,0 0.5,0 0.5,0 0.5,0 0.5,0 0.5,0 0.5,0 0.5,0 0.5,0 0.5,0 0.5,0 0.5,0 0.5,0 
		0.5,0 0.5,0 0.5,0 0.5,0 0.5,0 0.5,0 0.5,0 0.5,0 0.5,0 0.5,0 0.5,0 0.5,0 0.5,0 0.5,0 0.5,0 0.5,0 0.5,0 0.5,0 0.5,0 0.5,0 0.5,0 
		0.5,0 0.5,0 0.5,0 0.5,0 0.5,0 0.5,0 0.5,0 0.4,0 0.4,0 0.4,0 0.4,0 0.4,0 0.4,0 0.4,0 0.4,0 0.4,0 0.4,0 0.4,0 0.4,0 0.4,0 0.4,0 
		0.4,0 0.4,0 0.4,0 0.4,0 0.4,0 0.4,0 0.4,0 0.4,0 0.4,0 0.4,0 0.4,0 0.4,0 0.4,0 0.4,0 0.4,0 0.4,0 0.4,0 0.4,0 0.4,0 0.4,0 0.4,0 
		0.4,0 0.4,0 0.4,0 0.4,0 0.4,0 0.4,0 0.4,0 0.4,0 0.3,0 0.3,0 0.3,0 0.3,0 0.3,0 0.3,0 0.3,0 0.3,0 0.3,0 0.3,0 0.3,0 0.3,0 0.3,0 
		0.3,0 0.3,0 0.3,0 0.3,0 0.3,0 0.3,0 0.3,0 0.3,0 0.3,0 0.3,0 0.3,0 0.3,0 0.2,0 0.2,0 0.2,0 0.2,0 0.2,0 0.2,0 0.2,0 0.2,0 0.2,0 
		0.2,0 0.2,0 0.2,0 0.2,0 0.2,0 0.2,0 0.2,0 0.2,0 0.2,0 0.1,0 0.1,0 0.1,0 0.1,0 0.1,0 0.1,0 0.1,0 0.1,0 0.1,0 0.1,0 0.1,0 0.1,0 
		0.1,0 0.1,0 0.1,0 0,0 0,0 0,0 0,180 0,180 0,180 0.1,180 0.1,180 0.1,180 0.1,180 0.1,180 0.1,180 0.1,180 0.1,180 0.1,180 
		0.1,180 0.1,180 0.1,180 0.1,180 0.1,180 0.1,180 0.2,180 0.2,180 0.2,180 0.2,180 0.2,180 0.2,180 0.2,180 0.2,180 0.2,180 
		0.2,180 0.2,180 0.2,180 0.2,180 0.2,180 0.2,180 0.2,180 0.2,180 0.2,180 0.3,180 0.3,180 0.3,180 0.3,180 0.3,180 0.3,180 
		0.3,180 0.3,180 0.3,180 0.3,180 0.3,180 0.3,180 0.3,180 0.3,180 0.3,180 0.3,180 0.3,180 0.3,180 0.3,180 0.3,180 0.3,180 
		0.3,180 0.3,180 0.3,180 0.3,180 0.4,180 0.4,180 0.4,180 0.4,180 0.4,180 0.4,180 0.4,180 0.4,180 0.4,180 0.4,180 0.4,180 
		0.4,180 0.4,180 0.4,180 0.4,180 0.4,180 0.4,180 0.4,180 0.4,180 0.4,180 0.4,180 0.4,180 0.4,180 0.4,180 0.4,180 0.4,180 
		0.4,180 0.4,180 0.4,180 0.4,180 0.4,180 0.4,180 0.4,180 0.4,180 0.4,180 0.4,180 0.4,180 0.4,180 0.4,180 0.4,180 0.4,180 
		0.4,180 0.4,180 0.5,180 0.5,180 0.5,180 0.5,180 0.5,180 0.5,180 0.5,180 0.5,180 0.5,180 0.5,180 0.5,180 0.5,180 0.5,180 
		0.5,180 0.5,180 0.5,180 0.5,180 0.5,180 0.5,180 0.5,180 0.5,180 0.5,180 0.5,180 0.5,180 0.5,180 0.5,180 0.5,180 0.5,180 
		0.5,180 0.5,180 0.5,180 0.5,180 0.5,180 0.5,180 0.5,180 0.5,180 0.5,180 0.5,180 0.5,180 0.5,180 0.5,180 0.5,180 0.5,180 
		0.5,180 0.5,180 0.5,180 0.5,180 0.5,180 0.5,180 0.5,180 0.5,180 0.5,180 0.5,180 0.5,180 0.5,180 0.6,180 0.6,180 0.6,180 
		0.6,180 0.6,180 0.6,180 0.6,180 0.6,180 0.6,180 0.6,180 0.6,180 0.6,180 0.6,180 0.6,180 0.6,180 0.6,180 0.6,180 0.6,180 
		0.6,180 0.6,180 0.6,180 0.6,180 0.6,180 0.6,180 0.6,180 0.6,180 0.6,180 0.6,180 0.6,180 0.6,180 0.6,180 0.6,180 0.6,180 
		0.6,180 0.6,180 0.6,180 0.6,180 0.6,180 0.6,180 0.6,180 0.6,180 0.6,180 0.6,180 0.6,180 0.6,180 0.6,180 0.6,180 0.6,180 
		0.6,180 0.6,180 0.6,180 0.6,180 0.7,180 0.7,180 0.7,180 0.7,180 0.7,180 0.7,180 0.7,180 0.7,180 0.7,180 0.7,180 0.7,180 
		0.7,180 0.7,180 0.7,180 0.7,180 0.7,180 0.7,180 0.7,180 0.7,180 0.7,180 0.7,180 0.7,180 0.7,180 0.7,180 0.7,180 0.7,180 
		0.7,180 0.7,180 0.7,180 0.7,180 0.7,180 0.7,180 0.7,180 0.7,180 0.7,180 0.7,180 0.7,180 0.7,180 0.7,180 0.7,180 0.7,180 
		0.7,180 0.7,180 0.7,180 0.7,180 0.7,180 0.7,180 0.7,180 0.7,180 0.7,180 0.7,180 0.7,180 0.7,180 0.7,180 0.8,180 0.8,180 
		0.8,180 0.8,180 0.8,180 0.8,180 0.8,180 0.8,180 0.8,180 0.8,180 0.8,180 0.8,180 0.8,180 0.8,180 0.8,180 0.8,180 0.8,180 
		0.8,180 0.8,180 0.8,180 0.8,180 0.8,180 0.8,180 0.8,180 0.8,180 0.8,180 0.8,180 0.8,180 0.8,180 0.8,180 0.8,180 0.8,180 
		0.8,180 0.8,180 0.8,180 0.8,180 0.8,180 0.8,180 0.8,180 0.8,180 0.8,180 0.8,180 0.8,180 0.8,180 0.8,180 0.8,180 0.8,180 
		0.8,180 0.8,180 0.8,180 0.8,180 0.8,180 0.8,180 0.8,180 0.9,180 0.9,180 0.9,180 0.9,180 0.9,180 0.9,180 0.9,180 0.9,180 
		0.9,180 0.9,180 0.9,180 0.9,180 0.9,180 0.9,180 0.9,180 0.9,180 0.9,180 0.9,180 0.9,180 0.9,180 0.9,180 0.9,180 0.9,180 
		0.9,180 0.9,180 0.9,180 0.9,180 0.9,180 0.9,180 0.9,180 0.9,180 0.9,180 0.9,180 0.9,180 0.9,180 0.9,180 0.9,180 0.9,180 
		0.9,180 0.9,180 0.9,180 0.9,180 0.9,180 0.9,180 0.9,180 1,180 1,180 1,180 1,180 1,180 1,180 1,180 1,180 1,180 1,180 1,180 
		1,180 1,180 1,180 1,180 1,180 1,180 1,180 1,180 1,180 1,180 1,180 1,180 1,180 1,180 1,180 1,180 1,180 1,180 1,180 1.1,180 
		1.1,180 1.1,180 1.1,180 1.1,180 1.1,180 1.1,180 1.1,180 1.1,180 1.1,180 1.1,180 1.1,180 1.1,180 1.1,180 1.1,180 1.1,180 
		1.1,180 1.1,180 1.1,180 1.1,180 1.2,180 1.2,180 1.2,180 1.2,180 1.2,180 1.2,180 1.2,180 1.2,180 1.2,180 1.2,180 1.2,180 
		1.2,180 1.2,180 1.2,180 1.3,180 1.3,180 1.3,180 109.3,180 109.3,0 	"/>
</g>
<g id="figure">
	<path d="M16,117.3l-3.9,4c5.2-2.2,10.4-5.4,15.6-9.7c5.2-4.3,10-8.6,14.2-13c4.2-4.4,9.4-10,15.5-16.8c2.4-2.7,4.7-5.2,7-7.6
		s4.9-4.7,7.8-7.2c2.9-2.4,6.1-4.5,9.5-6.3c3.4-1.8,6.7-2.6,9.9-2.6c5.1,0,7.7,1.8,7.7,5.4c0,0.8-0.2,1.4-0.7,2
		c-0.4,0.5-1,0.8-1.7,0.8c-1.4,0-2.1-0.6-2.1-1.9c0-0.8,0.2-1.3,0.7-1.6c0.5-0.3,1.2-0.4,2.1-0.4c0.4,0,0.6-0.1,0.6-0.2
		c0-0.8-0.6-1.5-1.8-2.2c-1.2-0.7-2.8-1.1-4.7-1.1c-3.6,0-7.4,1.2-11.4,3.6c-4,2.4-8,5.5-12,9.2c-4,3.7-7.5,7.3-10.5,10.8
		c-3.1,3.5-5.2,5.9-6.3,7.2c-2.2,2.5-4.9,5.3-8,8.6s-6.4,6.4-9.8,9.4c-3.4,3-7.1,5.9-11.1,8.5c-4,2.6-8.1,4.7-12.3,6.2L10,122
		c4-3.9,7.3-7.4,9.9-10.5c2.6-3.1,5.2-6.7,7.9-11l1.6-2.5c4.1-6.4,7.8-11.5,10.9-15.3l1.8-2.2c2.2-2.7,6.2-7.3,11.8-13.8
		c-2.1,1.5-3.9,2.6-5.3,3.3c-1.4,0.7-3.2,1-5.2,1c-4.1,0-6.1-1.5-6.1-4.4c0-0.1,0.1-0.7,0.3-1.6c0.2-0.9,0.3-1.5,0.3-1.9
		c0-1.3-0.6-2.3-1.9-3.1C34.7,59.3,33,59,31.1,59c-3,0-5.7,0.4-8.1,1.3c-2.5,0.9-4.6,2-6.3,3.5c-1.8,1.5-3.1,3-4.1,4.7
		c-1,1.7-1.5,3.3-1.5,4.9c0,2,0.8,3.7,2.3,5c1.5,1.3,3.4,1.9,5.7,1.9c2.8,0,5.6-0.8,8.4-2.5s5.3-3.7,7.4-6l0.6,0.2
		c-2.2,2.9-4.8,5.1-7.8,6.7c-3,1.6-5.8,2.4-8.6,2.4c-2.5,0-4.7-0.7-6.3-2.1c-1.7-1.4-2.5-3.2-2.5-5.3c0-2.7,1-5.2,3-7.6
		c2-2.4,4.6-4.3,7.9-5.7c3.2-1.4,6.4-2.1,9.5-2.1c4.1,0,6.7,0.9,7.8,2.7c1.1,1.8,1.7,4,1.7,6.5c0,1,0.2,1.7,0.6,2.1
		c0.4,0.4,1.1,0.6,2.2,0.6c3.2,0,6.1-0.9,8.6-2.6c2.6-1.7,5-3.9,7.3-6.5c0.3-0.4,0.6-0.7,0.9-1c0.3-0.3,0.6-0.6,0.8-0.9
		c0.3-0.3,0.6-0.5,0.8-0.7c0.3-0.1,0.5-0.2,0.8-0.2c0.5,0,0.5,0.3,0.1,0.8c-0.4,0.5-1.2,1.4-2.4,2.5c-1.1,1.1-2.3,2.3-3.5,3.6
		c-1.3,1.5-2.9,3.6-4.8,6.4c-1.9,2.8-3.5,5.2-4.7,7.2c-2.4,4.2-4.7,7.8-6.7,10.8c-2,3-4.2,5.9-6.5,8.7c-2.3,2.9-4.5,5.5-6.7,7.8
		C24.7,108.2,21.1,112,16,117.3z"/>
</g>
</svg>
