<?xml version="1.0" encoding="utf-8"?>
<!-- Generator: Adobe Illustrator 22.1.0, SVG Export Plug-In . SVG Version: 6.00 Build 0)  -->
<svg version="1.1" xmlns="http://www.w3.org/2000/svg" xmlns:xlink="http://www.w3.org/1999/xlink" x="0px" y="0px"
	 viewBox="0 0 122.5 180" style="enable-background:new 0 0 122.5 180;" xml:space="preserve">
<style type="text/css">
	.st0{display:none;}
	.st1{display:inline;fill:#FF0000;}
</style>
<g id="bg" class="st0">
	<polygon class="st1" points="1,0 1,0 0.8,0 0.8,0 0.8,0 0.8,0 0.8,0 0.8,0 0.8,0 0.8,0 0.8,0 0.8,0 0.8,0 0.8,0 0.8,0 0.8,0 0.8,0 
		0.8,0 0.8,0 0.8,0 0.8,0 0.8,0 0.7,0 0.7,0 0.7,0 0.7,0 0.7,0 0.7,0 0.7,0 0.7,0 0.7,0 0.7,0 0.7,0 0.7,0 0.7,0 0.7,0 0.7,0 0.7,0 
		0.7,0 0.7,0 0.7,0 0.7,0 0.7,0 0.7,0 0.7,0 0.7,0 0.7,0 0.7,0 0.7,0 0.7,0 0.7,0 0.7,0 0.7,0 0.7,0 0.7,0 0.7,0 0.6,0 0.6,0 0.6,0 
		0.6,0 0.6,0 0.6,0 0.6,0 0.6,0 0.6,0 0.6,0 0.6,0 0.6,0 0.6,0 0.6,0 0.6,0 0.6,0 0.6,0 0.6,0 0.6,0 0.6,0 0.6,0 0.6,0 0.6,0 0.6,0 
		0.6,0 0.6,0 0.6,0 0.6,0 0.6,0 0.6,0 0.6,0 0.6,0 0.6,0 0.6,0 0.6,0 0.6,0 0.6,0 0.6,0 0.6,0 0.6,0 0.6,0 0.6,0 0.6,0 0.6,0 0.6,0 
		0.6,0 0.6,0 0.6,0 0.6,0 0.6,0 0.6,0 0.6,0 0.6,0 0.6,0 0.6,0 0.6,0 0.6,0 0.6,0 0.6,0 0.6,0 0.6,0 0.6,0 0.6,0 0.6,0 0.6,0 0.6,0 
		0.6,0 0.5,0 0.5,0 0.5,0 0.5,0 0.5,0 0.5,0 0.5,0 0.5,0 0.5,0 0.5,0 0.5,0 0.5,0 0.5,0 0.5,0 0.5,0 0.5,0 0.5,0 0.5,0 0.5,0 0.5,0 
		0.5,0 0.5,0 0.5,0 0.5,0 0.5,0 0.5,0 0.5,0 0.5,0 0.5,0 0.5,0 0.5,0 0.5,0 0.5,0 0.5,0 0.5,0 0.5,0 0.5,0 0.5,0 0.5,0 0.5,0 0.5,0 
		0.5,0 0.5,0 0.5,0 0.5,0 0.5,0 0.5,0 0.5,0 0.5,0 0.5,0 0.5,0 0.5,0 0.5,0 0.5,0 0.5,0 0.5,0 0.5,0 0.5,0 0.5,0 0.5,0 0.5,0 0.5,0 
		0.5,0 0.5,0 0.5,0 0.5,0 0.5,0 0.5,0 0.5,0 0.5,0 0.5,0 0.5,0 0.5,0 0.5,0 0.5,0 0.5,0 0.5,0 0.5,0 0.5,0 0.5,0 0.5,0 0.4,0 0.4,0 
		0.4,0 0.4,0 0.4,0 0.4,0 0.4,0 0.4,0 0.4,0 0.4,0 0.4,0 0.4,0 0.4,0 0.4,0 0.4,0 0.4,0 0.4,0 0.4,0 0.4,0 0.4,0 0.4,0 0.4,0 0.4,0 
		0.4,0 0.4,0 0.4,0 0.4,0 0.4,0 0.4,0 0.4,0 0.4,0 0.4,0 0.4,0 0.4,0 0.4,0 0.4,0 0.4,0 0.4,0 0.4,0 0.4,0 0.4,0 0.4,0 0.4,0 0.4,0 
		0.4,0 0.4,0 0.4,0 0.4,0 0.4,0 0.4,0 0.4,0 0.4,0 0.4,0 0.4,0 0.4,0 0.4,0 0.4,0 0.4,0 0.4,0 0.4,0 0.4,0 0.4,0 0.4,0 0.4,0 0.4,0 
		0.4,0 0.4,0 0.4,0 0.4,0 0.4,0 0.4,0 0.4,0 0.4,0 0.4,0 0.4,0 0.4,0 0.4,0 0.4,0 0.4,0 0.4,0 0.4,0 0.4,0 0.3,0 0.3,0 0.3,0 0.3,0 
		0.3,0 0.3,0 0.3,0 0.3,0 0.3,0 0.3,0 0.3,0 0.3,0 0.3,0 0.3,0 0.3,0 0.3,0 0.3,0 0.3,0 0.3,0 0.3,0 0.3,0 0.3,0 0.3,0 0.3,0 0.3,0 
		0.3,0 0.3,0 0.3,0 0.3,0 0.3,0 0.3,0 0.3,0 0.3,0 0.3,0 0.3,0 0.3,0 0.3,0 0.3,0 0.3,0 0.3,0 0.3,0 0.3,0 0.3,0 0.3,0 0.3,0 0.3,0 
		0.3,0 0.3,0 0.3,0 0.3,0 0.3,0 0.3,0 0.3,0 0.3,0 0.3,0 0.3,0 0.3,0 0.3,0 0.3,0 0.3,0 0.3,0 0.3,0 0.3,0 0.3,0 0.3,0 0.3,0 0.3,0 
		0.3,0 0.3,0 0.3,0 0.3,0 0.3,0 0.3,0 0.3,0 0.3,0 0.2,0 0.2,0 0.2,0 0.2,0 0.2,0 0.2,0 0.2,0 0.2,0 0.2,0 0.2,0 0.2,0 0.2,0 0.2,0 
		0.2,0 0.2,0 0.2,0 0.2,0 0.2,0 0.2,0 0.2,0 0.2,0 0.2,0 0.2,0 0.2,0 0.2,0 0.2,0 0.2,0 0.2,0 0.2,0 0.2,0 0.2,0 0.2,0 0.2,0 0.2,0 
		0.2,0 0.2,0 0.2,0 0.2,0 0.2,0 0.2,0 0.1,0 0.1,0 0.1,0 0.1,0 0.1,0 0.1,0 0.1,0 0.1,0 0.1,0 0.1,0 0.1,0 0.1,0 0.1,0 0.1,0 0.1,0 
		0.1,0 0.1,0 0.1,0 0.1,0 0.1,0 0.1,0 0.1,0 0.1,0 0.1,0 0.1,0 0,0 0,0 0,0 0,0 0,0 0,180 0,180 0,180 0,180 0,180 0.1,180 0.1,180 
		0.1,180 0.1,180 0.1,180 0.1,180 0.1,180 0.1,180 0.1,180 0.1,180 0.1,180 0.1,180 0.1,180 0.1,180 0.1,180 0.1,180 0.1,180 
		0.1,180 0.1,180 0.1,180 0.1,180 0.1,180 0.1,180 0.1,180 0.1,180 0.2,180 0.2,180 0.2,180 0.2,180 0.2,180 0.2,180 0.2,180 
		0.2,180 0.2,180 0.2,180 0.2,180 0.2,180 0.2,180 0.2,180 0.2,180 0.2,180 0.2,180 0.2,180 0.2,180 0.2,180 0.2,180 0.2,180 
		0.2,180 0.2,180 0.2,180 0.2,180 0.2,180 0.2,180 0.2,180 0.2,180 0.2,180 0.2,180 0.2,180 0.2,180 0.2,180 0.2,180 0.2,180 
		0.2,180 0.2,180 0.2,180 0.3,180 0.3,180 0.3,180 0.3,180 0.3,180 0.3,180 0.3,180 0.3,180 0.3,180 0.3,180 0.3,180 0.3,180 
		0.3,180 0.3,180 0.3,180 0.3,180 0.3,180 0.3,180 0.3,180 0.3,180 0.3,180 0.3,180 0.3,180 0.3,180 0.3,180 0.3,180 0.3,180 
		0.3,180 0.3,180 0.3,180 0.3,180 0.3,180 0.3,180 0.3,180 0.3,180 0.3,180 0.3,180 0.3,180 0.3,180 0.3,180 0.3,180 0.3,180 
		0.3,180 0.3,180 0.3,180 0.3,180 0.3,180 0.3,180 0.3,180 0.3,180 0.3,180 0.3,180 0.3,180 0.3,180 0.3,180 0.3,180 0.3,180 
		0.3,180 0.3,180 0.3,180 0.3,180 0.3,180 0.3,180 0.3,180 0.3,180 0.3,180 0.3,180 0.3,180 0.3,180 0.3,180 0.3,180 0.3,180 
		0.3,180 0.3,180 0.3,180 0.4,180 0.4,180 0.4,180 0.4,180 0.4,180 0.4,180 0.4,180 0.4,180 0.4,180 0.4,180 0.4,180 0.4,180 
		0.4,180 0.4,180 0.4,180 0.4,180 0.4,180 0.4,180 0.4,180 0.4,180 0.4,180 0.4,180 0.4,180 0.4,180 0.4,180 0.4,180 0.4,180 
		0.4,180 0.4,180 0.4,180 0.4,180 0.4,180 0.4,180 0.4,180 0.4,180 0.4,180 0.4,180 0.4,180 0.4,180 0.4,180 0.4,180 0.4,180 
		0.4,180 0.4,180 0.4,180 0.4,180 0.4,180 0.4,180 0.4,180 0.4,180 0.4,180 0.4,180 0.4,180 0.4,180 0.4,180 0.4,180 0.4,180 
		0.4,180 0.4,180 0.4,180 0.4,180 0.4,180 0.4,180 0.4,180 0.4,180 0.4,180 0.4,180 0.4,180 0.4,180 0.4,180 0.4,180 0.4,180 
		0.4,180 0.4,180 0.4,180 0.4,180 0.4,180 0.4,180 0.4,180 0.4,180 0.4,180 0.4,180 0.5,180 0.5,180 0.5,180 0.5,180 0.5,180 
		0.5,180 0.5,180 0.5,180 0.5,180 0.5,180 0.5,180 0.5,180 0.5,180 0.5,180 0.5,180 0.5,180 0.5,180 0.5,180 0.5,180 0.5,180 
		0.5,180 0.5,180 0.5,180 0.5,180 0.5,180 0.5,180 0.5,180 0.5,180 0.5,180 0.5,180 0.5,180 0.5,180 0.5,180 0.5,180 0.5,180 
		0.5,180 0.5,180 0.5,180 0.5,180 0.5,180 0.5,180 0.5,180 0.5,180 0.5,180 0.5,180 0.5,180 0.5,180 0.5,180 0.5,180 0.5,180 
		0.5,180 0.5,180 0.5,180 0.5,180 0.5,180 0.5,180 0.5,180 0.5,180 0.5,180 0.5,180 0.5,180 0.5,180 0.5,180 0.5,180 0.5,180 
		0.5,180 0.5,180 0.5,180 0.5,180 0.5,180 0.5,180 0.5,180 0.5,180 0.5,180 0.5,180 0.5,180 0.5,180 0.5,180 0.5,180 0.5,180 
		0.5,180 0.6,180 0.6,180 0.6,180 0.6,180 0.6,180 0.6,180 0.6,180 0.6,180 0.6,180 0.6,180 0.6,180 0.6,180 0.6,180 0.6,180 
		0.6,180 0.6,180 0.6,180 0.6,180 0.6,180 0.6,180 0.6,180 0.6,180 0.6,180 0.6,180 0.6,180 0.6,180 0.6,180 0.6,180 0.6,180 
		0.6,180 0.6,180 0.6,180 0.6,180 0.6,180 0.6,180 0.6,180 0.6,180 0.6,180 0.6,180 0.6,180 0.6,180 0.6,180 0.6,180 0.6,180 
		0.6,180 0.6,180 0.6,180 0.6,180 0.6,180 0.6,180 0.6,180 0.6,180 0.6,180 0.6,180 0.6,180 0.6,180 0.6,180 0.6,180 0.6,180 
		0.6,180 0.6,180 0.6,180 0.6,180 0.6,180 0.6,180 0.6,180 0.6,180 0.7,180 0.7,180 0.7,180 0.7,180 0.7,180 0.7,180 0.7,180 
		0.7,180 0.7,180 0.7,180 0.7,180 0.7,180 0.7,180 0.7,180 0.7,180 0.7,180 0.7,180 0.7,180 0.7,180 0.7,180 0.7,180 0.7,180 
		0.7,180 0.7,180 0.7,180 0.7,180 0.7,180 0.7,180 0.7,180 0.7,180 0.7,180 0.7,180 0.7,180 0.7,180 0.8,180 0.8,180 0.8,180 
		0.8,180 0.8,180 0.8,180 0.8,180 0.8,180 0.8,180 0.8,180 0.8,180 0.8,180 0.8,180 0.8,180 0.8,180 0.8,180 0.8,180 0.8,180 
		0.8,180 0.8,180 0.8,180 0.8,180 122.5,180 122.5,0 	"/>
</g>
<g id="figure">
	<path d="M67.7,66.1l0.7,0.2c-2.6,5.2-5.6,9.2-9,11.9c-3.4,2.7-6.5,4.4-9.1,5.2c-2.6,0.7-4.7,1.1-6.3,1.1c-2.4,0-4.2-0.6-5.6-1.7
		c-1.3-1.1-2-2.7-2-4.6c0-2.8,1.3-5.8,3.8-8.9c2.5-3.1,5.9-5.8,10.2-7.9c4.3-2.1,8.9-3.2,13.9-3.2c2.1,0,3.9,0.4,5.4,1.2
		s2.8,2,3.6,3.6c0.8,1.6,1.2,3.7,1.2,6.1c0,1.8-0.2,3.6-0.5,5.2c-0.3,1.6-0.9,3.4-1.7,5.4c7.2-6.7,13.9-12,20.1-15.8
		c6.2-3.8,11.5-5.7,15.8-5.7c1.3,0,2.3,0.3,3.1,0.9c0.7,0.6,1.1,1.5,1.1,2.7c0,2.4-1.3,5.1-3.9,7.9c-2.6,2.8-7.2,5.9-14,9.2
		c-6.7,3.3-15.5,6.5-26.4,9.5c-4.2,4.8-7.4,8.8-9.6,11.8c-2.2,3-4.2,6.1-6,9.2c-1.2,2.2-2.2,4-2.8,5.6c-0.6,1.5-0.9,2.8-0.9,3.7
		c0,0.9,0.4,1.7,1.1,2.2c0.7,0.6,1.6,0.8,2.8,0.8c2.1,0,4.5-0.7,7.3-2c2.8-1.4,5.8-3.3,8.9-5.7c3.1-2.4,6.3-5.2,9.4-8.3v1
		c-10.9,10.6-19.4,15.8-25.8,15.8c-1.5,0-2.7-0.4-3.6-1.1s-1.3-1.8-1.3-3.2c0-3.6,2.4-9.4,7.2-17.5c-5.4,5.2-10.7,9.5-15.7,12.8
		c-5,3.3-9.5,5.7-13.4,7c-3.9,1.4-7.3,2-10.3,2c-1.9,0-3.3-0.2-4.3-0.7c-1-0.5-1.5-1.5-1.5-3c0-3.3,2.2-6.9,6.7-10.8
		c4.5-3.8,10.7-7.4,18.6-10.8c7.9-3.3,16.9-6.1,27-8.2c2.9-3.5,5.1-6.5,6.7-8.9c1.6-2.4,2.7-4.6,3.4-6.6c0.7-2,1-4,1-6
		c0-2.6-0.9-4.7-2.6-6.3c-1.7-1.6-3.9-2.3-6.4-2.3c-5.2,0-9.9,1.1-14.1,3.3c-4.2,2.2-7.4,4.8-9.7,7.8c-2.3,3-3.5,5.7-3.5,8
		c0,1.7,0.6,3.1,1.8,4.1s2.9,1.5,5.1,1.5c2.9,0,5.8-0.7,8.8-2.2s5.8-3.5,8.3-6.1C63.8,72.7,66,69.6,67.7,66.1z M61.2,90.1
		c-8.1,1.8-15.3,3.9-21.6,6.3c-6.3,2.4-11.6,5-15.9,7.7c-4.2,2.7-7.4,5.3-9.6,7.8c-2.2,2.5-3.2,4.8-3.2,6.8c0,2.1,1.6,3.1,4.9,3.1
		c2.1,0,4.8-0.6,8-1.7c3.2-1.2,6.8-2.9,10.6-5.4c3.9-2.4,8-5.6,12.5-9.7C51.5,101,56.2,96,61.2,90.1z M69.2,87.5
		c10-2.9,18.2-5.9,24.5-9c6.3-3.1,10.9-6,13.7-8.8c2.8-2.8,4.2-5.3,4.2-7.5c0-1-0.3-1.8-0.9-2.4c-0.6-0.6-1.5-0.8-2.7-0.8
		c-3.3,0-7.3,1.3-11.9,3.8c-4.6,2.6-9.3,6-14.1,10.4C77.3,77.7,73,82.4,69.2,87.5z"/>
</g>
</svg>
