<?xml version="1.0" encoding="utf-8"?>
<!-- Generator: Adobe Illustrator 22.1.0, SVG Export Plug-In . SVG Version: 6.00 Build 0)  -->
<svg version="1.1" xmlns="http://www.w3.org/2000/svg" xmlns:xlink="http://www.w3.org/1999/xlink" x="0px" y="0px"
	 viewBox="0 0 97.5 180" style="enable-background:new 0 0 97.5 180;" xml:space="preserve">
<style type="text/css">
	.st0{display:none;}
	.st1{display:inline;fill:#FF0000;}
</style>
<g id="bg" class="st0">
	<polyline class="st1" points="97.5,0 0,0 0,0 0,0 0,0 0,0 0,0 0,0 0,0 0,0 0,0 0,0 0,0 0,0 0,0 0,0 0,0 0,0 0,0 0,0 0,0 0,0 0,0 
		0,0 0,0 0,0 0,0 0,0 0,0 0,0 0,0 0,0 0,0 0,0 0,0 0,0 0,0 0,0 0,0 0,0 0,0 0,0 0,0 0,0 0,0 0,0 0,0 0,0 0,0 0,0 0,0 0,0 0,0 0,0 
		0,0 0,0 0,0 0,0 0,0 0,0 0,0 0,0 0,0 0,0 0,0 0,0 0,0 0,0 0,0 0,0 0,0 0,0 0,0 0,0 0,0 0,0 0,0 0,0 0,0 0,0 0,0 0,0 0,0 0,0 0,0 
		0,0 0,0 0,0 0,0 0,0 0,0 0,0 0,0 0,0 0,0 0,0 0,0 0,0 0,0 0,0 0,0 0,0 0,0 0,0 0,0 0,0 0,0 0,0 0,0 0,0 0,0 0,0 0,0 0,0 0,0 0,0 
		0,0 0,0 0,0 0,0 0,0 0,0 0,0 0,0 0,0 0,0 0,0 0,0 0,0 0,0 0,0 0,0 0,0 0,0 0,0 0,0 0,0 0,0 0,0 0,0 0,0 0,0 0,0 0,0 0,0 0,0 0,0 
		0,0 0,0 0,0 0,0 0,0 0,0 0,0 0,0 0,0 0,0 0,0 0,0 0,0 0,0 0,0 0,0 0,0 0,0 0,0 0,0 0,0 0,0 0,0 0,0 0,0 0,0 0,0 0,0 0,0 0,0 0,0 
		0,0 0,0 0,0 0,0 0,0 0,0 0,0 0,0 0,0 0,0 0,0 0,0 0,0 0,0 0,0 0,0 0,0 0,0 0,0 0,0 0,0 0,0 0,0 0,0 0,0 0,0 0,0 0,0 0,0 0,0 0,0 
		0,0 0,0 0,0 0,0 0,0 0,0 0,0 0,0 0,0 0,0 0,0 0,0 0,0 0,0 0,0 0,0 0,0 0,0 0,0 0,0 0,0 0,0 0,0 0,0 0,0 0,0 0,0 0,0 0,0 0,0 0,0 
		0,0 0,0 0,0 0,0 0,0 0,0 0,0 0,0 0,0 0,0 0,0 0,0 0,0 0,0 0,0 0,0 0,0 0,0 0,0 0,0 0,0 0,0 0,0 0,0 0,0 0,0 0,0 0,0 0,0 0,0 0,0 
		0,0 0,0 0,0 0,0 0,0 0,0 0,0 0,0 0,0 0,0 0,0 0,0 0,0 0,0 0,0 0,0 0,0 0,0 0,0 0,0 0,0 0,0 0,0 0,0 0,0 0,0 0,0 0,0 0,0 0,0 0,0 
		0,0 0,0 0,0 0,0 0,0 0,0 0,0 0,0 0,0 0,0 0,0 0,0 0,0 0,0 0,0 0,0 0,0 0,0 0,0 0,0 0,0 0,0 0,0 0,0 0,0 0,0 0,0 0,0 0,0 0,0 0,0 
		0,0 0,0 0,0 0,0 0,0 0,0 0,0 0,0 0,0 0,0 0,0 0,0 0,0 0,0 0,0 0,0 0,0 0,0 0,0 0,0 0,0 0,0 0,0 0,0 0,0 0,0 0,0 0,0 0,0 0,0 0,0 
		0,0 0,0 0,0 0,0 0,0 0,0 0,0 0,0 0,0 0,0 0,0 0,0 0,0 0,0 0,0 0,0 0,0 0,0 0,0 0,0 0,0 0,0 0,0 0,0 0,0 0,0 0,0 0,0 0,0 0,0 0,0 
		0,0 0,0 0,0 0,0 0,0 0,0 0,0 0,0 0,0 0,0 0,0 0,0 0,0 0,0 0,0 0,0 0,0 0,0 0,0 0,0 0,0 0,0 0,0 0,0 0,0 0,0 0,0 0,0 0,0 0,0 0,0 
		0,0 0,0 0,0 0,0 0,0 0,0 0,180 0,180 0,180 0,180 0,180 0,180 0,180 0,180 0,180 0,180 0,180 0,180 0,180 0,180 0,180 0,180 0,180 
		0,180 0,180 0,180 0,180 0,180 0,180 0,180 0,180 0,180 0,180 0,180 0,180 0,180 0,180 0,180 0,180 0,180 0,180 0,180 0,180 0,180 
		0,180 0,180 0,180 0,180 0,180 0,180 0,180 0,180 0,180 0,180 0,180 0,180 0,180 0,180 0,180 0,180 0,180 0,180 0,180 0,180 0,180 
		0,180 0,180 0,180 0,180 0,180 0,180 0,180 0,180 0,180 0,180 0,180 0,180 0,180 0,180 0,180 0,180 0,180 0,180 0,180 0,180 0,180 
		0,180 0,180 0,180 0,180 0,180 0,180 0,180 0,180 0,180 0,180 0,180 0,180 0,180 0,180 0,180 0,180 0,180 0,180 0,180 0,180 0,180 
		0,180 0,180 0,180 0,180 0,180 0,180 0,180 0,180 0,180 0,180 0,180 0,180 0,180 0,180 0,180 0,180 0,180 0,180 0,180 0,180 0,180 
		0,180 0,180 0,180 0,180 0,180 0,180 0,180 0,180 0,180 0,180 0,180 0,180 0,180 0,180 0,180 0,180 0,180 0,180 0,180 0,180 0,180 
		0,180 0,180 0,180 0,180 0,180 0,180 0,180 0,180 0,180 0,180 0,180 0,180 0,180 0,180 0,180 0,180 0,180 0,180 0,180 0,180 0,180 
		0,180 0,180 0,180 0,180 0,180 0,180 0,180 0,180 0,180 0,180 0,180 0,180 0,180 0,180 0,180 0,180 0,180 0,180 0,180 0,180 0,180 
		0,180 0,180 0,180 0,180 0,180 0,180 0,180 0,180 0,180 0,180 0,180 0,180 0,180 0,180 0,180 0,180 0,180 0,180 0,180 0,180 0,180 
		0,180 0,180 0,180 0,180 0,180 0,180 0,180 0,180 0,180 0,180 0,180 0,180 0,180 0,180 0,180 0,180 0,180 0,180 0,180 0,180 0,180 
		0,180 0,180 0,180 0,180 0,180 0,180 0,180 0,180 0,180 0,180 0,180 0,180 0,180 0,180 0,180 0,180 0,180 0,180 0,180 0,180 0,180 
		0,180 0,180 0,180 0,180 0,180 0,180 0,180 0,180 0,180 0,180 0,180 0,180 0,180 0,180 0,180 0,180 0,180 0,180 0,180 0,180 0,180 
		0,180 0,180 0,180 0,180 0,180 0,180 0,180 0,180 0,180 0,180 0,180 0,180 0,180 0,180 0,180 0,180 0,180 0,180 0,180 0,180 0,180 
		0,180 0,180 0,180 0,180 0,180 0,180 0,180 0,180 0,180 0,180 0,180 0,180 0,180 0,180 0,180 0,180 0,180 0,180 0,180 0,180 0,180 
		0,180 0,180 0,180 0,180 0,180 0,180 0,180 0,180 0,180 0,180 0,180 0,180 0,180 0,180 0,180 0,180 0,180 0,180 0,180 0,180 0,180 
		0,180 0,180 0,180 0,180 0,180 0,180 0,180 0,180 0,180 0,180 0,180 0,180 0,180 0,180 0,180 0,180 0,180 0,180 0,180 0,180 0,180 
		0,180 0,180 0,180 0,180 0,180 0,180 0,180 0,180 0,180 0,180 0,180 0,180 0,180 0,180 0,180 0,180 0,180 0,180 0,180 0,180 0,180 
		0,180 0,180 0,180 0,180 0,180 0,180 0,180 0,180 0,180 0,180 0,180 0,180 0,180 0,180 0,180 0,180 0,180 0,180 0,180 0,180 0,180 
		0,180 0,180 0,180 0,180 0,180 0,180 0,180 0,180 0,180 0,180 0,180 0,180 0,180 0,180 0,180 0,180 0,180 0,180 0,180 0,180 0,180 
		0,180 0,180 0,180 0,180 0,180 0,180 0,180 0,180 0,180 0,180 0,180 0,180 0,180 0,180 0,180 97.5,180 	"/>
</g>
<g id="figure">
	<path d="M47.9,67.9l0.8,0.1c-0.6,2.4-2,5-4.4,7.7c-2.4,2.7-5.2,4.9-8.6,6.6c-3.4,1.7-6.8,2.6-10.1,2.6c-1.4,0-2.7-0.4-3.9-1.2
		c-1.2-0.8-1.8-2.2-1.8-4.1c0-2.9,1.3-5.8,3.9-8.9c2.6-3,5.9-5.5,9.9-7.5c4-2,8-2.9,11.9-2.9c6.5,0,9.8,2.9,9.8,8.8
		c0,1.8-0.3,3.7-1,5.5c-0.7,1.8-1.7,3.7-3.1,5.7c-1.4,2-3.4,4.4-5.9,7.1l-2.2,2.4L40.9,92c-3.9,4.1-6.7,7.1-8.3,9
		c-1.6,1.9-2.4,3.4-2.4,4.5c0,0.7,0.3,1.3,0.9,1.9c0.6,0.5,1.4,0.8,2.5,0.8c2.8,0,5.8-0.9,9-2.6c3.2-1.8,6.2-3.9,8.9-6.3
		c2.8-2.4,5-4.6,6.7-6.6l24.4-27h4.8l-31.4,35.5c-4.8,5.5-9,9.8-12.6,13.1s-7.3,5.8-11,7.6c-3.7,1.8-7.6,2.7-11.7,2.7
		c-2.1,0-4-0.3-5.6-0.9c-1.6-0.6-2.9-1.5-3.8-2.7c-0.9-1.2-1.3-2.5-1.3-4c0-1.3,0.3-2.4,1-3.2s1.6-1.2,2.9-1.2
		c1.4,0,2.1,0.6,2.1,1.9c0,1.2-0.6,1.7-1.9,1.7c-0.9,0-1.6-0.7-2-2c-0.4,0.1-0.7,0.4-1,1s-0.4,1.1-0.4,1.7c0,2,1,3.7,2.9,4.9
		c1.9,1.3,4.3,1.9,7.1,1.9c3.7,0,7.2-0.8,10.5-2.5c3.3-1.6,6.3-3.8,9.1-6.5c2.8-2.7,5.5-5.8,8.2-9.2c2.7-3.5,5.2-6.7,7.5-9.5
		c-4.2,4.8-8.3,8.1-12.4,10.1c-4,2-7.3,2.9-9.8,2.9c-3,0-4.5-1.3-4.5-3.9c0-2.2,0.9-4.8,2.6-7.8c1.8-3.1,5.8-7.8,12.2-14.1
		c3.6-3.6,6.2-6.7,7.7-9.2c1.5-2.5,2.3-4.8,2.3-6.9c0-1.9-0.7-3.4-2.2-4.5c-1.5-1.1-3.4-1.7-5.8-1.7c-4.3,0-8.5,1-12.5,3.1
		c-4,2-7.1,4.5-9.5,7.4c-2.4,2.9-3.6,5.6-3.6,7.9c0,1.4,0.5,2.5,1.4,3.3c0.9,0.8,2.2,1.2,3.6,1.2c3.4,0,6.7-0.8,9.9-2.5
		c3.2-1.7,5.9-3.8,8.1-6.4C45.9,72.4,47.3,70,47.9,67.9z M69.7,49.8c1.2,0,1.9,0.8,1.9,2.3c0,1-0.3,1.8-0.8,2.5
		c-0.5,0.7-1.2,1.1-1.9,1.1c-0.5,0-1-0.2-1.3-0.7c-0.3-0.4-0.5-1-0.5-1.6c0-0.9,0.3-1.7,0.8-2.5C68.5,50.2,69.1,49.8,69.7,49.8z
		 M78.7,49.8c1.2,0,1.8,0.8,1.8,2.3c0,0.9-0.3,1.8-0.8,2.5c-0.5,0.7-1.1,1.1-1.9,1.1c-0.5,0-1-0.2-1.3-0.6c-0.4-0.4-0.5-1-0.5-1.7
		c0-0.9,0.3-1.7,0.9-2.5C77.5,50.2,78.1,49.8,78.7,49.8z"/>
</g>
</svg>
