<?xml version="1.0" encoding="utf-8"?>
<!-- Generator: Adobe Illustrator 22.1.0, SVG Export Plug-In . SVG Version: 6.00 Build 0)  -->
<svg version="1.1" xmlns="http://www.w3.org/2000/svg" xmlns:xlink="http://www.w3.org/1999/xlink" x="0px" y="0px"
	 viewBox="0 0 99.5 180" style="enable-background:new 0 0 99.5 180;" xml:space="preserve">
<style type="text/css">
	.st0{display:none;}
	.st1{display:inline;fill:#FF0000;}
</style>
<g id="bg" class="st0">
	<polygon class="st1" points="95.7,0 94.6,0 94.3,0 91.8,0 90.8,0 90.5,0 89.7,0 89.4,0 89.2,0 86.9,0 86.7,0 85.9,0 85.6,0 85.3,0 
		84.7,0 84.5,0 84.3,0 82,0 81.7,0 81.5,0 80.8,0 80.7,0 80.4,0 79.8,0 79.5,0 79.5,0 79.4,0 77,0 76.8,0 76.6,0 75.9,0 75.7,0 
		75.7,0 75.5,0 74.9,0 74.6,0 74.6,0 74.3,0 74.3,0 72.1,0 71.8,0 71.8,0 71.7,0 71,0 70.8,0 70.8,0 70.5,0 70.5,0 69.7,0 69.7,0 
		69.4,0 69.4,0 69.2,0 67.2,0 66.9,0 66.9,0 66.7,0 66.7,0 65.9,0 65.8,0 65.6,0 65.6,0 65.3,0 64.7,0 64.5,0 64.5,0 64.3,0 62.7,0 
		62,0 62,0 61.7,0 61.7,0 61.5,0 60.8,0 60.7,0 60.7,0 60.4,0 59.8,0 59.5,0 59.4,0 58.8,0 57.8,0 57.5,0 57,0 56.8,0 56.8,0 
		56.6,0 55.9,0 55.7,0 55.5,0 55,0 54.9,0 54.6,0 54.3,0 53.9,0 53.7,0 52.9,0 52.6,0 52.3,0 52.1,0 51.8,0 51.7,0 51,0 50.8,0 
		50.5,0 50.1,0 49.8,0 49.7,0 49.4,0 49,0 48.7,0 48.5,0 47.8,0 47.7,0 47.4,0 47.2,0 46.9,0 46.7,0 45.8,0 45.6,0 45.2,0 44.9,0 
		44.6,0 44.5,0 44,0 43.8,0 43.6,0 42.9,0 42.7,0 42.7,0 42.5,0 42,0 41.7,0 40.7,0 40.1,0 40,0 39.7,0 39.1,0 38.8,0 38.8,0 
		38.7,0 38,0 37.8,0 37.8,0 37.5,0 37.5,0 36.8,0 35.2,0 35,0 35,0 34.8,0 34.2,0 33.9,0 33.9,0 33.7,0 33.7,0 32.9,0 32.8,0 
		32.6,0 32.6,0 32.3,0 30.3,0 30.1,0 30.1,0 29.8,0 29.8,0 29,0 29,0 28.7,0 28.7,0 28.5,0 27.8,0 27.7,0 27.7,0 27.4,0 25.2,0 
		25.2,0 24.9,0 24.9,0 24.6,0 24,0 23.8,0 23.8,0 23.6,0 22.9,0 22.7,0 22.5,0 20.1,0 20,0 20,0 19.7,0 19.1,0 18.8,0 18.7,0 18,0 
		17.8,0 17.5,0 15.2,0 15,0 14.8,0 14.2,0 13.9,0 13.7,0 12.8,0 12.6,0 10.3,0 10.1,0 9.8,0 9,0 8.7,0 7.7,0 5.2,0 4.9,0 3.8,0 0,0 
		0,180 3.8,180 4.9,180 5.2,180 7.7,180 8.7,180 9,180 9.8,180 10.1,180 10.3,180 12.6,180 12.8,180 13.7,180 13.9,180 14.2,180 
		14.8,180 15,180 15.2,180 17.5,180 17.8,180 18,180 18.7,180 18.8,180 19.1,180 19.7,180 20,180 20,180 20.1,180 22.5,180 
		22.7,180 22.9,180 23.6,180 23.8,180 23.8,180 24,180 24.6,180 24.9,180 24.9,180 25.2,180 25.2,180 27.4,180 27.7,180 27.7,180 
		27.8,180 28.5,180 28.7,180 28.7,180 29,180 29,180 29.8,180 29.8,180 30.1,180 30.1,180 30.3,180 32.3,180 32.6,180 32.6,180 
		32.8,180 32.9,180 33.7,180 33.7,180 33.9,180 33.9,180 34.2,180 34.8,180 35,180 35,180 35.2,180 36.8,180 37.5,180 37.5,180 
		37.8,180 37.8,180 38,180 38.7,180 38.8,180 38.8,180 39.1,180 39.7,180 40,180 40.1,180 40.7,180 41.7,180 42,180 42.5,180 
		42.7,180 42.7,180 42.9,180 43.6,180 43.8,180 44,180 44.5,180 44.6,180 44.9,180 45.2,180 45.6,180 45.8,180 46.7,180 46.9,180 
		47.2,180 47.4,180 47.7,180 47.8,180 48.5,180 48.7,180 49,180 49.4,180 49.7,180 49.8,180 50.1,180 50.5,180 50.8,180 51,180 
		51.7,180 51.8,180 52.1,180 52.3,180 52.6,180 52.9,180 53.7,180 53.9,180 54.3,180 54.6,180 54.9,180 55,180 55.5,180 55.7,180 
		55.9,180 56.6,180 56.8,180 56.8,180 57,180 57.5,180 57.8,180 58.8,180 59.4,180 59.5,180 59.8,180 60.4,180 60.7,180 60.7,180 
		60.8,180 61.5,180 61.7,180 61.7,180 62,180 62,180 62.7,180 64.3,180 64.5,180 64.5,180 64.7,180 65.3,180 65.6,180 65.6,180 
		65.8,180 65.9,180 66.7,180 66.7,180 66.9,180 66.9,180 67.2,180 69.2,180 69.4,180 69.4,180 69.7,180 69.7,180 70.5,180 70.5,180 
		70.8,180 70.8,180 71,180 71.7,180 71.8,180 71.8,180 72.1,180 74.3,180 74.3,180 74.6,180 74.6,180 74.9,180 75.5,180 75.7,180 
		75.7,180 75.9,180 76.6,180 76.8,180 77,180 79.4,180 79.5,180 79.5,180 79.8,180 80.4,180 80.7,180 80.8,180 81.5,180 81.7,180 
		82,180 84.3,180 84.5,180 84.7,180 85.3,180 85.6,180 85.9,180 86.7,180 86.9,180 89.2,180 89.4,180 89.7,180 90.5,180 90.8,180 
		91.8,180 94.3,180 94.6,180 95.7,180 99.5,180 99.5,0 	"/>
</g>
<g id="figure">
	<g>
		<g>
			<path d="M59.5,113.3c-0.3,0.9-0.6,1.1-1,1.5c-0.3,0.3-0.6,0.6-1,0.9c-0.6,0.5-1.3,1-1.9,1.5c-1.3,1-2.7,1.8-4,2.7
				c-1.4,0.8-2.8,1.6-4.4,2.2c-0.8,0.3-1.6,0.5-2.4,0.7c-0.8,0.2-1.6,0.5-2.7,0.4c-0.5,0-1.2-0.3-1.7-0.8c-0.5-0.5-0.7-1.1-0.9-1.6
				c-0.2-1.1-0.2-2-0.1-2.9c0.1-1.8,0.5-3.5,1.2-5.2c0.6-1.6,1.5-3.1,2.8-4.6l0.9-0.9c0.3-0.3,0.5-0.6,0.8-0.8
				c0.6-0.6,1.1-1.1,1.7-1.7c2.4-2.2,5-4.2,8.4-5.8c0.9-0.4,1.8-0.7,2.9-0.8c0.6-0.1,1.2-0.1,1.8,0.1c0.2,0,0.3,0.1,0.5,0.1
				c0.2,0.1,0.4,0.1,0.6,0.2c0.4,0.2,0.8,0.5,1.1,0.8c0.6,0.6,0.8,1.3,1,1.9c0.1,0.6,0.2,1.1,0.2,1.6c0,1-0.1,1.8-0.3,2.7
				c-0.3,1.7-0.8,3.2-1.3,4.7c-0.1,0.4-0.2,0.7-0.3,1.1l0,0.2c0,0,0,0.1,0-0.1c0,0,0-0.1,0-0.1c0,0-0.1-0.2-0.1-0.3
				c0-0.1-0.1-0.2-0.4-0.4c-0.2-0.1-0.4-0.2-0.6-0.2c-0.3,0-0.4,0-0.4,0c-0.1,0-0.2,0.1-0.2,0.1c0,0-0.1,0.1-0.1,0.1
				c-0.1,0.1,0,0,0,0c0.1-0.1,0.3-0.3,0.4-0.4l0.4-0.4l0.9-0.8c2.3-2.2,4.7-4.2,7.1-6.2c1.2-1,2.4-2,3.7-3c0.6-0.5,1.3-1,2-1.4
				c0.2-0.1,0.4-0.2,0.6-0.3c0.1,0,0.2-0.1,0.5-0.1c0.1,0,0.1,0,0.3,0c0.1,0,0.3,0.3,0.3,0.4c0,0.1,0,0.2,0,0.2l0,0.1
				c0,0.1,0,0.1,0,0.2c-0.3,0.5-0.5,0.8-0.7,1.2c-0.7,1.5-1.7,2.7-2.7,4l-2.8,3.8c-1.9,2.5-3.9,4.9-5.9,7.1
				c-0.5,0.5-1.1,1.1-1.6,1.6c-0.3,0.3-0.5,0.5-0.7,0.8l-0.7,0.9c-0.5,0.6-0.9,1.2-1.2,1.8c-0.2,0.3-0.3,0.6-0.4,0.9
				c-0.1,0.3-0.1,0.5-0.1,0.5s0-0.1-0.1-0.2c-0.1-0.1-0.2-0.1-0.2-0.1c0,0,0.3,0.1,0.6,0c0.6-0.1,1.3-0.2,2-0.5
				c1.4-0.5,2.7-1.1,4.1-1.9c2.7-1.5,5.4-3,8.1-4.6c2.7-1.6,5.4-3.2,8-4.8l4-2.4l2-1.2l1-0.6c0.4-0.2,0.6-0.6,1.3-0.1l0.2,0.2
				c0.1,0.9-0.4,0.9-0.6,1.2l-0.9,0.7l-1.9,1.4c-1.3,0.9-2.6,1.8-3.9,2.7c-2.6,1.8-5.2,3.5-7.9,5.2c-2.7,1.7-5.3,3.3-8.2,4.8
				c-0.7,0.4-1.4,0.7-2.1,1.1c-0.7,0.3-1.5,0.7-2.3,1c-0.8,0.3-1.6,0.5-2.5,0.7c-0.5,0.1-1,0.1-1.8-0.1c-0.3-0.1-0.8-0.3-1.1-0.7
				c-0.4-0.4-0.5-0.9-0.6-1.2c-0.1-0.8,0-1.3,0.1-1.8c0.1-0.5,0.3-0.9,0.4-1.3c0.3-0.8,0.6-1.6,0.9-2.4l0.5-1.1
				c0.2-0.4,0.4-0.8,0.6-1.2c0.4-0.8,0.9-1.5,1.4-2.1c1-1.3,2.1-2.4,3.2-3.6c1.1-1.1,2.3-2.1,3.6-3.1l3.7-3c1.2-1,2.4-2,3.7-2.9
				c0.3-0.2,0.6-0.5,0.7-0.7c0,0,0,0,0,0c0,0,0,0,0,0c0,0,0,0.1,0,0.1c0,0,0,0.1,0.1,0.2c0.1,0.1,0.1,0.1,0.2,0.1c0.1,0,0.1,0,0.1,0
				c0.1,0,0,0-0.1,0.1c-0.1,0.1-0.3,0.2-0.4,0.3c-0.6,0.4-1.2,0.9-1.8,1.4c-1.2,1-2.3,2.1-3.4,3.2c-2.2,2.2-4.4,4.4-6.4,6.8
				l-0.7,0.9l-0.3,0.4l-0.4,0.5c-0.1,0.1-0.2,0.2-0.4,0.4c0,0-0.2,0.1-0.3,0.2c0,0-0.2,0.1-0.3,0.1c-0.1,0-0.2,0.1-0.5,0
				c-0.2,0-0.5-0.1-0.7-0.3c-0.2-0.2-0.4-0.4-0.4-0.4c-0.1-0.1-0.1-0.3-0.1-0.3c0-0.1,0-0.1,0-0.2c-0.1-0.4,0-0.5,0-0.7l0-0.4
				c0.1-0.5,0.1-0.8,0.2-1.2c0.3-1.6,0.6-3.1,0.7-4.5c0.1-0.7,0.1-1.4,0-2c0-0.6-0.3-1-0.3-0.9c0,0,0.1,0.1,0.1,0.1c0,0,0,0,0,0
				c0,0-0.1,0-0.1,0c-0.1,0-0.3,0-0.5,0.1c-0.4,0.1-0.9,0.4-1.5,0.7c-1.1,0.7-2.1,1.6-3.2,2.7c-1,1-2.1,2.1-3.1,3.2l-1.6,1.7
				c-0.3,0.3-0.5,0.6-0.8,0.8l-0.8,0.8c-0.8,0.8-1.7,2-2.6,3.1c-0.9,1.1-1.8,2.3-2.5,3.5c-0.3,0.6-0.6,1.2-0.7,1.7
				c0,0.2,0,0.4,0,0.5c0,0.1,0.1,0.2,0.3,0.3c0.5,0.2,1.2,0,1.9-0.2c0.7-0.2,1.3-0.6,1.9-1.1c1.2-0.8,2.5-1.7,3.7-2.6
				c1.2-0.9,2.4-1.9,3.5-3c0.6-0.5,1.1-1,1.6-1.6c0.2-0.3,0.5-0.5,0.7-0.8c0.2-0.2,0.4-0.6,0.5-0.4L59.5,113.3z"/>
		</g>
		<g>
			<path d="M9.9,122.8c0.2-1.2,0.7-1.8,1.3-2.2l1.9-1.1l3.8-2.3c2.6-1.5,5.1-3,7.7-4.4c5.2-2.8,10.6-5.4,16-7.9
				c2.7-1.2,5.4-2.5,8.1-3.7c1.4-0.6,2.8-1.2,4.2-1.7c1.4-0.5,2.9-1,4.6-1.1c0.8-0.1,1.9,0.1,2.7,0.6c0.4,0.2,0.8,0.4,1.1,0.7
				c0.1,0.1,0.4,0.3,0.6,0.6c0.2,0.2,0.4,0.5,0.5,0.8c0.4,1.1,0.3,1.9,0.2,2.8c-0.1,0.8-0.3,1.6-0.5,2.4c-0.4,1.5-0.8,3-1.4,4.5
				c-0.3,0.7-0.7,1.4-1.1,2.1c-0.2,0.3-0.4,0.7-0.7,1c-0.2,0.3-0.5,0.7-1.7,0.2l-0.8-0.6c-0.7-1-0.6-1.3-0.4-1.6l0.5-0.9l1.1-1.8
				c0.8-1.2,1.5-2.4,2.1-3.7c0.3-0.6,0.5-1.3,0.6-1.9c0.1-0.6,0.1-1.3,0-1.6c0-0.1-0.1-0.1-0.1-0.2c0,0,0,0-0.2-0.2
				c-0.3-0.2-0.6-0.4-0.8-0.5c-0.5-0.3-1-0.3-1.6-0.3c-1.2,0-2.6,0.5-4,1c-1.3,0.5-2.7,1.1-4,1.7c-2.7,1.2-5.3,2.6-7.9,3.9
				c-5.3,2.6-10.5,5.3-15.6,8.2c-2.6,1.4-5.1,2.9-7.7,4.3l-3.9,2.2l-1.9,1.1c-0.7,0.3-1.4,0.5-2.6,0L9.9,122.8z"/>
		</g>
	</g>
</g>
</svg>
