<?xml version="1.0" encoding="utf-8"?>
<!-- Generator: Adobe Illustrator 22.1.0, SVG Export Plug-In . SVG Version: 6.00 Build 0)  -->
<svg version="1.1" xmlns="http://www.w3.org/2000/svg" xmlns:xlink="http://www.w3.org/1999/xlink" x="0px" y="0px"
	 viewBox="0 0 151.2 180" style="enable-background:new 0 0 151.2 180;" xml:space="preserve">
<style type="text/css">
	.st0{display:none;}
	.st1{display:inline;fill:#FF0000;}
</style>
<g id="bg" class="st0">
	<polygon class="st1" points="142.4,0 142.2,0 140,0 139.6,0 136.4,0 133.4,0 131.2,0 131.2,0 130.9,0 130.8,0 130.6,0 129.5,0 
		128.3,0 127.6,0 127.3,0 125.1,0 124.8,0 122.4,0 122.2,0 122.1,0 121.8,0 120.7,0 120.5,0 120,0 119.6,0 119.5,0 119.3,0 118.5,0 
		118.3,0 117.9,0 116.4,0 116.3,0 116.1,0 115.9,0 115.7,0 114.7,0 113.5,0 113.4,0 111.7,0 111.2,0 110.9,0 110.8,0 110.6,0 
		110.5,0 109.5,0 109.5,0 109.2,0 109.1,0 108.9,0 108.3,0 107.6,0 107.3,0 107.3,0 106.9,0 106.6,0 105.9,0 105.6,0 105.1,0 
		104.8,0 104.7,0 104.4,0 103.4,0 103,0 102.1,0 101.8,0 100.7,0 100.5,0 100.4,0 100.1,0 99.5,0 99.3,0 98.5,0 98.3,0 97.9,0 
		97.8,0 97.6,0 97.3,0 96.8,0 96.3,0 96.1,0 95.9,0 95.7,0 95.6,0 94.7,0 94.6,0 94.4,0 94.2,0 94,0 93.5,0 91.8,0 91.7,0 90.5,0 
		89.5,0 89.2,0 89.1,0 88.9,0 88.8,0 88.5,0 88.3,0 87.3,0 86.9,0 86.6,0 86.1,0 85.9,0 85.7,0 85.6,0 85.5,0 85.2,0 84.7,0 84.4,0 
		83.4,0 83,0 83,0 82.7,0 82.5,0 80.4,0 80.1,0 79.5,0 77.8,0 77.6,0 77.3,0 77.2,0 77,0 76.9,0 76.8,0 76.7,0 75.6,0 75.6,0 
		74.6,0 74.4,0 74.4,0 74.2,0 74,0 73.9,0 73.6,0 73.4,0 71.8,0 71.2,0 70.8,0 68.8,0 68.5,0 68.3,0 68.2,0 67.9,0 66.8,0 66.6,0 
		66.1,0 65.7,0 65.6,0 65.5,0 65.4,0 65.2,0 64.6,0 64.3,0 64,0 63,0 62.7,0 62.5,0 62.4,0 62.2,0 62,0 61.8,0 60.8,0 59.6,0 
		59.5,0 57.8,0 57.2,0 57,0 56.9,0 56.7,0 56.6,0 55.6,0 55.5,0 55.3,0 55.2,0 55,0 54.4,0 53.9,0 53.6,0 53.4,0 53.3,0 53,0 
		52.7,0 51.9,0 51.7,0 51.2,0 50.8,0 50.7,0 50.5,0 49.5,0 49.1,0 48.2,0 47.9,0 46.8,0 46.6,0 46.5,0 46.1,0 45.6,0 45.4,0 44.6,0 
		44.3,0 44,0 43.9,0 43.7,0 42.9,0 42.4,0 42.2,0 42,0 41.8,0 41.7,0 40.8,0 40.7,0 40.4,0 40.3,0 40.1,0 39.6,0 37.9,0 37.8,0 
		36.6,0 35.5,0 35.3,0 35.2,0 35,0 34.9,0 33.3,0 33,0 32.7,0 31.9,0 31.7,0 31.6,0 31.3,0 30.7,0 30.5,0 29.5,0 29.1,0 29,0 
		28.8,0 26.5,0 26.1,0 23.9,0 23.7,0 22.9,0 21.7,0 20.7,0 20.4,0 20.3,0 20.1,0 20,0 17.9,0 14.9,0 11.6,0 11.3,0 9,0 8.8,0 0,0 
		0,180 8.8,180 9,180 11.3,180 11.6,180 14.9,180 17.9,180 20,180 20.1,180 20.3,180 20.4,180 20.7,180 21.7,180 22.9,180 23.7,180 
		23.9,180 26.1,180 26.5,180 28.8,180 29,180 29.1,180 29.5,180 30.5,180 30.7,180 31.3,180 31.6,180 31.7,180 31.9,180 32.7,180 
		33,180 33.3,180 34.9,180 35,180 35.2,180 35.3,180 35.5,180 36.6,180 37.8,180 37.9,180 39.6,180 40.1,180 40.3,180 40.4,180 
		40.7,180 40.8,180 41.7,180 41.8,180 42,180 42.2,180 42.4,180 42.9,180 43.7,180 43.9,180 44,180 44.3,180 44.6,180 45.4,180 
		45.6,180 46.1,180 46.5,180 46.6,180 46.8,180 47.9,180 48.2,180 49.1,180 49.5,180 50.5,180 50.7,180 50.8,180 51.2,180 51.7,180 
		51.9,180 52.7,180 53,180 53.3,180 53.4,180 53.6,180 53.9,180 54.4,180 55,180 55.2,180 55.3,180 55.5,180 55.6,180 56.6,180 
		56.7,180 56.9,180 57,180 57.2,180 57.8,180 59.5,180 59.6,180 60.8,180 61.8,180 62,180 62.2,180 62.4,180 62.5,180 62.7,180 
		63,180 64,180 64.3,180 64.6,180 65.2,180 65.4,180 65.5,180 65.6,180 65.7,180 66.1,180 66.6,180 66.8,180 67.9,180 68.2,180 
		68.3,180 68.5,180 68.8,180 70.8,180 71.2,180 71.8,180 73.4,180 73.6,180 73.9,180 74,180 74.2,180 74.4,180 74.4,180 74.6,180 
		75.6,180 75.6,180 76.7,180 76.8,180 76.9,180 77,180 77.2,180 77.3,180 77.6,180 77.8,180 79.5,180 80.1,180 80.4,180 82.5,180 
		82.7,180 83,180 83,180 83.4,180 84.4,180 84.7,180 85.2,180 85.5,180 85.6,180 85.7,180 85.9,180 86.1,180 86.6,180 86.9,180 
		87.3,180 88.3,180 88.5,180 88.8,180 88.9,180 89.1,180 89.2,180 89.5,180 90.5,180 91.7,180 91.8,180 93.5,180 94,180 94.2,180 
		94.4,180 94.6,180 94.7,180 95.6,180 95.7,180 95.9,180 96.1,180 96.3,180 96.8,180 97.3,180 97.6,180 97.8,180 97.9,180 98.3,180 
		98.5,180 99.3,180 99.5,180 100.1,180 100.4,180 100.5,180 100.7,180 101.8,180 102.1,180 103,180 103.4,180 104.4,180 104.7,180 
		104.8,180 105.1,180 105.6,180 105.9,180 106.6,180 106.9,180 107.3,180 107.3,180 107.6,180 108.3,180 108.9,180 109.1,180 
		109.2,180 109.5,180 109.5,180 110.5,180 110.6,180 110.8,180 110.9,180 111.2,180 111.7,180 113.4,180 113.5,180 114.7,180 
		115.7,180 115.9,180 116.1,180 116.3,180 116.4,180 117.9,180 118.3,180 118.5,180 119.3,180 119.5,180 119.6,180 120,180 
		120.5,180 120.7,180 121.8,180 122.1,180 122.2,180 122.4,180 124.8,180 125.1,180 127.3,180 127.6,180 128.3,180 129.5,180 
		130.6,180 130.8,180 130.9,180 131.2,180 131.2,180 133.4,180 136.4,180 139.6,180 140,180 142.2,180 142.4,180 151.2,180 151.2,0 
			"/>
</g>
<g id="figure">
	<g>
		<g>
			<g>
				<path d="M59.5,113.3c-0.2,0.8-0.6,1-0.9,1.4c-0.3,0.3-0.6,0.6-0.9,0.8c-0.6,0.5-1.2,1-1.8,1.4c-1.2,0.9-2.4,1.7-3.7,2.5
					c-1.3,0.8-2.5,1.5-3.9,2.1c-1.4,0.6-2.8,1-4.3,1.4c-0.8,0.2-1.6,0.4-2.7,0.1c-0.5-0.2-1.1-0.6-1.4-1.1c-0.3-0.5-0.4-1-0.5-1.5
					c-0.1-0.9-0.1-1.8-0.1-2.6c0.1-0.8,0.2-1.6,0.4-2.4c0.3-1.6,0.9-3.1,1.6-4.5c0.4-0.7,0.8-1.4,1.3-2.1c0.3-0.3,0.6-0.7,0.9-1
					l0.7-0.8c2-2.1,4.2-4.1,6.7-5.8c1.3-0.9,2.6-1.7,4.2-2.3c0.8-0.3,1.7-0.6,2.7-0.7c0.5-0.1,1.1-0.1,1.6,0
					c0.3,0.1,0.6,0.1,0.9,0.2c0.4,0.1,0.7,0.3,1,0.6c0.6,0.5,1,1.2,1.2,1.7c0.2,0.6,0.3,1.1,0.3,1.5c0.1,0.9,0,1.8-0.2,2.5
					c-0.3,1.6-0.7,3-1.1,4.4c-0.2,0.7-0.4,1.4-0.6,2c0,0.1-0.1,0.3-0.1,0.3c0,0,0,0,0,0l0,0c0,0,0-0.1,0-0.1c0,0-0.1-0.3-0.2-0.4
					c-0.1-0.1-0.3-0.3-0.5-0.4c-0.2-0.1-0.4-0.1-0.6-0.1c-0.2,0-0.2,0-0.4,0c-0.1,0-0.2,0.1-0.2,0.1c0,0-0.1,0.1-0.1,0.1
					c0,0,0,0,0,0c0,0,0.1-0.1,0.3-0.3l0.4-0.4c1.1-1.1,2.1-2,3.2-3c2.1-1.9,4.3-3.8,6.6-5.6c1.1-0.9,2.2-1.8,3.4-2.7
					c0.3-0.2,0.6-0.4,1-0.6c0.2-0.1,0.3-0.2,0.7-0.3c0.1,0,0.4-0.1,0.6,0.3c0.1,0.3,0,0.4,0,0.5c-0.1,0.2-0.1,0.2-0.2,0.3
					c-0.4,0.7-0.7,1.3-1.1,2c-3.4,4.7-6.8,9.4-10.6,13.5c-1,1-1.9,1.9-2.8,2.8c-0.4,0.5-0.9,1-1.2,1.6c-0.4,0.5-0.6,1.1-0.7,1.5
					c0,0.2,0,0.3-0.1,0.2c-0.1-0.1-0.2-0.1-0.1-0.1c0.3,0.1,0.9,0.1,1.5,0c1.3-0.2,2.5-0.6,3.7-1.2c2.5-1.2,4.9-2.6,7.4-4
					c1.2-0.7,2.4-1.5,3.6-2.2c0.6-0.4,1.2-0.8,1.8-1.1c0.3-0.2,0.6-0.3,1-0.5c0.2-0.1,0.3-0.1,0.6-0.1c0.2,0,0.4,0,0.8,0.3l0,0
					c0.1,0.5,0,0.6-0.1,0.9c-0.1,0.2-0.2,0.4-0.3,0.5c-0.3,0.2-0.5,0.5-0.8,0.7c-0.6,0.4-1.2,0.8-1.8,1.2c-1.2,0.8-2.4,1.6-3.6,2.4
					c-2.4,1.6-4.9,3.1-7.6,4.3c-0.7,0.3-1.4,0.6-2.1,0.9c-0.8,0.3-1.5,0.5-2.3,0.6c-0.8,0.1-1.6,0.3-2.7,0.1
					c-0.5-0.1-1.4-0.5-1.8-1.3c-0.4-0.8-0.4-1.4-0.3-1.9c0.1-1,0.4-1.8,0.7-2.5c0.3-0.7,0.6-1.5,0.9-2.2l0.2-0.5
					c0.1-0.2,0.2-0.4,0.3-0.6c0.2-0.4,0.4-0.7,0.6-1c0.4-0.7,0.8-1.3,1.3-1.9c3.7-4.6,8.6-7.8,12.9-11.5c0.6-0.4,1.2-0.8,1.6-1.3
					c0-0.1,0.1-0.1,0.1-0.1c0,0,0,0,0,0.2c0.2,0.3,0.4,0.2,0.4,0.3c0.1,0-0.2,0.1-0.3,0.2c-0.3,0.2-0.5,0.4-0.8,0.6
					c-1.1,0.9-2.1,1.8-3.2,2.8c-2.1,1.9-4.1,4-6,6.1c-1,1-1.9,2.1-2.8,3.2l-0.3,0.4c-0.1,0.1-0.2,0.3-0.4,0.5c0,0.1-0.1,0.1-0.2,0.2
					c-0.1,0-0.2,0.1-0.3,0.2c0,0-0.2,0.1-0.3,0.1c-0.1,0-0.2,0.1-0.4,0.1c-0.2,0-0.4-0.1-0.6-0.2c-0.2-0.1-0.4-0.3-0.5-0.4
					c-0.1-0.2-0.2-0.5-0.3-0.5l0-0.2l0-0.1l0-0.2c0-0.4,0-0.6,0.1-0.8c0.1-0.8,0.2-1.5,0.4-2.2c0.2-1.4,0.5-2.8,0.5-4
					c0-0.6,0-1.3-0.1-1.7c-0.1-0.5-0.3-0.7-0.2-0.5c0.3,0.2-0.1,0.1-0.5,0.2c-0.4,0.1-0.9,0.3-1.3,0.6c-1,0.6-2,1.5-2.9,2.4
					c-1.9,1.8-3.7,3.9-5.7,5.9l-0.8,0.8c-0.2,0.2-0.4,0.4-0.5,0.6c-0.4,0.4-0.8,0.9-1.2,1.4c-0.8,1-1.6,2-2.4,3.1
					c-0.8,1-1.5,2.2-1.7,3.2c-0.1,0.2-0.1,0.5-0.1,0.6c0,0.1,0,0.2,0.1,0.3c0.2,0.2,0.9,0.3,1.5,0.1c1.3-0.3,2.4-1.1,3.5-1.9
					c1.1-0.8,2.3-1.6,3.3-2.5c1.1-0.9,2.1-1.8,3.1-2.7c0.5-0.5,1-1,1.4-1.4c0.2-0.2,0.4-0.5,0.6-0.7c0.2-0.2,0.3-0.5,0.4-0.3
					L59.5,113.3z"/>
			</g>
			<g>
				<path d="M9.9,122.8c0.2-1.2,0.7-1.8,1.3-2.2l1.9-1.1l3.8-2.3c2.6-1.5,5.1-3,7.7-4.4c5.2-2.8,10.6-5.4,16-7.9
					c2.7-1.2,5.4-2.5,8.1-3.7c1.4-0.6,2.8-1.2,4.2-1.7c1.4-0.5,2.9-1,4.6-1.1c0.8-0.1,1.9,0.1,2.7,0.6c0.4,0.2,0.8,0.4,1.1,0.7
					c0.1,0.1,0.4,0.3,0.6,0.6c0.2,0.2,0.4,0.5,0.5,0.8c0.4,1.1,0.3,1.9,0.2,2.8c-0.1,0.8-0.3,1.6-0.5,2.4c-0.4,1.5-0.8,3-1.4,4.5
					c-0.3,0.7-0.7,1.4-1.1,2.1c-0.2,0.3-0.4,0.7-0.7,1c-0.2,0.3-0.5,0.7-1.7,0.2l-0.8-0.6c-0.7-1-0.6-1.3-0.4-1.6l0.5-0.9l1.1-1.8
					c0.8-1.2,1.5-2.4,2.1-3.7c0.3-0.6,0.5-1.3,0.6-1.9c0.1-0.6,0.1-1.3,0-1.6c0-0.1-0.1-0.1-0.1-0.2c0,0,0,0-0.2-0.2
					c-0.3-0.2-0.6-0.4-0.8-0.5c-0.5-0.3-1-0.3-1.6-0.3c-1.2,0-2.6,0.5-4,1c-1.3,0.5-2.7,1.1-4,1.7c-2.7,1.2-5.3,2.6-7.9,3.9
					c-5.3,2.6-10.5,5.3-15.6,8.2c-2.6,1.4-5.1,2.9-7.7,4.3l-3.9,2.2l-1.9,1.1c-0.7,0.3-1.4,0.5-2.6,0L9.9,122.8z"/>
			</g>
			<g>
				<g>
					<path d="M66.3,87.4c0-0.3,0.2-0.5,0.3-0.7l0.4-0.6l0.8-1.3l1.5-2.5c1-1.7,2.1-3.3,3.2-4.9c1.1-1.6,2.1-3.3,3.4-4.8
						c0.6-0.8,1-1.6,1.8-2.3c0.8-0.6,1.6-1.2,3.7-0.7l0.4,0.3c0.9,2,0.4,2.8-0.1,3.7c-0.5,0.9-1.3,1.4-1.9,2.2
						c-1.3,1.5-2.7,2.8-4.1,4.1c-1.4,1.3-2.8,2.7-4.3,4L69,85.9l-1.1,1l-0.6,0.5c-0.2,0.2-0.4,0.3-0.6,0.4L66.3,87.4z"/>
				</g>
				<g>
					<path d="M75.3,87.4c0-0.3,0.2-0.5,0.3-0.7l0.4-0.6l0.8-1.3l1.5-2.5c1-1.7,2.1-3.3,3.2-4.9c1.1-1.6,2.1-3.3,3.4-4.8
						c0.6-0.8,1-1.6,1.8-2.3c0.8-0.6,1.6-1.2,3.7-0.7l0.4,0.3c0.9,2,0.4,2.8-0.1,3.7c-0.5,0.9-1.3,1.4-1.9,2.2
						c-1.3,1.5-2.7,2.8-4.1,4.1c-1.4,1.3-2.8,2.7-4.3,4L78,85.9l-1.1,1l-0.6,0.5c-0.2,0.2-0.4,0.3-0.6,0.4L75.3,87.4z"/>
				</g>
			</g>
		</g>
		<g>
			<g>
				<path d="M73.9,114.9c0.8-1.6,2.1-2.6,3.4-3.5c1.3-0.9,2.6-1.8,3.9-2.7c2.7-1.8,5.4-3.5,8.2-5.1c2.8-1.6,5.6-3.1,8.6-4.4
					c1.5-0.6,3-1.3,4.6-1.6c0.4-0.1,0.8-0.2,1.2-0.2c0.4-0.1,0.8-0.1,1.2-0.2l0.6-0.1c0.1,0,0.2,0,0.3-0.1l0.2,0l0.1,0
					c0,0,0,0,0.3,0c0.2,0,0.6,0.3,0.6,0.8c0,0.2,0,0.3-0.1,0.4l-0.1,0.3c0,0.2-0.1,0.3-0.1,0.4c-0.1,0.2-0.2,0.4-0.3,0.7
					c-1.4,3.3-4,5.2-6.2,7.5c-2.3,2.2-4.7,4.3-7.1,6.3c-1.2,1-2.5,2-3.7,3l-1.8,1.5c-0.3,0.3-0.6,0.5-0.9,0.7
					c-0.3,0.2-0.6,0.4-0.9,0.7l-0.4,0.3c-0.1,0-0.1,0.1-0.2,0.1c0,0-0.1,0,0,0c0,0,0,0,0-0.1c0-0.1,0-0.2-0.1-0.2
					c0-0.1-0.1-0.2-0.2-0.2c0,0,0,0,0,0c0,0,0,0,0,0c0,0,0.1,0,0.2,0c0.1,0,0.3-0.1,0.5-0.2c0.6-0.3,1.3-0.8,1.9-1.2
					c1.3-0.9,2.5-2,3.8-2.9c1.3-1,2.6-2,4.2-2.8c0.4-0.2,0.9-0.4,1.4-0.5c0.3-0.1,0.6-0.1,1-0.1c0.1,0,0.2,0,0.3,0l0.2,0l0.4,0.1
					c0.5,0.2,1.1,0.4,1.7,0.9c0.5,0.5,0.9,1.2,1.1,1.8c0.3,1.3,0,2.3-0.3,3.1c-0.3,0.9-0.6,1.6-1,2.5c-0.2,0.4-0.5,0.8-1,1.3
					c-0.2,0.2-0.5,0.4-1,0.6c-0.4,0.2-1.1,0.2-1.6,0c-0.5-0.2-0.8-0.6-0.9-0.8c-0.2-0.3-0.3-0.5-0.4-0.8c-0.1-0.3-0.1-0.5-0.2-0.7
					l0-0.2c0-0.1,0-0.2,0-0.3c0-0.2,0-0.4,0.1-0.5c0.2-0.6,0.4-1,0.6-1.4c0.2-0.4,0.4-0.7,0.7-1.1c0.5-0.7,0.9-1.4,1.4-2
					c1-1.3,2.1-2.5,3.1-3.7c2.2-2.4,4.4-4.7,6.6-7c1.2-1.2,2.5-2.2,3.9-3.2c1.4-0.9,2.8-1.8,4.5-2.3c0.9-0.3,1.8-0.5,3-0.3
					c0.6,0.1,1.2,0.3,1.7,0.8c0.5,0.4,0.9,1,1.1,1.6c0.4,1.2,0.3,2.2,0.2,3.2c-0.1,0.9-0.3,1.8-0.5,2.6c-0.9,3.3-2.2,6.4-3.9,9.3
					c-1.7,2.8-3.5,5.5-5.5,8.1c-1.9,2.6-4,5.1-6.1,7.6c-2.1,2.4-4.3,4.8-6.5,7.2c-2.3,2.3-4.7,4.6-7.2,6.7c-1.2,1-2.5,2-3.8,3
					c-1.3,1-2.5,1.9-3.8,2.9c-2.6,1.9-5.2,3.8-8,5.6c-1.4,0.9-2.9,1.7-4.5,2.4c-0.8,0.3-1.6,0.6-2.6,0.8c-0.9,0.2-1.9,0.3-3,0.1
					c-0.3,0-0.5-0.1-0.8-0.2l-0.4-0.1l-0.1,0l-0.2-0.1c-0.1-0.1-0.2-0.1-0.3-0.2c-0.5-0.4-0.7-1-0.7-1.4c0-0.4,0-0.8,0.1-1
					c0.3-1.1,0.8-1.8,1.2-2.5c0.9-1.4,2-2.7,3-3.9c2.1-2.5,4.2-4.9,6.5-7.1c2.3-2.3,4.6-4.5,7.1-6.5c1.2-1,2.5-2,3.9-3
					c0.7-0.4,1.5-0.9,2.1-1.3l2.1-1.1l16.8-9.1c5.6-3.1,11.2-6.1,16.8-9.1l8.5-4.4l4.2-2.2c1.4-0.8,2.8-1.4,4.7-1.3l0,0
					c-0.9,1.7-2.3,2.5-3.7,3.3l-4.2,2.3l-8.3,4.6c-5.6,3.1-11.2,6.1-16.8,9.1l-16.8,9l-2.1,1.1c-0.7,0.4-1.3,0.7-2,1.1
					c-1.3,0.8-2.5,1.8-3.7,2.8c-2.4,2-4.8,4.1-7,6.3c-2.2,2.2-4.4,4.5-6.4,6.9c-1,1.2-1.9,2.5-2.7,3.8c-0.4,0.6-0.7,1.3-0.7,1.8
					c0,0.1,0,0.2,0,0.2c0,0,0-0.3-0.2-0.4c0,0-0.1-0.1-0.1-0.1l0,0l0,0l0.2,0.1c0.1,0,0.3,0,0.4,0.1c1.1,0.1,2.4-0.4,3.6-1.1
					c1.3-0.7,2.5-1.6,3.7-2.6c2.4-1.9,4.8-4,7.1-6.2l7-6.4c2.3-2.1,4.4-4.3,6.5-6.6c2.1-2.3,4.1-4.7,6.1-7.1c2-2.4,4-4.8,5.9-7.3
					c1.9-2.4,3.8-4.9,5.6-7.4c1.8-2.5,3.8-4.9,5.2-7.5c0.3-0.6,0.6-1.3,0.8-1.9c0.2-0.6,0.2-1.2,0.2-1.6c-0.1-0.4-0.2-0.5-0.6-0.7
					c-0.4-0.1-1.1-0.1-1.7,0.1c-1.4,0.3-2.8,1-4.1,1.7c-1.3,0.8-2.6,1.6-3.7,2.7c-2.3,2.2-4.5,4.5-6.6,6.8c-1.1,1.2-2.1,2.4-3.1,3.6
					c-0.5,0.6-0.9,1.2-1.4,1.9c-0.2,0.3-0.4,0.6-0.5,1c-0.1,0.3-0.3,0.7-0.2,0.9c0,0,0,0.1,0,0.1c0,0,0-0.1,0,0l0.1,0.1
					c0.1,0.1,0.2,0.3,0.2,0.4c0.1,0.2,0.4,0.3,0.2,0.1c-0.1-0.1-0.4-0.1-0.4-0.1c-0.1,0-0.1,0,0-0.1c0.1-0.1,0.2-0.4,0.4-0.7
					c0.5-1.1,1.1-2.9,0.9-3.5c0-0.1,0-0.2-0.1-0.2c-0.1-0.1-0.2-0.1-0.4-0.2l-0.2-0.1l-0.1,0c0,0,0,0,0,0c0,0-0.1,0-0.2,0
					c-0.2,0-0.5,0.1-0.9,0.2c-1.3,0.5-2.7,1.3-4.1,2l-4.2,2.3c-0.7,0.4-1.4,0.8-2.2,1.1c-0.2,0.1-0.4,0.1-0.7,0.2
					c-0.1,0-0.3,0.1-0.4,0.1c-0.1,0-0.2,0-0.3,0c-0.1,0-0.1,0-0.2-0.1c-0.1-0.1-0.3-0.2-0.3-0.3c-0.1-0.1-0.1-0.2-0.1-0.4
					c0-0.1,0-0.1,0-0.2c0-0.2,0-0.2,0.1-0.3c0-0.2,0.1-0.3,0.1-0.4c0.1-0.2,0.2-0.4,0.3-0.6c0.2-0.4,0.4-0.8,0.6-1.1
					c0.2-0.4,0.5-0.7,0.7-1l1.5-1.9c1-1.3,2.1-2.5,3.2-3.6c2.2-2.3,4.5-4.6,6.8-6.7c2.4-2.1,4.5-4.4,7.5-5.8l0.5-0.3
					c0.1,0,0.2-0.1,0.2-0.1c0,0,0,0,0,0c0,0.1,0,0.1,0,0.3c0,0.4,0.4,0.6,0.5,0.7c0.3,0.1,0.2,0,0.2,0l-0.1,0l-0.1,0
					c-0.1,0-0.2,0-0.3,0c-0.2,0-0.4,0-0.6,0c-0.7,0.1-1.5,0.4-2.2,0.7c-1.4,0.6-2.9,1.1-4.3,1.8c-2.8,1.3-5.6,2.9-8.3,4.5
					c-2.7,1.6-5.4,3.3-8.1,5c-1.3,0.8-2.7,1.7-4,2.6c-1.3,0.9-2.6,1.8-4.4,2L73.9,114.9z"/>
			</g>
		</g>
	</g>
</g>
</svg>
