<?xml version="1.0" encoding="utf-8"?>
<!-- Generator: Adobe Illustrator 22.1.0, SVG Export Plug-In . SVG Version: 6.00 Build 0)  -->
<svg version="1.1" xmlns="http://www.w3.org/2000/svg" xmlns:xlink="http://www.w3.org/1999/xlink" x="0px" y="0px"
	 viewBox="0 0 115.9 180" style="enable-background:new 0 0 115.9 180;" xml:space="preserve">
<style type="text/css">
	.st0{display:none;}
	.st1{display:inline;fill:#FF0000;}
	.st2{fill:none;}
</style>
<g id="bg" class="st0">
	<polygon class="st1" points="105.9,0 95.9,0 20,0 10,0 0,0 0,180 10,180 20,180 95.9,180 105.9,180 115.9,180 115.9,0 	"/>
</g>
<g id="figure">
	<g>
		<g>
			<path d="M81.8,46c0-0.3,0.2-0.5,0.3-0.7l0.4-0.6l0.8-1.3l1.5-2.5c1-1.7,2.1-3.3,3.2-4.9c1.1-1.6,2.1-3.3,3.4-4.8
				c0.6-0.8,1-1.6,1.8-2.3c0.8-0.6,1.6-1.2,3.7-0.7l0.4,0.3c0.9,2,0.4,2.8-0.1,3.7c-0.5,0.9-1.3,1.4-1.9,2.2
				c-1.3,1.5-2.7,2.8-4.1,4.1c-1.4,1.3-2.8,2.7-4.3,4l-2.2,1.9l-1.1,1l-0.6,0.5c-0.2,0.2-0.4,0.3-0.6,0.4L81.8,46z"/>
		</g>
		<g>
			<path d="M90.8,46c0-0.3,0.2-0.5,0.3-0.7l0.4-0.6l0.8-1.3l1.5-2.5c1-1.7,2.1-3.3,3.2-4.9c1.1-1.6,2.1-3.3,3.4-4.8
				c0.6-0.8,1-1.6,1.8-2.3c0.8-0.6,1.6-1.2,3.7-0.7l0.4,0.3c0.9,2,0.4,2.8-0.1,3.7c-0.5,0.9-1.3,1.4-1.9,2.2
				c-1.3,1.5-2.7,2.8-4.1,4.1c-1.4,1.3-2.8,2.7-4.3,4l-2.2,1.9l-1.1,1l-0.6,0.5c-0.2,0.2-0.4,0.3-0.6,0.4L90.8,46z"/>
		</g>
		<g>
			<path d="M81.1,68c-0.4,0.6-0.8,1.1-1.3,1.6c-0.4,0.5-0.9,1-1.4,1.4c-1,0.9-2,1.8-3.2,2.5c-0.6,0.4-1.2,0.7-1.8,1
				c-0.6,0.3-1.3,0.6-2,0.8c-0.7,0.2-1.5,0.4-2.3,0.3c-0.9,0-1.9-0.2-2.8-0.7c-0.9-0.5-1.5-1.4-1.9-2.1c-0.4-0.8-0.6-1.5-0.7-2.3
				c-0.2-1.5-0.2-2.9-0.1-4.2c0.3-2.7,0.9-5.3,2.3-7.6l0.2,0c0.4,2.7,0.2,5.2,0.1,7.6c0,1.2,0,2.4,0.1,3.6c0.1,1.1,0.5,2.2,1.3,2.8
				c0.4,0.3,0.9,0.5,1.5,0.5c0.6,0.1,1.2,0.1,1.8,0c1.2-0.2,2.4-0.8,3.6-1.3c2.3-1.1,4.5-2.5,6.5-4.1L81.1,68z"/>
		</g>
		<g>
			<path class="st2" d="M67.1,68.7"/>
		</g>
		<g>
			<path class="st2" d="M81,68.9"/>
		</g>
		<g>
			<path d="M91.5,56.7c0.5,1.3-0.1,1.6-0.5,2.2c-0.4,0.5-0.8,1.1-1.2,1.6c-0.9,1-1.7,1.9-2.5,3l-4.9,6.1l-9.7,12.3
				c-3.2,4.1-6.5,8.2-9.8,12.2l-5,6c-1.6,2-3.2,4-4.6,6c-1.5,2-2.9,4.1-4,6.2c-0.6,1-1.1,2.1-1.4,3.1c-0.4,1-0.5,2-0.4,2.4
				c0,0.2,0,0.2,0,0.2c0,0,0.1,0.1,0.5,0.2c0.7,0.1,1.8-0.1,2.8-0.4c1.1-0.4,2.2-0.8,3.2-1.4l3.3-2c4.5-2.6,8.9-5.4,13.4-8.1l6.7-4
				l3.3-2l1.7-1c0.6-0.3,1.2-0.5,2.3-0.1l0.1,0.1c0,1.2-0.3,1.8-0.9,2.2l-1.6,1.2c-1,0.8-2.1,1.6-3.2,2.4c-2.1,1.5-4.3,3-6.4,4.5
				c-4.3,2.9-8.8,5.7-13.2,8.5l-3.3,2.1c-1.2,0.7-2.5,1.4-3.8,2c-1.4,0.5-2.9,1-4.8,1c-1,0-2.1-0.3-3.2-1c-1.1-0.8-1.8-2-2.1-3.1
				c-0.5-2.2-0.1-3.8,0.2-5.3c0.4-1.5,0.9-2.8,1.5-4.1c1.2-2.6,2.7-4.9,4.2-7.1c1.6-2.2,3.3-4.3,5-6.3l5.2-5.9
				c3.5-3.9,7.1-7.7,10.6-11.5L80,67.4l5.4-5.7c0.9-0.9,1.7-1.9,2.6-2.9c0.4-0.5,0.9-0.9,1.4-1.4C90,57,90.2,56.4,91.5,56.7z"/>
		</g>
		<g>
			<path d="M46.2,95.8c2.6-2.6,5.3-5.2,7.5-8.1c2.3-2.9,4.3-6,6.2-9.1c1.9-3.1,3.6-6.3,4.9-9.6c0.7-1.6,1.2-3.3,1.4-4.9
				c0.1-0.8,0.2-1.5,0.1-2.1c-0.1-0.6-0.3-1-0.4-1.2c-0.2-0.2-0.6-0.4-1.2-0.4c-0.6,0-1.4,0-2.2,0.2c-1.6,0.4-3.2,1-4.7,1.8
				c-3.1,1.7-6,3.8-8.8,6.1c-2.8,2.3-5.4,4.8-8,7.4c-2.6,2.6-5,5.3-7.4,8c-2.4,2.8-4.6,5.6-6.9,8.4c-2.2,2.8-4.4,5.7-6.4,8.7
				c-2,3-3.8,6-5.3,9.1c-0.7,1.5-1.3,3.1-1.6,4.5c-0.1,0.7-0.2,1.3-0.2,1.8c0,0.5,0.1,0.6,0,0.6c-0.1,0,0.1,0.3,0.6,0.4
				c0.5,0.1,1.2,0.1,2,0c1.5-0.2,3.2-0.8,4.8-1.5c0.8-0.4,1.6-0.7,2.4-1.2c0.8-0.4,1.5-0.9,2.3-1.4c1.5-1,3-2,4.5-3.1
				C35.7,106,41.1,101.1,46.2,95.8z M48.6,98c-5,5.5-10.5,10.8-16.4,15.4c-1.5,1.2-3,2.3-4.6,3.4c-0.8,0.5-1.6,1.1-2.4,1.6
				c-0.8,0.5-1.6,1-2.5,1.5c-1.7,1-3.5,1.9-5.6,2.6c-1,0.3-2.2,0.6-3.5,0.6c-0.3,0-0.7,0-1.1-0.1c-0.4,0-0.7-0.1-1.1-0.2
				c-0.8-0.2-1.6-0.7-2.3-1.2c-0.7-0.6-1.3-1.4-1.6-2.1c-0.2-0.4-0.3-0.8-0.4-1.1l-0.1-0.6l-0.1-0.5c-0.2-1.4-0.1-2.6,0-3.7
				c0.4-2.2,1-4.2,1.7-6.1c1.5-3.7,3.4-7.1,5.5-10.4c4.2-6.5,9-12.4,14.5-17.7C34,74,39.8,69.1,46.1,64.8c3.1-2.2,6.4-4.2,9.9-5.9
				c1.8-0.9,3.6-1.7,5.6-2.2c1-0.3,2.1-0.5,3.4-0.4c1.2,0,2.7,0.4,3.9,1.5c1.2,1.1,1.7,2.6,1.8,3.8c0.1,1.2,0,2.3-0.2,3.4
				c-0.4,2.1-1.1,3.9-1.9,5.7c-1.6,3.5-3.7,6.7-5.9,9.8c-2.2,3.1-4.5,6-6.9,8.9C53.3,92.2,51,95.2,48.6,98z"/>
		</g>
	</g>
</g>
</svg>
