<?xml version="1.0" encoding="utf-8"?>
<!-- Generator: Adobe Illustrator 22.1.0, SVG Export Plug-In . SVG Version: 6.00 Build 0)  -->
<svg version="1.1" xmlns="http://www.w3.org/2000/svg" xmlns:xlink="http://www.w3.org/1999/xlink" x="0px" y="0px"
	 viewBox="0 0 147.3 180" style="enable-background:new 0 0 147.3 180;" xml:space="preserve">
<style type="text/css">
	.st0{display:none;}
	.st1{display:inline;fill:#FF0000;}
</style>
<g id="bg" class="st0">
	<polygon class="st1" points="139.8,0 139.6,0 137.8,0 137.5,0 134.7,0 132.2,0 130.4,0 130.4,0 130.2,0 130.1,0 129.9,0 129,0 
		128,0 127.3,0 127.3,0 127.1,0 125.3,0 125,0 123,0 122.8,0 122.7,0 122.5,0 121.6,0 121.4,0 120.9,0 120.6,0 120.6,0 120.4,0 
		119.8,0 119.7,0 119.6,0 119.5,0 119.2,0 117.9,0 117.8,0 117.8,0 117.7,0 117.5,0 117.5,0 117.4,0 116.5,0 115.5,0 115.4,0 
		114.7,0 114,0 113.5,0 113.3,0 113.2,0 113,0 113,0 112.2,0 112.2,0 112.1,0 111.9,0 111.8,0 111.6,0 111.2,0 110.5,0 110.4,0 
		110.4,0 110.3,0 110.2,0 110.2,0 110.1,0 109.9,0 109.9,0 109.7,0 109.1,0 109,0 108.9,0 108.4,0 108.1,0 108.1,0 108,0 107.9,0 
		107.3,0 107.1,0 107,0 106.7,0 105.9,0 105.6,0 105.3,0 105,0 104.7,0 104.6,0 104.5,0 104.2,0 103.7,0 103.6,0 103,0 102.9,0 
		102.8,0 102.7,0 102.7,0 102.5,0 102.4,0 102.3,0 102.1,0 101.9,0 101.6,0 101.5,0 101.4,0 101,0 100.9,0 100.8,0 100.7,0 100.6,0 
		100.6,0 100.5,0 100.5,0 100.4,0 99.7,0 99.6,0 99.6,0 99.5,0 99.4,0 99.3,0 99.2,0 99.1,0 98.6,0 97.9,0 97.8,0 97.7,0 97.5,0 
		97.4,0 97.2,0 97.1,0 96.5,0 96.1,0 95.5,0 95.4,0 95.3,0 95.1,0 95,0 94.8,0 94.7,0 94.5,0 94.3,0 94,0 93.5,0 93.4,0 93.3,0 
		93.2,0 93.1,0 93,0 93,0 92.9,0 92.4,0 92.2,0 92.2,0 92.1,0 92.1,0 92,0 92,0 91.9,0 91.8,0 91.7,0 91.6,0 91.2,0 91.2,0 91,0 
		90.5,0 90.3,0 90.2,0 90.2,0 89.9,0 89.9,0 89.8,0 89.7,0 89.6,0 89.4,0 89.1,0 88.9,0 88.4,0 88.1,0 88.1,0 87.9,0 87.7,0 87.4,0 
		87,0 86.9,0 86.7,0 85.9,0 85.6,0 85.5,0 85.3,0 85.1,0 85,0 84.8,0 84.7,0 84.7,0 84.6,0 84.6,0 84.5,0 84.5,0 84.2,0 83.7,0 
		83.6,0 83.6,0 83.6,0 82.9,0 82.7,0 82.7,0 82.6,0 82.6,0 82.5,0 82.4,0 82.3,0 82.3,0 82.2,0 82.1,0 82,0 81.9,0 81.8,0 81.5,0 
		81,0 80.8,0 80.7,0 80.5,0 80.5,0 80.4,0 79.9,0 79.6,0 79.6,0 79.6,0 79.4,0 79.3,0 79.1,0 78.6,0 77.9,0 77.6,0 77.5,0 77.4,0 
		77.2,0 77.1,0 77.1,0 76.2,0 76.1,0 76,0 75.6,0 75.3,0 75.3,0 75.2,0 75.1,0 75.1,0 75,0 75,0 74.8,0 74.8,0 74.7,0 74.5,0 
		74.4,0 74.3,0 74.1,0 73.8,0 73.4,0 73.1,0 73,0 72.9,0 72.8,0 72.6,0 72.5,0 72.4,0 72.3,0 72.2,0 72.2,0 72.1,0 72,0 72,0 72,0 
		71.7,0 71.2,0 71.1,0 71,0 70.2,0 70.1,0 70,0 69.9,0 69.8,0 69.6,0 69.4,0 68.6,0 68.2,0 68,0 67.9,0 67.7,0 67.7,0 67.6,0 
		67.4,0 66.9,0 66.8,0 66.7,0 66.5,0 66.4,0 66.2,0 65.8,0 65.5,0 65.4,0 65.3,0 65.1,0 65.1,0 65,0 64.9,0 64.9,0 64.8,0 64.7,0 
		64.6,0 64.6,0 64.5,0 64.4,0 63.7,0 63.6,0 63.6,0 63.5,0 63.1,0 62.8,0 62.7,0 62.7,0 62.6,0 62.6,0 62.5,0 62.5,0 62.3,0 62.2,0 
		62,0 61.8,0 61.6,0 61.3,0 60.6,0 60.4,0 60.3,0 59.9,0 59.6,0 59.4,0 59.2,0 59.1,0 58.8,0 58.4,0 58.2,0 57.9,0 57.6,0 57.5,0 
		57.5,0 57.4,0 57.3,0 57.1,0 57,0 56.9,0 56.8,0 56.2,0 56.1,0 56,0 55.7,0 55.6,0 55.5,0 55.4,0 55.3,0 55.2,0 55.2,0 55.1,0 
		55.1,0 55,0 54.8,0 54.4,0 54.3,0 54.2,0 54.1,0 54,0 53.9,0 53.8,0 53.7,0 53.3,0 53,0 52.8,0 52.6,0 52.5,0 52.3,0 52.2,0 52,0 
		51.8,0 51.8,0 51.1,0 50.8,0 50.1,0 50,0 49.9,0 49.7,0 49.6,0 49.4,0 49.3,0 48.6,0 48.2,0 48,0 48,0 47.9,0 47.8,0 47.7,0 
		47.6,0 47.5,0 46.9,0 46.8,0 46.7,0 46.7,0 46.6,0 46.5,0 46.4,0 46.3,0 46.2,0 45.9,0 45.8,0 45.7,0 45.4,0 45.1,0 44.9,0 44.9,0 
		44.8,0 44.6,0 44.5,0 44.4,0 44.4,0 44.2,0 43.7,0 43.5,0 43.1,0 42.8,0 42.7,0 42.5,0 42.3,0 42,0 41.6,0 41.3,0 40.6,0 40.3,0 
		40.1,0 39.9,0 39.4,0 39.3,0 39.2,0 39.1,0 38.8,0 38.4,0 38.3,0 38.2,0 37.5,0 37.4,0 37.3,0 37.2,0 37.1,0 37,0 36.9,0 36.9,0 
		36.8,0 36.8,0 36.1,0 35.7,0 35.5,0 35.4,0 35.2,0 35.1,0 35,0 34.3,0 34.2,0 34,0 33.9,0 33.7,0 33.3,0 32.5,0 31.8,0 31.8,0 
		30.8,0 29.9,0 29.8,0 29.7,0 29.6,0 29.5,0 29.4,0 29.3,0 28,0 27.8,0 27.6,0 27.5,0 27.4,0 26.9,0 26.7,0 26.6,0 26.3,0 25.9,0 
		25.7,0 24.8,0 24.5,0 24.4,0 24.2,0 22.3,0 22,0 20.1,0 20,0 19.9,0 19.3,0 18.3,0 17.4,0 17.2,0 17.1,0 16.9,0 16.8,0 15,0 
		12.5,0 9.8,0 9.5,0 7.6,0 7.4,0 0,0 0,180 7.4,180 7.6,180 9.5,180 9.8,180 12.5,180 15,180 16.8,180 16.9,180 17.1,180 17.2,180 
		17.4,180 18.3,180 19.3,180 19.9,180 20,180 20.1,180 22,180 22.3,180 24.2,180 24.4,180 24.5,180 24.8,180 25.7,180 25.9,180 
		26.3,180 26.6,180 26.7,180 26.9,180 27.4,180 27.5,180 27.6,180 27.8,180 28,180 29.3,180 29.4,180 29.5,180 29.6,180 29.7,180 
		29.8,180 29.9,180 30.8,180 31.8,180 31.8,180 32.5,180 33.3,180 33.7,180 33.9,180 34,180 34.2,180 34.3,180 35,180 35.1,180 
		35.2,180 35.4,180 35.5,180 35.7,180 36.1,180 36.8,180 36.8,180 36.9,180 36.9,180 37,180 37.1,180 37.2,180 37.3,180 37.4,180 
		37.5,180 38.2,180 38.3,180 38.4,180 38.8,180 39.1,180 39.2,180 39.3,180 39.4,180 39.9,180 40.1,180 40.3,180 40.6,180 41.3,180 
		41.6,180 42,180 42.3,180 42.5,180 42.7,180 42.8,180 43.1,180 43.5,180 43.7,180 44.2,180 44.4,180 44.4,180 44.5,180 44.6,180 
		44.8,180 44.9,180 44.9,180 45.1,180 45.4,180 45.7,180 45.8,180 45.9,180 46.2,180 46.3,180 46.4,180 46.5,180 46.6,180 46.7,180 
		46.7,180 46.8,180 46.9,180 47.5,180 47.6,180 47.7,180 47.8,180 47.9,180 48,180 48,180 48.2,180 48.6,180 49.3,180 49.4,180 
		49.6,180 49.7,180 49.9,180 50,180 50.1,180 50.8,180 51.1,180 51.8,180 51.8,180 52,180 52.2,180 52.3,180 52.5,180 52.6,180 
		52.8,180 53,180 53.3,180 53.7,180 53.8,180 53.9,180 54,180 54.1,180 54.2,180 54.3,180 54.4,180 54.8,180 55,180 55.1,180 
		55.1,180 55.2,180 55.2,180 55.3,180 55.4,180 55.5,180 55.6,180 55.7,180 56,180 56.1,180 56.2,180 56.8,180 56.9,180 57,180 
		57.1,180 57.3,180 57.4,180 57.5,180 57.5,180 57.6,180 57.9,180 58.2,180 58.4,180 58.8,180 59.1,180 59.2,180 59.4,180 59.6,180 
		59.9,180 60.3,180 60.4,180 60.6,180 61.3,180 61.6,180 61.8,180 62,180 62.2,180 62.3,180 62.5,180 62.5,180 62.6,180 62.6,180 
		62.7,180 62.7,180 62.8,180 63.1,180 63.5,180 63.6,180 63.6,180 63.7,180 64.4,180 64.5,180 64.6,180 64.6,180 64.7,180 64.8,180 
		64.9,180 64.9,180 65,180 65.1,180 65.1,180 65.3,180 65.4,180 65.5,180 65.8,180 66.2,180 66.4,180 66.5,180 66.7,180 66.8,180 
		66.9,180 67.4,180 67.6,180 67.7,180 67.7,180 67.9,180 68,180 68.2,180 68.6,180 69.4,180 69.6,180 69.8,180 69.9,180 70,180 
		70.1,180 70.2,180 71,180 71.1,180 71.2,180 71.7,180 72,180 72,180 72,180 72.1,180 72.2,180 72.2,180 72.3,180 72.4,180 
		72.5,180 72.6,180 72.8,180 72.9,180 73,180 73.1,180 73.4,180 73.8,180 74.1,180 74.3,180 74.4,180 74.5,180 74.7,180 74.8,180 
		74.8,180 75,180 75,180 75.1,180 75.1,180 75.2,180 75.3,180 75.3,180 75.6,180 76,180 76.1,180 76.2,180 77.1,180 77.1,180 
		77.2,180 77.4,180 77.5,180 77.6,180 77.9,180 78.6,180 79.1,180 79.3,180 79.4,180 79.6,180 79.6,180 79.6,180 79.9,180 80.4,180 
		80.5,180 80.5,180 80.7,180 80.8,180 81,180 81.5,180 81.8,180 81.9,180 82,180 82.1,180 82.2,180 82.3,180 82.3,180 82.4,180 
		82.5,180 82.6,180 82.6,180 82.7,180 82.7,180 82.9,180 83.6,180 83.6,180 83.6,180 83.7,180 84.2,180 84.5,180 84.5,180 84.6,180 
		84.6,180 84.7,180 84.7,180 84.8,180 85,180 85.1,180 85.3,180 85.5,180 85.6,180 85.9,180 86.7,180 86.9,180 87,180 87.4,180 
		87.7,180 87.9,180 88.1,180 88.1,180 88.4,180 88.9,180 89.1,180 89.4,180 89.6,180 89.7,180 89.8,180 89.9,180 89.9,180 90.2,180 
		90.2,180 90.3,180 90.5,180 91,180 91.2,180 91.2,180 91.6,180 91.7,180 91.8,180 91.9,180 92,180 92,180 92.1,180 92.1,180 
		92.2,180 92.2,180 92.4,180 92.9,180 93,180 93,180 93.1,180 93.2,180 93.3,180 93.4,180 93.5,180 94,180 94.3,180 94.5,180 
		94.7,180 94.8,180 95,180 95.1,180 95.3,180 95.4,180 95.5,180 96.1,180 96.5,180 97.1,180 97.2,180 97.4,180 97.5,180 97.7,180 
		97.8,180 97.9,180 98.6,180 99.1,180 99.2,180 99.3,180 99.4,180 99.5,180 99.6,180 99.6,180 99.7,180 100.4,180 100.5,180 
		100.5,180 100.6,180 100.6,180 100.7,180 100.8,180 100.9,180 101,180 101.4,180 101.5,180 101.6,180 101.9,180 102.1,180 
		102.3,180 102.4,180 102.5,180 102.7,180 102.7,180 102.8,180 102.9,180 103,180 103.6,180 103.7,180 104.2,180 104.5,180 
		104.6,180 104.7,180 105,180 105.3,180 105.6,180 105.9,180 106.7,180 107,180 107.1,180 107.3,180 107.9,180 108,180 108.1,180 
		108.1,180 108.4,180 108.9,180 109,180 109.1,180 109.7,180 109.9,180 109.9,180 110.1,180 110.2,180 110.2,180 110.3,180 
		110.4,180 110.4,180 110.5,180 111.2,180 111.6,180 111.8,180 111.9,180 112.1,180 112.2,180 112.2,180 113,180 113,180 113.2,180 
		113.3,180 113.5,180 114,180 114.7,180 115.4,180 115.5,180 116.5,180 117.4,180 117.5,180 117.5,180 117.7,180 117.8,180 
		117.8,180 117.9,180 119.2,180 119.5,180 119.6,180 119.7,180 119.8,180 120.4,180 120.6,180 120.6,180 120.9,180 121.4,180 
		121.6,180 122.5,180 122.7,180 122.8,180 123,180 125,180 125.3,180 127.1,180 127.3,180 127.3,180 128,180 129,180 129.9,180 
		130.1,180 130.2,180 130.4,180 130.4,180 132.2,180 134.7,180 137.5,180 137.8,180 139.6,180 139.8,180 147.3,180 147.3,0 	"/>
</g>
<g id="figure">
	<g>
		<g>
			<g>
				<path d="M59.5,113.3c-0.2,0.8-0.6,1-0.9,1.4c-0.3,0.3-0.6,0.6-0.9,0.8c-0.6,0.5-1.2,1-1.8,1.4c-1.2,0.9-2.4,1.7-3.7,2.5
					c-1.3,0.8-2.5,1.5-3.9,2.1c-1.4,0.6-2.8,1-4.3,1.4c-0.8,0.2-1.6,0.4-2.7,0.1c-0.5-0.2-1.1-0.6-1.4-1.1c-0.3-0.5-0.4-1-0.5-1.5
					c-0.1-0.9-0.1-1.8-0.1-2.6c0.1-0.8,0.2-1.6,0.4-2.4c0.3-1.6,0.9-3.1,1.6-4.5c0.4-0.7,0.8-1.4,1.3-2.1c0.3-0.3,0.6-0.7,0.9-1
					l0.7-0.8c2-2.1,4.2-4.1,6.7-5.8c1.3-0.9,2.6-1.7,4.2-2.3c0.8-0.3,1.7-0.6,2.7-0.7c0.5-0.1,1.1-0.1,1.6,0
					c0.3,0.1,0.6,0.1,0.9,0.2c0.4,0.1,0.7,0.3,1,0.6c0.6,0.5,1,1.2,1.2,1.7c0.2,0.6,0.3,1.1,0.3,1.5c0.1,0.9,0,1.8-0.2,2.5
					c-0.3,1.6-0.7,3-1.1,4.4c-0.2,0.7-0.4,1.4-0.6,2c0,0.1-0.1,0.3-0.1,0.3c0,0,0,0,0,0l0,0c0,0,0-0.1,0-0.1c0,0-0.1-0.3-0.2-0.4
					c-0.1-0.1-0.3-0.3-0.5-0.4c-0.2-0.1-0.4-0.1-0.6-0.1c-0.2,0-0.2,0-0.4,0c-0.1,0-0.2,0.1-0.2,0.1c0,0-0.1,0.1-0.1,0.1
					c0,0,0,0,0,0c0,0,0.1-0.1,0.3-0.3l0.4-0.4c1.1-1.1,2.1-2,3.2-3c2.1-1.9,4.3-3.8,6.6-5.6c1.1-0.9,2.2-1.8,3.4-2.7
					c0.3-0.2,0.6-0.4,1-0.6c0.2-0.1,0.3-0.2,0.7-0.3c0.1,0,0.4-0.1,0.6,0.3c0.1,0.3,0,0.4,0,0.5c-0.1,0.2-0.1,0.2-0.2,0.3
					c-0.4,0.7-0.7,1.3-1.1,2c-3.4,4.7-6.8,9.4-10.6,13.5c-1,1-1.9,1.9-2.8,2.8c-0.4,0.5-0.9,1-1.2,1.6c-0.4,0.5-0.6,1.1-0.7,1.5
					c0,0.2,0,0.3-0.1,0.2c-0.1-0.1-0.2-0.1-0.1-0.1c0.3,0.1,0.9,0.1,1.5,0c1.3-0.2,2.5-0.6,3.7-1.2c2.5-1.2,4.9-2.6,7.4-4
					c1.2-0.7,2.4-1.5,3.6-2.2c0.6-0.4,1.2-0.8,1.8-1.1c0.3-0.2,0.6-0.3,1-0.5c0.2-0.1,0.3-0.1,0.6-0.1c0.2,0,0.4,0,0.8,0.3l0,0
					c0.1,0.5,0,0.6-0.1,0.9c-0.1,0.2-0.2,0.4-0.3,0.5c-0.3,0.2-0.5,0.5-0.8,0.7c-0.6,0.4-1.2,0.8-1.8,1.2c-1.2,0.8-2.4,1.6-3.6,2.4
					c-2.4,1.6-4.9,3.1-7.6,4.3c-0.7,0.3-1.4,0.6-2.1,0.9c-0.8,0.3-1.5,0.5-2.3,0.6c-0.8,0.1-1.6,0.3-2.7,0.1
					c-0.5-0.1-1.4-0.5-1.8-1.3c-0.4-0.8-0.4-1.4-0.3-1.9c0.1-1,0.4-1.8,0.7-2.5c0.3-0.7,0.6-1.5,0.9-2.2l0.2-0.5
					c0.1-0.2,0.2-0.4,0.3-0.6c0.2-0.4,0.4-0.7,0.6-1c0.4-0.7,0.8-1.3,1.3-1.9c3.7-4.6,8.6-7.8,12.9-11.5c0.6-0.4,1.2-0.8,1.6-1.3
					c0-0.1,0.1-0.1,0.1-0.1c0,0,0,0,0,0.2c0.2,0.3,0.4,0.2,0.4,0.3c0.1,0-0.2,0.1-0.3,0.2c-0.3,0.2-0.5,0.4-0.8,0.6
					c-1.1,0.9-2.1,1.8-3.2,2.8c-2.1,1.9-4.1,4-6,6.1c-1,1-1.9,2.1-2.8,3.2l-0.3,0.4c-0.1,0.1-0.2,0.3-0.4,0.5c0,0.1-0.1,0.1-0.2,0.2
					c-0.1,0-0.2,0.1-0.3,0.2c0,0-0.2,0.1-0.3,0.1c-0.1,0-0.2,0.1-0.4,0.1c-0.2,0-0.4-0.1-0.6-0.2c-0.2-0.1-0.4-0.3-0.5-0.4
					c-0.1-0.2-0.2-0.5-0.3-0.5l0-0.2l0-0.1l0-0.2c0-0.4,0-0.6,0.1-0.8c0.1-0.8,0.2-1.5,0.4-2.2c0.2-1.4,0.5-2.8,0.5-4
					c0-0.6,0-1.3-0.1-1.7c-0.1-0.5-0.3-0.7-0.2-0.5c0.3,0.2-0.1,0.1-0.5,0.2c-0.4,0.1-0.9,0.3-1.3,0.6c-1,0.6-2,1.5-2.9,2.4
					c-1.9,1.8-3.7,3.9-5.7,5.9l-0.8,0.8c-0.2,0.2-0.4,0.4-0.5,0.6c-0.4,0.4-0.8,0.9-1.2,1.4c-0.8,1-1.6,2-2.4,3.1
					c-0.8,1-1.5,2.2-1.7,3.2c-0.1,0.2-0.1,0.5-0.1,0.6c0,0.1,0,0.2,0.1,0.3c0.2,0.2,0.9,0.3,1.5,0.1c1.3-0.3,2.4-1.1,3.5-1.9
					c1.1-0.8,2.3-1.6,3.3-2.5c1.1-0.9,2.1-1.8,3.1-2.7c0.5-0.5,1-1,1.4-1.4c0.2-0.2,0.4-0.5,0.6-0.7c0.2-0.2,0.3-0.5,0.4-0.3
					L59.5,113.3z"/>
			</g>
			<g>
				<path d="M9.9,122.8c0.2-1.2,0.7-1.8,1.3-2.2l1.9-1.1l3.8-2.3c2.6-1.5,5.1-3,7.7-4.4c5.2-2.8,10.6-5.4,16-7.9
					c2.7-1.2,5.4-2.5,8.1-3.7c1.4-0.6,2.8-1.2,4.2-1.7c1.4-0.5,2.9-1,4.6-1.1c0.8-0.1,1.9,0.1,2.7,0.6c0.4,0.2,0.8,0.4,1.1,0.7
					c0.1,0.1,0.4,0.3,0.6,0.6c0.2,0.2,0.4,0.5,0.5,0.8c0.4,1.1,0.3,1.9,0.2,2.8c-0.1,0.8-0.3,1.6-0.5,2.4c-0.4,1.5-0.8,3-1.4,4.5
					c-0.3,0.7-0.7,1.4-1.1,2.1c-0.2,0.3-0.4,0.7-0.7,1c-0.2,0.3-0.5,0.7-1.7,0.2l-0.8-0.6c-0.7-1-0.6-1.3-0.4-1.6l0.5-0.9l1.1-1.8
					c0.8-1.2,1.5-2.4,2.1-3.7c0.3-0.6,0.5-1.3,0.6-1.9c0.1-0.6,0.1-1.3,0-1.6c0-0.1-0.1-0.1-0.1-0.2c0,0,0,0-0.2-0.2
					c-0.3-0.2-0.6-0.4-0.8-0.5c-0.5-0.3-1-0.3-1.6-0.3c-1.2,0-2.6,0.5-4,1c-1.3,0.5-2.7,1.1-4,1.7c-2.7,1.2-5.3,2.6-7.9,3.9
					c-5.3,2.6-10.5,5.3-15.6,8.2c-2.6,1.4-5.1,2.9-7.7,4.3l-3.9,2.2l-1.9,1.1c-0.7,0.3-1.4,0.5-2.6,0L9.9,122.8z"/>
			</g>
			<g>
				<g>
					<path d="M66.3,87.4c0-0.3,0.2-0.5,0.3-0.7l0.4-0.6l0.8-1.3l1.5-2.5c1-1.7,2.1-3.3,3.2-4.9c1.1-1.6,2.1-3.3,3.4-4.8
						c0.6-0.8,1-1.6,1.8-2.3c0.8-0.6,1.6-1.2,3.7-0.7l0.4,0.3c0.9,2,0.4,2.8-0.1,3.7c-0.5,0.9-1.3,1.4-1.9,2.2
						c-1.3,1.5-2.7,2.8-4.1,4.1c-1.4,1.3-2.8,2.7-4.3,4L69,85.9l-1.1,1l-0.6,0.5c-0.2,0.2-0.4,0.3-0.6,0.4L66.3,87.4z"/>
				</g>
				<g>
					<path d="M75.3,87.4c0-0.3,0.2-0.5,0.3-0.7l0.4-0.6l0.8-1.3l1.5-2.5c1-1.7,2.1-3.3,3.2-4.9c1.1-1.6,2.1-3.3,3.4-4.8
						c0.6-0.8,1-1.6,1.8-2.3c0.8-0.6,1.6-1.2,3.7-0.7l0.4,0.3c0.9,2,0.4,2.8-0.1,3.7c-0.5,0.9-1.3,1.4-1.9,2.2
						c-1.3,1.5-2.7,2.8-4.1,4.1c-1.4,1.3-2.8,2.7-4.3,4L78,85.9l-1.1,1l-0.6,0.5c-0.2,0.2-0.4,0.3-0.6,0.4L75.3,87.4z"/>
				</g>
			</g>
		</g>
		<g>
			<g>
				<path d="M69.9,117.7c0.8-1.6,2.1-2.6,3.4-3.5c1.3-0.9,2.6-1.8,3.9-2.7c2.7-1.8,5.4-3.5,8.2-5.1c2.8-1.6,5.6-3.1,8.6-4.4
					c1.5-0.6,3-1.3,4.6-1.6c0.4-0.1,0.8-0.2,1.2-0.2c0.4-0.1,0.8-0.1,1.2-0.2l0.6-0.1c0.1,0,0.2,0,0.3-0.1l0.2,0l0.1,0
					c0,0,0,0,0.3,0c0.2,0,0.6,0.3,0.6,0.8c0,0.2,0,0.3-0.1,0.4l-0.1,0.3c0,0.2-0.1,0.3-0.1,0.4c-0.1,0.2-0.2,0.4-0.3,0.7
					c-1.4,3.3-4,5.2-6.2,7.5c-2.3,2.2-4.7,4.3-7.1,6.3c-1.2,1-2.5,2-3.7,3l-1.8,1.5c-0.3,0.3-0.6,0.5-0.9,0.7
					c-0.3,0.2-0.6,0.4-0.9,0.7l-0.4,0.3c-0.1,0-0.1,0.1-0.2,0.1c0,0-0.1,0,0,0c0,0,0,0,0-0.1c0-0.1,0-0.2-0.1-0.2
					c0-0.1-0.1-0.2-0.2-0.2c0,0,0,0,0,0c0,0,0,0,0,0c0,0,0.1,0,0.2,0c0.1,0,0.3-0.1,0.5-0.2c0.6-0.3,1.3-0.8,1.9-1.2
					c1.3-0.9,2.5-2,3.8-2.9c1.3-1,2.6-2,4.2-2.8c0.4-0.2,0.9-0.4,1.4-0.5c0.3-0.1,0.6-0.1,1-0.1c0.1,0,0.2,0,0.3,0l0.2,0l0.4,0.1
					c0.5,0.2,1.1,0.4,1.7,0.9c0.5,0.5,0.9,1.2,1.1,1.8c0.3,1.3,0,2.3-0.3,3.1c-0.3,0.9-0.6,1.6-1,2.5c-0.2,0.4-0.5,0.8-1,1.3
					c-0.2,0.2-0.5,0.4-1,0.6c-0.4,0.2-1.1,0.2-1.6,0c-0.5-0.2-0.8-0.6-0.9-0.8c-0.2-0.3-0.3-0.5-0.4-0.8c-0.1-0.3-0.1-0.5-0.2-0.7
					l0-0.2c0-0.1,0-0.2,0-0.3c0-0.2,0-0.4,0.1-0.5c0.2-0.6,0.4-1,0.6-1.4c0.2-0.4,0.4-0.7,0.7-1.1c0.5-0.7,0.9-1.4,1.4-2
					c1-1.3,2.1-2.5,3.1-3.7c2.2-2.4,4.4-4.7,6.6-7c1.2-1.2,2.5-2.2,3.9-3.2c1.4-0.9,2.8-1.8,4.5-2.3c0.9-0.3,1.8-0.5,3-0.3
					c0.6,0.1,1.2,0.3,1.7,0.8c0.5,0.4,0.9,1,1.1,1.6c0.4,1.2,0.3,2.2,0.2,3.2c-0.1,0.9-0.3,1.8-0.5,2.6c-0.9,3.3-2.2,6.4-3.9,9.3
					c-1.7,2.8-3.5,5.5-5.5,8.1c-1.9,2.6-4,5.1-6.1,7.6c-2.1,2.4-4.3,4.8-6.5,7.2c-2.3,2.3-4.7,4.6-7.2,6.7c-1.2,1-2.5,2-3.8,3
					c-1.3,1-2.5,1.9-3.8,2.9c-2.6,1.9-5.2,3.8-8,5.6c-1.4,0.9-2.9,1.7-4.5,2.4c-0.8,0.3-1.6,0.6-2.6,0.8c-0.9,0.2-1.9,0.3-3,0.1
					c-0.3,0-0.5-0.1-0.8-0.2l-0.4-0.1l-0.1,0l-0.2-0.1c-0.1-0.1-0.2-0.1-0.3-0.2c-0.5-0.4-0.7-1-0.7-1.4c0-0.4,0-0.8,0.1-1
					c0.3-1.1,0.8-1.8,1.2-2.5c0.9-1.4,2-2.7,3-3.9c2.1-2.5,4.2-4.9,6.5-7.1c2.3-2.3,4.6-4.5,7.1-6.5c1.2-1,2.5-2,3.9-3
					c0.7-0.4,1.5-0.9,2.1-1.3l2.1-1.1l16.8-9.1c5.6-3.1,11.2-6.1,16.8-9.1l8.5-4.4l4.2-2.2c1.4-0.8,2.8-1.4,4.7-1.3l0,0
					c-0.9,1.7-2.3,2.5-3.7,3.3l-4.2,2.3l-8.3,4.6c-5.6,3.1-11.2,6.1-16.8,9.1l-16.8,9l-2.1,1.1c-0.7,0.4-1.3,0.7-2,1.1
					c-1.3,0.8-2.5,1.8-3.7,2.8c-2.4,2-4.8,4.1-7,6.3c-2.2,2.2-4.4,4.5-6.4,6.9c-1,1.2-1.9,2.5-2.7,3.8c-0.4,0.6-0.7,1.3-0.7,1.8
					c0,0.1,0,0.2,0,0.2c0,0,0-0.3-0.2-0.4c0,0-0.1-0.1-0.1-0.1l0,0l0,0l0.2,0.1c0.1,0,0.3,0,0.4,0.1c1.1,0.1,2.4-0.4,3.6-1.1
					c1.3-0.7,2.5-1.6,3.7-2.6c2.4-1.9,4.8-4,7.1-6.2l7-6.4c2.3-2.1,4.4-4.3,6.5-6.6c2.1-2.3,4.1-4.7,6.1-7.1c2-2.4,4-4.8,5.9-7.3
					c1.9-2.4,3.8-4.9,5.6-7.4c1.8-2.5,3.8-4.9,5.2-7.5c0.3-0.6,0.6-1.3,0.8-1.9c0.2-0.6,0.2-1.2,0.2-1.6c-0.1-0.4-0.2-0.5-0.6-0.7
					c-0.4-0.1-1.1-0.1-1.7,0.1c-1.4,0.3-2.8,1-4.1,1.7c-1.3,0.8-2.6,1.6-3.7,2.7c-2.3,2.2-4.5,4.5-6.6,6.8c-1.1,1.2-2.1,2.4-3.1,3.6
					c-0.5,0.6-0.9,1.2-1.4,1.9c-0.2,0.3-0.4,0.6-0.5,1c-0.1,0.3-0.3,0.7-0.2,0.9c0,0,0,0.1,0,0.1c0,0,0-0.1,0,0l0.1,0.1
					c0.1,0.1,0.2,0.3,0.2,0.4c0.1,0.2,0.4,0.3,0.2,0.1c-0.1-0.1-0.4-0.1-0.4-0.1c-0.1,0-0.1,0,0-0.1c0.1-0.1,0.2-0.4,0.4-0.7
					c0.5-1.1,1.1-2.9,0.9-3.5c0-0.1,0-0.2-0.1-0.2c-0.1-0.1-0.2-0.1-0.4-0.2l-0.2-0.1l-0.1,0c0,0,0,0,0,0c0,0-0.1,0-0.2,0
					c-0.2,0-0.5,0.1-0.9,0.2c-1.3,0.5-2.7,1.3-4.1,2l-4.2,2.3c-0.7,0.4-1.4,0.8-2.2,1.1c-0.2,0.1-0.4,0.1-0.7,0.2
					c-0.1,0-0.3,0.1-0.4,0.1c-0.1,0-0.2,0-0.3,0c-0.1,0-0.1,0-0.2-0.1c-0.1-0.1-0.3-0.2-0.3-0.3c-0.1-0.1-0.1-0.2-0.1-0.4
					c0-0.1,0-0.1,0-0.2c0-0.2,0-0.2,0.1-0.3c0-0.2,0.1-0.3,0.1-0.4c0.1-0.2,0.2-0.4,0.3-0.6c0.2-0.4,0.4-0.8,0.6-1.1
					c0.2-0.4,0.5-0.7,0.7-1l1.5-1.9c1-1.3,2.1-2.5,3.2-3.6c2.2-2.3,4.5-4.6,6.8-6.7c2.4-2.1,4.5-4.4,7.5-5.8l0.5-0.3
					c0.1,0,0.2-0.1,0.2-0.1c0,0,0,0,0,0c0,0.1,0,0.1,0,0.3c0,0.4,0.4,0.6,0.5,0.7c0.3,0.1,0.2,0,0.2,0l-0.1,0l-0.1,0
					c-0.1,0-0.2,0-0.3,0c-0.2,0-0.4,0-0.6,0c-0.7,0.1-1.5,0.4-2.2,0.7c-1.4,0.6-2.9,1.1-4.3,1.8c-2.8,1.3-5.6,2.9-8.3,4.5
					c-2.7,1.6-5.4,3.3-8.1,5c-1.3,0.8-2.7,1.7-4,2.6c-1.3,0.9-2.6,1.8-4.4,2L69.9,117.7z"/>
			</g>
			<g>
				<g>
					<path d="M114.3,89.2c0-0.3,0.2-0.5,0.3-0.7l0.4-0.6l0.7-1.3l1.5-2.5c1-1.7,2-3.3,3-4.9c1-1.6,2.1-3.2,3.2-4.7
						c0.6-0.7,1-1.6,1.7-2.3c0.8-0.6,1.5-1.2,3.6-0.7l0.4,0.3c0.9,2,0.4,2.8,0,3.7c-0.5,0.8-1.3,1.4-1.9,2.2c-1.2,1.5-2.6,2.8-4,4.1
						c-1.4,1.3-2.8,2.7-4.2,4l-2.1,2l-1.1,1l-0.5,0.5c-0.2,0.2-0.3,0.3-0.6,0.4L114.3,89.2z"/>
				</g>
				<g>
					<path d="M122,89.2c0-0.3,0.2-0.5,0.3-0.7l0.4-0.6l0.7-1.3l1.5-2.5c1-1.7,2-3.3,3-4.9c1-1.6,2.1-3.2,3.2-4.7
						c0.6-0.7,1-1.6,1.7-2.3c0.8-0.6,1.5-1.2,3.6-0.7l0.4,0.3c0.9,2,0.4,2.8,0,3.7c-0.5,0.8-1.3,1.4-1.9,2.2c-1.2,1.5-2.6,2.8-4,4.1
						c-1.4,1.3-2.8,2.7-4.2,4l-2.1,2l-1.1,1l-0.5,0.5c-0.2,0.2-0.3,0.3-0.6,0.4L122,89.2z"/>
				</g>
			</g>
		</g>
	</g>
</g>
</svg>
