<?xml version="1.0" encoding="utf-8"?>
<!-- Generator: Adobe Illustrator 22.1.0, SVG Export Plug-In . SVG Version: 6.00 Build 0)  -->
<svg version="1.1" xmlns="http://www.w3.org/2000/svg" xmlns:xlink="http://www.w3.org/1999/xlink" x="0px" y="0px"
	 viewBox="0 0 100.4 180" style="enable-background:new 0 0 100.4 180;" xml:space="preserve">
<style type="text/css">
	.st0{display:none;}
	.st1{display:inline;fill:#FF0000;}
</style>
<g id="bg" class="st0">
	<polygon class="st1" points="96.6,0 95.5,0 95.2,0 92.7,0 91.6,0 91.3,0 90.5,0 90.3,0 90,0 87.7,0 87.4,0 86.6,0 86.4,0 86.1,0 
		85.4,0 85.3,0 85,0 82.7,0 82.5,0 82.2,0 81.5,0 81.4,0 81.1,0 80.5,0 80.4,0 80.2,0 80.1,0 77.7,0 77.5,0 77.3,0 76.6,0 76.6,0 
		76.3,0 76.2,0 75.5,0 75.5,0 75.2,0 75.2,0 75,0 72.7,0 72.7,0 72.4,0 72.3,0 71.6,0 71.6,0 71.4,0 71.3,0 71.1,0 70.5,0 70.3,0 
		70.3,0 70,0 70,0 67.7,0 67.7,0 67.5,0 67.4,0 67.2,0 66.6,0 66.4,0 66.4,0 66.1,0 66.1,0 65.4,0 65.3,0 65,0 65,0 63.2,0 62.7,0 
		62.5,0 62.5,0 62.2,0 62.2,0 61.5,0 61.4,0 61.2,0 61.1,0 60.5,0 60.2,0 60.1,0 59.3,0 58.2,0 57.9,0 57.7,0 57.5,0 57.3,0 57.3,0 
		56.6,0 56.3,0 56.2,0 55.5,0 55.4,0 55.2,0 55,0 54.3,0 54.1,0 53.2,0 53,0 52.7,0 52.7,0 52.4,0 52.3,0 51.6,0 51.4,0 51.1,0 
		50.4,0 50.3,0 50.2,0 50,0 49.4,0 49.1,0 48.8,0 48.2,0 48,0 47.7,0 47.7,0 47.5,0 47.2,0 46.4,0 46.1,0 45.5,0 45.2,0 45,0 
		44.9,0 44.3,0 44.1,0 43.9,0 43.2,0 43.2,0 42.9,0 42.8,0 42.5,0 42.2,0 41.2,0 40.4,0 40.2,0 40,0 39.3,0 39.3,0 39,0 38.9,0 
		38.2,0 38.2,0 38,0 37.9,0 37.7,0 37.3,0 35.4,0 35.4,0 35.2,0 35,0 34.3,0 34.3,0 34.1,0 34.1,0 33.8,0 33.2,0 33,0 33,0 32.7,0 
		32.7,0 30.5,0 30.4,0 30.2,0 30.2,0 29.9,0 29.4,0 29.1,0 29.1,0 28.8,0 28.8,0 28.2,0 28,0 27.8,0 27.7,0 25.5,0 25.2,0 25.2,0 
		25,0 24.9,0 24.3,0 24.1,0 23.9,0 23.9,0 23.2,0 22.9,0 22.8,0 20.4,0 20.2,0 20,0 20,0 19.3,0 19,0 18.9,0 18.2,0 18,0 17.7,0 
		15.4,0 15.2,0 15,0 14.3,0 14.1,0 13.8,0 13,0 12.7,0 10.5,0 10.2,0 9.9,0 9.1,0 8.8,0 7.8,0 5.2,0 5,0 3.9,0 0,0 0,180 3.9,180 
		5,180 5.2,180 7.8,180 8.8,180 9.1,180 9.9,180 10.2,180 10.5,180 12.7,180 13,180 13.8,180 14.1,180 14.3,180 15,180 15.2,180 
		15.4,180 17.7,180 18,180 18.2,180 18.9,180 19,180 19.3,180 20,180 20,180 20.2,180 20.4,180 22.8,180 22.9,180 23.2,180 
		23.9,180 23.9,180 24.1,180 24.3,180 24.9,180 25,180 25.2,180 25.2,180 25.5,180 27.7,180 27.8,180 28,180 28.2,180 28.8,180 
		28.8,180 29.1,180 29.1,180 29.4,180 29.9,180 30.2,180 30.2,180 30.4,180 30.5,180 32.7,180 32.7,180 33,180 33,180 33.2,180 
		33.8,180 34.1,180 34.1,180 34.3,180 34.3,180 35,180 35.2,180 35.4,180 35.4,180 37.3,180 37.7,180 37.9,180 38,180 38.2,180 
		38.2,180 38.9,180 39,180 39.3,180 39.3,180 40,180 40.2,180 40.4,180 41.2,180 42.2,180 42.5,180 42.8,180 42.9,180 43.2,180 
		43.2,180 43.9,180 44.1,180 44.3,180 44.9,180 45,180 45.2,180 45.5,180 46.1,180 46.4,180 47.2,180 47.5,180 47.7,180 47.7,180 
		48,180 48.2,180 48.8,180 49.1,180 49.4,180 50,180 50.2,180 50.3,180 50.4,180 51.1,180 51.4,180 51.6,180 52.3,180 52.4,180 
		52.7,180 52.7,180 53,180 53.2,180 54.1,180 54.3,180 55,180 55.2,180 55.4,180 55.5,180 56.2,180 56.3,180 56.6,180 57.3,180 
		57.3,180 57.5,180 57.7,180 57.9,180 58.2,180 59.3,180 60.1,180 60.2,180 60.5,180 61.1,180 61.2,180 61.4,180 61.5,180 62.2,180 
		62.2,180 62.5,180 62.5,180 62.7,180 63.2,180 65,180 65,180 65.3,180 65.4,180 66.1,180 66.1,180 66.4,180 66.4,180 66.6,180 
		67.2,180 67.4,180 67.5,180 67.7,180 67.7,180 70,180 70,180 70.3,180 70.3,180 70.5,180 71.1,180 71.3,180 71.4,180 71.6,180 
		71.6,180 72.3,180 72.4,180 72.7,180 72.7,180 75,180 75.2,180 75.2,180 75.5,180 75.5,180 76.2,180 76.3,180 76.6,180 76.6,180 
		77.3,180 77.5,180 77.7,180 80.1,180 80.2,180 80.4,180 80.5,180 81.1,180 81.4,180 81.5,180 82.2,180 82.5,180 82.7,180 85,180 
		85.3,180 85.4,180 86.1,180 86.4,180 86.6,180 87.4,180 87.7,180 90,180 90.3,180 90.5,180 91.3,180 91.6,180 92.7,180 95.2,180 
		95.5,180 96.6,180 100.4,180 100.4,0 	"/>
</g>
<g id="figure">
	<g>
		<g>
			<path d="M66.3,87.4c0-0.3,0.2-0.5,0.3-0.7l0.4-0.6l0.8-1.3l1.5-2.5c1-1.7,2.1-3.3,3.2-4.9c1.1-1.6,2.1-3.3,3.4-4.8
				c0.6-0.8,1-1.6,1.8-2.3c0.8-0.6,1.6-1.2,3.7-0.7l0.4,0.3c0.9,2,0.4,2.8-0.1,3.7c-0.5,0.9-1.3,1.4-1.9,2.2
				c-1.3,1.5-2.7,2.8-4.1,4.1c-1.4,1.3-2.8,2.7-4.3,4L69,85.9l-1.1,1l-0.6,0.5c-0.2,0.2-0.4,0.3-0.6,0.4L66.3,87.4z"/>
		</g>
		<g>
			<path d="M75.3,87.4c0-0.3,0.2-0.5,0.3-0.7l0.4-0.6l0.8-1.3l1.5-2.5c1-1.7,2.1-3.3,3.2-4.9c1.1-1.6,2.1-3.3,3.4-4.8
				c0.6-0.8,1-1.6,1.8-2.3c0.8-0.6,1.6-1.2,3.7-0.7l0.4,0.3c0.9,2,0.4,2.8-0.1,3.7c-0.5,0.9-1.3,1.4-1.9,2.2
				c-1.3,1.5-2.7,2.8-4.1,4.1c-1.4,1.3-2.8,2.7-4.3,4L78,85.9l-1.1,1l-0.6,0.5c-0.2,0.2-0.4,0.3-0.6,0.4L75.3,87.4z"/>
		</g>
		<g>
			<path d="M59.5,113.3c-0.3,0.9-0.6,1.1-1,1.5c-0.3,0.3-0.6,0.6-1,0.9c-0.6,0.5-1.3,1-1.9,1.5c-1.3,1-2.7,1.8-4,2.7
				c-1.4,0.8-2.8,1.6-4.4,2.2c-0.8,0.3-1.6,0.5-2.4,0.7c-0.8,0.2-1.6,0.5-2.7,0.4c-0.5,0-1.2-0.3-1.7-0.8c-0.5-0.5-0.7-1.1-0.9-1.6
				c-0.2-1.1-0.2-2-0.1-2.9c0.1-1.8,0.5-3.5,1.2-5.2c0.6-1.6,1.5-3.1,2.8-4.6l0.9-0.9c0.3-0.3,0.5-0.6,0.8-0.8
				c0.6-0.6,1.1-1.1,1.7-1.7c2.4-2.2,5-4.2,8.4-5.8c0.9-0.4,1.8-0.7,2.9-0.8c0.6-0.1,1.2-0.1,1.8,0.1c0.2,0,0.3,0.1,0.5,0.1
				c0.2,0.1,0.4,0.1,0.6,0.2c0.4,0.2,0.8,0.5,1.1,0.8c0.6,0.6,0.8,1.3,1,1.9c0.1,0.6,0.2,1.1,0.2,1.6c0,1-0.1,1.8-0.3,2.7
				c-0.3,1.7-0.8,3.2-1.3,4.7c-0.1,0.4-0.2,0.7-0.3,1.1l0,0.2c0,0,0,0.1,0-0.1c0,0,0-0.1,0-0.1c0,0-0.1-0.2-0.1-0.3
				c0-0.1-0.1-0.2-0.4-0.4c-0.2-0.1-0.4-0.2-0.6-0.2c-0.3,0-0.4,0-0.4,0c-0.1,0-0.2,0.1-0.2,0.1c0,0-0.1,0.1-0.1,0.1
				c-0.1,0.1,0,0,0,0c0.1-0.1,0.3-0.3,0.4-0.4l0.4-0.4l0.9-0.8c2.3-2.2,4.7-4.2,7.1-6.2c1.2-1,2.4-2,3.7-3c0.6-0.5,1.3-1,2-1.4
				c0.2-0.1,0.4-0.2,0.6-0.3c0.1,0,0.2-0.1,0.5-0.1c0.1,0,0.1,0,0.3,0c0.1,0,0.3,0.3,0.3,0.4c0,0.1,0,0.2,0,0.2l0,0.1
				c0,0.1,0,0.1,0,0.2c-0.3,0.5-0.5,0.8-0.7,1.2c-0.7,1.5-1.7,2.7-2.7,4l-2.8,3.8c-1.9,2.5-3.9,4.9-5.9,7.1
				c-0.5,0.5-1.1,1.1-1.6,1.6c-0.3,0.3-0.5,0.5-0.7,0.8l-0.7,0.9c-0.5,0.6-0.9,1.2-1.2,1.8c-0.2,0.3-0.3,0.6-0.4,0.9
				c-0.1,0.3-0.1,0.5-0.1,0.5s0-0.1-0.1-0.2c-0.1-0.1-0.2-0.1-0.2-0.1c0,0,0.3,0.1,0.6,0c0.6-0.1,1.3-0.2,2-0.5
				c1.4-0.5,2.7-1.1,4.1-1.9c2.7-1.5,5.4-3,8.1-4.6c2.7-1.6,5.4-3.2,8-4.8l4-2.4l2-1.2l1-0.6c0.4-0.2,0.6-0.6,1.3-0.1l0.2,0.2
				c0.1,0.9-0.4,0.9-0.6,1.2l-0.9,0.7l-1.9,1.4c-1.3,0.9-2.6,1.8-3.9,2.7c-2.6,1.8-5.2,3.5-7.9,5.2c-2.7,1.7-5.3,3.3-8.2,4.8
				c-0.7,0.4-1.4,0.7-2.1,1.1c-0.7,0.3-1.5,0.7-2.3,1c-0.8,0.3-1.6,0.5-2.5,0.7c-0.5,0.1-1,0.1-1.8-0.1c-0.3-0.1-0.8-0.3-1.1-0.7
				c-0.4-0.4-0.5-0.9-0.6-1.2c-0.1-0.8,0-1.3,0.1-1.8c0.1-0.5,0.3-0.9,0.4-1.3c0.3-0.8,0.6-1.6,0.9-2.4l0.5-1.1
				c0.2-0.4,0.4-0.8,0.6-1.2c0.4-0.8,0.9-1.5,1.4-2.1c1-1.3,2.1-2.4,3.2-3.6c1.1-1.1,2.3-2.1,3.6-3.1l3.7-3c1.2-1,2.4-2,3.7-2.9
				c0.3-0.2,0.6-0.5,0.7-0.7c0,0,0,0,0,0c0,0,0,0,0,0c0,0,0,0.1,0,0.1c0,0,0,0.1,0.1,0.2c0.1,0.1,0.1,0.1,0.2,0.1c0.1,0,0.1,0,0.1,0
				c0.1,0,0,0-0.1,0.1c-0.1,0.1-0.3,0.2-0.4,0.3c-0.6,0.4-1.2,0.9-1.8,1.4c-1.2,1-2.3,2.1-3.4,3.2c-2.2,2.2-4.4,4.4-6.4,6.8
				l-0.7,0.9l-0.3,0.4l-0.4,0.5c-0.1,0.1-0.2,0.2-0.4,0.4c0,0-0.2,0.1-0.3,0.2c0,0-0.2,0.1-0.3,0.1c-0.1,0-0.2,0.1-0.5,0
				c-0.2,0-0.5-0.1-0.7-0.3c-0.2-0.2-0.4-0.4-0.4-0.4c-0.1-0.1-0.1-0.3-0.1-0.3c0-0.1,0-0.1,0-0.2c-0.1-0.4,0-0.5,0-0.7l0-0.4
				c0.1-0.5,0.1-0.8,0.2-1.2c0.3-1.6,0.6-3.1,0.7-4.5c0.1-0.7,0.1-1.4,0-2c0-0.6-0.3-1-0.3-0.9c0,0,0.1,0.1,0.1,0.1c0,0,0,0,0,0
				c0,0-0.1,0-0.1,0c-0.1,0-0.3,0-0.5,0.1c-0.4,0.1-0.9,0.4-1.5,0.7c-1.1,0.7-2.1,1.6-3.2,2.7c-1,1-2.1,2.1-3.1,3.2l-1.6,1.7
				c-0.3,0.3-0.5,0.6-0.8,0.8l-0.8,0.8c-0.8,0.8-1.7,2-2.6,3.1c-0.9,1.1-1.8,2.3-2.5,3.5c-0.3,0.6-0.6,1.2-0.7,1.7
				c0,0.2,0,0.4,0,0.5c0,0.1,0.1,0.2,0.3,0.3c0.5,0.2,1.2,0,1.9-0.2c0.7-0.2,1.3-0.6,1.9-1.1c1.2-0.8,2.5-1.7,3.7-2.6
				c1.2-0.9,2.4-1.9,3.5-3c0.6-0.5,1.1-1,1.6-1.6c0.2-0.3,0.5-0.5,0.7-0.8c0.2-0.2,0.4-0.6,0.5-0.4L59.5,113.3z"/>
		</g>
		<g>
			<path d="M9.9,122.8c0.2-1.2,0.7-1.8,1.3-2.2l1.9-1.1l3.8-2.3c2.6-1.5,5.1-3,7.7-4.4c5.2-2.8,10.6-5.4,16-7.9
				c2.7-1.2,5.4-2.5,8.1-3.7c1.4-0.6,2.8-1.2,4.2-1.7c1.4-0.5,2.9-1,4.6-1.1c0.8-0.1,1.9,0.1,2.7,0.6c0.4,0.2,0.8,0.4,1.1,0.7
				c0.1,0.1,0.4,0.3,0.6,0.6c0.2,0.2,0.4,0.5,0.5,0.8c0.4,1.1,0.3,1.9,0.2,2.8c-0.1,0.8-0.3,1.6-0.5,2.4c-0.4,1.5-0.8,3-1.4,4.5
				c-0.3,0.7-0.7,1.4-1.1,2.1c-0.2,0.3-0.4,0.7-0.7,1c-0.2,0.3-0.5,0.7-1.7,0.2l-0.8-0.6c-0.7-1-0.6-1.3-0.4-1.6l0.5-0.9l1.1-1.8
				c0.8-1.2,1.5-2.4,2.1-3.7c0.3-0.6,0.5-1.3,0.6-1.9c0.1-0.6,0.1-1.3,0-1.6c0-0.1-0.1-0.1-0.1-0.2c0,0,0,0-0.2-0.2
				c-0.3-0.2-0.6-0.4-0.8-0.5c-0.5-0.3-1-0.3-1.6-0.3c-1.2,0-2.6,0.5-4,1c-1.3,0.5-2.7,1.1-4,1.7c-2.7,1.2-5.3,2.6-7.9,3.9
				c-5.3,2.6-10.5,5.3-15.6,8.2c-2.6,1.4-5.1,2.9-7.7,4.3l-3.9,2.2l-1.9,1.1c-0.7,0.3-1.4,0.5-2.6,0L9.9,122.8z"/>
		</g>
	</g>
</g>
</svg>
