<?xml version="1.0" encoding="utf-8"?>
<!-- Generator: Adobe Illustrator 22.1.0, SVG Export Plug-In . SVG Version: 6.00 Build 0)  -->
<svg version="1.1" xmlns="http://www.w3.org/2000/svg" xmlns:xlink="http://www.w3.org/1999/xlink" x="0px" y="0px"
	 viewBox="0 0 137.3 180" style="enable-background:new 0 0 137.3 180;" xml:space="preserve">
<style type="text/css">
	.st0{display:none;}
	.st1{display:inline;fill:#FF0000;}
	.st2{fill:none;}
</style>
<g id="bg" class="st0">
	<polygon class="st1" points="120.5,0 117.3,0 100.5,0 36.8,0 20,0 16.8,0 0,0 0,180 16.8,180 20,180 36.8,180 100.5,180 117.3,180 
		120.5,180 137.3,180 137.3,0 	"/>
</g>
<g id="figure">
	<g>
		<g>
			<g>
				<path d="M81.1,68c-0.4,0.6-0.8,1.1-1.3,1.6c-0.4,0.5-0.9,1-1.4,1.4c-1,0.9-2,1.8-3.2,2.5c-0.6,0.4-1.2,0.7-1.8,1
					c-0.6,0.3-1.3,0.6-2,0.8c-0.7,0.2-1.5,0.4-2.3,0.3c-0.9,0-1.9-0.2-2.8-0.7c-0.9-0.5-1.5-1.4-1.9-2.1c-0.4-0.8-0.6-1.5-0.7-2.3
					c-0.2-1.5-0.2-2.9-0.1-4.2c0.3-2.7,0.9-5.3,2.3-7.6l0.2,0c0.4,2.7,0.2,5.2,0.1,7.6c0,1.2,0,2.4,0.1,3.6c0.1,1.1,0.5,2.2,1.3,2.8
					c0.4,0.3,0.9,0.5,1.5,0.5c0.6,0.1,1.2,0.1,1.8,0c1.2-0.2,2.4-0.8,3.6-1.3c2.3-1.1,4.5-2.5,6.5-4.1L81.1,68z"/>
			</g>
			<g>
				<path class="st2" d="M67.1,68.7"/>
			</g>
			<g>
				<path class="st2" d="M81,68.9"/>
			</g>
			<g>
				<path d="M91.5,56.7c0.4,1.2-0.1,1.5-0.4,2c-0.3,0.5-0.7,1-1,1.4c-0.7,0.9-1.6,1.8-2.3,2.7l-4.4,5.5c-2.9,3.7-5.8,7.4-8.7,11.1
					c-2.9,3.7-5.8,7.4-8.8,11l-4.5,5.4c-1.5,1.8-3,3.6-4.5,5.3c-2.9,3.5-5.7,7.1-7.9,10.9c-0.5,0.9-1,1.9-1.4,2.8
					c-0.4,0.9-0.6,1.9-0.7,2.6c0,0.4,0,0.6,0.1,0.7c0,0.1,0.1,0.2,0.3,0.3c0.4,0.2,1.3,0.3,2.3,0.1c1-0.2,2-0.5,3-1l0.7-0.3
					c0.2-0.1,0.5-0.2,0.7-0.4l1.6-0.8c2.1-1.1,4.2-2.1,6.4-3.1c4.3-1.9,8.6-3.7,13-5.4l0.1,0.1c-3.6,3.2-7.7,5.6-11.7,8
					c-2,1.2-4.1,2.2-6.2,3.3c-0.5,0.3-1,0.6-1.5,0.9c-0.2,0.1-0.5,0.3-0.8,0.5l-0.8,0.4c-1.1,0.6-2.3,1.1-3.6,1.5
					c-1.3,0.3-2.8,0.7-4.6,0.1c-0.9-0.3-1.8-1-2.4-1.9c-0.6-0.9-0.8-1.8-0.8-2.6c-0.1-1.6,0.1-3,0.5-4.3c0.4-1.3,0.8-2.5,1.3-3.7
					c2.1-4.6,4.9-8.6,8-12.3c1.6-1.9,3.1-3.6,4.7-5.3l4.7-5.2c3.2-3.5,6.4-6.9,9.6-10.3l9.7-10.3l4.8-5.1c0.8-0.9,1.5-1.8,2.3-2.6
					c0.4-0.4,0.8-0.8,1.3-1.2C90,56.9,90.3,56.4,91.5,56.7z"/>
			</g>
			<g>
				<path d="M46.2,95.8c2.6-2.6,5.3-5.2,7.5-8.1c2.3-2.9,4.3-6,6.2-9.1c1.9-3.1,3.6-6.3,4.9-9.6c0.7-1.6,1.2-3.3,1.4-4.9
					c0.1-0.8,0.2-1.5,0.1-2.1c-0.1-0.6-0.3-1-0.4-1.2c-0.2-0.2-0.6-0.4-1.2-0.4c-0.6,0-1.4,0-2.2,0.2c-1.6,0.4-3.2,1-4.7,1.8
					c-3.1,1.7-6,3.8-8.8,6.1c-2.8,2.3-5.4,4.8-8,7.4c-2.6,2.6-5,5.3-7.4,8c-2.4,2.8-4.6,5.6-6.9,8.4c-2.2,2.8-4.4,5.7-6.4,8.7
					c-2,3-3.8,6-5.3,9.1c-0.7,1.5-1.3,3.1-1.6,4.5c-0.1,0.7-0.2,1.3-0.2,1.8c0,0.5,0.1,0.6,0,0.6c-0.1,0,0.1,0.3,0.6,0.4
					c0.5,0.1,1.2,0.1,2,0c1.5-0.2,3.2-0.8,4.8-1.5c0.8-0.4,1.6-0.7,2.4-1.2c0.8-0.4,1.5-0.9,2.3-1.4c1.5-1,3-2,4.5-3.1
					C35.7,106,41.1,101.1,46.2,95.8z M48.6,98c-5,5.5-10.5,10.8-16.4,15.4c-1.5,1.2-3,2.3-4.6,3.4c-0.8,0.5-1.6,1.1-2.4,1.6
					c-0.8,0.5-1.6,1-2.5,1.5c-1.7,1-3.5,1.9-5.6,2.6c-1,0.3-2.2,0.6-3.5,0.6c-0.3,0-0.7,0-1.1-0.1c-0.4,0-0.7-0.1-1.1-0.2
					c-0.8-0.2-1.6-0.7-2.3-1.2c-0.7-0.6-1.3-1.4-1.6-2.1c-0.2-0.4-0.3-0.8-0.4-1.1l-0.1-0.6l-0.1-0.5c-0.2-1.4-0.1-2.6,0-3.7
					c0.4-2.2,1-4.2,1.7-6.1c1.5-3.7,3.4-7.1,5.5-10.4c4.2-6.5,9-12.4,14.5-17.7C34,74,39.8,69.1,46.1,64.8c3.1-2.2,6.4-4.2,9.9-5.9
					c1.8-0.9,3.6-1.7,5.6-2.2c1-0.3,2.1-0.5,3.4-0.4c1.2,0,2.7,0.4,3.9,1.5c1.2,1.1,1.7,2.6,1.8,3.8c0.1,1.2,0,2.3-0.2,3.4
					c-0.4,2.1-1.1,3.9-1.9,5.7c-1.6,3.5-3.7,6.7-5.9,9.8c-2.2,3.1-4.5,6-6.9,8.9C53.3,92.2,51,95.2,48.6,98z"/>
			</g>
		</g>
		<g>
			<g>
				<path d="M56.2,117.2c0-1,0.4-1.2,0.8-1.4l1.2-0.7l2.4-1.4c1.6-0.9,3.2-1.8,4.8-2.7c3.2-1.8,6.4-3.5,9.7-5.2l9.7-5.1
					c1.6-0.8,3.3-1.6,4.9-2.4c1.6-0.8,3.3-1.6,5.1-2.1l0.7-0.2l-0.1,1c-0.1,1-0.4,1.7-0.7,2.5c-0.3,0.7-0.7,1.4-1.1,2
					c-0.9,1.2-1.9,2.3-2.9,3.4l-5.9,6.7c-2,2.2-4.1,4.4-6.2,6.5c-0.5,0.5-1.1,1.1-1.6,1.6c-0.6,0.5-1.2,0.9-1.9,1.2l-2.2,1
					c-0.7,0.3-1.5,0.6-2.5,0.7l-0.6-0.8c1.5-1.7,3.3-2.9,5.1-4c1.8-1.1,3.7-2,5.6-3.1l11-6.5c3.7-2.2,7.3-4.3,11-6.4
					c3.7-2.2,7.5-4,11.6-5.5l0.9-0.3l-0.3,1.1c-0.2,0.8-0.5,1.5-0.8,2.3c-0.1,0.4-0.2,0.8-0.4,1.2c-0.2,0.4-0.4,0.6-0.7,0.9
					l-2.8,3.4c-1.9,2.3-3.9,4.5-5.9,6.7c-2,2.2-4,4.4-6,6.5c-1,1.1-2.1,2.1-3.2,3.1c-0.3,0.2-0.5,0.5-0.9,0.7
					c-0.3,0.2-0.7,0.3-1.2,0.4c-0.8,0.2-1.6,0.5-2.6,0.6l-0.6-0.8c2.1-3.5,5.6-4.6,8.8-6.3c3.1-1.7,6.3-3.5,9.4-5.2
					c3.1-1.8,6.2-3.5,9.4-5.3c1.6-0.9,3.2-1.7,4.7-2.6l2.4-1.2l1.2-0.6c0.2-0.1,0.4-0.2,0.7-0.1c0.3,0,0.6,0.1,0.9,0.3l0.1,0.2
					c0,0.4-0.1,0.7-0.2,1c-0.1,0.2-0.3,0.4-0.5,0.5l-1.1,0.7l-2.3,1.4c-1.5,0.9-3.1,1.9-4.6,2.8c-3.1,1.8-6.2,3.6-9.3,5.4
					c-3.1,1.8-6.2,3.6-9.3,5.4c-3,1.9-5.8,4.3-9.9,4.4l-0.7,0l0.1-0.8c0.1-1,0.3-1.8,0.5-2.6c0.1-0.4,0.2-0.9,0.4-1.2
					c0.2-0.3,0.4-0.6,0.7-0.9c0.9-1.2,1.9-2.3,2.9-3.4c2-2.2,4.1-4.3,6.1-6.4c2.1-2.1,4.2-4.2,6.3-6.3l3.2-3
					c0.3-0.2,0.5-0.5,0.9-0.7c0.3-0.2,0.8-0.3,1.1-0.5c0.8-0.3,1.5-0.6,2.3-0.9l0.6,0.8c-3.3,2.8-6.8,5.2-10.6,7.3
					c-3.7,2.1-7.4,4.2-11.1,6.3l-11.2,6.3c-1.9,1.1-3.6,2.2-5.5,3.3c-1.9,1-3.8,2-6,2.4l-0.7,0.1l0.1-0.9c0.1-0.9,0.4-1.7,0.7-2.5
					l0.9-2.2c0.3-0.7,0.7-1.4,1.2-2c0.5-0.6,1-1.1,1.5-1.6c2-2.2,4.1-4.3,6.3-6.4l6.6-6.1c1.1-1,2.1-2.1,3.4-3
					c0.6-0.4,1.3-0.8,2-1.2c0.7-0.3,1.5-0.6,2.4-0.8l0.6,0.8c-1.4,1.2-3,2.2-4.6,3.1c-1.6,0.9-3.2,1.9-4.8,2.7l-9.7,5.2
					c-3.2,1.7-6.4,3.5-9.7,5.1c-1.6,0.9-3.3,1.7-4.9,2.5l-2.5,1.2l-1.2,0.6c-0.4,0.2-0.8,0.5-1.6-0.1L56.2,117.2z"/>
			</g>
		</g>
	</g>
</g>
</svg>
