<?xml version="1.0" encoding="utf-8"?>
<!-- Generator: Adobe Illustrator 22.1.0, SVG Export Plug-In . SVG Version: 6.00 Build 0)  -->
<svg version="1.1" xmlns="http://www.w3.org/2000/svg" xmlns:xlink="http://www.w3.org/1999/xlink" x="0px" y="0px"
	 viewBox="0 0 77 180" style="enable-background:new 0 0 77 180;" xml:space="preserve">
<style type="text/css">
	.st0{display:none;}
	.st1{display:inline;fill:#FF0000;}
</style>
<g id="bg" class="st0">
	<polygon class="st1" points="74.2,0 73.5,0 73.3,0 71.5,0 70.7,0 70.5,0 70,0 69.8,0 69.6,0 68,0 67.8,0 67.2,0 67,0 66.8,0 
		66.4,0 66.3,0 66.1,0 64.5,0 64.3,0 64.1,0 63.6,0 63.5,0 63.3,0 62.8,0 62.7,0 62.6,0 60.9,0 60.8,0 60.6,0 60.1,0 59.9,0 59.8,0 
		59.3,0 59.1,0 59,0 57.3,0 57.2,0 57,0 57,0 56.6,0 56.4,0 56.2,0 55.6,0 55.4,0 54.2,0 53.8,0 53.6,0 53.5,0 53.4,0 53.3,0 
		52.9,0 52.7,0 51.9,0 51.5,0 50.7,0 50.6,0 50.5,0 50.1,0 50,0 49.9,0 49.8,0 49.6,0 49.2,0 48,0 47.8,0 47.8,0 47.2,0 47.1,0 
		47,0 46.9,0 46.8,0 46.4,0 46.4,0 46.3,0 46.1,0 45.1,0 44.5,0 44.3,0 44.3,0 44.1,0 44.1,0 43.6,0 43.6,0 43.5,0 43.4,0 43.3,0 
		43.2,0 42.8,0 42.7,0 42.6,0 41.6,0 41.4,0 40.9,0 40.8,0 40.8,0 40.6,0 40.6,0 40.4,0 40.1,0 40,0 39.9,0 39.8,0 39.8,0 39.7,0 
		39.3,0 39.1,0 39,0 38,0 37.9,0 37.7,0 37.3,0 37.2,0 37.2,0 37.1,0 37,0 36.9,0 36.6,0 36.4,0 36.4,0 36.2,0 36.2,0 36.1,0 
		35.6,0 35.4,0 34.4,0 34.3,0 34.2,0 33.8,0 33.7,0 33.6,0 33.5,0 33.4,0 33.4,0 32.9,0 32.9,0 32.7,0 32.7,0 32.5,0 31.9,0 30.9,0 
		30.7,0 30.6,0 30.6,0 30.2,0 30.1,0 30,0 29.9,0 29.8,0 29.2,0 29.2,0 29,0 27.8,0 27.4,0 27.2,0 27.1,0 27,0 26.9,0 26.5,0 
		26.4,0 26.3,0 25.5,0 25.1,0 24.3,0 24.1,0 23.7,0 23.6,0 23.5,0 23.4,0 23.2,0 22.8,0 21.6,0 21.4,0 20.8,0 20.6,0 20.4,0 20,0 
		20,0 19.8,0 19.7,0 18,0 17.9,0 17.7,0 17.2,0 17.1,0 16.9,0 16.4,0 16.2,0 16.1,0 14.4,0 14.3,0 14.2,0 13.7,0 13.5,0 13.4,0 
		12.9,0 12.7,0 12.5,0 10.9,0 10.7,0 10.6,0 10.2,0 10,0 9.8,0 9.2,0 9,0 7.4,0 7.2,0 7,0 6.5,0 6.3,0 5.5,0 3.7,0 3.5,0 2.8,0 0,0 
		0,180 2.8,180 3.5,180 3.7,180 5.5,180 6.3,180 6.5,180 7,180 7.2,180 7.4,180 9,180 9.2,180 9.8,180 10,180 10.2,180 10.6,180 
		10.7,180 10.9,180 12.5,180 12.7,180 12.9,180 13.4,180 13.5,180 13.7,180 14.2,180 14.3,180 14.4,180 16.1,180 16.2,180 16.4,180 
		16.9,180 17.1,180 17.2,180 17.7,180 17.9,180 18,180 19.7,180 19.8,180 20,180 20,180 20.4,180 20.6,180 20.8,180 21.4,180 
		21.6,180 22.8,180 23.2,180 23.4,180 23.5,180 23.6,180 23.7,180 24.1,180 24.3,180 25.1,180 25.5,180 26.3,180 26.4,180 26.5,180 
		26.9,180 27,180 27.1,180 27.2,180 27.4,180 27.8,180 29,180 29.2,180 29.2,180 29.8,180 29.9,180 30,180 30.1,180 30.2,180 
		30.6,180 30.6,180 30.7,180 30.9,180 31.9,180 32.5,180 32.7,180 32.7,180 32.9,180 32.9,180 33.4,180 33.4,180 33.5,180 33.6,180 
		33.7,180 33.8,180 34.2,180 34.3,180 34.4,180 35.4,180 35.6,180 36.1,180 36.2,180 36.2,180 36.4,180 36.4,180 36.6,180 36.9,180 
		37,180 37.1,180 37.2,180 37.2,180 37.3,180 37.7,180 37.9,180 38,180 39,180 39.1,180 39.3,180 39.7,180 39.8,180 39.8,180 
		39.9,180 40,180 40.1,180 40.4,180 40.6,180 40.6,180 40.8,180 40.8,180 40.9,180 41.4,180 41.6,180 42.6,180 42.7,180 42.8,180 
		43.2,180 43.3,180 43.4,180 43.5,180 43.6,180 43.6,180 44.1,180 44.1,180 44.3,180 44.3,180 44.5,180 45.1,180 46.1,180 46.3,180 
		46.4,180 46.4,180 46.8,180 46.9,180 47,180 47.1,180 47.2,180 47.8,180 47.8,180 48,180 49.2,180 49.6,180 49.8,180 49.9,180 
		50,180 50.1,180 50.5,180 50.6,180 50.7,180 51.5,180 51.9,180 52.7,180 52.9,180 53.3,180 53.4,180 53.5,180 53.6,180 53.8,180 
		54.2,180 55.4,180 55.6,180 56.2,180 56.4,180 56.6,180 57,180 57,180 57.2,180 57.3,180 59,180 59.1,180 59.3,180 59.8,180 
		59.9,180 60.1,180 60.6,180 60.8,180 60.9,180 62.6,180 62.7,180 62.8,180 63.3,180 63.5,180 63.6,180 64.1,180 64.3,180 64.5,180 
		66.1,180 66.3,180 66.4,180 66.8,180 67,180 67.2,180 67.8,180 68,180 69.6,180 69.8,180 70,180 70.5,180 70.7,180 71.5,180 
		73.3,180 73.5,180 74.2,180 77,180 77,0 	"/>
</g>
<g id="figure">
	<g>
		<path d="M10,122.7c0.1-1.1,0.5-1.7,0.9-2.1c0.5-0.4,1-0.6,1.5-0.9l3.1-1.8l6.2-3.6c4.1-2.4,8.3-4.7,12.5-7l3.2-1.7
			c1.1-0.6,2-1.1,3.1-1.7l6.2-3.5l6.3-3.5c1-0.6,2.1-1.1,3.3-1.4c1.2-0.4,2.4-0.6,3.8-0.6l0,0l0,0l0,0c0.4,1.5,0.1,2.3-0.4,2.9
			c-0.4,0.7-0.9,1.4-1.4,2c-1,1.3-2.1,2.4-3.1,3.6c-2.1,2.4-4,5-6.1,7.3c-1.1,1.2-2.2,2.3-3.3,3.4c-1.1,1.1-2.2,2.3-3.4,3.3
			c-1.2,1.1-2.4,2.1-3.6,3.1c-0.6,0.5-1.3,1-1.9,1.4c-0.3,0.2-0.7,0.4-1.2,0.5c-0.5,0.1-1.1,0.1-1.8-0.1l0,0l0,0
			c0.7-2,2.2-2.8,3.5-3.9c1.3-1,2.7-1.9,4.1-2.8c2.8-1.7,5.7-3.3,8.6-4.9c2.9-1.6,5.8-3.1,8.7-4.6c1.5-0.8,3-1.5,4.4-2.2l2.2-1.1
			c0.8-0.3,1.4-0.9,2.6-0.4l0.1,0.1c-0.2,1.4-1,1.6-1.6,2.1l-2.1,1.4c-1.4,0.9-2.7,1.8-4.1,2.7c-2.8,1.8-5.6,3.5-8.4,5.2
			c-2.8,1.7-5.6,3.4-8.5,5c-1.4,0.8-2.9,1.5-4.5,2.1c-1.6,0.6-3,1.5-5.1,1.1l0,0l0,0c-0.2-0.7-0.3-1.3-0.2-1.8
			c0-0.5,0.2-0.9,0.4-1.3c0.4-0.7,0.9-1.4,1.3-2c0.9-1.3,1.9-2.6,2.9-3.8c1-1.2,2.1-2.4,3.2-3.5c1.1-1.2,2.2-2.3,3.3-3.4
			c2.3-2.2,4.7-4.3,7-6.4c1.1-1.1,2.2-2.3,3.5-3.3c0.6-0.5,1.2-1,1.9-1.5c0.6-0.5,1.4-0.8,2.9-0.5l0,0l0,0c-0.7,1.2-1.5,2.2-2.4,3
			c-0.9,0.8-1.8,1.6-2.9,2.2l-6.1,3.8c-2.1,1.2-4.1,2.5-6.2,3.7c-1,0.6-2.2,1.2-3.2,1.8l-3.2,1.7c-4.2,2.2-8.5,4.4-12.7,6.6
			l-6.4,3.2l-3.2,1.6c-0.5,0.2-1,0.6-1.6,0.7C11.7,123.2,11,123.2,10,122.7z"/>
	</g>
</g>
</svg>
