<?xml version="1.0" encoding="utf-8"?>
<!-- Generator: Adobe Illustrator 22.1.0, SVG Export Plug-In . SVG Version: 6.00 Build 0)  -->
<svg version="1.1" xmlns="http://www.w3.org/2000/svg" xmlns:xlink="http://www.w3.org/1999/xlink" x="0px" y="0px"
	 viewBox="0 0 149.9 180" style="enable-background:new 0 0 149.9 180;" xml:space="preserve">
<style type="text/css">
	.st0{display:none;}
	.st1{display:inline;fill:#FF0000;}
</style>
<g id="bg" class="st0">
	<polygon class="st1" points="142.2,0 140.1,0 139.6,0 134.5,0 132.4,0 131.8,0 130.2,0 129.9,0 129.7,0 129.2,0 124.7,0 124.1,0 
		122.5,0 122.2,0 122,0 121.5,0 120.1,0 119.8,0 119.6,0 119.3,0 114.8,0 114.5,0 114.3,0 113.7,0 112.4,0 112.1,0 111.8,0 111.6,0 
		110.2,0 109.7,0 109.5,0 109.2,0 104.7,0 104.4,0 104.1,0 103.9,0 102.5,0 102,0 101.7,0 101.5,0 99.8,0 99.3,0 94.8,0 94.3,0 
		94,0 93.7,0 92.1,0 91.6,0 89.5,0 84.4,0 83.9,0 81.7,0 75.9,0 74,0 68.2,0 66.1,0 65.5,0 60.5,0 58.3,0 57.8,0 56.2,0 55.9,0 
		55.7,0 55.1,0 50.6,0 50.1,0 48.5,0 48.2,0 48,0 47.4,0 46.1,0 45.8,0 45.5,0 45.3,0 40.8,0 40.5,0 40.2,0 39.7,0 38.3,0 38.1,0 
		37.8,0 37.6,0 36.2,0 35.7,0 35.4,0 35.1,0 30.6,0 30.4,0 30.1,0 29.9,0 28.5,0 28,0 27.7,0 27.4,0 25.8,0 25.3,0 20.8,0 20.2,0 
		20,0 19.7,0 18.1,0 17.6,0 15.4,0 10.4,0 9.9,0 7.7,0 0,0 0,180 7.7,180 9.9,180 10.4,180 15.4,180 17.6,180 18.1,180 19.7,180 
		20,180 20.2,180 20.8,180 25.3,180 25.8,180 27.4,180 27.7,180 28,180 28.5,180 29.9,180 30.1,180 30.4,180 30.6,180 35.1,180 
		35.4,180 35.7,180 36.2,180 37.6,180 37.8,180 38.1,180 38.3,180 39.7,180 40.2,180 40.5,180 40.8,180 45.3,180 45.5,180 45.8,180 
		46.1,180 47.4,180 48,180 48.2,180 48.5,180 50.1,180 50.6,180 55.1,180 55.7,180 55.9,180 56.2,180 57.8,180 58.3,180 60.5,180 
		65.5,180 66.1,180 68.2,180 74,180 75.9,180 81.7,180 83.9,180 84.4,180 89.5,180 91.6,180 92.1,180 93.7,180 94,180 94.3,180 
		94.8,180 99.3,180 99.8,180 101.5,180 101.7,180 102,180 102.5,180 103.9,180 104.1,180 104.4,180 104.7,180 109.2,180 109.5,180 
		109.7,180 110.2,180 111.6,180 111.8,180 112.1,180 112.4,180 113.7,180 114.3,180 114.5,180 114.8,180 119.3,180 119.6,180 
		119.8,180 120.1,180 121.5,180 122,180 122.2,180 122.5,180 124.1,180 124.7,180 129.2,180 129.7,180 129.9,180 130.2,180 
		131.8,180 132.4,180 134.5,180 139.6,180 140.1,180 142.2,180 149.9,180 149.9,0 	"/>
</g>
<g id="figure">
	<g>
		<g>
			<path d="M115.4,56.2c0.6,0.8,0.5,1.3,0.3,1.7c-0.2,0.4-0.4,0.8-0.6,1.2c-0.4,0.8-0.9,1.6-1.4,2.3c-1,1.5-2.2,2.7-3.4,4
				c-1.2,1.3-2.4,2.4-3.8,3.6c-0.4,0.3-0.7,0.6-1.1,0.8c-0.4,0.3-0.8,0.5-1.2,0.7c-0.8,0.5-1.8,0.9-2.9,1.1c-0.6,0.1-1.2,0.1-1.9,0
				c-0.7-0.1-1.4-0.4-1.9-0.9c-1.1-0.9-1.6-2.1-2-3c-0.2-0.5-0.3-1-0.4-1.5c-0.1-0.5-0.1-1.1-0.1-1.7c0-1.1,0.3-2.2,0.8-3.3
				c0.5-1,1.1-2,1.9-2.7c0.4-0.4,0.9-0.7,1.3-1c0.2-0.1,0.5-0.3,0.7-0.4c0,0,0,0-0.2,0.2c-0.1,0.1-0.2,0.2-0.4,0.7
				c-0.1,0.2-0.1,0.5-0.1,0.9c0,0.3,0.1,0.7,0.3,0.9c0.3,0.4,0.5,0.5,0.6,0.6c0.1,0.1,0.2,0.1,0.2,0.1c0.1,0,0.1,0,0-0.1
				c-0.1-0.1-0.2-0.1-0.4-0.2c-0.3-0.1-0.7-0.2-1.1-0.3c-0.8-0.1-1.6-0.2-2.4-0.2l0.2,0c-0.8,0-1.8,0.3-2.6,0.6
				c-0.9,0.3-1.8,0.7-2.6,1.1c-1.7,0.9-3.4,1.8-4.9,3c-3.2,2.2-6,4.8-8.8,7.5c-2.7,2.7-5.3,5.5-7.8,8.4c-0.7,0.7-1.2,1.4-1.8,2.2
				l-1.8,2.2c-1.2,1.5-2.4,3-3.7,4.6c-5,6.2-10.2,12.3-15.9,18.1c-2.8,2.9-5.7,5.8-9.1,8.3c-1.7,1.2-3.5,2.4-5.6,3
				c-2,0.7-3.9,1.2-5.9,1.6c-2,0.4-4,0.8-6,1.1c-2,0.3-4.1,0.4-6.2,0.2c-1.1-0.1-2.2-0.3-3.4-0.9c-0.6-0.3-1.3-0.9-1.6-1.8
				c-0.2-0.4-0.2-0.9-0.2-1.1c0-0.3,0-0.7,0-1c0.1-1.4,0.9-2.8,1.9-3.6c1.1-0.9,2.2-1.3,3.4-1.6c2.3-0.5,4.4-0.5,6.6-0.3
				c2.1,0.2,4.1,0.6,6.1,1.1c4,0.9,7.8,2.3,11.5,3.4c1.8,0.5,3.6,0.9,5.4,1.1c0.4,0,0.8,0,1.3,0c0.4,0,0.8,0,1.3-0.1
				c0.9-0.1,1.9-0.3,2.8-0.4c3.8-0.6,7.5-1.7,11.1-2.9c1.8-0.6,3.5-1.4,5.4-2.2l5.5-2.4l5.5-2.4l2.7-1.2c0.9-0.4,1.8-0.8,2.5-1.2
				l1.9,2.9c-1,0.7-1.9,1.1-2.8,1.6c-0.9,0.5-1.8,0.9-2.7,1.4l-5.4,2.6l-5.4,2.6l-2.7,1.3c-0.9,0.4-1.9,0.9-2.9,1.2
				c-3.8,1.5-7.8,2.7-11.8,3.5c-1,0.2-2,0.4-3.1,0.5c-0.5,0.1-1.1,0.1-1.7,0.2c-0.6,0-1.2,0-1.7,0c-2.3-0.2-4.4-0.6-6.3-1.2
				c-2-0.6-3.9-1.2-5.8-1.8c-1.9-0.6-3.7-1.2-5.6-1.8c-1.8-0.5-3.7-1-5.5-1.4c-1.8-0.3-3.7-0.5-5.3-0.3c-0.8,0.1-1.6,0.3-2.1,0.7
				c-0.5,0.3-0.8,0.8-1,1.4c0,0.2,0,0.3,0,0.5c0,0.2,0,0.3,0,0.3c0,0.1,0.1,0.2,0.4,0.4c0.5,0.3,1.4,0.5,2.3,0.6
				c1.8,0.2,3.8,0.1,5.7-0.1c1.9-0.2,3.9-0.6,5.8-1c1.9-0.4,3.8-0.9,5.6-1.6c1.7-0.6,3.3-1.7,4.7-2.9c2.9-2.5,5.4-5.5,7.7-8.7
				c2.3-3.2,4.5-6.5,6.7-9.8l6.7-9.9c1.1-1.6,2.2-3.3,3.5-5c1.4-1.6,2.7-3.2,4.1-4.7c1.4-1.5,2.9-3,4.4-4.3c1.5-1.4,3.2-2.7,4.8-3.9
				c3.4-2.4,6.9-4.6,10.7-6.4c1.8-0.9,3.8-1.7,5.7-2.4c1-0.3,2-0.7,3-0.9c1-0.3,2-0.6,3.2-0.8l0.2,0c0.9-0.1,1.7-0.1,2.6-0.2
				c0.5,0,0.9-0.1,1.4-0.1c0.3,0,0.5,0,0.9,0c0.2,0,0.4,0.1,0.6,0.1c0.1,0,0.3,0.1,0.5,0.2c0.2,0.1,0.5,0.3,0.8,0.8
				c0.2,0.3,0.3,0.6,0.3,1c0,0.4,0,0.7-0.1,1c-0.2,0.5-0.4,0.7-0.6,0.9c-0.3,0.3-0.5,0.5-0.7,0.6c-0.2,0.2-0.2,0.2-0.4,0.3
				c-0.2,0.2-0.4,0.4-0.6,0.6c-0.4,0.4-0.7,0.9-1,1.3c-0.3,0.5-0.5,1-0.6,1.5c-0.1,0.3-0.1,0.6-0.1,0.8c0,0.3-0.1,0.7,0,1
				c0,0.6,0.1,1.1,0.3,1.3c0.1,0.2,0.4,0.3,0.9,0.2c0.5-0.1,1.2-0.4,1.8-0.7c0.7-0.4,1.2-0.8,1.8-1.3c1.2-1,2.4-2.1,3.5-3.3
				c1.1-1.1,2.2-2.4,3.2-3.6c0.5-0.6,1-1.2,1.5-1.9c0.2-0.3,0.5-0.6,0.7-0.9c0.2-0.3,0.5-0.6,1.4-0.6L115.4,56.2z"/>
		</g>
		<g>
			<path d="M68.9,112c1.4-1.1,2.7-2.2,4.1-3.2c1.4-1,2.8-2.1,4.3-2.9c3-1.6,6-3.2,9-4.8l18.3-9.1c6-3.1,11.9-6.3,17.2-10.4
				c2.7-2.1,5.2-4.2,7.6-6.6c2.4-2.4,4.6-4.9,6.5-7.6c0.9-1.4,1.8-2.8,2.3-4.2c0.2-0.7,0.4-1.5,0.3-1.8c-0.1-0.2,0,0-0.1,0
				c0,0-0.1,0-0.3,0c-0.5,0.1-1.2,0.4-1.8,0.7c-0.7,0.4-1.3,0.8-2,1.3c-1.3,0.9-2.6,2-3.8,3.1c-2.4,2.2-4.9,4.6-7.3,6.9
				c-1.2,1.1-2.3,2.3-3.4,3.5c-1.1,1.2-2.3,2.4-3.3,3.6c-4.4,4.9-8.4,10.2-11.9,15.8c-3.5,5.7-6.9,11.7-10.6,17.4
				c-1.9,2.9-3.7,5.8-5.7,8.6c-2,2.8-3.9,5.6-5.9,8.4c-1,1.4-2,2.8-3.1,4.2c-1.1,1.4-2.2,2.8-3.4,4.1c-2.3,2.7-4.8,5.2-7.5,7.6
				c-2.6,2.4-5.5,4.6-8.5,6.5c-3,1.9-6.2,3.6-9.7,4.8c-0.9,0.3-1.8,0.5-2.8,0.7c-1,0.1-2,0.2-3.4-0.2c-0.7-0.2-1.5-0.7-2-1.6
				c-0.1-0.2-0.2-0.4-0.3-0.7c-0.1-0.3-0.1-0.5-0.1-0.7c0-0.4,0-0.7,0.1-1c0.2-1.2,0.7-2,1.1-2.8c0.9-1.6,1.9-3.1,3-4.5
				c1.1-1.4,2.2-2.7,3.4-4c4.8-5.1,10.2-9.4,16-13.3c2.9-1.9,5.8-3.7,8.9-5.4l9.1-4.8c6-3.2,12-6.5,17.9-9.8l8.9-5l4.4-2.5l2.2-1.3
				c0.4-0.2,0.7-0.5,1.2-0.5c0.5-0.1,1,0,1.7,0.4l0.2,0.3c0,0.9-0.2,1.4-0.4,1.8c-0.3,0.4-0.7,0.5-1,0.8l-2.2,1.3l-4.4,2.6
				c-2.9,1.7-5.9,3.4-8.9,5.1c-6,3.3-12,6.5-18.1,9.6l-9.1,4.6c-3,1.6-5.9,3.3-8.7,5.1c-5.6,3.7-10.9,7.9-15.4,12.9
				c-2.2,2.5-4.3,5.1-5.6,8c-0.3,0.7-0.6,1.4-0.6,2c0,0.1,0,0.2,0,0.2c0,0,0,0,0-0.1c0,0,0,0,0-0.1c-0.1-0.1-0.1-0.2,0-0.1
				c0.3,0.1,1,0,1.6-0.2c0.7-0.2,1.4-0.4,2.1-0.8c2.8-1.3,5.5-3.2,8.1-5.2c2.5-2,4.9-4.3,7.2-6.7c2.3-2.4,4.4-4.9,6.4-7.5
				c1-1.3,2-2.6,2.9-4c0.9-1.3,1.8-2.7,2.8-4.2c1.9-2.8,3.7-5.7,5.5-8.6c1.8-2.8,3.7-5.7,5.5-8.6c3.6-5.7,7-11.5,10.9-17.3
				c1.9-2.9,4.1-5.8,6.3-8.5c2.2-2.7,4.5-5.4,6.9-8c1.2-1.3,2.5-2.5,3.8-3.7c1.3-1.2,2.7-2.3,4-3.5c2.8-2.2,5.6-4.1,8.7-5.9
				c1.5-0.9,3.1-1.8,4.7-2.5c0.8-0.4,1.7-0.7,2.6-1.1c0.9-0.3,1.9-0.6,3.1-0.6c0.6,0,1.4,0.1,2.1,0.6c0.3,0.2,0.6,0.6,0.9,1
				c0.2,0.4,0.3,0.8,0.4,1.1c0.1,1.4-0.3,2.3-0.6,3.2c-0.7,1.8-1.7,3.3-2.7,4.7c-4.2,5.7-9.2,10.4-14.5,14.8
				c-2.6,2.2-5.4,4.3-8.3,6.2c-2.9,1.9-5.8,3.7-8.8,5.4c-6,3.4-12.2,6.3-18.3,9.3c-3,1.5-6.1,3-9.2,4.5c-1.6,0.7-3.2,1.2-4.9,1.7
				c-1.6,0.5-3.3,1-5,1.5L68.9,112z"/>
		</g>
	</g>
</g>
</svg>
