<?xml version="1.0" encoding="utf-8"?>
<!-- Generator: Adobe Illustrator 22.1.0, SVG Export Plug-In . SVG Version: 6.00 Build 0)  -->
<svg version="1.1" xmlns="http://www.w3.org/2000/svg" xmlns:xlink="http://www.w3.org/1999/xlink" x="0px" y="0px"
	 viewBox="0 0 106.2 180" style="enable-background:new 0 0 106.2 180;" xml:space="preserve">
<style type="text/css">
	.st0{display:none;}
	.st1{display:inline;fill:#FF0000;}
</style>
<g id="bg" class="st0">
	<polygon class="st1" points="102,0 100.9,0 100.6,0 97.9,0 96.7,0 96.4,0 95.6,0 95.3,0 95,0 92.6,0 92.3,0 91.4,0 91.1,0 90.8,0 
		90.1,0 90,0 89.7,0 87.2,0 87,0 86.7,0 86.2,0 86,0 85.8,0 85.5,0 84.8,0 84.5,0 84.4,0 82,0 81.8,0 81.6,0 81.4,0 80.9,0 80.6,0 
		80.6,0 80.4,0 80.2,0 79.5,0 79.2,0 78.9,0 77.9,0 76.7,0 76.5,0 76.4,0 76.2,0 76,0 75.6,0 75.3,0 75.3,0 75,0 75,0 74.7,0 
		73.9,0 73.6,0 72.6,0 72.3,0 71.4,0 71.2,0 71.1,0 70.9,0 70.8,0 70.6,0 70.1,0 70,0 69.7,0 69.7,0 69.4,0 68.3,0 67.2,0 67,0 
		66.7,0 66.3,0 66,0 65.8,0 65.6,0 65.5,0 65.3,0 64.8,0 64.5,0 64.4,0 64.1,0 62.1,0 61.8,0 61.6,0 61.4,0 60.9,0 60.7,0 60.6,0 
		60.4,0 60.2,0 59.9,0 59.5,0 59.2,0 58.9,0 57.9,0 56.8,0 56.5,0 56.5,0 56.2,0 56,0 55.6,0 55.3,0 55.3,0 55.1,0 55,0 54.7,0 
		53.9,0 53.6,0 52.6,0 52.3,0 51.5,0 51.2,0 51.2,0 50.9,0 50.9,0 50.6,0 50.2,0 50,0 49.7,0 49.7,0 49.4,0 48.3,0 47.3,0 47,0 
		46.7,0 46.3,0 46,0 45.9,0 45.6,0 45.6,0 45.3,0 44.9,0 44.6,0 44.4,0 44.1,0 42.1,0 41.8,0 41.7,0 41.4,0 40.9,0 40.7,0 40.7,0 
		40.4,0 40.2,0 39.9,0 39.5,0 39.3,0 39,0 37.9,0 36.8,0 36.5,0 36.5,0 36.2,0 36.1,0 35.6,0 35.4,0 35.3,0 35.1,0 35.1,0 34.8,0 
		33.9,0 33.6,0 32.6,0 32.3,0 31.5,0 31.2,0 31.2,0 30.9,0 30.9,0 30.6,0 30.2,0 30,0 29.8,0 29.7,0 29.5,0 28.3,0 27.3,0 27,0 
		26.7,0 26,0 25.9,0 25.6,0 25.6,0 25.3,0 24.9,0 24.6,0 24.4,0 24.2,0 21.8,0 21.7,0 21.4,0 20.7,0 20.4,0 20.2,0 20,0 19.5,0 
		19.3,0 19,0 16.5,0 16.2,0 16.1,0 15.4,0 15.1,0 14.8,0 13.9,0 13.6,0 11.2,0 10.9,0 10.6,0 9.8,0 9.5,0 8.3,0 5.6,0 5.3,0 4.2,0 
		0,0 0,180 4.2,180 5.3,180 5.6,180 8.3,180 9.5,180 9.8,180 10.6,180 10.9,180 11.2,180 13.6,180 13.9,180 14.8,180 15.1,180 
		15.4,180 16.1,180 16.2,180 16.5,180 19,180 19.3,180 19.5,180 20,180 20.2,180 20.4,180 20.7,180 21.4,180 21.7,180 21.8,180 
		24.2,180 24.4,180 24.6,180 24.9,180 25.3,180 25.6,180 25.6,180 25.9,180 26,180 26.7,180 27,180 27.3,180 28.3,180 29.5,180 
		29.7,180 29.8,180 30,180 30.2,180 30.6,180 30.9,180 30.9,180 31.2,180 31.2,180 31.5,180 32.3,180 32.6,180 33.6,180 33.9,180 
		34.8,180 35.1,180 35.1,180 35.3,180 35.4,180 35.6,180 36.1,180 36.2,180 36.5,180 36.5,180 36.8,180 37.9,180 39,180 39.3,180 
		39.5,180 39.9,180 40.2,180 40.4,180 40.7,180 40.7,180 40.9,180 41.4,180 41.7,180 41.8,180 42.1,180 44.1,180 44.4,180 44.6,180 
		44.9,180 45.3,180 45.6,180 45.6,180 45.9,180 46,180 46.3,180 46.7,180 47,180 47.3,180 48.3,180 49.4,180 49.7,180 49.7,180 
		50,180 50.2,180 50.6,180 50.9,180 50.9,180 51.2,180 51.2,180 51.5,180 52.3,180 52.6,180 53.6,180 53.9,180 54.7,180 55,180 
		55.1,180 55.3,180 55.3,180 55.6,180 56,180 56.2,180 56.5,180 56.5,180 56.8,180 57.9,180 58.9,180 59.2,180 59.5,180 59.9,180 
		60.2,180 60.4,180 60.6,180 60.7,180 60.9,180 61.4,180 61.6,180 61.8,180 62.1,180 64.1,180 64.4,180 64.5,180 64.8,180 65.3,180 
		65.5,180 65.6,180 65.8,180 66,180 66.3,180 66.7,180 67,180 67.2,180 68.3,180 69.4,180 69.7,180 69.7,180 70,180 70.1,180 
		70.6,180 70.8,180 70.9,180 71.1,180 71.2,180 71.4,180 72.3,180 72.6,180 73.6,180 73.9,180 74.7,180 75,180 75,180 75.3,180 
		75.3,180 75.6,180 76,180 76.2,180 76.4,180 76.5,180 76.7,180 77.9,180 78.9,180 79.2,180 79.5,180 80.2,180 80.4,180 80.6,180 
		80.6,180 80.9,180 81.4,180 81.6,180 81.8,180 82,180 84.4,180 84.5,180 84.8,180 85.5,180 85.8,180 86,180 86.2,180 86.7,180 
		87,180 87.2,180 89.7,180 90,180 90.1,180 90.8,180 91.1,180 91.4,180 92.3,180 92.6,180 95,180 95.3,180 95.6,180 96.4,180 
		96.7,180 97.9,180 100.6,180 100.9,180 102,180 106.2,180 106.2,0 	"/>
</g>
<g id="figure">
	<g>
		<path d="M9.7,124.5c0.1-0.8,0.6-1.2,1.1-1.5l1.4-1c1-0.7,1.9-1.3,2.9-2c2-1.3,3.9-2.5,5.9-3.7c4-2.4,8.1-4.7,12.2-6.8
			c4.1-2.2,8.2-4.3,12.4-6.4c1-0.5,2.1-1.1,3.1-1.7c0.6-0.3,1.1-0.6,1.8-0.8c0.1,0,0.2-0.1,0.3-0.1c0.2,0,0.3-0.1,0.7-0.1
			c0.1,0,0.2,0,0.4,0.1c0.1,0,0.5,0.2,0.8,0.4c0.4,0.4,0.7,1,0.7,1.5c0,0.4-0.1,0.7-0.1,0.8c-0.1,0.3-0.2,0.4-0.3,0.6l-0.2,0.2
			l-0.5,0.7l-4.3,5.5c-1.5,1.8-2.9,3.6-4.4,5.4c-1.5,1.7-3.1,3.4-4.7,5.1l-0.6,0.6c-0.1,0.1-0.2,0.1-0.1,0.1c0-0.1,0.1-0.1,0.3-0.8
			c0-0.1,0-0.2,0-0.3c0-0.1,0-0.3,0-0.4c0-0.3-0.2-0.7-0.4-1c-0.5-0.6-0.9-0.8-1.2-0.9c-0.4-0.1-0.5,0-0.5,0c0,0,0.2,0,0.4,0
			c0.9-0.1,1.9-0.5,3-0.8c2.1-0.7,4.2-1.6,6.3-2.5c4.2-1.8,8.2-4,12.2-6.2c3.8-2.1,7.2-5.1,10.3-8.4c3.1-3.3,5.8-7,8.2-10.8
			c2.4-3.9,4.5-8,6-12.3c0.4-1.1,0.7-2.2,1-3.2c0.3-1.1,0.4-2.2,0.4-3.1c-0.3-2.1-0.6-4.6-1.8-6c-0.6-0.7-1.3-0.9-2.2-0.9
			c-0.2,0-0.5,0-0.7,0c-0.2,0-0.5,0.1-0.7,0.1c-0.4,0.1-0.7,0.3-1.1,0.5C76.3,65,75,66.7,74,68.4c-1,1.7-1.6,3.6-1.8,5.3
			c-0.1,1.6,0.2,3.4,1.1,4.9c0.9,1.5,2.3,2.8,4,3.5c1.7,0.7,3.6,0.8,5.7,0.3c4.1-0.9,7.7-4,9.9-7.8c0.5-1,1-2,1.4-3
			c0.4-1,0.6-2,0.6-3c0-1-0.1-2.1-0.4-3.1c-0.1-0.5-0.3-1-0.5-1.5c-0.1-0.6-0.7-0.8-0.1-1.9l0.1-0.1c1.3-0.2,1.3,0.6,1.7,1.1
			c0.3,0.5,0.6,1.1,0.8,1.7c0.4,1.2,0.6,2.5,0.6,3.8c0,1.3-0.3,2.6-0.8,3.7c-0.5,1.1-1,2.2-1.6,3.2c-1.2,2.1-2.6,4.1-4.4,5.8
			c-0.9,0.9-1.9,1.7-2.9,2.4c-1.1,0.7-2.2,1.3-3.4,1.8c-2.3,1-5.3,1.4-8,0.6c-2.7-0.7-5.2-2.3-7-4.7c-1.7-2.3-2.7-5.3-2.5-8.3
			c0.2-2.9,1.4-5.5,3-7.7c1.6-2.1,3.7-4,6.5-4.9c0.7-0.2,1.5-0.4,2.3-0.3c0.4,0,0.7,0,1.1,0.1c0.3,0,0.7,0.1,1,0.2
			c0.7,0.2,1.4,0.4,2.1,0.9c0.6,0.4,1.2,1,1.6,1.6c0.8,1.2,1.1,2.5,1.4,3.7c0.1,0.6,0.2,1.2,0.3,1.8l0.1,0.9c0,0.3,0.1,0.6,0.1,0.9
			c0.1,1.4-0.2,2.6-0.5,3.8c-0.3,1.2-0.6,2.3-1,3.4c-1.5,4.5-3.5,8.8-5.8,12.9c-2.3,4.1-4.9,8.1-7.9,11.8c-3.1,3.7-6.6,7-10.8,9.6
			c-4,2.4-8.1,4.7-12.3,6.9c-2.1,1.1-4.3,2.1-6.5,3c-1.2,0.4-2.3,0.9-3.7,1.2c-0.4,0.1-0.7,0.1-1.3,0.2c-0.3,0-0.6,0.1-1.3-0.1
			c-0.4-0.2-0.9-0.3-1.5-1.1c-0.3-0.4-0.4-0.8-0.5-1.2c0-0.2,0-0.4,0-0.6c0-0.2,0-0.3,0-0.5c0.2-1,0.5-1.2,0.7-1.5
			c0.2-0.3,0.4-0.5,0.4-0.6l0.5-0.7c1.5-1.8,3-3.5,4.6-5.2c1.6-1.7,3.3-3.3,4.9-4.9l5.1-4.8l0.6-0.6c0,0,0,0,0,0.1
			c0,0.1-0.1,0.1-0.2,0.4c0,0.1-0.1,0.4-0.1,0.7c0,0.5,0.2,1,0.6,1.4c0.3,0.3,0.6,0.4,0.7,0.4c0.2,0,0.2,0,0.3,0.1
			c0.2,0,0.2,0,0.2,0c0,0,0,0-0.1,0c-0.4,0-1,0.2-1.5,0.3c-1.1,0.3-2.2,0.7-3.2,1.1c-4.2,1.8-8.4,3.9-12.4,6.1
			c-4.1,2.2-8.1,4.5-12.1,6.8c-2,1.2-4,2.4-5.9,3.6c-1,0.6-2,1.2-2.9,1.8l-1.4,0.9c-0.5,0.3-1,0.6-1.8,0.5L9.7,124.5z"/>
	</g>
</g>
</svg>
