<?xml version="1.0" encoding="utf-8"?>
<!-- Generator: Adobe Illustrator 22.1.0, SVG Export Plug-In . SVG Version: 6.00 Build 0)  -->
<svg version="1.1" xmlns="http://www.w3.org/2000/svg" xmlns:xlink="http://www.w3.org/1999/xlink" x="0px" y="0px"
	 viewBox="0 0 131 180" style="enable-background:new 0 0 131 180;" xml:space="preserve">
<style type="text/css">
	.st0{display:none;}
	.st1{display:inline;fill:#FF0000;}
</style>
<g id="bg" class="st0">
	<polygon class="st1" points="124.4,0 122.6,0 122.1,0 117.8,0 116,0 115.6,0 114.2,0 113.7,0 113.3,0 111,0 109.4,0 109,0 107.6,0 
		107.1,0 106.7,0 105.3,0 104.8,0 104.4,0 102.6,0 102.1,0 101,0 100.5,0 100.1,0 98.7,0 98.3,0 97.8,0 96.4,0 96,0 95.6,0 94.2,0 
		93.7,0 93.3,0 92.1,0 91.7,0 89.8,0 89.4,0 89,0 87.6,0 87.1,0 86.7,0 85.3,0 84.8,0 83.2,0 81,0 80.5,0 80.1,0 78.7,0 78.3,0 
		76.4,0 72.1,0 71.7,0 69.8,0 67.8,0 63.2,0 61.2,0 59.4,0 58.9,0 54.6,0 52.8,0 52.3,0 50.9,0 50.5,0 50,0 47.8,0 46.2,0 45.7,0 
		44.3,0 43.9,0 43.4,0 42.1,0 41.6,0 41.2,0 39.4,0 38.9,0 37.7,0 37.3,0 36.8,0 35.5,0 35,0 34.6,0 33.2,0 32.8,0 32.3,0 30.9,0 
		30.5,0 30,0 28.9,0 28.4,0 26.6,0 26.2,0 25.7,0 24.3,0 23.9,0 23.4,0 22.1,0 21.6,0 20,0 17.7,0 17.3,0 16.8,0 15.5,0 15,0 
		13.2,0 8.9,0 8.4,0 6.6,0 0,0 0,180 6.6,180 8.4,180 8.9,180 13.2,180 15,180 15.5,180 16.8,180 17.3,180 17.7,180 20,180 
		21.6,180 22.1,180 23.4,180 23.9,180 24.3,180 25.7,180 26.2,180 26.6,180 28.4,180 28.9,180 30,180 30.5,180 30.9,180 32.3,180 
		32.8,180 33.2,180 34.6,180 35,180 35.5,180 36.8,180 37.3,180 37.7,180 38.9,180 39.4,180 41.2,180 41.6,180 42.1,180 43.4,180 
		43.9,180 44.3,180 45.7,180 46.2,180 47.8,180 50,180 50.5,180 50.9,180 52.3,180 52.8,180 54.6,180 58.9,180 59.4,180 61.2,180 
		63.2,180 67.8,180 69.8,180 71.7,180 72.1,180 76.4,180 78.3,180 78.7,180 80.1,180 80.5,180 81,180 83.2,180 84.8,180 85.3,180 
		86.7,180 87.1,180 87.6,180 89,180 89.4,180 89.8,180 91.7,180 92.1,180 93.3,180 93.7,180 94.2,180 95.6,180 96,180 96.4,180 
		97.8,180 98.3,180 98.7,180 100.1,180 100.5,180 101,180 102.1,180 102.6,180 104.4,180 104.8,180 105.3,180 106.7,180 107.1,180 
		107.6,180 109,180 109.4,180 111,180 113.3,180 113.7,180 114.2,180 115.6,180 116,180 117.8,180 122.1,180 122.6,180 124.4,180 
		131,180 131,0 	"/>
</g>
<g id="figure">
	<g>
		<path d="M9.6,120.3c0.3-1.4,1.3-2.3,2.1-3.3c0.8-1,1.7-1.9,2.6-2.8c1.8-1.8,3.8-3.6,5.9-5.1c2.1-1.6,4.4-2.9,6.9-4
			c2.5-1,5.3-1.7,8.2-1.7l0.2,0c1.5,0.1,3.1,0.4,4.7,0.9c1.6,0.5,3.2,1.2,4.6,2.3c1.4,1,2.6,2.3,3.5,3.4c1,1.1,1.8,2,2.7,2.8
			c1.7,1.5,3.9,2.4,6.5,2.9c1.3,0.3,2.6,0.5,3.9,0.6c1.4,0.1,2.7,0.1,4.1,0.1c2.7,0,5.4-0.3,7.7-1c2.3-0.8,4.3-2.2,6.3-4.1l3.1-2.9
			c1-1,1.9-1.9,2.8-3c1.8-2.1,3.3-4.4,4.7-6.8c1.4-2.4,2.7-5,4-7.5c0.6-1.3,1.3-2.6,1.9-3.9c0.6-1.2,1.1-2.5,1.5-3.8
			c1.6-5.2,1.8-11,0-16c-0.9-2.5-2.4-4.8-4.3-6.4c-1-0.8-2-1.4-3-1.6c-0.2-0.1-0.5-0.1-0.7-0.1c-0.1,0-0.2,0-0.3,0
			c-0.1,0-0.2,0-0.4,0l-0.9,0.1L87,59.5c-4.8,1.1-8.4,4.9-9.8,9.3l0.1-0.2c-0.9,3.7-1.5,7.2-0.8,10.3c0.2,0.8,0.4,1.6,0.7,2.5
			l0.5,1.4c0.1,0.3,0.3,0.7,0.5,1.1c0.7,1.5,1.7,2.9,2.9,4.1c2.3,2.5,5.3,4.4,8.4,4.8l0.6,0.1l0.7,0.1c0.5,0,0.9,0.1,1.4,0.1
			c0.9,0,1.9,0.1,2.8,0c1.8-0.1,3.5-0.4,5.1-0.9c1.6-0.6,3.3-1.4,4.9-2.4c1.6-1,3.1-2.1,4.5-3.3c2.8-2.5,5.2-5.4,7-8.8
			c0.9-1.7,1.6-3.4,2.1-5.2c0.5-1.8,0.8-3.6,0.7-5.5c-0.1-1.9-0.2-3.9-0.5-5.9c-0.1-1-0.3-2-0.5-2.9l-0.3-1.5
			c-0.1-0.5-0.1-1,0.4-1.6l1-0.3c0.8,0.3,1,0.8,1.2,1.3l0.4,1.5c0.2,1,0.5,2,0.7,3c0.4,2,0.7,4.1,0.9,6.1c0.3,2.2,0,4.5-0.4,6.6
			c-0.4,2.1-1.1,4.2-2,6.1c-1.7,3.9-4.3,7.5-7.4,10.6c-1.5,1.5-3.2,2.9-5,4.1c-1.8,1.2-3.7,2.4-5.8,3.2c-2.2,0.8-4.5,1.3-6.7,1.5
			C94.2,99,93.1,99,92.1,99c-0.5,0-1.1,0-1.6,0l-0.8,0l-0.9-0.1c-2.5-0.2-4.8-1-6.9-2.1c-2.1-1.1-3.9-2.6-5.6-4.3
			c-1.6-1.7-3-3.5-4.1-5.7c-0.3-0.5-0.5-1.1-0.8-1.7l-0.5-1.5c-0.4-1-0.7-2.1-1-3.3c-0.5-2.4-0.6-4.8-0.4-7.1
			c0.2-2.3,0.7-4.4,1.3-6.5l0.1-0.2l0-0.1c1.3-3.2,3.3-6.1,6-8.2c2.7-2.1,6-3.4,9.4-3.7c0.4,0,0.8-0.1,1.2-0.1l1.2,0
			c0.2,0,0.4,0,0.7,0c0.2,0,0.5,0,0.7,0.1c0.5,0.1,0.9,0.2,1.4,0.4c1.8,0.6,3.1,1.7,4.3,2.9c2.3,2.4,3.7,5.2,4.7,8.1
			c1,2.9,1.4,6,1.4,9c0,1.5-0.1,3-0.4,4.5c-0.2,1.5-0.6,3-1,4.4c-0.4,1.4-0.9,2.9-1.5,4.3c-0.6,1.4-1.2,2.6-1.8,4
			c-1.2,2.6-2.4,5.3-3.7,7.9c-1.4,2.6-2.9,5.2-4.8,7.6c-0.9,1.2-1.9,2.4-2.9,3.5c-0.5,0.6-1,1.1-1.5,1.6l-1.5,1.6
			c-1,1-2.2,2.1-3.5,3.1c-1.3,1-2.8,1.8-4.4,2.4c-3.1,1.2-6.3,1.6-9.3,1.7c-1.5,0-3,0-4.5,0c-1.5-0.1-3.1-0.2-4.7-0.5
			c-1.6-0.3-3.2-0.7-4.7-1.4c-1.6-0.7-3.1-1.6-4.4-2.7c-1.3-1.1-2.3-2.4-3.2-3.5c-0.9-1.1-1.7-2-2.6-2.7c-1.7-1.5-4-2.4-6.6-2.9
			l0.2,0c-2.2-0.2-4.4,0.1-6.6,0.8c-2.2,0.7-4.4,1.8-6.5,3c-2.1,1.3-4.1,2.7-5.9,4.3c-0.9,0.8-1.9,1.6-2.8,2.5
			c-0.9,0.9-1.7,1.8-2.9,2.4L9.6,120.3z"/>
	</g>
</g>
</svg>
