<?xml version="1.0" encoding="utf-8"?>
<!-- Generator: Adobe Illustrator 22.1.0, SVG Export Plug-In . SVG Version: 6.00 Build 0)  -->
<svg version="1.1" xmlns="http://www.w3.org/2000/svg" xmlns:xlink="http://www.w3.org/1999/xlink" x="0px" y="0px"
	 viewBox="0 0 95.8 180" style="enable-background:new 0 0 95.8 180;" xml:space="preserve">
<style type="text/css">
	.st0{display:none;}
	.st1{display:inline;fill:#FF0000;}
</style>
<g id="bg" class="st0">
	<polygon class="st1" points="92.8,0 92,0 91.8,0 89.8,0 89,0 88.8,0 88.2,0 88,0 87.8,0 86,0 85.8,0 85.2,0 85,0 84.8,0 84.3,0 
		84.2,0 84,0 82.2,0 82,0 81.8,0 81.5,0 81.3,0 81.2,0 81,0 80.5,0 80.3,0 80.2,0 78.5,0 78.4,0 78.2,0 78,0 77.7,0 77.5,0 77.5,0 
		77.3,0 77.2,0 76.7,0 76.5,0 76.3,0 75.8,0 75.6,0 74.7,0 74.6,0 74.5,0 74.4,0 74.2,0 73.9,0 73.7,0 73.7,0 73.5,0 73.5,0 73.3,0 
		72.8,0 72.7,0 72.5,0 72,0 71.8,0 71.8,0 71.6,0 70.9,0 70.8,0 70.7,0 70.6,0 70.5,0 70.4,0 70,0 69.9,0 69.8,0 69.7,0 69.7,0 
		69.5,0 69,0 68.8,0 68.7,0 68.2,0 68,0 68,0 67.8,0 67.8,0 67.6,0 67.3,0 67.1,0 66.9,0 66.8,0 66.7,0 66.6,0 66.2,0 66,0 66,0 
		65.9,0 65.8,0 65.7,0 65.2,0 65,0 64.8,0 64.3,0 64.3,0 64.2,0 64.1,0 64,0 64,0 63.8,0 63.5,0 63.3,0 63.3,0 63.1,0 62.9,0 
		62.8,0 62.4,0 62.2,0 62.2,0 62,0 62,0 61.8,0 61.5,0 61.3,0 61.3,0 61.2,0 61,0 60.5,0 60.5,0 60.3,0 60.3,0 60.3,0 60.2,0 
		60.1,0 60,0 59.7,0 59.5,0 59.5,0 59.3,0 59.3,0 59.1,0 58.5,0 58.4,0 58.4,0 58.2,0 58.2,0 58,0 57.7,0 57.5,0 57.5,0 57.5,0 
		57.3,0 57.3,0 57.2,0 56.7,0 56.7,0 56.5,0 56.5,0 56.5,0 56.3,0 56.3,0 56.3,0 56.1,0 55.8,0 55.7,0 55.6,0 55.5,0 55.5,0 55.3,0 
		54.7,0 54.6,0 54.5,0 54.4,0 54.4,0 54.2,0 53.9,0 53.7,0 53.7,0 53.7,0 53.5,0 53.5,0 53.5,0 53.3,0 53.3,0 53,0 52.8,0 52.7,0 
		52.7,0 52.5,0 52.5,0 52.5,0 52.3,0 52,0 51.8,0 51.8,0 51.7,0 51.6,0 51.5,0 50.9,0 50.8,0 50.7,0 50.6,0 50.5,0 50.4,0 50,0 
		50,0 49.9,0 49.9,0 49.7,0 49.7,0 49.7,0 49.5,0 49.5,0 49.2,0 49,0 49,0 48.8,0 48.7,0 48.7,0 48.5,0 48.2,0 48,0 48,0 47.8,0 
		47.8,0 47.6,0 47.3,0 47.1,0 47.1,0 46.9,0 46.8,0 46.7,0 46.6,0 46.2,0 46.2,0 46.1,0 46,0 46,0 45.9,0 45.9,0 45.7,0 45.7,0 
		45.4,0 45.2,0 45.2,0 45,0 45,0 44.8,0 44.3,0 44.2,0 44.1,0 44,0 44,0 43.8,0 43.5,0 43.3,0 43.3,0 43.3,0 43.1,0 43.1,0 42.9,0 
		42.8,0 42.4,0 42.4,0 42.3,0 42.2,0 42.2,0 42.1,0 42,0 42,0 41.9,0 41.5,0 41.4,0 41.3,0 41.2,0 41.2,0 41,0 40.5,0 40.3,0 
		40.3,0 40.2,0 40.1,0 40,0 39.7,0 39.5,0 39.5,0 39.5,0 39.3,0 39.3,0 39.3,0 39.1,0 39.1,0 38.6,0 38.4,0 38.4,0 38.3,0 38.2,0 
		38.2,0 38.1,0 37.7,0 37.5,0 37.5,0 37.4,0 37.3,0 37.2,0 36.7,0 36.5,0 36.5,0 36.3,0 36.3,0 36.1,0 35.8,0 35.7,0 35.6,0 35.5,0 
		35.5,0 35.5,0 35.3,0 35.3,0 34.8,0 34.6,0 34.4,0 34.4,0 34.3,0 33.9,0 33.7,0 33.7,0 33.5,0 33.5,0 33.3,0 33,0 32.8,0 32.7,0 
		32.5,0 32.5,0 32.3,0 32,0 31.8,0 31.8,0 31.7,0 31.6,0 31.5,0 31.5,0 31,0 30.8,0 30.6,0 30,0 29.9,0 29.9,0 29.7,0 29.7,0 
		29.5,0 29.2,0 29,0 29,0 28.8,0 28.7,0 28.5,0 28.2,0 28,0 28,0 27.8,0 27.8,0 27.6,0 27.1,0 27,0 26.8,0 26.2,0 26.1,0 26,0 
		25.9,0 25.9,0 25.7,0 25.4,0 25.2,0 25.2,0 25,0 25,0 24.8,0 24.2,0 24,0 24,0 23.8,0 23.3,0 23.1,0 23,0 22.4,0 22.3,0 22.2,0 
		22.1,0 22,0 21.9,0 21.5,0 21.4,0 21.2,0 21.2,0 21,0 20.2,0 20,0 19.5,0 19.3,0 19.1,0 18.6,0 18.4,0 18.3,0 18.2,0 18.1,0 
		17.7,0 17.5,0 17.4,0 17.2,0 15.6,0 15.5,0 15.3,0 14.8,0 14.6,0 14.4,0 14.3,0 13.9,0 13.7,0 13.5,0 11.8,0 11.6,0 11.5,0 11,0 
		10.8,0 10.6,0 9.9,0 9.7,0 8,0 7.8,0 7.6,0 7,0 6.8,0 5.9,0 4,0 3.8,0 3,0 0,0 0,180 3,180 3.8,180 4,180 5.9,180 6.8,180 7,180 
		7.6,180 7.8,180 8,180 9.7,180 9.9,180 10.6,180 10.8,180 11,180 11.5,180 11.6,180 11.8,180 13.5,180 13.7,180 13.9,180 14.3,180 
		14.4,180 14.6,180 14.8,180 15.3,180 15.5,180 15.6,180 17.2,180 17.4,180 17.5,180 17.7,180 18.1,180 18.2,180 18.3,180 18.4,180 
		18.6,180 19.1,180 19.3,180 19.5,180 20,180 20.2,180 21,180 21.2,180 21.2,180 21.4,180 21.5,180 21.9,180 22,180 22.1,180 
		22.2,180 22.3,180 22.4,180 23,180 23.1,180 23.3,180 23.8,180 24,180 24,180 24.2,180 24.8,180 25,180 25,180 25.2,180 25.2,180 
		25.4,180 25.7,180 25.9,180 25.9,180 26,180 26.1,180 26.2,180 26.8,180 27,180 27.1,180 27.6,180 27.8,180 27.8,180 28,180 
		28,180 28.2,180 28.5,180 28.7,180 28.8,180 29,180 29,180 29.2,180 29.5,180 29.7,180 29.7,180 29.9,180 29.9,180 30,180 
		30.6,180 30.8,180 31,180 31.5,180 31.5,180 31.6,180 31.7,180 31.8,180 31.8,180 32,180 32.3,180 32.5,180 32.5,180 32.7,180 
		32.8,180 33,180 33.3,180 33.5,180 33.5,180 33.7,180 33.7,180 33.9,180 34.3,180 34.4,180 34.4,180 34.6,180 34.8,180 35.3,180 
		35.3,180 35.5,180 35.5,180 35.5,180 35.6,180 35.7,180 35.8,180 36.1,180 36.3,180 36.3,180 36.5,180 36.5,180 36.7,180 37.2,180 
		37.3,180 37.4,180 37.5,180 37.5,180 37.7,180 38.1,180 38.2,180 38.2,180 38.3,180 38.4,180 38.4,180 38.6,180 39.1,180 39.1,180 
		39.3,180 39.3,180 39.3,180 39.5,180 39.5,180 39.5,180 39.7,180 40,180 40.1,180 40.2,180 40.3,180 40.3,180 40.5,180 41,180 
		41.2,180 41.2,180 41.3,180 41.4,180 41.5,180 41.9,180 42,180 42,180 42.1,180 42.2,180 42.2,180 42.3,180 42.4,180 42.4,180 
		42.8,180 42.9,180 43.1,180 43.1,180 43.3,180 43.3,180 43.3,180 43.5,180 43.8,180 44,180 44,180 44.1,180 44.2,180 44.3,180 
		44.8,180 45,180 45,180 45.2,180 45.2,180 45.4,180 45.7,180 45.7,180 45.9,180 45.9,180 46,180 46,180 46.1,180 46.2,180 
		46.2,180 46.6,180 46.7,180 46.8,180 46.9,180 47.1,180 47.1,180 47.3,180 47.6,180 47.8,180 47.8,180 48,180 48,180 48.2,180 
		48.5,180 48.7,180 48.7,180 48.8,180 49,180 49,180 49.2,180 49.5,180 49.5,180 49.7,180 49.7,180 49.7,180 49.9,180 49.9,180 
		50,180 50,180 50.4,180 50.5,180 50.6,180 50.7,180 50.8,180 50.9,180 51.5,180 51.6,180 51.7,180 51.8,180 51.8,180 52,180 
		52.3,180 52.5,180 52.5,180 52.5,180 52.7,180 52.7,180 52.8,180 53,180 53.3,180 53.3,180 53.5,180 53.5,180 53.5,180 53.7,180 
		53.7,180 53.7,180 53.9,180 54.2,180 54.4,180 54.4,180 54.5,180 54.6,180 54.7,180 55.3,180 55.5,180 55.5,180 55.6,180 55.7,180 
		55.8,180 56.1,180 56.3,180 56.3,180 56.3,180 56.5,180 56.5,180 56.5,180 56.7,180 56.7,180 57.2,180 57.3,180 57.3,180 57.5,180 
		57.5,180 57.5,180 57.7,180 58,180 58.2,180 58.2,180 58.4,180 58.4,180 58.5,180 59.1,180 59.3,180 59.3,180 59.5,180 59.5,180 
		59.7,180 60,180 60.1,180 60.2,180 60.3,180 60.3,180 60.3,180 60.5,180 60.5,180 61,180 61.2,180 61.3,180 61.3,180 61.5,180 
		61.8,180 62,180 62,180 62.2,180 62.2,180 62.4,180 62.8,180 62.9,180 63.1,180 63.3,180 63.3,180 63.5,180 63.8,180 64,180 
		64,180 64.1,180 64.2,180 64.3,180 64.3,180 64.8,180 65,180 65.2,180 65.7,180 65.8,180 65.9,180 66,180 66,180 66.2,180 
		66.6,180 66.7,180 66.8,180 66.9,180 67.1,180 67.3,180 67.6,180 67.8,180 67.8,180 68,180 68,180 68.2,180 68.7,180 68.8,180 
		69,180 69.5,180 69.7,180 69.7,180 69.8,180 69.9,180 70,180 70.4,180 70.5,180 70.6,180 70.7,180 70.8,180 70.9,180 71.6,180 
		71.8,180 71.8,180 72,180 72.5,180 72.7,180 72.8,180 73.3,180 73.5,180 73.5,180 73.7,180 73.7,180 73.9,180 74.2,180 74.4,180 
		74.5,180 74.6,180 74.7,180 75.6,180 75.8,180 76.3,180 76.5,180 76.7,180 77.2,180 77.3,180 77.5,180 77.5,180 77.7,180 78,180 
		78.2,180 78.4,180 78.5,180 80.2,180 80.3,180 80.5,180 81,180 81.2,180 81.3,180 81.5,180 81.8,180 82,180 82.2,180 84,180 
		84.2,180 84.3,180 84.8,180 85,180 85.2,180 85.8,180 86,180 87.8,180 88,180 88.2,180 88.8,180 89,180 89.8,180 91.8,180 92,180 
		92.8,180 95.8,180 95.8,0 	"/>
</g>
<g id="figure">
	<g>
		<path d="M9.7,124.5c0.1-0.9,0.7-1.3,1.3-1.7l1.6-1.2c1.1-0.8,2.2-1.5,3.3-2.2c2.2-1.5,4.5-2.9,6.8-4.2c4.6-2.7,9.3-5.2,14-7.7
			c2.4-1.3,4.7-2.5,7.1-3.6c1.2-0.6,2.4-1.2,3.6-1.9c0.6-0.3,1.2-0.7,1.8-1c0.3-0.2,0.6-0.3,1.1-0.5c0.2-0.1,0.4-0.2,0.9-0.2
			c0.1,0,0.2,0,0.3,0c0.1,0,0.4,0,0.6,0.1c0.3,0.1,0.8,0.4,1.1,1.1c0.2,0.7,0.1,1.1,0.1,1.4c-0.1,0.2-0.2,0.4-0.2,0.5
			c-0.1,0.1-0.1,0.2-0.2,0.2l-0.2,0.2c-3.3,4.2-6.5,8.5-10,12.5c-0.9,1-1.8,1.9-2.7,2.9c-0.5,0.5-0.9,1-1.4,1.4l-0.4,0.3
			c-0.1,0.1-0.3,0.3-0.3,0.2c0,0,0,0,0-0.1c0-0.1,0.1-0.2,0.2-0.5c0-0.1,0-0.1,0.1-0.3c0-0.1,0-0.3,0-0.4c0-0.2,0-0.4-0.1-0.6
			c-0.1-0.2-0.2-0.4-0.3-0.6c-0.1-0.2-0.2-0.3-0.4-0.5c-0.1-0.1-0.2-0.2-0.4-0.3c-0.1-0.1-0.2-0.1-0.3-0.1c-0.1,0-0.2-0.1-0.2-0.1
			c-0.4-0.1-0.4,0-0.4,0c0,0,0.1,0,0.2,0c0.2,0,0.5-0.1,0.7-0.1c0.5-0.1,1.1-0.3,1.7-0.5c1.2-0.4,2.4-0.8,3.6-1.3
			c4.8-1.9,9.5-4.3,14.1-6.8c1.2-0.6,2.3-1.2,3.3-1.9c0.5-0.3,1-0.7,1.6-1.1c0.5-0.4,1-0.8,1.5-1.2c2-1.6,3.9-3.4,5.6-5.3
			c3.5-3.8,6.6-8.1,9.2-12.6c1.3-2.3,2.5-4.6,3.6-7c0.5-1.2,1-2.4,1.4-3.7c0.4-1.2,0.8-2.5,1-3.7c0.1-0.6,0.2-1.2,0.2-1.8
			c0-0.3,0-0.5-0.1-0.8l-0.1-1c-0.2-1.3-0.5-2.5-0.9-3.6c-0.4-1.1-1.1-1.8-2.1-2c-0.5-0.1-1-0.1-1.6-0.1c-0.6,0.1-1,0.2-1.5,0.4
			c-1.9,0.8-3.2,2.6-4.1,4.5c-0.9,2-1.5,4.2-1.9,6.6c-0.1,0.6-0.2,1.2-0.2,1.8c-0.1,0.6-0.1,1.1-0.1,1.6c0,1.1,0.1,2.2,0.3,3.3
			c0.4,2.2,1.3,4.5,2.5,6.7c1.2,2.2,2.7,4.3,4.3,6.3c1.6,2,3.4,4,5,6.3c0.4,0.5,0.8,1.1,1.2,1.7c0.4,0.6,0.8,1.3,1.2,2
			c0.7,1.4,1.3,2.8,1.6,4.3c0.7,3,0.8,6,0.4,8.9c-0.7,5.8-3.3,11.2-6.6,15.6c-1.6,2.2-3.3,4.4-5.2,6.4c-0.9,1-1.9,2-2.9,2.9
			c-0.5,0.5-1,0.9-1.5,1.3l-0.8,0.6c-0.2,0.2-0.5,0.4-1.5-0.1l-0.1-0.1c-0.5-1-0.4-1.3-0.1-1.5l0.6-0.8l1.2-1.6l2.4-3.1
			c1.6-2.1,3.1-4.1,4.5-6.3c1.4-2.2,2.5-4.4,3.3-6.7c0.8-2.3,1.4-4.7,1.6-7.1c0.2-2.4,0-4.8-0.7-6.9c-0.3-1.1-0.8-2.1-1.3-3.1
			c-0.3-0.5-0.5-0.9-0.9-1.4l-1.1-1.5c-3-4.1-6.5-8.4-9.4-13.2c-1.5-2.4-2.8-5-3.7-8c-0.4-1.5-0.7-3-0.7-4.6c0-0.8,0-1.6,0.1-2.3
			c0.1-0.7,0.2-1.4,0.3-2.2c0.5-2.9,1.4-5.8,3.3-8.4c0.9-1.3,2.1-2.5,3.5-3.4c1.4-0.9,3-1.5,4.6-1.7c1.7-0.2,3.2,0.1,4.8,0.7
			c0.8,0.3,1.5,0.9,2.1,1.5c0.5,0.7,0.9,1.4,1.2,2.1c0.5,1.4,0.8,2.8,1,4.1l0.1,1c0,0.3,0.1,0.8,0,1.2c0,0.8-0.2,1.5-0.3,2.1
			c-0.6,2.7-1.5,5.3-2.5,7.8c-1,2.5-2.1,5-3.4,7.4c-2.5,4.8-5.3,9.4-8.8,13.6c-1.7,2.1-3.6,4.1-5.7,5.9c-0.5,0.5-1.1,0.9-1.6,1.3
			c-0.5,0.4-1.1,0.9-1.7,1.3c-1.1,0.8-2.4,1.6-3.5,2.2c-4.6,2.7-9.3,5.4-14.3,7.6c-1.2,0.6-2.5,1.1-3.8,1.6
			c-0.7,0.2-1.3,0.5-2.1,0.7c-0.4,0.1-0.8,0.2-1.2,0.3c-0.2,0-0.5,0.1-0.8,0.1c-0.3,0-0.6,0.1-1.4-0.1c-0.1,0-0.2-0.1-0.3-0.1
			c-0.1-0.1-0.2-0.1-0.4-0.2c-0.2-0.1-0.3-0.2-0.5-0.4c-0.2-0.2-0.3-0.4-0.5-0.6c-0.1-0.2-0.3-0.5-0.3-0.7c-0.1-0.2-0.1-0.5-0.1-0.7
			c0-0.2,0-0.4,0-0.6c0-0.2,0-0.3,0.1-0.4c0.1-0.5,0.3-0.7,0.4-1c0.1-0.2,0.2-0.4,0.3-0.5l0.7-0.9c0.4-0.5,0.9-1,1.3-1.5
			c0.9-1,1.7-2,2.6-3c3.6-3.9,7.5-7.5,11.4-11.1c0,0,0,0,0,0l0,0.1l-0.1,0.1c0,0-0.1,0.2-0.2,0.4c-0.1,0.2-0.2,0.6,0.1,1.2
			c0.3,0.6,0.7,0.9,1,1c0.2,0.1,0.4,0.1,0.5,0.1c0.1,0,0.1,0,0.2,0c0.2,0,0,0,0,0c-0.2,0-0.5,0.1-0.8,0.2c-0.6,0.1-1.2,0.3-1.8,0.5
			c-1.3,0.4-2.5,0.9-3.7,1.5c-2.4,1.1-4.8,2.3-7.1,3.5c-4.7,2.4-9.3,5-13.9,7.7c-2.3,1.4-4.5,2.7-6.8,4.1c-1.1,0.7-2.2,1.4-3.3,2.1
			l-1.6,1.1c-0.5,0.4-1.1,0.8-2,0.6L9.7,124.5z"/>
	</g>
</g>
</svg>
