<?xml version="1.0" encoding="utf-8"?>
<!-- Generator: Adobe Illustrator 22.1.0, SVG Export Plug-In . SVG Version: 6.00 Build 0)  -->
<svg version="1.1" xmlns="http://www.w3.org/2000/svg" xmlns:xlink="http://www.w3.org/1999/xlink" x="0px" y="0px"
	 viewBox="0 0 134.3 180" style="enable-background:new 0 0 134.3 180;" xml:space="preserve">
<style type="text/css">
	.st0{display:none;}
	.st1{display:inline;fill:#FF0000;}
</style>
<g id="bg" class="st0">
	<polygon class="st1" points="129.9,0 128.6,0 128.3,0 125.4,0 124.1,0 123.8,0 122.9,0 122.6,0 122.3,0 119.6,0 119.3,0 118.4,0 
		118.1,0 117.8,0 117,0 116.8,0 116.5,0 114.3,0 113.9,0 113.6,0 113.3,0 112.8,0 112.5,0 112.4,0 112.1,0 111.3,0 111,0 110.8,0 
		109.9,0 108.6,0 108.3,0 108.3,0 108.1,0 107.9,0 107.6,0 107.1,0 106.8,0 106.8,0 106.5,0 106.3,0 105.6,0 105.4,0 105.3,0 105,0 
		104.1,0 103.8,0 103.8,0 102.9,0 102.6,0 102.6,0 102.3,0 102.3,0 102.3,0 102,0 101.9,0 101.4,0 101.1,0 101,0 100.8,0 100.7,0 
		100.5,0 99.6,0 99.5,0 99.3,0 99.2,0 98.4,0 98.1,0 98.1,0 97.8,0 97.8,0 97,0 96.9,0 96.8,0 96.6,0 96.6,0 96.5,0 96.3,0 96.3,0 
		96,0 95.5,0 95.3,0 95.1,0 95,0 94.7,0 93.9,0 93.6,0 93.5,0 93.3,0 92.8,0 92.5,0 92.4,0 92.4,0 92.1,0 92.1,0 91.8,0 91.3,0 
		91.3,0 91,0 91,0 90.8,0 90.8,0 90.6,0 90.5,0 90.3,0 89.8,0 89.5,0 89.3,0 89,0 88.3,0 88.1,0 87.9,0 87.6,0 87.1,0 86.8,0 
		86.8,0 86.8,0 86.5,0 86.5,0 86.4,0 86.3,0 86,0 85.6,0 85.6,0 85.3,0 85.3,0 85.3,0 85,0 85,0 84.8,0 84.5,0 84,0 83.8,0 83.7,0 
		83.4,0 82.6,0 82.4,0 82.3,0 82.3,0 82,0 81.9,0 81.4,0 81.1,0 81.1,0 81,0 80.8,0 80.8,0 80.8,0 80.7,0 80.5,0 80.5,0 80.3,0 
		79.9,0 79.6,0 79.6,0 79.5,0 79.3,0 79.2,0 79.2,0 78.9,0 78.1,0 78,0 77.8,0 77.7,0 76.9,0 76.6,0 76.6,0 76.6,0 76.3,0 76.3,0 
		76.3,0 76,0 75.5,0 75.4,0 75.3,0 75.1,0 75.1,0 75.1,0 75,0 74.8,0 74.8,0 74.7,0 74.5,0 74,0 73.8,0 73.5,0 73.5,0 73.5,0 
		73.2,0 72.4,0 72.1,0 72,0 71.8,0 71.3,0 71,0 70.9,0 70.8,0 70.6,0 70.6,0 70.5,0 70.3,0 70.3,0 69.8,0 69.8,0 69.5,0 69.5,0 
		69.4,0 69.3,0 69.1,0 69,0 69,0 68.7,0 68.3,0 68,0 67.8,0 67.5,0 66.8,0 66.5,0 66.4,0 66,0 65.6,0 65.3,0 65.3,0 65.3,0 65.1,0 
		65,0 64.9,0 64.8,0 64.6,0 64.5,0 64.1,0 64,0 63.8,0 63.8,0 63.7,0 63.5,0 63.4,0 63.3,0 63,0 62.6,0 62.4,0 62.3,0 61.9,0 
		61.1,0 60.8,0 60.8,0 60.8,0 60.5,0 60.3,0 59.9,0 59.6,0 59.6,0 59.6,0 59.3,0 59.3,0 59.3,0 59.2,0 59,0 58.9,0 58.8,0 58.3,0 
		58.1,0 58,0 58,0 57.8,0 57.7,0 57.7,0 57.5,0 56.6,0 56.5,0 56.3,0 56.2,0 55.4,0 55.1,0 55.1,0 55.1,0 54.8,0 54.8,0 54.8,0 
		54.5,0 54,0 53.9,0 53.8,0 53.6,0 53.6,0 53.5,0 53.5,0 53.3,0 53.3,0 53.2,0 53,0 52.5,0 52.3,0 52,0 52,0 52,0 51.7,0 50.9,0 
		50.6,0 50.5,0 50.3,0 49.8,0 49.5,0 49.4,0 49.4,0 49.1,0 49.1,0 49,0 48.8,0 48.7,0 48.3,0 48,0 48,0 47.8,0 47.8,0 47.6,0 
		47.5,0 47.5,0 47.3,0 46.8,0 46.5,0 46.3,0 46,0 45.3,0 45.1,0 44.9,0 44.6,0 44.1,0 43.8,0 43.8,0 43.5,0 43.5,0 43.4,0 43.3,0 
		43,0 43,0 42.6,0 42.3,0 42.3,0 42,0 41.9,0 41.8,0 41.5,0 41,0 40.8,0 40.7,0 40.4,0 39.6,0 39.3,0 39.3,0 39,0 38.8,0 38.3,0 
		38.1,0 38,0 37.8,0 37.8,0 37.7,0 37.5,0 37.5,0 37.3,0 36.5,0 36.5,0 36.2,0 36.2,0 35.9,0 35.1,0 35,0 34.8,0 34.7,0 33.9,0 
		33.6,0 33.6,0 33.3,0 33.3,0 33,0 32.5,0 32.3,0 32.1,0 32,0 32,0 31.8,0 31.7,0 31.5,0 30.5,0 30.5,0 30.2,0 29.4,0 29.1,0 29,0 
		28.8,0 28,0 27.8,0 27.6,0 27.5,0 27.3,0 26.8,0 26.5,0 26.3,0 26,0 26,0 25.7,0 24.5,0 23.5,0 23.4,0 23,0 22.3,0 22,0 21.8,0 
		21.5,0 21,0 20.7,0 20.4,0 20,0 17.8,0 17.5,0 17.3,0 16.5,0 16.2,0 15.9,0 15,0 14.7,0 12.1,0 11.8,0 11.5,0 10.5,0 10.2,0 9,0 
		6,0 5.7,0 4.5,0 0,0 0,180 4.5,180 5.7,180 6,180 9,180 10.2,180 10.5,180 11.5,180 11.8,180 12.1,180 14.7,180 15,180 15.9,180 
		16.2,180 16.5,180 17.3,180 17.5,180 17.8,180 20,180 20.4,180 20.7,180 21,180 21.5,180 21.8,180 22,180 22.3,180 23,180 
		23.4,180 23.5,180 24.5,180 25.7,180 26,180 26,180 26.3,180 26.5,180 26.8,180 27.3,180 27.5,180 27.6,180 27.8,180 28,180 
		28.8,180 29,180 29.1,180 29.4,180 30.2,180 30.5,180 30.5,180 31.5,180 31.7,180 31.8,180 32,180 32,180 32.1,180 32.3,180 
		32.5,180 33,180 33.3,180 33.3,180 33.6,180 33.6,180 33.9,180 34.7,180 34.8,180 35,180 35.1,180 35.9,180 36.2,180 36.2,180 
		36.5,180 36.5,180 37.3,180 37.5,180 37.5,180 37.7,180 37.8,180 37.8,180 38,180 38.1,180 38.3,180 38.8,180 39,180 39.3,180 
		39.3,180 39.6,180 40.4,180 40.7,180 40.8,180 41,180 41.5,180 41.8,180 41.9,180 42,180 42.3,180 42.3,180 42.6,180 43,180 
		43,180 43.3,180 43.4,180 43.5,180 43.5,180 43.8,180 43.8,180 44.1,180 44.6,180 44.9,180 45.1,180 45.3,180 46,180 46.3,180 
		46.5,180 46.8,180 47.3,180 47.5,180 47.5,180 47.6,180 47.8,180 47.8,180 48,180 48,180 48.3,180 48.7,180 48.8,180 49,180 
		49.1,180 49.1,180 49.4,180 49.4,180 49.5,180 49.8,180 50.3,180 50.5,180 50.6,180 50.9,180 51.7,180 52,180 52,180 52,180 
		52.3,180 52.5,180 53,180 53.2,180 53.3,180 53.3,180 53.5,180 53.5,180 53.6,180 53.6,180 53.8,180 53.9,180 54,180 54.5,180 
		54.8,180 54.8,180 54.8,180 55.1,180 55.1,180 55.1,180 55.4,180 56.2,180 56.3,180 56.5,180 56.6,180 57.5,180 57.7,180 57.7,180 
		57.8,180 58,180 58,180 58.1,180 58.3,180 58.8,180 58.9,180 59,180 59.2,180 59.3,180 59.3,180 59.3,180 59.6,180 59.6,180 
		59.6,180 59.9,180 60.3,180 60.5,180 60.8,180 60.8,180 60.8,180 61.1,180 61.9,180 62.3,180 62.4,180 62.6,180 63,180 63.3,180 
		63.4,180 63.5,180 63.7,180 63.8,180 63.8,180 64,180 64.1,180 64.5,180 64.6,180 64.8,180 64.9,180 65,180 65.1,180 65.3,180 
		65.3,180 65.3,180 65.6,180 66,180 66.4,180 66.5,180 66.8,180 67.5,180 67.8,180 68,180 68.3,180 68.7,180 69,180 69,180 
		69.1,180 69.3,180 69.4,180 69.5,180 69.5,180 69.8,180 69.8,180 70.3,180 70.3,180 70.5,180 70.6,180 70.6,180 70.8,180 70.9,180 
		71,180 71.3,180 71.8,180 72,180 72.1,180 72.4,180 73.2,180 73.5,180 73.5,180 73.5,180 73.8,180 74,180 74.5,180 74.7,180 
		74.8,180 74.8,180 75,180 75.1,180 75.1,180 75.1,180 75.3,180 75.4,180 75.5,180 76,180 76.3,180 76.3,180 76.3,180 76.6,180 
		76.6,180 76.6,180 76.9,180 77.7,180 77.8,180 78,180 78.1,180 78.9,180 79.2,180 79.2,180 79.3,180 79.5,180 79.6,180 79.6,180 
		79.9,180 80.3,180 80.5,180 80.5,180 80.7,180 80.8,180 80.8,180 80.8,180 81,180 81.1,180 81.1,180 81.4,180 81.9,180 82,180 
		82.3,180 82.3,180 82.4,180 82.6,180 83.4,180 83.7,180 83.8,180 84,180 84.5,180 84.8,180 85,180 85,180 85.3,180 85.3,180 
		85.3,180 85.6,180 85.6,180 86,180 86.3,180 86.4,180 86.5,180 86.5,180 86.8,180 86.8,180 86.8,180 87.1,180 87.6,180 87.9,180 
		88.1,180 88.3,180 89,180 89.3,180 89.5,180 89.8,180 90.3,180 90.5,180 90.6,180 90.8,180 90.8,180 91,180 91,180 91.3,180 
		91.3,180 91.8,180 92.1,180 92.1,180 92.4,180 92.4,180 92.5,180 92.8,180 93.3,180 93.5,180 93.6,180 93.9,180 94.7,180 95,180 
		95.1,180 95.3,180 95.5,180 96,180 96.3,180 96.3,180 96.5,180 96.6,180 96.6,180 96.8,180 96.9,180 97,180 97.8,180 97.8,180 
		98.1,180 98.1,180 98.4,180 99.2,180 99.3,180 99.5,180 99.6,180 100.5,180 100.7,180 100.8,180 101,180 101.1,180 101.4,180 
		101.9,180 102,180 102.3,180 102.3,180 102.3,180 102.6,180 102.6,180 102.9,180 103.8,180 103.8,180 104.1,180 105,180 105.3,180 
		105.4,180 105.6,180 106.3,180 106.5,180 106.8,180 106.8,180 107.1,180 107.6,180 107.9,180 108.1,180 108.3,180 108.3,180 
		108.6,180 109.9,180 110.8,180 111,180 111.3,180 112.1,180 112.4,180 112.5,180 112.8,180 113.3,180 113.6,180 113.9,180 
		114.3,180 116.5,180 116.8,180 117,180 117.8,180 118.1,180 118.4,180 119.3,180 119.6,180 122.3,180 122.6,180 122.9,180 
		123.8,180 124.1,180 125.4,180 128.3,180 128.6,180 129.9,180 134.3,180 134.3,0 	"/>
</g>
<g id="figure">
	<g>
		<g>
			<path d="M9.7,124.7c0.1-0.8,0.5-1.2,1-1.5l1.4-1c0.9-0.7,1.9-1.3,2.8-1.9c1.9-1.2,3.8-2.5,5.8-3.6c3.9-2.3,7.9-4.6,11.9-6.7
				c4-2.1,8-4.3,12.1-6.3c1-0.5,2-1,3.1-1.6c0.5-0.3,1-0.6,1.6-0.8c0.3-0.1,0.6-0.3,0.9-0.4c0.2-0.1,0.3-0.1,0.6-0.2
				c0.1,0,0.3-0.1,0.5-0.1l0.2,0c0.1,0,0.2,0,0.4,0c0.2,0,0.4,0.1,0.7,0.3c0.3,0.2,0.8,0.8,0.8,1.2c0.1,0.6,0,0.8,0,1
				c-0.1,0.2-0.1,0.4-0.2,0.4c-0.1,0.2-0.2,0.3-0.2,0.4l-0.2,0.2l-0.3,0.3l-0.5,0.7l-1.1,1.3l-2.1,2.7c-2.8,3.6-5.7,7.1-8.9,10.3
				c-0.4,0.4-0.8,0.8-1.2,1.2l-0.6,0.6c-0.1,0.1-0.1,0.1-0.1,0.1c0-0.1,0.1-0.1,0.3-0.8c0.1-0.4,0-1.2-0.4-1.8
				c-0.5-0.6-0.9-0.8-1.1-0.8c-0.4-0.1-0.5,0-0.5,0c0,0,0.2,0,0.4,0c0.4-0.1,0.9-0.2,1.4-0.3c2-0.6,4.1-1.4,6.1-2.2
				c4.1-1.7,8.1-3.7,12-5.9c2-1.1,3.8-2.1,5.5-3.4c1.7-1.3,3.4-2.7,4.9-4.2c3.1-3.1,5.9-6.6,8.4-10.2c2.5-3.7,4.7-7.6,6.4-11.7
				c0.9-2,1.6-4.1,2.1-6.3c0.3-1,0.4-2.1,0.4-3c0-0.2,0-0.5-0.1-0.8l-0.1-0.8c-0.1-0.5-0.2-1.1-0.3-1.6c-0.2-1-0.6-2-1.2-2.7
				c-0.6-0.7-1.2-0.9-2-0.9c-0.4,0-0.9,0-1.3,0.1c-0.3,0.1-0.6,0.2-1,0.4c-0.7,0.4-1.3,1-1.9,1.6c-1.2,1.3-2.3,3-3,4.7
				c-0.4,0.8-0.6,1.7-0.8,2.6c-0.1,0.4-0.1,0.8-0.2,1.3c0,0.2,0,0.4,0,0.7c0,0.2,0,0.5,0,0.7c0.1,1.9,0.6,3.3,1.8,4.4
				c1.3,1.1,3.3,1.8,5.4,2.2c2.1,0.4,4.3,0.7,6.5,0.6c2.2-0.1,4.4-0.4,6.5-1c2.1-0.6,4.2-1.4,6.2-2.2c1-0.5,2-0.9,3-1.4
				c0.5-0.2,1-0.5,1.5-0.7c0.5-0.2,0.8-0.7,1.9-0.1l0.1,0.1c0.1,1.2-0.6,1.2-1.1,1.6c-0.5,0.3-1,0.6-1.5,0.9c-1,0.5-2,1.1-3.1,1.5
				c-2.1,0.9-4.3,1.7-6.5,2.3c-2.2,0.6-4.5,1.1-6.9,1.4c-1.2,0.2-2.4,0.2-3.5,0.2c-1.2,0-2.3,0-3.5-0.1c-2.4-0.2-4.9-0.5-7.4-2
				c-1.2-0.7-2.4-1.9-3.1-3.2c-0.7-1.3-1.1-2.7-1.3-4c-0.1-0.3-0.1-0.6-0.1-1c0-0.3-0.1-0.6-0.1-1c0-0.7,0-1.4,0.1-2.1
				c0.2-1.4,0.5-2.7,1.1-3.9c1.1-2.5,2.7-4.6,4.9-6.3c1.1-0.8,2.4-1.5,3.8-1.9c0.7-0.2,1.6-0.3,2.4-0.2c0.7,0.1,1.3,0.2,2,0.4
				c0.7,0.2,1.4,0.6,2,1c0.6,0.5,1.1,1.1,1.5,1.7c0.7,1.2,0.9,2.5,1.2,3.6c0.1,0.6,0.2,1.2,0.3,1.7l0.1,0.9c0,0.3,0.1,0.6,0.1,0.9
				c0.1,1.4-0.2,2.5-0.5,3.7c-0.5,2.3-1.3,4.5-2.2,6.6c-1.7,4.3-3.7,8.4-6.1,12.4c-2.4,4-5.1,7.7-8.2,11.2c-1.6,1.7-3.3,3.4-5.1,4.8
				c-1.8,1.5-3.9,2.8-5.9,3.9c-3.9,2.3-7.9,4.6-12.1,6.6c-2.1,1-4.2,2-6.5,2.7c-0.6,0.2-1.2,0.4-1.9,0.5c-0.4,0.1-0.7,0.1-1.3,0.2
				c-0.3,0-0.6,0.1-1.3-0.2c-0.4-0.1-0.9-0.3-1.5-1.1c-0.6-0.8-0.6-1.7-0.5-2.2c0.2-1,0.5-1.2,0.6-1.5c0.2-0.2,0.4-0.5,0.4-0.6
				l0.5-0.7c0.4-0.4,0.7-0.9,1.1-1.3c2.9-3.5,6.1-6.6,9.4-9.8l2.5-2.3l1.2-1.2l0.6-0.6l0.3-0.3c0,0,0.2-0.2,0.1-0.1
				c0,0,0,0.1-0.1,0.2c0,0-0.1,0.2-0.1,0.3c0,0.2-0.1,0.4,0,0.9c0.1,0.5,0.5,1,0.8,1.2c0.3,0.2,0.5,0.2,0.6,0.3c0.1,0,0.2,0,0.3,0
				c0,0,0.1,0,0.1,0c0.1,0,0.1,0,0.1,0c0,0-0.1,0-0.2,0c-0.2,0-0.5,0.1-0.7,0.1c-0.5,0.1-1,0.3-1.6,0.4c-1.1,0.3-2.1,0.7-3.1,1.2
				c-4.1,1.8-8.1,3.8-12.1,6c-4,2.1-7.9,4.4-11.8,6.7c-1.9,1.2-3.9,2.3-5.8,3.5c-1,0.6-1.9,1.2-2.8,1.8L12,125
				c-0.5,0.3-1,0.6-1.8,0.4L9.7,124.7z"/>
		</g>
		<g>
			<g>
				<path d="M93.9,82.5c0-0.7,0.2-0.7,0.4-0.8l0.5-0.2l1.1-0.4l2.1-0.9c1.4-0.6,2.8-1.3,4.1-2c0.7-0.4,1.3-0.8,2-1.2
					c0.6-0.4,1.4-0.9,1.9-1.3c1.2-0.9,2.4-1.9,3.6-3c2.3-2.1,4.4-4.4,6.7-6.6c2.3-2.1,4.5-4.3,7.7-5.5l0,0l0.7,0.7
					c-1.2,3.3-3.2,6-5.3,8.6c-2,2.7-4.1,5.3-6.2,7.9c-4.2,5.2-8.4,10.4-12.7,15.5c-4.2,5.2-8.5,10.3-12.6,15.6
					c-2.1,2.6-4.1,5.3-6.3,7.8c-1.1,1.3-2.2,2.6-3.3,3.8c-0.6,0.6-1.1,1.3-1.8,1.9c-0.3,0.3-0.6,0.6-0.9,0.9l-0.5,0.5l-0.3,0.3
					l-0.2,0.2l-0.1,0.1l-0.2,0.1c-0.1,0.1-0.2,0.1-0.3,0.2l0.4-0.2c-0.3,0.2-0.7,0.4-1.1,0.5c-0.4,0.1-0.9,0.1-1.3,0.1
					c-0.5,0-0.9,0.1-1.4,0.1c-0.5,0-1-0.1-1.6-0.2l-0.2-0.2c0-0.6,0.1-1.1,0.2-1.6c0.1-0.5,0.3-0.9,0.4-1.3c0.1-0.4,0.3-0.9,0.4-1.3
					c0.2-0.4,0.4-0.7,0.7-0.9l0.4-0.2c-0.1,0-0.1,0.1-0.2,0.1c-0.1,0-0.1,0.1-0.1,0.1l0,0l0,0l0.2-0.2l0.4-0.4l0.8-0.9l1.7-1.8
					l3.4-3.6l6.8-7.3c4.5-4.9,8.9-9.9,13.2-15L110,75.2c2.2-2.5,4.4-5,6.6-7.5c2.2-2.5,4.4-5,7.4-6.9l0.7,0.7l0,0c-1.5,3-4,5-6.4,7
					c-2.4,2-5,3.8-7.5,5.8c-1.2,1-2.4,2-3.7,3c-0.8,0.6-1.3,0.9-2,1.4c-0.7,0.4-1.3,0.9-2,1.3c-1.4,0.8-2.8,1.6-4.3,2.2
					c-0.7,0.3-1.5,0.6-2.3,0.8l-1.2,0.3l-0.6,0.2c-0.2,0.1-0.4,0.1-0.8-0.4L93.9,82.5z"/>
			</g>
			<g>
				<path d="M75.1,109c1.3,1.4,0.8,2.1,0.8,2.9c-0.1,0.8-0.2,1.6-0.3,2.2c0,0.3,0,0.5,0,0.5c-0.2-0.3,0.1,0.2,0.3,0.4
					c0.5,0.5,1,0.9,1.6,1.3c1.2,0.8,2.8,1.1,4.5,1c0.4,0,0.8,0,1.2-0.1c0.4,0,0.7-0.1,1.1-0.2c0.8-0.2,1.6-0.5,2.4-0.9
					c3.2-1.4,6.2-3.3,9.1-5.2l4.4-3c0.7-0.5,1.5-1,2.2-1.5l1.1-0.7c0.4-0.2,0.6-0.7,1.6,0l0.2,0.2c0.2,1.1-0.3,1.2-0.6,1.5l-1.1,0.8
					c-0.7,0.5-1.5,1-2.2,1.6c-1.5,1-3,2-4.5,2.9c-3.1,1.8-6.1,3.7-9.4,5.3c-0.8,0.4-1.7,0.8-2.6,1.1c-0.5,0.2-1,0.3-1.5,0.4
					c-0.5,0.1-0.9,0.2-1.4,0.2c-1.9,0.2-3.9,0.2-6-0.5c-1-0.3-2-0.8-2.9-1.6c-0.2-0.2-0.4-0.4-0.6-0.6l-0.1-0.1l-0.1-0.1l-0.1-0.2
					c-0.2-0.2-0.3-0.5-0.4-0.7c-0.4-0.9-0.4-1.5-0.4-2.1c0-1.2,0.2-2.2,0.6-3.1c0.4-0.9,0.5-1.9,2.5-2.1L75.1,109z"/>
			</g>
		</g>
	</g>
</g>
</svg>
