<?xml version="1.0" encoding="utf-8"?>
<!-- Generator: Adobe Illustrator 22.1.0, SVG Export Plug-In . SVG Version: 6.00 Build 0)  -->
<svg version="1.1" xmlns="http://www.w3.org/2000/svg" xmlns:xlink="http://www.w3.org/1999/xlink" x="0px" y="0px"
	 viewBox="0 0 90.9 180" style="enable-background:new 0 0 90.9 180;" xml:space="preserve">
<style type="text/css">
	.st0{display:none;}
	.st1{display:inline;fill:#FF0000;}
</style>
<g id="bg" class="st0">
	<polygon class="st1" points="87.5,0 86.5,0 86.3,0 84,0 83.1,0 82.8,0 82.1,0 81.9,0 81.7,0 79.7,0 79.4,0 78.7,0 78.5,0 78.2,0 
		77.7,0 77.5,0 77.3,0 75.3,0 75,0 74.8,0 74.2,0 74.1,0 73.9,0 73.3,0 73,0 72.9,0 70.9,0 70.8,0 70.7,0 70.4,0 69.9,0 69.6,0 
		69.5,0 68.9,0 68.7,0 68.4,0 67.5,0 66.5,0 66.4,0 66.3,0 66.2,0 66.1,0 65.5,0 65.2,0 65,0 64.3,0 64.1,0 64,0 63.1,0 62.8,0 
		62.1,0 62.1,0 61.9,0 61.8,0 61.7,0 61.6,0 60.9,0 60.6,0 59.7,0 59.7,0 59.4,0 58.7,0 58.5,0 58.2,0 58,0 57.7,0 57.5,0 57.5,0 
		57.3,0 57.2,0 56.3,0 55.3,0 55,0 54.8,0 54.6,0 54.2,0 54.1,0 53.9,0 53.7,0 53.4,0 53.3,0 53,0 52.9,0 52.8,0 51.2,0 50.8,0 
		50.7,0 50.4,0 50.2,0 50,0 49.9,0 49.6,0 49.5,0 49.3,0 49.1,0 48.9,0 48.8,0 48.7,0 48.4,0 46.8,0 46.6,0 46.4,0 46.2,0 46.1,0 
		45.9,0 45.6,0 45.5,0 45.4,0 45.2,0 45,0 44.8,0 44.7,0 44.4,0 44.3,0 44.1,0 42.4,0 42.2,0 42.1,0 42,0 41.8,0 41.6,0 41.4,0 
		41.3,0 41,0 40.9,0 40.6,0 40.4,0 40.2,0 40.1,0 39.7,0 38,0 38,0 37.8,0 37.6,0 37.5,0 37.2,0 37,0 36.8,0 36.6,0 36.3,0 36.1,0 
		35.8,0 35.6,0 34.6,0 33.7,0 33.6,0 33.4,0 33.4,0 33.2,0 32.8,0 32.6,0 32.4,0 32.2,0 31.5,0 31.2,0 31.2,0 30.2,0 30,0 29.3,0 
		29.2,0 29.1,0 29,0 28.8,0 28.7,0 28,0 27.8,0 26.8,0 26.8,0 26.6,0 25.9,0 25.6,0 25.4,0 24.8,0 24.7,0 24.6,0 24.4,0 24.4,0 
		23.4,0 22.4,0 22.2,0 22,0 21.4,0 21.3,0 21,0 20.4,0 20.2,0 20.1,0 20,0 18,0 17.8,0 17.6,0 17,0 16.8,0 16.6,0 16.1,0 15.8,0 
		15.6,0 13.6,0 13.4,0 13.2,0 12.6,0 12.4,0 12.2,0 11.5,0 11.2,0 9.2,0 9,0 8.7,0 8,0 7.8,0 6.8,0 4.6,0 4.4,0 3.4,0 0,0 0,180 
		3.4,180 4.4,180 4.6,180 6.8,180 7.8,180 8,180 8.7,180 9,180 9.2,180 11.2,180 11.5,180 12.2,180 12.4,180 12.6,180 13.2,180 
		13.4,180 13.6,180 15.6,180 15.8,180 16.1,180 16.6,180 16.8,180 17,180 17.6,180 17.8,180 18,180 20,180 20.1,180 20.2,180 
		20.4,180 21,180 21.3,180 21.4,180 22,180 22.2,180 22.4,180 23.4,180 24.4,180 24.4,180 24.6,180 24.7,180 24.8,180 25.4,180 
		25.6,180 25.9,180 26.6,180 26.8,180 26.8,180 27.8,180 28,180 28.7,180 28.8,180 29,180 29.1,180 29.2,180 29.3,180 30,180 
		30.2,180 31.2,180 31.2,180 31.5,180 32.2,180 32.4,180 32.6,180 32.8,180 33.2,180 33.4,180 33.4,180 33.6,180 33.7,180 34.6,180 
		35.6,180 35.8,180 36.1,180 36.3,180 36.6,180 36.8,180 37,180 37.2,180 37.5,180 37.6,180 37.8,180 38,180 38,180 39.7,180 
		40.1,180 40.2,180 40.4,180 40.6,180 40.9,180 41,180 41.3,180 41.4,180 41.6,180 41.8,180 42,180 42.1,180 42.2,180 42.4,180 
		44.1,180 44.3,180 44.4,180 44.7,180 44.8,180 45,180 45.2,180 45.4,180 45.5,180 45.6,180 45.9,180 46.1,180 46.2,180 46.4,180 
		46.6,180 46.8,180 48.4,180 48.7,180 48.8,180 48.9,180 49.1,180 49.3,180 49.5,180 49.6,180 49.9,180 50,180 50.2,180 50.4,180 
		50.7,180 50.8,180 51.2,180 52.8,180 52.9,180 53,180 53.3,180 53.4,180 53.7,180 53.9,180 54.1,180 54.2,180 54.6,180 54.8,180 
		55,180 55.3,180 56.3,180 57.2,180 57.3,180 57.5,180 57.5,180 57.7,180 58,180 58.2,180 58.5,180 58.7,180 59.4,180 59.7,180 
		59.7,180 60.6,180 60.9,180 61.6,180 61.7,180 61.8,180 61.9,180 62.1,180 62.1,180 62.8,180 63.1,180 64,180 64.1,180 64.3,180 
		65,180 65.2,180 65.5,180 66.1,180 66.2,180 66.3,180 66.4,180 66.5,180 67.5,180 68.4,180 68.7,180 68.9,180 69.5,180 69.6,180 
		69.9,180 70.4,180 70.7,180 70.8,180 70.9,180 72.9,180 73,180 73.3,180 73.9,180 74.1,180 74.2,180 74.8,180 75,180 75.3,180 
		77.3,180 77.5,180 77.7,180 78.2,180 78.5,180 78.7,180 79.4,180 79.7,180 81.7,180 81.9,180 82.1,180 82.8,180 83.1,180 84,180 
		86.3,180 86.5,180 87.5,180 90.9,180 90.9,0 	"/>
</g>
<g id="figure">
	<g>
		<g>
			<path d="M9.7,126.1c0.5-1.5,1.6-1.8,2.6-2.5l3-1.8l6-3.5l12-7l12.1-6.8l6-3.4l3-1.7c1-0.6,2-1.1,3.3-1.2l1-0.1l-0.1,1.2
				c-0.1,0.9-0.3,1.6-0.6,2.3c-0.3,0.7-0.6,1.3-1.1,1.9c-0.9,1.1-1.8,2.1-2.7,3.2c-1.8,2.1-3.7,4.1-5.5,6.2c-1.9,2-3.5,4.3-5.4,6.3
				c-0.5,0.5-0.9,1-1.5,1.5c-0.5,0.5-1,1-1.6,1.3c-0.6,0.3-1.4,0.5-2.2,0.8c-0.8,0.2-1.5,0.5-2.5,0.5l-0.3-0.3
				c-0.1-1,0.1-1.8,0.3-2.6c0.2-0.8,0.3-1.6,0.6-2.2c0.3-0.7,0.8-1.1,1.2-1.7c0.4-0.5,0.9-1,1.4-1.5c1.9-2,4.1-3.8,6-5.8
				c1.9-2,3.8-4,5.8-5.9c1-1,2-1.9,3-2.9c0.5-0.5,1.1-0.8,1.8-1.2c0.7-0.3,1.3-0.6,2.2-0.8l0.9,1.1c-0.8,1-1.7,1.6-2.7,2.2l-3,1.8
				l-6,3.5l-12,7l-12.1,6.9l-6.1,3.4l-3,1.7c-1,0.5-1.9,1.3-3.4,1L9.7,126.1z"/>
		</g>
		<g>
			<path d="M47.9,110.1c1.4-1.9,3.4-2.6,5.2-3.8c1.8-1.1,3.7-2.1,5.6-3.1c1.9-1,3.8-2,5.7-2.9c1.9-1,3.8-1.9,6-2.4l0.7-0.2L71,98.6
				c-0.1,0.9-0.3,1.6-0.5,2.3c-0.1,0.4-0.2,0.7-0.4,1.1c-0.1,0.3-0.3,0.6-0.6,0.9c-0.8,1.1-1.7,2.2-2.6,3.2
				c-1.8,2.1-3.7,4.1-5.5,6.1c-1.8,2-3.7,4.1-5.6,6l-2.9,2.9c-0.2,0.2-0.5,0.5-0.8,0.6c-0.3,0.2-0.7,0.3-1.1,0.4
				c-0.7,0.3-1.4,0.6-2.2,0.8l-0.6-0.8c2.4-2,5-3.8,7.7-5.5c2.7-1.7,5.3-3.3,8-4.9l4-2.4l4.1-2.3c1.4-0.8,2.8-1.5,4.1-2.2l2.1-1.1
				c0.7-0.3,1.3-0.9,2.5-0.3l0.2,0.3c-0.1,1.4-0.9,1.6-1.5,2.1l-2,1.3c-1.3,0.8-2.6,1.7-4,2.5l-4,2.5l-4,2.4
				c-2.7,1.6-5.4,3.1-8.2,4.6c-2.8,1.5-5.6,2.9-8.5,4l-0.8,0.3l0.2-1.1c0.1-0.8,0.4-1.5,0.6-2.2c0.1-0.4,0.2-0.7,0.3-1.1
				c0.1-0.4,0.3-0.6,0.5-0.9l2.6-3.2c1.8-2.1,3.6-4.1,5.5-6.1c1.9-2,3.7-4.1,5.6-6.1c0.9-1,1.9-2,2.9-2.9c0.2-0.2,0.5-0.5,0.8-0.6
				c0.3-0.2,0.7-0.3,1-0.5c0.7-0.3,1.4-0.6,2.2-0.8l0.6,0.8c-1.6,1.5-3.4,2.6-5.3,3.7c-1.8,1.1-3.7,2.1-5.6,3.2c-1.9,1-3.7,2-5.7,3
				c-1.9,0.9-3.7,2.2-6,2.3L47.9,110.1z"/>
		</g>
	</g>
</g>
</svg>
