<?xml version="1.0" encoding="utf-8"?>
<!-- Generator: Adobe Illustrator 22.1.0, SVG Export Plug-In . SVG Version: 6.00 Build 0)  -->
<svg version="1.1" xmlns="http://www.w3.org/2000/svg" xmlns:xlink="http://www.w3.org/1999/xlink" x="0px" y="0px"
	 viewBox="0 0 115.1 180" style="enable-background:new 0 0 115.1 180;" xml:space="preserve">
<style type="text/css">
	.st0{display:none;}
	.st1{display:inline;fill:#FF0000;}
</style>
<g id="bg" class="st0">
	<polygon class="st1" points="109.5,0 107.9,0 107.5,0 103.8,0 102.2,0 101.8,0 100.7,0 100.3,0 99.9,0 96.6,0 96.2,0 95.1,0 95,0 
		94.6,0 94.2,0 93.1,0 92.7,0 89.5,0 89.4,0 89,0 88.6,0 87.9,0 87.5,0 87.4,0 87,0 85.5,0 83.8,0 82.2,0 81.8,0 81.8,0 81.4,0 
		80.7,0 80.3,0 79.9,0 79.8,0 76.6,0 76.2,0 75,0 74.6,0 74.2,0 74.2,0 73.1,0 72.7,0 69.4,0 69,0 68.6,0 67.4,0 67,0 65.5,0 
		61.8,0 61.4,0 60.9,0 59.8,0 55.3,0 54.2,0 53.7,0 53.3,0 49.6,0 48.1,0 47.7,0 46.5,0 46.1,0 45.7,0 42.4,0 42,0 40.9,0 40.8,0 
		40.5,0 40.1,0 38.9,0 38.5,0 35.3,0 35.2,0 34.8,0 34.4,0 33.7,0 33.3,0 33.2,0 32.9,0 31.3,0 29.6,0 28.1,0 27.7,0 27.6,0 27.2,0 
		26.5,0 26.1,0 25.7,0 25.6,0 22.4,0 22,0 20.8,0 20.5,0 20.1,0 20,0 18.9,0 18.5,0 15.2,0 14.8,0 14.4,0 13.2,0 12.9,0 11.3,0 
		7.6,0 7.2,0 5.6,0 0,0 0,180 5.6,180 7.2,180 7.6,180 11.3,180 12.9,180 13.2,180 14.4,180 14.8,180 15.2,180 18.5,180 18.9,180 
		20,180 20.1,180 20.5,180 20.8,180 22,180 22.4,180 25.6,180 25.7,180 26.1,180 26.5,180 27.2,180 27.6,180 27.7,180 28.1,180 
		29.6,180 31.3,180 32.9,180 33.2,180 33.3,180 33.7,180 34.4,180 34.8,180 35.2,180 35.3,180 38.5,180 38.9,180 40.1,180 40.5,180 
		40.8,180 40.9,180 42,180 42.4,180 45.7,180 46.1,180 46.5,180 47.7,180 48.1,180 49.6,180 53.3,180 53.7,180 54.2,180 55.3,180 
		59.8,180 60.9,180 61.4,180 61.8,180 65.5,180 67,180 67.4,180 68.6,180 69,180 69.4,180 72.7,180 73.1,180 74.2,180 74.2,180 
		74.6,180 75,180 76.2,180 76.6,180 79.8,180 79.9,180 80.3,180 80.7,180 81.4,180 81.8,180 81.8,180 82.2,180 83.8,180 85.5,180 
		87,180 87.4,180 87.5,180 87.9,180 88.6,180 89,180 89.4,180 89.5,180 92.7,180 93.1,180 94.2,180 94.6,180 95,180 95.1,180 
		96.2,180 96.6,180 99.9,180 100.3,180 100.7,180 101.8,180 102.2,180 103.8,180 107.5,180 107.9,180 109.5,180 115.1,180 115.1,0 	
		"/>
</g>
<g id="figure">
	<g>
		<g>
			<path d="M37.8,114.1c2.6-1.3,5.2-2.6,7.9-3.7c1.4-0.5,2.8-1,4.3-1.3c0.8-0.1,1.6-0.3,2.7-0.1c0.5,0.1,0.9,0.2,1.5,0.5
				c0.5,0.3,1.1,0.8,1.4,1.4c0.3,0.7,0.4,1.3,0.4,1.9c0,0.6-0.1,1-0.2,1.5c-0.2,0.9-0.5,1.6-0.7,2.2c-0.1,0.3-0.2,0.6-0.2,0.8
				c-0.1,0.3-0.1,0.5-0.1,0.8c0,0.2,0,0.4,0,0.5c0,0.1,0,0.1-0.1,0c-0.1-0.1-0.2-0.1-0.1-0.1c0,0,0.2,0.1,0.4,0.1c0.4,0,1,0,1.6-0.1
				c1.2-0.2,2.5-0.6,3.8-1.1c5.2-1.9,10.3-4.6,15.2-7.5c2.5-1.4,4.8-3,7.2-4.6l3.5-2.4l1.7-1.2c0.3-0.2,0.5-0.4,0.9-0.6
				c0.3-0.1,0.7-0.2,1.3-0.1l0.3,0.2c0.2,1.3-0.5,1.8-1,2.3c-0.5,0.5-1.1,1-1.7,1.5c-1.1,0.9-2.3,1.8-3.5,2.6
				c-2.4,1.6-4.8,3.2-7.2,4.8c-2.4,1.6-4.9,3.2-7.4,4.7c-2.5,1.5-5.1,2.9-7.8,4.1c-1.4,0.6-2.8,1.2-4.4,1.5
				c-0.8,0.2-1.7,0.3-2.7,0.3c-0.5,0-1.1-0.1-1.7-0.3c-0.6-0.2-1.4-0.7-1.9-1.4c-0.5-0.7-0.7-1.4-0.8-2c-0.1-0.6,0-1.2,0-1.7
				c0.1-0.5,0.2-0.9,0.3-1.3c0.2-0.5,0.4-0.9,0.5-1.2c0.4-0.7,0.7-1.2,0.9-1.8c0.2-0.5,0.3-0.9,0.3-0.8c0,0,0.1,0,0-0.1
				c-0.1-0.1-0.3-0.2-0.5-0.3c-0.3-0.1-0.9-0.2-1.6-0.2c-1.3,0.1-2.7,0.4-4,0.7c-2.7,0.7-5.5,1.6-8.1,2.6L37.8,114.1z"/>
		</g>
		<g>
			<path d="M71.4,66.8c-0.5,0.3-0.8,0.3-1.1,0.3c-0.3,0-0.4-0.2-0.7-0.3c-0.4-0.2-0.9-0.5-1.3-0.7c-0.9-0.4-1.9-0.7-2.8-1
				c-1.9-0.6-3.9-1-6-1.2c-4.1-0.4-8.2-0.2-12.2,0.5c-4,0.7-8.1,1.8-11.9,3.3c-3.8,1.5-7.4,3.5-10.6,6c-3.2,2.5-6,5.5-8.3,8.9
				c-2.2,3.4-3.9,7.1-4.7,11.1c-0.4,2-0.5,4-0.3,5.9c0,0.5,0.1,1,0.2,1.4c0.1,0.5,0.2,0.9,0.4,1.4c0.3,1,0.6,1.9,1,2.8
				c0.8,1.8,1.9,3.4,3.3,4.6c1.4,1.2,3.2,2.1,5.1,2.6c1.9,0.5,3.9,0.8,6,0.9c2.1,0.2,4,0.1,6-0.2c4-0.6,7.9-1.9,11.7-3.5
				c7.6-3.3,14.8-7.7,21.9-12.2c3.5-2.3,6.9-4.7,10.1-7.3c3.2-2.6,6.3-5.5,9.5-8.3c1.6-1.4,3.3-2.8,4.8-4.1c1.6-1.4,3.2-2.7,4.7-4.2
				c1.5-1.4,3-2.9,4.3-4.4c1.3-1.5,2.5-3.2,3-4.8c0.1-0.4,0.2-0.7,0.1-1c0-0.3-0.1-0.4-0.2-0.6c-0.1-0.2-0.4-0.4-0.7-0.5
				c-0.3-0.2-0.7-0.2-1.1-0.3c-1.6-0.2-3.5,0.5-5.2,1.3c-3.5,1.8-6.7,4.6-9.8,7.3l-4.7,4.1c-1.6,1.4-3.3,2.7-4.8,4.1
				c-3.1,2.8-6,5.7-9,8.7c-5.8,6-11.7,12-17.2,18.2c-5.6,6.2-11,12.6-16.2,19.1c-1.3,1.6-2.6,3.3-3.9,4.9c-1.3,1.6-2.5,3.3-3.8,4.9
				c-1.2,1.7-2.4,3.3-3.6,5l-1.7,2.5c-0.5,0.8-1,1.6-1.5,2.5c-1,1.7-2,3.3-2.7,5c-0.7,1.7-1.2,3.5-1.1,5.2c0.1,1.7,1,3.3,2.6,4.2
				c1.5,0.9,3.5,1.2,5.4,1.1c2-0.1,3.9-0.5,5.9-1.1c2-0.6,3.9-1.4,5.8-2.2c1.9-0.9,3.7-1.8,5.5-2.9c1.8-1.1,3.5-2.3,5.1-3.6
				c1.6-1.3,3.2-2.7,4.6-4.2c1.4-1.5,2.7-3.1,3.7-4.8c1-1.7,1.8-3.6,2-5.5c0.3-1.9-0.1-3.7-0.9-5.3l0,0l0.2,0.4
				c-1.1-1.2-2.4-1.8-4.1-1.8c-1.6,0-3.4,0.5-5,1.3c-1.7,0.8-3.3,1.7-4.8,2.9c-0.8,0.6-1.5,1.2-2.2,1.8c-0.7,0.6-1.4,1.3-2.1,2
				c-1.3,1.4-2.6,2.8-3.8,4.3c-1.2,1.5-2.2,3.1-3.2,4.8c-1,1.6-1.9,3.4-2.7,5.1c-0.4,0.9-0.8,1.8-1.1,2.7c-0.4,0.9-0.5,1.9-1.6,2.5
				l-0.5-0.2c-0.6-1.2,0.1-2.1,0.3-3.1c0.3-0.9,0.7-1.9,1.1-2.8c0.7-1.9,1.6-3.7,2.5-5.5c1.9-3.5,4.2-7,7-9.9
				c0.7-0.7,1.4-1.4,2.1-2.2c0.8-0.7,1.5-1.4,2.4-2c1.6-1.3,3.4-2.4,5.3-3.3c1.9-0.9,4-1.6,6.4-1.6c1.2,0,2.4,0.2,3.5,0.7
				c1.1,0.5,2.1,1.3,2.9,2.2l0.2,0.2l0.1,0.2l0,0c0.9,2.2,1.1,4.8,0.6,7c-0.5,2.3-1.4,4.4-2.6,6.2c-2.4,3.7-5.6,6.7-9,9.4
				c-1.7,1.3-3.5,2.5-5.3,3.7c-1.8,1.1-3.7,2.2-5.6,3.1c-1.9,0.9-3.9,1.8-6,2.5c-2,0.7-4.2,1.3-6.5,1.4c-2.2,0.1-4.6-0.1-6.8-1.2
				c-1.1-0.6-2.1-1.4-2.9-2.4c-0.8-1-1.4-2.1-1.8-3.3c-0.4-1.2-0.6-2.4-0.7-3.7c-0.1-1.2-0.1-2.4,0.1-3.6c0.3-2.4,0.9-4.7,1.7-6.8
				c0.4-1.1,0.9-2.1,1.5-3.1l1.7-2.8c0.6-1,1.2-1.8,1.7-2.8c0.6-0.9,1.2-1.8,1.8-2.7c2.5-3.5,5-7,7.7-10.3c5.3-6.7,11-13,16.9-19.2
				c2.9-3.1,5.9-6.2,8.9-9.2c1.5-1.5,3-3,4.6-4.5c1.5-1.5,3.1-2.9,4.7-4.3c3.2-2.8,6.5-5.6,9.9-8.2c1.7-1.3,3.3-2.7,5-4
				c1.7-1.3,3.4-2.6,5.1-3.8c3.5-2.4,7.2-4.7,11.4-6.5c1.1-0.4,2.1-0.8,3.3-1.1c1.2-0.2,2.4-0.4,3.7-0.2c0.7,0.1,1.3,0.3,2,0.6
				c0.6,0.3,1.3,0.7,1.8,1.3c0.5,0.6,0.9,1.5,0.9,2.3c0.1,0.8-0.1,1.5-0.2,2.1c-0.4,1.3-1,2.3-1.6,3.2c-0.6,0.9-1.3,1.8-2,2.7
				c-1.4,1.7-3,3.2-4.5,4.7c-1.6,1.5-3.2,2.9-4.8,4.2c-1.7,1.4-3.3,2.7-4.8,4c-3.2,2.7-6.2,5.7-9.6,8.3c-3.3,2.7-6.8,5.1-10.4,7.4
				c-7.1,4.6-14.4,9.1-22.2,12.5c-3.9,1.7-8.1,3.1-12.4,3.8c-1.1,0.1-2.2,0.3-3.3,0.3c-1.1,0-2.2,0-3.3-0.1c-2.2-0.1-4.4-0.4-6.5-1
				c-2.2-0.6-4.3-1.6-6.1-3.1c-1.8-1.5-3.1-3.5-4-5.6c-0.5-1-0.8-2.1-1.2-3.1c-0.2-0.5-0.3-1.1-0.4-1.7c-0.1-0.6-0.2-1.1-0.3-1.7
				c-0.3-2.3-0.1-4.5,0.3-6.7c0.8-4.4,2.7-8.5,5.1-12.1c2.4-3.7,5.5-6.9,8.9-9.5c3.5-2.7,7.3-4.8,11.3-6.4c4.1-1.6,8.2-2.7,12.5-3.4
				c4.3-0.7,8.6-1,13-0.5c2.2,0.2,4.3,0.7,6.4,1.3c1.1,0.3,2.1,0.7,3.1,1.2c0.5,0.2,1,0.5,1.5,0.8c0.5,0.3,1.1,0.5,1,1.7L71.4,66.8z
				"/>
		</g>
	</g>
</g>
</svg>
