<?xml version="1.0" encoding="utf-8"?>
<!-- Generator: Adobe Illustrator 22.1.0, SVG Export Plug-In . SVG Version: 6.00 Build 0)  -->
<svg version="1.1" xmlns="http://www.w3.org/2000/svg" xmlns:xlink="http://www.w3.org/1999/xlink" x="0px" y="0px"
	 viewBox="0 0 135.8 180" style="enable-background:new 0 0 135.8 180;" xml:space="preserve">
<style type="text/css">
	.st0{display:none;}
	.st1{display:inline;fill:#FF0000;}
</style>
<g id="bg" class="st0">
	<polygon class="st1" points="115.8,0 20,0 0,0 0,180 20,180 115.8,180 135.8,180 135.8,0 	"/>
</g>
<g id="figure">
	<g>
		<g>
			<path d="M9.7,126.1c0.5-1.5,1.6-1.8,2.6-2.5l3-1.8l6-3.5l12-7l12.1-6.8l6-3.4l3-1.7c1-0.6,2-1.1,3.3-1.2l1-0.1l-0.1,1.2
				c-0.1,0.9-0.3,1.6-0.6,2.3c-0.3,0.7-0.6,1.3-1.1,1.9c-0.9,1.1-1.8,2.1-2.7,3.2c-1.8,2.1-3.7,4.1-5.5,6.2c-1.9,2-3.5,4.3-5.4,6.3
				c-0.5,0.5-0.9,1-1.5,1.5c-0.5,0.5-1,1-1.6,1.3c-0.6,0.3-1.4,0.5-2.2,0.8c-0.8,0.2-1.5,0.5-2.5,0.5l-0.3-0.3
				c-0.1-1,0.1-1.8,0.3-2.6c0.2-0.8,0.3-1.6,0.6-2.2c0.3-0.7,0.8-1.1,1.2-1.7c0.4-0.5,0.9-1,1.4-1.5c1.9-2,4.1-3.8,6-5.8
				c1.9-2,3.8-4,5.8-5.9c1-1,2-1.9,3-2.9c0.5-0.5,1.1-0.8,1.8-1.2c0.7-0.3,1.3-0.6,2.2-0.8l0.9,1.1c-0.8,1-1.7,1.6-2.7,2.2l-3,1.8
				l-6,3.5l-12,7l-12.1,6.9l-6.1,3.4l-3,1.7c-1,0.5-1.9,1.3-3.4,1L9.7,126.1z"/>
		</g>
		<g>
			<path d="M47.9,110.1c1.4-1.9,3.4-2.6,5.2-3.8c1.8-1.1,3.7-2.1,5.6-3.1c1.9-1,3.8-2,5.7-2.9c1.9-1,3.8-1.9,6-2.4l0.7-0.2L71,98.6
				c-0.1,0.9-0.3,1.6-0.5,2.3c-0.1,0.4-0.2,0.7-0.4,1.1c-0.1,0.3-0.3,0.6-0.6,0.9c-0.8,1.1-1.7,2.2-2.6,3.2
				c-1.8,2.1-3.7,4.1-5.5,6.1c-1.8,2-3.7,4.1-5.6,6l-2.9,2.9c-0.2,0.2-0.5,0.5-0.8,0.6c-0.3,0.2-0.7,0.3-1.1,0.4
				c-0.7,0.3-1.4,0.6-2.2,0.8l-0.6-0.8c2.4-2,5-3.8,7.7-5.5c2.7-1.7,5.3-3.3,8-4.9l4-2.4l4.1-2.3c1.4-0.8,2.8-1.5,4.1-2.2l2.1-1.1
				c0.7-0.3,1.3-0.9,2.5-0.3l0.2,0.3c-0.1,1.4-0.9,1.6-1.5,2.1l-2,1.3c-1.3,0.8-2.6,1.7-4,2.5l-4,2.5l-4,2.4
				c-2.7,1.6-5.4,3.1-8.2,4.6c-2.8,1.5-5.6,2.9-8.5,4l-0.8,0.3l0.2-1.1c0.1-0.8,0.4-1.5,0.6-2.2c0.1-0.4,0.2-0.7,0.3-1.1
				c0.1-0.4,0.3-0.6,0.5-0.9l2.6-3.2c1.8-2.1,3.6-4.1,5.5-6.1c1.9-2,3.7-4.1,5.6-6.1c0.9-1,1.9-2,2.9-2.9c0.2-0.2,0.5-0.5,0.8-0.6
				c0.3-0.2,0.7-0.3,1-0.5c0.7-0.3,1.4-0.6,2.2-0.8l0.6,0.8c-1.6,1.5-3.4,2.6-5.3,3.7c-1.8,1.1-3.7,2.1-5.6,3.2c-1.9,1-3.7,2-5.7,3
				c-1.9,0.9-3.7,2.2-6,2.3L47.9,110.1z"/>
		</g>
		<g>
			<g>
				<g>
					<path d="M54.5,118.6c0.7-2.5,2.6-2.9,4.2-4c1.6-1,3.2-1.9,4.8-2.8c3.2-1.8,6.6-3.6,9.8-5.3c3.3-1.8,6.6-3.5,9.8-5.3
						c1.6-0.9,3.3-1.8,4.9-2.6c1.7-0.9,3.3-1.7,5.1-2.3l0.7-0.2l-0.1,1c-0.1,1-0.4,1.7-0.7,2.5c-0.3,0.7-0.7,1.4-1.1,2
						c-0.9,1.2-1.9,2.3-2.9,3.4l-5.9,6.7c-2,2.2-4.1,4.4-6.2,6.5c-0.5,0.5-1.1,1.1-1.6,1.6c-0.6,0.5-1.2,0.9-1.9,1.2l-2.2,1
						c-0.7,0.3-1.5,0.6-2.5,0.7l-0.6-0.8c1.5-1.7,3.3-2.9,5.1-4c1.8-1.1,3.7-2,5.6-3.1l11-6.5c3.7-2.2,7.3-4.3,11-6.4
						c3.7-2.2,7.5-4,11.6-5.5l0.9-0.3l-0.3,1.1c-0.2,0.8-0.5,1.5-0.8,2.3c-0.1,0.4-0.2,0.8-0.4,1.2c-0.2,0.4-0.4,0.6-0.7,0.9
						l-2.8,3.4c-1.9,2.3-3.9,4.5-5.9,6.7c-2,2.2-4,4.4-6,6.5c-1,1.1-2.1,2.1-3.2,3.1c-0.3,0.2-0.5,0.5-0.9,0.7
						c-0.3,0.2-0.7,0.3-1.2,0.4c-0.8,0.2-1.6,0.5-2.6,0.6l-0.6-0.8c2.1-3.5,5.6-4.6,8.8-6.3c3.1-1.7,6.3-3.5,9.4-5.2
						c3.1-1.8,6.2-3.5,9.4-5.3c1.6-0.9,3.2-1.7,4.7-2.6l2.4-1.2l1.2-0.6c0.2-0.1,0.4-0.2,0.7-0.1c0.3,0,0.6,0.1,0.9,0.3l0.1,0.2
						c0,0.4-0.1,0.7-0.2,1c-0.1,0.2-0.3,0.4-0.5,0.5l-1.1,0.7l-2.3,1.4c-1.5,0.9-3.1,1.9-4.6,2.8c-3.1,1.8-6.2,3.6-9.3,5.4
						c-3.1,1.8-6.2,3.6-9.3,5.4c-3,1.9-5.8,4.3-9.9,4.4l-0.7,0l0.1-0.8c0.1-1,0.3-1.8,0.5-2.6c0.1-0.4,0.2-0.9,0.4-1.2
						c0.2-0.3,0.4-0.6,0.7-0.9c0.9-1.2,1.9-2.3,2.9-3.4c2-2.2,4.1-4.3,6.1-6.4c2.1-2.1,4.2-4.2,6.3-6.3l3.2-3
						c0.3-0.2,0.5-0.5,0.9-0.7c0.3-0.2,0.8-0.3,1.1-0.5c0.8-0.3,1.5-0.6,2.3-0.9l0.6,0.8c-3.3,2.8-6.8,5.2-10.6,7.3
						c-3.7,2.1-7.4,4.2-11.1,6.3l-11.2,6.3c-1.9,1.1-3.6,2.2-5.5,3.3c-1.9,1-3.8,2-6,2.4l-0.7,0.1l0.1-0.9c0.1-0.9,0.4-1.7,0.7-2.5
						l0.9-2.2c0.3-0.7,0.7-1.4,1.2-2c0.5-0.6,1-1.1,1.5-1.6c2-2.2,4.1-4.3,6.3-6.4l6.6-6.1c1.1-1,2.1-2.1,3.4-3
						c0.6-0.4,1.3-0.8,2-1.2c0.7-0.3,1.5-0.6,2.4-0.8l0.6,0.8c-1.4,1.3-3,2.3-4.6,3.3c-1.6,1-3.2,2-4.8,2.9
						c-3.2,1.9-6.4,3.8-9.6,5.7c-3.2,1.9-6.4,3.9-9.6,5.7c-1.6,0.9-3.2,1.8-4.9,2.7c-1.7,0.8-3.1,2.2-5.6,1.5L54.5,118.6z"/>
				</g>
			</g>
		</g>
		<g>
			<g>
				<path d="M99.9,88.3c0-0.3,0.2-0.5,0.3-0.7l0.4-0.6l0.8-1.3l1.6-2.5c1.1-1.7,2.1-3.4,3.2-5c1.1-1.6,2.2-3.3,3.4-4.8
					c0.6-0.8,1.1-1.7,1.8-2.3c0.8-0.6,1.6-1.3,3.7-0.8l0.4,0.3c0.8,2,0.4,2.9-0.1,3.8c-0.5,0.9-1.3,1.5-2,2.2
					c-1.3,1.5-2.8,2.8-4.2,4.2c-1.4,1.4-2.9,2.7-4.4,4l-2.2,2l-1.1,1l-0.6,0.5c-0.2,0.2-0.4,0.3-0.6,0.4L99.9,88.3z"/>
			</g>
			<g>
				<path d="M108.5,87.7c0-0.3,0.2-0.5,0.3-0.7l0.4-0.6l0.8-1.3l1.6-2.5c1.1-1.7,2.1-3.4,3.2-5c1.1-1.6,2.2-3.3,3.4-4.8
					c0.6-0.8,1.1-1.7,1.8-2.3c0.8-0.6,1.6-1.3,3.7-0.8l0.4,0.3c0.8,2,0.4,2.9-0.1,3.8c-0.5,0.9-1.3,1.5-2,2.2
					c-1.3,1.5-2.8,2.8-4.2,4.2c-1.4,1.4-2.9,2.7-4.4,4l-2.2,2l-1.1,1l-0.6,0.5c-0.2,0.2-0.4,0.3-0.6,0.4L108.5,87.7z"/>
			</g>
		</g>
	</g>
</g>
</svg>
