<?xml version="1.0" encoding="utf-8"?>
<!-- Generator: Adobe Illustrator 22.1.0, SVG Export Plug-In . SVG Version: 6.00 Build 0)  -->
<svg version="1.1" xmlns="http://www.w3.org/2000/svg" xmlns:xlink="http://www.w3.org/1999/xlink" x="0px" y="0px"
	 viewBox="0 0 135.3 180" style="enable-background:new 0 0 135.3 180;" xml:space="preserve">
<style type="text/css">
	.st0{display:none;}
	.st1{display:inline;fill:#FF0000;}
</style>
<g id="bg" class="st0">
	<polygon class="st1" points="129.2,0 127.1,0 125.1,0 124.4,0 123,0 121.1,0 120.2,0 119,0 118.3,0 117.7,0 117,0 116.9,0 116.3,0 
		115.3,0 114.9,0 114.2,0 114.2,0 112.8,0 112.1,0 112.1,0 111.6,0 110.9,0 110.2,0 110,0 109.6,0 109.4,0 109.2,0 108.8,0 108.2,0 
		108,0 107.5,0 107.1,0 106.9,0 106.7,0 106.1,0 106.1,0 106,0 105.4,0 105.1,0 104.7,0 104.4,0 104,0 104,0 103.5,0 103.3,0 103,0 
		102.7,0 102,0 101.9,0 101.9,0 101.4,0 101.3,0 101.1,0 100.8,0 100.2,0 100,0 100,0 99.9,0 99.4,0 99.4,0 99.2,0 99,0 98.8,0 
		98.6,0 98.3,0 98,0 97.8,0 97.7,0 97.3,0 97.1,0 97,0 96.9,0 96.7,0 96.6,0 96.3,0 95.9,0 95.9,0 95.2,0 95.2,0 94.9,0 94.6,0 
		94.6,0 94.2,0 94.2,0 94,0 93.9,0 93.8,0 93.3,0 93.1,0 92.8,0 92.7,0 92.5,0 92.1,0 92.1,0 91.9,0 91.9,0 91.7,0 91.6,0 91.3,0 
		91.1,0 91,0 90.9,0 90.6,0 90.4,0 90.2,0 90,0 89.9,0 89.7,0 89.6,0 89.4,0 89.2,0 89.2,0 89,0 88.8,0 88.6,0 88.5,0 88.5,0 
		88.2,0 88,0 87.8,0 87.8,0 87.5,0 87.1,0 86.9,0 86.9,0 86.7,0 86.5,0 86.4,0 86.1,0 86.1,0 86,0 85.9,0 85.8,0 85.4,0 85,0 85,0 
		84.7,0 84.4,0 84.4,0 84.3,0 84,0 84,0 83.8,0 83.8,0 83.6,0 83.5,0 83.3,0 83.1,0 82.9,0 82.7,0 82.5,0 82.5,0 82.3,0 82,0 
		81.9,0 81.9,0 81.7,0 81.7,0 81.7,0 81.4,0 81.3,0 81.1,0 81.1,0 80.9,0 80.8,0 80.4,0 80.2,0 80,0 80,0 79.9,0 79.7,0 79.6,0 
		79.4,0 79.4,0 79.2,0 79,0 78.9,0 78.8,0 78.8,0 78.6,0 78.3,0 78.3,0 78,0 77.8,0 77.7,0 77.6,0 77.3,0 77.1,0 76.9,0 76.9,0 
		76.7,0 76.6,0 76.4,0 76.3,0 76.2,0 75.9,0 75.9,0 75.7,0 75.6,0 75.2,0 75.2,0 75,0 74.8,0 74.6,0 74.6,0 74.4,0 74.2,0 74.1,0 
		74,0 73.9,0 73.8,0 73.6,0 73.6,0 73.5,0 73.3,0 73.1,0 72.9,0 72.8,0 72.7,0 72.7,0 72.5,0 72.3,0 72.1,0 71.9,0 71.9,0 71.7,0 
		71.7,0 71.5,0 71.5,0 71.3,0 71.1,0 71,0 70.9,0 70.9,0 70.8,0 70.6,0 70.4,0 70.2,0 70.2,0 69.9,0 69.7,0 69.5,0 69.4,0 69.2,0 
		69.2,0 69,0 68.8,0 68.8,0 68.6,0 68.5,0 68.5,0 68.3,0 68.1,0 67.8,0 67.8,0 67.5,0 67.5,0 67.1,0 66.9,0 66.7,0 66.7,0 66.7,0 
		66.5,0 66.4,0 66.2,0 66.1,0 66,0 65.9,0 65.8,0 65.6,0 65.4,0 65,0 65,0 64.8,0 64.6,0 64.4,0 64.4,0 64.3,0 64.2,0 64.1,0 64,0 
		63.8,0 63.8,0 63.6,0 63.6,0 63.4,0 63.3,0 63.1,0 62.9,0 62.7,0 62.6,0 62.5,0 62.5,0 62.3,0 62.1,0 61.9,0 61.7,0 61.7,0 61.7,0 
		61.5,0 61.4,0 61.3,0 61.1,0 61.1,0 60.9,0 60.7,0 60.6,0 60.4,0 60.2,0 60,0 60,0 59.7,0 59.6,0 59.4,0 59.4,0 59,0 58.9,0 
		58.8,0 58.6,0 58.6,0 58.3,0 58.3,0 58.1,0 57.9,0 57.7,0 57.6,0 57.5,0 57.3,0 56.9,0 56.9,0 56.6,0 56.5,0 56.4,0 56.3,0 56.2,0 
		56,0 55.9,0 55.8,0 55.7,0 55.6,0 55.4,0 55.2,0 55.2,0 55,0 54.8,0 54.5,0 54.4,0 54.2,0 54.1,0 54,0 53.8,0 53.6,0 53.6,0 
		53.5,0 53.4,0 53.3,0 53.3,0 52.9,0 52.8,0 52.7,0 52.6,0 52.3,0 52.1,0 51.9,0 51.7,0 51.7,0 51.5,0 51.5,0 51.3,0 51.2,0 50.9,0 
		50.9,0 50.8,0 50.6,0 50.2,0 50.2,0 49.8,0 49.5,0 49.4,0 49.2,0 49.2,0 49.1,0 48.8,0 48.8,0 48.5,0 48.4,0 48.3,0 48.1,0 47.7,0 
		47.5,0 47.5,0 47.3,0 47.1,0 46.7,0 46.7,0 46.7,0 46.5,0 46.2,0 46.1,0 46,0 45.9,0 45.6,0 45.6,0 45.4,0 45.2,0 45,0 44.8,0 
		44.6,0 44.4,0 44.2,0 44.1,0 44,0 43.6,0 43.6,0 43.4,0 43.3,0 43.1,0 43.1,0 42.7,0 42.6,0 42.5,0 42.1,0 41.9,0 41.5,0 41.4,0 
		41.3,0 41.1,0 41,0 40.7,0 40.6,0 40.4,0 40,0 40,0 39.4,0 39.4,0 38.9,0 38.6,0 38.6,0 38.4,0 38.3,0 38.1,0 37.9,0 37.5,0 
		37.5,0 37.3,0 36.9,0 36.6,0 36.5,0 36.3,0 36,0 35.9,0 35.8,0 35.4,0 35.2,0 35.2,0 35,0 34.5,0 34.2,0 34,0 33.8,0 33.4,0 
		33.3,0 33.3,0 32.6,0 32.3,0 31.9,0 31.7,0 31.3,0 31.2,0 30.8,0 30.6,0 30.2,0 29.8,0 29.2,0 29.2,0 29.1,0 28.5,0 28.4,0 28.1,0 
		27.7,0 27.3,0 27.1,0 26.5,0 26.1,0 25.9,0 25.6,0 25.2,0 25,0 24.4,0 23.6,0 23.1,0 23.1,0 22.5,0 21.1,0 21,0 20.4,0 20,0 
		18.9,0 18.4,0 18.3,0 17.5,0 16.9,0 16.3,0 15,0 14.2,0 12.3,0 10.8,0 10.2,0 8.1,0 6.1,0 0,0 0,180 6.1,180 8.1,180 10.2,180 
		10.8,180 12.3,180 14.2,180 15,180 16.3,180 16.9,180 17.5,180 18.3,180 18.4,180 18.9,180 20,180 20.4,180 21,180 21.1,180 
		22.5,180 23.1,180 23.1,180 23.6,180 24.4,180 25,180 25.2,180 25.6,180 25.9,180 26.1,180 26.5,180 27.1,180 27.3,180 27.7,180 
		28.1,180 28.4,180 28.5,180 29.1,180 29.2,180 29.2,180 29.8,180 30.2,180 30.6,180 30.8,180 31.2,180 31.3,180 31.7,180 31.9,180 
		32.3,180 32.6,180 33.3,180 33.3,180 33.4,180 33.8,180 34,180 34.2,180 34.5,180 35,180 35.2,180 35.2,180 35.4,180 35.8,180 
		35.9,180 36,180 36.3,180 36.5,180 36.6,180 36.9,180 37.3,180 37.5,180 37.5,180 37.9,180 38.1,180 38.3,180 38.4,180 38.6,180 
		38.6,180 38.9,180 39.4,180 39.4,180 40,180 40,180 40.4,180 40.6,180 40.7,180 41,180 41.1,180 41.3,180 41.4,180 41.5,180 
		41.9,180 42.1,180 42.5,180 42.6,180 42.7,180 43.1,180 43.1,180 43.3,180 43.4,180 43.6,180 43.6,180 44,180 44.1,180 44.2,180 
		44.4,180 44.6,180 44.8,180 45,180 45.2,180 45.4,180 45.6,180 45.6,180 45.9,180 46,180 46.1,180 46.2,180 46.5,180 46.7,180 
		46.7,180 46.7,180 47.1,180 47.3,180 47.5,180 47.5,180 47.7,180 48.1,180 48.3,180 48.4,180 48.5,180 48.8,180 48.8,180 49.1,180 
		49.2,180 49.2,180 49.4,180 49.5,180 49.8,180 50.2,180 50.2,180 50.6,180 50.8,180 50.9,180 50.9,180 51.2,180 51.3,180 51.5,180 
		51.5,180 51.7,180 51.7,180 51.9,180 52.1,180 52.3,180 52.6,180 52.7,180 52.8,180 52.9,180 53.3,180 53.3,180 53.4,180 53.5,180 
		53.6,180 53.6,180 53.8,180 54,180 54.1,180 54.2,180 54.4,180 54.5,180 54.8,180 55,180 55.2,180 55.2,180 55.4,180 55.6,180 
		55.7,180 55.8,180 55.9,180 56,180 56.2,180 56.3,180 56.4,180 56.5,180 56.6,180 56.9,180 56.9,180 57.3,180 57.5,180 57.6,180 
		57.7,180 57.9,180 58.1,180 58.3,180 58.3,180 58.6,180 58.6,180 58.8,180 58.9,180 59,180 59.4,180 59.4,180 59.6,180 59.7,180 
		60,180 60,180 60.2,180 60.4,180 60.6,180 60.7,180 60.9,180 61.1,180 61.1,180 61.3,180 61.4,180 61.5,180 61.7,180 61.7,180 
		61.7,180 61.9,180 62.1,180 62.3,180 62.5,180 62.5,180 62.6,180 62.7,180 62.9,180 63.1,180 63.3,180 63.4,180 63.6,180 63.6,180 
		63.8,180 63.8,180 64,180 64.1,180 64.2,180 64.3,180 64.4,180 64.4,180 64.6,180 64.8,180 65,180 65,180 65.4,180 65.6,180 
		65.8,180 65.9,180 66,180 66.1,180 66.2,180 66.4,180 66.5,180 66.7,180 66.7,180 66.7,180 66.9,180 67.1,180 67.5,180 67.5,180 
		67.8,180 67.8,180 68.1,180 68.3,180 68.5,180 68.5,180 68.6,180 68.8,180 68.8,180 69,180 69.2,180 69.2,180 69.4,180 69.5,180 
		69.7,180 69.9,180 70.2,180 70.2,180 70.4,180 70.6,180 70.8,180 70.9,180 70.9,180 71,180 71.1,180 71.3,180 71.5,180 71.5,180 
		71.7,180 71.7,180 71.9,180 71.9,180 72.1,180 72.3,180 72.5,180 72.7,180 72.7,180 72.8,180 72.9,180 73.1,180 73.3,180 73.5,180 
		73.6,180 73.6,180 73.8,180 73.9,180 74,180 74.1,180 74.2,180 74.4,180 74.6,180 74.6,180 74.8,180 75,180 75.2,180 75.2,180 
		75.6,180 75.7,180 75.9,180 75.9,180 76.2,180 76.3,180 76.4,180 76.6,180 76.7,180 76.9,180 76.9,180 77.1,180 77.3,180 77.6,180 
		77.7,180 77.8,180 78,180 78.3,180 78.3,180 78.6,180 78.8,180 78.8,180 78.9,180 79,180 79.2,180 79.4,180 79.4,180 79.6,180 
		79.7,180 79.9,180 80,180 80,180 80.2,180 80.4,180 80.8,180 80.9,180 81.1,180 81.1,180 81.3,180 81.4,180 81.7,180 81.7,180 
		81.7,180 81.9,180 81.9,180 82,180 82.3,180 82.5,180 82.5,180 82.7,180 82.9,180 83.1,180 83.3,180 83.5,180 83.6,180 83.8,180 
		83.8,180 84,180 84,180 84.3,180 84.4,180 84.4,180 84.7,180 85,180 85,180 85.4,180 85.8,180 85.9,180 86,180 86.1,180 86.1,180 
		86.4,180 86.5,180 86.7,180 86.9,180 86.9,180 87.1,180 87.5,180 87.8,180 87.8,180 88,180 88.2,180 88.5,180 88.5,180 88.6,180 
		88.8,180 89,180 89.2,180 89.2,180 89.4,180 89.6,180 89.7,180 89.9,180 90,180 90.2,180 90.4,180 90.6,180 90.9,180 91,180 
		91.1,180 91.3,180 91.6,180 91.7,180 91.9,180 91.9,180 92.1,180 92.1,180 92.5,180 92.7,180 92.8,180 93.1,180 93.3,180 93.8,180 
		93.9,180 94,180 94.2,180 94.2,180 94.6,180 94.6,180 94.9,180 95.2,180 95.2,180 95.9,180 95.9,180 96.3,180 96.6,180 96.7,180 
		96.9,180 97,180 97.1,180 97.3,180 97.7,180 97.8,180 98,180 98.3,180 98.6,180 98.8,180 99,180 99.2,180 99.4,180 99.4,180 
		99.9,180 100,180 100,180 100.2,180 100.8,180 101.1,180 101.3,180 101.4,180 101.9,180 101.9,180 102,180 102.7,180 103,180 
		103.3,180 103.5,180 104,180 104,180 104.4,180 104.7,180 105.1,180 105.4,180 106,180 106.1,180 106.1,180 106.7,180 106.9,180 
		107.1,180 107.5,180 108,180 108.2,180 108.8,180 109.2,180 109.4,180 109.6,180 110,180 110.2,180 110.9,180 111.6,180 112.1,180 
		112.1,180 112.8,180 114.2,180 114.2,180 114.9,180 115.3,180 116.3,180 116.9,180 117,180 117.7,180 118.3,180 119,180 120.2,180 
		121.1,180 123,180 124.4,180 125.1,180 127.1,180 129.2,180 135.3,180 135.3,0 	"/>
</g>
<g id="figure">
	<g>
		<g>
			<path d="M9.7,126.1c0.5-1.5,1.6-1.8,2.6-2.5l3-1.8l6-3.5l12-7l12.1-6.8l6-3.4l3-1.7c1-0.6,2-1.1,3.3-1.2l1-0.1l-0.1,1.2
				c-0.1,0.9-0.3,1.6-0.6,2.3c-0.3,0.7-0.6,1.3-1.1,1.9c-0.9,1.1-1.8,2.1-2.7,3.2c-1.8,2.1-3.7,4.1-5.5,6.2c-1.9,2-3.5,4.3-5.4,6.3
				c-0.5,0.5-0.9,1-1.5,1.5c-0.5,0.5-1,1-1.6,1.3c-0.6,0.3-1.4,0.5-2.2,0.8c-0.8,0.2-1.5,0.5-2.5,0.5l-0.3-0.3
				c-0.1-1,0.1-1.8,0.3-2.6c0.2-0.8,0.3-1.6,0.6-2.2c0.3-0.7,0.8-1.1,1.2-1.7c0.4-0.5,0.9-1,1.4-1.5c1.9-2,4.1-3.8,6-5.8
				c1.9-2,3.8-4,5.8-5.9c1-1,2-1.9,3-2.9c0.5-0.5,1.1-0.8,1.8-1.2c0.7-0.3,1.3-0.6,2.2-0.8l0.9,1.1c-0.8,1-1.7,1.6-2.7,2.2l-3,1.8
				l-6,3.5l-12,7l-12.1,6.9l-6.1,3.4l-3,1.7c-1,0.5-1.9,1.3-3.4,1L9.7,126.1z"/>
		</g>
		<g>
			<path d="M47.9,110.1c1.4-1.9,3.4-2.6,5.2-3.8c1.8-1.1,3.7-2.1,5.6-3.1c1.9-1,3.8-2,5.7-2.9c1.9-1,3.8-1.9,6-2.4l0.7-0.2L71,98.6
				c-0.1,0.9-0.3,1.6-0.5,2.3c-0.1,0.4-0.2,0.7-0.4,1.1c-0.1,0.3-0.3,0.6-0.6,0.9c-0.8,1.1-1.7,2.2-2.6,3.2
				c-1.8,2.1-3.7,4.1-5.5,6.1c-1.8,2-3.7,4.1-5.6,6c-1,1-1.9,2-2.9,2.9c-0.2,0.2-0.5,0.5-0.8,0.6c-0.3,0.2-0.7,0.3-1.1,0.4
				c-0.7,0.3-1.4,0.6-2.2,0.8l-0.6-0.8c0.1-0.7,0.4-1.1,0.8-1.5c0.4-0.3,0.8-0.6,1.1-0.8c0.4-0.3,0.8-0.5,1.2-0.7
				c0.2-0.1,0.4-0.2,0.7-0.2c0.1,0,0.2-0.1,0.4-0.1l0.2,0l0.1,0c0,0,0.1,0,0.6,0.8l0.1,0.2c0.4,0.8,0.5,0.9,0.4,0.9l-0.1,0.1
				l-0.1,0.1c-0.1,0.1-0.2,0.2-0.3,0.3c-0.2,0.2-0.3,0.3-0.5,0.5c-0.4,0.3-0.8,0.6-1.2,0.8c-0.4,0.2-0.8,0.4-1.3,0.6
				c-0.5,0.1-1,0.2-1.6,0l-0.7-0.2l0.1-0.5c0.1-0.8,0.4-1.5,0.6-2.2c0.1-0.4,0.2-0.7,0.3-1.1c0.1-0.4,0.3-0.6,0.5-0.9
				c0.9-1.1,1.7-2.1,2.6-3.2c1.8-2.1,3.6-4.1,5.5-6.1c1.9-2,3.7-4.1,5.6-6.1c1-1,1.9-1.9,2.9-2.9c0.2-0.2,0.5-0.5,0.8-0.6
				c0.3-0.2,0.7-0.3,1-0.5c0.7-0.3,1.4-0.6,2.2-0.8l0.6,0.8c-1.6,1.5-3.4,2.6-5.3,3.7c-1.8,1.1-3.7,2.1-5.6,3.2c-1.9,1-3.7,2-5.7,3
				c-1.9,0.9-3.7,2.2-6,2.3L47.9,110.1z"/>
		</g>
		<g>
			<g>
				<path d="M102.3,89.2c0-0.3,0.2-0.5,0.3-0.7l0.4-0.6l0.7-1.3l1.5-2.5c1-1.7,2-3.3,3-4.9c1-1.6,2.1-3.2,3.2-4.7
					c0.6-0.7,1-1.6,1.7-2.3c0.8-0.6,1.5-1.2,3.6-0.7l0.4,0.3c0.9,2,0.4,2.8,0,3.7c-0.5,0.8-1.3,1.4-1.9,2.2c-1.2,1.5-2.6,2.8-4,4.1
					c-1.4,1.3-2.8,2.7-4.2,4l-2.1,2l-1.1,1l-0.5,0.5c-0.2,0.2-0.3,0.3-0.6,0.4L102.3,89.2z"/>
			</g>
			<g>
				<path d="M110,89.2c0-0.3,0.2-0.5,0.3-0.7l0.4-0.6l0.7-1.3l1.5-2.5c1-1.7,2-3.3,3-4.9c1-1.6,2.1-3.2,3.2-4.7
					c0.6-0.7,1-1.6,1.7-2.3c0.8-0.6,1.5-1.2,3.6-0.7l0.4,0.3c0.9,2,0.4,2.8,0,3.7c-0.5,0.8-1.3,1.4-1.9,2.2c-1.2,1.5-2.6,2.8-4,4.1
					c-1.4,1.3-2.8,2.7-4.2,4l-2.1,2l-1.1,1l-0.5,0.5c-0.2,0.2-0.3,0.3-0.6,0.4L110,89.2z"/>
			</g>
			<g>
				<path d="M50.5,121.3c0.1-1.6,0.8-2,1.5-2.3l2.1-1.2c1.4-0.8,2.9-1.6,4.3-2.4c2.9-1.6,5.8-3.1,8.7-4.5c5.8-2.9,11.7-5.8,17.6-8.7
					c1.5-0.7,3-1.2,4.5-1.9l0.6-0.3c0.1,0,0.1-0.1,0.2-0.1c0.1,0,0.1,0,0.3,0c0.3,0.1,0.5,0.1,0.7,0.5c0.2,0.5,0,0.4,0,0.6
					c0,0.2,0,0.1-0.1,0.2c0,0.1-0.1,0.2-0.1,0.3c-0.1,0.6-0.4,0.9-0.5,1.4c-0.4,0.8-0.8,1.5-1.3,2.2c-1,1.4-2.2,2.4-3.4,3.6
					c-1.2,1.1-2.4,2.3-3.6,3.4c-2.4,2.2-4.9,4.3-7.5,6.3c-1.3,1-2.5,2-3.8,3.1c-0.3,0.2-0.7,0.5-1,0.7l-0.4,0.3l-0.2,0.1
					c-0.1,0-0.1,0.1-0.1-0.1c0-0.1,0-0.1-0.1-0.2C69.2,122,69,122,69,122c0,0,0,0,0,0c0,0,0.1,0,0.1,0c0.1,0,0.3-0.1,0.5-0.2
					c0.3-0.2,0.7-0.4,1-0.6c2.7-1.8,5-4.1,8-5.9c0.8-0.4,1.5-0.9,2.8-1.1c0.3-0.1,0.9,0,1.1,0.1c0.3,0,0.5,0.1,0.8,0.2
					c0.6,0.2,1.2,0.6,1.6,1.2c0.5,0.6,0.7,1.4,0.7,2c0,0.6,0,1.1-0.1,1.6c-0.2,1-0.5,1.8-0.9,2.6c-0.2,0.4-0.4,0.9-0.7,1.3
					c-0.3,0.4-0.7,0.9-1.5,1.3c-0.4,0.2-1.1,0.3-1.6,0c-0.5-0.2-0.8-0.6-1-0.9c-0.4-0.6-0.5-1.1-0.5-1.6l0-0.2c0-0.1,0-0.2,0-0.3
					c0-0.2,0-0.4,0.1-0.5c0.1-0.3,0.2-0.5,0.3-0.8c0.2-0.4,0.4-0.8,0.7-1.2c0.5-0.7,1-1.4,1.5-2.1c2-2.6,4.3-5,6.5-7.4
					c1.1-1.2,2.3-2.4,3.4-3.5c1.2-1.3,2.6-2.3,4-3.2c1.4-0.9,2.9-1.8,4.7-2.4c0.9-0.3,1.9-0.5,3.1-0.2c0.6,0.2,1.3,0.5,1.7,1
					c0.4,0.5,0.8,1.1,0.9,1.7c0.3,1.2,0.2,2.2,0,3.1c-0.2,0.9-0.4,1.8-0.6,2.7c-0.5,1.7-1.1,3.3-1.8,4.9c-0.7,1.6-1.5,3.1-2.3,4.5
					c-0.9,1.4-1.8,2.8-2.7,4.2c-3.8,5.5-8.1,10.6-12.6,15.4c-2.3,2.4-4.6,4.8-7.1,7.1c-2.5,2.2-5.1,4.3-7.7,6.3
					c-2.6,2-5.3,3.9-8,5.8c-1.4,0.9-2.8,1.8-4.3,2.7c-1.5,0.8-3.1,1.6-4.9,2.1c-0.9,0.2-2,0.3-3,0.1c-0.3,0-0.5-0.1-0.8-0.2
					c-0.3-0.1-0.4-0.1-1-0.5c-0.5-0.4-0.7-1-0.7-1.4c0-0.4,0-0.8,0.1-1c0.2-0.6,0.4-1,0.6-1.4c0.2-0.4,0.4-0.8,0.7-1.2
					c0.5-0.7,1-1.4,1.5-2.1c2-2.7,4.2-5.1,6.5-7.5c2.3-2.4,4.7-4.7,7.2-6.8c1.3-1.1,2.5-2.1,3.9-3.1c0.7-0.5,1.4-1,2.1-1.4
					c0.8-0.5,1.5-0.8,2.2-1.2l17.2-9.4c5.7-3.1,11.5-6.2,17.2-9.3l8.7-4.6l4.3-2.3c1.4-0.8,2.9-1.5,4.8-1.3l0,0
					c-0.9,1.7-2.3,2.5-3.8,3.3l-4.3,2.4l-8.6,4.8c-5.7,3.1-11.5,6.3-17.2,9.3l-17.3,9.3c-0.7,0.4-1.5,0.8-2.1,1.1
					c-0.7,0.4-1.3,0.8-2,1.3c-1.3,0.9-2.5,1.9-3.8,3c-2.5,2.1-4.8,4.3-7.1,6.6c-2.3,2.3-4.5,4.7-6.4,7.2c-0.5,0.6-0.9,1.3-1.3,2
					c-0.4,0.6-0.7,1.4-0.8,1.9c0,0.1,0,0.2,0,0.2c0,0,0-0.3-0.2-0.4c-0.2-0.2,0,0,0.1,0c0.1,0,0.3,0,0.4,0.1c0.5,0,1.2-0.1,1.8-0.3
					c1.3-0.5,2.6-1.3,3.9-2.2c1.3-0.9,2.5-1.9,3.7-2.9c2.5-2.1,4.8-4.3,7.2-6.5c2.4-2.2,4.8-4.3,7.1-6.6c2.3-2.2,4.4-4.5,6.5-6.9
					c2.1-2.4,4.2-4.9,6.2-7.4c1-1.2,2-2.5,3-3.7c1-1.2,2-2.5,2.9-3.8c1-1.3,1.9-2.6,2.8-3.8l2.8-3.8c0.9-1.3,1.9-2.5,2.6-3.9
					c0.4-0.7,0.7-1.3,0.9-2c0.2-0.6,0.4-1.3,0.3-1.7c0-0.2-0.1-0.4-0.2-0.5c-0.1-0.1-0.1-0.2-0.3-0.3c-0.4-0.1-1-0.1-1.7,0
					c-1.4,0.3-2.8,0.9-4.2,1.7c-1.3,0.8-2.7,1.7-3.8,2.7c-1.2,1.1-2.3,2.3-3.5,3.4c-2.3,2.3-4.5,4.7-6.5,7.2c-0.5,0.6-1,1.3-1.3,1.9
					c-0.2,0.3-0.4,0.7-0.5,1c0,0.2-0.1,0.3-0.1,0.4c0,0,0,0.1,0,0.1c0,0,0,0,0,0c0,0,0,0.1,0,0.1c0.1,0.3,0.3,0.6,0.5,0.7
					c0.1,0,0.1,0,0-0.1c-0.1-0.1-0.4-0.1-0.4-0.1c-0.1,0,0.1-0.2,0.2-0.4c0.1-0.2,0.3-0.6,0.4-0.9c0.2-0.7,0.5-1.4,0.6-2
					c0.1-0.6,0.1-1.1,0-1.1c0,0-0.1-0.1-0.3-0.2c-0.1,0-0.2-0.1-0.3-0.1c-0.2-0.1,0,0-0.1,0c-0.3,0-1.1,0.3-1.8,0.6
					c-2.8,1.3-5.6,3-8.6,4.6c-0.4,0.2-0.8,0.4-1.2,0.5c-0.2,0.1-0.4,0.1-0.7,0.2c-0.1,0-0.3,0.1-0.5,0c-0.1,0-0.2,0-0.3-0.1
					c0,0-0.2-0.1-0.3-0.2c-0.1-0.1-0.1-0.2-0.2-0.4c0-0.4,0.1-0.5,0.1-0.7c0-0.1,0.1-0.3,0.1-0.4c0.1-0.2,0.2-0.4,0.3-0.6
					c0.2-0.4,0.4-0.8,0.6-1.2c1-1.4,2.1-2.6,3.1-3.9c2.1-2.5,4.5-4.8,6.8-7.1c1.2-1.1,2.4-2.2,3.6-3.3c1.2-1.1,2.4-2.2,3.7-3.1
					c0.7-0.5,1.4-0.9,2.1-1.3c0.4-0.2,0.7-0.4,1.1-0.5c0,0,0.1,0,0.1,0c0,0,0,0,0,0.1c0,0.2-0.1,0,0.1,0.5c0.2,0.4,0.4,0.4,0.6,0.4
					c0.2,0,0.1,0,0.2,0c0,0,0,0-0.1,0c-0.2,0-0.4,0.1-0.5,0.1c-1.5,0.6-2.8,1.6-4.3,2.3c-5.7,3.1-11.4,6.3-17.1,9.5
					c-2.8,1.6-5.7,3.2-8.6,4.7c-1.4,0.8-2.9,1.5-4.3,2.3l-2.2,1.1c-0.7,0.4-1.4,0.8-2.8,0L50.5,121.3z"/>
			</g>
		</g>
	</g>
</g>
</svg>
