<?xml version="1.0" encoding="utf-8"?>
<!-- Generator: Adobe Illustrator 22.1.0, SVG Export Plug-In . SVG Version: 6.00 Build 0)  -->
<svg version="1.1" xmlns="http://www.w3.org/2000/svg" xmlns:xlink="http://www.w3.org/1999/xlink" x="0px" y="0px"
	 viewBox="0 0 117.5 180" style="enable-background:new 0 0 117.5 180;" xml:space="preserve">
<style type="text/css">
	.st0{display:none;}
	.st1{display:inline;fill:#FF0000;}
</style>
<g id="bg" class="st0">
	<polygon class="st1" points="112.8,0 111.5,0 111.2,0 108.1,0 106.8,0 106.5,0 105.5,0 105.2,0 104.8,0 102.1,0 101.8,0 100.8,0 
		100.5,0 100.1,0 99.3,0 99.2,0 98.8,0 97.5,0 96.1,0 95.8,0 95.4,0 94.6,0 94.4,0 94.1,0 93.3,0 93,0 92.8,0 92.8,0 91.5,0 91.2,0 
		89.9,0 89.7,0 89.4,0 88.6,0 88.3,0 88.1,0 88.1,0 87.3,0 87,0 86.8,0 86.7,0 86.5,0 85.5,0 85.2,0 84.8,0 83.9,0 83.6,0 83.4,0 
		82.6,0 82.3,0 82.1,0 81.9,0 81.8,0 81,0 80.8,0 80.6,0 80.5,0 80.1,0 79.3,0 79.2,0 78.8,0 77.9,0 77.6,0 77.2,0 76.2,0 76.1,0 
		75.9,0 75.8,0 75.4,0 74.6,0 74.6,0 74.4,0 74.1,0 73.3,0 73,0 72.8,0 72.3,0 71.5,0 71.2,0 69.9,0 69.9,0 69.7,0 69.4,0 68.6,0 
		68.3,0 68.1,0 67.6,0 67.3,0 67,0 66.7,0 66.3,0 66,0 65.2,0 63.9,0 63.6,0 63.4,0 62.9,0 62.6,0 62.3,0 61.9,0 61.6,0 61.3,0 
		61,0 60.6,0 60.3,0 60,0 59.7,0 57.9,0 57.6,0 57.2,0 56.9,0 56.6,0 56.2,0 55.9,0 55.6,0 55.3,0 54.9,0 54.6,0 54.1,0 54,0 
		53.6,0 52.3,0 51.5,0 51.2,0 50.9,0 50.6,0 50.2,0 49.9,0 49.4,0 49.3,0 48.9,0 48.1,0 47.8,0 47.6,0 47.6,0 46.3,0 46,0 45.2,0 
		44.7,0 44.5,0 44.2,0 43.4,0 43.1,0 42.9,0 42.9,0 42.1,0 41.8,0 41.6,0 41.5,0 41.3,0 40.3,0 40,0 39.7,0 38.7,0 38.4,0 38.2,0 
		37.4,0 37.1,0 36.9,0 36.7,0 36.6,0 35.8,0 35.6,0 35.4,0 35.3,0 34.9,0 34.1,0 34,0 33.6,0 32.7,0 32.4,0 32,0 31.1,0 30.9,0 
		30.7,0 30.6,0 30.2,0 29.4,0 29.4,0 29.3,0 28.9,0 28.1,0 27.8,0 27.6,0 26.3,0 26,0 24.7,0 24.7,0 24.5,0 24.2,0 23.4,0 23.1,0 
		22.9,0 22.1,0 21.8,0 21.5,0 20,0 18.7,0 18.4,0 18.2,0 17.4,0 17.1,0 16.7,0 15.8,0 15.4,0 12.7,0 12.4,0 12,0 11.1,0 10.7,0 
		9.4,0 6.3,0 6,0 4.7,0 0,0 0,180 4.7,180 6,180 6.3,180 9.4,180 10.7,180 11.1,180 12,180 12.4,180 12.7,180 15.4,180 15.8,180 
		16.7,180 17.1,180 17.4,180 18.2,180 18.4,180 18.7,180 20,180 21.5,180 21.8,180 22.1,180 22.9,180 23.1,180 23.4,180 24.2,180 
		24.5,180 24.7,180 24.7,180 26,180 26.3,180 27.6,180 27.8,180 28.1,180 28.9,180 29.3,180 29.4,180 29.4,180 30.2,180 30.6,180 
		30.7,180 30.9,180 31.1,180 32,180 32.4,180 32.7,180 33.6,180 34,180 34.1,180 34.9,180 35.3,180 35.4,180 35.6,180 35.8,180 
		36.6,180 36.7,180 36.9,180 37.1,180 37.4,180 38.2,180 38.4,180 38.7,180 39.7,180 40,180 40.3,180 41.3,180 41.5,180 41.6,180 
		41.8,180 42.1,180 42.9,180 42.9,180 43.1,180 43.4,180 44.2,180 44.5,180 44.7,180 45.2,180 46,180 46.3,180 47.6,180 47.6,180 
		47.8,180 48.1,180 48.9,180 49.3,180 49.4,180 49.9,180 50.2,180 50.6,180 50.9,180 51.2,180 51.5,180 52.3,180 53.6,180 54,180 
		54.1,180 54.6,180 54.9,180 55.3,180 55.6,180 55.9,180 56.2,180 56.6,180 56.9,180 57.2,180 57.6,180 57.9,180 59.7,180 60,180 
		60.3,180 60.6,180 61,180 61.3,180 61.6,180 61.9,180 62.3,180 62.6,180 62.9,180 63.4,180 63.6,180 63.9,180 65.2,180 66,180 
		66.3,180 66.7,180 67,180 67.3,180 67.6,180 68.1,180 68.3,180 68.6,180 69.4,180 69.7,180 69.9,180 69.9,180 71.2,180 71.5,180 
		72.3,180 72.8,180 73,180 73.3,180 74.1,180 74.4,180 74.6,180 74.6,180 75.4,180 75.8,180 75.9,180 76.1,180 76.2,180 77.2,180 
		77.6,180 77.9,180 78.8,180 79.2,180 79.3,180 80.1,180 80.5,180 80.6,180 80.8,180 81,180 81.8,180 81.9,180 82.1,180 82.3,180 
		82.6,180 83.4,180 83.6,180 83.9,180 84.8,180 85.2,180 85.5,180 86.5,180 86.7,180 86.8,180 87,180 87.3,180 88.1,180 88.1,180 
		88.3,180 88.6,180 89.4,180 89.7,180 89.9,180 91.2,180 91.5,180 92.8,180 92.8,180 93,180 93.3,180 94.1,180 94.4,180 94.6,180 
		95.4,180 95.8,180 96.1,180 97.5,180 98.8,180 99.2,180 99.3,180 100.1,180 100.5,180 100.8,180 101.8,180 102.1,180 104.8,180 
		105.2,180 105.5,180 106.5,180 106.8,180 108.1,180 111.2,180 111.5,180 112.8,180 117.5,180 117.5,0 	"/>
</g>
<g id="figure">
	<g>
		<path d="M10,124.1c0.1-1.2,0.5-1.8,1.1-2.2l1.7-1l3.5-2c2.3-1.3,4.6-2.6,7-3.9l14-7.6c2.3-1.3,4.6-2.6,6.9-4
			c1.1-0.7,2.3-1.4,3.5-2c1.2-0.7,2.4-1.3,3.7-2c0.7-0.3,1.3-0.6,2.1-0.8c0.4-0.1,0.9-0.2,1.4-0.2c0.5,0,1.2,0.2,1.8,0.6
			c0.3,0.2,0.5,0.5,0.7,0.8l0.1,0.2l0.1,0.1l0,0.1c0,0.1,0.1,0.1,0.1,0.2c0.2,0.6,0.1,0.8,0.1,1c-0.1,0.7-0.3,1-0.4,1.4
			c-0.3,0.7-0.6,1.3-0.9,2c-1.3,2.5-2.8,4.7-4.2,6.9c-3,4.5-6,8.9-9.1,13.2c-3.1,4.4-6.2,8.7-9.3,13c-3.2,4.3-6.3,8.6-9.6,12.8
			l-4.9,6.3l-1.2,1.6c-0.4,0.5-0.8,1.1-1.3,1.5c-0.5,0.5-1.2,0.8-1.9,1.1c-0.7,0.3-1.3,0.7-2.2,0.8l-0.8-0.6l0,0
			c6.5-9.4,13.5-18.4,20.6-27.4c7.1-8.9,14.7-17.5,21.8-26.4c3.6-4.5,7.1-8.9,10.6-13.4c3.5-4.5,7-9,10.6-13.5
			c1.8-2.2,3.6-4.5,5.5-6.6c0.9-1.1,1.9-2.2,2.9-3.3l2.9-3.2c2-2.1,4.1-4.3,6.6-6.1c1.3-0.9,2.7-1.7,4.3-2.2
			c1.6-0.5,3.5-0.7,5.2-0.4c0.9,0.2,1.7,0.5,2.5,0.9c0.8,0.4,1.6,0.9,2.3,1.7c0.7,0.7,1.3,1.7,1.5,2.7c0.3,1,0.2,2,0.1,2.9
			c-0.3,1.8-1,3.3-1.7,4.6c-0.7,1.4-1.6,2.6-2.5,3.8c-1.8,2.4-3.8,4.6-5.8,6.7L97.9,84c-0.5,0.5-1,1-1.5,1.5c-1,1-1.9,2.1-2.7,3.1
			c-1.7,2.2-3.1,4.5-4.3,6.9c-1.2,2.4-2.3,4.8-3.1,7.3l-0.6,2c-0.2,0.8-0.6,1.6-0.9,2.3c-0.7,1.5-1.5,2.8-2.4,4.1
			c-1.8,2.5-4.2,4.6-6.6,6.4c-1.2,0.9-2.5,1.8-3.8,2.6c-1.3,0.8-2.6,1.6-4.1,2.2c-0.4,0.1-0.8,0.3-1.2,0.4l-0.6,0.1l-0.5,0.1
			c-0.7,0.1-1.4,0.3-2.2,0.4c-0.7,0.1-1.5,0.2-2.3,0.2c-0.4,0-0.9,0-1.4-0.1c-0.3-0.1-0.6-0.2-1.1-0.5c-0.4-0.3-0.8-1-0.8-1.6
			c0-0.6,0.1-0.9,0.2-1.2c0.1-0.3,0.2-0.5,0.4-0.7c0.3-0.4,0.5-0.7,0.8-1c0.5-0.6,1.2-1.2,1.9-1.7c1.3-0.9,2.6-1.6,4-2.2
			c2.7-1.2,5.4-2.2,8.2-3.1c2.8-0.8,5.6-1.5,8.5-2c0.7-0.1,1.5-0.2,2.2-0.3c0.6-0.1,1.3-0.2,2-0.3c1.3-0.3,2.7-0.7,4-1.1
			c2.7-0.9,5.3-1.9,7.9-3l3.9-1.6l2-0.8c0.7-0.2,1.2-0.7,2.3-0.2l0.4,0.7c-0.2,1.1-1,1.3-1.6,1.7c-0.6,0.3-1.3,0.7-1.9,1
			c-1.3,0.7-2.6,1.3-3.9,1.8c-2.6,1.2-5.3,2.2-8.1,3.1c-1.4,0.4-2.8,0.9-4.3,1.2c-0.7,0.2-1.5,0.3-2.3,0.4c-0.8,0.1-1.4,0.1-2.1,0.3
			c-2.7,0.4-5.5,1.1-8.1,1.9c-2.7,0.8-5.3,1.8-7.8,3c-1.2,0.6-2.4,1.3-3.5,2c-0.5,0.4-0.9,0.7-1.3,1.2c-0.2,0.2-0.4,0.5-0.5,0.7
			c-0.1,0.1-0.1,0.2-0.1,0.2c0,0,0,0.1,0-0.1c0-0.2-0.2-0.6-0.4-0.7c-0.2-0.1-0.1-0.1-0.1-0.1c0.1,0,0.4,0,0.7,0
			c0.6,0,1.3-0.1,1.9-0.3c0.7-0.1,1.3-0.3,2-0.4l0.5-0.1c0.2,0,0.3-0.1,0.4-0.1c0.3-0.1,0.5-0.2,0.8-0.4c2.2-1.1,4.3-3,5.8-5.2
			c1.6-2.2,3-4.5,4.3-6.7c0.6-1.1,1.2-2.2,1.8-3.3c0.3-0.6,0.5-1.1,0.7-1.6c0.1-0.2,0.2-0.6,0.4-1l0.4-1.1c1.2-2.8,2.6-5.6,4.4-8.1
			c1.8-2.5,3.9-4.7,6-6.8c1-1,2.1-2.1,3.2-3.1l3.1-2.9c2-1.9,3.9-4,5.6-6.1c0.8-1.1,1.6-2.2,2.2-3.3c0.6-1.1,1.1-2.3,1.2-3.4
			c0.1-1.1,0-1.8-0.6-2.3c-0.5-0.6-1.7-1.1-2.7-1.3c-2.1-0.4-4.3,0.5-6.4,2c-2.1,1.5-4.1,3.5-6,5.5c-0.9,1-1.9,2.1-2.9,3.1
			c-1,1-1.9,2.1-2.9,3.1c-1.9,2.1-3.7,4.3-5.5,6.4c-3.6,4.4-7.2,8.8-10.8,13.3c-3.6,4.5-7.2,8.9-10.9,13.3
			c-7.3,8.8-14.2,17.9-21.5,26.7c-7.3,8.7-14.8,17.4-22.7,25.6l0,0l-0.8-0.6c-0.1-1,0.1-1.6,0.2-2.4c0.1-0.7,0.2-1.5,0.5-2.1
			c0.3-0.6,0.8-1.1,1.2-1.6l1.2-1.6l4.8-6.4c3.2-4.3,6.5-8.5,9.7-12.7c6.5-8.5,13-16.9,19.2-25.5c1.5-2.2,3.1-4.3,4.5-6.5
			c0.4-0.5,0.7-1.1,1-1.6c0.1-0.2,0.3-0.5,0.3-0.5c0,0.1,0,0.1,0.1,0.5c0,0.1,0,0.1,0.1,0.2c0,0,0,0,0,0l0,0l0,0c0,0,0,0,0.1,0
			c0.1,0,0.1,0,0,0c-0.1,0-0.3,0-0.6,0c-0.5,0.1-1.1,0.2-1.7,0.4c-2.3,0.9-4.6,2.3-6.9,3.6l-6.9,4.1c-4.6,2.7-9.2,5.4-13.9,8
			c-2.3,1.3-4.7,2.6-7,3.8l-3.5,1.9l-1.8,0.9C11.8,124.7,11.1,124.8,10,124.1L10,124.1z"/>
	</g>
</g>
</svg>
