<?xml version="1.0" encoding="utf-8"?>
<!-- Generator: Adobe Illustrator 22.1.0, SVG Export Plug-In . SVG Version: 6.00 Build 0)  -->
<svg version="1.1" xmlns="http://www.w3.org/2000/svg" xmlns:xlink="http://www.w3.org/1999/xlink" x="0px" y="0px"
	 viewBox="0 0 162.8 180" style="enable-background:new 0 0 162.8 180;" xml:space="preserve">
<style type="text/css">
	.st0{display:none;}
	.st1{display:inline;fill:#FF0000;}
</style>
<g id="bg" class="st0">
	<polygon class="st1" points="147.7,0 147.3,0 143.4,0 142.8,0 132.1,0 128.3,0 127.9,0 127.7,0 127.3,0 123.4,0 112.7,0 112.1,0 
		108.3,0 107.9,0 92.7,0 70.1,0 54.9,0 54.6,0 50.7,0 50.1,0 39.4,0 35.5,0 35.2,0 34.9,0 34.6,0 30.7,0 20,0 19.4,0 15.5,0 15.2,0 
		0,0 0,180 15.2,180 15.5,180 19.4,180 20,180 30.7,180 34.6,180 34.9,180 35.2,180 35.5,180 39.4,180 50.1,180 50.7,180 54.6,180 
		54.9,180 70.1,180 92.7,180 107.9,180 108.3,180 112.1,180 112.7,180 123.4,180 127.3,180 127.7,180 127.9,180 128.3,180 
		132.1,180 142.8,180 143.4,180 147.3,180 147.7,180 162.8,180 162.8,0 	"/>
</g>
<g id="figure">
	<g>
		<g>
			<g>
				<path d="M79,110.3c-0.2-0.9,0.2-1,0.4-1.2l0.8-0.5l1.6-0.9c1.1-0.6,2.1-1.2,3.2-1.8c2.1-1.2,4.3-2.3,6.5-3.5
					c2.2-1.1,4.3-2.3,6.5-3.4c1.1-0.6,2.2-1.1,3.3-1.6c1.1-0.5,2.2-1,3.5-1.2l0.7-0.1l-0.1,0.9c-0.1,1-0.4,1.7-0.7,2.5
					c-0.3,0.7-0.7,1.4-1.1,2c-0.9,1.2-1.9,2.3-2.9,3.4l-5.9,6.7c-2,2.2-4.1,4.4-6.2,6.5c-0.5,0.5-1.1,1.1-1.6,1.6
					c-0.6,0.5-1.2,0.9-1.9,1.2l-2.2,1c-0.7,0.3-1.5,0.6-2.5,0.7l-0.6-0.8c1.5-1.7,3.3-2.9,5.1-4c1.8-1.1,3.7-2,5.6-3.1l11-6.5
					c3.7-2.2,7.3-4.3,11-6.4c3.7-2.2,7.5-4,11.6-5.5l0.9-0.3l-0.3,1.1c-0.2,0.8-0.5,1.5-0.8,2.3c-0.1,0.4-0.2,0.8-0.4,1.2
					c-0.2,0.4-0.4,0.6-0.7,0.9l-2.8,3.4c-1.9,2.3-3.9,4.5-5.9,6.7c-2,2.2-4,4.4-6,6.5c-1,1.1-2.1,2.1-3.2,3.1
					c-0.3,0.2-0.5,0.5-0.9,0.7c-0.3,0.2-0.7,0.3-1.2,0.4c-0.8,0.2-1.6,0.5-2.6,0.6l-0.6-0.8c2.1-3.5,5.6-4.6,8.8-6.3
					c3.1-1.7,6.3-3.5,9.4-5.2c3.1-1.8,6.2-3.5,9.4-5.3c1.6-0.9,3.2-1.7,4.7-2.6l2.4-1.2l1.2-0.6c0.2-0.1,0.4-0.2,0.7-0.1
					c0.3,0,0.6,0.1,0.9,0.3l0.1,0.2c0,0.4-0.1,0.7-0.2,1c-0.1,0.2-0.3,0.4-0.5,0.5l-1.1,0.7l-2.3,1.4c-1.5,0.9-3.1,1.9-4.6,2.8
					c-3.1,1.8-6.2,3.6-9.3,5.4c-3.1,1.8-6.2,3.6-9.3,5.4c-3,1.9-5.8,4.3-9.9,4.4l-0.7,0l0.1-0.8c0.1-1,0.3-1.8,0.5-2.6
					c0.1-0.4,0.2-0.9,0.4-1.2c0.2-0.3,0.4-0.6,0.7-0.9c0.9-1.2,1.9-2.3,2.9-3.4c2-2.2,4.1-4.3,6.1-6.4c2.1-2.1,4.2-4.2,6.3-6.3
					l3.2-3c0.3-0.2,0.5-0.5,0.9-0.7c0.3-0.2,0.8-0.3,1.1-0.5c0.8-0.3,1.5-0.6,2.3-0.9l0.6,0.8c-3.3,2.8-6.8,5.2-10.6,7.3
					c-3.7,2.1-7.4,4.2-11.1,6.3l-11.2,6.3c-1.9,1.1-3.6,2.2-5.5,3.3c-1.9,1-3.8,2-6,2.4l-0.7,0.1l0.1-0.9c0.1-0.9,0.4-1.7,0.7-2.5
					l0.9-2.2c0.3-0.7,0.7-1.4,1.2-2c0.5-0.6,1-1.1,1.5-1.6c2-2.2,4.1-4.3,6.3-6.4l6.6-6.1c1.1-1,2.1-2.1,3.4-3
					c0.6-0.4,1.3-0.8,2-1.2c0.7-0.3,1.5-0.6,2.4-0.8l0.6,0.8c-0.9,0.9-1.9,1.6-3,2.2c-1,0.7-2.1,1.3-3.2,1.9
					c-2.1,1.2-4.3,2.3-6.5,3.5c-2.2,1.2-4.3,2.3-6.5,3.4c-1.1,0.6-2.2,1.1-3.3,1.6l-1.7,0.8l-0.8,0.4c-0.3,0.1-0.5,0.3-1.2-0.3
					L79,110.3z"/>
			</g>
		</g>
		<g>
			<g>
				<path d="M38.8,114.1c2.2-1.1,4.5-2.2,6.8-3.2c1.2-0.5,2.3-0.9,3.6-1.3c0.6-0.2,1.3-0.4,1.9-0.5c0.7-0.1,1.4-0.2,2.3-0.1
					c0.5,0.1,0.8,0.2,1.3,0.3c0.4,0.2,0.9,0.4,1.3,0.9c0.4,0.5,0.7,1.1,0.8,1.6c0.1,0.5,0.1,1,0.1,1.4c-0.2,1.6-0.6,2.8-0.7,3.8
					c0,0.2,0,0.5,0,0.7l0,0.1c0,0,0,0.2,0-0.1c0-0.2-0.1-0.6-0.3-0.8c-0.2-0.2-0.3-0.4-0.5-0.5c-0.4-0.2-0.3-0.1-0.2-0.2
					c0.2,0,0.4,0,0.6,0c1-0.1,2.2-0.3,3.3-0.6c4.6-1.1,9.3-2.6,13.9-4.4c2.3-0.9,4.6-1.8,6.8-2.9l3.3-1.6l1.7-0.8
					c0.3-0.1,0.5-0.3,0.8-0.4c0.1,0,0.4,0,0.6,0.1c0.2,0.1,0.4,0.1,0.7,0.3l0,0.1c0.1,0.4,0,0.6-0.1,0.8c-0.1,0.2-0.1,0.4-0.2,0.5
					c-0.2,0.2-0.5,0.4-0.8,0.5c-0.5,0.3-1.1,0.7-1.6,1c-1.1,0.6-2.2,1.2-3.3,1.8l-6.7,3.3c-4.5,2.1-9,4.2-13.9,5.7
					c-1.2,0.4-2.5,0.7-3.9,0.9c-0.4,0-0.8,0.1-1.2,0.1c-0.5-0.1-1,0-2-0.5c-0.3-0.2-0.5-0.4-0.8-0.8c-0.2-0.3-0.4-0.8-0.5-1.2
					c-0.1-0.5,0-0.4,0-0.6c0-0.1,0-0.2,0-0.3c0.1-0.4,0.1-0.8,0.3-1.2c0.4-1.4,1-2.6,1.2-3.4c0.1-0.2,0.1-0.3,0.1-0.4
					c0-0.1,0,0,0.1-0.1c0,0,0-0.1-0.2-0.2c-0.1-0.1-0.4-0.2-0.5-0.2c-0.3-0.1-0.9-0.1-1.4-0.1c-0.6,0-1.1,0.1-1.7,0.2
					c-1.2,0.2-2.3,0.5-3.5,0.8c-2.3,0.6-4.7,1.4-7,2.3L38.8,114.1z"/>
			</g>
			<g>
				<path d="M71.4,66.8c-0.5,0.3-0.8,0.3-1.1,0.3c-0.3,0-0.4-0.2-0.7-0.3c-0.4-0.2-0.9-0.5-1.3-0.7c-0.9-0.4-1.9-0.7-2.8-1
					c-1.9-0.6-3.9-1-6-1.2c-4.1-0.4-8.2-0.2-12.2,0.5c-4,0.7-8.1,1.8-11.9,3.3c-3.8,1.5-7.4,3.5-10.6,6c-3.2,2.5-6,5.5-8.3,8.9
					c-2.2,3.4-3.9,7.1-4.7,11.1c-0.4,2-0.5,4-0.3,5.9c0,0.5,0.1,1,0.2,1.4c0.1,0.5,0.2,0.9,0.4,1.4c0.3,1,0.6,1.9,1,2.8
					c0.8,1.8,1.9,3.4,3.3,4.6c1.4,1.2,3.2,2.1,5.1,2.6c1.9,0.5,3.9,0.8,6,0.9c2.1,0.2,4,0.1,6-0.2c4-0.6,7.9-1.9,11.7-3.5
					c7.6-3.3,14.8-7.7,21.9-12.2c3.5-2.3,6.9-4.7,10.1-7.3c3.2-2.6,6.3-5.5,9.5-8.3c1.6-1.4,3.3-2.8,4.8-4.1
					c1.6-1.4,3.2-2.7,4.7-4.2c1.5-1.4,3-2.9,4.3-4.4c1.3-1.5,2.5-3.2,3-4.8c0.1-0.4,0.2-0.7,0.1-1c0-0.3-0.1-0.4-0.2-0.6
					c-0.1-0.2-0.4-0.4-0.7-0.5c-0.3-0.2-0.7-0.2-1.1-0.3c-1.6-0.2-3.5,0.5-5.2,1.3c-3.5,1.8-6.7,4.6-9.8,7.3l-4.7,4.1
					c-1.6,1.4-3.3,2.7-4.8,4.1c-3.1,2.8-6,5.7-9,8.7c-5.8,6-11.7,12-17.2,18.2c-5.6,6.2-11,12.6-16.2,19.1c-1.3,1.6-2.6,3.3-3.9,4.9
					c-1.3,1.6-2.5,3.3-3.8,4.9c-1.2,1.7-2.4,3.3-3.6,5l-1.7,2.5c-0.5,0.8-1,1.6-1.5,2.5c-1,1.7-2,3.3-2.7,5
					c-0.7,1.7-1.2,3.5-1.1,5.2c0.1,1.7,1,3.3,2.6,4.2c1.5,0.9,3.5,1.2,5.4,1.1c2-0.1,3.9-0.5,5.9-1.1c2-0.6,3.9-1.4,5.8-2.2
					c1.9-0.9,3.7-1.8,5.5-2.9c1.8-1.1,3.5-2.3,5.1-3.6c1.6-1.3,3.2-2.7,4.6-4.2c1.4-1.5,2.7-3.1,3.7-4.8c1-1.7,1.8-3.6,2-5.5
					c0.3-1.9-0.1-3.7-0.9-5.3l0,0l0.2,0.4c-1.1-1.2-2.4-1.8-4.1-1.8c-1.6,0-3.4,0.5-5,1.3c-1.7,0.8-3.3,1.7-4.8,2.9
					c-0.8,0.6-1.5,1.2-2.2,1.8c-0.7,0.6-1.4,1.3-2.1,2c-1.3,1.4-2.6,2.8-3.8,4.3c-1.2,1.5-2.2,3.1-3.2,4.8c-1,1.6-1.9,3.4-2.7,5.1
					c-0.4,0.9-0.8,1.8-1.1,2.7c-0.4,0.9-0.5,1.9-1.6,2.5l-0.5-0.2c-0.6-1.2,0.1-2.1,0.3-3.1c0.3-0.9,0.7-1.9,1.1-2.8
					c0.7-1.9,1.6-3.7,2.5-5.5c1.9-3.5,4.2-7,7-9.9c0.7-0.7,1.4-1.4,2.1-2.2c0.8-0.7,1.5-1.4,2.4-2c1.6-1.3,3.4-2.4,5.3-3.3
					c1.9-0.9,4-1.6,6.4-1.6c1.2,0,2.4,0.2,3.5,0.7c1.1,0.5,2.1,1.3,2.9,2.2l0.2,0.2l0.1,0.2l0,0c0.9,2.2,1.1,4.8,0.6,7
					c-0.5,2.3-1.4,4.4-2.6,6.2c-2.4,3.7-5.6,6.7-9,9.4c-1.7,1.3-3.5,2.5-5.3,3.7c-1.8,1.1-3.7,2.2-5.6,3.1c-1.9,0.9-3.9,1.8-6,2.5
					c-2,0.7-4.2,1.3-6.5,1.4c-2.2,0.1-4.6-0.1-6.8-1.2c-1.1-0.6-2.1-1.4-2.9-2.4c-0.8-1-1.4-2.1-1.8-3.3c-0.4-1.2-0.6-2.4-0.7-3.7
					c-0.1-1.2-0.1-2.4,0.1-3.6c0.3-2.4,0.9-4.7,1.7-6.8c0.4-1.1,0.9-2.1,1.5-3.1l1.7-2.8c0.6-1,1.2-1.8,1.7-2.8
					c0.6-0.9,1.2-1.8,1.8-2.7c2.5-3.5,5-7,7.7-10.3c5.3-6.7,11-13,16.9-19.2c2.9-3.1,5.9-6.2,8.9-9.2c1.5-1.5,3-3,4.6-4.5
					c1.5-1.5,3.1-2.9,4.7-4.3c3.2-2.8,6.5-5.6,9.9-8.2c1.7-1.3,3.3-2.7,5-4c1.7-1.3,3.4-2.6,5.1-3.8c3.5-2.4,7.2-4.7,11.4-6.5
					c1.1-0.4,2.1-0.8,3.3-1.1c1.2-0.2,2.4-0.4,3.7-0.2c0.7,0.1,1.3,0.3,2,0.6c0.6,0.3,1.3,0.7,1.8,1.3c0.5,0.6,0.9,1.5,0.9,2.3
					c0.1,0.8-0.1,1.5-0.2,2.1c-0.4,1.3-1,2.3-1.6,3.2c-0.6,0.9-1.3,1.8-2,2.7c-1.4,1.7-3,3.2-4.5,4.7c-1.6,1.5-3.2,2.9-4.8,4.2
					c-1.7,1.4-3.3,2.7-4.8,4c-3.2,2.7-6.2,5.7-9.6,8.3c-3.3,2.7-6.8,5.1-10.4,7.4c-7.1,4.6-14.4,9.1-22.2,12.5
					c-3.9,1.7-8.1,3.1-12.4,3.8c-1.1,0.1-2.2,0.3-3.3,0.3c-1.1,0-2.2,0-3.3-0.1c-2.2-0.1-4.4-0.4-6.5-1c-2.2-0.6-4.3-1.6-6.1-3.1
					c-1.8-1.5-3.1-3.5-4-5.6c-0.5-1-0.8-2.1-1.2-3.1c-0.2-0.5-0.3-1.1-0.4-1.7c-0.1-0.6-0.2-1.1-0.3-1.7c-0.3-2.3-0.1-4.5,0.3-6.7
					c0.8-4.4,2.7-8.5,5.1-12.1c2.4-3.7,5.5-6.9,8.9-9.5c3.5-2.7,7.3-4.8,11.3-6.4c4.1-1.6,8.2-2.7,12.5-3.4c4.3-0.7,8.6-1,13-0.5
					c2.2,0.2,4.3,0.7,6.4,1.3c1.1,0.3,2.1,0.7,3.1,1.2c0.5,0.2,1,0.5,1.5,0.8c0.5,0.3,1.1,0.5,1,1.7L71.4,66.8z"/>
			</g>
		</g>
		<g>
			<g>
				<path d="M153,67.8c0.4,1.1-0.2,1.3-0.5,1.8c-0.4,0.5-0.7,0.9-1.1,1.4c-0.7,0.9-1.5,1.7-2.3,2.6c-1.6,1.7-3.2,3.3-4.9,4.9
					c-1.7,1.6-3.4,3.1-5.3,4.7c-1.9,1.5-3.9,2.8-6,3.9c-2.1,1.1-4.3,2-6.7,2.7c-1.2,0.4-2.4,0.6-3.6,0.8c-1.3,0.1-2.6,0.2-4.1-0.1
					c-0.7-0.1-1.5-0.4-2.2-0.9c-0.4-0.2-0.7-0.5-1.1-0.8c-0.3-0.3-0.6-0.6-0.9-1c-1.1-1.5-1.3-3.4-1.2-4.9l0.2-2.3
					c0.1-0.7,0.2-1.5,0.5-2.1c0.7-1.2,1.9-2.1,4.4-1.7l0.8,0.6c1,2.2,1,3.2,0.6,4.1c-0.2,0.4-0.5,0.7-0.8,1.1
					c-0.3,0.3-0.5,0.7-0.6,1.1c-0.2,0.7-0.2,1.3-0.1,1.7c0,0.1,0.1,0.3,0.2,0.4c0.1,0.1,0.1,0.2,0.3,0.3c0.2,0.2,0.5,0.4,0.9,0.5
					c0.8,0.3,1.8,0.5,2.8,0.5c1,0,2.1-0.1,3.2-0.3c2.1-0.4,4.3-1.1,6.3-1.9c2-0.9,4-2,5.7-3.4c1.7-1.4,3.3-3.1,4.9-4.7
					c1.6-1.6,3.2-3.3,4.7-5c0.8-0.8,1.6-1.7,2.4-2.5c0.4-0.4,0.8-0.8,1.2-1.2c0.5-0.4,0.6-1,1.8-0.7L153,67.8z"/>
			</g>
		</g>
	</g>
</g>
</svg>
