<?xml version="1.0" encoding="utf-8"?>
<!-- Generator: Adobe Illustrator 22.1.0, SVG Export Plug-In . SVG Version: 6.00 Build 0)  -->
<svg version="1.1" xmlns="http://www.w3.org/2000/svg" xmlns:xlink="http://www.w3.org/1999/xlink" x="0px" y="0px"
	 viewBox="0 0 111.2 180" style="enable-background:new 0 0 111.2 180;" xml:space="preserve">
<style type="text/css">
	.st0{display:none;}
	.st1{display:inline;fill:#FF0000;}
</style>
<g id="bg" class="st0">
	<polygon class="st1" points="106.8,0 105.6,0 105.3,0 102.4,0 101.2,0 100.9,0 99.9,0 99.6,0 99.3,0 96.8,0 96.5,0 95.5,0 95.2,0 
		94.9,0 94.2,0 94,0 93.7,0 91.2,0 91.1,0 90.8,0 90.5,0 89.8,0 89.6,0 89.3,0 88.6,0 88.3,0 88.1,0 86.8,0 85.6,0 85.4,0 85.3,0 
		85.2,0 84.9,0 84.2,0 83.9,0 83.7,0 82.9,0 82.6,0 82.4,0 82.3,0 81.2,0 80.9,0 79.9,0 79.7,0 79.6,0 79.4,0 79.3,0 79.3,0 78.5,0 
		78.2,0 77.9,0 77,0 76.8,0 76.7,0 76.5,0 75.5,0 75.2,0 74.9,0 74.2,0 74.1,0 74,0 73.8,0 73.7,0 73.5,0 72.6,0 72.3,0 71.1,0 
		71.1,0 70.8,0 70.5,0 69.8,0 69.6,0 69.3,0 68.9,0 68.6,0 68.3,0 68.2,0 68.1,0 67.9,0 66.7,0 65.4,0 65.2,0 64.9,0 64.5,0 64.2,0 
		63.9,0 63.7,0 63.3,0 63,0 62.9,0 62.6,0 62.3,0 62.3,0 60.1,0 59.7,0 59.4,0 59.3,0 58.9,0 58.6,0 58.5,0 58.2,0 57.9,0 57.7,0 
		57.4,0 57.1,0 57,0 56.7,0 54.5,0 54.2,0 54.1,0 53.8,0 53.5,0 53.3,0 53,0 52.7,0 52.6,0 52.3,0 51.9,0 51.8,0 51.5,0 51.1,0 
		48.9,0 48.9,0 48.6,0 48.3,0 48.2,0 47.9,0 47.5,0 47.4,0 47.1,0 46.7,0 46.3,0 46,0 45.8,0 44.5,0 43.3,0 43.1,0 43,0 42.9,0 
		42.6,0 42.3,0 41.9,0 41.6,0 41.4,0 40.7,0 40.4,0 40.1,0 40.1,0 38.9,0 38.6,0 37.7,0 37.5,0 37.4,0 37.2,0 37.1,0 37,0 36.3,0 
		36,0 35.7,0 34.7,0 34.5,0 34.4,0 34.2,0 33.3,0 33,0 32.7,0 31.9,0 31.9,0 31.8,0 31.6,0 31.5,0 31.3,0 30.3,0 30,0 28.9,0 
		28.8,0 28.6,0 28.3,0 27.5,0 27.4,0 27.1,0 26.3,0 26,0 25.9,0 25.8,0 25.6,0 24.4,0 23.1,0 22.9,0 22.6,0 21.9,0 21.6,0 21.4,0 
		20.7,0 20.4,0 20.1,0 20,0 17.5,0 17.2,0 17,0 16.3,0 16,0 15.7,0 14.7,0 14.4,0 11.9,0 11.6,0 11.3,0 10.3,0 10,0 8.8,0 5.9,0 
		5.6,0 4.4,0 0,0 0,180 4.4,180 5.6,180 5.9,180 8.8,180 10,180 10.3,180 11.3,180 11.6,180 11.9,180 14.4,180 14.7,180 15.7,180 
		16,180 16.3,180 17,180 17.2,180 17.5,180 20,180 20.1,180 20.4,180 20.7,180 21.4,180 21.6,180 21.9,180 22.6,180 22.9,180 
		23.1,180 24.4,180 25.6,180 25.8,180 25.9,180 26,180 26.3,180 27.1,180 27.4,180 27.5,180 28.3,180 28.6,180 28.8,180 28.9,180 
		30,180 30.3,180 31.3,180 31.5,180 31.6,180 31.8,180 31.9,180 31.9,180 32.7,180 33,180 33.3,180 34.2,180 34.4,180 34.5,180 
		34.7,180 35.7,180 36,180 36.3,180 37,180 37.1,180 37.2,180 37.4,180 37.5,180 37.7,180 38.6,180 38.9,180 40.1,180 40.1,180 
		40.4,180 40.7,180 41.4,180 41.6,180 41.9,180 42.3,180 42.6,180 42.9,180 43,180 43.1,180 43.3,180 44.5,180 45.8,180 46,180 
		46.3,180 46.7,180 47.1,180 47.4,180 47.5,180 47.9,180 48.2,180 48.3,180 48.6,180 48.9,180 48.9,180 51.1,180 51.5,180 51.8,180 
		51.9,180 52.3,180 52.6,180 52.7,180 53,180 53.3,180 53.5,180 53.8,180 54.1,180 54.2,180 54.5,180 56.7,180 57,180 57.1,180 
		57.4,180 57.7,180 57.9,180 58.2,180 58.5,180 58.6,180 58.9,180 59.3,180 59.4,180 59.7,180 60.1,180 62.3,180 62.3,180 62.6,180 
		62.9,180 63,180 63.3,180 63.7,180 63.9,180 64.2,180 64.5,180 64.9,180 65.2,180 65.4,180 66.7,180 67.9,180 68.1,180 68.2,180 
		68.3,180 68.6,180 68.9,180 69.3,180 69.6,180 69.8,180 70.5,180 70.8,180 71.1,180 71.1,180 72.3,180 72.6,180 73.5,180 73.7,180 
		73.8,180 74,180 74.1,180 74.2,180 74.9,180 75.2,180 75.5,180 76.5,180 76.7,180 76.8,180 77,180 77.9,180 78.2,180 78.5,180 
		79.3,180 79.3,180 79.4,180 79.6,180 79.7,180 79.9,180 80.9,180 81.2,180 82.3,180 82.4,180 82.6,180 82.9,180 83.7,180 83.9,180 
		84.2,180 84.9,180 85.2,180 85.3,180 85.4,180 85.6,180 86.8,180 88.1,180 88.3,180 88.6,180 89.3,180 89.6,180 89.8,180 90.5,180 
		90.8,180 91.1,180 91.2,180 93.7,180 94,180 94.2,180 94.9,180 95.2,180 95.5,180 96.5,180 96.8,180 99.3,180 99.6,180 99.9,180 
		100.9,180 101.2,180 102.4,180 105.3,180 105.6,180 106.8,180 111.2,180 111.2,0 	"/>
</g>
<g id="figure">
	<g>
		<g>
			<path d="M9.9,125.8c0.2-1.1,0.8-1.7,1.5-2.1l2-1.4c1.4-0.9,2.8-1.8,4.2-2.7c2.8-1.8,5.6-3.4,8.5-5c5.8-3.2,11.8-6,17.9-8.3
				c3.1-1.2,6.2-2.2,9.4-3.1c3.2-0.8,6.1-1.9,9-3.3c5.8-2.8,11.2-6.6,16.1-10.7c5-4.2,9.6-8.8,13.7-13.8c2.1-2.5,4.1-5.1,5.8-7.8
				c0.8-1.3,1.6-2.8,1.9-4.2c0.1-0.3,0.1-0.7,0-0.7c0,0,0,0,0,0.1c0,0,0,0.1,0.1,0.1c0,0,0,0,0,0c0,0.1,0.1,0.1,0,0.1
				c-0.2,0.1-0.9,0.3-1.5,0.8c-1.2,0.8-2.2,2.1-3.4,3.1c-1.2,1-2.4,2-3.6,3.1c-2.3,2.2-4.7,4.4-6.9,6.7C80.3,81.1,76,86,72.2,91.1
				l0,0l-0.1,0.2l-1.8,2.2l-1.9,2.3l-3.7,4.7l-7.3,9.5c-4.9,6.3-9.6,12.8-14.4,19.2l-14.3,19.2l-7.2,9.6l-3.6,4.8
				c-0.3,0.4-0.5,0.9-0.9,1.2c-0.4,0.4-0.9,0.6-1.4,0.8c-1.1,0.4-2.3,0.7-3.9,0.8l-0.8-0.6c-0.4-1.6-0.4-2.8-0.3-4
				c0.1-0.6,0.1-1.1,0.4-1.6c0.2-0.4,0.6-0.8,0.9-1.2l3.7-4.7l7.4-9.4l14.8-18.9l14.9-18.8l7.4-9.4l3.8-4.7l1.9-2.3l2-2.4l-0.2,0.2
				c4.1-5.4,8.5-10.3,13.2-15.1c2.4-2.4,4.8-4.7,7.4-6.8c1.3-1,2.6-2.1,4.1-3c1.5-0.9,3.1-1.5,4.9-2.2c0.4-0.1,0.9-0.3,1.4-0.4
				c0.5-0.1,1.1-0.2,1.8,0c0.4,0.1,0.8,0.3,1.1,0.6c0.1,0.1,0.2,0.2,0.2,0.3c0.1,0.1,0.2,0.2,0.2,0.4c0.1,0.2,0.2,0.5,0.2,0.7
				c0.1,0.8-0.1,1.2-0.3,1.7c-0.3,0.9-0.7,1.6-1.2,2.4c-0.4,0.7-0.8,1.5-1.3,2.2c-1.8,2.8-3.8,5.5-5.9,8c-4.2,5.1-8.9,9.7-14,14
				c-5,4.3-10.4,8.2-16.4,11.1c-1.5,0.7-3,1.4-4.6,2c-0.8,0.3-1.6,0.6-2.4,0.8l-2.4,0.7c-3.1,0.9-6.2,2-9.2,3.1
				c-6,2.4-11.9,5.2-17.6,8.3c-2.8,1.6-5.7,3.2-8.4,4.9c-1.4,0.9-2.8,1.7-4.1,2.6l-2,1.4c-0.6,0.5-1.4,0.9-2.5,0.7L9.9,125.8z"/>
		</g>
		<g>
			<path d="M78.8,105.1c0.1,1-0.3,1.3-0.8,1.6l-1.3,0.9c-0.8,0.6-1.7,1.2-2.6,1.8c-1.7,1.2-3.5,2.3-5.2,3.5
				c-3.5,2.2-7.1,4.4-10.8,6.4l-1.4,0.7l-1.5,0.7c-1,0.4-2.1,0.7-3.1,1c-2.1,0.4-4.3,0.6-6.5,0.3c-1.1-0.1-2.2-0.4-3.3-0.8
				c-0.6-0.2-1.1-0.5-1.6-0.9c-0.6-0.4-1.2-1.1-1.4-1.9c-0.5-1.5-0.5-2.8-0.3-4c0.1-0.6,0.1-1.2,0.7-1.6c0.3-0.2,0.5-0.4,0.9-0.5
				c0.3-0.2,0.7-0.3,1.1-0.4l0.9,0.4c0.2,0.4,0.3,0.7,0.5,1.1c0.1,0.3,0.2,0.6,0.3,0.9c0.2,0.6-0.1,0.9-0.3,1.3
				c-0.4,0.8-0.9,1.5-1,2.1c0,0.3-0.1,0.4,0.2,0.7c0.2,0.3,0.6,0.5,1,0.7c0.8,0.4,1.7,0.7,2.7,0.9c1.9,0.3,4,0.3,5.9-0.1
				c2-0.4,3.8-1.2,5.6-2.2c3.6-2,7.1-4.3,10.5-6.7l5.1-3.5l2.6-1.7l1.3-0.9c0.4-0.3,0.8-0.6,1.8-0.2L78.8,105.1z"/>
		</g>
	</g>
</g>
</svg>
