<?xml version="1.0" encoding="utf-8"?>
<!-- Generator: Adobe Illustrator 22.1.0, SVG Export Plug-In . SVG Version: 6.00 Build 0)  -->
<svg version="1.1" xmlns="http://www.w3.org/2000/svg" xmlns:xlink="http://www.w3.org/1999/xlink" x="0px" y="0px"
	 viewBox="0 0 139.3 180" style="enable-background:new 0 0 139.3 180;" xml:space="preserve">
<style type="text/css">
	.st0{display:none;}
	.st1{display:inline;fill:#FF0000;}
</style>
<g id="bg" class="st0">
	<polygon class="st1" points="132.2,0 130.3,0 129.8,0 125.2,0 123.2,0 122.7,0 121.2,0 120.7,0 120.3,0 119.3,0 116.1,0 115.6,0 
		114.1,0 113.7,0 113.2,0 112.2,0 111.7,0 111.2,0 110.3,0 109.8,0 107.1,0 106.6,0 106.1,0 105.2,0 104.6,0 104.1,0 103.2,0 
		102.7,0 102.2,0 101.2,0 100.7,0 100.3,0 97.5,0 97,0 96.1,0 95.6,0 95.1,0 94.1,0 93.7,0 93.2,0 91.7,0 91.2,0 88,0 87.1,0 
		86.6,0 86.1,0 84.6,0 84.1,0 82.2,0 77.5,0 77,0 75.1,0 71.4,0 68,0 64.3,0 62.3,0 61.8,0 57.2,0 55.2,0 54.7,0 53.2,0 52.8,0 
		52.3,0 51.4,0 48.1,0 47.6,0 46.2,0 45.7,0 45.2,0 44.3,0 43.7,0 43.2,0 42.3,0 41.8,0 39.1,0 38.6,0 38.1,0 37.2,0 36.6,0 36.1,0 
		35.2,0 34.7,0 34.2,0 33.2,0 32.8,0 32.3,0 29.5,0 29.1,0 28.1,0 27.6,0 27.1,0 26.2,0 25.7,0 25.2,0 23.7,0 23.2,0 20,0 19.1,0 
		18.6,0 18.1,0 16.6,0 16.1,0 14.2,0 9.5,0 9.1,0 7.1,0 0,0 0,180 7.1,180 9.1,180 9.5,180 14.2,180 16.1,180 16.6,180 18.1,180 
		18.6,180 19.1,180 20,180 23.2,180 23.7,180 25.2,180 25.7,180 26.2,180 27.1,180 27.6,180 28.1,180 29.1,180 29.5,180 32.3,180 
		32.8,180 33.2,180 34.2,180 34.7,180 35.2,180 36.1,180 36.6,180 37.2,180 38.1,180 38.6,180 39.1,180 41.8,180 42.3,180 43.2,180 
		43.7,180 44.3,180 45.2,180 45.7,180 46.2,180 47.6,180 48.1,180 51.4,180 52.3,180 52.8,180 53.2,180 54.7,180 55.2,180 57.2,180 
		61.8,180 62.3,180 64.3,180 68,180 71.4,180 75.1,180 77,180 77.5,180 82.2,180 84.1,180 84.6,180 86.1,180 86.6,180 87.1,180 
		88,180 91.2,180 91.7,180 93.2,180 93.7,180 94.1,180 95.1,180 95.6,180 96.1,180 97,180 97.5,180 100.3,180 100.7,180 101.2,180 
		102.2,180 102.7,180 103.2,180 104.1,180 104.6,180 105.2,180 106.1,180 106.6,180 107.1,180 109.8,180 110.3,180 111.2,180 
		111.7,180 112.2,180 113.2,180 113.7,180 114.1,180 115.6,180 116.1,180 119.3,180 120.3,180 120.7,180 121.2,180 122.7,180 
		123.2,180 125.2,180 129.8,180 130.3,180 132.2,180 139.3,180 139.3,0 	"/>
</g>
<g id="figure">
	<g>
		<g>
			<path d="M38.7,86.9c1.3-0.5,2.5-0.5,3.8-0.6l3.8-0.1c2.5-0.1,5-0.1,7.6-0.1l15.1-0.1c5-0.1,10.1-0.2,15.1-0.4
				c2.5-0.1,5-0.1,7.6-0.1c1.3,0,2.5,0,3.8,0.1l1.9,0c0.6,0,1.3,0.2,1.9,1.3v0.5c-0.6,1.1-1.3,1.3-1.9,1.3l-1.9,0
				c-1.3,0-2.5,0.1-3.8,0.1c-2.5,0-5,0-7.6-0.1c-5-0.2-10.1-0.3-15.1-0.4l-15.1-0.1c-2.5,0-5-0.1-7.6-0.1L42.4,88
				c-1.3,0-2.5-0.1-3.8-0.6V86.9z"/>
		</g>
		<g>
			<path d="M19.7,99.8c0,1.5-0.2,2.2-0.6,2.7c-0.2,0.2-0.4,0.3-0.7,0.5l-0.7,0.4c-0.9,0.5-1.8,1.1-2.6,1.6c-1.6,1.1-3.2,2.4-3.6,4.1
				l0-0.3c-0.1,1.3,0,2.7,0.4,3.9c0.4,1.2,1.1,2.4,1.9,3.3c1.7,2,4.3,2.9,6.9,3.1c2.6,0.2,5.3-0.2,8-0.8c2.6-0.7,5.2-1.6,7.7-2.8
				c2.5-1.2,4.9-2.5,7-4.1l0.8-0.6l0.8-0.6c0.6-0.4,1.1-0.8,1.6-1.3c1-0.9,2-1.8,3-2.7c3.8-3.8,7.2-8.2,10.6-12.6
				c3.4-4.4,6.8-8.9,10.4-13.4c3.6-4.5,7.3-8.9,11.9-12.9c2.4-2.1,5.1-3.6,7.9-4.9c2.7-1.3,5.5-2.2,8.4-3.1c2.8-0.8,5.7-1.5,8.5-2
				c1.4-0.3,2.9-0.5,4.3-0.7c0.7-0.1,1.4-0.2,2.2-0.3c0.4,0,0.7,0,1.1,0c0.2,0,0.4,0,0.6,0.1c0.1,0,0.2,0,0.3,0.1l0.2,0.1l0.2,0
				l0.2,0.1c0.1,0,0.3,0.1,0.4,0.2l0.7,0.4l0,0.7l0,0c0,0.1,0,0.3,0,0.4c0,0.1-0.1,0.2-0.1,0.3c0,0.1-0.1,0.2-0.1,0.3
				c-0.1,0.2-0.1,0.3-0.2,0.4c-0.1,0.2-0.2,0.4-0.3,0.6c-0.2,0.4-0.4,0.7-0.6,1c-0.2,0.3-0.4,0.6-0.6,0.9c-0.2,0.3-0.5,0.5-0.8,0.8
				c-1,1-2,2-2.6,3c-0.1,0.2-0.3,0.4-0.3,0.6c-0.1,0.1,0,0.1-0.1-0.1c-0.1-0.2-0.2-0.2-0.1-0.1c0.1,0.1,0.4,0.2,0.6,0.2
				c0.9,0.2,2.2-0.2,3.3-0.8c2.4-1.2,4.8-2.9,6.9-4.8c1.1-1,2.1-2,3-3.1c0.4-0.6,0.9-1.1,1.4-1.7c0.2-0.3,0.5-0.5,0.8-0.8
				c0.2-0.3,0.6-0.5,1.4-0.2l0.8,0.7c0.4,0.8,0.2,1.2,0,1.5c-0.2,0.3-0.5,0.6-0.7,0.8c-0.5,0.5-1.1,1-1.7,1.5
				c-1.2,0.9-2.2,1.9-3.3,2.9c-2.2,2-4.4,4-7.1,5.6c-0.7,0.4-1.4,0.7-2.2,1c-0.8,0.3-1.7,0.5-2.8,0.4c-0.5,0-0.9-0.1-1.5-0.3
				c-0.5-0.2-1.3-0.6-1.7-1.4c-0.4-0.9-0.4-1.7-0.2-2.3c0.1-0.6,0.3-1,0.6-1.4c0.9-1.6,1.9-2.7,2.9-3.8c0.3-0.3,0.5-0.6,0.7-0.8
				c0.3-0.3,0.6-0.5,0.9-0.7l0.8-0.6l0.3-0.3c0,0,0.1-0.1,0.1,0c0,0-0.1,0-0.1,0.5l0,0l0.7,1.1c0.1,0.1,0.2,0.1,0.3,0.2
				c0.2,0,0.1,0,0.1,0c0,0,0.1,0,0.1,0c0,0,0,0,0,0.1c0,0-0.1,0.1-0.2,0.1c-0.1,0.1-0.3,0.1-0.5,0.2c-0.3,0.1-0.6,0.2-1,0.2
				c-0.7,0.1-1.3,0.2-2,0.3c-1.4,0.3-2.7,0.6-4,0.9c-2.7,0.7-5.3,1.5-7.9,2.5c-5.1,1.9-10,4.5-13.6,8c-3.8,3.7-7.2,8.1-10.5,12.6
				c-3.4,4.5-6.7,9.1-10.3,13.6c-3.6,4.5-7.7,8.7-12.3,12.5c-1.2,0.9-2.4,1.8-3.6,2.7c-1.3,0.9-2.5,1.6-3.7,2.3
				c-2.6,1.5-5.3,2.8-8.1,3.8c-2.8,1-5.6,1.8-8.6,2.2c-2.9,0.5-6,0.6-9,0c-3-0.5-6-1.9-8-4.2c-1-1.2-1.8-2.5-2.4-3.9
				c-0.6-1.4-1.1-2.8-1.5-4.3l0-0.3c-0.1-1.5,0.3-3,0.9-4.3c0.6-1.3,1.4-2.5,2.4-3.5c1-1,2-1.8,3.1-2.5l0.9-0.5
				c0.3-0.2,0.6-0.3,0.9-0.4c0.7-0.1,1.5,0.1,2.6,1.2L19.7,99.8z"/>
		</g>
	</g>
</g>
</svg>
