<?xml version="1.0" encoding="utf-8"?>
<!-- Generator: Adobe Illustrator 22.1.0, SVG Export Plug-In . SVG Version: 6.00 Build 0)  -->
<svg version="1.1" xmlns="http://www.w3.org/2000/svg" xmlns:xlink="http://www.w3.org/1999/xlink" x="0px" y="0px"
	 viewBox="0 0 138.2 180" style="enable-background:new 0 0 138.2 180;" xml:space="preserve">
<style type="text/css">
	.st0{display:none;}
	.st1{display:inline;fill:#FF0000;}
</style>
<g id="bg" class="st0">
	<polygon class="st1" points="126.3,0 122.3,0 118.2,0 117,0 110.4,0 106.3,0 105,0 102.3,0 101.1,0 97,0 90.4,0 89.1,0 85,0 
		81.1,0 69.1,0 69.1,0 57.2,0 53.2,0 49.1,0 47.8,0 41.3,0 37.2,0 35.9,0 33.2,0 31.9,0 27.8,0 21.3,0 20,0 15.9,0 11.9,0 0,0 
		0,180 11.9,180 15.9,180 20,180 21.3,180 27.8,180 31.9,180 33.2,180 35.9,180 37.2,180 41.3,180 47.8,180 49.1,180 53.2,180 
		57.2,180 69.1,180 69.1,180 81.1,180 85,180 89.1,180 90.4,180 97,180 101.1,180 102.3,180 105,180 106.3,180 110.4,180 117,180 
		118.2,180 122.3,180 126.3,180 138.2,180 138.2,0 	"/>
</g>
<g id="figure">
	<g>
		<g>
			<g>
				<path d="M9.9,125.8c0.2-1.1,0.8-1.7,1.5-2.1l2-1.4c1.4-0.9,2.8-1.8,4.2-2.7c2.8-1.8,5.6-3.4,8.5-5c5.8-3.2,11.8-6,17.9-8.3
					c3.1-1.2,6.2-2.2,9.4-3.1c3.2-0.8,6.1-1.9,9-3.3c5.8-2.8,11.2-6.6,16.1-10.7c5-4.2,9.6-8.8,13.7-13.8c2.1-2.5,4.1-5.1,5.8-7.8
					c0.8-1.3,1.6-2.8,1.9-4.2c0.1-0.3,0.1-0.7,0-0.7c0,0,0,0,0,0.1c0,0,0,0.1,0.1,0.1c0,0,0,0,0,0c0,0.1,0.1,0.1,0,0.1
					c-0.2,0.1-0.9,0.3-1.5,0.8c-1.2,0.8-2.2,2.1-3.4,3.1c-1.2,1-2.4,2-3.6,3.1c-2.3,2.2-4.7,4.4-6.9,6.7C80.3,81.1,76,86,72.2,91.1
					l0,0l-0.1,0.2l-1.8,2.2l-1.9,2.3l-3.7,4.7l-7.3,9.5c-4.9,6.3-9.6,12.8-14.4,19.2l-14.3,19.2l-7.2,9.6l-3.6,4.8
					c-0.3,0.4-0.5,0.9-0.9,1.2c-0.4,0.4-0.9,0.6-1.4,0.8c-1.1,0.4-2.3,0.7-3.9,0.8l-0.8-0.6c-0.4-1.6-0.4-2.8-0.3-4
					c0.1-0.6,0.1-1.1,0.4-1.6c0.2-0.4,0.6-0.8,0.9-1.2l3.7-4.7l7.4-9.4l14.8-18.9l14.9-18.8l7.4-9.4l3.8-4.7l1.9-2.3l2-2.4l-0.2,0.2
					c4.1-5.4,8.5-10.3,13.2-15.1c2.4-2.4,4.8-4.7,7.4-6.8c1.3-1,2.6-2.1,4.1-3c1.5-0.9,3.1-1.5,4.9-2.2c0.4-0.1,0.9-0.3,1.4-0.4
					c0.5-0.1,1.1-0.2,1.8,0c0.4,0.1,0.8,0.3,1.1,0.6c0.1,0.1,0.2,0.2,0.2,0.3c0.1,0.1,0.2,0.2,0.2,0.4c0.1,0.2,0.2,0.5,0.2,0.7
					c0.1,0.8-0.1,1.2-0.3,1.7c-0.3,0.9-0.7,1.6-1.2,2.4c-0.4,0.7-0.8,1.5-1.3,2.2c-1.8,2.8-3.8,5.5-5.9,8c-4.2,5.1-8.9,9.7-14,14
					c-5,4.3-10.4,8.2-16.4,11.1c-1.5,0.7-3,1.4-4.6,2c-0.8,0.3-1.6,0.6-2.4,0.8l-2.4,0.7c-3.1,0.9-6.2,2-9.2,3.1
					c-6,2.4-11.9,5.2-17.6,8.3c-2.8,1.6-5.7,3.2-8.4,4.9c-1.4,0.9-2.8,1.7-4.1,2.6l-2,1.4c-0.6,0.5-1.4,0.9-2.5,0.7L9.9,125.8z"/>
			</g>
			<g>
				<path d="M89.1,101.1c-0.1,0.5-0.3,0.7-0.6,0.9c-0.2,0.2-0.5,0.4-0.8,0.6c-0.5,0.4-1.1,0.7-1.6,1c-1.1,0.7-2.2,1.3-3.3,2
					c-2.2,1.4-4.3,2.8-6.5,4.1c-1.1,0.7-2.2,1.3-3.3,1.9c-1.1,0.6-2.3,1.2-3.4,1.8l-6.7,3.6c-2.3,1.2-4.5,2.4-6.9,3.5
					c-2.4,1.1-5.1,1.7-7.7,1.8c-1.3,0-2.7-0.1-4-0.3c-1.3-0.3-2.7-0.6-4-1.7c-0.4-0.3-0.7-0.7-1-1.1c-0.2-0.4-0.4-0.9-0.5-1.3
					c-0.2-0.9-0.2-1.7-0.2-2.5c0-0.4,0.1-0.8,0.2-1.1c0.1-0.4,0.1-0.7,0.4-1c0.6-0.5,1.3-0.9,2.3-1.2l0.9,0.4
					c0.5,0.9,0.7,1.7,0.8,2.3c0,0.3-0.2,0.5-0.3,0.8l-0.4,0.7c-0.5,0.9-0.9,1.8-0.6,2.3c0.2,0.3,0.7,0.6,1.2,0.9
					c0.5,0.3,1,0.5,1.6,0.6c1.1,0.3,2.3,0.5,3.5,0.5c2.4,0,4.8-0.6,7-1.6c2.3-1.1,4.5-2.3,6.7-3.5c2.2-1.2,4.4-2.5,6.6-3.8
					c1.1-0.6,2.2-1.3,3.2-2c1.1-0.7,2.2-1.3,3.3-1.9c2.2-1.3,4.5-2.4,6.8-3.6c1.1-0.6,2.2-1.3,3.3-1.8c0.6-0.3,1.1-0.6,1.7-0.9
					c0.3-0.1,0.6-0.3,0.9-0.4c0.3-0.1,0.6-0.2,1.1-0.1L89.1,101.1z"/>
			</g>
		</g>
		<g>
			<path d="M72,110.8c1.2-2.1,3.1-2.9,4.9-4.1l5.3-3.4c3.5-2.3,7.1-4.6,10.7-6.8l5.4-3.3c1.8-1.1,3.5-2.2,5.2-3.4
				c1.7-1.2,3.3-2.3,4.9-3.7c1.6-1.3,3.2-2.6,4.7-4c3.1-2.8,6.1-5.6,8.9-8.6c1.4-1.5,2.7-3.1,3.8-4.7c0.5-0.8,1-1.7,1.1-2.5
				c0.1-0.4,0.1-0.7,0-0.8c0,0,0,0-0.1-0.1c0,0,0,0-0.1,0c-0.1,0-0.5,0.1-0.9,0.3c-0.4,0.2-0.8,0.4-1.2,0.6
				c-0.8,0.5-1.6,1.1-2.3,1.7c-1.5,1.3-3,2.7-4.5,4.2c-2.9,3-5.7,6-8.4,9.1c-2.7,3.1-5.5,6.3-8.1,9.4l-1,1.2l-0.5,0.6
				c-0.2,0.2-0.4,0.4-0.5,0.6c-0.7,0.8-1.4,1.6-2.1,2.4l-4.4,4.5c-2.9,3-5.5,6.2-8.1,9.5c-1.3,1.6-2.5,3.2-3.7,4.9l-3.5,4.9
				c-0.6,0.8-1.1,1.6-1.5,2.3c-0.2,0.4-0.4,0.7-0.6,1c-0.2,0.3-0.2,0.5-0.3,0.4c0-0.1-0.2-0.2-0.3-0.3c-0.2-0.1-0.3-0.1-0.3-0.1
				c0,0.1,0.3,0.2,0.7,0.2c0.8,0,1.8-0.2,2.7-0.4c1.9-0.5,3.8-1.3,5.7-2.2c1.9-0.9,3.7-1.9,5.5-2.9c3.6-2.1,7.2-4.3,10.7-6.6
				l5.3-3.4l2.6-1.7l1.3-0.9c0.4-0.3,0.9-0.5,1.8-0.1l0.2,0.3c0.1,1-0.3,1.5-0.7,1.8l-1.3,1c-0.8,0.6-1.7,1.3-2.6,1.9
				c-1.7,1.2-3.5,2.4-5.2,3.5c-3.5,2.3-7.1,4.5-10.8,6.6c-3.7,2.1-7.3,4.2-11.4,6.1c-1,0.4-2.1,0.9-3.4,1.2c-0.7,0.1-1.4,0.3-2.4,0
				c-0.5-0.1-1.1-0.4-1.7-0.9c-0.5-0.5-0.9-1.1-1.1-1.7c-0.3-1.2-0.2-2-0.1-2.7c0.1-0.7,0.3-1.4,0.5-2c0.4-1.2,0.8-2.3,1.3-3.3
				c1-2,2.2-3.9,3.5-5.6c1.3-1.7,2.6-3.4,3.9-5.1c2.7-3.3,5.5-6.5,8.1-9.8c1.3-1.7,2.6-3.3,3.9-5c1.4-1.6,2.6-3.1,4.1-4.8
				c2.9-3.2,5.9-6.1,9.1-9c3.1-2.9,6.4-5.7,9.9-8.2c1.7-1.3,3.5-2.5,5.4-3.7c1-0.6,1.9-1.1,3-1.6c0.5-0.2,1.1-0.4,1.7-0.6
				c0.6-0.1,1.3-0.3,2.2-0.2c0.5,0.1,1,0.3,1.4,0.6c0.4,0.3,0.7,0.7,0.8,1.2c0.3,0.9,0.2,1.7,0.1,2.3c-0.3,1.3-0.8,2.3-1.4,3.3
				c-1.1,1.9-2.4,3.7-3.7,5.4c-2.6,3.4-5.5,6.5-8.7,9.4c-1.6,1.5-3.2,2.9-4.8,4.2c-1.7,1.3-3.5,2.7-5.3,3.8
				c-1.8,1.2-3.7,2.3-5.5,3.3l-5.5,3.1l-11,6.2l-5.5,3.1c-1.9,1-3.5,2.3-5.9,2.5L72,110.8z"/>
		</g>
	</g>
</g>
</svg>
