<?xml version="1.0" encoding="utf-8"?>
<!-- Generator: Adobe Illustrator 22.1.0, SVG Export Plug-In . SVG Version: 6.00 Build 0)  -->
<svg version="1.1" xmlns="http://www.w3.org/2000/svg" xmlns:xlink="http://www.w3.org/1999/xlink" x="0px" y="0px"
	 viewBox="0 0 134.8 180" style="enable-background:new 0 0 134.8 180;" xml:space="preserve">
<style type="text/css">
	.st0{display:none;}
	.st1{display:inline;fill:#FF0000;}
</style>
<g id="bg" class="st0">
	<polygon class="st1" points="124.9,0 121.6,0 118.2,0 117.1,0 114.8,0 111.6,0 108.2,0 107.2,0 105,0 104.9,0 103.9,0 101.6,0 
		100.5,0 98.2,0 97.1,0 95,0 94,0 91.6,0 90.6,0 88.2,0 87.3,0 87.2,0 85,0 83.9,0 80.5,0 77.4,0 77.4,0 75,0 74,0 70.6,0 67.5,0 
		67.3,0 64.2,0 60.8,0 59.7,0 57.4,0 57.4,0 54.3,0 50.9,0 49.8,0 47.6,0 47.5,0 46.5,0 44.2,0 43.1,0 40.8,0 39.7,0 37.7,0 36.6,0 
		34.3,0 33.2,0 30.9,0 29.9,0 29.8,0 27.6,0 26.5,0 23.1,0 20,0 17.7,0 16.6,0 13.2,0 9.9,0 0,0 0,180 9.9,180 13.2,180 16.6,180 
		17.7,180 20,180 23.1,180 26.5,180 27.6,180 29.8,180 29.9,180 30.9,180 33.2,180 34.3,180 36.6,180 37.7,180 39.7,180 40.8,180 
		43.1,180 44.2,180 46.5,180 47.5,180 47.6,180 49.8,180 50.9,180 54.3,180 57.4,180 57.4,180 59.7,180 60.8,180 64.2,180 67.3,180 
		67.5,180 70.6,180 74,180 75,180 77.4,180 77.4,180 80.5,180 83.9,180 85,180 87.2,180 87.3,180 88.2,180 90.6,180 91.6,180 
		94,180 95,180 97.1,180 98.2,180 100.5,180 101.6,180 103.9,180 104.9,180 105,180 107.2,180 108.2,180 111.6,180 114.8,180 
		117.1,180 118.2,180 121.6,180 124.9,180 134.8,180 134.8,0 	"/>
</g>
<g id="figure">
	<g>
		<g>
			<g>
				<path d="M9.9,125.8c0.2-1.1,0.8-1.7,1.5-2.1l2-1.4c1.4-0.9,2.8-1.8,4.2-2.7c2.8-1.8,5.6-3.4,8.5-5c5.8-3.2,11.8-6,17.9-8.3
					c3.1-1.2,6.2-2.2,9.4-3.1c3.2-0.8,6.1-1.9,9-3.3c5.8-2.8,11.2-6.6,16.1-10.7c5-4.2,9.6-8.8,13.7-13.8c2.1-2.5,4.1-5.1,5.8-7.8
					c0.8-1.3,1.6-2.8,1.9-4.2c0.1-0.3,0.1-0.7,0-0.7c0,0,0,0,0,0.1c0,0,0,0.1,0.1,0.1c0,0,0,0,0,0c0,0.1,0.1,0.1,0,0.1
					c-0.2,0.1-0.9,0.3-1.5,0.8c-1.2,0.8-2.2,2.1-3.4,3.1c-1.2,1-2.4,2-3.6,3.1c-2.3,2.2-4.7,4.4-6.9,6.7C80.3,81.1,76,86,72.2,91.1
					l0,0l-0.1,0.2l-1.8,2.2l-1.9,2.3l-3.7,4.7l-7.3,9.5c-4.9,6.3-9.6,12.8-14.4,19.2l-14.3,19.2l-7.2,9.6l-3.6,4.8
					c-0.3,0.4-0.5,0.9-0.9,1.2c-0.4,0.4-0.9,0.6-1.4,0.8c-1.1,0.4-2.3,0.7-3.9,0.8l-0.8-0.6c-0.4-1.6-0.4-2.8-0.3-4
					c0.1-0.6,0.1-1.1,0.4-1.6c0.2-0.4,0.6-0.8,0.9-1.2l3.7-4.7l7.4-9.4l14.8-18.9l14.9-18.8l7.4-9.4l3.8-4.7l1.9-2.3l2-2.4l-0.2,0.2
					c4.1-5.4,8.5-10.3,13.2-15.1c2.4-2.4,4.8-4.7,7.4-6.8c1.3-1,2.6-2.1,4.1-3c1.5-0.9,3.1-1.5,4.9-2.2c0.4-0.1,0.9-0.3,1.4-0.4
					c0.5-0.1,1.1-0.2,1.8,0c0.4,0.1,0.8,0.3,1.1,0.6c0.1,0.1,0.2,0.2,0.2,0.3c0.1,0.1,0.2,0.2,0.2,0.4c0.1,0.2,0.2,0.5,0.2,0.7
					c0.1,0.8-0.1,1.2-0.3,1.7c-0.3,0.9-0.7,1.6-1.2,2.4c-0.4,0.7-0.8,1.5-1.3,2.2c-1.8,2.8-3.8,5.5-5.9,8c-4.2,5.1-8.9,9.7-14,14
					c-5,4.3-10.4,8.2-16.4,11.1c-1.5,0.7-3,1.4-4.6,2c-0.8,0.3-1.6,0.6-2.4,0.8l-2.4,0.7c-3.1,0.9-6.2,2-9.2,3.1
					c-6,2.4-11.9,5.2-17.6,8.3c-2.8,1.6-5.7,3.2-8.4,4.9c-1.4,0.9-2.8,1.7-4.1,2.6l-2,1.4c-0.6,0.5-1.4,0.9-2.5,0.7L9.9,125.8z"/>
			</g>
			<g>
				<path d="M44.5,122.1c-0.2,0.4-0.2,0.3-0.2,0.3c0,0,0,0,0-0.1c0-0.1-0.1,0-0.1,0c-0.1,0-0.2,0-0.2,0c-0.2,0-0.3,0-0.4,0
					c-0.3-0.1-0.5-0.2-0.8-0.3c-0.2-0.1-0.5-0.3-0.7-0.5c-0.2-0.2-0.3-0.5-0.5-0.6c-0.4-0.4-0.7-0.8-1.3-1c-0.1,0-0.2,0-0.3-0.1
					l-0.2-0.2c-0.1-0.2-0.2-0.3-0.3-0.5c-0.2-0.3-0.3-0.7-0.5-1c-0.4-1.4-0.3-2.7-0.1-3.8c0.1-0.3,0.1-0.6,0.2-0.8
					c0.1-0.1,0.1-0.2,0.2-0.4c0.1-0.1,0.2-0.2,0.4-0.3c0.3-0.2,0.6-0.3,0.9-0.5c0.2-0.1,0.3-0.2,0.5-0.2l0.6-0.2l0.9,0.4l0.3,0.5
					c0.1,0.2,0.1,0.3,0.1,0.5c0.1,0.3,0.2,0.6,0.3,0.9c0.1,0.2,0.1,0.3,0.1,0.4c0,0.1,0,0.2,0,0.3c-0.1,0.2-0.2,0.4-0.3,0.6
					c-0.4,0.7-0.8,1.5-1,2.1c0,0.1-0.1,0.3-0.1,0.4c0,0.1,0,0.1,0,0.2l0,0.1c0,0.1,0,0.2,0,0.2c0,0.6,0.5,0.8,0.8,1.1
					c0.2,0.2,0.4,0.2,0.6,0.3c0.2,0.1,0.4,0.3,0.5,0.4c0.2,0.2,0.3,0.3,0.5,0.5c0.1,0.1,0.2,0.2,0.2,0.3c0,0.1,0.1,0.1,0.1,0.2
					c0,0,0,0.1,0.1,0.1c0,0,0,0,0.1,0c0,0,0.1,0-0.1,0.3L44.5,122.1z"/>
			</g>
		</g>
		<g>
			<g>
				<path d="M40.2,116.6c0.5,0.5,0.7,1,0.9,1.4c0.2,0.5,0.4,0.9,0.7,1.3c0.5,0.8,1.3,1.3,2.2,1.5c1.8,0.5,4-0.2,6-1.1
					c4-1.9,7.7-4.6,11.2-7.5c7.1-5.8,14.1-11.9,21.1-17.8c7-5.9,14.1-11.9,20.8-18.3l5-4.7l5.1-4.7c1.7-1.6,3.4-3.1,5.3-4.5
					c1.8-1.4,3.7-2.7,5.9-3.7l0,0l1.2-0.5l-0.5,1.2c-1.2,3.3-3.2,6-5.3,8.6c-2,2.7-4.1,5.3-6.2,7.9c-4.2,5.2-8.4,10.4-12.7,15.5
					c-4.2,5.2-8.5,10.3-12.6,15.6c-2.1,2.6-4.1,5.3-6.3,7.8c-1.1,1.3-2.2,2.6-3.3,3.8c-0.6,0.6-1.1,1.3-1.8,1.9
					c-0.3,0.3-0.6,0.6-0.9,0.9l-0.5,0.5l-0.3,0.3l-0.2,0.2l-0.1,0.1l-0.2,0.1c-0.1,0.1-0.2,0.1-0.3,0.2l0.4-0.2
					c-0.3,0.2-0.7,0.4-1.1,0.5c-0.4,0.1-0.9,0.1-1.3,0.1c-0.5,0-0.9,0.1-1.4,0.1c-0.5,0-1-0.1-1.6-0.2l-0.2-0.2
					c0-0.6,0.1-1.1,0.2-1.6c0.1-0.5,0.3-0.9,0.4-1.3c0.1-0.4,0.3-0.9,0.4-1.3c0.2-0.4,0.4-0.7,0.7-0.9l0.4-0.2
					c-0.1,0-0.1,0.1-0.2,0.1c-0.1,0-0.1,0.1-0.1,0.1l0,0l0,0l0.2-0.2l0.4-0.4l0.8-0.9l1.7-1.8l3.4-3.6l6.8-7.3
					c4.6-4.9,8.9-9.9,13.2-15l12.9-15.3c2.2-2.5,4.4-5,6.6-7.5c2.2-2.5,4.4-5,7.4-6.9l0.7,0.7l0,0c-1.3,2-2.8,3.8-4.5,5.4
					c-1.6,1.7-3.4,3.2-5.1,4.6l-5.3,4.4l-5.4,4.3C97.6,83.9,90.7,90,83.7,96c-6.9,6.1-14,12-21.2,17.8c-3.6,2.9-7.4,5.8-11.7,7.8
					c-1.1,0.5-2.2,0.9-3.5,1.2c-1.2,0.2-2.5,0.4-3.9,0c-1.3-0.3-2.6-1.2-3.3-2.4c-0.4-0.6-0.6-1.2-0.7-1.9c-0.2-0.6-0.2-1.3,0.3-1.9
					L40.2,116.6z"/>
			</g>
			<g>
				<path d="M75.4,106.9c1.3,1.4,0.8,2.1,0.8,2.9c-0.1,0.8-0.2,1.6-0.3,2.2c0,0.3,0,0.5,0,0.5c-0.2-0.3,0.1,0.2,0.3,0.4
					c0.5,0.5,1,0.9,1.6,1.3c1.2,0.8,2.8,1.1,4.5,1c0.4,0,0.8,0,1.2-0.1c0.4,0,0.7-0.1,1.1-0.2c0.8-0.2,1.6-0.5,2.4-0.9
					c3.2-1.4,6.2-3.3,9.1-5.2l4.4-3c0.7-0.5,1.5-1,2.2-1.5l1.1-0.7c0.4-0.2,0.6-0.7,1.6,0l0.2,0.2c0.2,1.1-0.3,1.2-0.6,1.5l-1.1,0.8
					c-0.7,0.5-1.5,1-2.2,1.6c-1.5,1-3,2-4.5,2.9c-3.1,1.8-6.1,3.7-9.4,5.3c-0.8,0.4-1.7,0.8-2.6,1.1c-0.5,0.2-1,0.3-1.5,0.4
					c-0.5,0.1-0.9,0.2-1.4,0.2c-1.9,0.2-3.9,0.2-6-0.5c-1-0.3-2-0.8-2.9-1.6c-0.2-0.2-0.4-0.4-0.6-0.6l-0.1-0.1l-0.1-0.1l-0.1-0.2
					c-0.2-0.2-0.3-0.5-0.4-0.7c-0.4-0.9-0.4-1.5-0.4-2.1c0-1.2,0.2-2.2,0.6-3.1c0.4-0.9,0.5-1.9,2.5-2.1L75.4,106.9z"/>
			</g>
		</g>
	</g>
</g>
</svg>
