<?xml version="1.0" encoding="utf-8"?>
<!-- Generator: Adobe Illustrator 22.1.0, SVG Export Plug-In . SVG Version: 6.00 Build 0)  -->
<svg version="1.1" xmlns="http://www.w3.org/2000/svg" xmlns:xlink="http://www.w3.org/1999/xlink" x="0px" y="0px"
	 viewBox="0 0 95 180" style="enable-background:new 0 0 95 180;" xml:space="preserve">
<style type="text/css">
	.st0{display:none;}
	.st1{display:inline;fill:#FF0000;}
</style>
<g id="bg" class="st0">
	<polygon class="st1" points="91.4,0 90.4,0 90.1,0 87.8,0 86.8,0 86.5,0 85.7,0 85.5,0 85.2,0 83.1,0 82.9,0 82.1,0 81.9,0 81.6,0 
		81,0 80.9,0 80.6,0 78.5,0 78.3,0 78,0 77.4,0 77.2,0 77,0 76.4,0 76.1,0 76,0 75,0 73.8,0 73.6,0 73.4,0 72.8,0 72.5,0 72.4,0 
		71.8,0 71.5,0 71.4,0 71.3,0 70.4,0 70.1,0 69.1,0 68.9,0 68.7,0 68.1,0 67.9,0 67.8,0 67.6,0 66.9,0 66.8,0 66.6,0 66.5,0 65.7,0 
		65.5,0 65.2,0 64.5,0 64.3,0 64,0 63.3,0 63.1,0 63,0 62.9,0 62.1,0 62,0 61.9,0 61.6,0 61,0 60.9,0 60.6,0 60.2,0 59.6,0 59.4,0 
		58.5,0 58.4,0 58.3,0 58,0 57.4,0 57.2,0 57,0 56.6,0 56.4,0 56.1,0 56,0 55.6,0 55.4,0 54.8,0 53.8,0 53.6,0 53.4,0 53,0 52.8,0 
		52.5,0 52.4,0 52,0 51.8,0 51.7,0 51.5,0 51.3,0 51,0 50.7,0 50.5,0 49.1,0 48.9,0 48.7,0 48.4,0 48.1,0 48.1,0 47.9,0 47.6,0 
		47.4,0 47.1,0 46.9,0 46.9,0 46.6,0 46.3,0 46.1,0 45.9,0 44.5,0 44.3,0 44,0 43.7,0 43.5,0 43.3,0 43.3,0 43,0 42.6,0 42.5,0 
		42.2,0 42,0 41.6,0 41.4,0 41.2,0 40.2,0 39.6,0 39.4,0 39,0 38.9,0 38.6,0 38.4,0 38,0 37.8,0 37.6,0 37,0 36.7,0 36.6,0 36.5,0 
		35.6,0 35.4,0 34.8,0 34.4,0 34.1,0 34,0 33.4,0 33.1,0 33,0 32.9,0 32.1,0 32,0 31.9,0 31.7,0 31,0 30.7,0 30.5,0 29.8,0 29.5,0 
		29.3,0 28.5,0 28.4,0 28.3,0 28.1,0 27.4,0 27.2,0 27.1,0 26.9,0 26.3,0 26.1,0 25.9,0 24.9,0 24.6,0 23.7,0 23.6,0 23.5,0 23.3,0 
		22.6,0 22.5,0 22.2,0 21.6,0 21.4,0 21.2,0 20,0 19,0 18.9,0 18.6,0 18,0 17.8,0 17.6,0 17,0 16.7,0 16.5,0 14.4,0 14.1,0 14,0 
		13.4,0 13.1,0 12.9,0 12.1,0 11.9,0 9.8,0 9.5,0 9.3,0 8.5,0 8.3,0 7.2,0 4.9,0 4.6,0 3.6,0 0,0 0,180 3.6,180 4.6,180 4.9,180 
		7.2,180 8.3,180 8.5,180 9.3,180 9.5,180 9.8,180 11.9,180 12.1,180 12.9,180 13.1,180 13.4,180 14,180 14.1,180 14.4,180 
		16.5,180 16.7,180 17,180 17.6,180 17.8,180 18,180 18.6,180 18.9,180 19,180 20,180 21.2,180 21.4,180 21.6,180 22.2,180 
		22.5,180 22.6,180 23.3,180 23.5,180 23.6,180 23.7,180 24.6,180 24.9,180 25.9,180 26.1,180 26.3,180 26.9,180 27.1,180 27.2,180 
		27.4,180 28.1,180 28.3,180 28.4,180 28.5,180 29.3,180 29.5,180 29.8,180 30.5,180 30.7,180 31,180 31.7,180 31.9,180 32,180 
		32.1,180 32.9,180 33,180 33.1,180 33.4,180 34,180 34.1,180 34.4,180 34.8,180 35.4,180 35.6,180 36.5,180 36.6,180 36.7,180 
		37,180 37.6,180 37.8,180 38,180 38.4,180 38.6,180 38.9,180 39,180 39.4,180 39.6,180 40.2,180 41.2,180 41.4,180 41.6,180 
		42,180 42.2,180 42.5,180 42.6,180 43,180 43.3,180 43.3,180 43.5,180 43.7,180 44,180 44.3,180 44.5,180 45.9,180 46.1,180 
		46.3,180 46.6,180 46.9,180 46.9,180 47.1,180 47.4,180 47.6,180 47.9,180 48.1,180 48.1,180 48.4,180 48.7,180 48.9,180 49.1,180 
		50.5,180 50.7,180 51,180 51.3,180 51.5,180 51.7,180 51.8,180 52,180 52.4,180 52.5,180 52.8,180 53,180 53.4,180 53.6,180 
		53.8,180 54.8,180 55.4,180 55.6,180 56,180 56.1,180 56.4,180 56.6,180 57,180 57.2,180 57.4,180 58,180 58.3,180 58.4,180 
		58.5,180 59.4,180 59.6,180 60.2,180 60.6,180 60.9,180 61,180 61.6,180 61.9,180 62,180 62.1,180 62.9,180 63,180 63.1,180 
		63.3,180 64,180 64.3,180 64.5,180 65.2,180 65.5,180 65.7,180 66.5,180 66.6,180 66.8,180 66.9,180 67.6,180 67.8,180 67.9,180 
		68.1,180 68.7,180 68.9,180 69.1,180 70.1,180 70.4,180 71.3,180 71.4,180 71.5,180 71.8,180 72.4,180 72.5,180 72.8,180 73.4,180 
		73.6,180 73.8,180 75,180 76,180 76.1,180 76.4,180 77,180 77.2,180 77.4,180 78,180 78.3,180 78.5,180 80.6,180 80.9,180 81,180 
		81.6,180 81.9,180 82.1,180 82.9,180 83.1,180 85.2,180 85.5,180 85.7,180 86.5,180 86.8,180 87.8,180 90.1,180 90.4,180 91.4,180 
		95,180 95,0 	"/>
</g>
<g id="figure">
	<g>
		<g>
			<path d="M10,122c0-1.4,0.6-1.7,1.2-2l1.7-1l3.5-2c2.3-1.3,4.7-2.6,7-3.8c4.7-2.5,9.5-4.9,14.2-7.3c2.4-1.2,4.8-2.4,7.4-3.4
				c1.3-0.5,2.7-0.9,4.1-1c0.7-0.1,1.4-0.1,2.1-0.1l1,0l0.5,0l0.4,0c1.1,0,2.1-0.6,3.2-1.3c0.6-0.4,1.2-0.8,2.1-1
				c0.5-0.1,1,0.1,1.4,0.3c0.2,0.1,0.4,0.2,0.5,0.4c0.2,0.2,0.3,0.3,0.4,0.6c0.4,0.8,0.4,1.6,0.3,2.3c-0.1,0.7-0.2,1.4-0.4,2.1
				c-0.4,1.3-0.9,2.6-1.4,3.8l-0.9-0.4c0.5-1.2,1-2.4,1.3-3.7c0.2-0.6,0.2-1.3,0.3-1.9c0-0.6-0.1-1.2-0.3-1.6
				c-0.2-0.3-0.7-0.6-1-0.5c-0.4,0.1-0.9,0.4-1.4,0.8c-0.5,0.4-1.1,0.8-1.8,1.2c-0.7,0.3-1.4,0.6-2.2,0.7l-0.6,0l-0.5,0l-1,0
				c-0.6,0-1.3,0.1-1.9,0.2c-1.2,0.2-2.4,0.6-3.6,1c-2.4,1-4.7,2.2-7,3.5l-14,7.7c-2.3,1.3-4.7,2.5-7,3.7l-3.5,1.8l-1.8,0.9
				c-0.6,0.3-1.2,0.6-2.3-0.1L10,122z"/>
		</g>
		<g>
			<path d="M60.2,107.7c-0.1,0.8-0.6,1.4-1,1.9l-1.3,1.7c-0.9,1.1-1.8,2.2-2.8,3.2c-1.9,2.1-3.9,4.1-6.1,6c-1.1,0.9-2.2,1.8-3.6,2.6
				c-0.7,0.4-1.4,0.7-2.2,1c-0.4,0.1-0.9,0.2-1.3,0.2c-0.5,0-1.1-0.2-1.4-0.3c-0.8-0.3-1.8-0.9-2.3-1.8c-0.6-0.9-0.7-2-0.7-2.9
				c0-1.8,0.3-3.4,0.7-5c0.5-1.5,1.1-2.9,1.9-4.1c0.8-1.3,1.7-2.4,2.5-3.5c2.2-2.6,4.9-4.2,7.5-5.6c1.3-0.7,2.7-1.3,4.1-1.9
				c0.7-0.3,1.4-0.5,2.3-0.7c0.4-0.1,0.8-0.2,1.3-0.2c0.5,0,1.1-0.1,2,0.4c0.4,0.2,0.7,0.6,0.9,1c0.2,0.3,0.3,0.7,0.3,0.9
				c0.1,0.6,0.1,1,0.1,1.4c-0.1,0.8-0.2,1.6-0.4,2.3c-0.1,0.7-0.3,1.4-0.5,2c-0.1,0.6-0.3,1.3-0.3,1.7c0,0.1,0,0.1,0,0.1
				c0,0,0,0,0,0c0,0,0,0-0.1-0.1c0,0-0.1-0.1-0.2-0.1c-0.2-0.1-0.3-0.1-0.3-0.1c0,0,0.4,0,0.6-0.1c0.6-0.2,1.2-0.5,1.8-0.8
				c1.2-0.6,2.4-1.4,3.6-2.1c2.3-1.5,4.6-3.2,7-4.7c0.3-0.2,0.6-0.4,0.9-0.5c0.3-0.2,0.7-0.3,1-0.4c0.2-0.1,0.4-0.1,0.5-0.2l0.3-0.1
				c0.1,0,0.1,0,0.2-0.1c0,0,0.1,0,0.2,0c0.1,0,0.2,0,0.3,0.1c0.1,0,0.2,0.4,0.2,0.5c0,0.1,0,0.2,0,0.2c0,0.1-0.1,0.2-0.1,0.2
				c-0.1,0.1-0.1,0.2-0.2,0.3l-0.3,0.5c-0.4,0.7-0.7,1.4-1.1,1.9c-0.4,0.6-0.9,1.1-1.3,1.7c-1.8,2.2-3.6,4.3-5.5,6.4
				c-3.8,4.1-7.5,8.2-10.8,12.6c-0.8,1.1-1.6,2.2-2.3,3.3c-0.4,0.6-0.7,1.1-1.1,1.7c-0.3,0.6-0.6,1.1-1,1.8c-1.4,2.5-2.9,5-4.5,7.4
				c-1.6,2.4-3.4,4.7-5.3,6.9c-0.9,1.1-1.9,2.2-2.7,3.1l-0.3,0.4c-0.2,0.2-0.3,0.4-0.5,0.5c-0.3,0.3-0.6,0.6-0.8,0.9
				c-0.6,0.5-1.1,1-1.7,1.5c-4.6,3.6-9.3,6.8-14.3,9.7c-1.3,0.7-2.6,1.4-4.1,1.9c-0.7,0.2-1.5,0.5-2.4,0.5c-0.5,0-1,0-1.6-0.2
				c-0.3-0.1-0.6-0.3-0.9-0.6c-0.2-0.2-0.4-0.5-0.5-0.7c-0.5-1.1-0.4-2-0.2-2.8c0.2-0.8,0.4-1.5,0.7-2.2c0.6-1.4,1.3-2.6,2.1-3.9
				c1.5-2.4,3.3-4.7,5.2-6.8c1.9-2.2,3.8-4.2,5.9-6.2c2.2-1.9,4.3-3.7,6.6-5.4c1.1-0.9,2.3-1.7,3.5-2.5c1.2-0.8,2.5-1.5,3.7-2.1
				c2.5-1.4,4.9-2.7,7.4-4.1c2.4-1.4,4.8-2.8,7.3-4.2c4.8-2.8,9.7-5.7,14.6-8.5c2.5-1.4,4.9-2.7,7.5-4l3.8-1.9l1.9-0.9
				c0.3-0.2,0.6-0.3,1-0.4c0.4-0.1,0.7-0.3,1.3,0.2l0.1,0.2c0,0.8-0.4,0.9-0.6,1.1c-0.3,0.2-0.6,0.4-0.9,0.5c-0.6,0.3-1.2,0.7-1.8,1
				l-3.6,2.2c-2.4,1.4-4.9,2.9-7.3,4.2c-4.8,2.8-9.6,5.7-14.5,8.6c-4.8,2.9-9.8,5.6-14.7,8.3c-2.5,1.3-4.8,2.7-7,4.3
				c-1.1,0.8-2.2,1.7-3.3,2.5c-1.1,0.9-2.2,1.7-3.2,2.6c-4.2,3.6-7.9,7.8-10.9,12.4c-0.7,1.2-1.4,2.4-1.8,3.6
				c-0.2,0.6-0.4,1.2-0.5,1.8c-0.1,0.6,0,1.1,0.1,1.3c0,0.1,0.1,0.1,0.1,0.1c0,0,0,0,0,0c0,0,0.2,0,0.5,0c0.5-0.1,1.1-0.3,1.6-0.5
				c1.1-0.5,2.3-1.2,3.4-2c2.2-1.5,4.4-3.3,6.4-5.2c2-1.8,4-3.8,5.9-5.8c0.5-0.5,0.9-1,1.3-1.5c0.2-0.2,0.4-0.5,0.6-0.7l0.6-0.7
				c1-1.2,2-2.2,2.9-3.2c1.8-2,3.5-4.1,5.1-6.3c1.6-2.2,3.1-4.5,4.6-6.8l1.2-1.8c0.4-0.6,0.8-1.2,1.3-1.8c0.9-1.2,1.8-2.3,2.7-3.4
				c3.7-4.4,7.7-8.5,11.8-12.4c2-2,4.2-3.8,6.4-5.5c0.6-0.4,1.1-0.9,1.6-1.3c0.6-0.4,1.2-0.7,1.8-1.1c0.1-0.1,0.3-0.2,0.4-0.3
				c0.1,0,0.1-0.1,0.1-0.1c0,0,0,0,0,0c0,0,0,0.1,0,0.1c0,0,0.1,0.3,0.2,0.3c0.1,0.1,0.2,0.1,0.2,0.1c0,0,0.1,0,0,0c0,0,0,0,0,0
				c-0.1,0-0.1,0.1-0.2,0.1c-0.1,0.1-0.3,0.2-0.4,0.3c-0.3,0.2-0.5,0.5-0.8,0.7c-0.3,0.2-0.6,0.4-0.9,0.6c-2.3,1.6-4.6,3.1-7,4.7
				c-1.2,0.8-2.4,1.6-3.6,2.3c-0.6,0.4-1.2,0.8-1.9,1.1c-0.4,0.2-0.7,0.4-1.4,0.4c-0.2,0-0.4,0-0.8-0.2c-0.1,0-0.2-0.1-0.3-0.2
				c-0.1-0.1-0.2-0.1-0.2-0.2c-0.1-0.1-0.1-0.2-0.2-0.2c-0.2-0.3-0.3-0.6-0.4-0.9c-0.2-1-0.1-1.8-0.1-2.5c0.1-0.7,0.2-1.4,0.3-2.1
				c0.1-0.7,0.2-1.3,0.2-1.9c0-0.3,0-0.5,0-0.6c0-0.1,0-0.1,0,0c0,0.1,0.1,0.1,0.2,0.2c0.3,0.1,0.1,0-0.1,0.1
				c-0.2,0-0.5,0.1-0.7,0.2c-0.6,0.2-1.1,0.4-1.7,0.7c-1.1,0.6-2.2,1.3-3.2,2.2c-2,1.7-3.7,3.8-4.9,5.7c-1.5,2.3-2.9,4.6-4.5,6.6
				c-0.8,1-1.6,2-2,3c-0.2,0.5-0.3,0.9-0.3,1.3c0,0.3,0.2,0.7,0.7,0.9c0.7,0.4,1.9,0,3-0.6c1.1-0.6,2.2-1.4,3.3-2.3
				c2.1-1.8,4-3.8,5.9-5.8c0.9-1,1.9-2.1,2.8-3.1l1.4-1.6c0.4-0.5,0.9-1.1,1.6-1.4L60.2,107.7z"/>
		</g>
	</g>
</g>
</svg>
