<?xml version="1.0" encoding="utf-8"?>
<!-- Generator: Adobe Illustrator 22.1.0, SVG Export Plug-In . SVG Version: 6.00 Build 0)  -->
<svg version="1.1" xmlns="http://www.w3.org/2000/svg" xmlns:xlink="http://www.w3.org/1999/xlink" x="0px" y="0px"
	 viewBox="0 0 126.3 180" style="enable-background:new 0 0 126.3 180;" xml:space="preserve">
<style type="text/css">
	.st0{display:none;}
	.st1{display:inline;fill:#FF0000;}
</style>
<g id="bg" class="st0">
	<polygon class="st1" points="120,0 118.3,0 117.8,0 113.7,0 112,0 111.5,0 110.2,0 109.8,0 109.3,0 106.3,0 105.6,0 105.2,0 
		103.9,0 103.5,0 103,0 101.7,0 101.3,0 100,0 98.3,0 97.8,0 97.6,0 97.1,0 96.7,0 95.4,0 95,0 93.7,0 93.2,0 92,0 91.5,0 90.2,0 
		89.8,0 89.3,0 89.1,0 88.6,0 86.9,0 85.6,0 85.2,0 83.9,0 83.5,0 83,0 81.7,0 81.3,0 80.6,0 77.6,0 77.1,0 76.7,0 75.4,0 75,0 
		73.2,0 69.1,0 68.6,0 66.9,0 65.8,0 60.6,0 59.4,0 57.7,0 57.3,0 53.1,0 51.4,0 50.9,0 49.6,0 49.2,0 48.8,0 45.8,0 45.1,0 44.6,0 
		43.3,0 42.9,0 42.4,0 41.1,0 40.7,0 39.4,0 37.7,0 37.3,0 37,0 36.6,0 36.1,0 34.8,0 34.4,0 33.1,0 32.6,0 31.4,0 30.9,0 29.6,0 
		29.2,0 28.8,0 28.5,0 28.1,0 26.3,0 25.1,0 24.6,0 23.3,0 22.9,0 22.4,0 21.1,0 20.7,0 20,0 17,0 16.6,0 16.1,0 14.8,0 14.4,0 
		12.6,0 8.5,0 8.1,0 6.3,0 0,0 0,180 6.3,180 8.1,180 8.5,180 12.6,180 14.4,180 14.8,180 16.1,180 16.6,180 17,180 20,180 
		20.7,180 21.1,180 22.4,180 22.9,180 23.3,180 24.6,180 25.1,180 26.3,180 28.1,180 28.5,180 28.8,180 29.2,180 29.6,180 30.9,180 
		31.4,180 32.6,180 33.1,180 34.4,180 34.8,180 36.1,180 36.6,180 37,180 37.3,180 37.7,180 39.4,180 40.7,180 41.1,180 42.4,180 
		42.9,180 43.3,180 44.6,180 45.1,180 45.8,180 48.8,180 49.2,180 49.6,180 50.9,180 51.4,180 53.1,180 57.3,180 57.7,180 59.4,180 
		60.6,180 65.8,180 66.9,180 68.6,180 69.1,180 73.2,180 75,180 75.4,180 76.7,180 77.1,180 77.6,180 80.6,180 81.3,180 81.7,180 
		83,180 83.5,180 83.9,180 85.2,180 85.6,180 86.9,180 88.6,180 89.1,180 89.3,180 89.8,180 90.2,180 91.5,180 92,180 93.2,180 
		93.7,180 95,180 95.4,180 96.7,180 97.1,180 97.6,180 97.8,180 98.3,180 100,180 101.3,180 101.7,180 103,180 103.5,180 103.9,180 
		105.2,180 105.6,180 106.3,180 109.3,180 109.8,180 110.2,180 111.5,180 112,180 113.7,180 117.8,180 118.3,180 120,180 126.3,180 
		126.3,0 	"/>
</g>
<g id="figure">
	<g>
		<g>
			<path d="M100.5,103.9c-0.4,1.2-1.2,1.7-2.1,2.2c-0.8,0.5-1.6,1.1-2.5,1.6c-1.7,1.1-3.4,2-5.1,2.9c-3.5,1.9-7.1,3.5-10.7,5.1
				c-3.6,1.6-7.2,3.2-10.8,4.7c-3.6,1.5-7.3,2.9-10.9,4.3c-7.2,2.8-14.4,6-21.3,9.6c-3.4,1.8-6.8,3.8-10,5.9c-3.2,2.2-6.3,4.5-9,7.2
				c-1.4,1.4-2.6,2.8-3.8,4.3c-1.2,1.5-2.3,3.1-2.9,4.7c-0.3,0.8-0.4,1.6-0.3,2.1c0.1,0.2,0.2,0.3,0.3,0.4c0.2,0.1,0.5,0.2,0.8,0.2
				c0.4,0,0.7,0,1.2-0.1c0.4-0.1,0.9-0.2,1.3-0.3l1.3-0.4l1.3-0.4c3.5-1.3,6.8-3.3,9.8-5.7c3-2.4,5.8-5,8.4-7.7
				c2.6-2.8,5.3-5.6,8-8.4l8.1-8.4c2.7-2.8,5.4-5.6,8.2-8.4c2.7-2.8,5.4-5.6,8.2-8.4l-0.2,0.2c1.9-2.2,3.8-4.5,5.7-6.7
				c1.9-2.2,3.9-4.4,5.8-6.6c4-4.3,8-8.5,12.1-12.8c4-4.3,8.1-8.5,11.8-13c1.9-2.2,3.8-4.4,5.7-6.7c1-1.1,1.9-2.2,3-3.2
				c1.1-1,1.7-2.4,3.7-2.6l0.8,0.6l0,0c-2,3.5-4.5,6.6-7.2,9.6c-1.4,1.5-2.9,2.9-4.4,4.2c-1.6,1.3-3.3,2.5-5.4,3.2
				c-2,0.8-4.2,1.3-6.7,1c-1.2-0.2-2.4-0.7-3.4-1.5c-1-0.8-1.7-1.9-2.2-3.1c-0.9-2.3-1.2-4.8-1-7c0.1-1.1,0.4-2.2,0.8-3.2
				c0.2-0.5,0.3-1,0.9-1.4c0.3-0.2,0.6-0.3,1.1-0.3l0.4,0l0.4,0c0.3,0,0.7,0,1.1,0.1l0.9,0.5c0.3,0.3,0.6,0.5,0.7,0.8l0.3,0.3
				l0.2,0.3c0.3,0.4,0.4,0.7,0.5,1c0.2,0.6-0.1,0.9-0.3,1.3c-0.3,0.8-0.7,1.6-1.1,2.4c-0.8,1.5-1.8,3.1-1.8,4.6
				c0,0.7,0.2,1.4,0.7,1.9c0.5,0.5,1.2,0.8,1.9,0.8c1.5,0.1,3.1-0.8,4.6-1.8c1.5-1,3-2.1,4.5-3.1c1.5-1.1,3-2.3,4.5-3.5
				c3-2.4,5.9-5,8.9-7.5l0,0l0.8,0.6c0.1,2-1.1,2.9-1.9,4.1c-0.9,1.2-1.8,2.3-2.7,3.5c-1.9,2.3-3.7,4.5-5.6,6.8
				c-3.8,4.5-7.3,9.2-10.8,13.8c-3.5,4.7-7,9.4-10.6,14c-1.8,2.3-3.6,4.6-5.5,6.9c-1.8,2.3-3.7,4.5-5.6,6.8l-0.1,0.1l-0.1,0.1
				c-2.7,2.8-5.5,5.5-8.3,8.3c-2.8,2.8-5.6,5.5-8.4,8.2c-2.8,2.7-5.7,5.4-8.5,8.1c-2.9,2.7-5.7,5.4-8.9,7.8c-3.2,2.5-6.5,4.7-10,6.7
				c-3.5,2-7.1,3.8-11,5.1l-1.5,0.4l-1.5,0.4c-0.5,0.1-1,0.2-1.5,0.3c-0.5,0.1-1.1,0.1-1.8,0.1c-0.6-0.1-1.3-0.2-2-0.6
				c-0.7-0.4-1.2-1.2-1.4-1.9c-0.2-0.7-0.1-1.4,0-2c0.1-0.6,0.3-1.1,0.5-1.6c0.9-2,2.1-3.6,3.3-5.2c1.3-1.6,2.6-3,4.1-4.4
				c5.8-5.6,12.6-9.8,19.5-13.5c6.9-3.7,14.1-6.9,21.4-9.9c3.7-1.4,7.3-2.8,10.9-4.3c3.6-1.5,7.1-3.1,10.7-4.7
				c3.6-1.6,7.1-3.3,10.5-5.1c1.7-0.9,3.4-1.9,5.1-2.8l2.5-1.4c0.8-0.5,1.6-1.1,2.9-0.9L100.5,103.9z"/>
		</g>
		<g>
			<path d="M91.1,67.1c-0.1-1.2,0-2.3,0.3-3.3l0.3-1.3c0.1-0.3,0.1-0.7,0.1-0.5c0,0.1,0.2,0.5,0.4,0.6c0.2,0.2,0.3,0.1,0.2,0.1
				c-0.1,0-0.4,0-0.9,0c-0.8,0-1.6,0.2-2.4,0.4c-3.1,0.8-6.3,2.1-9.3,3.7c-3,1.6-5.9,3.4-8.8,5.4c-1.4,1-2.9,2-4.2,3
				c-1.3,1-2.6,2.1-3.9,3.2l0,0c-3.4,3.2-6.6,6.7-9.7,10.3c-3.1,3.6-6,7.4-8.9,11.2l-4.3,5.7c-0.7,0.9-1.4,1.8-2,2.8
				c-0.7,0.9-1.3,1.9-1.9,2.8c-1.1,1.9-2.1,3.9-2.2,5.6c0,0.8,0.1,1.4,0.6,2c0.5,0.6,1.4,0.9,2.5,1.1l0.1,0c1.3,0.3,2.9,0,4.4-0.6
				c1.5-0.6,3-1.4,4.5-2.4c2.9-1.9,5.7-3.9,8.4-6.1c5.4-4.4,10.6-9.1,15.5-14.1c2.5-2.5,4.8-5.1,7.1-7.7c1.1-1.3,2.3-2.7,3.3-4
				c1.1-1.5,2.3-2.7,3.3-4.1c2.1-2.7,4-5.6,5.4-8.7c0.7-1.5,1.3-3.1,1.7-4.7c0.1-0.4,0.2-0.8,0.3-1.2c0.1-0.4,0.1-0.8,0.2-1.2
				c0.1-0.4,0.1-0.8,0.1-1.1c0-0.2,0-0.4,0-0.5c0-0.1,0-0.4,0-0.4l4.1-0.6c0,0.5,0,0.7,0,1c0,0.3,0,0.5-0.1,0.8
				c-0.1,0.5-0.1,1-0.2,1.5c-0.1,0.5-0.2,1-0.3,1.4c-0.1,0.5-0.3,0.9-0.4,1.4c-0.6,1.8-1.3,3.5-2.2,5.1c-1.7,3.3-3.8,6.2-6.1,9
				c-1.1,1.4-2.4,2.7-3.4,4c-1.1,1.4-2.3,2.8-3.4,4.1c-2.3,2.7-4.7,5.3-7.2,7.9c-4.9,5.1-10,10.1-15.6,14.6
				c-2.8,2.2-5.7,4.4-8.9,6.1c-1.6,0.9-3.3,1.7-5,2.3c-1.8,0.6-3.6,1.3-5.9,1l0.1,0c-1.4-0.1-2.9-0.4-4.4-1.3
				c-0.7-0.5-1.4-1.1-1.8-1.9c-0.5-0.8-0.7-1.6-0.9-2.4c-0.3-1.6-0.2-3.1,0-4.5c0.2-1.4,0.6-2.7,1-4c0.4-1.3,0.9-2.5,1.5-3.7
				c0.6-1.2,1.2-2.3,1.8-3.5c1.3-2.2,2.7-4.3,4.2-6.3c3-4,6.2-7.9,9.7-11.5c1.7-1.8,3.5-3.6,5.4-5.2c1.9-1.7,3.8-3.3,5.9-4.8l0,0
				c1.5-1.1,3-2.2,4.5-3.2c0.8-0.5,1.6-1,2.3-1.4l2.3-1.4c3.1-1.8,6.2-3.5,9.5-5.1c3.3-1.5,6.7-2.8,10.5-3.5
				c0.9-0.2,1.9-0.3,2.9-0.4c0.4,0,1-0.1,1.8,0c0.4,0.1,0.9,0.2,1.5,0.6c0.6,0.4,1,1.2,1.1,1.7c0.2,1.1,0,1.5-0.1,2.1
				c-0.1,0.5-0.2,0.9-0.2,1.3c-0.1,0.8-0.2,1.4,0,1.9L91.1,67.1z"/>
		</g>
	</g>
</g>
</svg>
