<?xml version="1.0" encoding="utf-8"?>
<!-- Generator: Adobe Illustrator 22.1.0, SVG Export Plug-In . SVG Version: 6.00 Build 0)  -->
<svg version="1.1" xmlns="http://www.w3.org/2000/svg" xmlns:xlink="http://www.w3.org/1999/xlink" x="0px" y="0px"
	 viewBox="0 0 116.6 180" style="enable-background:new 0 0 116.6 180;" xml:space="preserve">
<style type="text/css">
	.st0{display:none;}
	.st1{display:inline;fill:#FF0000;}
</style>
<g id="bg" class="st0">
	<polygon class="st1" points="111.9,0 110.6,0 110.3,0 107.3,0 106,0 105.7,0 104.7,0 104.4,0 104,0 101.3,0 101,0 100,0 99.7,0 
		99.4,0 98.6,0 98.4,0 98.1,0 96.6,0 95.3,0 95,0 94.7,0 93.9,0 93.7,0 93.4,0 92.6,0 92.3,0 92.1,0 91.9,0 90.6,0 90.3,0 89.2,0 
		89.1,0 88.7,0 88,0 87.6,0 87.5,0 87.3,0 86.7,0 86.3,0 86,0 86,0 85.7,0 84.7,0 84.4,0 84,0 83.3,0 83,0 82.8,0 82,0 81.7,0 
		81.4,0 81.3,0 81,0 80.4,0 80.1,0 80,0 79.7,0 79.4,0 78.6,0 78.4,0 78.1,0 77.3,0 77,0 76.7,0 75.7,0 75.4,0 75.3,0 75,0 74.7,0 
		74.1,0 73.9,0 73.7,0 73.4,0 72.6,0 72.3,0 72.1,0 71.8,0 71,0 70.7,0 69.4,0 69.2,0 69.1,0 68.7,0 68,0 67.6,0 67.5,0 67.2,0 
		66.7,0 66.3,0 66,0 65.9,0 65.6,0 64.8,0 63.3,0 63,0 62.8,0 62.5,0 62,0 61.7,0 61.4,0 61.2,0 60.9,0 60.4,0 60.1,0 59.9,0 
		59.6,0 59.3,0 57.3,0 57,0 56.7,0 56.5,0 56.2,0 55.7,0 55.4,0 55.3,0 54.9,0 54.6,0 54.1,0 53.8,0 53.6,0 53.3,0 51.8,0 51,0 
		50.7,0 50.6,0 50.3,0 49.9,0 49.4,0 49.1,0 49,0 48.7,0 47.9,0 47.5,0 47.4,0 47.2,0 45.9,0 45.6,0 44.8,0 44.5,0 44.3,0 44,0 
		43.2,0 42.9,0 42.7,0 42.5,0 41.9,0 41.6,0 41.3,0 41.2,0 40.9,0 39.9,0 39.6,0 39.3,0 38.5,0 38.2,0 38,0 37.2,0 36.9,0 36.6,0 
		36.5,0 36.2,0 35.6,0 35.3,0 35.3,0 34.9,0 34.6,0 33.8,0 33.6,0 33.3,0 32.6,0 32.2,0 31.9,0 30.9,0 30.6,0 30.6,0 30.3,0 29.9,0 
		29.3,0 29.1,0 29,0 28.7,0 27.9,0 27.5,0 27.4,0 26.3,0 26,0 24.7,0 24.5,0 24.3,0 24,0 23.2,0 22.9,0 22.7,0 21.9,0 21.6,0 
		21.3,0 20,0 18.5,0 18.2,0 18,0 17.2,0 16.9,0 16.6,0 15.6,0 15.3,0 12.6,0 12.2,0 11.9,0 10.9,0 10.6,0 9.3,0 6.3,0 6,0 4.7,0 
		0,0 0,180 4.7,180 6,180 6.3,180 9.3,180 10.6,180 10.9,180 11.9,180 12.2,180 12.6,180 15.3,180 15.6,180 16.6,180 16.9,180 
		17.2,180 18,180 18.2,180 18.5,180 20,180 21.3,180 21.6,180 21.9,180 22.7,180 22.9,180 23.2,180 24,180 24.3,180 24.5,180 
		24.7,180 26,180 26.3,180 27.4,180 27.5,180 27.9,180 28.7,180 29,180 29.1,180 29.3,180 29.9,180 30.3,180 30.6,180 30.6,180 
		30.9,180 31.9,180 32.2,180 32.6,180 33.3,180 33.6,180 33.8,180 34.6,180 34.9,180 35.3,180 35.3,180 35.6,180 36.2,180 36.5,180 
		36.6,180 36.9,180 37.2,180 38,180 38.2,180 38.5,180 39.3,180 39.6,180 39.9,180 40.9,180 41.2,180 41.3,180 41.6,180 41.9,180 
		42.5,180 42.7,180 42.9,180 43.2,180 44,180 44.3,180 44.5,180 44.8,180 45.6,180 45.9,180 47.2,180 47.4,180 47.5,180 47.9,180 
		48.7,180 49,180 49.1,180 49.4,180 49.9,180 50.3,180 50.6,180 50.7,180 51,180 51.8,180 53.3,180 53.6,180 53.8,180 54.1,180 
		54.6,180 54.9,180 55.3,180 55.4,180 55.7,180 56.2,180 56.5,180 56.7,180 57,180 57.3,180 59.3,180 59.6,180 59.9,180 60.1,180 
		60.4,180 60.9,180 61.2,180 61.4,180 61.7,180 62,180 62.5,180 62.8,180 63,180 63.3,180 64.8,180 65.6,180 65.9,180 66,180 
		66.3,180 66.7,180 67.2,180 67.5,180 67.6,180 68,180 68.7,180 69.1,180 69.2,180 69.4,180 70.7,180 71,180 71.8,180 72.1,180 
		72.3,180 72.6,180 73.4,180 73.7,180 73.9,180 74.1,180 74.7,180 75,180 75.3,180 75.4,180 75.7,180 76.7,180 77,180 77.3,180 
		78.1,180 78.4,180 78.6,180 79.4,180 79.7,180 80,180 80.1,180 80.4,180 81,180 81.3,180 81.4,180 81.7,180 82,180 82.8,180 
		83,180 83.3,180 84,180 84.4,180 84.7,180 85.7,180 86,180 86,180 86.3,180 86.7,180 87.3,180 87.5,180 87.6,180 88,180 88.7,180 
		89.1,180 89.2,180 90.3,180 90.6,180 91.9,180 92.1,180 92.3,180 92.6,180 93.4,180 93.7,180 93.9,180 94.7,180 95,180 95.3,180 
		96.6,180 98.1,180 98.4,180 98.6,180 99.4,180 99.7,180 100,180 101,180 101.3,180 104,180 104.4,180 104.7,180 105.7,180 106,180 
		107.3,180 110.3,180 110.6,180 111.9,180 116.6,180 116.6,0 	"/>
</g>
<g id="figure">
	<g>
		<path d="M18.7,122.6c0.2-1.6,1-2.1,1.8-2.5l2.4-1.2l4.8-2.5l9.6-5c6.4-3.4,12.8-6.7,19.2-10.1c6.4-3.4,12.7-6.9,18.9-10.6
			c1.5-0.9,3.1-1.8,4.6-2.8l2.3-1.4l2.2-1.5c2.9-2,5.7-4.3,8.4-6.7c2.7-2.4,5.2-4.9,7.4-7.6c1.1-1.4,2.2-2.8,3.1-4.2
			c0.5-0.7,0.9-1.5,1.2-2.2c0.3-0.7,0.6-1.5,0.6-2.2c0-0.3,0-0.6-0.1-0.6c0,0,0,0.1-0.1,0.1c-0.1,0-0.4,0-0.7,0.1
			c-0.3,0.1-0.6,0.2-1,0.4c-1.4,0.7-2.8,1.8-4.1,2.9c-2.7,2.3-5.2,4.7-7.8,7.1c-5.2,4.6-9.8,9.9-14.2,15.4c-2.1,2.8-4.2,5.6-6.1,8.5
			c-1.9,3-3.8,6-5.7,9.1c-3.8,6.2-7.8,12.3-11.8,18.4c-2,3-4.1,6-6.2,9c-2.2,3-4.5,6-7,8.7c-5,5.5-10.7,10.5-17.4,14.2
			c-1.7,0.9-3.4,1.7-5.3,2.4c-0.9,0.3-1.9,0.6-2.9,0.8c-1,0.2-2.1,0.4-3.4,0.2c-0.6-0.1-1.5-0.3-2.2-1c-0.4-0.3-0.6-0.8-0.8-1.3
			c-0.2-0.6-0.2-1-0.1-1.3c0.2-1.4,0.6-2.2,1.1-3.1c0.9-1.8,2-3.3,3.1-4.8c2.3-3,4.9-5.6,7.6-8.1c2.7-2.5,5.6-4.8,8.6-6.9
			c3-2.1,6.1-4.1,9.2-6c1.6-0.9,3.2-1.8,4.8-2.7l4.8-2.5c6.4-3.3,12.7-6.8,19-10.3l9.5-5.3l4.7-2.7l2.3-1.3c0.4-0.2,0.7-0.5,1.2-0.6
			c0.5-0.1,1,0,1.8,0.4l0.2,0.3c0,0.9-0.2,1.4-0.5,1.8c-0.3,0.4-0.7,0.5-1.1,0.8l-2.3,1.4l-4.7,2.8c-3.1,1.8-6.3,3.6-9.5,5.4
			c-6.3,3.5-12.8,6.8-19.2,10.1l-4.9,2.4c-1.6,0.8-3.2,1.6-4.7,2.5c-3.1,1.7-6.2,3.6-9.1,5.7c-5.8,4.1-11.2,8.9-15.4,14.5
			c-1,1.4-2,2.9-2.6,4.4c-0.3,0.7-0.6,1.6-0.6,2c0,0.1,0,0.1,0,0c0,0,0-0.1-0.1-0.1c-0.1-0.1,0,0,0.3,0c0.5,0,1.3-0.1,2-0.3
			c0.7-0.2,1.5-0.5,2.3-0.9c1.5-0.7,3-1.6,4.4-2.6c5.7-3.9,10.7-8.9,15.2-14.2c2.2-2.7,4.3-5.5,6.2-8.4l5.9-9
			c4-6,7.7-12.1,11.4-18.3c1.9-3.1,3.7-6.2,5.7-9.3c2-3.1,4.2-6.2,6.5-9.1c4.6-5.8,9.8-11.2,15.8-15.9c2.9-2.2,6-4.3,9.4-6
			c1.7-0.9,3.4-1.7,5.4-2.3c0.5-0.1,1-0.3,1.6-0.3c0.6-0.1,1.3-0.1,2,0.1c0.8,0.2,1.6,0.8,2,1.7c0.3,0.8,0.3,1.5,0.2,2.1
			c-0.2,1.2-0.6,2.1-1,3c-0.4,0.9-0.9,1.7-1.4,2.5c-1,1.6-2.2,3-3.4,4.5c-2.4,2.8-5,5.4-7.8,7.8c-5.4,4.9-11.5,9.1-17.7,12.9
			c-6.2,3.8-12.5,7.4-18.8,11c-6.3,3.6-12.7,7-19.1,10.4c-3.2,1.7-6.4,3.4-9.7,5l-4.8,2.4l-2.4,1.2c-0.8,0.5-1.6,0.8-3,0L18.7,122.6
			z"/>
	</g>
</g>
</svg>
