<?xml version="1.0" encoding="utf-8"?>
<!-- Generator: Adobe Illustrator 22.1.0, SVG Export Plug-In . SVG Version: 6.00 Build 0)  -->
<svg version="1.1" xmlns="http://www.w3.org/2000/svg" xmlns:xlink="http://www.w3.org/1999/xlink" x="0px" y="0px"
	 viewBox="0 0 79.9 180" style="enable-background:new 0 0 79.9 180;" xml:space="preserve">
<style type="text/css">
	.st0{display:none;}
	.st1{display:inline;fill:#FF0000;}
</style>
<g id="bg" class="st0">
	<polygon class="st1" points="77,0 76.2,0 76,0 74.1,0 73.3,0 73.1,0 72.5,0 72.3,0 72.1,0 70.4,0 70.2,0 69.6,0 69.4,0 69.2,0 
		68.7,0 68.6,0 68.4,0 66.7,0 66.5,0 66.3,0 65.8,0 65.7,0 65.5,0 65,0 64.8,0 64.7,0 62.9,0 62.8,0 62.6,0 62.1,0 61.9,0 61.8,0 
		61.3,0 61.1,0 60.9,0 59.9,0 59.2,0 59,0 58.9,0 58.4,0 58.2,0 58,0 57.4,0 57.2,0 57,0 56.2,0 56,0 55.5,0 55.3,0 55.2,0 54.5,0 
		54.3,0 54.1,0 53.5,0 53.3,0 53.1,0 52.5,0 52.3,0 52.1,0 52.1,0 51.7,0 51.5,0 50.7,0 50.4,0 50.2,0 49.6,0 49.4,0 49.3,0 49.2,0 
		48.7,0 48.6,0 48.4,0 48.4,0 48.3,0 47.8,0 46.7,0 46.5,0 46.4,0 46.3,0 45.8,0 45.7,0 45.6,0 45.5,0 45.4,0 45,0 44.8,0 44.8,0 
		44.7,0 44.6,0 44.4,0 42.9,0 42.8,0 42.7,0 42.6,0 42.5,0 42.1,0 41.9,0 41.9,0 41.8,0 41.7,0 41.5,0 41.3,0 41.1,0 41,0 40.9,0 
		40.9,0 40.7,0 39.2,0 39,0 39,0 38.9,0 38.8,0 38.6,0 38.4,0 38.2,0 38.1,0 38,0 38,0 37.8,0 37.4,0 37.3,0 37.2,0 37.1,0 37,0 
		35.5,0 35.3,0 35.2,0 35.2,0 35.1,0 34.9,0 34.5,0 34.4,0 34.3,0 34.2,0 34.1,0 33.6,0 33.5,0 33.4,0 33.2,0 32.1,0 31.7,0 31.5,0 
		31.5,0 31.3,0 31.2,0 30.7,0 30.7,0 30.5,0 30.3,0 29.7,0 29.5,0 29.3,0 28.4,0 28.3,0 27.8,0 27.8,0 27.6,0 27.4,0 26.8,0 26.6,0 
		26.4,0 25.8,0 25.6,0 25.4,0 24.8,0 24.6,0 24.4,0 23.9,0 23.7,0 22.9,0 22.7,0 22.5,0 21.9,0 21.7,0 21.5,0 21,0 20.9,0 20.7,0 
		20,0 19,0 18.8,0 18.6,0 18.1,0 18,0 17.8,0 17.3,0 17.1,0 17,0 15.2,0 15.1,0 14.9,0 14.4,0 14.2,0 14.1,0 13.6,0 13.4,0 13.2,0 
		11.5,0 11.3,0 11.2,0 10.7,0 10.5,0 10.3,0 9.7,0 9.5,0 7.8,0 7.6,0 7.4,0 6.8,0 6.6,0 5.8,0 3.9,0 3.7,0 2.9,0 0,0 0,180 2.9,180 
		3.7,180 3.9,180 5.8,180 6.6,180 6.8,180 7.4,180 7.6,180 7.8,180 9.5,180 9.7,180 10.3,180 10.5,180 10.7,180 11.2,180 11.3,180 
		11.5,180 13.2,180 13.4,180 13.6,180 14.1,180 14.2,180 14.4,180 14.9,180 15.1,180 15.2,180 17,180 17.1,180 17.3,180 17.8,180 
		18,180 18.1,180 18.6,180 18.8,180 19,180 20,180 20.7,180 20.9,180 21,180 21.5,180 21.7,180 21.9,180 22.5,180 22.7,180 
		22.9,180 23.7,180 23.9,180 24.4,180 24.6,180 24.8,180 25.4,180 25.6,180 25.8,180 26.4,180 26.6,180 26.8,180 27.4,180 27.6,180 
		27.8,180 27.8,180 28.3,180 28.4,180 29.3,180 29.5,180 29.7,180 30.3,180 30.5,180 30.7,180 30.7,180 31.2,180 31.3,180 31.5,180 
		31.5,180 31.7,180 32.1,180 33.2,180 33.4,180 33.5,180 33.6,180 34.1,180 34.2,180 34.3,180 34.4,180 34.5,180 34.9,180 35.1,180 
		35.2,180 35.2,180 35.3,180 35.5,180 37,180 37.1,180 37.2,180 37.3,180 37.4,180 37.8,180 38,180 38,180 38.1,180 38.2,180 
		38.4,180 38.6,180 38.8,180 38.9,180 39,180 39,180 39.2,180 40.7,180 40.9,180 40.9,180 41,180 41.1,180 41.3,180 41.5,180 
		41.7,180 41.8,180 41.9,180 41.9,180 42.1,180 42.5,180 42.6,180 42.7,180 42.8,180 42.9,180 44.4,180 44.6,180 44.7,180 44.8,180 
		44.8,180 45,180 45.4,180 45.5,180 45.6,180 45.7,180 45.8,180 46.3,180 46.4,180 46.5,180 46.7,180 47.8,180 48.3,180 48.4,180 
		48.4,180 48.6,180 48.7,180 49.2,180 49.3,180 49.4,180 49.6,180 50.2,180 50.4,180 50.7,180 51.5,180 51.7,180 52.1,180 52.1,180 
		52.3,180 52.5,180 53.1,180 53.3,180 53.5,180 54.1,180 54.3,180 54.5,180 55.2,180 55.3,180 55.5,180 56,180 56.2,180 57,180 
		57.2,180 57.4,180 58,180 58.2,180 58.4,180 58.9,180 59,180 59.2,180 59.9,180 60.9,180 61.1,180 61.3,180 61.8,180 61.9,180 
		62.1,180 62.6,180 62.8,180 62.9,180 64.7,180 64.8,180 65,180 65.5,180 65.7,180 65.8,180 66.3,180 66.5,180 66.7,180 68.4,180 
		68.6,180 68.7,180 69.2,180 69.4,180 69.6,180 70.2,180 70.4,180 72.1,180 72.3,180 72.5,180 73.1,180 73.3,180 74.1,180 76,180 
		76.2,180 77,180 79.9,180 79.9,0 	"/>
</g>
<g id="figure">
	<g>
		<g>
			<path d="M10,122.7c0.1-1.1,0.5-1.7,0.9-2.1c0.5-0.4,1-0.6,1.5-0.9l3.1-1.8l6.2-3.6c4.1-2.4,8.3-4.7,12.5-7l3.2-1.7
				c1.1-0.6,2-1.1,3.1-1.7l6.2-3.5l6.3-3.5c1-0.6,2.1-1.1,3.3-1.4c1.2-0.4,2.4-0.6,3.8-0.6l0,0l0,0l0,0c0.4,1.5,0.1,2.3-0.4,2.9
				c-0.4,0.7-0.9,1.4-1.4,2c-1,1.3-2.1,2.4-3.1,3.6c-2.1,2.4-4,5-6.1,7.3c-1.1,1.2-2.2,2.3-3.3,3.4c-1.1,1.1-2.2,2.3-3.4,3.3
				c-1.2,1.1-2.4,2.1-3.6,3.1c-0.6,0.5-1.3,1-1.9,1.4c-0.3,0.2-0.7,0.4-1.2,0.5c-0.5,0.1-1.1,0.1-1.8-0.1l0,0l0,0
				c0.7-2,2.2-2.8,3.5-3.9c1.3-1,2.7-1.9,4.1-2.8c2.8-1.7,5.7-3.3,8.6-4.9c2.9-1.6,5.8-3.1,8.7-4.6c1.5-0.8,3-1.5,4.4-2.2l2.2-1.1
				c0.8-0.3,1.4-0.9,2.6-0.4l0.1,0.1c-0.2,1.4-1,1.6-1.6,2.1l-2.1,1.4c-1.4,0.9-2.7,1.8-4.1,2.7c-2.8,1.8-5.6,3.5-8.4,5.2
				c-2.8,1.7-5.6,3.4-8.5,5c-1.4,0.8-2.9,1.5-4.5,2.1c-1.6,0.6-3,1.5-5.1,1.1l0,0l0,0c-0.2-0.7-0.3-1.3-0.2-1.8
				c0-0.5,0.2-0.9,0.4-1.3c0.4-0.7,0.9-1.4,1.3-2c0.9-1.3,1.9-2.6,2.9-3.8c1-1.2,2.1-2.4,3.2-3.5c1.1-1.2,2.2-2.3,3.3-3.4
				c2.3-2.2,4.7-4.3,7-6.4c1.1-1.1,2.2-2.3,3.5-3.3c0.6-0.5,1.2-1,1.9-1.5c0.6-0.5,1.4-0.8,2.9-0.5l0,0l0,0c-0.7,1.2-1.5,2.2-2.4,3
				c-0.9,0.8-1.8,1.6-2.9,2.2l-6.1,3.8c-2.1,1.2-4.1,2.5-6.2,3.7c-1,0.6-2.2,1.2-3.2,1.8l-3.2,1.7c-4.2,2.2-8.5,4.4-12.7,6.6
				l-6.4,3.2l-3.2,1.6c-0.5,0.2-1,0.6-1.6,0.7C11.7,123.2,11,123.2,10,122.7z"/>
		</g>
		<circle cx="66.9" cy="83.2" r="3.2"/>
	</g>
</g>
</svg>
