<?xml version="1.0" encoding="utf-8"?>
<!-- Generator: Adobe Illustrator 22.1.0, SVG Export Plug-In . SVG Version: 6.00 Build 0)  -->
<svg version="1.1" xmlns="http://www.w3.org/2000/svg" xmlns:xlink="http://www.w3.org/1999/xlink" x="0px" y="0px"
	 viewBox="0 0 103 180" style="enable-background:new 0 0 103 180;" xml:space="preserve">
<style type="text/css">
	.st0{display:none;}
	.st1{display:inline;fill:#FF0000;}
</style>
<g id="bg" class="st0">
	<polygon class="st1" points="98.1,0 96.7,0 96.4,0 93.2,0 91.8,0 91.5,0 90.4,0 90.1,0 89.8,0 86.9,0 86.5,0 85.5,0 85.2,0 84.8,0 
		83.8,0 83.5,0 83,0 80.6,0 80.2,0 79.9,0 78.9,0 78.5,0 78.1,0 77.2,0 76.7,0 76.4,0 73.9,0 73.6,0 73.2,0 72.2,0 71.8,0 71.5,0 
		70.4,0 70.1,0 69.8,0 67.3,0 66.9,0 66.5,0 65.5,0 65.2,0 64.8,0 63.8,0 63.5,0 60.6,0 60.2,0 59.9,0 58.9,0 58.5,0 57.2,0 55.7,0 
		53.9,0 53.6,0 52.2,0 50.8,0 49.4,0 49.1,0 47.3,0 45.9,0 44.5,0 44.2,0 43.1,0 42.8,0 42.5,0 39.6,0 39.2,0 38.2,0 37.9,0 37.5,0 
		36.5,0 36.2,0 35.7,0 33.3,0 32.9,0 32.6,0 31.6,0 31.2,0 30.8,0 29.9,0 29.4,0 29.1,0 26.6,0 26.3,0 25.9,0 24.9,0 24.5,0 24.2,0 
		23.1,0 22.8,0 22.5,0 20,0 19.6,0 19.2,0 18.2,0 17.9,0 17.5,0 16.5,0 16.2,0 13.3,0 12.9,0 12.6,0 11.6,0 11.2,0 9.9,0 6.6,0 
		6.3,0 4.9,0 0,0 0,180 4.9,180 6.3,180 6.6,180 9.9,180 11.2,180 11.6,180 12.6,180 12.9,180 13.3,180 16.2,180 16.5,180 17.5,180 
		17.9,180 18.2,180 19.2,180 19.6,180 20,180 22.5,180 22.8,180 23.1,180 24.2,180 24.5,180 24.9,180 25.9,180 26.3,180 26.6,180 
		29.1,180 29.4,180 29.9,180 30.8,180 31.2,180 31.6,180 32.6,180 32.9,180 33.3,180 35.7,180 36.2,180 36.5,180 37.5,180 37.9,180 
		38.2,180 39.2,180 39.6,180 42.5,180 42.8,180 43.1,180 44.2,180 44.5,180 45.9,180 47.3,180 49.1,180 49.4,180 50.8,180 52.2,180 
		53.6,180 53.9,180 55.7,180 57.2,180 58.5,180 58.9,180 59.9,180 60.2,180 60.6,180 63.5,180 63.8,180 64.8,180 65.2,180 65.5,180 
		66.5,180 66.9,180 67.3,180 69.8,180 70.1,180 70.4,180 71.5,180 71.8,180 72.2,180 73.2,180 73.6,180 73.9,180 76.4,180 76.7,180 
		77.2,180 78.1,180 78.5,180 78.9,180 79.9,180 80.2,180 80.6,180 83,180 83.5,180 83.8,180 84.8,180 85.2,180 85.5,180 86.5,180 
		86.9,180 89.8,180 90.1,180 90.4,180 91.5,180 91.8,180 93.2,180 96.4,180 96.7,180 98.1,180 103,180 103,0 	"/>
</g>
<g id="figure">
	<g>
		<g>
			<path d="M18.6,103.4c0.1,0.7,0.1,1.2,0.1,1.6c0,0.5-0.1,0.8-0.2,1.1c-0.2,0.6-0.6,1-1,1.5c-0.7,0.9-1.6,1.6-2.4,2.4
				c-0.4,0.4-0.8,0.8-1.2,1.2c-0.4,0.4-0.7,0.9-1,1.3c-0.8,1-1.2,1.6-1.2,2.5c0,0.8,0.6,1.6,1.4,2.3c0.8,0.7,1.9,1.2,3,1.6
				c1.1,0.4,2.3,0.7,3.5,0.9c1.2,0.1,2.4,0.2,3.5,0c4.7-0.5,9.2-3,13-6.1c1.9-1.5,3.7-3.3,5.4-5.1c1.7-1.8,3.3-3.6,4.9-5.5
				c1.6-1.9,3.2-3.8,4.7-5.7c0.8-1,1.6-1.9,2.3-2.9c0.7-0.9,1.4-2,2.2-3.1c1.5-2.1,3-4.2,4.6-6.3c1.7-2.1,3.5-4,5.2-5.9l2.6-2.9
				l1.4-1.5l1.4-1.4c1.9-1.8,3.9-3.5,6-5.1c2.1-1.6,4.2-3.1,6.3-4.6c2.1-1.5,4.3-2.9,6.5-4.4l1.3,2.2c-4.5,2.4-8.7,5.3-12.6,8.6
				c-1.9,1.7-3.8,3.4-5.4,5.3l-1.2,1.4l-1.1,1.5c-0.7,1-1.4,2.2-2.1,3.2c-1.4,2.2-2.9,4.3-4.1,6.4c-1.2,2.2-2.5,4.4-3.8,6.6
				c-0.6,1.1-1.2,2.2-1.9,3.4c-0.7,1.2-1.4,2.3-2.2,3.4c-1.5,2.2-3.2,4.3-5,6.3c-1.8,2-3.8,3.8-5.9,5.5c-1.1,0.8-2.2,1.6-3.3,2.4
				c-1.1,0.8-2.3,1.5-3.4,2.2c-2.4,1.4-4.8,2.5-7.4,3.4c-2.6,0.9-5.3,1.5-8.1,1.6c-1.4,0-2.8-0.1-4.2-0.3c-1.3-0.2-2.6-0.6-4-1
				c-1.3-0.5-2.6-1-3.8-1.9c-1.2-0.9-2.3-2.2-2.8-3.9c-0.2-0.9-0.3-1.8-0.2-2.6c0-0.4,0.1-0.9,0.2-1.2c0.1-0.4,0.1-0.7,0.2-1.1
				c0.2-0.7,0.5-1.4,0.8-2.1c0.3-0.7,0.6-1.3,1-2c0.7-1.3,1.6-2.5,2.8-3.4c0.3-0.2,0.6-0.4,0.9-0.6c0.3-0.2,0.6-0.4,1-0.4
				c0.4-0.1,0.8-0.1,1.3-0.1c0.5,0,1,0.2,1.6,0.5L18.6,103.4z"/>
		</g>
		<g>
			<path d="M89.6,59.3c0.5-0.4,1.1-0.8,1.8-1c0.4-0.1,0.8-0.2,1.5-0.1c0.3,0.1,0.7,0.2,1.1,0.6c0.4,0.3,0.5,0.8,0.6,1.2
				c0.1,0.8-0.1,1.2-0.2,1.6c-0.2,0.4-0.3,0.7-0.5,1c-0.4,0.6-0.8,1-1.2,1.5c-1.7,1.7-3.7,2.9-5.7,4c-1,0.5-2,1-2.9,1.5L81,70.9
				c-2,0.9-3.9,1.9-6,2.8c-2,0.9-4.1,1.6-6.3,2.3c-2.2,0.6-4.4,1-6.9,0.8c-0.6,0-1.3-0.1-2-0.3c-0.7-0.2-1.6-0.6-2.1-1.5
				c-0.6-0.9-0.7-1.9-0.6-2.7c0.1-0.8,0.3-1.4,0.5-2c0.9-2.4,2.2-4.2,3.2-5.9c0.2-0.4,0.4-0.8,0.6-1.1c0.1-0.1,0.1-0.2,0.1-0.2
				c0,0.1,0.1,0.3,0.3,0.4c0.1,0.1,0.2,0,0.1,0l-0.7-0.2c-0.5-0.2-1-0.3-1.5-0.4c-2-0.5-4.1-0.4-6.2-0.1c-4.1,0.6-8.2,2.2-11.9,4.2
				c-3.8,2-7.3,4.6-10.6,7.3c-1.7,1.4-3.3,2.8-4.8,4.3c-1.5,1.5-3.1,3.1-4.4,4.7L21,82.8c2.9-3.3,6-6.3,9.3-9.2
				c3.3-2.9,6.8-5.5,10.6-7.8c3.8-2.3,7.9-4.1,12.3-5c2.2-0.5,4.5-0.5,6.8-0.6c0.6,0,1.2,0,1.8,0.1l0.9,0.1c0.4,0.1,1,0.2,1.5,0.7
				c0.6,0.5,0.9,1.3,1,1.9c0.1,0.6,0,1.1-0.1,1.4c-0.2,0.8-0.4,1.4-0.7,1.9c-1,2.1-2.3,3.9-3.1,5.5c-0.2,0.4-0.3,0.8-0.4,1.1
				c-0.1,0.3-0.1,0.4-0.1,0.5c0,0.1,0,0.3,0.3,0.5c0.3,0.2,0.7,0.4,1.2,0.6c0.5,0.1,0.9,0.2,1.4,0.2l0.7,0l0.8-0.1
				c1-0.1,2-0.4,3-0.7c2-0.6,3.9-1.5,5.8-2.5c1.9-1,3.8-2,5.6-3.1l2.8-1.6l2.8-1.5c1.8-1,3.6-2.1,5-3.4c0.4-0.3,0.7-0.6,0.9-0.9
				c0.1-0.2,0.2-0.3,0.3-0.4c0.1-0.1,0.1-0.2,0.1,0c0,0.1,0.1,0.3,0.2,0.5c0.2,0.1,0.3,0.2,0.4,0.2c0.1,0,0,0-0.1,0
				c-0.3,0-0.7,0.2-1.1,0.4L89.6,59.3z"/>
		</g>
		<g>
			<path d="M38.2,92.2c0.4-0.8,0.8-0.8,1.2-0.8l1.2,0l2.3-0.1c1.5-0.1,3.1,0,4.6,0l9.2,0.2l9.2,0.2l4.6,0.2l2.3,0.1l1.2,0.1
				c0.4,0.1,0.8-0.1,1.1,0.6l0,0.5c-0.4,0.7-0.8,0.5-1.2,0.6l-1.2,0L70.5,94l-4.6,0l-9.2-0.1l-9.2-0.2c-1.5-0.1-3.1-0.1-4.6-0.2
				l-2.3-0.2l-1.2-0.1c-0.4,0-0.8,0-1.1-0.8L38.2,92.2z"/>
		</g>
	</g>
</g>
</svg>
