<?xml version="1.0" encoding="utf-8"?>
<!-- Generator: Adobe Illustrator 22.1.0, SVG Export Plug-In . SVG Version: 6.00 Build 0)  -->
<svg version="1.1" xmlns="http://www.w3.org/2000/svg" xmlns:xlink="http://www.w3.org/1999/xlink" x="0px" y="0px"
	 viewBox="0 0 137.3 180" style="enable-background:new 0 0 137.3 180;" xml:space="preserve">
<style type="text/css">
	.st0{display:none;}
	.st1{display:inline;fill:#FF0000;}
</style>
<g id="bg" class="st0">
	<polygon class="st1" points="130.3,0 128.4,0 127.9,0 123.4,0 121.4,0 121,0 119.5,0 119,0 118.6,0 117.3,0 114.5,0 114,0 112.5,0 
		112.1,0 111.6,0 110.3,0 110.1,0 109.7,0 108.4,0 107.9,0 105.6,0 105.1,0 104.6,0 103.4,0 103.2,0 102.7,0 101.4,0 101,0 100.8,0 
		99.5,0 99,0 98.6,0 96.2,0 95.7,0 94.5,0 94,0 93.8,0 92.5,0 92.1,0 91.6,0 90.1,0 89.7,0 86.8,0 85.6,0 85.1,0 84.6,0 83.2,0 
		82.7,0 80.8,0 76.2,0 75.7,0 73.8,0 70.5,0 66.8,0 63.5,0 61.6,0 61.1,0 56.5,0 54.6,0 54.1,0 52.7,0 52.2,0 51.7,0 50.5,0 47.6,0 
		47.2,0 45.7,0 45.2,0 44.8,0 43.5,0 43.3,0 42.8,0 41.6,0 41.1,0 38.8,0 38.3,0 37.8,0 36.5,0 36.3,0 35.9,0 34.6,0 34.1,0 33.9,0 
		32.7,0 32.2,0 31.7,0 29.4,0 28.9,0 27.6,0 27.2,0 27,0 25.7,0 25.2,0 24.8,0 23.3,0 22.8,0 20,0 18.8,0 18.3,0 17.8,0 16.3,0 
		15.9,0 13.9,0 9.4,0 8.9,0 7,0 0,0 0,180 7,180 8.9,180 9.4,180 13.9,180 15.9,180 16.3,180 17.8,180 18.3,180 18.8,180 20,180 
		22.8,180 23.3,180 24.8,180 25.2,180 25.7,180 27,180 27.2,180 27.6,180 28.9,180 29.4,180 31.7,180 32.2,180 32.7,180 33.9,180 
		34.1,180 34.6,180 35.9,180 36.3,180 36.5,180 37.8,180 38.3,180 38.8,180 41.1,180 41.6,180 42.8,180 43.3,180 43.5,180 44.8,180 
		45.2,180 45.7,180 47.2,180 47.6,180 50.5,180 51.7,180 52.2,180 52.7,180 54.1,180 54.6,180 56.5,180 61.1,180 61.6,180 63.5,180 
		66.8,180 70.5,180 73.8,180 75.7,180 76.2,180 80.8,180 82.7,180 83.2,180 84.6,180 85.1,180 85.6,180 86.8,180 89.7,180 90.1,180 
		91.6,180 92.1,180 92.5,180 93.8,180 94,180 94.5,180 95.7,180 96.2,180 98.6,180 99,180 99.5,180 100.8,180 101,180 101.4,180 
		102.7,180 103.2,180 103.4,180 104.6,180 105.1,180 105.6,180 107.9,180 108.4,180 109.7,180 110.1,180 110.3,180 111.6,180 
		112.1,180 112.5,180 114,180 114.5,180 117.3,180 118.6,180 119,180 119.5,180 121,180 121.4,180 123.4,180 127.9,180 128.4,180 
		130.3,180 137.3,180 137.3,0 	"/>
</g>
<g id="figure">
	<g>
		<g>
			<path d="M105.2,101c0.1,0.7,0,1.2-0.2,1.6c-0.2,0.4-0.4,0.7-0.7,0.9l-1.8,1.2c-1.2,0.8-2.4,1.6-3.6,2.3c-2.4,1.5-4.9,3-7.4,4.3
				c-2.5,1.3-5.1,2.6-7.7,3.8c-2.7,1.1-5.3,2.1-7.9,3.2c-5.2,2.1-10.5,4.2-15.7,6.3c-2.6,1.1-5.2,2.1-7.8,3.3
				c-1.3,0.6-2.6,1.1-3.8,1.7c-0.7,0.3-1.2,0.6-1.9,0.9c-0.7,0.3-1.3,0.6-2,0.9c-5.2,2.2-10.2,4.6-15,7.5c-4.7,2.9-9.2,6.3-13,10.2
				c-1,1-1.9,2-2.8,3c-0.8,1-1.6,2.1-2.1,3.2c-0.5,1.1-0.6,2.2-0.2,2.7c0.3,0.5,1.4,0.8,2.6,0.7c2.4-0.2,5.1-1.2,7.5-2.3
				c2.5-1.2,4.8-2.6,7.1-4.2c4.6-3.2,8.8-6.8,12.7-10.9c3.9-4,7.5-8.3,11.3-12.3c1.9-2,3.8-4.2,5.6-6.3c1.8-2.1,3.7-4.1,5-6.1
				c0.7-1,1.5-2.3,2.3-3.5c0.8-1.2,1.7-2.4,2.6-3.5c1.8-2.3,3.6-4.5,5.4-6.7c6.9-9.1,15.1-17.1,23.5-24.9c4.2-3.9,8.5-7.7,13-11.2
				c2.3-1.8,4.5-3.5,6.9-5.1c1.2-0.8,2.4-1.6,3.6-2.4c1.3-0.7,2.4-1.5,3.9-2.2l1.5,3.3c-1.1,0.5-2.4,1.2-3.5,1.9
				c-1.2,0.7-2.3,1.5-3.5,2.3c-2.3,1.6-4.5,3.3-6.6,5c-4.3,3.6-8.4,7.4-12.2,11.4C92.6,89.2,85.9,98.2,79,107
				c-0.8,1.1-1.7,2.2-2.5,3.3c-0.8,1.1-1.6,2.3-2.4,3.4c-0.8,1.1-1.5,2.3-2.2,3.4l-2.2,3.6c-0.9,1.4-1.9,2.6-2.9,3.7
				c-1,1.1-2,2.2-3,3.2c-2,2-4.1,4-6.1,6c-4.1,4-8.5,7.7-13.1,11.1c-4.6,3.4-9.2,6.8-14.1,9.9c-2.4,1.6-4.9,3-7.5,4.3
				c-2.6,1.2-5.4,2.4-8.6,2.6c-0.8,0-1.7,0-2.6-0.2c-0.9-0.2-1.9-0.8-2.5-1.7c-0.7-0.9-0.8-2.1-0.7-3c0.1-0.9,0.3-1.7,0.7-2.5
				c0.6-1.5,1.5-2.8,2.5-3.9c0.9-1.1,1.9-2.2,2.9-3.2c8.1-8.3,18.4-14,28.8-18.5c0.6-0.3,1.3-0.6,1.8-0.9c0.6-0.3,1.3-0.7,1.9-1
				c1.3-0.7,2.6-1.3,3.9-1.8c2.6-1.2,5.2-2.3,7.8-3.4c5.2-2.2,10.4-4.4,15.7-6.5c2.6-1,5.3-2.1,7.8-3.1c2.5-1.1,5.1-2.3,7.5-3.6
				c2.5-1.3,4.9-2.6,7.3-4.1c1.2-0.7,2.4-1.4,3.6-2.2l1.8-1.1c0.3-0.2,0.6-0.3,1-0.3c0.4,0,0.9,0.1,1.5,0.4L105.2,101z"/>
		</g>
		<g>
			<path d="M122.5,58.7c0.4-0.4,0.9-0.8,1.4-1.1c0.5-0.3,1.1-0.6,2-0.7c0.4,0,1-0.1,1.6,0.2c0.6,0.2,1.3,0.9,1.5,1.6
				c0.2,0.7,0.2,1.2,0.1,1.6c-0.1,0.4-0.2,0.8-0.3,1.1c-0.5,1.3-1.2,2.2-1.9,3.1c-0.7,0.8-1.5,1.6-2.3,2.3c-1.6,1.4-3.3,2.6-5,3.7
				l-2.5,1.5l-2.5,1.5c-3.4,2-7,4-10.8,5.5c-1,0.4-1.9,0.7-2.9,1c-1,0.3-2,0.5-3,0.7c-2.1,0.4-4.2,0.5-6.4,0.5l0.1,0
				c-1,0-2.1,0-3.2-0.2c-0.6-0.1-1.2-0.3-1.9-0.6c-0.6-0.3-1.4-0.8-1.9-1.6c-0.6-0.8-0.9-1.8-0.9-2.6c-0.1-0.8,0-1.6,0.2-2.2
				c0.3-1.3,0.7-2.3,1.2-3.3c0.8-1.9,1.9-3.5,3-4.9c0.5-0.7,1-1.3,1.3-1.9c0.2-0.3,0.3-0.5,0.3-0.6c0.1-0.1,0.1-0.1,0.2-0.2
				c0,0,0-0.2-0.2-0.3c-0.2-0.1-0.5-0.3-0.8-0.4c-0.7-0.2-1.6-0.3-2.3-0.4c-1.6-0.1-3.5,0.1-5.2,0.4c-1.8,0.3-3.5,0.9-5.2,1.5
				c-1.7,0.6-3.4,1.4-5,2.3c-3.3,1.7-6.4,3.7-9.5,5.9c-3,2.2-5.9,4.6-8.7,7.2c-2.7,2.6-5.4,5.3-8,7.9l-3.9,4l-2,2
				c-0.3,0.3-0.7,0.6-1.2,0.8c-0.5,0.2-1.1,0.3-1.9,0.2l-0.1-0.1c-0.2-0.8-0.2-1.4-0.1-1.9c0.1-0.5,0.3-1,0.7-1.3l1.9-2.2
				c1.2-1.5,2.6-2.9,3.9-4.2c2.7-2.7,5.6-5.3,8.5-7.8c5.9-4.9,11.9-9.7,18.8-13.4c3.4-1.8,7.1-3.4,11-4.4c2-0.5,3.9-0.8,6.1-0.9
				c1.1,0,2.2,0.1,3.3,0.4c0.6,0.2,1.2,0.3,1.8,0.6c0.6,0.3,1.3,0.8,1.9,1.5c0.6,0.7,0.9,1.7,1,2.5c0.1,0.8,0,1.6-0.1,2.2
				c-0.2,1.3-0.7,2.3-1.1,3.3c-0.9,1.9-1.9,3.5-3,4.9c-0.5,0.7-0.9,1.4-1.2,1.9l-0.3,0.6c-0.1,0.1-0.1,0.1-0.2,0.1
				c-0.2,0.1,0.2,0.6,0.9,0.9c0.7,0.3,1.5,0.6,2.4,0.7l0.1,0c1.7,0.6,3.6,0.5,5.4,0.2c1.8-0.4,3.6-1,5.3-1.9
				c3.4-1.7,6.4-4.1,9.7-6.4c0.8-0.6,1.6-1.1,2.5-1.7c0.8-0.5,1.7-1.1,2.5-1.6c1.6-1,3.2-2,4.6-3.2c0.7-0.6,1.4-1.1,2-1.7
				c0.6-0.6,1.2-1.3,1.5-1.8c0.2-0.2,0.1-0.5,0.2-0.1c0.1,0.2,0.4,0.5,0.5,0.5c0.2,0.1,0.2,0,0.1,0c-0.1,0-0.5,0-0.8,0.1
				c-0.3,0.1-0.7,0.3-1.1,0.5L122.5,58.7z"/>
		</g>
	</g>
</g>
</svg>
