<?xml version="1.0" encoding="utf-8"?>
<!-- Generator: Adobe Illustrator 22.1.0, SVG Export Plug-In . SVG Version: 6.00 Build 0)  -->
<svg version="1.1" xmlns="http://www.w3.org/2000/svg" xmlns:xlink="http://www.w3.org/1999/xlink" x="0px" y="0px"
	 viewBox="0 0 142.5 180" style="enable-background:new 0 0 142.5 180;" xml:space="preserve">
<style type="text/css">
	.st0{display:none;}
	.st1{display:inline;fill:#FF0000;}
</style>
<g id="bg" class="st0">
	<polygon class="st1" points="135.2,0 133.2,0 132.7,0 127.9,0 125.9,0 125.4,0 123.9,0 123.4,0 122.9,0 122.5,0 118.6,0 118.2,0 
		116.6,0 116.1,0 115.6,0 115.2,0 114.1,0 113.6,0 113.2,0 112.7,0 109.4,0 108.9,0 108.4,0 107.9,0 106.8,0 106.3,0 105.9,0 
		105.4,0 104.3,0 103.9,0 103.4,0 102.9,0 99.6,0 99.1,0 98.6,0 98.2,0 97.1,0 96.6,0 96.1,0 95.6,0 94.1,0 93.6,0 89.8,0 89.4,0 
		88.9,0 88.4,0 86.8,0 86.3,0 84.3,0 79.6,0 79.1,0 77.1,0 72.7,0 69.8,0 65.4,0 63.4,0 62.9,0 58.2,0 56.1,0 55.6,0 54.1,0 53.6,0 
		53.1,0 52.7,0 48.9,0 48.4,0 46.9,0 46.4,0 45.9,0 45.4,0 44.3,0 43.8,0 43.4,0 42.9,0 39.6,0 39.1,0 38.6,0 38.2,0 37.1,0 36.6,0 
		36.1,0 35.6,0 34.5,0 34.1,0 33.6,0 33.1,0 29.8,0 29.3,0 28.9,0 28.4,0 27.3,0 26.9,0 26.4,0 25.9,0 24.3,0 23.8,0 20,0 19.6,0 
		19.1,0 18.6,0 17.1,0 16.6,0 14.5,0 9.8,0 9.3,0 7.3,0 0,0 0,180 7.3,180 9.3,180 9.8,180 14.5,180 16.6,180 17.1,180 18.6,180 
		19.1,180 19.6,180 20,180 23.8,180 24.3,180 25.9,180 26.4,180 26.9,180 27.3,180 28.4,180 28.9,180 29.3,180 29.8,180 33.1,180 
		33.6,180 34.1,180 34.5,180 35.6,180 36.1,180 36.6,180 37.1,180 38.2,180 38.6,180 39.1,180 39.6,180 42.9,180 43.4,180 43.8,180 
		44.3,180 45.4,180 45.9,180 46.4,180 46.9,180 48.4,180 48.9,180 52.7,180 53.1,180 53.6,180 54.1,180 55.6,180 56.1,180 58.2,180 
		62.9,180 63.4,180 65.4,180 69.8,180 72.7,180 77.1,180 79.1,180 79.6,180 84.3,180 86.3,180 86.8,180 88.4,180 88.9,180 89.4,180 
		89.8,180 93.6,180 94.1,180 95.6,180 96.1,180 96.6,180 97.1,180 98.2,180 98.6,180 99.1,180 99.6,180 102.9,180 103.4,180 
		103.9,180 104.3,180 105.4,180 105.9,180 106.3,180 106.8,180 107.9,180 108.4,180 108.9,180 109.4,180 112.7,180 113.2,180 
		113.6,180 114.1,180 115.2,180 115.6,180 116.1,180 116.6,180 118.2,180 118.6,180 122.5,180 122.9,180 123.4,180 123.9,180 
		125.4,180 125.9,180 127.9,180 132.7,180 133.2,180 135.2,180 142.5,180 142.5,0 	"/>
</g>
<g id="figure">
	<g>
		<g>
			<path d="M132.5,57.7c0.2,0.3,0.2,0.6,0.2,0.8c0,0.2-0.2,0.4-0.3,0.6c-0.2,0.4-0.4,0.7-0.7,1c-0.5,0.7-1,1.3-1.6,1.9
				c-1.1,1.2-2.3,2.3-3.6,3.4c-1.3,1-2.5,2-3.9,2.9c-1.4,0.9-2.7,1.8-4.3,2.5c-0.8,0.3-1.7,0.6-2.9,0.6c-0.6,0-1.2-0.2-1.8-0.6
				c-0.6-0.4-1-0.9-1.3-1.4c-0.6-1.1-0.8-2.2-0.9-3.2c0-1,0.1-2,0.5-3c0.3-1,0.8-1.9,1.7-2.8c0.4-0.4,1-0.9,1.7-1.2
				c0.5-0.2,0.5-0.1,0.7-0.1c0.1,0,0.4,0,0.2,0.2c-0.1,0.1-0.2,0.1-0.5,0.8c-0.2,0.4-0.1,1.2,0.2,1.5c0.3,0.4,0.5,0.5,0.6,0.6
				c0.2,0.1,0.3,0.1,0.3,0.1c0,0,0,0,0,0c0,0-0.2,0-0.4-0.1c-0.3,0-0.7,0-1.1,0c-0.8,0-1.5,0.1-2.3,0.2c-6.3,0.8-12.6,1.7-18.5,3.5
				c-1.5,0.5-2.9,1-4.3,1.5c-1.4,0.6-2.7,1.2-4.1,2c-2.7,1.5-5.3,3.1-7.7,5c-4.9,3.7-9.1,8-13.3,12.8c-1.1,1.2-2.1,2.4-3.2,3.6
				l-3.4,3.5c-2.2,2.3-4.5,4.6-6.9,6.8c-2.4,2.2-4.9,4.4-7.5,6.4c-2.6,2.1-5.3,3.9-7.9,5.8c-2.7,1.8-5.5,3.6-8.6,5.1
				c-3.1,1.4-6.7,2.5-10.3,2.3c-0.9,0-1.8-0.1-2.6-0.3l-1.3-0.2c-0.5-0.1-1-0.2-1.4-0.4c-1-0.4-2-0.9-2.8-1.9
				c-0.8-1-1.2-2.3-1.3-3.4c0-2.2,0.8-4,1.6-5.5c0.9-1.5,1.9-2.9,3-4.1c2.2-2.5,4.6-4.7,6.9-6.9c2.4-2.2,4.8-4.3,7.4-6.3
				c5.1-4,10.6-7.5,16.5-10.2c5.9-2.7,12.2-4.7,18.8-5.1c3.3-0.2,6.6,0,9.9,0.6c1.6,0.3,3.4,0.9,5,1.8c1.6,0.9,3.2,2.3,4.3,4.2
				c1,1.9,1.5,4,1.4,6.1c0,2.1-0.5,4-1.3,5.8c-0.7,1.8-1.7,3.3-2.8,4.7c-1.1,1.4-2.2,2.7-3.4,3.9c-2.4,2.4-5.1,4.4-7.9,6.3
				c-2.7,1.9-5.5,3.7-8.3,5.5c-2.8,1.7-5.8,3.2-9,4.4c-3.2,1.1-6.7,2-10.4,1.4l0.2,0c-0.5,0-0.9-0.1-1.5-0.2
				c-0.3-0.1-0.6-0.2-0.9-0.3c-0.3-0.2-0.7-0.4-1.1-0.9c-0.4-0.5-0.5-1.2-0.4-1.8c0.1-0.5,0.3-1,0.4-1.2c0.4-0.6,0.8-1,1.1-1.3
				c1.5-1.2,3.2-1.8,4.9-2c0.4-0.1,0.9-0.1,1.3-0.1c0.4,0,0.8,0,1.2,0c0.8,0.1,1.7,0.1,2.5,0.4c1.8,0.4,3.3,1.6,4.4,2.6
				c1.1,1,2.1,1.7,3.3,2.3c0.3,0.1,0.6,0.3,0.9,0.4c0.3,0.1,0.6,0.2,0.8,0.3c0.6,0.1,1.2,0.2,1.9,0.2c2.6,0,5.4-0.9,8-2
				c2.6-1.1,5.1-2.6,7.9-3.9l7.9-4c2.6-1.3,5.3-2.6,7.9-3.9l4-1.9l2-0.9c0.7-0.3,1.4-0.6,2.5,0l0.1,0.1c-0.2,1.2-0.8,1.6-1.5,1.9
				l-1.9,1l-3.9,2.1c-2.6,1.4-5.2,2.8-7.9,4.1l-7.9,4c-2.6,1.3-5.2,2.8-8,3.9c-2.8,1.2-5.7,2.3-9.1,2.3c-0.8,0-1.7,0-2.5-0.2
				c-0.4-0.1-0.9-0.2-1.3-0.4c-0.4-0.2-0.8-0.3-1.1-0.5c-1.5-0.7-2.9-1.7-4-2.6c-1.2-0.9-2.1-1.6-3.2-1.8c-0.6-0.1-1.2-0.2-1.8-0.2
				c-0.3,0-0.7,0-1,0c-0.3,0-0.6,0-0.9,0.1c-1.1,0.2-2.4,0.7-3.1,1.4c-0.2,0.1-0.3,0.3-0.3,0.4c0,0,0,0,0.1-0.2c0-0.2,0-0.5-0.2-0.7
				c-0.3-0.4-0.3-0.2-0.1-0.2c0.2,0,0.4,0.1,0.7,0.1l0,0l0.2,0c2.7,0.3,5.6-0.5,8.4-1.6c2.8-1.2,5.4-2.8,7.9-4.5
				c2.5-1.7,4.9-3.8,7-6c2.1-2.2,4.1-4.6,6-7c0.9-1.2,1.9-2.3,2.8-3.5c0.9-1.1,1.6-2.2,2.3-3.3c1.4-2.2,2.7-4.4,2.4-6.6
				c-0.1-1.1-0.8-2.2-1.8-3.1c-1-0.8-2.4-1.3-3.8-1.7c-3-0.8-6-1.2-9.1-1.2c-6.2,0.1-12.4,1.8-18.1,4.5c-5.7,2.7-11,6.2-16,10.1
				c-2.5,2-4.9,4.1-7.1,6.3c-2.2,2.2-4.4,4.6-6.2,7.1c-0.9,1.2-1.7,2.5-2.3,3.9c-0.6,1.3-1,2.7-0.9,3.7c0.1,0.5,0.2,0.8,0.5,1
				c0.2,0.2,0.6,0.5,1.2,0.6c0.3,0.1,0.6,0.1,0.9,0.2l1.1,0.2c0.7,0.1,1.4,0.1,2.2,0.1c5.6,0.1,11-3.3,16-6.9
				c5.1-3.7,9.7-7.9,13.9-12.5c2.1-2.3,4.2-4.7,6.3-7.1c1-1.2,2.2-2.5,3.2-3.5l3.2-3.6c4.3-4.8,9.2-9.6,14.9-13.2
				c2.8-1.8,5.7-3.4,8.8-4.8c1.5-0.7,3.1-1.3,4.7-1.9c1.6-0.5,3.2-1,4.8-1.4c6.5-1.5,12.9-2.1,19.4-2.5l2.5-0.1c0.4,0,0.8,0,1.3,0
				c0.2,0,0.5,0,0.8,0c0.1,0,0.2,0,0.3,0.1c0.1,0,0.3,0.1,0.6,0.2c0.2,0.1,0.4,0.2,0.7,0.7c0.3,0.4,0.4,1.3,0.2,1.7
				c-0.3,0.8-0.5,0.8-0.7,1l-0.9,0.8c-0.2,0.2-0.5,0.4-0.4,0.3c0,0-0.1,0.1-0.2,0.2c-0.2,0.3-0.5,0.8-0.8,1.3c-0.5,1-1,2.3-0.9,3.2
				c0,0.4,0,0.7,0.5,0.9c0.4,0.2,1.2,0.2,1.8,0c1.4-0.4,2.8-1.2,4.1-2c1.3-0.8,2.6-1.7,3.8-2.7c1.2-1,2.3-2.1,3.4-3.2
				c0.5-0.6,1-1.2,1.5-1.8c0.3-0.3,0.5-0.6,0.8-0.9c0.1-0.1,0.2-0.3,0.4-0.4C131.9,57.8,132.1,57.7,132.5,57.7z"/>
		</g>
	</g>
</g>
</svg>
