<?xml version="1.0" encoding="utf-8"?>
<!-- Generator: Adobe Illustrator 22.1.0, SVG Export Plug-In . SVG Version: 6.00 Build 0)  -->
<svg version="1.1" xmlns="http://www.w3.org/2000/svg" xmlns:xlink="http://www.w3.org/1999/xlink" x="0px" y="0px"
	 viewBox="0 0 145.7 180" style="enable-background:new 0 0 145.7 180;" xml:space="preserve">
<style type="text/css">
	.st0{display:none;}
	.st1{display:inline;fill:#FF0000;}
</style>
<g id="bg" class="st0">
	<polygon class="st1" points="140.8,0 139.4,0 139.1,0 135.9,0 134.5,0 134.2,0 133.2,0 132.8,0 132.5,0 129.6,0 129.3,0 128.2,0 
		127.9,0 127.6,0 126.7,0 126.5,0 126.2,0 125.7,0 123.3,0 123,0 122.6,0 122,0 121.8,0 121.6,0 121.3,0 120.8,0 120.4,0 120.1,0 
		119.9,0 119.4,0 119.1,0 117,0 116.9,0 116.7,0 116.3,0 115.9,0 115.7,0 115.5,0 115.3,0 115.2,0 115,0 114.5,0 114.2,0 114.1,0 
		113.8,0 113.5,0 113.2,0 112.8,0 112.5,0 112.1,0 110.7,0 110.6,0 110.4,0 110.2,0 110.1,0 109.6,0 109.4,0 109.3,0 109.2,0 109,0 
		108.9,0 108.7,0 108.5,0 108.2,0 107.9,0 107.6,0 107.5,0 107.2,0 106.7,0 106.5,0 106.2,0 105.8,0 105.5,0 104.5,0 104.3,0 
		104.1,0 103.9,0 103.8,0 103.6,0 103.3,0 103,0 102.9,0 102.7,0 102.6,0 102.6,0 102.4,0 102.2,0 102,0 101.8,0 101.6,0 101.3,0 
		100.9,0 100.4,0 100.1,0 99.9,0 99.5,0 99.2,0 98.9,0 98.5,0 98,0 97.8,0 97.7,0 97.5,0 97.3,0 97,0 96.9,0 96.7,0 96.6,0 96.3,0 
		96.3,0 96.1,0 96,0 95.7,0 95.5,0 95.3,0 95.2,0 95,0 94.1,0 93.8,0 93.6,0 93.5,0 93.1,0 92.9,0 92.6,0 92.2,0 92.1,0 91.9,0 
		91.7,0 91.4,0 91.2,0 91,0 90.7,0 90.6,0 90.4,0 90.4,0 90.2,0 90.1,0 90,0 89.7,0 89.4,0 89.2,0 89,0 88.9,0 88.7,0 88.6,0 
		88.5,0 87.5,0 87.3,0 87.2,0 86.9,0 86.8,0 86.5,0 86.3,0 85.9,0 85.8,0 85.6,0 85.5,0 85.4,0 85.2,0 85.1,0 84.8,0 84.5,0 84.3,0 
		84.1,0 83.9,0 83.8,0 83.7,0 83.6,0 83.4,0 82.9,0 82.7,0 82.6,0 82.4,0 82.4,0 82.2,0 82,0 81,0 80.9,0 80.7,0 80.5,0 80.3,0 
		80.2,0 79.8,0 79.5,0 79.5,0 79.3,0 79.2,0 78.9,0 78.9,0 78.8,0 78.5,0 78.5,0 78,0 77.8,0 77.7,0 77.5,0 77.3,0 77.1,0 76.6,0 
		76.3,0 76.1,0 76.1,0 76,0 75.7,0 75.4,0 74.7,0 74.5,0 74.4,0 74,0 73.9,0 73.6,0 73.5,0 73.2,0 73.1,0 72.9,0 72.8,0 72.7,0 
		72.6,0 72.2,0 72.2,0 71.9,0 71.7,0 71.4,0 71.2,0 71,0 70.4,0 70,0 69.8,0 69.7,0 69.6,0 69.4,0 69.1,0 68.6,0 68.4,0 68.3,0 
		68.1,0 67.9,0 67.7,0 67.3,0 67.2,0 66.9,0 66.9,0 66.8,0 66.6,0 66.5,0 66.3,0 66.2,0 65.9,0 65.6,0 65.4,0 65.2,0 65.1,0 64.9,0 
		64.8,0 63.7,0 63.5,0 63.4,0 63.3,0 63.2,0 63,0 62.8,0 62.4,0 62.1,0 62,0 62,0 61.8,0 61.6,0 61.5,0 61.3,0 61,0 60.7,0 60.5,0 
		60.3,0 60.3,0 60.2,0 59.9,0 59.8,0 59.5,0 59.3,0 58.9,0 58.8,0 58.6,0 58.5,0 58.2,0 57.2,0 57.1,0 57,0 56.9,0 56.7,0 56.5,0 
		56.4,0 56.1,0 55.7,0 55.7,0 55.5,0 55.4,0 55.3,0 55.2,0 55,0 54.7,0 54.5,0 54.4,0 54,0 53.9,0 53.6,0 53.5,0 53.2,0 52.8,0 
		52.7,0 52.3,0 52.2,0 51.9,0 51.6,0 50.8,0 50.6,0 50.4,0 50.2,0 50.1,0 49.8,0 49.6,0 49.4,0 49.4,0 49.1,0 49.1,0 48.9,0 48.7,0 
		48.4,0 48.3,0 48.1,0 47.9,0 47.7,0 47.2,0 46.9,0 46.6,0 46.2,0 45.8,0 45.7,0 45.3,0 44.9,0 44.5,0 44.1,0 43.9,0 43.8,0 43.5,0 
		43.3,0 43.2,0 43.1,0 43,0 42.8,0 42.8,0 42.4,0 42.1,0 42,0 41.8,0 41.6,0 41.5,0 41.3,0 40.3,0 39.9,0 39.5,0 39.2,0 39,0 
		38.6,0 38.2,0 38.2,0 37.8,0 37.5,0 37.2,0 37,0 36.9,0 36.7,0 36.5,0 36.5,0 36.4,0 36.1,0 35.7,0 35.5,0 35.3,0 35.2,0 35,0 
		33.6,0 33.3,0 32.9,0 32.6,0 32.3,0 31.9,0 31.6,0 31.6,0 31.2,0 30.8,0 30.6,0 30.4,0 30.2,0 30.1,0 29.8,0 29.4,0 29.1,0 28.9,0 
		28.7,0 26.6,0 26.3,0 25.8,0 25.7,0 25.3,0 24.9,0 24.5,0 24.1,0 23.9,0 23.8,0 23.1,0 22.8,0 22.4,0 20,0 19.5,0 19.2,0 19,0 
		18.2,0 17.8,0 17.5,0 16.5,0 16.1,0 13.3,0 12.9,0 12.6,0 11.6,0 11.2,0 9.8,0 6.6,0 6.3,0 4.9,0 0,0 0,180 4.9,180 6.3,180 
		6.6,180 9.8,180 11.2,180 11.6,180 12.6,180 12.9,180 13.3,180 16.1,180 16.5,180 17.5,180 17.8,180 18.2,180 19,180 19.2,180 
		19.5,180 20,180 22.4,180 22.8,180 23.1,180 23.8,180 23.9,180 24.1,180 24.5,180 24.9,180 25.3,180 25.7,180 25.8,180 26.3,180 
		26.6,180 28.7,180 28.9,180 29.1,180 29.4,180 29.8,180 30.1,180 30.2,180 30.4,180 30.6,180 30.8,180 31.2,180 31.6,180 31.6,180 
		31.9,180 32.3,180 32.6,180 32.9,180 33.3,180 33.6,180 35,180 35.2,180 35.3,180 35.5,180 35.7,180 36.1,180 36.4,180 36.5,180 
		36.5,180 36.7,180 36.9,180 37,180 37.2,180 37.5,180 37.8,180 38.2,180 38.2,180 38.6,180 39,180 39.2,180 39.5,180 39.9,180 
		40.3,180 41.3,180 41.5,180 41.6,180 41.8,180 42,180 42.1,180 42.4,180 42.8,180 42.8,180 43,180 43.1,180 43.2,180 43.3,180 
		43.5,180 43.8,180 43.9,180 44.1,180 44.5,180 44.9,180 45.3,180 45.7,180 45.8,180 46.2,180 46.6,180 46.9,180 47.2,180 47.7,180 
		47.9,180 48.1,180 48.3,180 48.4,180 48.7,180 48.9,180 49.1,180 49.1,180 49.4,180 49.4,180 49.6,180 49.8,180 50.1,180 50.2,180 
		50.4,180 50.6,180 50.8,180 51.6,180 51.9,180 52.2,180 52.3,180 52.7,180 52.8,180 53.2,180 53.5,180 53.6,180 53.9,180 54,180 
		54.4,180 54.5,180 54.7,180 55,180 55.2,180 55.3,180 55.4,180 55.5,180 55.7,180 55.7,180 56.1,180 56.4,180 56.5,180 56.7,180 
		56.9,180 57,180 57.1,180 57.2,180 58.2,180 58.5,180 58.6,180 58.8,180 58.9,180 59.3,180 59.5,180 59.8,180 59.9,180 60.2,180 
		60.3,180 60.3,180 60.5,180 60.7,180 61,180 61.3,180 61.5,180 61.6,180 61.8,180 62,180 62,180 62.1,180 62.4,180 62.8,180 
		63,180 63.2,180 63.3,180 63.4,180 63.5,180 63.7,180 64.8,180 64.9,180 65.1,180 65.2,180 65.4,180 65.6,180 65.9,180 66.2,180 
		66.3,180 66.5,180 66.6,180 66.8,180 66.9,180 66.9,180 67.2,180 67.3,180 67.7,180 67.9,180 68.1,180 68.3,180 68.4,180 68.6,180 
		69.1,180 69.4,180 69.6,180 69.7,180 69.8,180 70,180 70.4,180 71,180 71.2,180 71.4,180 71.7,180 71.9,180 72.2,180 72.2,180 
		72.6,180 72.7,180 72.8,180 72.9,180 73.1,180 73.2,180 73.5,180 73.6,180 73.9,180 74,180 74.4,180 74.5,180 74.7,180 75.4,180 
		75.7,180 76,180 76.1,180 76.1,180 76.3,180 76.6,180 77.1,180 77.3,180 77.5,180 77.7,180 77.8,180 78,180 78.5,180 78.5,180 
		78.8,180 78.9,180 78.9,180 79.2,180 79.3,180 79.5,180 79.5,180 79.8,180 80.2,180 80.3,180 80.5,180 80.7,180 80.9,180 81,180 
		82,180 82.2,180 82.4,180 82.4,180 82.6,180 82.7,180 82.9,180 83.4,180 83.6,180 83.7,180 83.8,180 83.9,180 84.1,180 84.3,180 
		84.5,180 84.8,180 85.1,180 85.2,180 85.4,180 85.5,180 85.6,180 85.8,180 85.9,180 86.3,180 86.5,180 86.8,180 86.9,180 87.2,180 
		87.3,180 87.5,180 88.5,180 88.6,180 88.7,180 88.9,180 89,180 89.2,180 89.4,180 89.7,180 90,180 90.1,180 90.2,180 90.4,180 
		90.4,180 90.6,180 90.7,180 91,180 91.2,180 91.4,180 91.7,180 91.9,180 92.1,180 92.2,180 92.6,180 92.9,180 93.1,180 93.5,180 
		93.6,180 93.8,180 94.1,180 95,180 95.2,180 95.3,180 95.5,180 95.7,180 96,180 96.1,180 96.3,180 96.3,180 96.6,180 96.7,180 
		96.9,180 97,180 97.3,180 97.5,180 97.7,180 97.8,180 98,180 98.5,180 98.9,180 99.2,180 99.5,180 99.9,180 100.1,180 100.4,180 
		100.9,180 101.3,180 101.6,180 101.8,180 102,180 102.2,180 102.4,180 102.6,180 102.6,180 102.7,180 102.9,180 103,180 103.3,180 
		103.6,180 103.8,180 103.9,180 104.1,180 104.3,180 104.5,180 105.5,180 105.8,180 106.2,180 106.5,180 106.7,180 107.2,180 
		107.5,180 107.6,180 107.9,180 108.2,180 108.5,180 108.7,180 108.9,180 109,180 109.2,180 109.3,180 109.4,180 109.6,180 
		110.1,180 110.2,180 110.4,180 110.6,180 110.7,180 112.1,180 112.5,180 112.8,180 113.2,180 113.5,180 113.8,180 114.1,180 
		114.2,180 114.5,180 115,180 115.2,180 115.3,180 115.5,180 115.7,180 115.9,180 116.3,180 116.7,180 116.9,180 117,180 119.1,180 
		119.4,180 119.9,180 120.1,180 120.4,180 120.8,180 121.3,180 121.6,180 121.8,180 122,180 122.6,180 123,180 123.3,180 125.7,180 
		126.2,180 126.5,180 126.7,180 127.6,180 127.9,180 128.2,180 129.3,180 129.6,180 132.5,180 132.8,180 133.2,180 134.2,180 
		134.5,180 135.9,180 139.1,180 139.4,180 140.8,180 145.7,180 145.7,0 	"/>
</g>
<g id="figure">
	<g>
		<g>
			<path d="M52.9,101.5c1.6-2.7,3.6-5,5.9-7.1c2.3-2.1,4.7-4,7.3-5.6c1.3-0.8,2.6-1.6,4-2.3c1.4-0.7,2.7-1.4,4.1-2.1
				c0.7-0.3,1.5-0.6,2.3-0.9c0.8-0.2,1.7-0.5,2.9-0.2c0.6,0.1,1.2,0.4,1.6,0.8c0.4,0.4,0.8,0.9,1,1.3c0.1,0.2,0.2,0.4,0.3,0.7
				c0.1,0.2,0.2,0.6,0.3,0.8c0.1,0.6,0.1,1.1,0.1,1.7c-0.2,2.1-0.9,3.7-1.7,5.2c-0.8,1.5-1.7,2.8-2.8,4.1c-1.1,1.2-2.2,2.3-3.5,3.4
				c-0.6,0.5-1.3,1.1-2,1.5l-1.9,1.3c-2.6,1.7-5.2,3.2-7.8,4.8c-2.6,1.5-5.2,3.2-8.1,4.3c-1.4,0.6-2.8,1.2-4.2,2
				c-1.4,0.7-2.8,1.3-4.3,1.9c-0.8,0.3-1.5,0.5-2.5,0.6c-0.5,0-1,0.1-1.8-0.4l-0.1-0.1c-0.1-0.1-0.1-0.1-0.2-0.2
				c-0.1-0.2-0.2-0.4-0.2-0.5c-0.1-0.3,0-0.6,0-0.8c0.1-0.4,0.3-0.6,0.4-0.8c0.6-0.8,1.3-1.4,2.1-1.8c0.8-0.4,1.8-0.7,2.9-0.6
				c0.6,0.1,1.1,0.2,1.6,0.5c0.5,0.3,1.1,0.8,1.4,1.3c0.7,1.1,0.8,2.1,0.9,2.7c0.1,0.3,0.1,0.5,0.1,0.5c0,0.1-0.1,0-0.1,0
				c0,0.1,0.5,0.3,1,0.3c1.1,0.1,2.6-0.2,4-0.5c1.4-0.3,2.8-0.7,4.2-1.2c2.8-0.9,5.6-2,8.3-3.3c1.3-0.6,2.7-1.3,3.9-2
				c1.3-0.7,2.6-1.5,3.9-2.3c2.6-1.5,5.2-3.1,7.7-4.7c1.3-0.8,2.6-1.6,3.8-2.4c0.6-0.4,1.3-0.8,2-1.2c0.3-0.2,0.7-0.3,1-0.5
				c0.3-0.2,0.7-0.3,1.4,0l0.2,0.3c0,0.8-0.2,1.1-0.5,1.3c-0.3,0.2-0.6,0.5-0.9,0.7c-0.6,0.5-1.2,0.9-1.8,1.3
				c-1.3,0.8-2.5,1.7-3.8,2.5c-2.5,1.7-5,3.4-7.6,5.1c-1.3,0.8-2.5,1.7-3.9,2.5c-1.3,0.8-2.7,1.6-4.1,2.3c-2.8,1.4-5.6,2.7-8.5,3.7
				c-1.5,0.5-2.9,1-4.5,1.4c-1.6,0.4-3.1,0.8-5,0.8c-1-0.1-2-0.1-3.3-0.9c-0.6-0.4-1.2-1.1-1.4-1.7c-0.3-0.7-0.3-1.2-0.3-1.7
				c0-0.9,0.1-1.5,0.2-1.8c0-0.1,0.1-0.3,0-0.4c-0.1-0.1-0.3-0.3-0.5-0.3c-0.8-0.2-2.2,0.4-2.9,1.2c-0.1,0.1-0.1,0.2-0.1,0.2
				c0,0,0-0.1,0-0.2c0-0.1-0.1-0.2-0.1-0.3c0,0-0.1-0.1-0.1-0.1l0,0c-0.2-0.1,0.1,0,0.4,0c0.6,0,1.3-0.2,1.9-0.5
				c1.3-0.5,2.6-1.2,3.9-2c1.3-0.7,2.4-1.7,3.6-2.7c2.2-2.1,4.7-3.8,7.1-5.6l7.2-5.4l1.8-1.3c0.6-0.4,1.1-0.8,1.6-1.3
				c1.1-0.9,2.1-1.9,3.1-2.9l3-2.9c0.9-1,1.9-2,2.2-2.9c0.5-0.7,0-2-0.5-2.1c-0.3-0.1-0.9-0.1-1.6,0c-0.7,0.1-1.3,0.3-2,0.6
				c-1.4,0.5-2.8,1.1-4.2,1.7c-1.4,0.6-2.7,1.2-4,2c-2.6,1.5-5.1,3.2-7.3,5.1c-2.2,2-4.3,4.2-5.7,6.8L52.9,101.5z"/>
		</g>
		<g>
			<path d="M9.8,123.7c1.3-1.9,3.3-2.6,5.1-3.6l5.5-2.8c3.6-1.9,7.3-3.8,10.8-5.8l5.4-3c1.8-1,3.5-2,5.2-3.1
				c3.4-2.3,6.8-4.6,10.3-6.8c6.8-4.5,13.7-9.1,20.3-13.9c1.6-1.2,3.3-2.4,4.8-3.7c1.5-1.3,3-2.7,4.5-4.1c2.9-2.8,5.7-5.8,8.2-8.9
				c1.3-1.6,2.5-3.2,3.5-4.8c0.5-0.8,0.9-1.7,1-2.3c0-0.1,0-0.2,0-0.1c0,0,0,0.1,0.1,0.3c0.1,0.1,0.1,0.1,0.2,0.2
				c0.3,0.1,0,0-0.3,0.2c-0.7,0.2-1.5,0.7-2.3,1.2c-0.8,0.5-1.6,1.1-2.4,1.7c-1.6,1.2-3.1,2.5-4.6,3.8c-3,2.7-5.8,5.6-8.5,8.6
				c-1.2,1.5-2.5,3.1-3.7,4.7c-1.2,1.6-2.5,3.2-3.7,4.9c-5,6.5-9.6,13.3-14.7,19.7c-2.5,3.2-5.1,6.5-7.9,9.5c-1.4,1.5-2.8,3-4.3,4.5
				l-2.2,2.2c-0.3,0.4-0.9,0.6-1.4,0.9c-0.6,0.2-1.1,0.5-1.9,0.5l-0.4-0.3c-0.2-0.8-0.1-1.4-0.1-2c0.1-0.6,0.2-1.2,0.4-1.6l1.6-2.7
				c1-1.8,2.1-3.6,3.2-5.3c2.2-3.5,4.7-6.8,7.2-10c2.5-3.3,5.1-6.5,7.8-9.6l8-9.4c2.7-3.1,5.4-6.2,8.4-9.3c3-3,6.2-5.7,9.5-8.3
				c1.7-1.3,3.4-2.5,5.1-3.7c0.9-0.6,1.8-1.1,2.8-1.6c1-0.5,2-1,3.3-1.3c0.3-0.1,0.7-0.1,1.1-0.1c0.4,0,1,0.1,1.5,0.4
				c0.3,0.2,0.5,0.4,0.8,0.7c0.2,0.3,0.4,0.7,0.4,1c0.1,0.6,0,1-0.1,1.4c-0.4,1.4-1,2.3-1.5,3.2c-1.2,1.8-2.5,3.5-3.8,5.1
				c-2.7,3.2-5.5,6.2-8.5,9.1c-1.5,1.4-3,2.9-4.6,4.2c-1.6,1.4-3.3,2.6-4.9,3.8c-6.7,4.9-13.5,9.5-20.3,14.1
				c-3.4,2.3-6.8,4.6-10.2,6.9c-3.5,2.4-7.1,4.3-10.8,6.3c-3.6,1.9-7.3,3.8-10.9,5.7l-5.5,2.8c-1.8,0.9-3.6,2.1-5.9,2L9.8,123.7z"/>
		</g>
	</g>
	<g>
		<g>
			<path d="M92.9,101.5c1.5-2.7,3.6-4.9,5.8-7c2.2-2.1,4.6-3.9,7.1-5.5c1.3-0.8,2.5-1.6,3.9-2.3c1.3-0.7,2.6-1.4,4-2.1
				c0.7-0.3,1.4-0.6,2.2-0.9c0.8-0.3,1.6-0.5,2.6-0.5c0.5,0,1.1,0.1,1.6,0.4c0.5,0.3,1,0.7,1.4,1.1c0.3,0.4,0.6,0.9,0.8,1.3
				c0.1,0.2,0.2,0.5,0.3,0.8c0.1,0.3,0.1,0.6,0.1,0.8c0.1,1.1-0.1,2.1-0.3,2.9c-0.2,0.9-0.6,1.7-0.9,2.4c-0.7,1.5-1.6,2.9-2.6,4.1
				c-1,1.2-2.1,2.3-3.3,3.4c-1.1,1.1-2.5,2.1-3.8,3c-2.5,1.7-5.1,3.2-7.6,4.8l-3.9,2.3c-1.3,0.8-2.6,1.5-4,2.1
				c-1.4,0.6-2.8,1.2-4.2,1.8c-1.4,0.7-2.7,1.4-4.1,2c-0.7,0.3-1.4,0.6-2.2,0.8c-0.4,0.1-0.8,0.2-1.2,0.3c-0.4,0.1-0.9,0.1-1.5,0.1
				c-0.3-0.1-0.7-0.1-1-0.4c-0.1,0-0.2-0.2-0.3-0.4c-0.1-0.2-0.2-0.4-0.2-0.5c-0.1-0.3,0-0.6,0-0.8c0.2-0.7,0.6-1,0.9-1.4
				c0.6-0.7,1.4-1.2,2.2-1.5c0.9-0.3,1.9-0.5,3-0.2c0.5,0.2,1.1,0.4,1.6,0.8c0.5,0.4,0.9,1,1.1,1.5c0.5,1,0.5,1.9,0.6,2.3
				c0.1,0.2,0.1,0.3,0.1,0.3c0,0-0.1,0,0,0.1c0.1,0.1,0.2,0.1,0.5,0.2c0.2,0.1,0.4,0.1,0.7,0.1c0.6,0,1.2-0.1,1.9-0.2
				c1.3-0.2,2.7-0.6,4.1-1c2.8-0.8,5.5-1.8,8.3-2.9c1.4-0.5,2.7-1.1,4.1-1.7c1.3-0.6,2.6-1.3,3.9-1.9c2.6-1.4,5.2-2.8,7.8-4.3
				c1.3-0.8,2.5-1.6,3.8-2.4c0.6-0.4,1.3-0.8,1.9-1.1l1-0.5c0.3-0.2,0.7-0.3,1.4,0.1l0.2,0.3c0.1,0.8-0.2,1.1-0.5,1.3l-0.9,0.6
				c-0.6,0.4-1.2,0.8-1.9,1.2l-3.9,2.2c-2.5,1.6-5,3.2-7.6,4.7c-1.3,0.8-2.6,1.5-3.9,2.2c-1.3,0.7-2.7,1.4-4,2
				c-2.7,1.3-5.5,2.5-8.3,3.6c-1.4,0.5-2.9,1-4.5,1.4c-0.8,0.2-1.6,0.3-2.5,0.4c-0.4,0-1,0-1.5-0.1c-0.5-0.1-1-0.2-1.6-0.5
				c-0.6-0.3-1.2-0.8-1.6-1.4c-0.4-0.6-0.6-1.3-0.6-1.8c-0.1-1,0-1.7,0.1-2.1c0-0.2,0.1-0.3,0.1-0.4c0-0.1-0.1-0.3-0.3-0.4
				c-0.3-0.2-0.8-0.2-1.4,0c-0.5,0.2-1.1,0.5-1.5,0.9c-0.2,0.2-0.4,0.4-0.4,0.4c0,0,0-0.1,0-0.2c0-0.1,0-0.2-0.1-0.2
				c0-0.1-0.1-0.2-0.1-0.2c-0.1-0.1-0.1,0,0,0c0.3,0.1,1.1-0.1,1.7-0.3c0.7-0.2,1.3-0.5,1.9-0.8c1.3-0.6,2.6-1.4,3.7-2.2
				c1.2-0.8,2.3-1.9,3.4-2.9c1.1-1,2.3-1.9,3.5-2.8l3.5-2.7l7.1-5.3c1.2-0.9,2.2-1.6,3.2-2.6c1-0.9,2-1.9,3-2.9c1-1,2-1.9,2.9-2.9
				c0.9-0.9,1.7-2,1.9-2.8c0-0.1,0-0.2,0.1-0.3c0-0.1,0-0.1,0-0.3c-0.1-0.3-0.1-0.5-0.2-0.7c-0.2-0.3-0.3-0.5-0.8-0.5
				c-0.5-0.1-1.1,0-1.8,0.2c-0.7,0.2-1.3,0.4-2,0.6c-1.4,0.5-2.7,1.1-4.1,1.7c-1.3,0.6-2.6,1.2-3.9,2c-2.5,1.5-5,3.1-7.2,5.1
				c-2.2,1.9-4.2,4.1-5.6,6.7L92.9,101.5z"/>
		</g>
		<g>
			<path d="M84.9,104.4c0.2-1.2,0.9-1.7,1.5-2.1l2-1.4l4.1-2.8l4-2.8l4.1-2.7c2.7-1.8,5.4-3.7,8.1-5.5c2.7-1.9,5.3-3.7,7.8-5.8
				c2.5-2.1,4.8-4.3,7-6.6c2.3-2.3,4.4-4.7,6.4-7.2c1-1.2,1.9-2.5,2.8-3.9c0.4-0.7,0.8-1.3,1.1-2c0.1-0.3,0.3-0.6,0.3-0.9
				c0.1-0.2,0-0.5,0.1-0.1c0.2,0.4,0.5,0.3,0.3,0.4c-0.1,0-0.4,0.1-0.7,0.2c-0.6,0.2-1.3,0.6-1.9,1c-1.3,0.8-2.6,1.7-3.8,2.7
				c-2.5,2-4.8,4.2-7.1,6.4c-2.3,2.3-4.5,4.6-6.4,7.1c-4,5.1-7.9,10.3-11.7,15.6c-3.8,5.3-7.8,10.5-11.9,15.6c-2,2.5-4.2,5-6.5,7.4
				c-1.1,1.2-2.3,2.4-3.4,3.5l-0.9,0.9c-0.3,0.3-0.6,0.6-0.9,0.8c-0.4,0.2-0.8,0.4-1.3,0.6c-0.4,0.2-0.9,0.3-1.6,0.3l-0.4-0.3
				c-0.2-0.6-0.1-1.1-0.1-1.6c0-0.5,0.1-1,0.2-1.4c0.1-0.4,0.4-0.7,0.6-1.1l0.6-1.1c0.8-1.4,1.7-2.8,2.5-4.3
				c1.7-2.8,3.5-5.5,5.5-8.2c3.9-5.3,8-10.4,12.3-15.4c4.3-5,8.4-10,13-14.9c2.3-2.5,4.8-4.8,7.3-6.9c2.5-2.2,5.2-4.2,7.9-6.1
				c1.4-1,2.8-1.9,4.4-2.7c0.8-0.4,1.6-0.8,2.6-1.1c0.5-0.1,1-0.3,1.7-0.3c0.7,0,1.8,0.2,2.4,1.4c0.3,0.5,0.3,1,0.3,1.4
				c0,0.4-0.1,0.7-0.2,0.9c-0.2,0.5-0.4,1-0.6,1.4c-0.4,0.8-0.9,1.6-1.4,2.3c-1,1.4-2,2.7-3,4c-2.1,2.6-4.3,5-6.7,7.4
				c-2.3,2.4-4.7,4.6-7.3,6.8c-5.2,4.2-10.5,7.9-15.9,11.6l-4.1,2.8l-4.1,2.7l-4.1,2.7l-2,1.3c-0.7,0.5-1.3,0.9-2.5,0.7L84.9,104.4z
				"/>
		</g>
	</g>
</g>
</svg>
