<?xml version="1.0" encoding="utf-8"?>
<!-- Generator: Adobe Illustrator 22.1.0, SVG Export Plug-In . SVG Version: 6.00 Build 0)  -->
<svg version="1.1" xmlns="http://www.w3.org/2000/svg" xmlns:xlink="http://www.w3.org/1999/xlink" x="0px" y="0px"
	 viewBox="0 0 148.8 180" style="enable-background:new 0 0 148.8 180;" xml:space="preserve">
<style type="text/css">
	.st0{display:none;}
	.st1{display:inline;fill:#FF0000;}
</style>
<g id="bg" class="st0">
	<polygon class="st1" points="142.6,0 140.9,0 140.4,0 136.4,0 134.6,0 134.2,0 132.9,0 132.5,0 132.1,0 128.8,0 128.4,0 128,0 
		126.7,0 126.3,0 125.8,0 124.8,0 124.5,0 124.1,0 122.6,0 120.9,0 120.5,0 120.4,0 120,0 119.6,0 118.5,0 118.3,0 117.9,0 116.8,0 
		116.4,0 116.4,0 116.2,0 114.6,0 114.2,0 112.9,0 112.5,0 112.3,0 112.1,0 112.1,0 111.7,0 110.6,0 110.2,0 109.9,0 108.9,0 
		108.4,0 108.4,0 108,0 108,0 106.7,0 106.3,0 105.8,0 104.8,0 104.5,0 104.4,0 104.1,0 104,0 103.7,0 102.7,0 102.2,0 101.8,0 
		100.5,0 100.5,0 100.1,0 100,0 99.6,0 98.5,0 98.3,0 97.9,0 96.8,0 96.4,0 96.4,0 96.2,0 96,0 95.6,0 94.3,0 93.9,0 92.3,0 92.1,0 
		92.1,0 91.7,0 90.6,0 90.2,0 89.9,0 89.1,0 88.9,0 88.4,0 88.1,0 88,0 87.6,0 85.9,0 84.4,0 84,0 83.7,0 82.9,0 82.7,0 82.2,0 
		81.8,0 81.2,0 80.7,0 80.5,0 80.1,0 79.7,0 76.7,0 76.4,0 76,0 75.6,0 74.9,0 74.5,0 74.3,0 73.9,0 73.2,0 72.8,0 72.4,0 72.1,0 
		69.1,0 68.7,0 68.3,0 68.1,0 67.6,0 67,0 66.6,0 66.1,0 65.9,0 65.1,0 64.8,0 64.4,0 62.9,0 61.2,0 60.8,0 60.7,0 60.4,0 59.9,0 
		59.7,0 58.9,0 58.6,0 58.2,0 57.1,0 56.7,0 56.7,0 56.5,0 54.9,0 54.5,0 53.2,0 52.8,0 52.6,0 52.4,0 52.4,0 52,0 50.9,0 50.5,0 
		50.3,0 49.2,0 48.8,0 48.7,0 48.3,0 48.3,0 47,0 46.6,0 46.1,0 45.1,0 44.8,0 44.7,0 44.4,0 44.3,0 44,0 43,0 42.5,0 42.1,0 
		40.8,0 40.8,0 40.4,0 40.4,0 39.9,0 38.9,0 38.6,0 38.2,0 37.1,0 36.7,0 36.7,0 36.5,0 36.3,0 35.9,0 34.6,0 34.2,0 32.6,0 32.4,0 
		32.4,0 32,0 30.9,0 30.5,0 30.3,0 29.2,0 28.8,0 28.4,0 28.3,0 27.9,0 26.2,0 24.7,0 24.3,0 24,0 23,0 22.5,0 22.1,0 20.8,0 
		20.4,0 20,0 16.7,0 16.3,0 15.9,0 14.6,0 14.2,0 12.4,0 8.4,0 7.9,0 6.2,0 0,0 0,180 6.2,180 7.9,180 8.4,180 12.4,180 14.2,180 
		14.6,180 15.9,180 16.3,180 16.7,180 20,180 20.4,180 20.8,180 22.1,180 22.5,180 23,180 24,180 24.3,180 24.7,180 26.2,180 
		27.9,180 28.3,180 28.4,180 28.8,180 29.2,180 30.3,180 30.5,180 30.9,180 32,180 32.4,180 32.4,180 32.6,180 34.2,180 34.6,180 
		35.9,180 36.3,180 36.5,180 36.7,180 36.7,180 37.1,180 38.2,180 38.6,180 38.9,180 39.9,180 40.4,180 40.4,180 40.8,180 40.8,180 
		42.1,180 42.5,180 43,180 44,180 44.3,180 44.4,180 44.7,180 44.8,180 45.1,180 46.1,180 46.6,180 47,180 48.3,180 48.3,180 
		48.7,180 48.8,180 49.2,180 50.3,180 50.5,180 50.9,180 52,180 52.4,180 52.4,180 52.6,180 52.8,180 53.2,180 54.5,180 54.9,180 
		56.5,180 56.7,180 56.7,180 57.1,180 58.2,180 58.6,180 58.9,180 59.7,180 59.9,180 60.4,180 60.7,180 60.8,180 61.2,180 62.9,180 
		64.4,180 64.8,180 65.1,180 65.9,180 66.1,180 66.6,180 67,180 67.6,180 68.1,180 68.3,180 68.7,180 69.1,180 72.1,180 72.4,180 
		72.8,180 73.2,180 73.9,180 74.3,180 74.5,180 74.9,180 75.6,180 76,180 76.4,180 76.7,180 79.7,180 80.1,180 80.5,180 80.7,180 
		81.2,180 81.8,180 82.2,180 82.7,180 82.9,180 83.7,180 84,180 84.4,180 85.9,180 87.6,180 88,180 88.1,180 88.4,180 88.9,180 
		89.1,180 89.9,180 90.2,180 90.6,180 91.7,180 92.1,180 92.1,180 92.3,180 93.9,180 94.3,180 95.6,180 96,180 96.2,180 96.4,180 
		96.4,180 96.8,180 97.9,180 98.3,180 98.5,180 99.6,180 100,180 100.1,180 100.5,180 100.5,180 101.8,180 102.2,180 102.7,180 
		103.7,180 104,180 104.1,180 104.4,180 104.5,180 104.8,180 105.8,180 106.3,180 106.7,180 108,180 108,180 108.4,180 108.4,180 
		108.9,180 109.9,180 110.2,180 110.6,180 111.7,180 112.1,180 112.1,180 112.3,180 112.5,180 112.9,180 114.2,180 114.6,180 
		116.2,180 116.4,180 116.4,180 116.8,180 117.9,180 118.3,180 118.5,180 119.6,180 120,180 120.4,180 120.5,180 120.9,180 
		122.6,180 124.1,180 124.5,180 124.8,180 125.8,180 126.3,180 126.7,180 128,180 128.4,180 128.8,180 132.1,180 132.5,180 
		132.9,180 134.2,180 134.6,180 136.4,180 140.4,180 140.9,180 142.6,180 148.8,180 148.8,0 	"/>
</g>
<g id="figure">
	<g>
		<g>
			<path d="M52.9,101.3c1.4-2.5,3.3-4.6,5.3-6.5c2-1.9,4.2-3.7,6.5-5.3c1.2-0.8,2.3-1.6,3.6-2.3c1.2-0.7,2.5-1.3,3.7-2
				c1.2-0.6,2.5-1.3,3.9-1.8c0.7-0.2,1.5-0.5,2.4-0.5c0.5,0,1,0.1,1.5,0.3c0.5,0.2,1,0.5,1.4,0.9c0.4,0.4,0.6,0.8,0.9,1.2
				c0.1,0.2,0.2,0.4,0.3,0.6c0.1,0.2,0.2,0.5,0.2,0.8c0.2,1.1,0.1,2-0.1,2.9c-0.4,1.7-1,3.1-1.8,4.5c-1.5,2.7-3.6,4.8-5.8,6.8
				c-0.6,0.5-1.2,1-1.8,1.4c-0.6,0.4-1.2,0.8-1.8,1.2c-1.2,0.8-2.3,1.5-3.5,2.3c-2.4,1.5-4.8,2.9-7.2,4.3c-1.2,0.7-2.4,1.4-3.7,2
				c-1.3,0.6-2.6,1.1-3.9,1.7c-1.3,0.6-2.5,1.3-3.8,1.9c-1.3,0.6-2.6,1.1-4.1,1.6c-0.4,0.1-0.7,0.2-1.2,0.2c-0.4,0-0.9,0.1-1.5-0.1
				c-0.2-0.1-0.3-0.1-0.5-0.3c-0.1-0.1-0.4-0.4-0.5-0.7c-0.2-0.7,0-1,0.1-1.3c0.3-0.5,0.5-0.8,0.8-1.2c0.6-0.6,1.3-1.1,2.1-1.4
				c0.8-0.3,1.8-0.5,2.8-0.3c0.5,0.1,1,0.3,1.5,0.6c0.5,0.3,1,0.8,1.2,1.3c0.6,1,0.7,1.9,0.8,2.5c0,0.3,0.1,0.5,0.1,0.6
				c0,0.1,0,0.1,0,0.1c-0.1,0,0.2,0.2,0.6,0.3c0.4,0.1,1,0,1.6,0c0.6-0.1,1.2-0.2,1.9-0.3c1.3-0.3,2.6-0.6,3.8-1
				c2.6-0.8,5.1-1.7,7.6-2.7c1.3-0.5,2.5-1.1,3.7-1.6c1.2-0.6,2.5-1.2,3.7-1.8c1.3-0.6,2.5-1.1,3.8-1.8c0.6-0.3,1.3-0.6,1.9-0.9
				c0.3-0.2,0.6-0.3,1-0.4c0.2,0,0.4-0.1,0.5-0.1c0.2,0,0.4,0,0.8,0.5l0.1,0.3c0.1,0.6,0,0.8-0.1,0.9c-0.1,0.1-0.3,0.3-0.4,0.4
				c-0.3,0.2-0.6,0.4-0.9,0.6c-0.6,0.3-1.2,0.7-1.8,1c-1.2,0.6-2.4,1.3-3.6,2c-1.2,0.7-2.3,1.4-3.6,2.1c-1.3,0.7-2.5,1.3-3.8,1.9
				c-2.6,1.2-5.1,2.3-7.8,3.2c-1.3,0.5-2.7,0.9-4.1,1.3c-0.7,0.2-1.4,0.3-2.2,0.4c-0.8,0.1-1.6,0.2-2.6,0.1
				c-0.5-0.1-0.9-0.1-1.5-0.3c-0.5-0.2-1.1-0.5-1.6-1c-0.5-0.5-0.9-1.2-1-1.7c-0.2-0.6-0.2-1.1-0.2-1.5c0-0.8,0.1-1.3,0.2-1.6
				c0-0.1,0.1-0.2,0-0.4c0-0.1-0.2-0.3-0.4-0.3c-0.7-0.3-1.9,0.1-2.7,0.8c-0.2,0.2-0.4,0.4-0.4,0.5c0,0,0,0,0-0.3
				c0-0.2-0.2-0.4-0.2-0.3c0,0,0,0,0,0c0,0,0.3,0.1,0.5,0c0.3,0,0.6-0.1,0.9-0.2c1.2-0.3,2.4-0.9,3.6-1.6c1.2-0.7,2.3-1.3,3.4-2.2
				c1.1-0.9,2.1-1.8,3.1-2.7c1-0.9,2.2-1.7,3.3-2.5l6.6-5c2.1-1.7,4.5-3.3,6.3-4.8c1.9-1.7,3.8-3.6,5.6-5.3c0.9-0.9,1.7-1.8,2.3-2.7
				c0.3-0.5,0.4-0.9,0.5-1.2c0-0.1,0-0.1,0-0.2c0-0.1-0.1-0.3-0.1-0.4c-0.1-0.2-0.2-0.4-0.2-0.6c-0.2-0.3-0.3-0.4-0.8-0.4
				c-0.4,0-1.1,0-1.7,0.2c-1.2,0.3-2.5,0.8-3.8,1.3c-2.6,1.1-5,2.1-7.3,3.6c-2.3,1.4-4.5,3-6.6,4.8c-2,1.8-3.9,3.9-5.1,6.3
				L52.9,101.3z"/>
		</g>
		<g>
			<path d="M73.7,110.9c0.4-0.5,0.8-0.7,1.3-1l1.4-0.8l2.8-1.5l2.8-1.5l2.8-1.5c3.7-2,7.4-4,11.2-6c1-0.5,2-1,3-1.4
				c0.5-0.2,1.1-0.4,1.8-0.6c0.7-0.1,1.4-0.3,2.4-0.1c0.6,0.2,0.9,0.3,1.2,0.5c0.3,0.2,0.7,0.4,1,0.6c0.7,0.5,1.3,1.2,1.6,2
				c0.8,1.7,0.6,3.4,0.3,4.7c-0.7,2.7-2.1,4.6-3.5,6.5c-0.7,0.9-1.4,1.8-2.2,2.6c-0.7,0.8-1.5,1.6-2.2,2.4c-1.5,1.5-3.2,3-5,4.4
				c-1.8,1.3-3.7,2.7-6.4,3.3c-0.7,0.1-1.4,0.3-2.2,0.2c-0.8,0-1.7-0.2-2.5-0.6c-0.8-0.4-1.4-1.1-1.8-1.8c-0.4-0.7-0.6-1.3-0.7-2
				c-0.1-0.6-0.2-1.2-0.2-1.9c0-0.7,0.1-1.3,0.2-1.9c0.3-1.2,0.7-2.2,1.1-3.2c0.9-2,2-3.9,3.2-5.7c1.1-1.8,2.4-3.6,3.6-5.3
				c2.5-3.5,5-6.9,7.6-10.2c2.6-3.3,5.4-6.5,8.2-9.7l4.1-4.7c1.4-1.6,2.6-3.1,4.1-4.8c2.9-3.2,6.1-6.2,9.6-8.8
				c1.8-1.3,3.6-2.5,5.6-3.5c1-0.5,2-1,3.1-1.4c1.1-0.4,2.3-0.8,3.6-0.9c0.7,0,1.4,0,2.2,0.2c0.8,0.2,1.5,0.6,2.2,1.1
				c0.7,0.5,1.3,1.3,1.7,2.1c0.4,0.8,0.6,1.7,0.6,2.4c0.1,1.6-0.1,2.9-0.5,4.1c-0.4,1.2-0.8,2.3-1.4,3.4c-1,2.1-2.3,4-3.7,5.7
				c-0.7,0.9-1.4,1.7-2.3,2.5c-0.8,0.9-1.7,1.6-2.6,2.3c-1.7,1.4-3.5,2.7-5.3,3.9c-1.8,1.2-3.6,2.4-5.5,3.4
				c-1.8,1.1-3.7,2.1-5.6,3.1l-2.8,1.5c-1,0.4-1.8,1.2-3.2,0.9l-0.5-0.8c0.4-1.4,1.4-1.7,2.2-2.4l2.5-1.9c1.6-1.3,3.3-2.6,4.9-3.9
				c3.2-2.7,6.4-5.4,9.2-8.2c0.7-0.7,1.3-1.4,1.9-2.1c0.6-0.7,1.2-1.5,1.8-2.3c1.2-1.6,2.3-3.2,3.3-4.7c1-1.6,1.8-3.2,2.1-4.3
				c0.1-0.6,0.2-0.8,0-1.2c-0.1-0.2-0.3-0.4-0.5-0.5c-0.2-0.1-0.5-0.2-0.9-0.3c-0.7-0.1-1.6,0.1-2.5,0.3c-0.9,0.3-1.8,0.6-2.7,1.1
				c-1.8,0.9-3.5,2-5.1,3.2c-3.3,2.4-6.3,5.3-8.9,8.4c-1.3,1.5-2.6,3.3-4,4.9c-1.4,1.6-2.7,3.2-4.1,4.8l-8.3,9.5
				c-2.8,3.1-5.5,6.3-8.1,9.6c-2.5,3.3-5,6.7-6.6,10.4c-0.4,0.9-0.7,1.8-0.9,2.7c-0.1,0.4-0.1,0.9-0.1,1.3c0,0.3,0.2,0.8,0.4,1.2
				c0.2,0.4,0.4,0.7,0.6,0.9c0.2,0.2,0.4,0.2,0.6,0.2c0.3,0,0.8-0.3,1.5-0.7c1.3-0.8,2.9-2,4.3-3.3c1.5-1.3,2.9-2.7,4.4-4.1
				c1.5-1.4,2.9-2.9,4.2-4.3c1.3-1.4,2.4-3,2.9-4.3c0.3-0.7,0.4-1.2,0.3-1.5c0-0.2-0.1-0.3-0.2-0.5c-0.1-0.1-0.2-0.2-0.3-0.3
				c-0.1-0.1-0.3-0.2-0.2-0.2c0-0.1-0.3-0.1-0.7-0.1c-0.4,0-0.8,0.1-1.3,0.2c-0.9,0.2-1.9,0.5-2.8,0.9c-3.8,1.5-7.5,3.6-11.3,5.5
				c-1.9,1-3.8,1.9-5.7,2.8l-2.8,1.3l-1.4,0.7c-0.5,0.2-1,0.4-1.5,0.4L73.7,110.9z"/>
		</g>
		<g>
			<path d="M9.8,123.5c1.3-1.9,3.3-2.6,5.1-3.6l5.5-2.8c3.6-1.9,7.3-3.8,10.8-5.8l5.4-3c1.8-1,3.5-2,5.2-3.1
				c3.4-2.3,6.8-4.6,10.3-6.8c6.8-4.5,13.7-9.1,20.3-13.9c1.6-1.2,3.3-2.4,4.8-3.7c1.5-1.3,3-2.7,4.5-4.1c2.9-2.8,5.7-5.8,8.2-8.9
				c1.3-1.6,2.5-3.2,3.5-4.8c0.5-0.8,0.9-1.7,1-2.3c0-0.1,0-0.2,0-0.1c0,0,0,0.1,0.1,0.3c0.1,0.1,0.1,0.1,0.2,0.2
				c0.3,0.1,0,0-0.3,0.2c-0.7,0.2-1.5,0.7-2.3,1.2c-0.8,0.5-1.6,1.1-2.4,1.7c-1.6,1.2-3.1,2.5-4.6,3.8c-3,2.7-5.8,5.6-8.5,8.6
				c-1.2,1.5-2.5,3.1-3.7,4.7c-1.2,1.6-2.5,3.2-3.7,4.9c-5,6.5-9.6,13.3-14.7,19.7c-2.5,3.2-5.1,6.5-7.9,9.5c-1.4,1.5-2.8,3-4.3,4.5
				l-2.2,2.2c-0.3,0.4-0.9,0.6-1.4,0.9c-0.6,0.2-1.1,0.5-1.9,0.5l-0.4-0.3c-0.2-0.8-0.1-1.4-0.1-2c0.1-0.6,0.2-1.2,0.4-1.6l1.6-2.7
				c1-1.8,2.1-3.6,3.2-5.3c2.2-3.5,4.7-6.8,7.2-10c2.5-3.3,5.1-6.5,7.8-9.6l8-9.4c2.7-3.1,5.4-6.2,8.4-9.3c3-3,6.2-5.7,9.5-8.3
				c1.7-1.3,3.4-2.5,5.1-3.7c0.9-0.6,1.8-1.1,2.8-1.6c1-0.5,2-1,3.3-1.3c0.3-0.1,0.7-0.1,1.1-0.1c0.4,0,1,0.1,1.5,0.4
				c0.3,0.2,0.5,0.4,0.8,0.7c0.2,0.3,0.4,0.7,0.4,1c0.1,0.6,0,1-0.1,1.4c-0.4,1.4-1,2.3-1.5,3.2c-1.2,1.8-2.5,3.5-3.8,5.1
				c-2.7,3.2-5.5,6.2-8.5,9.1c-1.5,1.4-3,2.9-4.6,4.2c-1.6,1.4-3.3,2.6-4.9,3.8c-6.7,4.9-13.5,9.5-20.3,14.1
				c-3.4,2.3-6.8,4.6-10.2,6.9c-3.5,2.4-7.1,4.3-10.8,6.3c-3.6,1.9-7.3,3.8-10.9,5.7l-5.5,2.8c-1.8,0.9-3.6,2.1-5.9,2L9.8,123.5z"/>
		</g>
	</g>
</g>
</svg>
