<?xml version="1.0" encoding="utf-8"?>
<!-- Generator: Adobe Illustrator 22.1.0, SVG Export Plug-In . SVG Version: 6.00 Build 0)  -->
<svg version="1.1" xmlns="http://www.w3.org/2000/svg" xmlns:xlink="http://www.w3.org/1999/xlink" x="0px" y="0px"
	 viewBox="0 0 104.3 180" style="enable-background:new 0 0 104.3 180;" xml:space="preserve">
<style type="text/css">
	.st0{display:none;}
	.st1{display:inline;fill:#FF0000;}
</style>
<g id="bg" class="st0">
	<polygon class="st1" points="100.2,0 99.1,0 98.8,0 96.1,0 95,0 94.7,0 93.9,0 93.6,0 93.3,0 90.9,0 90.7,0 89.8,0 89.5,0 89.3,0 
		88.6,0 88.4,0 88.1,0 85.7,0 85.5,0 85.2,0 84.5,0 84.3,0 84.3,0 84.1,0 83.4,0 83.1,0 82.9,0 80.4,0 80.3,0 80.2,0 80,0 79.3,0 
		79.1,0 79,0 78.9,0 78.8,0 78.2,0 77.9,0 77.6,0 76.1,0 75.2,0 75,0 74.9,0 74.8,0 74.7,0 74.1,0 73.9,0 73.8,0 73.6,0 73.5,0 
		73.3,0 72.7,0 72.4,0 70.9,0 70.7,0 70,0 69.8,0 69.7,0 69.5,0 69.5,0 69.3,0 68.6,0 68.6,0 68.4,0 68.3,0 68.1,0 67.2,0 65.7,0 
		65.5,0 65.2,0 65.2,0 64.5,0 64.5,0 64.3,0 64.3,0 64.1,0 63.4,0 63.1,0 63.1,0 62.9,0 61.2,0 60.4,0 60.3,0 60,0 60,0 59.7,0 
		59.3,0 59.1,0 59,0 58.9,0 58.2,0 57.9,0 57.6,0 57.1,0 56,0 55.7,0 55.2,0 54.9,0 54.8,0 54.8,0 54.5,0 54.3,0 54.1,0 53.8,0 
		53.5,0 52.7,0 52.4,0 51.9,0 51.6,0 50.8,0 50.5,0 50.2,0 50,0 49.7,0 49.5,0 49.5,0 49.3,0 49.1,0 48.6,0 48.3,0 47.2,0 46.7,0 
		46.4,0 46.1,0 45.4,0 45.3,0 45.2,0 45,0 44.5,0 44.3,0 44.3,0 44,0 43.9,0 43.1,0 41.4,0 41.2,0 41.2,0 40.9,0 40.2,0 40,0 40,0 
		39.8,0 39.7,0 39.1,0 39.1,0 38.8,0 38.5,0 37.1,0 36.2,0 36,0 35.9,0 35.7,0 35.7,0 35,0 34.8,0 34.8,0 34.5,0 34.5,0 34.3,0 
		33.6,0 33.3,0 31.9,0 31.6,0 31,0 30.8,0 30.7,0 30.5,0 30.4,0 30.2,0 29.6,0 29.5,0 29.3,0 29.3,0 29.1,0 28.1,0 26.7,0 26.4,0 
		26.1,0 25.5,0 25.4,0 25.3,0 25.2,0 25,0 24.3,0 24.1,0 24,0 23.9,0 21.4,0 21.2,0 20.9,0 20.2,0 20,0 20,0 19.8,0 19.1,0 18.8,0 
		18.5,0 16.2,0 15.9,0 15.7,0 15,0 14.8,0 14.5,0 13.6,0 13.3,0 11,0 10.7,0 10.4,0 9.6,0 9.3,0 8.1,0 5.5,0 5.2,0 4.1,0 0,0 0,180 
		4.1,180 5.2,180 5.5,180 8.1,180 9.3,180 9.6,180 10.4,180 10.7,180 11,180 13.3,180 13.6,180 14.5,180 14.8,180 15,180 15.7,180 
		15.9,180 16.2,180 18.5,180 18.8,180 19.1,180 19.8,180 20,180 20,180 20.2,180 20.9,180 21.2,180 21.4,180 23.9,180 24,180 
		24.1,180 24.3,180 25,180 25.2,180 25.3,180 25.4,180 25.5,180 26.1,180 26.4,180 26.7,180 28.1,180 29.1,180 29.3,180 29.3,180 
		29.5,180 29.6,180 30.2,180 30.4,180 30.5,180 30.7,180 30.8,180 31,180 31.6,180 31.9,180 33.3,180 33.6,180 34.3,180 34.5,180 
		34.5,180 34.8,180 34.8,180 35,180 35.7,180 35.7,180 35.9,180 36,180 36.2,180 37.1,180 38.5,180 38.8,180 39.1,180 39.1,180 
		39.7,180 39.8,180 40,180 40,180 40.2,180 40.9,180 41.2,180 41.2,180 41.4,180 43.1,180 43.9,180 44,180 44.3,180 44.3,180 
		44.5,180 45,180 45.2,180 45.3,180 45.4,180 46.1,180 46.4,180 46.7,180 47.2,180 48.3,180 48.6,180 49.1,180 49.3,180 49.5,180 
		49.5,180 49.7,180 50,180 50.2,180 50.5,180 50.8,180 51.6,180 51.9,180 52.4,180 52.7,180 53.5,180 53.8,180 54.1,180 54.3,180 
		54.5,180 54.8,180 54.8,180 54.9,180 55.2,180 55.7,180 56,180 57.1,180 57.6,180 57.9,180 58.2,180 58.9,180 59,180 59.1,180 
		59.3,180 59.7,180 60,180 60,180 60.3,180 60.4,180 61.2,180 62.9,180 63.1,180 63.1,180 63.4,180 64.1,180 64.3,180 64.3,180 
		64.5,180 64.5,180 65.2,180 65.2,180 65.5,180 65.7,180 67.2,180 68.1,180 68.3,180 68.4,180 68.6,180 68.6,180 69.3,180 69.5,180 
		69.5,180 69.7,180 69.8,180 70,180 70.7,180 70.9,180 72.4,180 72.7,180 73.3,180 73.5,180 73.6,180 73.8,180 73.9,180 74.1,180 
		74.7,180 74.8,180 74.9,180 75,180 75.2,180 76.1,180 77.6,180 77.9,180 78.2,180 78.8,180 78.9,180 79,180 79.1,180 79.3,180 
		80,180 80.2,180 80.3,180 80.4,180 82.9,180 83.1,180 83.4,180 84.1,180 84.3,180 84.3,180 84.5,180 85.2,180 85.5,180 85.7,180 
		88.1,180 88.4,180 88.6,180 89.3,180 89.5,180 89.8,180 90.7,180 90.9,180 93.3,180 93.6,180 93.9,180 94.7,180 95,180 96.1,180 
		98.8,180 99.1,180 100.2,180 104.3,180 104.3,0 	"/>
</g>
<g id="figure">
	<g>
		<path d="M9.9,122.2c0-1.2,0.4-1.8,0.8-2.3c0.4-0.5,1-0.7,1.5-1l3.2-1.8l6.4-3.5l12.8-7.1c1.1-0.6,2.1-1.1,3.2-1.8l3.1-1.9l6.2-3.8
			c4.2-2.5,8.4-5,12.6-7.5c2.1-1.2,4.3-2.4,6.3-3.6c2-1.2,4.1-2.6,6-3.9c3.8-2.8,7.4-6,10.8-9.3c1.7-1.7,3.5-3.3,5.1-5
			c1.6-1.7,3.2-3.5,4.3-5.5c0.3-0.5,0.5-1,0.6-1.4c0.2-0.5,0.2-0.9,0.1-1.1c0-0.1-0.1-0.1-0.1-0.1c-0.1,0,0,0-0.1,0
			c-0.2,0-0.6,0.1-1,0.4c-0.9,0.4-1.8,1.1-2.7,1.8c-0.9,0.7-1.8,1.5-2.6,2.3c-6.8,6.6-13.1,14.1-19.3,21.3L66,88.6
			c-0.4,0.5-0.8,1-1.2,1.5c-0.8,0.9-1.6,1.8-2.5,2.7c-1.7,1.8-3.4,3.5-5,5.3c-3.2,3.6-6.3,7.4-9.1,11.1c-1.4,1.9-2.7,3.8-4.1,5.7
			c-0.7,0.9-1.3,1.8-1.8,2.7c-0.3,0.4-0.5,0.8-0.7,1.2c-0.2,0.3-0.2,0.6-0.4,0.3c-0.1-0.1-0.3-0.3-0.5-0.4c-0.2,0-0.1,0,0,0.1
			c0.2,0.1,0.7,0.1,1.2,0.1c1-0.1,2.1-0.4,3.3-0.7c2.2-0.7,4.4-1.8,6.6-2.8c4.3-2.2,8.4-4.8,12.5-7.4l6.1-4l3.1-2l1.5-1
			c0.5-0.4,1-0.7,2-0.3l0.2,0.3c0.1,1.2-0.4,1.6-0.9,1.9l-1.5,1.1c-1,0.7-2,1.5-3,2.1c-2,1.4-4.1,2.7-6.1,4
			c-4.1,2.6-8.4,5.1-12.6,7.5c-2.1,1.2-4.3,2.4-6.6,3.5c-1.2,0.6-2.3,1.1-3.7,1.5c-0.7,0.2-1.4,0.4-2.4,0.4c-0.5,0-1.1-0.1-1.8-0.4
			c-0.7-0.3-1.3-1-1.7-1.7c-0.4-0.7-0.4-1.4-0.5-1.9c0-0.6,0-1,0.1-1.4c0.1-0.9,0.3-1.6,0.5-2.3c0.4-1.4,1-2.6,1.6-3.7
			c1.2-2.3,2.7-4.3,4.2-6.3c3-4,6.2-7.7,9.4-11.5c1.6-1.9,3-3.9,4.6-5.7c0.8-1,1.5-1.9,2.3-2.8l1.1-1.3l1.3-1.4
			c3.3-3.7,6.9-7.1,10.6-10.5c3.7-3.3,7.5-6.5,11.7-9.3c1-0.7,2.1-1.4,3.2-2c1.1-0.6,2.3-1.2,3.7-1.7c0.7-0.2,1.5-0.4,2.5-0.2
			c0.5,0.1,1.2,0.4,1.5,0.8c0.4,0.4,0.7,0.9,0.8,1.4c0.2,1,0,1.8-0.2,2.5c-0.2,0.7-0.5,1.3-0.8,1.9c-1.2,2.3-2.7,4.4-4.2,6.3
			c-1.5,2-3.1,3.9-4.9,5.6c-3.5,3.5-7.1,6.8-11.2,9.8c-1,0.8-2,1.4-3.1,2.1c-1,0.7-2.1,1.4-3.1,2c-2.1,1.3-4.2,2.5-6.3,3.7
			c-8.4,4.9-16.5,10.2-25.1,15l-12.8,7l-6.4,3.5l-3.2,1.8c-0.5,0.3-1,0.6-1.7,0.7c-0.6,0.1-1.3,0.1-2.4-0.5L9.9,122.2z"/>
	</g>
</g>
</svg>
