<?xml version="1.0" encoding="utf-8"?>
<!-- Generator: Adobe Illustrator 22.1.0, SVG Export Plug-In . SVG Version: 6.00 Build 0)  -->
<svg version="1.1" xmlns="http://www.w3.org/2000/svg" xmlns:xlink="http://www.w3.org/1999/xlink" x="0px" y="0px"
	 viewBox="0 0 114.1 180" style="enable-background:new 0 0 114.1 180;" xml:space="preserve">
<style type="text/css">
	.st0{display:none;}
	.st1{display:inline;fill:#FF0000;}
</style>
<g id="bg" class="st0">
	<polygon class="st1" points="108.6,0 107,0 106.6,0 103,0 101.4,0 101,0 99.9,0 99.5,0 99.1,0 95.8,0 95.4,0 94.3,0 94.1,0 93.9,0 
		93.5,0 92.3,0 92,0 88.7,0 88.6,0 88.3,0 87.9,0 87,0 86.7,0 86.6,0 86.4,0 84.8,0 83,0 81.4,0 81.2,0 81,0 80.8,0 79.9,0 79.5,0 
		79.2,0 79.1,0 75.8,0 75.4,0 74.3,0 73.9,0 73.6,0 73.5,0 72.3,0 72,0 68.7,0 68.3,0 67.9,0 66.7,0 66.4,0 64.8,0 61.2,0 60.8,0 
		60.5,0 59.2,0 54.9,0 53.6,0 53.4,0 53,0 49.3,0 47.8,0 47.4,0 46.2,0 45.8,0 45.5,0 42.2,0 41.8,0 40.6,0 40.5,0 40.3,0 39.9,0 
		38.7,0 38.3,0 35,0 34.9,0 34.7,0 34.3,0 33.4,0 33.1,0 33,0 32.7,0 31.2,0 29.3,0 27.8,0 27.5,0 27.4,0 27.1,0 26.2,0 25.8,0 
		25.6,0 25.5,0 22.2,0 21.8,0 20.6,0 20.3,0 20,0 19.9,0 18.7,0 18.3,0 15,0 14.7,0 14.3,0 13.1,0 12.7,0 11.2,0 7.5,0 7.1,0 5.6,0 
		0,0 0,180 5.6,180 7.1,180 7.5,180 11.2,180 12.7,180 13.1,180 14.3,180 14.7,180 15,180 18.3,180 18.7,180 19.9,180 20,180 
		20.3,180 20.6,180 21.8,180 22.2,180 25.5,180 25.6,180 25.8,180 26.2,180 27.1,180 27.4,180 27.5,180 27.8,180 29.3,180 31.2,180 
		32.7,180 33,180 33.1,180 33.4,180 34.3,180 34.7,180 34.9,180 35,180 38.3,180 38.7,180 39.9,180 40.3,180 40.5,180 40.6,180 
		41.8,180 42.2,180 45.5,180 45.8,180 46.2,180 47.4,180 47.8,180 49.3,180 53,180 53.4,180 53.6,180 54.9,180 59.2,180 60.5,180 
		60.8,180 61.2,180 64.8,180 66.4,180 66.7,180 67.9,180 68.3,180 68.7,180 72,180 72.3,180 73.5,180 73.6,180 73.9,180 74.3,180 
		75.4,180 75.8,180 79.1,180 79.2,180 79.5,180 79.9,180 80.8,180 81,180 81.2,180 81.4,180 83,180 84.8,180 86.4,180 86.6,180 
		86.7,180 87,180 87.9,180 88.3,180 88.6,180 88.7,180 92,180 92.3,180 93.5,180 93.9,180 94.1,180 94.3,180 95.4,180 95.8,180 
		99.1,180 99.5,180 99.9,180 101,180 101.4,180 103,180 106.6,180 107,180 108.6,180 114.1,180 114.1,0 	"/>
</g>
<g id="figure">
	<g>
		<path d="M77.4,60.1c-0.6,0.6-1.1,0.8-1.6,0.8c-0.4,0-0.9-0.2-1.3-0.2c-0.9-0.2-1.7-0.3-2.6-0.4c-1.7-0.2-3.5-0.3-5.3-0.3
			c-3.5,0-7,0.5-10.3,1.5c-1.6,0.5-3.2,1.2-4.7,2c-0.7,0.4-1.5,0.8-2.2,1.3l-1,0.7c-0.3,0.2-0.6,0.6-1,0.8c-2.6,2.3-5,4.9-6.7,7.8
			c-1.7,2.9-2.7,6.1-2.3,9.2c0.4,3.1,2.2,5.9,4.8,7.7c1.3,0.9,2.8,1.6,4.3,1.9c0.7,0.2,1.5,0.2,2.2,0.2c0.9-0.1,1.7-0.1,2.6-0.2
			c3.5-0.4,6.9-1.1,10.3-2.1c3.4-1,6.7-2.2,9.9-3.7c3.2-1.4,6.3-3.2,9.3-5.1c3-1.9,5.9-4,8.6-6.2c2.8-2.2,5.4-4.6,7.7-7.2
			c0.6-0.7,1.1-1.3,1.7-2c0.5-0.7,1.1-1.4,1.5-2.1c0.8-1.4,1.5-2.9,1.3-4c-0.1-0.5-0.4-1-0.9-1.3c-0.5-0.3-1.3-0.5-2-0.6
			c-1.6-0.1-3.3,0.3-4.8,0.9C91.7,61,88.8,63,86,65.1c-2.8,2.2-5.4,4.5-7.8,7l-1.9,2c-0.6,0.6-1.1,1.2-1.6,1.9c-1,1.3-2,2.7-3,4.1
			C69.8,83,68,86.1,65.9,89c-2,3-4.1,6-6.4,8.9c-2.3,2.9-4.9,5.6-7.6,8.3c-2.7,2.6-5.5,5.2-8.7,7.4c-1.5,1.1-3.2,2.1-4.9,3.1
			c-1.7,0.9-3.5,1.7-5.3,2.3c-3.6,1.1-7.2,2.1-10.9,2.6c-1.9,0.3-3.7,0.5-5.7,0.4c-1.9-0.1-3.9-0.2-6-1.4c-0.5-0.3-1-0.8-1.4-1.4
			c-0.4-0.6-0.5-1.3-0.6-2c-0.1-1.4,0.6-2.7,1.4-3.6c1.6-1.8,3.7-2.6,5.7-3.1c2-0.5,4-0.7,6-0.7c2,0,4.1,0.2,6.1,0.8
			c2,0.6,3.8,1.5,5.4,2.4c1.6,0.9,3.1,1.8,4.5,2.3c1.4,0.6,2.7,0.9,4.3,1c1.6,0.1,3.3,0.1,4.9-0.1c3.3-0.3,6.6-1.1,9.9-2.3
			c3.2-1.1,6.5-2.6,9.5-4.3c3-1.7,6.1-3.7,9.1-5.7c1.5-1,3-2,4.5-3.1l2.2-1.6c0.8-0.5,1.2-1.3,2.8-0.8l0.2,0.2
			c0.2,1.7-0.8,1.9-1.4,2.6l-2.1,1.8c-1.4,1.2-2.8,2.4-4.2,3.5c-2.8,2.3-5.7,4.6-8.8,6.7c-3.2,2.1-6.4,3.9-9.9,5.5
			c-3.5,1.5-7.2,2.7-11.1,3.2c-1.9,0.3-3.9,0.4-5.9,0.3l-0.7,0l-0.8-0.1c-0.5,0-1.1-0.1-1.6-0.2c-1.1-0.2-2.1-0.5-3.1-0.8
			c-2-0.7-3.7-1.7-5.3-2.5c-1.6-0.8-3-1.5-4.4-2.1c-1.4-0.6-2.9-1.1-4.5-1.4c-1.6-0.3-3.2-0.4-4.8-0.3c-1.5,0.2-3.1,0.5-4.2,1.2
			c-0.5,0.3-0.8,0.7-0.9,1.2c0,0.3,0,0.5,0.1,0.6c0.1,0.2,0.3,0.4,0.5,0.6c1.1,0.7,2.9,0.9,4.5,0.9c1.7,0,3.4-0.3,5.1-0.7
			c3.4-0.7,6.8-1.9,10-3.4c1.6-0.7,3-1.6,4.4-2.5c1.4-1,2.8-2,4-3.2c2.6-2.3,4.9-4.9,6.9-7.7c2.1-2.8,3.9-5.8,5.8-8.8
			c1.9-3,3.8-6,6-9c2.1-3,4.3-5.9,6.8-8.8c1.3-1.4,2.6-2.8,4.1-4.1c0.7-0.7,1.5-1.3,2.3-1.9l2.2-1.7c3-2.3,6-4.4,9.3-6.3
			c3.3-1.8,6.8-3.3,10.5-4.3c1.9-0.5,3.8-0.8,5.8-0.8c1,0.1,2.1,0.2,3.2,0.8c1.1,0.5,2,1.6,2.4,2.9c0.3,1.2,0.2,2.4-0.1,3.5
			c-0.3,1-0.7,2-1.2,2.9c-0.5,0.9-1.1,1.6-1.6,2.4c-0.6,0.8-1.1,1.5-1.7,2.2c-4.9,5.7-10.7,10.4-16.9,14.4c-3.1,2-6.4,3.8-9.8,5.3
			c-3.4,1.5-6.9,2.8-10.4,3.8c-3.6,1-7.2,1.8-11,2.2c-0.9,0.1-1.9,0.2-2.8,0.2c-1.1,0-2.2-0.1-3.2-0.3c-2-0.5-3.9-1.3-5.6-2.5
			c-3.3-2.3-5.8-6-6.3-10.2c-0.3-2.1-0.1-4.1,0.5-6.1c0.5-1.9,1.4-3.7,2.4-5.4c2-3.3,4.7-6,7.5-8.5c3-2.6,6.5-4.2,10.2-5.3
			c3.7-1,7.4-1.4,11.2-1.4c1.9,0,3.7,0.2,5.6,0.5c0.9,0.1,1.8,0.3,2.8,0.5c0.5,0.1,0.9,0.2,1.4,0.4C76.8,58.8,77.2,59.2,77.4,60.1
			L77.4,60.1z"/>
	</g>
</g>
</svg>
