<?xml version="1.0" encoding="utf-8"?>
<!-- Generator: Adobe Illustrator 22.1.0, SVG Export Plug-In . SVG Version: 6.00 Build 0)  -->
<svg version="1.1" xmlns="http://www.w3.org/2000/svg" xmlns:xlink="http://www.w3.org/1999/xlink" x="0px" y="0px"
	 viewBox="0 0 159.7 180" style="enable-background:new 0 0 159.7 180;" xml:space="preserve">
<style type="text/css">
	.st0{display:none;}
	.st1{display:inline;fill:#FF0000;}
</style>
<g id="bg" class="st0">
	<polygon class="st1" points="151.4,0 149.1,0 148.5,0 143.1,0 140.8,0 140.2,0 139.7,0 138.5,0 137.9,0 137.3,0 132.5,0 131.9,0 
		131.4,0 130.2,0 129.6,0 129.1,0 129,0 128.5,0 127.3,0 126.7,0 123.1,0 121.9,0 121.3,0 120.8,0 120.8,0 120.2,0 119,0 118.5,0 
		118.5,0 117.9,0 117.3,0 116.2,0 112.5,0 111.9,0 110.7,0 110.2,0 110.2,0 109.6,0 109,0 107.9,0 107.3,0 106.7,0 101.9,0 101.3,0 
		100.8,0 99.6,0 99,0 98.5,0 96.2,0 90.7,0 90.2,0 87.9,0 80.1,0 79.6,0 71.8,0 69.5,0 68.9,0 63.5,0 61.2,0 60.6,0 60.1,0 58.9,0 
		58.3,0 57.8,0 52.9,0 52.4,0 51.8,0 50.6,0 50.1,0 49.5,0 49.5,0 48.9,0 47.8,0 47.2,0 43.5,0 42.3,0 41.8,0 41.2,0 41.2,0 40.6,0 
		39.5,0 38.9,0 38.9,0 38.3,0 37.8,0 36.6,0 32.9,0 32.4,0 31.2,0 30.6,0 30.6,0 30.1,0 29.5,0 28.3,0 27.8,0 27.2,0 22.3,0 21.8,0 
		21.2,0 20,0 19.5,0 18.9,0 16.6,0 11.2,0 10.6,0 8.3,0 0,0 0,180 8.3,180 10.6,180 11.2,180 16.6,180 18.9,180 19.5,180 20,180 
		21.2,180 21.8,180 22.3,180 27.2,180 27.8,180 28.3,180 29.5,180 30.1,180 30.6,180 30.6,180 31.2,180 32.4,180 32.9,180 36.6,180 
		37.8,180 38.3,180 38.9,180 38.9,180 39.5,180 40.6,180 41.2,180 41.2,180 41.8,180 42.3,180 43.5,180 47.2,180 47.8,180 48.9,180 
		49.5,180 49.5,180 50.1,180 50.6,180 51.8,180 52.4,180 52.9,180 57.8,180 58.3,180 58.9,180 60.1,180 60.6,180 61.2,180 63.5,180 
		68.9,180 69.5,180 71.8,180 79.6,180 80.1,180 87.9,180 90.2,180 90.7,180 96.2,180 98.5,180 99,180 99.6,180 100.8,180 101.3,180 
		101.9,180 106.7,180 107.3,180 107.9,180 109,180 109.6,180 110.2,180 110.2,180 110.7,180 111.9,180 112.5,180 116.2,180 
		117.3,180 117.9,180 118.5,180 118.5,180 119,180 120.2,180 120.8,180 120.8,180 121.3,180 121.9,180 123.1,180 126.7,180 
		127.3,180 128.5,180 129,180 129.1,180 129.6,180 130.2,180 131.4,180 131.9,180 132.5,180 137.3,180 137.9,180 138.5,180 
		139.7,180 140.2,180 140.8,180 143.1,180 148.5,180 149.1,180 151.4,180 159.7,180 159.7,0 	"/>
</g>
<g id="figure">
	<g>
		<g>
			<path d="M10,94.5c-0.2-1.5,0.5-2.3,1.2-2.9l2-2.1l4.1-4.1c2.8-2.7,5.7-5.3,8.6-7.8c2.9-2.5,5.9-5,9.1-7.4
				c1.6-1.2,3.2-2.3,4.8-3.4c1.7-1.1,3.4-2,5.1-2.9c3.5-1.8,6.9-3.5,10.7-4.9c3.7-1.4,7.6-2.5,11.9-2c0.6,0.1,1.1,0.2,1.7,0.3
				c0.6,0.2,1.2,0.5,1.8,0.9c1.1,0.8,1.9,2.1,2.3,3.3c0.9,2.4,0.9,4.8,0.7,7c-0.4,4.5-2,8.4-4.4,12c-2.3,3.5-4.7,6.5-7.2,9.6
				c-2.5,3-5.2,5.9-7.9,8.8c-2.7,2.8-5.5,5.6-8.5,8.3l-2.2,2l-2.3,1.9c-0.8,0.6-1.6,1.3-2.4,1.8c-0.8,0.5-1.7,1.1-2.5,1.6
				c-1.7,1.1-3.4,2.1-5.1,3.1c-1.7,1-3.5,2-5.3,2.8c-1.9,0.8-3.8,1.6-6,1.9c-1.1,0.2-2.3,0.2-3.6-0.2c-1.3-0.3-2.6-1.4-3.2-2.6
				c-0.3-0.6-0.5-1.2-0.6-1.8c-0.1-0.6-0.2-1.1-0.2-1.9c0.1-1.3,0.5-2.4,0.9-3.3c0.9-1.9,1.9-3.6,3.1-5.2c2.3-3.2,4.8-6.2,7.4-9.2
				c5.2-5.8,10.7-11.3,16.9-16.1c3.1-2.4,6.3-4.6,9.6-6.7c3.3-2.1,6.8-3.9,10.1-5.7c6.8-3.7,13.5-7.7,21.1-9.8
				c1.9-0.6,3.8-0.9,5.8-1.2l5.7-0.9c3.9-0.5,7.7-0.9,11.8-0.8c2,0.1,4.1,0.3,6.3,1.4c1.1,0.6,2,1.5,2.7,2.6
				c0.3,0.6,0.6,1.2,0.8,1.8c0.2,0.6,0.3,1.1,0.4,1.7c0.4,2.3,0.2,4.7-0.4,6.9c-0.6,2.2-1.4,4.2-2.4,6c-2,3.7-4.3,6.8-6.3,10
				c-0.5,0.8-1.2,1.7-1.8,2.5c-0.6,0.8-1.2,1.6-1.9,2.4c-1.3,1.6-2.6,3-3.9,4.5c-2.7,2.9-5.5,5.7-8.5,8.4c-2.9,2.7-6,5.2-9.3,7.5
				c-3.3,2.3-6.7,4.4-10.4,6.1c-1.9,0.9-3.8,1.6-5.8,2.2c-2,0.5-4.2,0.9-6.6,0.6l-0.1,0l0,0c-0.9-0.2-1.8-0.5-2.7-1.2
				c-0.9-0.6-1.6-1.7-1.9-2.8c-0.3-1.1-0.2-2.1,0-2.9c0.2-0.9,0.5-1.6,0.8-2.4c1.3-2.9,3-5.3,4.8-7.6c3.7-4.6,7.6-8.8,11.7-12.9
				c4.1-4,8.3-8,12.6-11.8c2.2-1.9,4.3-3.8,6.6-5.6c1.1-0.9,2.2-1.8,3.4-2.7c1.1-0.9,2.4-1.8,3.5-2.6c4.8-3.3,9.7-6.3,15-8.8
				c2.7-1.2,5.4-2.3,8.3-2.9c1.5-0.3,2.9-0.5,4.5-0.7c1.5-0.1,3.1-0.2,4.7,0c0.4,0,0.8,0.1,1.3,0.2c0.2,0.1,0.5,0.1,0.7,0.2
				c0.3,0.1,0.5,0.3,0.7,0.4c0.5,0.3,0.9,0.7,1.4,1.3c0.4,0.6,0.7,1.4,0.7,2.1c0.1,1.4-0.3,2.3-0.5,3.1c-0.2,0.7-0.4,1.3-0.5,1.6
				c0,0.1,0,0.2,0,0.1c0,0-0.1-0.1-0.1,0c-0.1,0.1,0.2,0.6,0.4,0.9c0.6,0.7,1.7,0.5,2.9,0.2c1.2-0.4,2.4-1,3.5-1.7
				c1.1-0.8,2.2-1.6,3.3-2.5c1.1-0.9,2.1-1.9,3.1-2.8l1.5-1.5c0.5-0.5,0.8-1.1,2-1.1l0.3,0.3c0.3,1.2-0.4,1.6-0.8,2.2
				c-0.4,0.6-0.9,1.2-1.4,1.7c-0.9,1.1-2,2.2-3,3.2c-2.2,2-4.5,3.9-7.5,5.2c-0.8,0.3-1.6,0.6-2.5,0.7c-0.9,0.1-1.9,0.1-3-0.2
				c-1.1-0.3-2-0.7-2.9-1.7c-0.4-0.5-0.8-1.3-0.9-2c-0.1-0.7-0.1-1.4,0.1-2c0.3-1.1,0.7-1.9,1-2.5c0.3-0.6,0.5-1,0.6-1.1
				c0,0,0.1,0.1,0.2,0c0,0,0-0.1-0.1-0.3c-0.1-0.2-0.6-0.6-1.2-0.8c-1.1-0.5-2.5-0.7-3.8-0.7c-1.3,0-2.7,0.2-4,0.6
				c-2.7,0.6-5.3,1.6-7.9,2.7c-5.2,2.3-10,5.3-14.6,8.6c-1.2,0.8-2.3,1.6-3.4,2.5c-1.1,0.9-2.2,1.8-3.3,2.7
				c-2.2,1.8-4.3,3.7-6.5,5.6c-4.2,3.8-8.4,7.7-12.4,11.8c-4,4.1-7.9,8.3-11.2,12.8c-1.6,2.3-3.2,4.6-4.1,7
				c-0.5,1.2-0.7,2.4-0.5,3.1c0.1,0.3,0.2,0.5,0.5,0.7c0.3,0.2,0.8,0.3,1.3,0.4l-0.2,0c1.5,0.1,3.2-0.2,4.8-0.8
				c1.6-0.6,3.2-1.5,4.8-2.4c3.1-1.9,6-4.3,8.8-6.8c5.6-5,10.8-10.5,15.5-16.3c2.3-2.9,4.7-5.9,6.7-8.9c2.3-3.3,4.7-6.3,6.7-9.2
				c2.1-2.9,4.1-5.6,4.6-8.7c0.1-0.4,0.1-0.8,0.1-1.1c0-0.3,0-0.7-0.1-1c-0.1-0.6-0.4-1.2-1-1.7c-1.1-1.1-2.9-1.7-4.7-1.9
				c-1.8-0.3-3.7-0.2-5.6-0.1c-1.9,0.1-3.8,0.3-5.7,0.5l-5.7,0.7c-1.9,0.3-3.8,0.6-5.6,1.1c-7.4,2.1-14.1,5.9-20.8,9.7
				c-6.9,3.6-13.4,7.7-19.3,12.5c-5.9,4.9-11.2,10.5-16.2,16.3c-2.5,2.9-4.8,6-6.9,9.1c-1,1.6-2,3.2-2.6,4.8
				c-0.3,0.8-0.6,1.6-0.6,2.2c0,0.2,0.1,0.7,0.2,1c0.1,0.4,0.2,0.7,0.4,0.9c0.3,0.5,0.7,0.7,1.3,0.9c0.6,0.1,1.3,0.1,2.1-0.1
				c1.6-0.3,3.3-1.1,4.9-1.9c3.2-1.7,6.3-4,9.1-6.5l4.1-3.8l2-2l1.9-2.1c2.6-2.8,5-5.7,7.4-8.6c2.4-2.9,4.8-5.9,7.1-8.9
				c2.3-3,4.6-6,6.6-9c0.9-1.4,1.8-2.9,2.6-4.5c0.9-1.5,1.7-3,2.5-4.6c0.7-1.5,1.4-3.1,1.4-4.5c0-1.4-0.4-2.3-2.2-2.8
				c-1.6-0.5-3.5-0.4-5.3-0.2c-1.8,0.3-3.7,0.8-5.5,1.4c-3.6,1.3-7.1,2.9-10.4,4.7c-1.7,0.9-3.4,1.8-4.9,2.9
				c-1.6,1.1-3.1,2.2-4.6,3.4c-3,2.4-5.9,5-8.7,7.6c-2.8,2.6-5.7,5.2-8.4,7.9l-4.2,4l-2.1,2C12.3,94,11.5,94.6,10,94.5z"/>
		</g>
		<g>
			<path d="M137.3,101.8c-0.6,1.3-1.6,2.1-2.5,2.9l-3,2.3c-2,1.5-4,3-6.1,4.4c-2,1.5-4.1,2.9-6.2,4.3c-2.1,1.4-4.1,2.8-6.3,4.2
				l-1.7,1c-0.6,0.3-1.2,0.6-1.9,0.9c-0.7,0.3-1.3,0.6-2.1,0.7c-0.4,0.1-0.7,0.2-1.2,0.3c-0.4,0.1-0.8,0.2-1.3,0.1
				c-0.5,0-0.9,0-1.5-0.2c-0.3-0.1-0.5-0.1-0.8-0.2c-0.3-0.1-0.5-0.3-0.8-0.4c-0.5-0.3-1-0.7-1.4-1.1c-0.3-0.4-0.7-1-0.9-1.4
				c-0.9-2-0.9-3.7-0.8-5.3c0-0.4,0.1-0.8,0.2-1.2c0.1-0.4,0.2-0.9,0.3-1.2c0.1-0.4,0.2-0.8,0.3-1.1l0.4-1c0.6-1.3,1.2-2.5,1.9-3.7
				c1.4-2.3,3-4.3,4.6-6.3c3.2-4,6.5-7.8,9.8-11.5c1.7-1.9,3.3-3.8,5-5.6c1.7-1.9,3.5-3.7,5.4-5.4c7.3-6.9,14.8-13.5,22.6-19.9
				L150,58c-6.2,7.8-12.9,15.4-19.3,22.9c-3.2,3.8-6.1,7.6-9.2,11.6c-3,4-6.1,7.9-9,11.8c-1.4,2-2.8,4-4.1,5.9
				c-0.6,1-1.3,1.9-1.8,2.8l-0.4,0.7c-0.1,0.2-0.2,0.4-0.3,0.6c-0.1,0.2-0.2,0.4-0.3,0.6c-0.1,0.2-0.2,0.4-0.2,0.6
				c-0.3,0.9-0.4,1.7-0.4,2.1c0,0.1,0,0.1,0,0.1c0,0,0,0.1,0,0.1c0,0-0.1,0.1,0,0.1c0,0,0,0,0,0.1c0,0,0.1,0,0.1,0.1
				c0,0.1,0.2,0.1,0.4,0.1c0.7,0.2,1.7,0,2.8-0.3c0.5-0.1,1.1-0.4,1.6-0.6l1.6-0.7c1.1-0.5,2.1-1.1,3.2-1.7c1.1-0.6,2.1-1.3,3.2-1.9
				c2.1-1.3,4.2-2.6,6.3-4l6.3-4l3.2-2c1-0.7,2.1-1.3,3.6-1.4L137.3,101.8z"/>
		</g>
	</g>
</g>
</svg>
