<?xml version="1.0" encoding="utf-8"?>
<!-- Generator: Adobe Illustrator 22.1.0, SVG Export Plug-In . SVG Version: 6.00 Build 0)  -->
<svg version="1.1" xmlns="http://www.w3.org/2000/svg" xmlns:xlink="http://www.w3.org/1999/xlink" x="0px" y="0px"
	 viewBox="0 0 97.3 180" style="enable-background:new 0 0 97.3 180;" xml:space="preserve">
<style type="text/css">
	.st0{display:none;}
	.st1{display:inline;fill:#FF0000;}
</style>
<g id="bg" class="st0">
	<polygon class="st1" points="93.6,0 92.6,0 92.3,0 89.9,0 88.8,0 88.6,0 87.8,0 87.5,0 87.3,0 85.1,0 84.8,0 84.1,0 83.8,0 83.5,0 
		82.9,0 82.8,0 82.5,0 80.3,0 80.1,0 79.8,0 79.2,0 79,0 78.8,0 78.1,0 77.9,0 77.7,0 77.3,0 75.4,0 75.3,0 75,0 74.4,0 74.1,0 
		74,0 73.6,0 73.4,0 73.1,0 72.8,0 72.6,0 72.3,0 70.7,0 70.4,0 70.3,0 69.9,0 69.6,0 69.4,0 69.1,0 68.8,0 68.6,0 68.3,0 68.1,0 
		67.8,0 67.5,0 67.3,0 65.9,0 65.6,0 65.4,0 65.1,0 64.8,0 64.6,0 64.3,0 64.1,0 63.8,0 63.5,0 63.3,0 62.9,0 62.8,0 62.5,0 61.5,0 
		60.9,0 60.6,0 60.3,0 60.1,0 59.8,0 59.6,0 59.2,0 59,0 58.8,0 58.1,0 57.9,0 57.8,0 57.7,0 56.7,0 56.5,0 55.8,0 55.4,0 55.3,0 
		55,0 54.4,0 54.1,0 54,0 54,0 53.4,0 53.1,0 53,0 52.8,0 52.7,0 52,0 51.7,0 51.4,0 50.7,0 50.4,0 50.3,0 49.6,0 49.4,0 49.3,0 
		49.1,0 49,0 48.3,0 48.2,0 48.1,0 48,0 47.7,0 47.1,0 46.9,0 46.7,0 45.9,0 45.6,0 45.4,0 44.6,0 44.5,0 44.3,0 44.2,0 44,0 
		43.3,0 43.3,0 43.2,0 42.9,0 42.3,0 42,0 41.9,0 41.5,0 40.9,0 40.6,0 39.6,0 39.6,0 39.5,0 39.2,0 38.6,0 38.3,0 38.2,0 37.8,0 
		37.5,0 37.3,0 37,0 36.7,0 36.5,0 35.8,0 34.8,0 34.6,0 34.4,0 34,0 33.8,0 33.5,0 33.3,0 33,0 32.7,0 32.5,0 32.2,0 32,0 31.7,0 
		31.4,0 30.1,0 29.8,0 29.5,0 29.3,0 29,0 28.8,0 28.5,0 28.2,0 28,0 27.7,0 27.5,0 27.1,0 26.9,0 26.7,0 25,0 24.8,0 24.5,0 
		24.2,0 24,0 23.7,0 23.3,0 23.2,0 22.9,0 22.3,0 22,0 21.9,0 20,0 19.6,0 19.5,0 19.2,0 18.6,0 18.3,0 18.2,0 17.5,0 17.3,0 17,0 
		14.8,0 14.6,0 14.4,0 13.8,0 13.5,0 13.3,0 12.5,0 12.2,0 10.1,0 9.8,0 9.5,0 8.8,0 8.5,0 7.5,0 5,0 4.8,0 3.7,0 0,0 0,180 
		3.7,180 4.8,180 5,180 7.5,180 8.5,180 8.8,180 9.5,180 9.8,180 10.1,180 12.2,180 12.5,180 13.3,180 13.5,180 13.8,180 14.4,180 
		14.6,180 14.8,180 17,180 17.3,180 17.5,180 18.2,180 18.3,180 18.6,180 19.2,180 19.5,180 19.6,180 20,180 21.9,180 22,180 
		22.3,180 22.9,180 23.2,180 23.3,180 23.7,180 24,180 24.2,180 24.5,180 24.8,180 25,180 26.7,180 26.9,180 27.1,180 27.5,180 
		27.7,180 28,180 28.2,180 28.5,180 28.8,180 29,180 29.3,180 29.5,180 29.8,180 30.1,180 31.4,180 31.7,180 32,180 32.2,180 
		32.5,180 32.7,180 33,180 33.3,180 33.5,180 33.8,180 34,180 34.4,180 34.6,180 34.8,180 35.8,180 36.5,180 36.7,180 37,180 
		37.3,180 37.5,180 37.8,180 38.2,180 38.3,180 38.6,180 39.2,180 39.5,180 39.6,180 39.6,180 40.6,180 40.9,180 41.5,180 41.9,180 
		42,180 42.3,180 42.9,180 43.2,180 43.3,180 43.3,180 44,180 44.2,180 44.3,180 44.5,180 44.6,180 45.4,180 45.6,180 45.9,180 
		46.7,180 46.9,180 47.1,180 47.7,180 48,180 48.1,180 48.2,180 48.3,180 49,180 49.1,180 49.3,180 49.4,180 49.6,180 50.3,180 
		50.4,180 50.7,180 51.4,180 51.7,180 52,180 52.7,180 52.8,180 53,180 53.1,180 53.4,180 54,180 54,180 54.1,180 54.4,180 55,180 
		55.3,180 55.4,180 55.8,180 56.5,180 56.7,180 57.7,180 57.8,180 57.9,180 58.1,180 58.8,180 59,180 59.2,180 59.6,180 59.8,180 
		60.1,180 60.3,180 60.6,180 60.9,180 61.5,180 62.5,180 62.8,180 62.9,180 63.3,180 63.5,180 63.8,180 64.1,180 64.3,180 64.6,180 
		64.8,180 65.1,180 65.4,180 65.6,180 65.9,180 67.3,180 67.5,180 67.8,180 68.1,180 68.3,180 68.6,180 68.8,180 69.1,180 69.4,180 
		69.6,180 69.9,180 70.3,180 70.4,180 70.7,180 72.3,180 72.6,180 72.8,180 73.1,180 73.4,180 73.6,180 74,180 74.1,180 74.4,180 
		75,180 75.3,180 75.4,180 77.3,180 77.7,180 77.9,180 78.1,180 78.8,180 79,180 79.2,180 79.8,180 80.1,180 80.3,180 82.5,180 
		82.8,180 82.9,180 83.5,180 83.8,180 84.1,180 84.8,180 85.1,180 87.3,180 87.5,180 87.8,180 88.6,180 88.8,180 89.9,180 92.3,180 
		92.6,180 93.6,180 97.3,180 97.3,0 	"/>
</g>
<g id="figure">
	<g>
		<path d="M9.9,123.2c0-1.1,0.6-1.3,1.1-1.6l1.4-0.9l2.9-1.7c1.9-1.2,3.9-2.3,5.8-3.4c3.9-2.3,7.8-4.5,11.7-6.7l11.8-6.6
			c2-1.1,4-2.1,6-3.2c2-1,4-2.1,6.2-2.8l0.7-0.2l0,1c0,0.9-0.2,1.7-0.5,2.5c-0.3,0.7-0.6,1.4-1,2.1c-0.8,1.3-1.7,2.4-2.6,3.5l-5.4,7
			c-1.8,2.3-3.7,4.5-5.7,6.7c-0.5,0.5-1,1.1-1.5,1.6c-0.5,0.5-1.1,1-1.8,1.3l-2.1,1.1c-0.7,0.4-1.5,0.7-2.4,0.9l-0.6-0.8
			c1.4-1.7,3.1-2.9,4.8-4.1c1.7-1.1,3.6-2.1,5.3-3.2l10.5-6.7c3.5-2.3,7-4.5,10.5-6.7c3.5-2.3,7.2-4.2,11.1-5.7l0.9-0.4l-0.3,1.1
			c-0.2,0.8-0.5,1.5-0.7,2.3c-0.1,0.4-0.2,0.8-0.4,1.1c-0.1,0.4-0.4,0.6-0.6,0.9l-2.7,3.4c-1.8,2.3-3.7,4.5-5.6,6.7
			c-1.9,2.2-3.8,4.4-5.8,6.5c-1,1.1-2,2.1-3.1,3.1c-0.3,0.2-0.5,0.5-0.8,0.7c-0.3,0.2-0.7,0.3-1.1,0.4c-0.8,0.2-1.6,0.5-2.5,0.7
			l-0.6-0.8c1.8-3.4,5.1-4.6,8-6.2c2.9-1.7,5.8-3.5,8.6-5.2c2.9-1.8,5.7-3.5,8.6-5.3c1.4-0.9,2.9-1.7,4.4-2.6l2.2-1.2l1.1-0.6
			c0.2-0.1,0.4-0.2,0.7-0.1c0.2,0,0.6,0.1,0.9,0.3l0.1,0.2c0,0.4,0,0.7-0.2,1c-0.1,0.2-0.2,0.4-0.4,0.5l-1,0.7l-2.1,1.4
			c-1.4,0.9-2.8,1.9-4.2,2.8c-2.8,1.8-5.7,3.6-8.5,5.4c-2.9,1.8-5.7,3.6-8.5,5.4c-2.8,1.9-5.3,4.3-9.1,4.4l-0.7,0l0-0.8
			c0-0.9,0.2-1.7,0.4-2.6c0.1-0.4,0.1-0.8,0.3-1.2c0.2-0.3,0.4-0.6,0.6-0.9c0.9-1.2,1.8-2.3,2.7-3.4c1.9-2.2,3.9-4.3,5.9-6.4
			c2-2.1,4-4.2,6-6.3l3.1-3c0.3-0.2,0.5-0.5,0.8-0.7c0.3-0.2,0.7-0.3,1.1-0.5c0.8-0.3,1.5-0.6,2.2-0.9l0.6,0.8
			c-3.1,2.9-6.5,5.4-10,7.5c-3.5,2.2-7.1,4.4-10.6,6.6l-10.7,6.5c-1.8,1.1-3.5,2.3-5.2,3.4c-1.8,1.1-3.6,2.1-5.8,2.5l-0.7,0.1l0-0.9
			c0-0.9,0.2-1.7,0.5-2.5l0.8-2.2c0.3-0.7,0.6-1.4,1-2c0.4-0.6,0.9-1.1,1.4-1.7c1.9-2.3,3.8-4.5,5.8-6.6l6.1-6.4c1-1,2-2.2,3.1-3.1
			c0.6-0.5,1.2-0.9,1.9-1.3c0.7-0.4,1.4-0.7,2.4-0.9l0.6,0.8c-1.8,1.5-3.7,2.7-5.6,3.8c-1.9,1.2-3.8,2.4-5.8,3.5l-11.7,6.7
			c-3.9,2.2-7.8,4.5-11.8,6.6c-2,1.1-3.9,2.2-5.9,3.2l-3,1.6l-1.5,0.8c-0.5,0.3-0.9,0.6-1.9,0.1L9.9,123.2z"/>
	</g>
</g>
</svg>
