<?xml version="1.0" encoding="utf-8"?>
<!-- Generator: Adobe Illustrator 22.1.0, SVG Export Plug-In . SVG Version: 6.00 Build 0)  -->
<svg version="1.1" xmlns="http://www.w3.org/2000/svg" xmlns:xlink="http://www.w3.org/1999/xlink" x="0px" y="0px"
	 viewBox="0 0 117.2 180" style="enable-background:new 0 0 117.2 180;" xml:space="preserve">
<style type="text/css">
	.st0{display:none;}
	.st1{display:inline;fill:#FF0000;}
</style>
<g id="bg" class="st0">
	<polygon class="st1" points="111.4,0 109.8,0 109.4,0 105.7,0 104,0 103.7,0 102.4,0 102.1,0 101.7,0 98.3,0 97.9,0 97.2,0 96.7,0 
		96.3,0 95.9,0 94.7,0 94.3,0 91.4,0 90.9,0 90.5,0 90.1,0 89.8,0 89.4,0 88.9,0 88.5,0 86.9,0 85.7,0 84,0 83.7,0 83.1,0 82.7,0 
		82.4,0 82.1,0 81.7,0 81.1,0 78.3,0 77.9,0 76.7,0 76.3,0 75.9,0 75.4,0 74.7,0 74.3,0 70.9,0 70.5,0 70.1,0 68.9,0 68.5,0 66.9,0 
		63.1,0 62.7,0 61.8,0 61.1,0 56.1,0 55.4,0 54.5,0 54.1,0 50.3,0 48.7,0 48.3,0 47.1,0 46.7,0 46.3,0 42.9,0 42.5,0 41.8,0 41.3,0 
		40.9,0 40.5,0 39.3,0 38.9,0 36.1,0 35.5,0 35.1,0 34.7,0 34.5,0 34.1,0 33.5,0 33.1,0 31.5,0 30.3,0 28.7,0 28.3,0 27.8,0 27.4,0 
		27.1,0 26.7,0 26.3,0 25.8,0 22.9,0 22.5,0 21.3,0 20.9,0 20.5,0 20,0 19.3,0 18.9,0 15.5,0 15.1,0 14.7,0 13.5,0 13.1,0 11.5,0 
		7.8,0 7.4,0 5.8,0 0,0 0,180 5.8,180 7.4,180 7.8,180 11.5,180 13.1,180 13.5,180 14.7,180 15.1,180 15.5,180 18.9,180 19.3,180 
		20,180 20.5,180 20.9,180 21.3,180 22.5,180 22.9,180 25.8,180 26.3,180 26.7,180 27.1,180 27.4,180 27.8,180 28.3,180 28.7,180 
		30.3,180 31.5,180 33.1,180 33.5,180 34.1,180 34.5,180 34.7,180 35.1,180 35.5,180 36.1,180 38.9,180 39.3,180 40.5,180 40.9,180 
		41.3,180 41.8,180 42.5,180 42.9,180 46.3,180 46.7,180 47.1,180 48.3,180 48.7,180 50.3,180 54.1,180 54.5,180 55.4,180 56.1,180 
		61.1,180 61.8,180 62.7,180 63.1,180 66.9,180 68.5,180 68.9,180 70.1,180 70.5,180 70.9,180 74.3,180 74.7,180 75.4,180 75.9,180 
		76.3,180 76.7,180 77.9,180 78.3,180 81.1,180 81.7,180 82.1,180 82.4,180 82.7,180 83.1,180 83.7,180 84,180 85.7,180 86.9,180 
		88.5,180 88.9,180 89.4,180 89.8,180 90.1,180 90.5,180 90.9,180 91.4,180 94.3,180 94.7,180 95.9,180 96.3,180 96.7,180 97.2,180 
		97.9,180 98.3,180 101.7,180 102.1,180 102.4,180 103.7,180 104,180 105.7,180 109.4,180 109.8,180 111.4,180 117.2,180 117.2,0 	
		"/>
</g>
<g id="figure">
	<g>
		<g>
			<path d="M10.1,92.2c-0.3-0.7-0.1-1.1,0.1-1.4l0.6-0.9l0.7-0.9l0.7-0.8c1-1.1,2-2.1,3-3.2c2.1-2.1,4.2-4,6.3-6
				c2.1-2,4.2-4,6.3-5.9c2.1-1.9,4.4-3.9,6.8-5.7c2.4-1.8,4.9-3.4,7.5-4.7c2.7-1.4,5.4-2.4,8.3-3.3c2.8-0.9,5.8-1.5,8.9-1.6
				c1.5-0.1,3.1-0.1,4.8,0.1c1.6,0.2,3.4,0.7,5.1,1.8l0,0l0.3,0.4c0.7,1,1.3,2.1,1.6,3.3c0.3,1.2,0.5,2.4,0.5,3.5
				c0,2.3-0.6,4.4-1.2,6.3c-1.4,3.8-3.4,7.1-5.3,10.2c-1,1.5-2,3-3,4.5c-0.5,0.7-1,1.5-1.6,2.3c-0.6,0.7-1.1,1.5-1.7,2.2
				c-2.3,2.9-4.8,5.6-7.4,8.2c-5.2,5.2-10.7,10.1-16.9,14.2c-3.1,2-6.4,3.9-9.8,5.4c-1.7,0.7-3.6,1.4-5.5,1.9
				c-1.9,0.4-4,0.7-6.1,0.4l-0.1,0l0,0c-0.9-0.2-1.8-0.5-2.8-1.2c-0.9-0.7-1.7-1.8-1.8-3c-0.2-1.1,0-2.1,0.2-3
				c0.2-0.9,0.5-1.6,0.9-2.4c1.4-2.9,3.3-5.3,5.2-7.7c3.9-4.6,8.1-8.9,12.4-13c4.3-4.1,8.7-8,13.3-11.9c2.3-1.9,4.5-3.8,6.9-5.7
				c1.2-0.9,2.3-1.8,3.5-2.7c1.2-0.9,2.5-1.7,3.7-2.6c4.9-3.3,10.1-6.4,15.5-8.9c1.4-0.7,2.8-1.2,4.2-1.7l2.2-0.7
				c0.7-0.2,1.5-0.3,2.2-0.5c0.7-0.2,1.5-0.3,2.3-0.4c0.8-0.1,1.6-0.2,2.4-0.3c0.8-0.1,1.6-0.1,2.6,0c0.2,0,0.5,0,0.7,0.1
				c0.2,0,0.5,0.1,0.8,0.2c0.1,0,0.1,0,0.3,0.1c0.1,0.1,0.3,0.2,0.3,0.2l0.3,0.2c0.2,0.1,0.4,0.3,0.6,0.5c0.4,0.4,0.8,0.8,1.1,1.4
				c0.3,0.6,0.5,1.2,0.6,1.8c0.1,1.3-0.1,2.3-0.4,3.2c-0.3,0.9-0.5,1.6-0.7,2.1c-0.1,0.3-0.2,0.5-0.2,0.7c0,0.2,0,0.2,0,0.1
				c0-0.1-0.1-0.3-0.2-0.3c-0.1,0,0,0.1,0.1,0.2c0.1,0.1,0.2,0.1,0.2,0.2l0.3,0.2c0.2,0.2,0.4,0.3,0.6,0.4c0.5,0.2,1,0.2,1.6,0.1
				c0.6-0.1,1.2-0.3,1.8-0.5c1.2-0.5,2.4-1.2,3.5-2.1c1.1-0.8,2.2-1.8,3.3-2.8c1.1-1,2.1-2,3.1-3l1.5-1.6c0.5-0.5,0.8-1.2,2-1.2
				l0.3,0.2c0.3,1.2-0.3,1.6-0.7,2.3c-0.4,0.6-0.9,1.2-1.4,1.8c-0.9,1.2-1.9,2.3-3,3.4c-2.1,2.2-4.4,4.2-7.3,5.7
				c-0.7,0.4-1.5,0.7-2.4,1c-0.9,0.2-1.8,0.4-2.8,0.5c-0.5,0-1,0-1.6-0.1L87.5,72c-0.2-0.1-0.5-0.2-0.8-0.3
				c-0.5-0.2-1.1-0.5-1.6-1.1c-0.5-0.6-1-1.4-1.1-2.2c-0.1-0.8,0-1.5,0.1-2.1c0.1-0.6,0.3-1,0.5-1.4c0.3-0.8,0.7-1.4,0.9-2
				c0.3-0.5,0.4-0.9,0.4-1.2c0-0.2,0.1-0.3-0.1-0.7c-0.1-0.1-0.1-0.2-0.2-0.2l-0.1-0.1c-0.1,0,0.1,0,0.1,0c0.1,0,0,0,0,0
				c-0.1-0.1-0.2-0.1-0.3-0.2c-0.1-0.1-0.2-0.1-0.4-0.2c-0.3-0.1-0.6-0.2-0.9-0.3c-0.3-0.1-0.6-0.1-1-0.2c-0.7-0.1-1.4-0.1-2-0.1
				c-0.7,0.1-1.4,0.1-2.1,0.3c-2.8,0.6-5.5,1.6-8.1,2.7c-5.3,2.3-10.3,5.4-15.2,8.7c-1.2,0.8-2.4,1.7-3.6,2.5
				c-1.2,0.9-2.3,1.8-3.5,2.7c-2.3,1.8-4.5,3.7-6.8,5.7c-4.5,3.9-8.8,7.8-13,11.9c-4.2,4.1-8.3,8.3-11.8,12.9
				c-1.7,2.3-3.4,4.7-4.5,7.1c-0.5,1.2-0.8,2.5-0.7,3.2c0.1,0.3,0.2,0.5,0.5,0.7c0.3,0.2,0.8,0.4,1.3,0.4l-0.2,0
				c1.4,0.1,3-0.2,4.5-0.7c1.5-0.5,3-1.2,4.5-2.1c2.9-1.7,5.7-3.8,8.3-6c5.3-4.5,10.3-9.4,14.8-14.7c2.3-2.6,4.5-5.3,6.6-8.1
				l1.6-2.1c0.5-0.6,0.9-1.3,1.5-2.1l3.1-4.3c2-2.8,4-5.6,5.5-8.4c0.7-1.4,1.4-2.7,1.6-4c0.3-1.3,0.3-2.4-0.2-3.5l0.4,0.5
				c-0.4-0.9-1.3-1.8-2.4-2.4c-1.1-0.6-2.5-0.8-3.8-0.9c-1.4-0.1-2.8,0.2-4.1,0.5c-1.4,0.3-2.7,0.7-4,1.2c-2.7,0.9-5.2,2.3-7.6,3.7
				c-2.4,1.4-4.8,3-7.1,4.7c-1.1,0.8-2.2,1.7-3.3,2.7c-1.1,0.9-2.1,1.9-3.2,2.9c-2.2,1.9-4.3,3.8-6.5,5.7c-2.2,1.9-4.4,3.8-6.5,5.7
				c-1.1,1-2.1,2-3.1,2.9c-0.5,0.5-1,1-1.6,1.4l-0.8,0.7c-0.3,0.3-0.6,0.4-1.3,0.3L10.1,92.2z"/>
		</g>
		<g>
			<path d="M94.6,101.6c-0.6,1.3-1.6,2.1-2.6,2.9l-3,2.3c-2,1.5-4.1,3-6.1,4.4c-2.1,1.4-4.1,2.9-6.2,4.3c-2.1,1.4-4.1,2.8-6.4,4.2
				c-1.1,0.7-2.3,1.3-3.6,1.9c-1.3,0.5-2.7,1.1-4.5,1.2c-0.9,0-2-0.1-3.1-0.6c-1.1-0.5-2-1.5-2.5-2.5c-0.5-1-0.8-2-0.9-2.9
				c-0.1-0.9-0.1-1.7,0-2.5c0-0.4,0.1-0.8,0.2-1.2c0.1-0.4,0.2-0.8,0.3-1.2c0.2-0.8,0.5-1.5,0.7-2.2c0.6-1.4,1.2-2.6,1.9-3.7
				c1.4-2.3,3-4.3,4.6-6.4c3.2-4,6.6-7.8,10-11.5c1.7-1.9,3.4-3.8,5.2-5.6c1.8-1.8,3.6-3.6,5.5-5.4c7.4-6.9,15-13.5,22.8-19.9
				l0.7,0.7c-6.4,7.8-13.1,15.3-19.7,22.8c-3.3,3.8-6.3,7.5-9.4,11.5c-3.1,4-6.2,7.9-9.1,11.9c-1.5,2-2.8,4-4.1,5.9
				c-1.3,1.9-2.5,3.8-3,5.3c-0.3,0.9-0.4,1.7-0.4,2c0,0.1-0.1,0.1-0.1,0.2c0,0.1,0.2,0.2,0.6,0.3c0.7,0.2,1.8,0,2.8-0.3
				c1.1-0.3,2.2-0.8,3.2-1.3c1.1-0.5,2.1-1.1,3.2-1.7c1.1-0.6,2.2-1.3,3.2-1.9c2.1-1.3,4.3-2.6,6.4-3.9l6.4-4l3.2-2
				c1.1-0.7,2.1-1.3,3.6-1.4L94.6,101.6z"/>
		</g>
	</g>
</g>
</svg>
