<?xml version="1.0" encoding="utf-8"?>
<!-- Generator: Adobe Illustrator 22.1.0, SVG Export Plug-In . SVG Version: 6.00 Build 0)  -->
<svg version="1.1" xmlns="http://www.w3.org/2000/svg" xmlns:xlink="http://www.w3.org/1999/xlink" x="0px" y="0px"
	 viewBox="0 0 84.9 180" style="enable-background:new 0 0 84.9 180;" xml:space="preserve">
<style type="text/css">
	.st0{display:none;}
	.st1{display:inline;fill:#FF0000;}
</style>
<g id="bg" class="st0">
	<polygon class="st1" points="81.8,0 80.9,0 80.7,0 78.6,0 77.8,0 77.6,0 76.9,0 76.7,0 76.5,0 74.6,0 74.4,0 73.8,0 73.5,0 73.3,0 
		72.8,0 72.7,0 72.5,0 70.6,0 70.4,0 70.2,0 69.7,0 69.5,0 69.3,0 68.8,0 68.6,0 68.5,0 66.5,0 66.4,0 66.2,0 65.7,0 65.4,0 65.3,0 
		64.9,0 64.8,0 64.6,0 64.4,0 62.5,0 62.3,0 62.2,0 61.8,0 61.7,0 61.4,0 61.2,0 60.9,0 60.7,0 60.6,0 60.4,0 58.6,0 58.5,0 58.3,0 
		58.1,0 57.8,0 57.6,0 57.4,0 57.2,0 56.9,0 56.7,0 56.5,0 56.3,0 54.8,0 54.6,0 54.4,0 54.3,0 54.1,0 53.8,0 53.5,0 53.3,0 53.2,0 
		52.8,0 52.7,0 52.5,0 51.7,0 50.8,0 50.6,0 50.6,0 50.4,0 50.2,0 50.1,0 49.7,0 49.5,0 49.3,0 48.8,0 48.6,0 48.6,0 48.5,0 47.7,0 
		47.5,0 46.8,0 46.6,0 46.5,0 46.4,0 46.4,0 46.2,0 45.7,0 45.4,0 45.3,0 44.8,0 44.6,0 44.6,0 44.4,0 44.3,0 43.7,0 43.5,0 43.3,0 
		42.7,0 42.6,0 42.5,0 42.4,0 42.3,0 42.2,0 41.7,0 41.4,0 41.2,0 40.6,0 40.6,0 40.4,0 40.3,0 40.1,0 39.6,0 39.5,0 39.3,0 38.7,0 
		38.5,0 38.5,0 38.4,0 38.3,0 38.1,0 37.4,0 37.2,0 36.4,0 36.3,0 36.3,0 36.1,0 35.6,0 35.4,0 35.2,0 34.8,0 34.7,0 34.5,0 34.3,0 
		34.3,0 34.1,0 33.2,0 32.4,0 32.2,0 32.1,0 31.7,0 31.6,0 31.4,0 31.1,0 30.8,0 30.6,0 30.5,0 30.3,0 30.1,0 28.6,0 28.4,0 28.2,0 
		28,0 27.7,0 27.5,0 27.4,0 27.1,0 26.8,0 26.6,0 26.4,0 26.3,0 24.6,0 24.3,0 24.2,0 24,0 23.7,0 23.5,0 23.3,0 23.1,0 22.7,0 
		22.6,0 22.4,0 20.6,0 20.3,0 20.1,0 20,0 19.6,0 19.5,0 19.3,0 18.7,0 18.5,0 18.4,0 16.4,0 16.3,0 16.1,0 15.6,0 15.4,0 15.2,0 
		14.7,0 14.5,0 14.3,0 12.4,0 12.2,0 12.1,0 11.6,0 11.4,0 11.1,0 10.5,0 10.3,0 8.4,0 8.2,0 8,0 7.4,0 7.1,0 6.3,0 4.2,0 4,0 
		3.1,0 0,0 0,180 3.1,180 4,180 4.2,180 6.3,180 7.1,180 7.4,180 8,180 8.2,180 8.4,180 10.3,180 10.5,180 11.1,180 11.4,180 
		11.6,180 12.1,180 12.2,180 12.4,180 14.3,180 14.5,180 14.7,180 15.2,180 15.4,180 15.6,180 16.1,180 16.3,180 16.4,180 18.4,180 
		18.5,180 18.7,180 19.3,180 19.5,180 19.6,180 20,180 20.1,180 20.3,180 20.6,180 22.4,180 22.6,180 22.7,180 23.1,180 23.3,180 
		23.5,180 23.7,180 24,180 24.2,180 24.3,180 24.6,180 26.3,180 26.4,180 26.6,180 26.8,180 27.1,180 27.4,180 27.5,180 27.7,180 
		28,180 28.2,180 28.4,180 28.6,180 30.1,180 30.3,180 30.5,180 30.6,180 30.8,180 31.1,180 31.4,180 31.6,180 31.7,180 32.1,180 
		32.2,180 32.4,180 33.2,180 34.1,180 34.3,180 34.3,180 34.5,180 34.7,180 34.8,180 35.2,180 35.4,180 35.6,180 36.1,180 36.3,180 
		36.3,180 36.4,180 37.2,180 37.4,180 38.1,180 38.3,180 38.4,180 38.5,180 38.5,180 38.7,180 39.3,180 39.5,180 39.6,180 40.1,180 
		40.3,180 40.4,180 40.6,180 40.6,180 41.2,180 41.4,180 41.7,180 42.2,180 42.3,180 42.4,180 42.5,180 42.6,180 42.7,180 43.3,180 
		43.5,180 43.7,180 44.3,180 44.4,180 44.6,180 44.6,180 44.8,180 45.3,180 45.4,180 45.7,180 46.2,180 46.4,180 46.4,180 46.5,180 
		46.6,180 46.8,180 47.5,180 47.7,180 48.5,180 48.6,180 48.6,180 48.8,180 49.3,180 49.5,180 49.7,180 50.1,180 50.2,180 50.4,180 
		50.6,180 50.6,180 50.8,180 51.7,180 52.5,180 52.7,180 52.8,180 53.2,180 53.3,180 53.5,180 53.8,180 54.1,180 54.3,180 54.4,180 
		54.6,180 54.8,180 56.3,180 56.5,180 56.7,180 56.9,180 57.2,180 57.4,180 57.6,180 57.8,180 58.1,180 58.3,180 58.5,180 58.6,180 
		60.4,180 60.6,180 60.7,180 60.9,180 61.2,180 61.4,180 61.7,180 61.8,180 62.2,180 62.3,180 62.5,180 64.4,180 64.6,180 64.8,180 
		64.9,180 65.3,180 65.4,180 65.7,180 66.2,180 66.4,180 66.5,180 68.5,180 68.6,180 68.8,180 69.3,180 69.5,180 69.7,180 70.2,180 
		70.4,180 70.6,180 72.5,180 72.7,180 72.8,180 73.3,180 73.5,180 73.8,180 74.4,180 74.6,180 76.5,180 76.7,180 76.9,180 77.6,180 
		77.8,180 78.6,180 80.7,180 80.9,180 81.8,180 84.9,180 84.9,0 	"/>
</g>
<g id="figure">
	<g>
		<g>
			<path d="M9.8,123.9c0.2-2.1,1.6-2.2,2.6-3l3.2-1.9l6.4-3.8c4.3-2.5,8.7-4.9,13.1-7.2c4.4-2.3,9-4.4,13.6-6.3c2.3-1,4.6-2,6.9-2.9
				c1.2-0.5,2.4-0.9,3.6-1.3c0.6-0.2,1.3-0.4,2-0.3c0.7,0,1.5,0.1,2.1,0.7l-0.3,1c-0.6,0.2-1.1,0.4-1.6,0.5
				c-0.5,0.2-1.1,0.3-1.6,0.5c-1.1,0.4-2.2,0.8-3.4,1.3c-2.2,1-4.5,2-6.7,3.1c-2.2,1.1-4.5,2.1-6.7,3.2c-2.2,1.1-4.4,2.3-6.5,3.4
				c-4.4,2.3-8.7,4.8-13,7.2l-6.5,3.6l-3.2,1.8c-1.1,0.5-1.9,1.6-3.8,0.8L9.8,123.9z"/>
		</g>
		<g>
			<path d="M59.8,97.9c0.5-0.5,1-0.7,1.6-0.7c0.6,0,1.2,0.1,1.8,0.4c0.6,0.3,1.3,0.8,1.7,1.5c0.4,0.7,0.5,1.5,0.4,2.1
				c-0.1,1.3-0.5,2.3-0.9,3.3c-0.4,1-1,1.9-1.5,2.8c-2.2,3.5-4.8,6.5-7.7,9.4c-2.9,2.9-6.3,5.4-11,6.4c-0.6,0.1-1.2,0.1-1.8,0.1
				l-0.9-0.1c-0.3,0-0.7-0.1-1.1-0.3c-0.8-0.2-1.7-0.9-2.2-1.9c-0.5-1-0.5-1.9-0.5-2.6c0.1-1.5,0.5-2.6,0.9-3.7c0.4-1,1-2,1.5-2.9
				c1.1-1.8,2.4-3.5,3.8-5c0.6-0.7,1.3-1.5,2.1-2.3c0.8-0.7,1.5-1.5,2.4-2.1c1.6-1.4,3.4-2.6,5.3-3.6c1-0.5,2-0.9,3.2-1.2
				c0.6-0.1,1.2-0.3,1.8-0.3c0.3,0,0.6,0,1,0c0.4,0,0.8,0,1.5,0.3c0.3,0.2,0.7,0.5,0.9,0.9c0.2,0.4,0.3,0.8,0.4,1.1
				c0,0.6,0,1-0.1,1.3c-0.2,0.6-0.4,1.1-0.5,1.6c-0.4,0.9-0.7,1.8-0.8,2.5c-0.1,0.7,0,1.2,0.4,1.6c0.2,0.2,0.5,0.4,0.9,0.5
				c0.4,0.2,0.8,0.3,1.2,0.4c1.7,0.4,3.6,0.3,5.4-0.2c0.9-0.2,1.8-0.5,2.7-0.8l1.3-0.5c0.4-0.2,0.9-0.3,1.6,0.1l0.3,0.5
				c-0.1,0.9-0.6,1.2-1,1.4c-0.5,0.3-0.9,0.5-1.4,0.7c-1,0.4-2,0.7-3,0.9c-2.1,0.4-4.2,0.7-6.4,0.3c-0.5-0.1-1.1-0.2-1.6-0.4
				c-0.6-0.2-1.1-0.5-1.7-0.9c-0.5-0.4-1-1.1-1.3-1.8c-0.3-0.7-0.3-1.4-0.3-2c0.1-1.3,0.4-2.3,0.7-3.3c0.1-0.5,0.3-0.9,0.3-1.3
				c0-0.2,0-0.3,0-0.2c0,0,0,0.2,0.1,0.4c0.1,0.2,0.3,0.3,0.4,0.4c0.2,0.1,0.2,0.1,0.1,0.1l-0.5,0.1c-0.4,0.1-0.7,0.2-1.1,0.4
				c-0.7,0.3-1.5,0.8-2.2,1.3c-1.5,1-2.9,2.2-4.1,3.5c-0.6,0.7-1.2,1.4-1.8,2.1c-0.6,0.7-1.1,1.4-1.8,2.2c-1.2,1.5-2.4,3-3.5,4.4
				c-0.5,0.7-1.1,1.5-1.5,2.2c-0.5,0.7-0.8,1.4-1,1.9c-0.1,0.2-0.1,0.4-0.2,0.3c-0.1,0-0.2,0-0.1,0.1c0.1,0.1,0.2,0.1,0.3,0.2
				l0.6,0.2c0.4,0.1,0.8,0.2,1.2,0.2c0.8,0.1,1.7,0.1,2.6-0.2c0.8-0.3,1.7-0.7,2.5-1.1c1.6-0.9,3.1-2.2,4.4-3.5
				c2.7-2.7,5.2-5.8,7.2-9.1c0.5-0.8,0.9-1.6,1.3-2.5c0.4-0.8,0.7-1.7,0.7-2.4c0-0.3,0-0.6-0.1-0.8c-0.1-0.2-0.2-0.3-0.5-0.4
				c-0.3-0.1-0.6-0.2-1-0.3c-0.4-0.1-0.8-0.2-1.3-0.7L59.8,97.9z"/>
		</g>
	</g>
</g>
</svg>
