<?xml version="1.0" encoding="utf-8"?>
<!-- Generator: Adobe Illustrator 22.1.0, SVG Export Plug-In . SVG Version: 6.00 Build 0)  -->
<svg version="1.1" xmlns="http://www.w3.org/2000/svg" xmlns:xlink="http://www.w3.org/1999/xlink" x="0px" y="0px"
	 viewBox="0 0 100.3 180" style="enable-background:new 0 0 100.3 180;" xml:space="preserve">
<style type="text/css">
	.st0{display:none;}
	.st1{display:inline;fill:#FF0000;}
</style>
<g id="bg" class="st0">
	<polygon class="st1" points="95.6,0 94.2,0 93.9,0 90.8,0 89.5,0 89.1,0 88.1,0 87.8,0 87.5,0 84.7,0 84.4,0 83.4,0 83,0 82.7,0 
		81.7,0 81.4,0 80.3,0 78.6,0 78.3,0 77.9,0 77,0 76.6,0 75.6,0 75.3,0 74.2,0 73.9,0 72.2,0 71.9,0 70.8,0 70.5,0 69.5,0 69.1,0 
		68.1,0 67.8,0 67.5,0 65.8,0 64.7,0 64.4,0 63.4,0 63,0 62.7,0 61.7,0 61.4,0 58.6,0 58.3,0 57.9,0 57,0 56.6,0 55.3,0 54.6,0 
		52.2,0 51.9,0 50.5,0 49.8,0 48.5,0 48.1,0 45.8,0 45,0 43.7,0 43.4,0 42.4,0 42.1,0 41.7,0 38.9,0 38.6,0 37.6,0 37.3,0 37,0 
		36,0 35.6,0 34.6,0 32.8,0 32.5,0 32.2,0 31.2,0 30.9,0 29.8,0 29.5,0 28.5,0 28.1,0 26.4,0 26.1,0 25,0 24.8,0 23.7,0 23.4,0 
		22.4,0 22.1,0 21.7,0 20,0 18.9,0 18.6,0 17.6,0 17.3,0 17,0 16,0 15.6,0 12.8,0 12.5,0 12.2,0 11.2,0 10.9,0 9.5,0 6.4,0 6.1,0 
		4.8,0 0,0 0,180 4.8,180 6.1,180 6.4,180 9.5,180 10.9,180 11.2,180 12.2,180 12.5,180 12.8,180 15.6,180 16,180 17,180 17.3,180 
		17.6,180 18.6,180 18.9,180 20,180 21.7,180 22.1,180 22.4,180 23.4,180 23.7,180 24.8,180 25,180 26.1,180 26.4,180 28.1,180 
		28.5,180 29.5,180 29.8,180 30.9,180 31.2,180 32.2,180 32.5,180 32.8,180 34.6,180 35.6,180 36,180 37,180 37.3,180 37.6,180 
		38.6,180 38.9,180 41.7,180 42.1,180 42.4,180 43.4,180 43.7,180 45,180 45.8,180 48.1,180 48.5,180 49.8,180 50.5,180 51.9,180 
		52.2,180 54.6,180 55.3,180 56.6,180 57,180 57.9,180 58.3,180 58.6,180 61.4,180 61.7,180 62.7,180 63,180 63.4,180 64.4,180 
		64.7,180 65.8,180 67.5,180 67.8,180 68.1,180 69.1,180 69.5,180 70.5,180 70.8,180 71.9,180 72.2,180 73.9,180 74.2,180 75.3,180 
		75.6,180 76.6,180 77,180 77.9,180 78.3,180 78.6,180 80.3,180 81.4,180 81.7,180 82.7,180 83,180 83.4,180 84.4,180 84.7,180 
		87.5,180 87.8,180 88.1,180 89.1,180 89.5,180 90.8,180 93.9,180 94.2,180 95.6,180 100.3,180 100.3,0 	"/>
</g>
<g id="figure">
	<g>
		<path d="M68.4,58.6c-1,0.9-2.1,1.4-3.2,1.8c-1.1,0.4-2.1,0.9-3.2,1.5c-2.1,1.1-4.1,2.3-6,3.6c-3.9,2.7-7.5,5.6-11.1,8.8
			c-0.9,0.8-1.8,1.6-2.6,2.4c-0.9,0.8-1.8,1.6-2.6,2.4c-1.8,1.6-3.4,3.2-5,4.9c-3.3,3.3-6.3,6.9-9.4,10.4c-3,3.5-6.2,7.1-8.7,10.7
			c-0.6,0.9-1.2,1.8-1.6,2.6c-0.1,0.2-0.2,0.4-0.2,0.5c0,0.1,0,0.1-0.1,0.2l-0.1,0.4c-0.2,0.5-0.3,1-0.4,1.5
			c-0.5,1.9-0.6,3.9-0.3,4.9c0.2,0.5,0.4,0.9,0.9,1.3c0.5,0.4,1.3,0.7,2.2,0.9c1.9,0.4,3.9,0.3,5.9-0.2c4.1-1,8.2-3.4,12-6.1
			c3.8-2.7,7.4-5.9,10.9-9.1c3.5-3.2,6.8-6.7,9.9-10.3c3.1-3.6,6-7.3,8.7-11.2c2.6-3.9,5.1-8,6.6-12.1c0.3-1,0.6-2.1,0.8-3.2
			c0.2-1.1,0.4-2.2,0.4-3.2c0-0.5-0.1-0.9-0.1-1c0-0.1,0,0.1,0.2,0.2c0.1,0,0.2,0.1,0.3,0.1c0.1,0,0.2,0,0.2,0
			c0.1-0.1-0.3,0.1-0.5,0.4c-0.3,0.3-0.5,0.7-0.8,1.1c-0.5,0.8-0.8,1.8-1,2.8c-0.1,0.5-0.1,1-0.2,1.6c0,0.3,0,0.5,0,0.7
			c0,0.2,0,0.5,0.1,0.7c0.4,1.9,1.5,4,3,5.1c0.4,0.3,0.7,0.5,1.1,0.6c0.4,0.1,0.8,0.2,1.3,0.2c1,0,2.1-0.2,3.1-0.5
			c2-0.7,3.8-2,5.4-3.6c0.8-0.8,1.5-1.7,2.1-2.6c0.3-0.5,0.6-0.9,0.8-1.4c0.2-0.5,0.5-0.9,0.6-1.4c0.4-1,0.6-2.1,0.8-3.2
			c0.1-0.5,0.1-1.1,0.2-1.7c0-0.6,0.2-1.1,0.9-1.7l1-0.1c0.8,0.6,1,1.2,1,1.9c0,0.6,0,1.3-0.1,1.9c-0.1,1.3-0.4,2.6-0.8,3.9
			c-0.2,0.6-0.5,1.3-0.8,1.9c-0.3,0.7-0.7,1.2-1.1,1.7c-0.8,1-1.6,2-2.5,2.9c-1.8,1.8-4,3.4-6.6,4.3c-1.3,0.5-2.6,0.7-4,0.8
			c-0.6,0-1.5,0-2.3-0.2c-0.8-0.2-1.5-0.6-2.1-1c-1.2-0.9-2.2-2-2.9-3.1c-0.7-1.2-1.3-2.4-1.6-3.8C67,69,67,68.6,66.9,68.2
			c0-0.4-0.1-0.8-0.1-1.1c0-0.7,0-1.4,0.1-2c0.2-1.4,0.6-2.7,1.2-4c0.3-0.6,0.7-1.3,1.3-1.9c0.6-0.6,1.2-1.2,2.5-1.5
			c0.3-0.1,0.7-0.1,1.1,0c0.4,0,0.8,0.2,1.1,0.4c0.7,0.4,1.1,1,1.4,1.5c0.4,1,0.5,1.8,0.5,2.5c0,1.5-0.1,2.7-0.3,4
			c-0.2,1.3-0.5,2.5-0.9,3.8c-1.7,4.9-4.2,9.2-6.9,13.3c-2.8,4.1-5.8,8-9.1,11.6c-3.3,3.6-6.7,7.1-10.3,10.4
			c-3.6,3.3-7.2,6.6-11.1,9.6c-2,1.5-4,3-6.1,4.3c-2.2,1.3-4.5,2.6-7,3.4c-2.6,0.9-5.5,1.3-8.4,1c-1.5-0.2-3.1-0.5-4.6-1.4
			c-1.6-0.8-3-2.3-3.8-4c-0.8-1.7-1.1-3.4-1.2-4.9c-0.1-1.6,0.1-3,0.3-4.4c0.1-0.7,0.3-1.4,0.4-2l0.1-0.5c0-0.2,0.1-0.4,0.2-0.7
			c0.1-0.4,0.3-0.8,0.5-1.2c0.6-1.4,1.3-2.5,1.9-3.7c2.7-4.4,5.7-8.4,8.9-12.1c3.2-3.7,6.8-7.2,10.6-10.4c1.9-1.6,3.9-3.2,5.8-4.7
			c2-1.5,4-2.9,6-4.3c4.1-2.7,8.4-5.2,12.9-7.4c2.2-1.1,4.5-2,6.9-2.8c1.2-0.4,2.4-0.7,3.6-1c1.2-0.3,2.5-0.4,3.8,0L68.4,58.6z"/>
	</g>
</g>
</svg>
