<?xml version="1.0" encoding="utf-8"?>
<!-- Generator: Adobe Illustrator 22.1.0, SVG Export Plug-In . SVG Version: 6.00 Build 0)  -->
<svg version="1.1" xmlns="http://www.w3.org/2000/svg" xmlns:xlink="http://www.w3.org/1999/xlink" x="0px" y="0px"
	 viewBox="0 0 102.4 180" style="enable-background:new 0 0 102.4 180;" xml:space="preserve">
<style type="text/css">
	.st0{display:none;}
	.st1{display:inline;fill:#FF0000;}
</style>
<g id="bg" class="st0">
	<polygon class="st1" points="98.4,0 97.3,0 97,0 94.4,0 93.3,0 93.1,0 92.2,0 91.9,0 91.7,0 89.3,0 89.1,0 88.2,0 88,0 87.7,0 
		87,0 86.9,0 86.6,0 84.3,0 84,0 83.7,0 83,0 82.9,0 82.6,0 82.4,0 81.9,0 81.7,0 81.5,0 79.1,0 78.9,0 78.6,0 78.4,0 78,0 77.7,0 
		77.5,0 77.3,0 77,0 76.8,0 76.6,0 76.3,0 74.4,0 74,0 73.7,0 73.6,0 73.3,0 73.1,0 72.9,0 72.6,0 72.3,0 72.2,0 71.9,0 71.7,0 
		71.5,0 71.2,0 69.3,0 69.1,0 68.9,0 68.6,0 68.3,0 68.2,0 68,0 67.7,0 67.5,0 67.2,0 67,0 66.9,0 66.6,0 66.1,0 64.3,0 64.2,0 
		64,0 63.7,0 63.5,0 63.3,0 63,0 62.9,0 62.6,0 62.2,0 61.9,0 61.7,0 61.5,0 60.2,0 59.1,0 59.1,0 58.9,0 58.9,0 58.6,0 58.2,0 
		58,0 57.7,0 57.5,0 56.8,0 56.6,0 56.3,0 56.3,0 55.1,0 54.9,0 54,0 54,0 53.8,0 53.7,0 53.6,0 53.5,0 52.9,0 52.6,0 52.3,0 
		51.5,0 51.2,0 51.2,0 50.9,0 50.1,0 49.8,0 49.5,0 48.9,0 48.8,0 48.7,0 48.6,0 48.4,0 48.3,0 47.5,0 47.2,0 46.1,0 46.1,0 45.8,0 
		45.5,0 44.9,0 44.7,0 44.4,0 44.2,0 43.8,0 43.5,0 43.5,0 43.3,0 43.3,0 42.2,0 40.9,0 40.7,0 40.5,0 40.2,0 39.8,0 39.5,0 39.4,0 
		39.1,0 38.9,0 38.7,0 38.4,0 38.2,0 38.1,0 36.3,0 35.8,0 35.5,0 35.4,0 35.1,0 34.9,0 34.7,0 34.4,0 34.1,0 34,0 33.8,0 33.5,0 
		33.3,0 33,0 31.2,0 30.9,0 30.7,0 30.4,0 30.2,0 30.1,0 29.8,0 29.5,0 29.3,0 29.1,0 28.8,0 28.7,0 28.4,0 28,0 26.1,0 25.8,0 
		25.5,0 25.4,0 25.1,0 24.9,0 24.7,0 24.4,0 24,0 23.8,0 23.5,0 23.3,0 20.9,0 20.7,0 20.5,0 20,0 19.8,0 19.5,0 19.4,0 18.7,0 
		18.4,0 18.1,0 15.8,0 15.5,0 15.4,0 14.7,0 14.4,0 14.1,0 13.3,0 13,0 10.7,0 10.4,0 10.2,0 9.3,0 9.1,0 8,0 5.4,0 5.1,0 4,0 0,0 
		0,180 4,180 5.1,180 5.4,180 8,180 9.1,180 9.3,180 10.2,180 10.4,180 10.7,180 13,180 13.3,180 14.1,180 14.4,180 14.7,180 
		15.4,180 15.5,180 15.8,180 18.1,180 18.4,180 18.7,180 19.4,180 19.5,180 19.8,180 20,180 20.5,180 20.7,180 20.9,180 23.3,180 
		23.5,180 23.8,180 24,180 24.4,180 24.7,180 24.9,180 25.1,180 25.4,180 25.5,180 25.8,180 26.1,180 28,180 28.4,180 28.7,180 
		28.8,180 29.1,180 29.3,180 29.5,180 29.8,180 30.1,180 30.2,180 30.4,180 30.7,180 30.9,180 31.2,180 33,180 33.3,180 33.5,180 
		33.8,180 34,180 34.1,180 34.4,180 34.7,180 34.9,180 35.1,180 35.4,180 35.5,180 35.8,180 36.3,180 38.1,180 38.2,180 38.4,180 
		38.7,180 38.9,180 39.1,180 39.4,180 39.5,180 39.8,180 40.2,180 40.5,180 40.7,180 40.9,180 42.2,180 43.3,180 43.3,180 43.5,180 
		43.5,180 43.8,180 44.2,180 44.4,180 44.7,180 44.9,180 45.5,180 45.8,180 46.1,180 46.1,180 47.2,180 47.5,180 48.3,180 48.4,180 
		48.6,180 48.7,180 48.8,180 48.9,180 49.5,180 49.8,180 50.1,180 50.9,180 51.2,180 51.2,180 51.5,180 52.3,180 52.6,180 52.9,180 
		53.5,180 53.6,180 53.7,180 53.8,180 54,180 54,180 54.9,180 55.1,180 56.3,180 56.3,180 56.6,180 56.8,180 57.5,180 57.7,180 
		58,180 58.2,180 58.6,180 58.9,180 58.9,180 59.1,180 59.1,180 60.2,180 61.5,180 61.7,180 61.9,180 62.2,180 62.6,180 62.9,180 
		63,180 63.3,180 63.5,180 63.7,180 64,180 64.2,180 64.3,180 66.1,180 66.6,180 66.9,180 67,180 67.2,180 67.5,180 67.7,180 
		68,180 68.2,180 68.3,180 68.6,180 68.9,180 69.1,180 69.3,180 71.2,180 71.5,180 71.7,180 71.9,180 72.2,180 72.3,180 72.6,180 
		72.9,180 73.1,180 73.3,180 73.6,180 73.7,180 74,180 74.4,180 76.3,180 76.6,180 76.8,180 77,180 77.3,180 77.5,180 77.7,180 
		78,180 78.4,180 78.6,180 78.9,180 79.1,180 81.5,180 81.7,180 81.9,180 82.4,180 82.6,180 82.9,180 83,180 83.7,180 84,180 
		84.3,180 86.6,180 86.9,180 87,180 87.7,180 88,180 88.2,180 89.1,180 89.3,180 91.7,180 91.9,180 92.2,180 93.1,180 93.3,180 
		94.4,180 97,180 97.3,180 98.4,180 102.4,180 102.4,0 	"/>
</g>
<g id="figure">
	<g>
		<g>
			<path d="M67.4,88c0-0.3,0.2-0.5,0.3-0.7l0.4-0.6l0.8-1.2l1.7-2.4c1.1-1.6,2.3-3.2,3.5-4.8c1.2-1.6,2.4-3.2,3.7-4.6
				c0.7-0.7,1.2-1.6,2-2.2c0.8-0.6,1.6-1.2,3.7-0.6l0.4,0.3c0.7,2,0.2,2.9-0.3,3.7c-0.5,0.8-1.4,1.4-2.1,2.1c-1.4,1.4-2.9,2.7-4.4,4
				c-1.5,1.3-3,2.6-4.6,3.8l-2.3,1.9L69,87.5L68.4,88c-0.2,0.2-0.4,0.3-0.7,0.4L67.4,88z"/>
		</g>
		<g>
			<path d="M76,87.9c0-0.3,0.2-0.5,0.3-0.7l0.4-0.6l0.8-1.2l1.7-2.4c1.1-1.6,2.3-3.2,3.5-4.8c1.2-1.6,2.4-3.2,3.7-4.6
				c0.7-0.7,1.2-1.6,2-2.2c0.8-0.6,1.6-1.2,3.7-0.6l0.4,0.3c0.7,2,0.2,2.9-0.3,3.7c-0.5,0.8-1.4,1.4-2.1,2.1c-1.4,1.4-2.9,2.7-4.4,4
				c-1.5,1.3-3,2.6-4.6,3.8l-2.3,1.9l-1.2,0.9l-0.6,0.5c-0.2,0.2-0.4,0.3-0.7,0.4L76,87.9z"/>
		</g>
		<g>
			<path d="M9.8,123.9c0.2-2.1,1.6-2.2,2.6-2.9l3.2-1.9l6.4-3.8c4.3-2.5,8.6-4.8,13-7.1c4.4-2.3,8.9-4.4,13.5-6.3
				c2.3-0.9,4.6-1.9,7-2.6c1.2-0.4,2.4-0.7,3.7-1c0.7-0.1,1.3-0.2,2-0.1c0.7,0.1,1.4,0.3,2,0.8l-0.3,1c-0.6,0.2-1.1,0.3-1.7,0.4
				c-0.5,0.1-1.1,0.2-1.6,0.3c-1.1,0.2-2.3,0.6-3.4,1c-2.3,0.8-4.5,1.8-6.7,2.8c-2.2,1-4.5,2.1-6.6,3.2c-2.2,1.1-4.4,2.2-6.5,3.4
				c-4.3,2.3-8.6,4.7-12.9,7.1l-6.4,3.6l-3.2,1.8c-1.1,0.5-1.9,1.6-3.8,0.8L9.8,123.9z"/>
		</g>
		<g>
			<path d="M59.8,98.9c0.5-0.6,1.2-0.8,1.9-0.7c0.7,0.1,1.4,0.2,2.1,0.7c0.7,0.4,1.3,1.3,1.5,2.1c0.2,0.8,0.1,1.5,0,2.2
				c-0.6,2.6-1.9,4.5-3.2,6.5c-1.3,1.9-2.8,3.7-4.3,5.4c-1.5,1.7-3.2,3.4-5,4.8c-0.9,0.7-1.9,1.4-2.9,2c-1.1,0.6-2.2,1.1-3.4,1.6
				c-1.2,0.5-2.5,0.8-3.9,0.7c-0.3,0-0.7,0-1-0.1c-0.4,0-0.8-0.1-1.3-0.3c-0.5-0.2-0.9-0.5-1.4-0.9c-0.4-0.4-0.7-1-0.9-1.5
				c-0.4-1.1-0.3-2-0.2-2.7c0.1-0.8,0.3-1.4,0.5-2.1c0.5-1.3,1-2.4,1.6-3.4c1.2-2.1,2.7-4,4.2-5.6c0.8-0.8,1.6-1.8,2.4-2.6
				c0.9-0.8,1.8-1.6,2.7-2.3c1.9-1.5,4-2.8,6.4-3.7c0.6-0.2,1.3-0.4,1.9-0.5c0.3-0.1,0.7-0.1,1-0.1l0.5,0l0.3,0c0.1,0,0.3,0,0.4,0
				c0.3,0,0.7,0.1,1,0.3c0.4,0.2,0.8,0.5,1,0.9c0.4,0.7,0.4,1.3,0.4,1.7c0,0.8-0.2,1.4-0.3,2c-0.2,1.1-0.5,2.2-0.6,3.1
				c-0.1,0.9,0.1,1.7,0.5,2.1c0.4,0.5,1.2,0.8,2.2,0.9c1,0.1,2,0.1,3.1,0c2.1-0.2,4.2-0.7,6.3-1.4c2-0.7,4-1.8,5.9-2.8
				c1-0.5,1.9-1.1,2.8-1.7c1-0.5,1.7-1.4,3.2-1.3l0.4,0.4c-0.3,1.5-1.4,2-2.3,2.7c-0.9,0.7-1.9,1.3-2.9,1.9c-2,1.1-4.1,2.1-6.3,2.9
				c-2.2,0.8-4.4,1.5-6.8,1.8c-1.2,0.1-2.4,0.2-3.6,0.1c-1.2-0.1-2.7-0.4-3.9-1.5c-0.6-0.6-1-1.3-1.2-2.1c-0.2-0.7-0.3-1.4-0.3-2.1
				c0-1.3,0.2-2.5,0.4-3.6c0.1-0.5,0.1-1.1,0.1-1.4c0-0.1-0.1-0.2,0,0.1c0.1,0.1,0.2,0.3,0.4,0.3c0.1,0.1,0.2,0.1,0.2,0.1
				c0,0,0,0,0,0l-0.2,0l-0.3,0.1c-0.2,0-0.4,0.1-0.6,0.2c-0.4,0.2-0.8,0.4-1.3,0.6c-1.7,1-3.3,2.2-4.8,3.7c-0.8,0.7-1.5,1.5-2.1,2.3
				c-0.7,0.8-1.3,1.6-2,2.5c-1.4,1.7-2.7,3.4-4,5.1c-0.6,0.8-1.2,1.7-1.7,2.5c-0.2,0.4-0.4,0.8-0.6,1.1c-0.1,0.3-0.2,0.6-0.2,0.6
				c0,0-0.2-0.1-0.1,0.1c0.1,0.1,0.2,0.1,0.3,0.2l0.7,0.2c0.9,0.2,1.8,0.3,2.8,0.2c2-0.3,3.8-1.5,5.5-2.8c1.7-1.3,3.2-2.9,4.6-4.6
				c1.4-1.7,2.8-3.4,4-5.2c0.6-0.9,1.2-1.8,1.7-2.8c0.5-0.9,0.9-1.9,1.1-2.8c0.1-0.4,0.1-0.8,0.1-1.1c-0.1-0.3-0.2-0.4-0.4-0.6
				c-0.2-0.2-0.6-0.3-1.1-0.3c-0.5-0.1-0.9-0.2-1.5-0.7L59.8,98.9z"/>
		</g>
	</g>
</g>
</svg>
