<?xml version="1.0" encoding="utf-8"?>
<!-- Generator: Adobe Illustrator 22.1.0, SVG Export Plug-In . SVG Version: 6.00 Build 0)  -->
<svg version="1.1" xmlns="http://www.w3.org/2000/svg" xmlns:xlink="http://www.w3.org/1999/xlink" x="0px" y="0px"
	 viewBox="0 0 111.3 180" style="enable-background:new 0 0 111.3 180;" xml:space="preserve">
<style type="text/css">
	.st0{display:none;}
	.st1{display:inline;fill:#FF0000;}
</style>
<g id="bg" class="st0">
	<polygon class="st1" points="105.9,0 104.4,0 104,0 100.5,0 99,0 98.6,0 97.5,0 97.1,0 96.7,0 93.5,0 93.2,0 92,0 91.7,0 91.3,0 
		91.3,0 90.2,0 89.8,0 86.6,0 86.2,0 85.9,0 85.9,0 84.7,0 84.4,0 84.4,0 84,0 82.9,0 80.5,0 79.3,0 79,0 78.9,0 78.6,0 77.5,0 
		77.4,0 77.1,0 76.7,0 73.5,0 73.2,0 72,0 72,0 71.7,0 71.3,0 70.2,0 69.8,0 66.6,0 66.2,0 65.9,0 64.7,0 64.4,0 62.9,0 59.3,0 
		59.3,0 58.9,0 57.4,0 53.9,0 52.4,0 52,0 52,0 48.4,0 46.9,0 46.6,0 45.4,0 45.1,0 44.7,0 41.5,0 41.2,0 40,0 39.6,0 39.3,0 
		39.3,0 38.1,0 37.8,0 34.6,0 34.2,0 33.9,0 33.9,0 32.7,0 32.4,0 32.3,0 32,0 30.8,0 28.4,0 27.3,0 26.9,0 26.9,0 26.6,0 25.4,0 
		25.4,0 25.1,0 24.7,0 21.5,0 21.2,0 20,0 20,0 19.6,0 19.3,0 18.1,0 17.8,0 14.6,0 14.2,0 13.9,0 12.7,0 12.3,0 10.8,0 7.3,0 
		6.9,0 5.4,0 0,0 0,180 5.4,180 6.9,180 7.3,180 10.8,180 12.3,180 12.7,180 13.9,180 14.2,180 14.6,180 17.8,180 18.1,180 
		19.3,180 19.6,180 20,180 20,180 21.2,180 21.5,180 24.7,180 25.1,180 25.4,180 25.4,180 26.6,180 26.9,180 26.9,180 27.3,180 
		28.4,180 30.8,180 32,180 32.3,180 32.4,180 32.7,180 33.9,180 33.9,180 34.2,180 34.6,180 37.8,180 38.1,180 39.3,180 39.3,180 
		39.6,180 40,180 41.2,180 41.5,180 44.7,180 45.1,180 45.4,180 46.6,180 46.9,180 48.4,180 52,180 52,180 52.4,180 53.9,180 
		57.4,180 58.9,180 59.3,180 59.3,180 62.9,180 64.4,180 64.7,180 65.9,180 66.2,180 66.6,180 69.8,180 70.2,180 71.3,180 71.7,180 
		72,180 72,180 73.2,180 73.5,180 76.7,180 77.1,180 77.4,180 77.5,180 78.6,180 78.9,180 79,180 79.3,180 80.5,180 82.9,180 
		84,180 84.4,180 84.4,180 84.7,180 85.9,180 85.9,180 86.2,180 86.6,180 89.8,180 90.2,180 91.3,180 91.3,180 91.7,180 92,180 
		93.2,180 93.5,180 96.7,180 97.1,180 97.5,180 98.6,180 99,180 100.5,180 104,180 104.4,180 105.9,180 111.3,180 111.3,0 	"/>
</g>
<g id="figure">
	<g>
		<g>
			<path d="M68.4,58.6c-1,0.9-2.1,1.4-3.2,1.8c-1.1,0.4-2.1,0.9-3.2,1.5c-2.1,1.1-4.1,2.3-6,3.6c-3.9,2.7-7.5,5.6-11.1,8.8
				c-0.9,0.8-1.8,1.6-2.6,2.4c-0.9,0.8-1.8,1.6-2.6,2.4c-1.8,1.6-3.4,3.2-5,4.9c-3.3,3.3-6.3,6.9-9.4,10.4c-3,3.5-6.2,7.1-8.7,10.7
				c-0.6,0.9-1.2,1.8-1.6,2.6c-0.1,0.2-0.2,0.4-0.2,0.5c0,0.1,0,0.1-0.1,0.2l-0.1,0.4c-0.2,0.5-0.3,1-0.4,1.5
				c-0.5,1.9-0.6,3.9-0.3,4.9c0.2,0.5,0.4,0.9,0.9,1.3c0.5,0.4,1.3,0.7,2.2,0.9c1.9,0.4,3.9,0.3,5.9-0.2c4.1-1,8.2-3.4,12-6.1
				c3.8-2.7,7.4-5.9,10.9-9.1c3.5-3.2,6.8-6.7,9.9-10.3c3.1-3.6,6-7.3,8.7-11.2c2.6-3.9,5.1-8,6.6-12.1c0.3-1,0.6-2.1,0.8-3.2
				c0.2-1.1,0.4-2.2,0.4-3.2c0-0.5-0.1-0.9-0.1-1c0-0.1,0,0.1,0.2,0.2c0.1,0,0.2,0.1,0.3,0.1c0.1,0,0.2,0,0.2,0
				c0.1-0.1-0.3,0.1-0.5,0.4c-0.3,0.3-0.5,0.7-0.8,1.1c-0.5,0.8-0.8,1.8-1,2.8c-0.1,0.5-0.1,1-0.2,1.6c0,0.3,0,0.5,0,0.7
				c0,0.2,0,0.5,0.1,0.7c0.4,1.9,1.5,4,3,5.1c0.4,0.3,0.7,0.5,1.1,0.6c0.4,0.1,0.8,0.2,1.3,0.2c1,0,2.1-0.2,3.1-0.5
				c2-0.7,3.8-2,5.4-3.6c0.8-0.8,1.5-1.7,2.1-2.6c0.3-0.5,0.6-0.9,0.8-1.4c0.2-0.5,0.5-0.9,0.6-1.4c0.4-1,0.6-2.1,0.8-3.2
				c0.1-0.5,0.1-1.1,0.2-1.7c0-0.6,0.2-1.1,0.9-1.7l1-0.1c0.8,0.6,1,1.2,1,1.9c0,0.6,0,1.3-0.1,1.9c-0.1,1.3-0.4,2.6-0.8,3.9
				c-0.2,0.6-0.5,1.3-0.8,1.9c-0.3,0.7-0.7,1.2-1.1,1.7c-0.8,1-1.6,2-2.5,2.9c-1.8,1.8-4,3.4-6.6,4.3c-1.3,0.5-2.6,0.7-4,0.8
				c-0.6,0-1.5,0-2.3-0.2c-0.8-0.2-1.5-0.6-2.1-1c-1.2-0.9-2.2-2-2.9-3.1c-0.7-1.2-1.3-2.4-1.6-3.8C67,69,67,68.6,66.9,68.2
				c0-0.4-0.1-0.8-0.1-1.1c0-0.7,0-1.4,0.1-2c0.2-1.4,0.6-2.7,1.2-4c0.3-0.6,0.7-1.3,1.3-1.9c0.6-0.6,1.2-1.2,2.5-1.5
				c0.3-0.1,0.7-0.1,1.1,0c0.4,0,0.8,0.2,1.1,0.4c0.7,0.4,1.1,1,1.4,1.5c0.4,1,0.5,1.8,0.5,2.5c0,1.5-0.1,2.7-0.3,4
				c-0.2,1.3-0.5,2.5-0.9,3.8c-1.7,4.9-4.2,9.2-6.9,13.3c-2.8,4.1-5.8,8-9.1,11.6c-3.3,3.6-6.7,7.1-10.3,10.4
				c-3.6,3.3-7.2,6.6-11.1,9.6c-2,1.5-4,3-6.1,4.3c-2.2,1.3-4.5,2.6-7,3.4c-2.6,0.9-5.5,1.3-8.4,1c-1.5-0.2-3.1-0.5-4.6-1.4
				c-1.6-0.8-3-2.3-3.8-4c-0.8-1.7-1.1-3.4-1.2-4.9c-0.1-1.6,0.1-3,0.3-4.4c0.1-0.7,0.3-1.4,0.4-2l0.1-0.5c0-0.2,0.1-0.4,0.2-0.7
				c0.1-0.4,0.3-0.8,0.5-1.2c0.6-1.4,1.3-2.5,1.9-3.7c2.7-4.4,5.7-8.4,8.9-12.1c3.2-3.7,6.8-7.2,10.6-10.4c1.9-1.6,3.9-3.2,5.8-4.7
				c2-1.5,4-2.9,6-4.3c4.1-2.7,8.4-5.2,12.9-7.4c2.2-1.1,4.5-2,6.9-2.8c1.2-0.4,2.4-0.7,3.6-1c1.2-0.3,2.5-0.4,3.8,0L68.4,58.6z"/>
		</g>
		<g>
			<path d="M77.2,47.1c0-0.3,0.2-0.5,0.3-0.7l0.4-0.6l0.8-1.3l1.5-2.5c1-1.7,2.1-3.3,3.2-4.9c1.1-1.6,2.1-3.3,3.4-4.8
				c0.6-0.8,1-1.6,1.8-2.3c0.8-0.6,1.6-1.2,3.7-0.7l0.4,0.3c0.9,2,0.4,2.8-0.1,3.7c-0.5,0.9-1.3,1.4-1.9,2.2
				c-1.3,1.5-2.7,2.8-4.1,4.1c-1.4,1.3-2.8,2.7-4.3,4l-2.2,1.9l-1.1,1L78.2,47c-0.2,0.2-0.4,0.3-0.6,0.4L77.2,47.1z"/>
		</g>
		<g>
			<path d="M86.2,47c0-0.3,0.2-0.5,0.3-0.7l0.4-0.6l0.8-1.3l1.5-2.5c1-1.7,2.1-3.3,3.2-4.9c1.1-1.6,2.1-3.3,3.4-4.8
				c0.6-0.8,1-1.6,1.8-2.3c0.8-0.6,1.6-1.2,3.7-0.7l0.4,0.3c0.9,2,0.4,2.8-0.1,3.7c-0.5,0.9-1.3,1.4-1.9,2.2
				c-1.3,1.5-2.7,2.8-4.1,4.1c-1.4,1.3-2.8,2.7-4.3,4l-2.2,1.9l-1.1,1l-0.6,0.5c-0.2,0.2-0.4,0.3-0.6,0.4L86.2,47z"/>
		</g>
	</g>
</g>
</svg>
