<?xml version="1.0" encoding="utf-8"?>
<!-- Generator: Adobe Illustrator 22.1.0, SVG Export Plug-In . SVG Version: 6.00 Build 0)  -->
<svg version="1.1" xmlns="http://www.w3.org/2000/svg" xmlns:xlink="http://www.w3.org/1999/xlink" x="0px" y="0px"
	 viewBox="0 0 96.5 180" style="enable-background:new 0 0 96.5 180;" xml:space="preserve">
<style type="text/css">
	.st0{display:none;}
	.st1{display:inline;fill:#FF0000;}
</style>
<g id="bg" class="st0">
	<polygon class="st1" points="92.8,0 91.8,0 91.6,0 89.1,0 88.1,0 87.9,0 87.1,0 86.8,0 86.6,0 84.4,0 84.2,0 83.4,0 83.1,0 82.9,0 
		82.3,0 82.1,0 81.9,0 79.7,0 79.4,0 79.2,0 78.6,0 78.4,0 78.2,0 77.5,0 77.3,0 77.1,0 76.5,0 74.9,0 74.7,0 74.5,0 73.8,0 73.6,0 
		73.4,0 72.8,0 72.8,0 72.6,0 72.3,0 71.8,0 71.6,0 70.1,0 69.9,0 69.7,0 69.1,0 69.1,0 68.9,0 68.6,0 68.1,0 67.9,0 67.8,0 67.6,0 
		67.1,0 66.8,0 66.6,0 65.4,0 65.2,0 64.9,0 64.4,0 64.2,0 64.1,0 63.9,0 63.4,0 63.1,0 62.9,0 62.9,0 62.3,0 62.1,0 61.9,0 61.1,0 
		60.4,0 60.2,0 59.7,0 59.4,0 59.2,0 59.2,0 58.6,0 58.4,0 58.2,0 57.5,0 57.4,0 57.3,0 57.1,0 56.3,0 56.1,0 55.5,0 54.9,0 54.7,0 
		54.5,0 53.8,0 53.7,0 53.6,0 53.4,0 52.8,0 52.7,0 52.6,0 52.4,0 52.3,0 51.6,0 51.4,0 51.1,0 50.1,0 49.9,0 49.7,0 49.1,0 49,0 
		48.9,0 48.7,0 48.6,0 47.9,0 47.8,0 47.7,0 47.6,0 47.4,0 46.8,0 46.7,0 46.4,0 45.4,0 45.2,0 44.9,0 44.2,0 44.1,0 44,0 43.9,0 
		43.7,0 43.1,0 43,0 42.9,0 42.7,0 42.1,0 41.8,0 41.7,0 41.1,0 40.4,0 40.2,0 39.4,0 39.3,0 39.2,0 39,0 38.4,0 38.1,0 38,0 
		37.4,0 37.3,0 37.1,0 36.8,0 36.3,0 36.1,0 35.5,0 34.7,0 34.4,0 34.3,0 33.7,0 33.6,0 33.4,0 33.1,0 32.7,0 32.4,0 32.4,0 32.1,0 
		31.6,0 31.4,0 31.1,0 30,0 29.7,0 29.4,0 29,0 28.7,0 28.7,0 28.4,0 27.9,0 27.7,0 27.4,0 27.4,0 26.8,0 26.7,0 26.4,0 25,0 
		24.7,0 24.2,0 24,0 23.7,0 23.7,0 23.1,0 23,0 22.7,0 22.1,0 21.8,0 21.7,0 20,0 19.4,0 19.3,0 19,0 18.4,0 18.1,0 18,0 17.3,0 
		17.1,0 16.8,0 14.7,0 14.4,0 14.3,0 13.6,0 13.4,0 13.1,0 12.4,0 12.1,0 10,0 9.7,0 9.4,0 8.7,0 8.4,0 7.4,0 5,0 4.7,0 3.7,0 0,0 
		0,180 3.7,180 4.7,180 5,180 7.4,180 8.4,180 8.7,180 9.4,180 9.7,180 10,180 12.1,180 12.4,180 13.1,180 13.4,180 13.6,180 
		14.3,180 14.4,180 14.7,180 16.8,180 17.1,180 17.3,180 18,180 18.1,180 18.4,180 19,180 19.3,180 19.4,180 20,180 21.7,180 
		21.8,180 22.1,180 22.7,180 23,180 23.1,180 23.7,180 23.7,180 24,180 24.2,180 24.7,180 25,180 26.4,180 26.7,180 26.8,180 
		27.4,180 27.4,180 27.7,180 27.9,180 28.4,180 28.7,180 28.7,180 29,180 29.4,180 29.7,180 30,180 31.1,180 31.4,180 31.6,180 
		32.1,180 32.4,180 32.4,180 32.7,180 33.1,180 33.4,180 33.6,180 33.7,180 34.3,180 34.4,180 34.7,180 35.5,180 36.1,180 36.3,180 
		36.8,180 37.1,180 37.3,180 37.4,180 38,180 38.1,180 38.4,180 39,180 39.2,180 39.3,180 39.4,180 40.2,180 40.4,180 41.1,180 
		41.7,180 41.8,180 42.1,180 42.7,180 42.9,180 43,180 43.1,180 43.7,180 43.9,180 44,180 44.1,180 44.2,180 44.9,180 45.2,180 
		45.4,180 46.4,180 46.7,180 46.8,180 47.4,180 47.6,180 47.7,180 47.8,180 47.9,180 48.6,180 48.7,180 48.9,180 49,180 49.1,180 
		49.7,180 49.9,180 50.1,180 51.1,180 51.4,180 51.6,180 52.3,180 52.4,180 52.6,180 52.7,180 52.8,180 53.4,180 53.6,180 53.7,180 
		53.8,180 54.5,180 54.7,180 54.9,180 55.5,180 56.1,180 56.3,180 57.1,180 57.3,180 57.4,180 57.5,180 58.2,180 58.4,180 58.6,180 
		59.2,180 59.2,180 59.4,180 59.7,180 60.2,180 60.4,180 61.1,180 61.9,180 62.1,180 62.3,180 62.9,180 62.9,180 63.1,180 63.4,180 
		63.9,180 64.1,180 64.2,180 64.4,180 64.9,180 65.2,180 65.4,180 66.6,180 66.8,180 67.1,180 67.6,180 67.8,180 67.9,180 68.1,180 
		68.6,180 68.9,180 69.1,180 69.1,180 69.7,180 69.9,180 70.1,180 71.6,180 71.8,180 72.3,180 72.6,180 72.8,180 72.8,180 73.4,180 
		73.6,180 73.8,180 74.5,180 74.7,180 74.9,180 76.5,180 77.1,180 77.3,180 77.5,180 78.2,180 78.4,180 78.6,180 79.2,180 79.4,180 
		79.7,180 81.9,180 82.1,180 82.3,180 82.9,180 83.1,180 83.4,180 84.2,180 84.4,180 86.6,180 86.8,180 87.1,180 87.9,180 88.1,180 
		89.1,180 91.6,180 91.8,180 92.8,180 96.5,180 96.5,0 	"/>
</g>
<g id="figure">
	<g>
		<path d="M9.9,127.9c0-0.9,0.4-1.4,0.8-1.7c0.5-0.3,0.9-0.6,1.4-0.9c0.9-0.6,1.8-1.2,2.8-1.7c1.9-1.1,3.7-2.2,5.6-3.3
			c3.8-2.1,7.6-4.2,11.5-6.2c3.9-2,7.7-3.9,11.6-5.9l5.8-2.9c1-0.5,2-0.9,3-1.3c1-0.3,2-0.9,3.2-0.8l0,0l0,0c-0.5,1.4-1,2.6-1.8,3.5
			c-0.8,0.9-1.5,1.8-2.3,2.7c-0.7,0.9-1.4,1.8-1.9,2.7c-0.5,0.9-0.9,1.9-0.9,2.4c0,0.6-0.2,0.4,0.7,1.5c0.6,0.8,1.3,1.5,2.1,2
			c0.8,0.5,1.7,0.8,2.7,0.9c1,0.1,2.1-0.1,3.1-0.5c1-0.3,2.2-0.7,3-1.3c0.9-0.6,1.7-1.3,2.4-2.2c1.5-1.7,2.7-3.7,3.6-5.8
			c0.4-1,0.8-2.1,0.8-3c0-0.5-0.1-0.8-0.2-0.9c-0.1-0.1-0.5-0.3-0.9-0.4c-0.9-0.2-2.1,0-3.1,0.3c-1.1,0.3-2.1,0.8-3.1,1.4
			c-2,1.2-3.6,2.9-4.9,4.8c-0.7,0.9-1.2,2-1.6,3c-0.5,1.1-0.9,2.2-1.3,3.3c-0.8,2.3-1.6,4.6-2.4,6.9c-0.8,2.3-1.7,4.6-2.5,6.9
			c-1.8,4.6-3.5,9.3-6.4,13.7c-1.4,2.3-3.2,4.2-5,6c-1.8,1.8-3.7,3.4-5.7,5c-2,1.5-4,3-6.1,4.4c-2.1,1.4-4.2,2.7-6.5,3.8
			c-1.2,0.5-2.4,1.1-3.9,1.2c-0.7,0.1-1.9,0-2.6-1c-0.7-0.9-0.6-1.8-0.6-2.6c0.4-2.9,1.5-5.1,2.9-7.3c1.4-2.1,2.9-4.1,4.5-6
			c1.6-1.9,3.3-3.8,5.3-5.4c3.8-3.2,8-6,12.2-8.5l12.8-7.1c4.3-2.4,8.5-4.8,12.7-7.3l12.4-7.7c2.1-1.3,4.2-2.5,6.3-3.8l3.2-1.8
			c1-0.6,2.2-1.1,3.8-0.8l0.3,0.5c-0.5,1.6-1.5,2.3-2.5,2.9l-3.1,1.9c-2.1,1.2-4.2,2.5-6.3,3.7c-4.3,2.4-8.5,4.8-12.8,7.2
			c-4.3,2.3-8.6,4.7-12.8,7.2c-4.2,2.4-8.5,4.9-12.7,7.3c-4.1,2.5-8.1,5.3-11.6,8.5c-3.5,3.1-6.5,6.9-9.1,10.9c-0.6,1-1.2,2-1.8,3
			c-0.6,1-1.1,2-1.3,3c-0.1,0.5-0.1,0.9,0,1c0,0.1,0.3,0.2,0.7,0.2c0.9-0.1,2-0.7,3-1.3c1-0.6,1.9-1.3,2.9-2
			c0.9-0.7,1.8-1.5,2.7-2.4c1.7-1.6,3.4-3.4,5-5.2c1.6-1.8,3.1-3.6,4.6-5.4c1.5-1.8,2.9-3.6,4-5.5c1.2-1.9,2.3-4,3.4-6.1
			c1.1-2.1,2.2-4.2,3.3-6.4l3.2-6.6c1.1-2.2,2.3-4.4,3.5-6.5c0.6-1.1,1.2-2.2,1.9-3.2c0.7-1.1,1.5-2.2,2.3-3.2c1.7-2,3.7-3.7,5.9-5
			c1.1-0.7,2.3-1.2,3.5-1.7c1.2-0.4,2.6-0.8,4.1-0.6c0.8,0.1,1.6,0.3,2.4,1c0.8,0.8,0.9,1.8,0.9,2.5c0,1.5-0.4,2.8-0.8,4.1
			c-1,2.4-2.3,4.7-4,6.6c-0.9,1-1.8,1.9-3,2.7c-0.6,0.4-1.3,0.7-1.8,1c-0.6,0.3-1.2,0.5-1.8,0.8c-1.3,0.4-2.6,0.8-4,0.9
			c-1.4,0.1-3-0.1-4.4-0.7c-1.4-0.6-2.7-1.5-3.7-2.5c-0.3-0.3-0.5-0.5-0.7-0.8c-0.1-0.1-0.1-0.1-0.2-0.2l-0.2-0.3
			c-0.1-0.2-0.3-0.4-0.4-0.7c-0.5-1-0.6-2.1-0.5-3c0.3-1.9,1.1-3.1,1.9-4.3c0.8-1.1,1.7-2.1,2.7-3c0.9-0.9,1.9-1.7,3-2.4
			c1.1-0.7,2.4-1.1,3.9-1.1l0,0l0,0c-0.7,1.1-1.7,1.5-2.6,2.1c-0.9,0.6-1.9,1.1-2.8,1.6l-5.8,3c-3.8,2-7.7,4.1-11.5,6.1
			c-3.8,2.1-7.6,4.1-11.4,6.2c-1.9,1-3.8,2.1-5.7,3.2c-0.9,0.5-1.9,1.1-2.8,1.6c-0.5,0.3-0.9,0.6-1.3,0.9c-0.4,0.3-1,0.4-1.9,0.1
			L9.9,127.9z"/>
	</g>
</g>
</svg>
