<?xml version="1.0" encoding="utf-8"?>
<!-- Generator: Adobe Illustrator 22.1.0, SVG Export Plug-In . SVG Version: 6.00 Build 0)  -->
<svg version="1.1" xmlns="http://www.w3.org/2000/svg" xmlns:xlink="http://www.w3.org/1999/xlink" x="0px" y="0px"
	 viewBox="0 0 124.6 180" style="enable-background:new 0 0 124.6 180;" xml:space="preserve">
<style type="text/css">
	.st0{display:none;}
	.st1{display:inline;fill:#FF0000;}
</style>
<g id="bg" class="st0">
	<polygon class="st1" points="118.4,0 116.6,0 116.2,0 112.2,0 110.4,0 110,0 108.7,0 108.3,0 107.9,0 104.6,0 104.2,0 103.8,0 
		102.5,0 102.1,0 101.6,0 100.3,0 99.9,0 98.4,0 96.6,0 96.3,0 96.2,0 95.9,0 95.4,0 94.1,0 93.7,0 92.2,0 92,0 90.4,0 90,0 88.7,0 
		88.3,0 87.9,0 87.9,0 87.5,0 85.8,0 84.2,0 83.8,0 82.5,0 82.1,0 81.6,0 80.3,0 79.9,0 79.6,0 76.3,0 75.9,0 75.4,0 74.1,0 73.7,0 
		72,0 67.9,0 67.5,0 65.8,0 65,0 59.6,0 58.8,0 57.1,0 56.6,0 52.6,0 50.9,0 50.4,0 49.1,0 48.7,0 48.3,0 45,0 44.6,0 44.2,0 
		42.9,0 42.5,0 42.1,0 40.8,0 40.4,0 38.8,0 37.1,0 36.7,0 36.6,0 36.3,0 35.9,0 34.6,0 34.1,0 32.6,0 32.4,0 30.9,0 30.4,0 29.1,0 
		28.7,0 28.4,0 28.3,0 27.9,0 26.2,0 24.6,0 24.2,0 22.9,0 22.5,0 22.1,0 20.8,0 20.4,0 20,0 16.7,0 16.3,0 15.9,0 14.6,0 14.1,0 
		12.4,0 8.4,0 7.9,0 6.2,0 0,0 0,180 6.2,180 7.9,180 8.4,180 12.4,180 14.1,180 14.6,180 15.9,180 16.3,180 16.7,180 20,180 
		20.4,180 20.8,180 22.1,180 22.5,180 22.9,180 24.2,180 24.6,180 26.2,180 27.9,180 28.3,180 28.4,180 28.7,180 29.1,180 30.4,180 
		30.9,180 32.4,180 32.6,180 34.1,180 34.6,180 35.9,180 36.3,180 36.6,180 36.7,180 37.1,180 38.8,180 40.4,180 40.8,180 42.1,180 
		42.5,180 42.9,180 44.2,180 44.6,180 45,180 48.3,180 48.7,180 49.1,180 50.4,180 50.9,180 52.6,180 56.6,180 57.1,180 58.8,180 
		59.6,180 65,180 65.8,180 67.5,180 67.9,180 72,180 73.7,180 74.1,180 75.4,180 75.9,180 76.3,180 79.6,180 79.9,180 80.3,180 
		81.6,180 82.1,180 82.5,180 83.8,180 84.2,180 85.8,180 87.5,180 87.9,180 87.9,180 88.3,180 88.7,180 90,180 90.4,180 92,180 
		92.2,180 93.7,180 94.1,180 95.4,180 95.9,180 96.2,180 96.3,180 96.6,180 98.4,180 99.9,180 100.3,180 101.6,180 102.1,180 
		102.5,180 103.8,180 104.2,180 104.6,180 107.9,180 108.3,180 108.7,180 110,180 110.4,180 112.2,180 116.2,180 116.6,180 
		118.4,180 124.6,180 124.6,0 	"/>
</g>
<g id="figure">
	<g>
		<g>
			<path d="M32.2,94.8c-0.1-1.5,0.6-2.2,1.3-2.9l2-2.2c1.4-1.4,2.7-2.9,4.1-4.3c2.8-2.8,5.7-5.6,8.6-8.3
				c5.8-5.4,11.7-10.7,18.2-15.6c1.6-1.2,3.4-2.3,5.2-3.2c1.9-0.9,3.8-1.8,6.1-2.2c1.1-0.2,2.4-0.3,3.8,0.2c0.7,0.2,1.4,0.6,2,1.2
				c0.6,0.6,1.1,1.3,1.4,2.1c0.3,0.8,0.4,1.6,0.4,2.3c0,0.4-0.1,0.7-0.1,1.1L85,63.6L84.8,64c-0.3,1.1-0.6,2.1-1,3.1
				c-1.5,3.9-3.7,7.3-5.8,10.8c-1.1,1.7-2.2,3.4-3.3,5.1L73,85.5l-0.9,1.2l-0.3,0.4l-0.2,0.3L71.2,88l-14.5,18.9l-7.2,9.4l-7.3,9.4
				c-4.9,6.2-9.8,12.5-14.8,18.6c-2.5,3.1-5,6.2-7.5,9.3l-3.8,4.6l-1.9,2.3c-0.5,0.8-1.4,1.4-4,0.7l-0.8-0.6c-1.4-2.3-1-3.3-0.3-4
				l1.8-2.4l3.6-4.8c2.4-3.2,4.7-6.4,7.1-9.5c4.8-6.3,9.6-12.6,14.4-18.9l7.3-9.4l7.4-9.3l7.4-9.3c2.5-3.1,5-6.1,7.4-9.2l0.5-0.6
				l0.2-0.3l0.2-0.2l0.9-1.2l1.7-2.4c1.1-1.6,2.2-3.2,3.3-4.8c2.2-3.2,4.1-6.6,6.1-9.8c0.2-0.4,0.5-0.8,0.7-1.2
				c0.2-0.4,0.4-0.8,0.6-1.2l0.3-0.5c0.1-0.1,0.1-0.2,0.2-0.4c0.1-0.2,0.1-0.4,0.2-0.6c0-0.3,0-0.7-0.5-1c-0.5-0.3-1.2-0.5-2.1-0.5
				c-1.7,0-3.5,0.5-5.2,1.3c-1.7,0.8-3.4,1.8-5,2.9c-3.2,2.2-6.2,4.8-9.1,7.4c-2.9,2.7-5.8,5.4-8.6,8.1c-2.8,2.8-5.6,5.6-8.4,8.4
				l-4.2,4.2l-2.1,2.1c-0.7,0.7-1.4,1.4-2.8,1.4L32.2,94.8z"/>
		</g>
		<g>
			<path d="M66.1,92.6c1.5-2.7,3.2-5.1,5-7.5c1.8-2.4,3.7-4.7,5.5-7c1.8-2.4,4.1-4.5,6.3-6.5c2.3-2,4.6-3.9,7.1-5.7
				c2.4-1.8,4.9-3.5,7.5-5.1c2.6-1.7,5.3-3.2,8.3-4.3c1.5-0.5,3.2-1,5.1-1c1,0,2.1,0.1,3.2,0.6c1.2,0.5,2.3,1.7,2.8,3
				c0.5,1.2,0.6,2.4,0.5,3.5c-0.1,1-0.2,2-0.5,2.8c-0.5,1.8-1.2,3.3-1.9,4.8l0.1-0.3c-1,2.2-2.2,3.8-3.4,5.5
				c-1.2,1.6-2.5,3.1-3.9,4.5c-2.7,2.8-5.5,5.4-8.4,7.9c-2.9,2.5-5.9,4.8-9,7c-3,2.2-6.2,4.5-9.3,6.6c-6.3,4.2-13,7.9-19.7,11.4
				c-3.3,1.7-6.5,3.7-10,5.3c-3.5,1.6-7.2,3-11.2,3c-1.9,0-3.7,0.1-5.7-0.1c-0.5-0.1-1-0.1-1.6-0.3c-0.6-0.2-1.1-0.5-1.6-0.9
				c-0.5-0.4-0.8-0.9-1.1-1.5c-0.2-0.3-0.3-1-0.1-1.5c0.2-0.5,0.5-0.8,0.8-1c0.6-0.4,1.1-0.6,1.7-0.7c0.5-0.1,1-0.2,1.5-0.2
				c1-0.1,2-0.1,3,0c1.9,0.1,4,0.6,5.8,1.3c1.8,0.7,3.5,1.5,5.2,2c1.7,0.5,3.5,0.6,5.3,0.7c3.6,0.1,7.2-0.7,10.7-1.8
				c3.5-1.1,7-2.5,10.4-4c3.4-1.5,6.7-3.1,10-4.9c3.3-1.8,6.6-3.6,9.8-5.4l4.9-2.8l2.4-1.4l1.2-0.7c0.4-0.2,0.9-0.4,1.6-0.1l0.3,0.5
				c-0.1,0.8-0.5,1.1-0.9,1.3l-1.2,0.7l-2.4,1.4l-4.9,2.8c-3.3,1.9-6.5,3.7-9.8,5.5c-6.6,3.6-13.5,6.8-20.8,9.1
				c-3.6,1.1-7.4,2-11.4,1.9c-1.9,0-3.9-0.2-5.8-0.8c-2-0.6-3.6-1.5-5.3-2.1c-1.7-0.7-3.4-1-5.2-1.2c-0.9-0.1-1.8-0.1-2.6,0
				c-0.4,0-0.8,0.1-1.2,0.2c-0.4,0.1-0.8,0.2-0.9,0.4c-0.1,0.1-0.1,0.1-0.1,0c0-0.1,0-0.2,0-0.1c0.1,0.3,0.4,0.6,0.6,0.8
				c0.4,0.4,1.1,0.6,2,0.6c1.7,0.1,3.6,0,5.5,0c3.5-0.1,7-1.4,10.2-3c3.3-1.6,6.5-3.5,9.8-5.4c3.2-1.8,6.2-4,9.2-6.3
				c2.9-2.3,5.9-4.6,8.7-7c1.4-1.2,2.8-2.4,4.2-3.6c1.4-1.2,2.7-2.5,4.1-3.8l8.1-7.7c2.7-2.6,5.3-5.1,7.9-7.7
				c1.3-1.3,2.5-2.6,3.6-3.9c1.2-1.3,2.2-2.6,2.9-3.8l0.1-0.3c0.7-1.1,1.4-2.2,1.9-3.2c0.5-1,0.7-2.1,0.7-2.4c0-0.1,0.1-0.2-0.1-0.3
				c-0.1-0.2-0.5-0.3-1-0.4c-1.1-0.2-2.3,0-3.6,0.3c-2.6,0.7-5.2,1.9-7.8,3.2c-2.5,1.4-4.9,3.1-7.2,4.9c-2.3,1.8-4.4,3.8-6.5,5.8
				c-2.1,2-4,4.2-6.2,6.2c-4.2,4.1-8.5,8.2-12.5,12.5L66.1,92.6z"/>
		</g>
	</g>
</g>
</svg>
