<?xml version="1.0" encoding="utf-8"?>
<!-- Generator: Adobe Illustrator 22.1.0, SVG Export Plug-In . SVG Version: 6.00 Build 0)  -->
<svg version="1.1" xmlns="http://www.w3.org/2000/svg" xmlns:xlink="http://www.w3.org/1999/xlink" x="0px" y="0px"
	 viewBox="0 0 162.3 180" style="enable-background:new 0 0 162.3 180;" xml:space="preserve">
<style type="text/css">
	.st0{display:none;}
	.st1{display:inline;fill:#FF0000;}
</style>
<g id="bg" class="st0">
	<polygon class="st1" points="153.8,0 151.5,0 150.9,0 145.4,0 143,0 142.4,0 142.3,0 140.7,0 140.1,0 139.5,0 134.6,0 134,0 
		133.8,0 132.2,0 131.6,0 131.5,0 131.1,0 130.9,0 129.3,0 128.7,0 125.4,0 123.8,0 123.2,0 123,0 122.6,0 122.4,0 120.9,0 120.7,0 
		120.3,0 120.1,0 119.5,0 117.9,0 114.6,0 114,0 112.4,0 112.2,0 111.8,0 111.6,0 111.1,0 109.5,0 109.3,0 108.7,0 103.8,0 103.2,0 
		102.6,0 101,0 100.9,0 100.3,0 97.9,0 92.4,0 91.8,0 89.5,0 81.2,0 81,0 72.8,0 70.4,0 69.8,0 64.3,0 62,0 61.4,0 61.2,0 59.6,0 
		59.1,0 58.5,0 53.5,0 53,0 52.8,0 51.2,0 50.6,0 50.4,0 50,0 49.8,0 48.3,0 47.7,0 44.3,0 42.7,0 42.2,0 42,0 41.6,0 41.4,0 
		39.8,0 39.6,0 39.2,0 39.1,0 38.5,0 36.9,0 33.5,0 33,0 31.4,0 31.2,0 30.8,0 30.6,0 30,0 28.4,0 28.3,0 27.7,0 22.7,0 22.2,0 
		21.6,0 20,0 19.8,0 19.2,0 16.9,0 11.4,0 10.8,0 8.4,0 0,0 0,180 8.4,180 10.8,180 11.4,180 16.9,180 19.2,180 19.8,180 20,180 
		21.6,180 22.2,180 22.7,180 27.7,180 28.3,180 28.4,180 30,180 30.6,180 30.8,180 31.2,180 31.4,180 33,180 33.5,180 36.9,180 
		38.5,180 39.1,180 39.2,180 39.6,180 39.8,180 41.4,180 41.6,180 42,180 42.2,180 42.7,180 44.3,180 47.7,180 48.3,180 49.8,180 
		50,180 50.4,180 50.6,180 51.2,180 52.8,180 53,180 53.5,180 58.5,180 59.1,180 59.6,180 61.2,180 61.4,180 62,180 64.3,180 
		69.8,180 70.4,180 72.8,180 81,180 81.2,180 89.5,180 91.8,180 92.4,180 97.9,180 100.3,180 100.9,180 101,180 102.6,180 
		103.2,180 103.8,180 108.7,180 109.3,180 109.5,180 111.1,180 111.6,180 111.8,180 112.2,180 112.4,180 114,180 114.6,180 
		117.9,180 119.5,180 120.1,180 120.3,180 120.7,180 120.9,180 122.4,180 122.6,180 123,180 123.2,180 123.8,180 125.4,180 
		128.7,180 129.3,180 130.9,180 131.1,180 131.5,180 131.6,180 132.2,180 133.8,180 134,180 134.6,180 139.5,180 140.1,180 
		140.7,180 142.3,180 142.4,180 143,180 145.4,180 150.9,180 151.5,180 153.8,180 162.3,180 162.3,0 	"/>
</g>
<g id="figure">
	<g>
		<g>
			<path d="M32.2,94.8c-0.1-1.5,0.6-2.2,1.3-2.9l2-2.2c1.4-1.4,2.7-2.9,4.1-4.3c2.8-2.8,5.7-5.6,8.6-8.3
				c5.8-5.4,11.7-10.7,18.2-15.6c1.6-1.2,3.4-2.3,5.2-3.2c1.9-0.9,3.8-1.8,6.1-2.2c1.1-0.2,2.4-0.3,3.8,0.2c0.7,0.2,1.4,0.6,2,1.2
				c0.6,0.6,1.1,1.3,1.4,2.1c0.3,0.8,0.4,1.6,0.4,2.3c0,0.4-0.1,0.7-0.1,1.1L85,63.5l-0.1,0.4c-0.3,1.1-0.6,2.1-1,3.1
				c-1.5,3.9-3.7,7.3-5.9,10.8c-1.1,1.7-2.2,3.4-3.3,5.1L73,85.4l-0.9,1.2L71.9,87l-0.2,0.3l-0.5,0.6l-7.3,9.5l-7.3,9.4
				c-4.9,6.3-9.7,12.5-14.6,18.7l-14.7,18.7l-7.4,9.3l-3.7,4.7l-1.8,2.3c-0.3,0.4-0.5,0.8-1,1.1c-0.5,0.2-0.9,0.5-3-0.4l-0.8-0.6
				c-1.5-1.8-1.2-2.2-1.2-2.8c0.2-0.5,0.6-0.8,0.9-1.2l1.8-2.4l3.6-4.7l7.2-9.4l14.5-18.9c4.8-6.3,9.7-12.6,14.6-18.8l7.3-9.4
				c2.5-3.1,4.9-6.2,7.4-9.2l0.5-0.6l0.2-0.3l0.2-0.2l0.9-1.2l1.7-2.4c1.1-1.6,2.2-3.2,3.3-4.8c2.2-3.2,4.1-6.6,6.1-9.8
				c0.2-0.4,0.5-0.8,0.7-1.2c0.2-0.4,0.4-0.8,0.6-1.2l0.3-0.5c0.1-0.1,0.1-0.2,0.2-0.4c0.1-0.2,0.1-0.4,0.2-0.6c0-0.3,0-0.7-0.5-1
				c-0.5-0.3-1.2-0.5-2.1-0.5c-1.7,0-3.5,0.5-5.2,1.3c-1.7,0.8-3.4,1.8-5,2.9c-3.2,2.2-6.2,4.8-9.1,7.4c-2.9,2.7-5.8,5.4-8.6,8.1
				c-2.8,2.8-5.6,5.6-8.4,8.4l-4.2,4.2l-2.1,2.1c-0.7,0.7-1.4,1.4-2.8,1.4L32.2,94.8z"/>
		</g>
		<g>
			<path d="M70.1,115.6c2.6-1.7,5.5-2.6,8.3-3.6l8.6-2.9c5.7-1.9,11.4-3.8,17.1-5.7c5.7-1.7,11-4.4,15.9-7.7c5-3.3,9.7-7,14.1-11
				c4.4-4,8.5-8.4,12.2-13.1c0.9-1.2,1.8-2.4,2.6-3.6c0.8-1.2,1.6-2.5,2-3.8c0.1-0.3,0.2-0.6,0.2-0.9c0.1-0.3,0-0.6,0-0.5
				c0,0.2,0.2,0.3,0.1,0.3c-0.1,0-0.3,0.1-0.6,0.2c-1,0.5-2.1,1.5-3.1,2.5c-1,1-2.1,1.9-3.2,2.9c-1.1,1-2.2,2-3.2,3
				c-2.1,2-4.3,4.1-6.3,6.2c-4.1,4.3-8,8.8-11.4,13.5l0,0l-0.1,0.2l-1.8,2.2l-1.9,2.3l-3.7,4.7l-7.3,9.5
				c-4.9,6.3-9.6,12.8-14.4,19.2l-14.3,19.2l-7.2,9.6l-3.6,4.8c-0.3,0.4-0.5,0.9-0.9,1.2c-0.4,0.4-0.9,0.6-1.4,0.8
				c-1.1,0.4-2.3,0.7-3.9,0.8l-0.8-0.6c-0.4-1.6-0.4-2.8-0.3-4c0.1-0.6,0.1-1.2,0.4-1.6c0.2-0.4,0.6-0.8,0.9-1.2l3.7-4.7l7.4-9.5
				L89,125.3l14.9-18.8l7.4-9.4l3.8-4.7L117,90l2-2.4l-0.2,0.2c3.7-5,7.8-9.5,12.1-13.9c2.1-2.2,4.3-4.3,6.6-6.4
				c1.2-1,2.3-2,3.6-2.9c1.2-0.9,2.5-1.9,4-2.5c0.7-0.3,1.5-0.6,2.3-0.9c0.8-0.3,1.6-0.6,2.5-0.8c0.5-0.1,1-0.2,1.7,0
				c0.7,0.1,1.6,0.6,1.8,1.6c0.2,0.8,0,1.3-0.2,1.7c-0.1,0.4-0.3,0.8-0.5,1.2c-1.5,2.9-3.2,5.3-5.1,7.7c-1.9,2.4-3.9,4.7-5.9,6.9
				c-2.1,2.2-4.2,4.4-6.4,6.4c-4.4,4.1-9.1,8-14.2,11.4c-5,3.4-10.5,6.3-16.4,8l-17.2,5.5c-2.9,0.9-5.7,1.9-8.5,2.9
				c-2.9,0.9-5.7,2-8.7,2.3L70.1,115.6z"/>
		</g>
		<g>
			<path d="M129.8,105.1c0.1,1-0.3,1.3-0.8,1.6l-1.3,0.9c-0.8,0.6-1.7,1.2-2.6,1.8c-1.7,1.2-3.5,2.3-5.2,3.5
				c-3.5,2.2-7.1,4.4-10.8,6.4l-1.4,0.7l-1.5,0.7c-1,0.4-2.1,0.7-3.1,1c-2.1,0.4-4.3,0.6-6.5,0.3c-1.1-0.1-2.2-0.4-3.3-0.8
				c-0.6-0.2-1.1-0.5-1.6-0.9c-0.6-0.4-1.2-1.1-1.4-1.9c-0.5-1.5-0.5-2.8-0.3-4c0.1-0.6,0.1-1.2,0.7-1.6c0.3-0.2,0.5-0.4,0.9-0.5
				c0.3-0.2,0.7-0.3,1.1-0.4l0.9,0.4c0.2,0.4,0.3,0.7,0.5,1.1c0.1,0.3,0.2,0.6,0.3,0.9c0.2,0.6-0.1,0.9-0.3,1.3
				c-0.4,0.8-0.9,1.5-1,2.1c0,0.3-0.1,0.4,0.2,0.7c0.2,0.3,0.6,0.5,1,0.7c0.8,0.4,1.7,0.7,2.7,0.9c1.9,0.3,4,0.3,5.9-0.1
				c2-0.4,3.8-1.2,5.6-2.2c3.6-2,7.1-4.3,10.5-6.7l5.1-3.5l2.6-1.7l1.3-0.9c0.4-0.3,0.8-0.6,1.8-0.2L129.8,105.1z"/>
		</g>
		<g>
			<path d="M66.1,92.6c1.5-2.7,3.2-5.1,5-7.5c1.8-2.4,3.7-4.7,5.5-7c1.8-2.4,4-4.5,6.3-6.5c2.3-2,4.6-3.9,7.1-5.7
				c2.4-1.8,4.9-3.5,7.5-5.1c2.6-1.7,5.3-3.2,8.3-4.3c1.5-0.5,3.2-1,5.1-1c1,0,2.1,0.1,3.2,0.6c1.2,0.5,2.3,1.7,2.8,3
				c0.5,1.2,0.6,2.4,0.5,3.5c-0.1,1-0.2,2-0.5,2.8c-0.5,1.8-1.2,3.3-1.9,4.8l0.1-0.3c-0.8,1.9-1.8,3.3-2.8,4.7
				c-1,1.4-2.1,2.7-3.2,3.9c-2.2,2.5-4.6,4.7-7,6.9c-4.8,4.3-10,8.1-15.2,11.9c-5.3,3.7-10.7,7.3-16.3,10.4
				c-2.8,1.6-5.6,3.1-8.5,4.6c-2.8,1.5-5.6,3.1-8.4,4.5c-2.9,1.4-5.9,2.8-9.1,3.6c-0.8,0.2-1.6,0.3-2.5,0.4
				c-0.8,0.1-1.7,0.1-2.5,0.1c-1.6,0-3.2,0.1-4.9,0c-0.8-0.1-1.8-0.2-2.7-0.7c-0.5-0.3-0.9-0.6-1.2-1.1c-0.2-0.2-0.3-0.4-0.4-0.6
				l-0.1-0.2l-0.1-0.2c-0.1-0.2-0.1-0.4-0.1-0.6c0-0.4,0.2-0.9,0.4-1.2c0.2-0.3,0.5-0.5,0.7-0.6c0.5-0.3,0.9-0.4,1.4-0.5
				c0.9-0.2,1.7-0.3,2.6-0.3c1.7,0,3.3,0.2,5,0.5c1.6,0.4,3.2,1,4.6,1.8c1.4,0.8,2.7,1.5,4.1,1.8c1.4,0.3,2.9,0.2,4.4,0.1
				c3.1-0.4,6.2-1.2,9.2-1.9c6.1-1.6,12.1-3.6,18.1-5.9l0.6,1.6c-6,2.2-12,4.3-18.2,6c-3.1,0.8-6.2,1.6-9.4,2
				c-1.6,0.2-3.3,0.3-5-0.1c-1.7-0.3-3.2-1.2-4.6-1.9c-1.4-0.7-2.8-1.3-4.2-1.6c-1.5-0.3-3-0.5-4.5-0.4c-0.7,0-1.5,0.1-2.2,0.3
				c-0.3,0.1-0.6,0.2-0.8,0.3c-0.1,0.1-0.2,0.1-0.2,0.1c0,0,0-0.1,0-0.1c-0.1-0.1,0.2,0.3,0.3,0.5c0.2,0.2,0.4,0.4,0.6,0.5
				c0.4,0.3,1.1,0.4,1.9,0.4c1.5,0.1,3.1,0,4.7,0c0.8,0,1.5,0,2.3-0.1c0.7-0.1,1.5-0.2,2.2-0.4c2.9-0.7,5.8-2.1,8.6-3.5
				c2.8-1.5,5.5-3.1,8.3-4.7c2.7-1.6,5.3-3.4,7.8-5.3c5-3.9,10-7.7,14.6-12c4.6-4.3,9.2-8.7,13.7-13c2.2-2.2,4.5-4.3,6.6-6.5
				c1.1-1.1,2.1-2.2,3-3.3c1-1.1,1.8-2.2,2.4-3.2l0.1-0.3c0.7-1.1,1.4-2.2,1.9-3.2c0.5-1,0.7-2.1,0.7-2.4c0-0.1,0.1-0.2-0.1-0.3
				c-0.1-0.2-0.5-0.3-1-0.4c-1.1-0.2-2.3,0-3.6,0.3c-2.6,0.7-5.2,1.9-7.8,3.2c-2.5,1.4-4.9,3.1-7.2,4.9c-2.3,1.8-4.4,3.7-6.5,5.8
				l-3.1,3.1L81,79.1l-1.6,1.5c-4.2,4.1-8.5,8.2-12.5,12.5L66.1,92.6z"/>
		</g>
	</g>
</g>
</svg>
