<?xml version="1.0" encoding="utf-8"?>
<!-- Generator: Adobe Illustrator 22.1.0, SVG Export Plug-In . SVG Version: 6.00 Build 0)  -->
<svg version="1.1" xmlns="http://www.w3.org/2000/svg" xmlns:xlink="http://www.w3.org/1999/xlink" x="0px" y="0px"
	 viewBox="0 0 155.5 180" style="enable-background:new 0 0 155.5 180;" xml:space="preserve">
<style type="text/css">
	.st0{display:none;}
	.st1{display:inline;fill:#FF0000;}
</style>
<g id="bg" class="st0">
	<polygon class="st1" points="149,0 147.2,0 146.7,0 142.4,0 140.6,0 140.2,0 138.8,0 138.4,0 137.9,0 135.5,0 134.1,0 133.6,0 
		132.3,0 131.8,0 131.4,0 130.2,0 130,0 129.5,0 129,0 127.2,0 126.7,0 125.7,0 125.3,0 124.8,0 123.7,0 123.5,0 123,0 122.4,0 
		121.9,0 121.4,0 121.2,0 120.6,0 120.2,0 118.8,0 118.4,0 117.9,0 117.2,0 116.9,0 116.5,0 115.3,0 114.9,0 114.6,0 114.1,0 
		113.6,0 113.5,0 113.1,0 112.6,0 112.3,0 111.8,0 111.4,0 110.2,0 110,0 109.5,0 108.8,0 108.3,0 108.1,0 107,0 106.5,0 106.1,0 
		105.7,0 105.3,0 104.8,0 104.7,0 104.3,0 103.7,0 103.5,0 103,0 101.9,0 101.4,0 101.2,0 100.4,0 100,0 99.5,0 98.2,0 97.7,0 
		97.2,0 96.9,0 96.5,0 95.9,0 95.3,0 94.9,0 94.6,0 93.5,0 93.1,0 92.7,0 92.6,0 91.6,0 91.2,0 89.3,0 88.8,0 88.3,0 88.1,0 87,0 
		86.5,0 86.2,0 86.1,0 84.7,0 84.4,0 84.3,0 83.9,0 82.8,0 80.4,0 80,0 79.6,0 79.5,0 78.2,0 77.8,0 77.7,0 77.4,0 76,0 75.9,0 
		75.6,0 75.1,0 72.7,0 71.6,0 71.3,0 71.2,0 70.8,0 69.5,0 69.3,0 69,0 68.6,0 67.4,0 67.2,0 66.7,0 66.2,0 64.4,0 63.9,0 62.9,0 
		62.8,0 62.5,0 62,0 60.9,0 60.6,0 60.2,0 59.6,0 59.1,0 58.6,0 58.4,0 57.8,0 57.4,0 56,0 55.6,0 55.1,0 54.3,0 54.1,0 53.7,0 
		52.5,0 52.1,0 51.8,0 51.3,0 50.8,0 50.7,0 50.3,0 49.8,0 49.5,0 49,0 48.6,0 47.4,0 47.2,0 46.7,0 46,0 45.5,0 45.3,0 44.2,0 
		43.7,0 43.3,0 42.9,0 42.5,0 42,0 41.9,0 41.5,0 40.9,0 40.6,0 40.2,0 39.1,0 38.6,0 38.4,0 37.6,0 37.2,0 36.7,0 35.4,0 34.9,0 
		34.3,0 34.1,0 33.7,0 33.1,0 32.5,0 32.1,0 31.8,0 30.7,0 30.3,0 29.8,0 28.8,0 28.4,0 26.5,0 26,0 25.5,0 25.3,0 24.2,0 23.7,0 
		23.3,0 21.9,0 21.5,0 20,0 17.6,0 17.2,0 16.7,0 15.4,0 14.9,0 13.1,0 8.8,0 8.4,0 6.5,0 0,0 0,180 6.5,180 8.4,180 8.8,180 
		13.1,180 14.9,180 15.4,180 16.7,180 17.2,180 17.6,180 20,180 21.5,180 21.9,180 23.3,180 23.7,180 24.2,180 25.3,180 25.5,180 
		26,180 26.5,180 28.4,180 28.8,180 29.8,180 30.3,180 30.7,180 31.8,180 32.1,180 32.5,180 33.1,180 33.7,180 34.1,180 34.3,180 
		34.9,180 35.4,180 36.7,180 37.2,180 37.6,180 38.4,180 38.6,180 39.1,180 40.2,180 40.6,180 40.9,180 41.5,180 41.9,180 42,180 
		42.5,180 42.9,180 43.3,180 43.7,180 44.2,180 45.3,180 45.5,180 46,180 46.7,180 47.2,180 47.4,180 48.6,180 49,180 49.5,180 
		49.8,180 50.3,180 50.7,180 50.8,180 51.3,180 51.8,180 52.1,180 52.5,180 53.7,180 54.1,180 54.3,180 55.1,180 55.6,180 56,180 
		57.4,180 57.8,180 58.4,180 58.6,180 59.1,180 59.6,180 60.2,180 60.6,180 60.9,180 62,180 62.5,180 62.8,180 62.9,180 63.9,180 
		64.4,180 66.2,180 66.7,180 67.2,180 67.4,180 68.6,180 69,180 69.3,180 69.5,180 70.8,180 71.2,180 71.3,180 71.6,180 72.7,180 
		75.1,180 75.6,180 75.9,180 76,180 77.4,180 77.7,180 77.8,180 78.2,180 79.5,180 79.6,180 80,180 80.4,180 82.8,180 83.9,180 
		84.3,180 84.4,180 84.7,180 86.1,180 86.2,180 86.5,180 87,180 88.1,180 88.3,180 88.8,180 89.3,180 91.2,180 91.6,180 92.6,180 
		92.7,180 93.1,180 93.5,180 94.6,180 94.9,180 95.3,180 95.9,180 96.5,180 96.9,180 97.2,180 97.7,180 98.2,180 99.5,180 100,180 
		100.4,180 101.2,180 101.4,180 101.9,180 103,180 103.5,180 103.7,180 104.3,180 104.7,180 104.8,180 105.3,180 105.7,180 
		106.1,180 106.5,180 107,180 108.1,180 108.3,180 108.8,180 109.5,180 110,180 110.2,180 111.4,180 111.8,180 112.3,180 112.6,180 
		113.1,180 113.5,180 113.6,180 114.1,180 114.6,180 114.9,180 115.3,180 116.5,180 116.9,180 117.2,180 117.9,180 118.4,180 
		118.8,180 120.2,180 120.6,180 121.2,180 121.4,180 121.9,180 122.4,180 123,180 123.5,180 123.7,180 124.8,180 125.3,180 
		125.7,180 126.7,180 127.2,180 129,180 129.5,180 130,180 130.2,180 131.4,180 131.8,180 132.3,180 133.6,180 134.1,180 135.5,180 
		137.9,180 138.4,180 138.8,180 140.2,180 140.6,180 142.4,180 146.7,180 147.2,180 149,180 155.5,180 155.5,0 	"/>
</g>
<g id="figure">
	<g>
		<g>
			<path d="M9.9,127.9c0-0.9,0.4-1.4,0.8-1.7c0.5-0.3,0.9-0.6,1.4-0.9c0.9-0.6,1.8-1.2,2.8-1.7c1.9-1.1,3.7-2.2,5.6-3.3
				c3.8-2.1,7.6-4.2,11.5-6.2c3.9-2,7.7-3.9,11.6-5.9l5.8-2.9c1-0.5,2-0.9,3-1.3c1-0.3,2-0.9,3.2-0.8l0,0l0,0
				c-0.4,1.3-0.9,2.5-1.6,3.3l-2.2,2.5c-0.7,0.8-1.4,1.7-1.9,2.5c-0.5,0.8-0.9,1.8-1.1,2.5c-0.1,0.4-0.1,0.6-0.1,0.8
				c0,0.2,0,0.3,0.1,0.5c0.6,0.8,1.1,1.5,1.8,2.1c0.7,0.6,1.4,1.1,2.3,1.3c0.9,0.3,1.8,0.3,2.8,0.1c1-0.2,2-0.5,3-0.9
				c0.2-0.1,0.5-0.2,0.7-0.3c0.2-0.1,0.4-0.2,0.6-0.3c0.4-0.3,0.8-0.6,1.2-0.9c1.6-1.3,2.9-3.1,3.9-5c0.5-0.9,1-1.9,1.3-2.9
				c0.4-1,0.6-2,0.5-2.8c0-0.2-0.1-0.3-0.1-0.4c0-0.1,0-0.1-0.2-0.2c-0.2-0.2-0.6-0.3-1-0.4c-0.9-0.1-2,0.1-3,0.4
				c-2,0.6-3.9,1.8-5.5,3.3c-1.6,1.5-2.9,3.3-3.8,5.2c-1.8,4-3.1,8.5-4.7,12.7c-1.6,4.3-3.2,8.7-5.1,13c-1,2.1-2.1,4.3-3.5,6.3
				c-1.4,2.1-3.1,3.9-4.7,5.6c-3.4,3.4-7.1,6.2-11,8.9c-2,1.3-4,2.6-6.1,3.7c-1.1,0.6-2.1,1.1-3.4,1.5c-0.6,0.2-1.2,0.4-2,0.4
				c-0.4,0-0.8,0-1.3-0.2c-0.4-0.2-0.9-0.5-1.1-1c-0.5-0.9-0.5-1.7-0.4-2.4c0.1-0.7,0.2-1.3,0.4-1.9c0.4-1.2,0.8-2.3,1.4-3.4
				c1.1-2.1,2.5-4,3.9-5.9c1.4-1.9,2.9-3.7,4.6-5.3c1.7-1.7,3.5-3.2,5.4-4.6c3.7-2.8,7.7-5.3,11.7-7.5l12.1-6.6
				c4-2.3,8.1-4.3,12.1-6.6l6.1-3.2c1-0.5,2-1.1,3-1.6l1.5-0.8l0.8-0.4c0.3-0.1,0.5-0.3,0.9-0.1l0.6,1c-0.1,0.4-0.4,0.5-0.6,0.7
				l-0.8,0.4l-1.5,0.8c-1,0.6-2,1.1-3,1.6l-6.1,3.2c-4,2.2-7.9,4.7-11.9,7L39,135.8c-3.9,2.3-7.7,4.8-11.3,7.5
				c-1.8,1.4-3.5,2.8-5,4.4c-1.5,1.6-3,3.3-4.3,5.1c-1.4,1.8-2.6,3.7-3.7,5.5c-0.6,0.9-1.1,1.9-1.6,2.8c-0.2,0.5-0.4,0.9-0.5,1.4
				c-0.1,0.4-0.1,0.8,0,1c0,0.1,0.2,0.2,0.6,0.2c0.4,0,0.9-0.1,1.3-0.3c0.9-0.4,1.9-1,2.8-1.6c1.8-1.3,3.5-2.7,5.1-4.3
				c3.2-3.1,6.2-6.6,9-10c1.4-1.7,2.7-3.4,3.8-5.2c1.1-1.8,2.2-3.7,3.2-5.7c2.1-3.9,4.1-8,6.2-12.1c2-4.1,4.2-8.2,6.7-12.3
				c2.7-4.1,6.6-7.3,11.2-9c1.2-0.4,2.4-0.7,3.8-0.7c0.7,0,1.5,0.2,2.2,0.6c0.4,0.2,0.8,0.6,1,1c0.2,0.4,0.3,0.8,0.4,1.2
				c0.2,1.5-0.1,2.8-0.5,4c-0.4,1.2-0.9,2.3-1.5,3.4c-1.2,2.1-2.6,4.1-4.5,5.8c-0.5,0.4-1,0.8-1.5,1.2c-0.3,0.2-0.6,0.3-0.9,0.5
				l-0.8,0.4c-1.1,0.5-2.3,0.9-3.5,1.2c-1.3,0.3-2.6,0.4-4,0.3c-1.4-0.1-2.8-0.6-4-1.4c-1.2-0.7-2.2-1.7-3.1-2.7
				c-0.6-0.7-1-1.7-1.1-2.7c-0.1-1,0.1-1.8,0.3-2.6c0.5-1.5,1.3-2.6,2.1-3.6c0.8-1,1.7-1.9,2.5-2.7c0.9-0.8,1.8-1.6,2.8-2.2
				c1-0.6,2.3-1,3.7-1l0,0l0,0c-0.7,1.1-1.7,1.5-2.6,2.1c-0.9,0.6-1.9,1.1-2.8,1.6l-5.8,3c-3.8,2-7.7,4.1-11.5,6.1
				c-3.8,2.1-7.6,4.1-11.4,6.2c-1.9,1-3.8,2.1-5.7,3.2c-0.9,0.5-1.9,1.1-2.8,1.6c-0.5,0.3-0.9,0.6-1.3,0.9c-0.4,0.3-1,0.4-1.9,0.1
				L9.9,127.9z"/>
		</g>
		<g>
			<path d="M69.9,116.7c0.9-1.3,2.3-1.8,3.5-2.6l3.8-2.2c2.5-1.4,5.1-2.8,7.7-4.1c2.6-1.3,5.3-2.5,8.1-3.4c1.4-0.5,2.8-0.9,4.3-1.3
				l2.1-0.5c0.7-0.2,1.4-0.3,2-0.5c5.4-1.6,10.5-4.4,15.2-7.7c4.7-3.3,9.1-7,13.1-11.1c4.1-4.1,7.8-8.5,11-13.2
				c0.8-1.2,1.6-2.4,2.2-3.6c0.3-0.6,0.6-1.3,0.9-1.9c0.2-0.6,0.4-1.3,0.4-1.8c0-0.1,0-0.2,0-0.2c0,0,0,0,0,0.1c0,0,0.1,0.1,0.1,0.1
				c0.1,0.1,0.1,0.1-0.1,0.2c-0.3,0.1-0.9,0.4-1.4,0.8c-1.1,0.7-2,1.8-3,2.8c-4.2,3.6-8.4,7.5-12.3,11.6c-3.9,4.1-7.7,8.5-11,13l0,0
				l-0.1,0.2l-1.8,2.2l-1.9,2.3l-3.7,4.7l-7.3,9.5c-4.9,6.3-9.6,12.8-14.4,19.2L73,148.5l-7.2,9.6l-3.6,4.8
				c-0.3,0.4-0.5,0.9-0.9,1.2c-0.4,0.4-0.9,0.6-1.4,0.8c-1.1,0.4-2.3,0.7-3.9,0.8l-0.8-0.6c-0.4-1.6-0.4-2.8-0.3-4
				c0.1-0.6,0.1-1.2,0.4-1.6c0.2-0.4,0.6-0.8,0.9-1.2l3.7-4.7l7.4-9.5l14.9-18.8l14.9-18.8l7.4-9.4l3.8-4.7l1.9-2.3l2-2.4l-0.2,0.2
				c3.6-4.8,7.5-9.2,11.6-13.4c2.1-2.1,4.1-4.2,6.4-6.2c2.2-2,4.5-3.9,7.1-5.5c1.3-0.8,2.8-1.3,4.4-1.9c0.8-0.3,1.6-0.5,2.7-0.5
				c0.5,0,1.3,0.1,1.9,0.8c0.1,0.1,0.3,0.4,0.4,0.6c0.1,0.2,0.1,0.4,0.2,0.6c0,0.3,0,0.6,0,0.9c-0.2,1-0.5,1.6-0.9,2.3
				c-0.3,0.7-0.7,1.3-1.1,2c-0.7,1.3-1.5,2.5-2.4,3.8c-3.3,4.8-7.2,9.3-11.2,13.5c-4.1,4.2-8.5,8.1-13.3,11.5
				c-4.8,3.4-10,6.3-15.7,8.1c-0.7,0.2-1.4,0.4-2.2,0.6l-2.1,0.5c-1.4,0.3-2.7,0.7-4.1,1.2c-2.7,0.9-5.3,2.1-7.9,3.3
				c-2.6,1.2-5.2,2.6-7.7,3.9l-3.9,2c-1.3,0.6-2.5,1.5-4.1,1.5L69.9,116.7z"/>
		</g>
		<g>
			<path d="M123.1,105.1c0.1,1-0.3,1.3-0.8,1.6l-1.3,0.9c-0.8,0.6-1.7,1.2-2.6,1.8c-1.7,1.2-3.5,2.3-5.2,3.5
				c-3.5,2.2-7.1,4.4-10.8,6.4l-1.4,0.7l-1.5,0.7c-1,0.4-2.1,0.7-3.1,1c-2.1,0.4-4.3,0.6-6.5,0.3c-1.1-0.1-2.2-0.4-3.3-0.8
				c-0.6-0.2-1.1-0.5-1.6-0.9c-0.6-0.4-1.2-1.1-1.4-1.9c-0.5-1.5-0.5-2.8-0.3-4c0.1-0.6,0.1-1.2,0.7-1.6c0.3-0.2,0.5-0.4,0.9-0.5
				c0.3-0.2,0.7-0.3,1.1-0.4l0.9,0.4c0.2,0.4,0.3,0.7,0.5,1.1c0.1,0.3,0.2,0.6,0.3,0.9c0.2,0.6-0.1,0.9-0.3,1.3
				c-0.4,0.8-0.9,1.5-1,2.1c0,0.3-0.1,0.4,0.2,0.7c0.2,0.3,0.6,0.5,1,0.7c0.8,0.4,1.7,0.7,2.7,0.9c1.9,0.3,4,0.3,5.9-0.1
				c2-0.4,3.8-1.2,5.6-2.2c3.6-2,7.1-4.3,10.5-6.7l5.1-3.5l2.6-1.7l1.3-0.9c0.4-0.3,0.8-0.6,1.8-0.2L123.1,105.1z"/>
		</g>
	</g>
</g>
</svg>
