<?xml version="1.0" encoding="utf-8"?>
<!-- Generator: Adobe Illustrator 22.1.0, SVG Export Plug-In . SVG Version: 6.00 Build 0)  -->
<svg version="1.1" xmlns="http://www.w3.org/2000/svg" xmlns:xlink="http://www.w3.org/1999/xlink" x="0px" y="0px"
	 viewBox="0 0 110.7 180" style="enable-background:new 0 0 110.7 180;" xml:space="preserve">
<style type="text/css">
	.st0{display:none;}
	.st1{display:inline;fill:#FF0000;}
</style>
<g id="bg" class="st0">
	<polygon class="st1" points="105.3,0 103.8,0 103.5,0 99.9,0 98.4,0 98.1,0 96.9,0 96.6,0 96.2,0 93.1,0 92.7,0 91.6,0 91.2,0 
		90.8,0 90.7,0 89.7,0 89.3,0 86.2,0 85.8,0 85.4,0 85.3,0 84.3,0 83.9,0 83.8,0 83.5,0 82.4,0 79.9,0 78.9,0 78.6,0 78.4,0 78.1,0 
		77.1,0 76.9,0 76.6,0 76.2,0 73.1,0 72.7,0 71.7,0 71.6,0 71.2,0 70.8,0 69.7,0 69.3,0 66.2,0 65.8,0 65.4,0 64.3,0 63.9,0 62.4,0 
		59,0 58.9,0 58.6,0 57.1,0 53.6,0 52.2,0 51.8,0 51.7,0 48.3,0 46.8,0 46.4,0 45.3,0 44.9,0 44.5,0 41.4,0 41,0 39.9,0 39.5,0 
		39.1,0 39,0 38,0 37.7,0 34.5,0 34.1,0 33.8,0 33.6,0 32.6,0 32.3,0 32.2,0 31.8,0 30.8,0 28.3,0 27.2,0 26.9,0 26.8,0 26.4,0 
		25.4,0 25.3,0 24.9,0 24.5,0 21.4,0 21,0 20,0 19.9,0 19.5,0 19.1,0 18,0 17.7,0 14.5,0 14.1,0 13.8,0 12.6,0 12.3,0 10.8,0 7.2,0 
		6.9,0 5.4,0 0,0 0,180 5.4,180 6.9,180 7.2,180 10.8,180 12.3,180 12.6,180 13.8,180 14.1,180 14.5,180 17.7,180 18,180 19.1,180 
		19.5,180 19.9,180 20,180 21,180 21.4,180 24.5,180 24.9,180 25.3,180 25.4,180 26.4,180 26.8,180 26.9,180 27.2,180 28.3,180 
		30.8,180 31.8,180 32.2,180 32.3,180 32.6,180 33.6,180 33.8,180 34.1,180 34.5,180 37.7,180 38,180 39,180 39.1,180 39.5,180 
		39.9,180 41,180 41.4,180 44.5,180 44.9,180 45.3,180 46.4,180 46.8,180 48.3,180 51.7,180 51.8,180 52.2,180 53.6,180 57.1,180 
		58.6,180 58.9,180 59,180 62.4,180 63.9,180 64.3,180 65.4,180 65.8,180 66.2,180 69.3,180 69.7,180 70.8,180 71.2,180 71.6,180 
		71.7,180 72.7,180 73.1,180 76.2,180 76.6,180 76.9,180 77.1,180 78.1,180 78.4,180 78.6,180 78.9,180 79.9,180 82.4,180 83.5,180 
		83.8,180 83.9,180 84.3,180 85.3,180 85.4,180 85.8,180 86.2,180 89.3,180 89.7,180 90.7,180 90.8,180 91.2,180 91.6,180 92.7,180 
		93.1,180 96.2,180 96.6,180 96.9,180 98.1,180 98.4,180 99.9,180 103.5,180 103.8,180 105.3,180 110.7,180 110.7,0 	"/>
</g>
<g id="figure">
	<g>
		<g>
			<path d="M49.3,59.6c-0.4,0.6-0.7,0.8-1,0.9c-0.3,0.1-0.6,0-1,0c-0.6,0-1.3,0-1.9,0c-1.3,0-2.6,0-3.8,0.1
				c-2.6,0.1-5.1,0.3-7.6,0.7c-5,0.7-10,2.1-14.2,4.9c-2.1,1.4-3.9,3.1-5.2,5.1c-1.4,2-2.3,4.3-2.7,6.7c-0.5,2.4-0.5,4.9,0.4,6.8
				c0.9,2,2.9,3.2,5.1,3.8c2.3,0.6,4.8,0.7,7.3,0.6c2.5-0.1,5-0.5,7.5-1c5-1,10-2.5,14.6-4.6C56,79.5,64,72.6,70,64.3l-0.1,0.1
				c0.3-0.5,0.5-1,0.7-1.5c0.2-0.5,0.3-1,0.3-1.2c0-0.1-0.1,0,0.1,0.1C71,62,71.1,62,71,62c-0.2,0-0.7,0.1-1.2,0.2
				c-1,0.3-2,0.9-3,1.5c-1,0.6-2,1.3-2.9,1.9c-1,0.7-1.9,1.3-2.8,2l-0.6,0.5l-0.7,0.6c-0.5,0.4-0.9,0.8-1.3,1.2l-2.6,2.5l-2.7,2.5
				c-3.6,3.3-7.3,6.6-10.9,9.8c-3.6,3.2-7.1,6.6-10.4,10.1c-3.3,3.5-6.5,7-9.2,10.7c-1.3,1.8-2.6,3.7-3.2,5.3
				c-0.1,0.2-0.2,0.4-0.2,0.6c-0.1,0.2-0.2,0.5-0.3,0.7l-0.5,1.4c-0.3,0.9-0.6,1.7-0.6,2.5c0,0.7,0.2,1.3,0.9,1.8
				c0.6,0.5,1.6,1,2.7,1.2c2.2,0.5,4.6,0.3,6.9-0.2c2.3-0.6,4.5-1.6,6.6-2.7c2.1-1.1,4.1-2.4,6.1-3.8c1.9-1.4,3.8-2.9,5.7-4.4
				c1.8-1.5,3.6-3.2,5.5-4.8c3.6-3.3,7-6.7,10.3-10.3c3.2-3.6,6.3-7.3,9.1-11.2c2.7-3.9,5.3-8.1,6.9-12.3c0.3-1,0.6-2.2,0.9-3.4
				c0.3-1.2,0.6-2.4,0.7-3.4c0-0.3,0.1-0.5,0.1-0.7c0-0.2,0-0.4,0-0.3c0,0,0,0.1,0.2,0.3c0.1,0.2,0.3,0.3,0.5,0.3
				c0.2,0.1,0.4,0,0.3,0c-0.1,0-0.4,0.2-0.7,0.5c-0.3,0.3-0.5,0.7-0.8,1.1c-0.9,1.7-1.2,4-0.9,6.1c0.3,2.1,1.2,4.1,2.9,5
				c0.4,0.2,0.9,0.4,1.4,0.5c0.2,0.1,0.5,0.1,0.8,0.1c0.2,0,0.5,0,0.7,0c1-0.1,2-0.4,3-1c1.9-1.1,3.6-2.7,5.2-4.5
				c1.6-1.7,3-3.6,4.2-5.7c0.6-1,1.2-2.1,1.8-3.1c0.3-0.5,0.6-1.1,0.8-1.6l0.4-0.8c0.1-0.3,0.2-0.6,0.9-0.7l0,0
				c0.5,0.5,0.3,0.8,0.3,1.1l-0.3,0.9c-0.2,0.6-0.4,1.2-0.6,1.8c-0.4,1.2-0.9,2.3-1.5,3.5c-1.1,2.2-2.5,4.4-4.1,6.4
				c-1.6,1.9-3.6,3.7-5.9,5c-1.2,0.6-2.5,1.2-3.9,1.3c-0.4,0-0.7,0-1.1,0c-0.4,0-0.7,0-1.1-0.1c-0.7-0.1-1.4-0.3-2.1-0.6
				c-1.4-0.6-2.6-1.7-3.3-2.9c-0.8-1.2-1.3-2.6-1.6-3.9c-0.5-2.8-0.3-5.6,0.9-8.3c0.3-0.7,0.7-1.3,1.2-1.9c0.5-0.6,1.1-1.2,2.2-1.7
				c0.5-0.2,1.3-0.4,2.1-0.1c0.4,0.1,0.9,0.4,1.2,0.8c0.3,0.4,0.5,0.8,0.6,1.1c0.2,0.6,0.2,1.1,0.2,1.5c0,0.4-0.1,0.8-0.1,1.1
				c-0.2,1.4-0.5,2.6-0.8,3.8c-0.3,1.2-0.5,2.3-1,3.7c-1.8,5-4.5,9.2-7.4,13.3c-2.9,4.1-6.1,7.9-9.5,11.5c-3.4,3.6-7,7.1-10.6,10.4
				c-1.9,1.6-3.7,3.3-5.6,4.8c-1.9,1.6-4,3-6.1,4.3c-2.1,1.3-4.3,2.5-6.6,3.6c-2.3,1.1-4.7,1.9-7.2,2.5c-2.5,0.6-5,1-7.7,1.2
				c-1.4,0-2.8-0.1-4.4-0.7c-1.5-0.6-3-2-3.8-3.7c-0.8-1.6-1.1-3.3-1.2-4.8c0-0.8,0-1.5,0.1-2.2c0.1-0.7,0.2-1.4,0.4-2.2
				c0.5-1.6,1.1-2.8,1.8-4.1c0.7-1.2,1.4-2.3,2.2-3.4c3.1-4.3,6.6-7.9,10.2-11.4c3.6-3.5,7.3-6.8,11.1-10c1.9-1.6,3.8-3.2,5.7-4.7
				c1.9-1.6,3.8-3.1,5.7-4.7l2.9-2.3c1-0.8,1.9-1.5,3-2.3c0.5-0.4,1.1-0.8,1.6-1.1l0.8-0.5c0.3-0.2,0.6-0.4,0.9-0.6
				c1.1-0.7,2.3-1.3,3.5-1.8c2.4-1,4.8-1.9,7.5-2.4c0.7-0.1,1.4-0.2,2.5-0.1c0.5,0.1,1.2,0.3,1.7,1c0.5,0.6,0.6,1.4,0.6,1.9
				c-0.1,1-0.4,1.7-0.7,2.3c-0.3,0.6-0.6,1.2-1,1.8l-0.1,0.1l0,0c-3.3,4.2-6.8,8.2-10.9,11.6c-4.1,3.5-8.5,6.4-13.4,8.7
				c-4.9,2.2-10,3.7-15.2,4.9c-2.6,0.5-5.3,0.9-8,1.1c-2.7,0.1-5.5,0.1-8.2-0.7c-1.4-0.4-2.7-1-4-1.9c-1.2-0.9-2.3-2.1-2.9-3.5
				c-0.6-1.4-0.9-2.9-1-4.3c0-1.4,0.1-2.8,0.4-4.2c0.6-2.7,1.7-5.4,3.3-7.6c1.6-2.3,3.7-4.2,6-5.7c4.6-3,9.9-4.5,15.1-5.4
				c2.6-0.4,5.3-0.7,7.9-0.7c1.3,0,2.7,0,4,0.1c0.7,0,1.3,0.1,2,0.1c0.3,0,0.7,0,1,0.2C48.7,58.6,49,58.9,49.3,59.6L49.3,59.6z"/>
		</g>
		<g>
			<path d="M22.4,114.1c0.8-1.4,2-2.3,3.4-2.9c0.7-0.3,1.5-0.5,2.3-0.7c0.8-0.2,1.7-0.4,2.8-0.2c2.2,0.3,3.9,1.5,5,2.6
				c1.1,1.2,1.7,2.4,2.4,3.2c0.6,0.9,1.2,1.6,2,2.1c0.2,0.2,0.3,0.2,0.5,0.3c0.1,0.1,0.2,0.1,0.3,0.1l0.4,0.1c0.2,0.1,0.6,0,0.9,0
				c0.3,0,0.6,0,0.9-0.1c2.6-0.4,5.2-1.5,7.7-2.7c2.5-1.2,5-2.5,7.5-3.9c0.6-0.3,1.3-0.7,1.9-1c0.7-0.3,1.2-0.6,1.8-0.9
				c1.2-0.7,2.4-1.4,3.6-2.1l7.2-4.4l3.6-2.2l1.8-1.1c0.6-0.4,1.3-0.6,2.3-0.3l0.1,0.2c-0.1,1.1-0.6,1.6-1.2,2l-1.7,1.2
				c-1.2,0.8-2.3,1.6-3.5,2.4c-2.4,1.5-4.8,3-7.2,4.5c-1.2,0.7-2.4,1.4-3.7,2.1c-0.6,0.3-1.4,0.7-2,1c-0.6,0.3-1.2,0.6-1.8,0.9
				c-2.5,1.3-5,2.7-7.5,3.9c-2.6,1.2-5.1,2.5-8,3.6c-0.4,0.1-0.7,0.3-1.1,0.4c-0.4,0.1-0.8,0.3-1.2,0.3l-0.7,0.1
				c-0.2,0-0.5,0.1-0.7,0.1c-0.5,0-1.2,0-1.6-0.2c-0.9-0.2-1.8-0.5-2.7-1c-0.8-0.5-1.6-1.1-2.2-1.7c-0.6-0.6-1.1-1.2-1.6-1.8
				c-0.5-0.6-0.8-1.2-1.1-1.7c-0.6-1.1-0.9-2.1-1.4-2.6l-0.3-0.2c-0.1,0-0.2-0.1-0.3-0.1c-0.2-0.1-0.5-0.1-0.8-0.1
				c-0.6,0-1.2,0.1-1.8,0.3c-1.3,0.3-2.5,0.7-4.1,0.8L22.4,114.1z"/>
		</g>
	</g>
</g>
</svg>
