<?xml version="1.0" encoding="utf-8"?>
<!-- Generator: Adobe Illustrator 22.1.0, SVG Export Plug-In . SVG Version: 6.00 Build 0)  -->
<svg version="1.1" xmlns="http://www.w3.org/2000/svg" xmlns:xlink="http://www.w3.org/1999/xlink" x="0px" y="0px"
	 viewBox="0 0 87 180" style="enable-background:new 0 0 87 180;" xml:space="preserve">
<style type="text/css">
	.st0{display:none;}
	.st1{display:inline;fill:#FF0000;}
</style>
<g id="bg" class="st0">
	<polygon class="st1" points="83.8,0 82.9,0 82.6,0 80.5,0 79.6,0 79.4,0 78.7,0 78.5,0 78.3,0 76.4,0 76.2,0 75.5,0 75.3,0 75.1,0 
		74.5,0 74.4,0 74.2,0 72.3,0 72,0 71.8,0 71.3,0 71.1,0 70.9,0 70.4,0 70.1,0 70,0 68,0 67.9,0 67.7,0 67.1,0 67,0 66.9,0 66.8,0 
		66.2,0 66,0 65.8,0 63.9,0 63.8,0 63.7,0 63.6,0 63,0 62.9,0 62.8,0 62.6,0 62.6,0 61.9,0 61.7,0 60.5,0 59.8,0 59.6,0 59.5,0 
		59.4,0 59.3,0 58.7,0 58.6,0 58.5,0 58.4,0 58.3,0 57.5,0 56.4,0 56.2,0 56,0 55.5,0 55.4,0 55.3,0 55.2,0 55.1,0 54.5,0 54.4,0 
		54.3,0 54.2,0 52.7,0 52.3,0 52,0 51.8,0 51.8,0 51.6,0 51.3,0 51.1,0 51,0 50.9,0 50.4,0 50.1,0 50,0 49.5,0 48.6,0 48.4,0 48,0 
		47.9,0 47.7,0 47.7,0 47.5,0 47.2,0 47.1,0 46.9,0 46.8,0 46.2,0 46,0 45.8,0 45.3,0 45.1,0 44.5,0 44.2,0 44,0 43.9,0 43.7,0 
		43.6,0 43.5,0 43.3,0 43.1,0 43,0 42.8,0 42.6,0 41.9,0 41.7,0 41.2,0 41,0 40.8,0 40.2,0 40.1,0 39.9,0 39.8,0 39.5,0 39.3,0 
		39.3,0 39.1,0 39,0 38.6,0 38.4,0 37.5,0 37,0 36.9,0 36.6,0 36.1,0 36,0 35.9,0 35.7,0 35.4,0 35.2,0 35.2,0 35,0 34.7,0 34.3,0 
		32.8,0 32.7,0 32.6,0 32.5,0 31.9,0 31.8,0 31.7,0 31.6,0 31.5,0 31,0 30.8,0 30.6,0 29.5,0 28.7,0 28.6,0 28.5,0 28.4,0 28.3,0 
		27.7,0 27.6,0 27.5,0 27.4,0 27.2,0 26.5,0 25.3,0 25.1,0 24.5,0 24.4,0 24.2,0 24.1,0 24,0 23.5,0 23.3,0 23.2,0 23.1,0 21.2,0 
		21,0 20.8,0 20.2,0 20.1,0 20,0 19.9,0 19.3,0 19.1,0 19,0 17,0 16.9,0 16.6,0 16.1,0 15.9,0 15.7,0 15.2,0 15,0 14.7,0 12.8,0 
		12.6,0 12.5,0 11.9,0 11.7,0 11.5,0 10.8,0 10.6,0 8.7,0 8.5,0 8.3,0 7.6,0 7.4,0 6.5,0 4.4,0 4.1,0 3.2,0 0,0 0,180 3.2,180 
		4.1,180 4.4,180 6.5,180 7.4,180 7.6,180 8.3,180 8.5,180 8.7,180 10.6,180 10.8,180 11.5,180 11.7,180 11.9,180 12.5,180 
		12.6,180 12.8,180 14.7,180 15,180 15.2,180 15.7,180 15.9,180 16.1,180 16.6,180 16.9,180 17,180 19,180 19.1,180 19.3,180 
		19.9,180 20,180 20.1,180 20.2,180 20.8,180 21,180 21.2,180 23.1,180 23.2,180 23.3,180 23.5,180 24,180 24.1,180 24.2,180 
		24.4,180 24.5,180 25.1,180 25.3,180 26.5,180 27.2,180 27.4,180 27.5,180 27.6,180 27.7,180 28.3,180 28.4,180 28.5,180 28.6,180 
		28.7,180 29.5,180 30.6,180 30.8,180 31,180 31.5,180 31.6,180 31.7,180 31.8,180 31.9,180 32.5,180 32.6,180 32.7,180 32.8,180 
		34.3,180 34.7,180 35,180 35.2,180 35.2,180 35.4,180 35.7,180 35.9,180 36,180 36.1,180 36.6,180 36.9,180 37,180 37.5,180 
		38.4,180 38.6,180 39,180 39.1,180 39.3,180 39.3,180 39.5,180 39.8,180 39.9,180 40.1,180 40.2,180 40.8,180 41,180 41.2,180 
		41.7,180 41.9,180 42.6,180 42.8,180 43,180 43.1,180 43.3,180 43.5,180 43.6,180 43.7,180 43.9,180 44,180 44.2,180 44.5,180 
		45.1,180 45.3,180 45.8,180 46,180 46.2,180 46.8,180 46.9,180 47.1,180 47.2,180 47.5,180 47.7,180 47.7,180 47.9,180 48,180 
		48.4,180 48.6,180 49.5,180 50,180 50.1,180 50.4,180 50.9,180 51,180 51.1,180 51.3,180 51.6,180 51.8,180 51.8,180 52,180 
		52.3,180 52.7,180 54.2,180 54.3,180 54.4,180 54.5,180 55.1,180 55.2,180 55.3,180 55.4,180 55.5,180 56,180 56.2,180 56.4,180 
		57.5,180 58.3,180 58.4,180 58.5,180 58.6,180 58.7,180 59.3,180 59.4,180 59.5,180 59.6,180 59.8,180 60.5,180 61.7,180 61.9,180 
		62.6,180 62.6,180 62.8,180 62.9,180 63,180 63.6,180 63.7,180 63.8,180 63.9,180 65.8,180 66,180 66.2,180 66.8,180 66.9,180 
		67,180 67.1,180 67.7,180 67.9,180 68,180 70,180 70.1,180 70.4,180 70.9,180 71.1,180 71.3,180 71.8,180 72,180 72.3,180 
		74.2,180 74.4,180 74.5,180 75.1,180 75.3,180 75.5,180 76.2,180 76.4,180 78.3,180 78.5,180 78.7,180 79.4,180 79.6,180 80.5,180 
		82.6,180 82.9,180 83.8,180 87,180 87,0 	"/>
</g>
<g id="figure">
	<g>
		<path d="M9.9,123.5c-0.1-0.8,0.1-1.3,0.4-1.7c0.3-0.4,0.7-0.6,1.1-0.9c0.7-0.5,1.5-1.1,2.3-1.6c1.5-1,3-2,4.6-3
			c3.1-1.9,6.2-3.8,9.4-5.5c3.2-1.8,6.3-3.5,9.6-5.1c3.2-1.6,6.4-3.4,9.8-4.7c1.7-0.6,3.4-1.3,5.2-1.8c0.4-0.2,1-0.1,1.5-0.1
			c0.1,0,0.2,0,0.5,0c0.1,0,0.1,0,0.3,0c0.1,0,0.2,0.1,0.3,0.2c0.1,0.2,0.1,0.2,0.1,0.3c0,0.2,0,0.2,0,0.3l0,0.2c-0.1,0.3,0,0.7,0,1
			c-0.3,1-0.8,1.8-1.3,2.6c-1.1,1.5-2.2,3-3.3,4.4c-1.1,1.4-2.3,2.8-3.6,4.1c-2.4,2.7-5.1,5.1-7.7,7.5c-0.7,0.6-1.3,1.3-2,1.7
			c-0.4,0.2-0.8,0.4-1.2,0.7c-0.2,0.1-0.4,0.2-0.6,0.3c-0.2,0.1-0.5,0.1-0.7,0.2c-0.1,0-0.2,0.1-0.2,0.1c0,0,0,0,0,0c0,0,0,0,0-0.1
			c0-0.2-0.1-0.3-0.2-0.3c-0.1,0,0,0,0,0c0.1,0,0.2-0.1,0.3-0.1c0.4-0.2,0.7-0.4,1.1-0.7c0.7-0.5,1.4-1.1,2.1-1.7
			c1.4-1.2,2.7-2.4,4.2-3.4c0.7-0.5,1.5-1.1,2.3-1.5c0.8-0.5,1.6-1,2.6-1.3c0.3-0.1,0.5-0.2,0.8-0.2c0.3-0.1,0.8,0,1.1,0
			c0.6,0.1,1.2,0.4,1.7,0.8c0.9,0.8,1.4,1.9,1.7,2.9c0.2,1,0.3,2.1,0.1,3.1c-0.1,0.5-0.2,1.1-0.5,1.6c-0.3,0.6-0.5,0.9-0.8,1.4
			c-0.3,0.4-0.7,0.8-1.1,1.2c-0.2,0.2-0.5,0.4-1,0.5c-0.2,0.1-0.5,0.1-0.8,0.1c-0.3,0-0.7-0.2-0.9-0.4c-0.5-0.4-0.7-0.8-0.8-1.1
			c-0.1-0.3-0.2-0.7-0.2-1c0-0.7,0.1-1.2,0.2-1.7c0.6-2,1.5-3.6,2.4-5.2c0.9-1.6,1.9-3.1,2.9-4.6c0.5-0.7,1-1.5,1.6-2.3
			c0.6-0.7,1.2-1.4,1.9-2.1c1.3-1.3,2.7-2.5,4.2-3.6c1.4-1.2,2.9-2.3,4.4-3.3c0.8-0.5,1.6-1.1,2.7-1.4c0.3-0.1,0.6-0.2,1.1-0.1
			c0.2,0,0.6,0.1,0.9,0.4c0.1,0.1,0.2,0.2,0.3,0.3c0.1,0.1,0.2,0.3,0.3,0.5c0.2,0.4,0.1,0.9,0.1,1.1c-0.1,0.3-0.2,0.5-0.3,0.7
			c-0.2,0.3-0.4,0.6-0.6,0.8c-0.8,0.8-1.4,1.4-2,2c-0.6,0.6-1.2,1.2-1.4,1.7c-0.1,0.2-0.2,0.4-0.2,0.5c0-0.1,0,0.2,0,0.4
			c0,0.2,0,0.4,0,0.6c0,0.4,0,0.6,0,0.8c0,0.2,0,0.1,0,0.2c0,0,0.1,0.2,0.3,0.3c0.3,0.1,0.6,0.3,0.9,0.4l0.3,0.1l0.1,0
			c0.1,0,0.2,0,0.4,0c0.3,0,0.7-0.1,1.1-0.2c1.5-0.4,3.1-1.1,4.7-1.8l2.4-1.1c0.8-0.3,1.5-0.9,2.8-0.5l0.2,0.3
			c-0.2,1.4-1,1.8-1.7,2.4c-0.7,0.6-1.5,1.1-2.3,1.6c-1.6,1-3.2,1.8-5.2,2.5c-0.5,0.2-1,0.3-1.6,0.4c-0.3,0-0.6,0.1-0.9,0.1l-0.5,0
			l-0.4,0c-0.5,0-1.1-0.1-1.7-0.3c-0.6-0.2-1.3-0.5-1.9-1.1c-0.7-0.6-1.1-1.5-1.2-2.2c-0.2-0.7-0.2-1.4-0.1-1.9
			c0-0.3,0.1-0.5,0.1-0.8c0-0.3,0.1-0.4,0.2-0.9c0.2-0.8,0.7-1.4,1.1-1.9c0.8-0.9,1.7-1.5,2.5-2c0.8-0.5,1.6-0.9,2.3-1.3
			c0.2-0.1,0.3-0.2,0.3-0.2c0,0,0,0,0,0.1c0,0.1,0,0.3,0.1,0.5c0,0.1,0.1,0.1,0.1,0.2c0,0,0,0,0.1,0.1c0.1,0.1,0.2,0.1,0.2,0.1
			c0.1,0-0.1-0.1-0.2,0c-0.6,0.1-1.5,0.4-2.2,0.8c-3.1,1.6-5.7,4.2-7.9,6.9c-1.1,1.4-2.1,2.7-3.1,4.2c-1,1.5-2,3-2.9,4.5
			c-0.9,1.5-1.7,3.1-2.2,4.6c-0.1,0.4-0.2,0.7-0.1,1c0,0.1,0,0.2,0.1,0.3c0,0.1,0.1,0.1-0.1,0c-0.1-0.1-0.2-0.1-0.3-0.1
			c-0.1,0-0.1,0-0.2,0c0,0,0.1,0,0.2-0.1c0.2-0.2,0.5-0.5,0.7-0.8c0.5-0.7,0.8-1.2,0.9-1.9c0.1-0.7,0.1-1.5,0-2.2
			c-0.3-1.5-1.3-2.5-2.3-2.1c-1.4,0.5-3,1.5-4.4,2.5c-1.5,1-3,1.9-4.6,2.9l-2.3,1.4c-0.4,0.2-0.8,0.5-1.2,0.7
			c-0.1,0.1-0.2,0.1-0.4,0.2c-0.2,0-0.3,0.1-0.6,0c-0.2-0.1-0.4-0.2-0.4-0.5c0-0.2,0-0.2,0-0.3c0-0.1,0-0.1,0-0.2
			c0-0.2,0.1-0.3,0.1-0.5c0-0.3,0-0.6,0.1-0.9c0-0.3,0.1-0.5,0.2-0.8c0.2-0.5,0.3-1,0.5-1.4c0.4-0.9,1.1-1.5,1.6-2.3
			c2.3-2.9,4.7-5.6,7.3-8.1c1.3-1.3,2.6-2.5,4-3.7l4.1-3.4c0.7-0.6,1.4-1.1,2.2-1.5c0.2-0.1,0.6-0.1,0.7-0.2c0,0,0,0,0,0
			c0,0,0,0,0,0.1c0,0.1,0,0,0.1,0.2C53.9,100,54,100,54,100c0.1,0,0.1,0,0.1,0c0,0-0.1,0-0.2,0.1c-0.3,0.2-0.7,0.6-1.1,0.8
			c-1.5,0.8-3.1,1.8-4.6,2.7c-3.1,1.9-6.3,3.4-9.5,5.1l-9.5,5.1c-3.2,1.7-6.3,3.4-9.5,5.1c-1.6,0.9-3.1,1.7-4.7,2.6
			c-0.8,0.4-1.5,0.9-2.3,1.4c-0.4,0.2-0.7,0.5-1.1,0.7c-0.4,0.2-0.9,0.2-1.7,0L9.9,123.5z"/>
	</g>
</g>
</svg>
