<?xml version="1.0" encoding="utf-8"?>
<!-- Generator: Adobe Illustrator 22.1.0, SVG Export Plug-In . SVG Version: 6.00 Build 0)  -->
<svg version="1.1" xmlns="http://www.w3.org/2000/svg" xmlns:xlink="http://www.w3.org/1999/xlink" x="0px" y="0px"
	 viewBox="0 0 114.3 180" style="enable-background:new 0 0 114.3 180;" xml:space="preserve">
<style type="text/css">
	.st0{display:none;}
	.st1{display:inline;fill:#FF0000;}
</style>
<g id="bg" class="st0">
	<polygon class="st1" points="108.7,0 107.2,0 106.8,0 103.1,0 101.6,0 101.2,0 100,0 99.6,0 99.3,0 96,0 95.6,0 94.4,0 94.3,0 
		94,0 93.7,0 92.5,0 92.1,0 88.8,0 88.7,0 88.4,0 88.1,0 87.2,0 86.9,0 86.8,0 86.5,0 84.9,0 83.1,0 81.6,0 81.3,0 81.2,0 80.9,0 
		80,0 79.6,0 79.3,0 79.3,0 76,0 75.6,0 74.4,0 74,0 73.7,0 73.7,0 72.5,0 72.1,0 68.8,0 68.4,0 68.1,0 66.9,0 66.5,0 64.9,0 
		61.3,0 60.9,0 60.6,0 59.3,0 55,0 53.7,0 53.4,0 53.1,0 49.4,0 47.8,0 47.5,0 46.3,0 45.9,0 45.5,0 42.2,0 41.9,0 40.7,0 40.6,0 
		40.3,0 39.9,0 38.7,0 38.4,0 35.1,0 35,0 34.7,0 34.3,0 33.4,0 33.1,0 33.1,0 32.8,0 31.2,0 29.4,0 27.8,0 27.5,0 27.5,0 27.2,0 
		26.3,0 25.9,0 25.6,0 25.5,0 22.2,0 21.9,0 20.7,0 20.3,0 20,0 19.9,0 18.7,0 18.4,0 15.1,0 14.7,0 14.3,0 13.1,0 12.8,0 11.2,0 
		7.5,0 7.2,0 5.6,0 0,0 0,180 5.6,180 7.2,180 7.5,180 11.2,180 12.8,180 13.1,180 14.3,180 14.7,180 15.1,180 18.4,180 18.7,180 
		19.9,180 20,180 20.3,180 20.7,180 21.9,180 22.2,180 25.5,180 25.6,180 25.9,180 26.3,180 27.2,180 27.5,180 27.5,180 27.8,180 
		29.4,180 31.2,180 32.8,180 33.1,180 33.1,180 33.4,180 34.3,180 34.7,180 35,180 35.1,180 38.4,180 38.7,180 39.9,180 40.3,180 
		40.6,180 40.7,180 41.9,180 42.2,180 45.5,180 45.9,180 46.3,180 47.5,180 47.8,180 49.4,180 53.1,180 53.4,180 53.7,180 55,180 
		59.3,180 60.6,180 60.9,180 61.3,180 64.9,180 66.5,180 66.9,180 68.1,180 68.4,180 68.8,180 72.1,180 72.5,180 73.7,180 73.7,180 
		74,180 74.4,180 75.6,180 76,180 79.3,180 79.3,180 79.6,180 80,180 80.9,180 81.2,180 81.3,180 81.6,180 83.1,180 84.9,180 
		86.5,180 86.8,180 86.9,180 87.2,180 88.1,180 88.4,180 88.7,180 88.8,180 92.1,180 92.5,180 93.7,180 94,180 94.3,180 94.4,180 
		95.6,180 96,180 99.3,180 99.6,180 100,180 101.2,180 101.6,180 103.1,180 106.8,180 107.2,180 108.7,180 114.3,180 114.3,0 	"/>
</g>
<g id="figure">
	<g>
		<path d="M9.9,92.5c-0.7-2.3,0.5-2.6,1.2-3.4l2.3-2.3c1.5-1.5,3.1-2.9,4.7-4.4c3.2-2.8,6.6-5.5,10-8.1c6.9-5.1,14-10.2,22-13.7
			c2-0.9,4-1.7,6.2-2.3c2.1-0.6,4.3-1.2,6.7-1.3c1.2,0,2.3,0,3.5,0.2c1.2,0.2,2.4,0.4,3.6,0.8c1.2,0.4,2.6,1.2,3.7,2.4
			c1.1,1.2,1.8,3,1.9,4.6c0.2,1.6-0.1,3-0.4,4.3c-0.3,1.3-0.7,2.5-1.2,3.6c-1,2.2-2.2,4.2-3.4,6c-2.5,3.7-5.3,7-8,10.1
			c-2.9,3.4-6.1,6.5-9.3,9.5c-3.2,3-6.4,5.9-9.8,8.6c-3.3,2.8-6.7,5.4-10.3,7.9c-1.7,1.3-3.5,2.5-5.4,3.7c-1.9,1.2-3.8,2.3-6.1,3.2
			c-1.1,0.4-2.4,0.8-3.8,0.9c-0.7,0-1.5-0.1-2.3-0.3c-0.8-0.3-1.6-0.7-2.2-1.3c-0.6-0.6-1-1.2-1.3-1.9c-0.2-0.3-0.3-0.6-0.4-0.9
			c-0.1-0.3-0.2-0.6-0.3-1c-0.4-1.5-0.2-2.9,0.1-4.1c0.7-2.5,1.9-4.5,3.2-6.3c1.3-1.8,2.7-3.5,4.2-5.1c1.5-1.6,3-3.2,4.5-4.7
			c1.5-1.5,3-3,4.6-4.5c3.1-2.9,6.2-5.9,9.5-8.7c3.2-2.8,6.5-5.7,9.9-8.3c0.8-0.7,1.8-1.3,2.6-1.9l2.6-1.8c1.7-1.2,3.5-2.5,5.3-3.7
			c3.6-2.4,7.2-4.8,11.2-6.6c2-0.9,4.1-1.7,6.2-2.3c2.1-0.6,4.3-1.2,6.5-1.5c1.1-0.2,2.3-0.3,3.4-0.3c1.1,0,2.2,0,3.4,0
			c2.3,0.1,4.7,0.2,7.2,1.2c1.3,0.5,2.6,1.3,3.7,2.4c1.1,1.1,1.9,2.6,2.4,4c0.5,1.5,0.6,2.9,0.6,4.3c0,1.4-0.2,2.6-0.4,3.9
			c-0.4,1.7-1.1,3.1-1.8,4.2c-0.8,1.2-1.6,2.1-2.5,3c-1.8,1.7-3.8,2.9-5.8,4.1c-2,1.1-3.9,2.3-5.9,3.2c-2,0.9-4.1,1.8-6.1,2.8
			c-1,0.5-1.9,1.3-3,2c-0.6,0.3-1.2,0.6-2,0.8c-0.4,0.1-1,0.1-1.9-0.1c-0.3-0.1-0.6-0.2-0.8-0.3c-1.1-0.4-2.2-1-3.5-2.1
			c-0.3-0.3-0.6-0.6-1-1.2c-0.2-0.3-0.3-0.6-0.4-1c-0.1-0.4-0.2-0.9-0.1-1.3c0.2-0.9,0.6-1.4,1-1.7c0.4-0.4,0.9-0.6,1.3-0.8
			c0.9-0.3,1.7-0.2,2.4-0.1c0.7,0.1,1.3,0.3,1.9,0.5c0.6,0.2,1.1,0.5,1.7,0.8c0.5,0.3,1,0.6,1.5,1c1,0.8,2,1.9,2.5,3.2
			c0.5,1.3,0.6,2.7,0.6,4c0,0.3-0.1,0.8-0.1,1.2c-0.1,0.4-0.2,0.7-0.3,1.1c-0.2,0.6-0.5,1.2-0.7,1.8c-0.5,1.1-1,2.1-1.6,3.1
			c-1.1,2-2.4,3.7-3.7,5.4c-1.3,1.7-2.7,3.3-3.9,4.9c-0.6,0.8-1.2,1.6-1.7,2.2c-0.5,0.7-1,1.5-1.5,2.2c-0.4,0.7-0.7,1.4-0.8,1.8
			c0,0.2-0.1,0.2-0.1,0.3c0,0.1,0.2,0.3,0.4,0.4c0,0.1,0.4,0.1,0.8,0.1c0.4,0,0.9-0.1,1.3-0.3c0.9-0.3,1.9-0.6,2.8-1
			c1.9-0.8,3.8-1.7,5.7-2.6c0.9-0.5,1.9-1,2.9-1.4c0.8-0.4,1.8-1,2.7-1.5c3.6-2.2,7.1-4.6,10.6-7l5.3-3.5l2.7-1.8
			c0.9-0.5,1.6-1.5,3.2-1l0.3,0.5c-0.1,1.7-1.2,2-2,2.7l-2.6,1.9c-1.7,1.3-3.5,2.5-5.2,3.7c-3.5,2.4-7.1,4.8-10.7,7.1
			c-0.9,0.6-1.9,1.1-2.9,1.7c-1,0.5-1.9,0.9-2.8,1.4c-1.9,1-3.8,2-5.8,3c-1,0.5-2,0.9-3.1,1.3c-0.6,0.2-1.1,0.4-1.8,0.5
			c-0.6,0.1-1.4,0.3-2.4,0c-0.7-0.1-1.6-0.5-2.3-1.1c-0.8-0.6-1.3-1.6-1.6-2.4c-0.5-1.8-0.3-3.2-0.1-4.5c0.3-1.3,0.6-2.4,1.1-3.6
			c0.6-1.2,1.2-2.2,1.9-3.1c1.3-1.9,2.6-3.6,4-5.2c1.4-1.6,2.8-3.2,4.2-4.7c0.7-0.8,1.4-1.5,1.9-2.2c0.3-0.4,0.5-0.7,0.8-1.1
			c0.1-0.2,0.2-0.3,0.3-0.4c0.1-0.1,0.1-0.1,0.2-0.4c0.3-0.8,0.4-1.6,0.4-2.4c0-0.7-0.1-1.5-0.7-2.2c-0.2-0.3-0.6-0.7-1-0.9
			c-0.4-0.2-0.8-0.4-1.2-0.5c-0.4-0.1-0.9-0.2-1.2-0.1c-0.4,0.1-0.7,0.2-0.8,0.4c0,0.1,0,0.1,0,0.2c0,0.1,0.2,0,0.3-0.3
			c0.1-0.2,0.1-0.4,0-0.5l0-0.3c0-0.1,0.1-0.1,0.2-0.1c0.5,0.1,1.5,0.2,2.4,0.4l0.7,0.1c-0.3-0.1-0.4,0-0.3,0l1.1,0.1
			c0.9,0,2,0,3-0.4c1.9-0.8,3.6-2,5.2-3.3c1.6-1.3,3.2-2.6,4.6-4.1c1.4-1.5,2.6-3,3.7-4.5c1-1.4,1.9-2.9,2.2-3.7
			c0.5-1.7,0.8-3.3,0.8-4.5c0-0.6-0.1-1.2-0.3-1.7c-0.2-0.5-0.6-1.1-1.2-1.7c-2.5-2.2-7.2-3.1-11-3c-4,0.3-7.9,2.1-11.5,4
			c-3.7,2-7.3,4.1-10.7,6.5c-1.7,1.2-3.5,2.4-5.2,3.7l-2.6,1.9c-0.9,0.6-1.7,1.2-2.5,1.8c-3.3,2.5-6.5,5.3-9.7,8.1
			c-3.1,2.8-6.3,5.7-9.3,8.7l-4.5,4.5c-1.5,1.5-2.9,3-4.3,4.6c-1.4,1.6-2.7,3.2-3.8,4.9c-1.1,1.7-2.1,3.4-2.5,5.1
			c-0.2,0.8-0.2,1.6-0.1,2.2l0.1,0.2l0.1,0.3c0.1,0.2,0.2,0.4,0.2,0.5c0.2,0.3,0.4,0.5,0.5,0.7c0.4,0.3,0.7,0.4,1.4,0.4
			c0.7-0.1,1.5-0.3,2.4-0.7c1.7-0.7,3.4-1.8,5.1-3c1.7-1.2,3.3-2.5,5-3.8c3.3-2.6,6.5-5.4,9.6-8.2c3.1-2.8,6.1-5.8,8.9-8.9
			c2.8-3.1,5.3-6.4,7.6-9.7c2.5-3.6,5.2-6.9,7.6-10.1c1.2-1.6,2.4-3.2,3.4-4.8c0.5-0.8,1-1.5,1.3-2.3c0.4-0.7,0.6-1.4,0.7-2
			c0.1-0.6,0.1-0.9-0.1-1.4c-0.2-0.5-0.6-1-1.3-1.4c-0.7-0.5-1.5-0.9-2.5-1.1c-0.9-0.3-1.9-0.6-2.8-0.7c-1.9-0.3-3.9,0-5.9,0.5
			c-2,0.5-3.9,1.3-5.8,2.2c-3.7,1.8-7.3,4-10.8,6.4c-3.5,2.4-6.9,4.9-10.1,7.6c-3.3,2.7-6.5,5.5-9.6,8.2l-4.8,4.2l-2.4,2.1
			c-0.9,0.6-1.2,1.8-3.4,1.1L9.9,92.5z"/>
	</g>
</g>
</svg>
