<?xml version="1.0" encoding="utf-8"?>
<!-- Generator: Adobe Illustrator 22.1.0, SVG Export Plug-In . SVG Version: 6.00 Build 0)  -->
<svg version="1.1" xmlns="http://www.w3.org/2000/svg" xmlns:xlink="http://www.w3.org/1999/xlink" x="0px" y="0px"
	 viewBox="0 0 108.2 180" style="enable-background:new 0 0 108.2 180;" xml:space="preserve">
<style type="text/css">
	.st0{display:none;}
	.st1{display:inline;fill:#FF0000;}
</style>
<g id="bg" class="st0">
	<polygon class="st1" points="102.9,0 101.5,0 101.1,0 97.7,0 96.3,0 95.9,0 94.8,0 94.4,0 94.1,0 91,0 90.7,0 89.6,0 89.2,0 
		88.8,0 88.2,0 87.8,0 87.4,0 84.3,0 84,0 83.6,0 82.9,0 82.5,0 82.2,0 81.5,0 81.1,0 80.7,0 77.7,0 77.3,0 76.9,0 76.3,0 75.9,0 
		75.5,0 74.8,0 74.4,0 74.1,0 71,0 70.7,0 70.2,0 69.6,0 69.2,0 68.8,0 67.8,0 67.4,0 64.3,0 64,0 63.6,0 62.5,0 62.2,0 60.7,0 
		57.9,0 57.3,0 56.9,0 55.5,0 52.7,0 51.3,0 50.9,0 50.2,0 47.5,0 46,0 45.7,0 44.6,0 44.2,0 43.8,0 40.8,0 40.4,0 39.3,0 39,0 
		38.6,0 37.9,0 37.5,0 37.2,0 34.1,0 33.7,0 33.4,0 32.7,0 32.3,0 31.9,0 31.3,0 30.9,0 30.5,0 27.5,0 27,0 26.7,0 26,0 25.7,0 
		25.2,0 24.6,0 24.2,0 23.8,0 20.8,0 20.4,0 20,0 19.3,0 19,0 18.6,0 17.5,0 17.2,0 14.1,0 13.7,0 13.4,0 12.3,0 11.9,0 10.5,0 7,0 
		6.7,0 5.2,0 0,0 0,180 5.2,180 6.7,180 7,180 10.5,180 11.9,180 12.3,180 13.4,180 13.7,180 14.1,180 17.2,180 17.5,180 18.6,180 
		19,180 19.3,180 20,180 20.4,180 20.8,180 23.8,180 24.2,180 24.6,180 25.2,180 25.7,180 26,180 26.7,180 27,180 27.5,180 
		30.5,180 30.9,180 31.3,180 31.9,180 32.3,180 32.7,180 33.4,180 33.7,180 34.1,180 37.2,180 37.5,180 37.9,180 38.6,180 39,180 
		39.3,180 40.4,180 40.8,180 43.8,180 44.2,180 44.6,180 45.7,180 46,180 47.5,180 50.2,180 50.9,180 51.3,180 52.7,180 55.5,180 
		56.9,180 57.3,180 57.9,180 60.7,180 62.2,180 62.5,180 63.6,180 64,180 64.3,180 67.4,180 67.8,180 68.8,180 69.2,180 69.6,180 
		70.2,180 70.7,180 71,180 74.1,180 74.4,180 74.8,180 75.5,180 75.9,180 76.3,180 76.9,180 77.3,180 77.7,180 80.7,180 81.1,180 
		81.5,180 82.2,180 82.5,180 82.9,180 83.6,180 84,180 84.3,180 87.4,180 87.8,180 88.2,180 88.8,180 89.2,180 89.6,180 90.7,180 
		91,180 94.1,180 94.4,180 94.8,180 95.9,180 96.3,180 97.7,180 101.1,180 101.5,180 102.9,180 108.2,180 108.2,0 	"/>
</g>
<g id="figure">
	<g>
		<path d="M9.8,94c0.2-1.7,0.9-2.7,1.8-3.6l2.8-2.7c1.9-1.8,3.7-3.6,5.7-5.3c3.8-3.5,7.8-6.7,11.9-9.9c4.1-3.2,8.3-6.1,12.8-8.8
			c2.3-1.3,4.6-2.6,7-3.6c2.5-1,5-1.8,7.6-2.4c1.3-0.3,2.7-0.5,4.1-0.6c1.4-0.1,2.8-0.1,4.4,0.2c0.8,0.2,1.6,0.4,2.4,0.8
			c0.8,0.4,1.6,1,2.2,1.8c1.3,1.6,1.8,3.5,1.9,5.2c0.1,3.4-1,6.2-2.2,8.8c-1.2,2.5-2.5,4.9-4,7.2c-2.9,4.5-6.1,8.7-9.5,12.6
			c-3.4,3.9-7.1,7.7-10.9,11.3c-3.8,3.6-7.9,6.9-12.2,10c-2.2,1.6-4.5,3.1-6.9,4.3c-2.4,1.2-4.9,2.4-7.7,3.1
			c-1.4,0.3-2.9,0.6-4.6,0.5c-0.8-0.1-1.8-0.3-2.7-0.8c-1-0.5-1.8-1.5-2.1-2.5c-0.4-1-0.4-1.9-0.3-2.8c0.1-0.8,0.2-1.6,0.4-2.3
			c0.4-1.4,1-2.7,1.6-3.9c2.4-4.8,5.6-9.1,9.2-13c7.1-7.7,15.2-14.2,23.6-20.2c4.2-3,8.5-5.9,13-8.5c4.4-2.7,9-5.1,13.6-7.5l1.3,2.6
			l-0.3,0.1l-0.1,0.1c1.1,2.4-1.4-3.3-1.2-2.7c0,0,0,0,0,0l0,0l0.1,0l0.5-0.2l1-0.5c0.7-0.3,1.4-0.6,2.1-0.9
			c1.4-0.6,2.8-1.2,4.3-1.7c2.9-1.1,5.9-2,9.3-2.2c1.7-0.1,3.5,0,5.4,0.6c0.9,0.3,1.9,0.8,2.8,1.5c0.9,0.7,1.7,1.5,2.2,2.5
			c1.1,1.9,1.5,4,1.6,5.8c0.1,1.8-0.1,3.6-0.5,5.2c-0.1,0.4-0.2,0.8-0.3,1.3c-0.1,0.4-0.2,0.9-0.4,1.3c-0.3,0.9-0.7,1.7-1.1,2.5
			c-0.9,1.6-1.9,3-3,4.3c-2.3,2.6-4.9,4.6-7.7,6.2c-2.8,1.6-5.7,2.8-8.7,3.8c-1.5,0.5-3,0.9-4.5,1.3c-0.8,0.2-1.5,0.4-2.3,0.5
			c-0.8,0.1-1.6,0-2.6-0.8l-0.1-0.5c0.5-1.1,1.1-1.6,1.7-2l2-0.9c1.3-0.6,2.6-1.3,3.9-2c2.5-1.4,4.9-2.9,7.1-4.6
			c2.2-1.7,4.2-3.5,5.8-5.5c0.8-1,1.4-2.1,2-3.1c0.1-0.3,0.2-0.5,0.4-0.8c0.1-0.3,0.2-0.5,0.3-0.8c0.1-0.3,0.2-0.5,0.3-0.8
			c0.1-0.3,0.2-0.5,0.3-0.9c0.7-2.5,1-5.1,0.5-6.5c-0.3-0.7-0.7-1.3-1.6-1.7c-0.9-0.5-2.1-0.7-3.4-0.8c-1.3-0.1-2.7,0-4.1,0.1
			c-1.4,0.1-2.8,0.4-4.2,0.7c-1.4,0.3-2.8,0.7-4.2,1.2c-0.7,0.2-1.4,0.5-2.1,0.8L74,64l-0.5,0.2l-0.1,0l0,0l-0.1,0
			c0.1,0.6-2.3-5.1-1.2-2.7l0.1-0.1l0.2-0.1l1.3,2.6c-4.6,2.2-8.9,5-13.2,7.7c-4.3,2.8-8.5,5.5-12.7,8.5c-4.1,3-8.2,6.1-12.1,9.3
			c-3.9,3.3-7.6,6.7-11,10.4c-3.4,3.7-6.3,7.8-8.4,12.2c-0.5,1.1-0.9,2.2-1.2,3.3c-0.3,1-0.3,2.1-0.1,2.5c0.1,0.2,0.2,0.2,0.3,0.3
			c0.2,0.1,0.5,0.2,0.9,0.2c0.9,0,2-0.2,3-0.6c2.1-0.8,4.3-2,6.2-3.3c2-1.4,3.8-3,5.6-4.6c3.6-3.4,7.1-7.1,10.5-10.8
			c3.4-3.7,6.7-7.5,10-11.3c3.2-3.8,6.5-7.6,9.5-11.5c1.5-2,2.9-3.9,4.1-5.9c0.6-1,1.1-2,1.6-2.9c0.4-1,0.9-1.9,1.1-2.8
			c0.2-0.9,0.3-1.6,0.2-2.1c-0.1-0.6-0.7-1.2-1.6-1.6c-0.9-0.4-2.1-0.6-3.2-0.6c-1.2,0-2.4,0.2-3.6,0.4c-2.4,0.4-4.9,1.1-7.1,2
			c-2.3,0.9-4.5,2.1-6.6,3.4C42,68.7,37.9,71.8,34,75c-4,3.2-7.8,6.6-11.6,9.9l-5.7,5.1l-2.8,2.6c-0.9,0.9-2,1.6-3.7,1.7L9.8,94z"/>
	</g>
</g>
</svg>
