<?xml version="1.0" encoding="utf-8"?>
<!-- Generator: Adobe Illustrator 22.1.0, SVG Export Plug-In . SVG Version: 6.00 Build 0)  -->
<svg version="1.1" xmlns="http://www.w3.org/2000/svg" xmlns:xlink="http://www.w3.org/1999/xlink" x="0px" y="0px"
	 viewBox="0 0 141.6 180" style="enable-background:new 0 0 141.6 180;" xml:space="preserve">
<style type="text/css">
	.st0{display:none;}
	.st1{display:inline;fill:#FF0000;}
</style>
<g id="bg" class="st0">
	<polygon class="st1" points="136.7,0 135.4,0 135.1,0 131.9,0 130.5,0 130.2,0 129.2,0 128.8,0 128.5,0 125.7,0 125.3,0 124.3,0 
		124,0 123.6,0 122.8,0 122.6,0 122.3,0 121.6,0 120.7,0 119.4,0 119.1,0 118.8,0 117.9,0 117.8,0 117.4,0 116.7,0 116.6,0 116.3,0 
		116.1,0 115.9,0 115.4,0 115.1,0 114.5,0 114.2,0 113.1,0 112.9,0 112.6,0 111.9,0 111.7,0 111.4,0 111.2,0 111,0 110.5,0 110.4,0 
		110.2,0 110,0 109.7,0 109.7,0 109.3,0 109.2,0 108.8,0 108.5,0 108.3,0 108,0 107.6,0 106.9,0 106.5,0 106.3,0 105.7,0 105.5,0 
		105.3,0 105.2,0 104.8,0 104.8,0 104.5,0 104.3,0 104,0 103.8,0 103.6,0 103.5,0 103.5,0 103.1,0 102.8,0 102.8,0 102.6,0 102.3,0 
		102,0 101.8,0 101.4,0 100.7,0 100.6,0 100.3,0 100,0 99.4,0 99.1,0 99,0 98.8,0 98.6,0 98.6,0 98.3,0 97.9,0 97.9,0 97.8,0 
		97.4,0 97.3,0 97.1,0 96.9,0 96.6,0 96.6,0 96.3,0 96.1,0 95.9,0 95.7,0 95.4,0 95.2,0 94.9,0 94.5,0 94.2,0 94.1,0 93.8,0 93.1,0 
		92.9,0 92.6,0 92.4,0 92.2,0 92,0 91.7,0 91.7,0 91.4,0 91.2,0 91,0 90.9,0 90.5,0 90.4,0 90.4,0 90.1,0 90,0 89.7,0 89.7,0 
		89.5,0 89.3,0 89.2,0 88.9,0 88.7,0 88.4,0 88.3,0 88,0 87.6,0 87.5,0 86.9,0 86.5,0 86.3,0 86,0 85.7,0 85.5,0 85.5,0 85.2,0 
		85.2,0 84.8,0 84.8,0 84.7,0 84.5,0 84.3,0 84,0 83.8,0 83.8,0 83.5,0 83.5,0 83.5,0 83.1,0 83,0 82.8,0 82.6,0 82.5,0 82.2,0 
		82,0 81.8,0 81.8,0 81.4,0 80.6,0 80.3,0 80,0 79.8,0 79.5,0 79.1,0 79,0 79,0 78.6,0 78.6,0 78.6,0 78.3,0 78.1,0 77.9,0 77.8,0 
		77.6,0 77.3,0 77.3,0 77.1,0 77,0 76.9,0 76.6,0 76.4,0 76.1,0 75.9,0 75.7,0 75.6,0 75.4,0 75.2,0 74.9,0 74.1,0 74.1,0 73.8,0 
		73.2,0 72.9,0 72.8,0 72.4,0 72.4,0 72.2,0 72.1,0 72,0 71.7,0 71.6,0 71.3,0 71.1,0 70.9,0 70.7,0 70.5,0 70.4,0 70.1,0 69.9,0 
		69.6,0 69.5,0 69.4,0 69.2,0 69.2,0 68.9,0 68.7,0 68.4,0 67.8,0 67.5,0 67.5,0 66.7,0 66.4,0 66.2,0 66,0 65.9,0 65.7,0 65.5,0 
		65.2,0 65,0 64.7,0 64.7,0 64.5,0 64.3,0 64.3,0 64,0 63.8,0 63.7,0 63.5,0 63.4,0 63,0 63,0 63,0 62.6,0 62.6,0 62.5,0 62.2,0 
		61.8,0 61.6,0 61.3,0 61,0 60.2,0 59.8,0 59.8,0 59.7,0 59.5,0 59.1,0 59,0 58.8,0 58.6,0 58.5,0 58.2,0 58.1,0 58.1,0 57.8,0 
		57.8,0 57.6,0 57.3,0 57.1,0 57,0 56.8,0 56.8,0 56.4,0 56.4,0 56.1,0 56.1,0 55.9,0 55.6,0 55.3,0 55.1,0 54.7,0 54.1,0 54,0 
		53.6,0 53.3,0 53.2,0 52.9,0 52.8,0 52.4,0 52.3,0 52.1,0 51.9,0 51.9,0 51.6,0 51.6,0 51.3,0 51.2,0 51.1,0 50.7,0 50.6,0 50.4,0 
		50.2,0 49.9,0 49.9,0 49.6,0 49.4,0 49.2,0 49,0 48.7,0 48.5,0 47.8,0 47.5,0 47.4,0 47.1,0 46.7,0 46.4,0 46.2,0 45.9,0 45.7,0 
		45.5,0 45.3,0 45,0 45,0 44.7,0 44.5,0 44.3,0 44.2,0 43.8,0 43.7,0 43.7,0 43.4,0 43,0 43,0 42.8,0 42.6,0 42.5,0 42.2,0 41.6,0 
		41.3,0 41,0 40.9,0 40.2,0 39.8,0 39.7,0 39.3,0 39,0 38.8,0 38.8,0 38.5,0 38.2,0 38.1,0 38,0 37.8,0 37.6,0 37.3,0 37.1,0 
		36.8,0 36.8,0 36.4,0 36.3,0 36.1,0 35.9,0 35.3,0 35.1,0 34.7,0 34,0 33.6,0 33.3,0 33.1,0 32.8,0 32.4,0 32.3,0 31.9,0 31.9,0 
		31.6,0 31.4,0 31.2,0 31.1,0 30.6,0 30.4,0 30.2,0 29.9,0 29.7,0 29,0 28.7,0 28.5,0 27.4,0 27.1,0 26.6,0 26.2,0 25.7,0 25.5,0 
		25.3,0 25,0 24.9,0 24.2,0 23.8,0 23.7,0 22.8,0 22.5,0 22.2,0 20.9,0 20,0 19.3,0 19,0 18.8,0 18,0 17.6,0 17.3,0 16.3,0 15.9,0 
		13.1,0 12.8,0 12.4,0 11.4,0 11.1,0 9.7,0 6.6,0 6.2,0 4.9,0 0,0 0,180 4.9,180 6.2,180 6.6,180 9.7,180 11.1,180 11.4,180 
		12.4,180 12.8,180 13.1,180 15.9,180 16.3,180 17.3,180 17.6,180 18,180 18.8,180 19,180 19.3,180 20,180 20.9,180 22.2,180 
		22.5,180 22.8,180 23.7,180 23.8,180 24.2,180 24.9,180 25,180 25.3,180 25.5,180 25.7,180 26.2,180 26.6,180 27.1,180 27.4,180 
		28.5,180 28.7,180 29,180 29.7,180 29.9,180 30.2,180 30.4,180 30.6,180 31.1,180 31.2,180 31.4,180 31.6,180 31.9,180 31.9,180 
		32.3,180 32.4,180 32.8,180 33.1,180 33.3,180 33.6,180 34,180 34.7,180 35.1,180 35.3,180 35.9,180 36.1,180 36.3,180 36.4,180 
		36.8,180 36.8,180 37.1,180 37.3,180 37.6,180 37.8,180 38,180 38.1,180 38.2,180 38.5,180 38.8,180 38.8,180 39,180 39.3,180 
		39.7,180 39.8,180 40.2,180 40.9,180 41,180 41.3,180 41.6,180 42.2,180 42.5,180 42.6,180 42.8,180 43,180 43,180 43.4,180 
		43.7,180 43.7,180 43.8,180 44.2,180 44.3,180 44.5,180 44.7,180 45,180 45,180 45.3,180 45.5,180 45.7,180 45.9,180 46.2,180 
		46.4,180 46.7,180 47.1,180 47.4,180 47.5,180 47.8,180 48.5,180 48.7,180 49,180 49.2,180 49.4,180 49.6,180 49.9,180 49.9,180 
		50.2,180 50.4,180 50.6,180 50.7,180 51.1,180 51.2,180 51.3,180 51.6,180 51.6,180 51.9,180 51.9,180 52.1,180 52.3,180 52.4,180 
		52.8,180 52.9,180 53.2,180 53.3,180 53.6,180 54,180 54.1,180 54.7,180 55.1,180 55.3,180 55.6,180 55.9,180 56.1,180 56.1,180 
		56.4,180 56.4,180 56.8,180 56.8,180 57,180 57.1,180 57.3,180 57.6,180 57.8,180 57.8,180 58.1,180 58.1,180 58.2,180 58.5,180 
		58.6,180 58.8,180 59,180 59.1,180 59.5,180 59.7,180 59.8,180 59.8,180 60.2,180 61,180 61.3,180 61.6,180 61.8,180 62.2,180 
		62.5,180 62.6,180 62.6,180 63,180 63,180 63,180 63.4,180 63.5,180 63.7,180 63.8,180 64,180 64.3,180 64.3,180 64.5,180 
		64.7,180 64.7,180 65,180 65.2,180 65.5,180 65.7,180 65.9,180 66,180 66.2,180 66.4,180 66.7,180 67.5,180 67.5,180 67.8,180 
		68.4,180 68.7,180 68.9,180 69.2,180 69.2,180 69.4,180 69.5,180 69.6,180 69.9,180 70.1,180 70.4,180 70.5,180 70.7,180 70.9,180 
		71.1,180 71.3,180 71.6,180 71.7,180 72,180 72.1,180 72.2,180 72.4,180 72.4,180 72.8,180 72.9,180 73.2,180 73.8,180 74.1,180 
		74.1,180 74.9,180 75.2,180 75.4,180 75.6,180 75.7,180 75.9,180 76.1,180 76.4,180 76.6,180 76.9,180 77,180 77.1,180 77.3,180 
		77.3,180 77.6,180 77.8,180 77.9,180 78.1,180 78.3,180 78.6,180 78.6,180 78.6,180 79,180 79,180 79.1,180 79.5,180 79.8,180 
		80,180 80.3,180 80.6,180 81.4,180 81.8,180 81.8,180 82,180 82.2,180 82.5,180 82.6,180 82.8,180 83,180 83.1,180 83.5,180 
		83.5,180 83.5,180 83.8,180 83.8,180 84,180 84.3,180 84.5,180 84.7,180 84.8,180 84.8,180 85.2,180 85.2,180 85.5,180 85.5,180 
		85.7,180 86,180 86.3,180 86.5,180 86.9,180 87.5,180 87.6,180 88,180 88.3,180 88.4,180 88.7,180 88.9,180 89.2,180 89.3,180 
		89.5,180 89.7,180 89.7,180 90,180 90.1,180 90.4,180 90.4,180 90.5,180 90.9,180 91,180 91.2,180 91.4,180 91.7,180 91.7,180 
		92,180 92.2,180 92.4,180 92.6,180 92.9,180 93.1,180 93.8,180 94.1,180 94.2,180 94.5,180 94.9,180 95.2,180 95.4,180 95.7,180 
		95.9,180 96.1,180 96.3,180 96.6,180 96.6,180 96.9,180 97.1,180 97.3,180 97.4,180 97.8,180 97.9,180 97.9,180 98.3,180 98.6,180 
		98.6,180 98.8,180 99,180 99.1,180 99.4,180 100,180 100.3,180 100.6,180 100.7,180 101.4,180 101.8,180 102,180 102.3,180 
		102.6,180 102.8,180 102.8,180 103.1,180 103.5,180 103.5,180 103.6,180 103.8,180 104,180 104.3,180 104.5,180 104.8,180 
		104.8,180 105.2,180 105.3,180 105.5,180 105.7,180 106.3,180 106.5,180 106.9,180 107.6,180 108,180 108.3,180 108.5,180 
		108.8,180 109.2,180 109.3,180 109.7,180 109.7,180 110,180 110.2,180 110.4,180 110.5,180 111,180 111.2,180 111.4,180 111.7,180 
		111.9,180 112.6,180 112.9,180 113.1,180 114.2,180 114.5,180 115.1,180 115.4,180 115.9,180 116.1,180 116.3,180 116.6,180 
		116.7,180 117.4,180 117.8,180 117.9,180 118.8,180 119.1,180 119.4,180 120.7,180 121.6,180 122.3,180 122.6,180 122.8,180 
		123.6,180 124,180 124.3,180 125.3,180 125.7,180 128.5,180 128.8,180 129.2,180 130.2,180 130.5,180 131.9,180 135.1,180 
		135.4,180 136.7,180 141.6,180 141.6,0 	"/>
</g>
<g id="figure">
	<g>
		<g>
			<path d="M21.8,121.3c0.5-1.4,1.6-1.5,2.5-2.1l2.8-1.4c1.8-1,3.6-2,5.4-3c3.6-2.1,7.1-4.2,10.5-6.6c3.4-2.3,6.7-4.8,9.9-7.4
				c3.1-2.6,6-5.5,9-8.5l17.5-17.8l8.7-8.9l4.4-4.5c1.4-1.5,2.9-3,4.9-4l0.9-0.5L98,57.8c-0.4,3.3-2.6,5.2-4.3,7.5
				c-1.7,2.2-3.5,4.5-5.3,6.7c-3.5,4.4-7.1,8.8-10.7,13.2c-7.2,8.7-14.4,17.5-21.4,26.4c-7,8.9-13.9,17.9-20.9,26.9
				c-3.5,4.5-7,9-10.5,13.4l-2.6,3.3c-1,1.2-2,2.4-3.1,3.4c-1.1,1.1-2.5,1.9-3.9,2.5c-0.7,0.3-1.5,0.6-2.3,0.7
				c-0.8,0.1-1.8,0.1-2.9-0.4l-0.2-0.5c0.2-1.1,0.4-1.9,0.8-2.6c0.3-0.7,0.7-1.2,1.1-1.8c0.7-1.2,1.5-2.2,2.4-3.1
				c0.9-0.9,1.8-1.9,2.6-2.9l2.7-3.3c3.6-4.4,7.3-8.7,11-13c7.4-8.6,14.9-17.1,22.2-25.8c7.4-8.6,14.5-17.4,21.7-26.2
				c3.6-4.4,7.2-8.8,10.9-13.1c1.8-2.2,3.7-4.3,5.5-6.5c1.9-2.1,3.3-4.6,6.5-5.7l0.7,0.7c-0.9,2-2.3,3.5-3.8,5.1l-4.3,4.5l-8.6,9.1
				c-5.7,6-11.5,12-17.4,18c-2.9,3-5.9,6-9.2,8.7c-3.3,2.7-6.7,5.2-10.2,7.5c-3.5,2.3-7.1,4.5-10.8,6.6c-1.8,1-3.7,2-5.6,3l-2.8,1.4
				c-1,0.4-1.8,1.2-3.2,0.6L21.8,121.3z"/>
		</g>
		<g>
			<path d="M38.6,128.4c-0.3-1.6,0.4-2.3,1.1-2.9c0.7-0.6,1.4-1.2,2.1-1.8c1.4-1.2,2.9-2.4,4.4-3.5c3-2.2,6.1-4.3,9.4-6.2
				c3.3-1.9,6.6-3.5,9.8-5.2l9.8-5.1c6.6-3.4,13.1-6.8,19.5-10.4c3.2-1.8,6.4-3.6,9.6-5.5c3.2-1.9,6.2-3.9,9-6.2
				c2.9-2.3,5.6-4.7,8.2-7.3c2.5-2.6,4.9-5.4,6.8-8.4c0.5-0.8,0.9-1.5,1.2-2.3c0.3-0.8,0.6-1.6,0.5-2.2c0-0.3-0.1-0.4-0.1-0.3
				c0,0,0,0-0.2,0c-0.4,0-1.2,0.3-1.9,0.7c-1.4,0.8-2.8,1.9-4.2,3.1c-1.4,1.2-2.7,2.4-4,3.6l-2,1.9l-2,1.8c-1.3,1.2-2.6,2.4-3.8,3.7
				c-2.5,2.5-4.8,5.3-7.2,8c-2.3,2.8-4.4,5.6-6.5,8.5c-2,2.9-4,6-5.9,9.1c-3.8,6.3-7.8,12.6-12,18.8c-2.1,3.1-4.1,6.2-6.3,9.2
				l-1.6,2.3c-0.5,0.8-1.1,1.5-1.7,2.3c-1.2,1.5-2.3,3-3.6,4.5c-4.9,5.8-10.6,11.1-17.2,15.1c-1.7,1-3.4,1.9-5.2,2.7
				c-1.8,0.8-3.7,1.5-5.8,1.8c-0.5,0.1-1.1,0.1-1.7,0.1c-0.6,0-1.3-0.1-2-0.4c-0.7-0.3-1.7-1.1-1.9-2.1c-0.3-1.2,0-1.7,0.1-2.3
				c0.3-1.1,0.8-2,1.3-2.9c0.5-0.9,1-1.7,1.6-2.5c2.2-3.1,4.8-5.9,7.5-8.5c2.7-2.6,5.6-5,8.6-7.2c3-2.2,6.1-4.3,9.4-6.2
				c3.2-1.9,6.6-3.6,9.8-5.3c6.5-3.4,13-7,19.5-10.5l9.7-5.4l4.8-2.7l2.4-1.4c0.4-0.2,0.8-0.5,1.2-0.6c0.5-0.1,1,0,1.9,0.4l0.2,0.3
				c0,0.9-0.2,1.5-0.5,1.8c-0.3,0.4-0.8,0.5-1.2,0.8l-2.4,1.4l-4.8,2.8c-3.2,1.9-6.4,3.7-9.7,5.5c-6.5,3.6-13.1,7-19.7,10.3
				c-3.3,1.7-6.6,3.3-9.8,5.1c-3.2,1.8-6.3,3.8-9.2,5.9c-2.9,2.2-5.8,4.5-8.3,7c-2.6,2.5-5,5.2-7,8.2c-0.5,0.7-0.9,1.5-1.3,2.3
				c-0.4,0.8-0.7,1.6-0.8,2.2c-0.1,0.3,0,0.7-0.1,0.4c0-0.1-0.2-0.2,0-0.2c0.2,0.1,1,0,1.7-0.2c1.5-0.4,3.1-1.1,4.6-2
				c1.5-0.9,3-1.8,4.4-2.9c2.8-2.1,5.5-4.5,8-7c2.5-2.5,4.9-5.2,7.1-8c1.1-1.4,2.2-2.8,3.2-4.3c0.5-0.7,1-1.5,1.5-2.2l1.5-2.3l6-9.2
				c4-6.2,7.8-12.4,11.6-18.8c1.9-3.2,3.9-6.4,6.1-9.5c2.2-3.2,4.5-6.1,7-9c2.5-2.9,5.1-5.6,7.9-8.2c1.4-1.3,2.8-2.6,4.4-3.8
				l2.3-1.7l2.3-1.6c1.6-1,3.2-2,4.9-3c1.7-0.9,3.5-1.8,5.4-2.5c1-0.3,2-0.6,3.5-0.6c0.7,0.1,1.7,0.4,2.3,1.1
				c0.7,0.8,0.7,1.7,0.7,2.3c-0.1,1.3-0.5,2.2-0.9,3.2c-0.4,0.9-0.9,1.8-1.4,2.6c-2.1,3.2-4.6,6.1-7.3,8.7c-2.7,2.6-5.5,5.1-8.4,7.5
				c-2.9,2.3-6,4.5-9.2,6.5c-3.2,2-6.4,3.8-9.6,5.7c-6.4,3.7-12.9,7.2-19.4,10.7l-9.8,5.3c-3.2,1.8-6.6,3.4-9.7,5.2
				c-3.1,1.8-6.2,3.8-9.1,5.9c-1.5,1.1-2.9,2.2-4.3,3.3c-0.7,0.6-1.4,1.2-2.1,1.7c-0.7,0.6-1.3,1.2-3,0.8L38.6,128.4z"/>
		</g>
	</g>
</g>
</svg>
