<?xml version="1.0" encoding="utf-8"?>
<!-- Generator: Adobe Illustrator 22.1.0, SVG Export Plug-In . SVG Version: 6.00 Build 0)  -->
<svg version="1.1" xmlns="http://www.w3.org/2000/svg" xmlns:xlink="http://www.w3.org/1999/xlink" x="0px" y="0px"
	 viewBox="0 0 142.7 180" style="enable-background:new 0 0 142.7 180;" xml:space="preserve">
<style type="text/css">
	.st0{display:none;}
	.st1{display:inline;fill:#FF0000;}
</style>
<g id="bg" class="st0">
	<polygon class="st1" points="136.8,0 135.1,0 134.7,0 130.9,0 129.2,0 128.8,0 127.6,0 127.2,0 126.7,0 123.3,0 122.9,0 122.7,0 
		121.6,0 121.2,0 120.8,0 120,0 119.6,0 119.2,0 116.8,0 115.7,0 115.3,0 115.1,0 114.9,0 114.7,0 114.1,0 113.6,0 113.2,0 112.5,0 
		112.1,0 111.6,0 110.9,0 109.2,0 108.8,0 108.2,0 107.7,0 107.6,0 107.3,0 107.2,0 106.7,0 106.5,0 106.1,0 105.6,0 104.9,0 
		104.5,0 104.1,0 103.3,0 102.9,0 101.6,0 101.2,0 100.8,0 100.6,0 100.2,0 100,0 99.7,0 99.6,0 99.2,0 98.9,0 98.5,0 98.1,0 
		96.9,0 96.5,0 95.7,0 95.3,0 94.9,0 94.1,0 93.6,0 93.2,0 93,0 92.6,0 92.5,0 92.2,0 92.1,0 91.6,0 90.9,0 90.5,0 88.9,0 88.2,0 
		87.7,0 87.3,0 86.5,0 86.1,0 85.7,0 85.6,0 85,0 84.9,0 84.6,0 84.5,0 84.1,0 82.9,0 80.6,0 80.2,0 79.8,0 79.7,0 78.9,0 78.5,0 
		78.2,0 78.1,0 77.7,0 77,0 76.9,0 76.5,0 73.9,0 73,0 72.6,0 72.2,0 72.2,0 71.8,0 70.9,0 70.6,0 70.5,0 70.2,0 69.8,0 68.9,0 
		66.3,0 65.9,0 65.7,0 65,0 64.6,0 64.6,0 64.2,0 63.8,0 63.1,0 62.9,0 62.6,0 62.2,0 59.8,0 58.7,0 58.3,0 58.2,0 57.9,0 57.7,0 
		57.1,0 57,0 56.6,0 56.2,0 55.5,0 55.1,0 54.6,0 53.9,0 52.2,0 51.8,0 51.2,0 50.7,0 50.6,0 50.3,0 50.2,0 49.8,0 49.5,0 49.1,0 
		48.6,0 47.9,0 47.5,0 47.1,0 46.3,0 45.9,0 44.6,0 44.2,0 43.8,0 43.6,0 43.2,0 43.1,0 42.7,0 42.6,0 42.2,0 41.9,0 41.5,0 41.1,0 
		39.9,0 39.5,0 38.7,0 38.3,0 37.9,0 37.1,0 36.6,0 36.2,0 36,0 35.6,0 35.5,0 35.2,0 35.1,0 34.6,0 33.9,0 33.5,0 31.9,0 31.2,0 
		30.7,0 30.3,0 29.5,0 29.1,0 28.6,0 28,0 27.9,0 27.6,0 27.5,0 27.1,0 25.9,0 23.6,0 23.2,0 22.7,0 21.9,0 21.5,0 21.1,0 20,0 
		19.9,0 19.5,0 16,0 15.6,0 15.2,0 13.9,0 13.5,0 11.9,0 8,0 7.6,0 5.9,0 0,0 0,180 5.9,180 7.6,180 8,180 11.9,180 13.5,180 
		13.9,180 15.2,180 15.6,180 16,180 19.5,180 19.9,180 20,180 21.1,180 21.5,180 21.9,180 22.7,180 23.2,180 23.6,180 25.9,180 
		27.1,180 27.5,180 27.6,180 27.9,180 28,180 28.6,180 29.1,180 29.5,180 30.3,180 30.7,180 31.2,180 31.9,180 33.5,180 33.9,180 
		34.6,180 35.1,180 35.2,180 35.5,180 35.6,180 36,180 36.2,180 36.6,180 37.1,180 37.9,180 38.3,180 38.7,180 39.5,180 39.9,180 
		41.1,180 41.5,180 41.9,180 42.2,180 42.6,180 42.7,180 43.1,180 43.2,180 43.6,180 43.8,180 44.2,180 44.6,180 45.9,180 46.3,180 
		47.1,180 47.5,180 47.9,180 48.6,180 49.1,180 49.5,180 49.8,180 50.2,180 50.3,180 50.6,180 50.7,180 51.2,180 51.8,180 52.2,180 
		53.9,180 54.6,180 55.1,180 55.5,180 56.2,180 56.6,180 57,180 57.1,180 57.7,180 57.9,180 58.2,180 58.3,180 58.7,180 59.8,180 
		62.2,180 62.6,180 62.9,180 63.1,180 63.8,180 64.2,180 64.6,180 64.6,180 65,180 65.7,180 65.9,180 66.3,180 68.9,180 69.8,180 
		70.2,180 70.5,180 70.6,180 70.9,180 71.8,180 72.2,180 72.2,180 72.6,180 73,180 73.9,180 76.5,180 76.9,180 77,180 77.7,180 
		78.1,180 78.2,180 78.5,180 78.9,180 79.7,180 79.8,180 80.2,180 80.6,180 82.9,180 84.1,180 84.5,180 84.6,180 84.9,180 85,180 
		85.6,180 85.7,180 86.1,180 86.5,180 87.3,180 87.7,180 88.2,180 88.9,180 90.5,180 90.9,180 91.6,180 92.1,180 92.2,180 92.5,180 
		92.6,180 93,180 93.2,180 93.6,180 94.1,180 94.9,180 95.3,180 95.7,180 96.5,180 96.9,180 98.1,180 98.5,180 98.9,180 99.2,180 
		99.6,180 99.7,180 100,180 100.2,180 100.6,180 100.8,180 101.2,180 101.6,180 102.9,180 103.3,180 104.1,180 104.5,180 104.9,180 
		105.6,180 106.1,180 106.5,180 106.7,180 107.2,180 107.3,180 107.6,180 107.7,180 108.2,180 108.8,180 109.2,180 110.9,180 
		111.6,180 112.1,180 112.5,180 113.2,180 113.6,180 114.1,180 114.7,180 114.9,180 115.1,180 115.3,180 115.7,180 116.8,180 
		119.2,180 119.6,180 120,180 120.8,180 121.2,180 121.6,180 122.7,180 122.9,180 123.3,180 126.7,180 127.2,180 127.6,180 
		128.8,180 129.2,180 130.9,180 134.7,180 135.1,180 136.8,180 142.7,180 142.7,0 	"/>
</g>
<g id="figure">
	<g>
		<g>
			<path d="M9.8,94c0.2-1.7,0.9-2.7,1.8-3.6l2.8-2.7c1.9-1.8,3.7-3.6,5.7-5.3c3.8-3.5,7.8-6.7,11.9-9.9c4.1-3.2,8.3-6.1,12.8-8.8
				c2.3-1.3,4.6-2.6,7-3.6c2.5-1,5-1.8,7.6-2.4c1.3-0.3,2.7-0.5,4.1-0.6c1.4-0.1,2.8-0.1,4.4,0.2c0.8,0.2,1.6,0.4,2.4,0.8
				c0.8,0.4,1.6,1,2.2,1.8c1.3,1.6,1.8,3.5,1.9,5.2c0.1,3.4-1,6.2-2.2,8.8c-1.2,2.5-2.5,4.9-4,7.2c-2.9,4.5-6.1,8.7-9.5,12.6
				c-3.4,3.9-7.1,7.7-10.9,11.3c-3.8,3.6-7.9,6.9-12.2,10c-2.2,1.6-4.5,3.1-6.9,4.3c-2.4,1.2-4.9,2.4-7.7,3.1
				c-1.4,0.3-2.9,0.6-4.6,0.5c-0.8-0.1-1.8-0.3-2.7-0.8c-1-0.5-1.8-1.5-2.1-2.5c-0.4-1-0.4-1.9-0.3-2.8c0.1-0.8,0.2-1.6,0.4-2.3
				c0.4-1.4,1-2.7,1.6-3.9c2.4-4.8,5.6-9.1,9.2-13c7.1-7.7,15.2-14.2,23.6-20.2c4.2-3,8.5-5.9,13-8.5c4.4-2.7,9-5.1,13.6-7.5
				l1.3,2.6l-0.3,0.1l-0.1,0.1c1.1,2.4-1.4-3.3-1.2-2.7c0,0,0,0,0,0l0,0l0.1,0l0.5-0.2l1-0.5c0.7-0.3,1.4-0.6,2.1-0.9
				c1.4-0.6,2.8-1.2,4.3-1.7c2.9-1.1,5.9-2,9.3-2.2c1.7-0.1,3.5,0,5.4,0.6c0.9,0.3,1.9,0.8,2.8,1.5c0.9,0.7,1.7,1.5,2.2,2.5
				c1.1,1.9,1.5,4,1.6,5.8c0.1,1.8-0.1,3.6-0.5,5.2c-0.1,0.4-0.2,0.8-0.3,1.3c-0.1,0.4-0.2,0.9-0.4,1.3c-0.3,0.9-0.7,1.7-1.1,2.5
				c-0.9,1.6-1.9,3-3,4.3c-2.3,2.6-4.9,4.6-7.7,6.2c-2.8,1.6-5.7,2.8-8.7,3.8c-1.5,0.5-3,0.9-4.5,1.3c-0.8,0.2-1.5,0.4-2.3,0.5
				c-0.8,0.1-1.6,0-2.6-0.8l-0.1-0.5c0.5-1.1,1.1-1.6,1.7-2l2-0.9c1.3-0.6,2.6-1.3,3.9-2c2.5-1.4,4.9-2.9,7.1-4.6
				c2.2-1.7,4.2-3.5,5.8-5.5c0.8-1,1.4-2.1,2-3.1c0.1-0.3,0.2-0.5,0.4-0.8c0.1-0.3,0.2-0.5,0.3-0.8c0.1-0.3,0.2-0.5,0.3-0.8
				c0.1-0.3,0.2-0.5,0.3-0.9c0.7-2.5,1-5.1,0.5-6.5c-0.3-0.7-0.7-1.3-1.6-1.7c-0.9-0.5-2.1-0.7-3.4-0.8c-1.3-0.1-2.7,0-4.1,0.1
				c-1.4,0.1-2.8,0.4-4.2,0.7c-1.4,0.3-2.8,0.7-4.2,1.2c-0.7,0.2-1.4,0.5-2.1,0.8L74,64l-0.5,0.2l-0.1,0l0,0l-0.1,0
				c0.1,0.6-2.3-5.1-1.2-2.7l0.1-0.1l0.2-0.1l1.3,2.6c-4.6,2.2-8.9,5-13.2,7.7c-4.3,2.8-8.5,5.5-12.7,8.5c-4.1,3-8.2,6.1-12.1,9.3
				c-3.9,3.3-7.6,6.7-11,10.4c-3.4,3.7-6.3,7.8-8.4,12.2c-0.5,1.1-0.9,2.2-1.2,3.3c-0.3,1-0.3,2.1-0.1,2.5c0.1,0.2,0.2,0.2,0.3,0.3
				c0.2,0.1,0.5,0.2,0.9,0.2c0.9,0,2-0.2,3-0.6c2.1-0.8,4.3-2,6.2-3.3c2-1.4,3.8-3,5.6-4.6c3.6-3.4,7.1-7.1,10.5-10.8
				c3.4-3.7,6.7-7.5,10-11.3c3.2-3.8,6.5-7.6,9.5-11.5c1.5-2,2.9-3.9,4.1-5.9c0.6-1,1.1-2,1.6-2.9c0.4-1,0.9-1.9,1.1-2.8
				c0.2-0.9,0.3-1.6,0.2-2.1c-0.1-0.6-0.7-1.2-1.6-1.6c-0.9-0.4-2.1-0.6-3.2-0.6c-1.2,0-2.4,0.2-3.6,0.4c-2.4,0.4-4.9,1.1-7.1,2
				c-2.3,0.9-4.5,2.1-6.6,3.4C42,68.7,37.9,71.8,34,75c-4,3.2-7.8,6.6-11.6,9.9l-5.7,5.1l-2.8,2.6c-0.9,0.9-2,1.6-3.7,1.7L9.8,94z"
				/>
		</g>
		<g>
			<g>
				<path d="M89.9,101.3c1.5-2.7,3.6-4.9,5.8-7c2.2-2.1,4.6-3.9,7.1-5.5c1.3-0.8,2.5-1.6,3.9-2.3c1.3-0.7,2.6-1.4,4-2.1
					c0.7-0.3,1.4-0.6,2.2-0.9c0.8-0.3,1.6-0.5,2.6-0.5c0.5,0,1.1,0.1,1.6,0.4c0.5,0.3,1,0.7,1.4,1.1c0.3,0.4,0.6,0.9,0.8,1.3
					c0.1,0.2,0.2,0.5,0.3,0.8c0.1,0.3,0.1,0.6,0.1,0.8c0.1,1.1-0.1,2.1-0.3,2.9c-0.2,0.9-0.6,1.7-0.9,2.4c-0.7,1.5-1.6,2.9-2.6,4.1
					c-1,1.2-2.1,2.3-3.3,3.4c-1.1,1.1-2.5,2.1-3.8,3c-2.5,1.7-5.1,3.2-7.6,4.8l-3.9,2.3c-1.3,0.8-2.6,1.5-4,2.1
					c-1.4,0.6-2.8,1.2-4.2,1.8c-1.4,0.7-2.7,1.4-4.1,2c-0.7,0.3-1.4,0.6-2.2,0.8c-0.4,0.1-0.8,0.2-1.2,0.3c-0.4,0.1-0.9,0.1-1.5,0.1
					c-0.3-0.1-0.7-0.1-1-0.4c-0.1,0-0.2-0.2-0.3-0.4c-0.1-0.2-0.2-0.4-0.2-0.5c-0.1-0.3,0-0.6,0-0.8c0.2-0.7,0.6-1,0.9-1.4
					c0.6-0.7,1.4-1.2,2.2-1.5c0.9-0.3,1.9-0.5,3-0.2c0.5,0.2,1.1,0.4,1.6,0.8c0.5,0.4,0.9,1,1.1,1.5c0.5,1,0.5,1.9,0.6,2.3
					c0.1,0.2,0.1,0.3,0.1,0.3c0,0-0.1,0,0,0.1c0.1,0.1,0.2,0.1,0.5,0.2c0.2,0.1,0.4,0.1,0.7,0.1c0.6,0,1.2-0.1,1.9-0.2
					c1.3-0.2,2.7-0.6,4.1-1c2.8-0.8,5.5-1.8,8.3-2.9c1.4-0.5,2.7-1.1,4.1-1.7c1.3-0.6,2.6-1.3,3.9-1.9c2.6-1.4,5.2-2.8,7.8-4.3
					c1.3-0.8,2.5-1.6,3.8-2.4c0.6-0.4,1.3-0.8,1.9-1.1l1-0.5c0.3-0.2,0.7-0.3,1.4,0.1l0.2,0.3c0.1,0.8-0.2,1.1-0.5,1.3l-0.9,0.6
					c-0.6,0.4-1.2,0.8-1.9,1.2l-3.9,2.2c-2.5,1.6-5,3.2-7.6,4.7c-1.3,0.8-2.6,1.5-3.9,2.2c-1.3,0.7-2.7,1.4-4,2
					c-2.7,1.3-5.5,2.5-8.3,3.6c-1.4,0.5-2.9,1-4.5,1.4c-0.8,0.2-1.6,0.3-2.5,0.4c-0.4,0-1,0-1.5-0.1c-0.5-0.1-1-0.2-1.6-0.5
					c-0.6-0.3-1.2-0.8-1.6-1.4c-0.4-0.6-0.6-1.3-0.6-1.8c-0.1-1,0-1.7,0.1-2.1c0-0.2,0.1-0.3,0.1-0.4c0-0.1-0.1-0.3-0.3-0.4
					c-0.3-0.2-0.8-0.2-1.4,0c-0.5,0.2-1.1,0.5-1.5,0.9c-0.2,0.2-0.4,0.4-0.4,0.4c0,0,0-0.1,0-0.2c0-0.1,0-0.2-0.1-0.2
					c0-0.1-0.1-0.2-0.1-0.2c-0.1-0.1-0.1,0,0,0c0.3,0.1,1.1-0.1,1.7-0.3c0.7-0.2,1.3-0.5,1.9-0.8c1.3-0.6,2.6-1.4,3.7-2.2
					c1.2-0.8,2.3-1.9,3.4-2.9c1.1-1,2.3-1.9,3.5-2.8l3.5-2.7l7.1-5.3c1.2-0.9,2.2-1.6,3.2-2.6c1-0.9,2-1.9,3-2.9c1-1,2-1.9,2.9-2.9
					c0.9-0.9,1.7-2,1.9-2.8c0-0.1,0-0.2,0.1-0.3c0-0.1,0-0.1,0-0.3c-0.1-0.3-0.1-0.5-0.2-0.7c-0.2-0.3-0.3-0.5-0.8-0.5
					c-0.5-0.1-1.1,0-1.8,0.2c-0.7,0.2-1.3,0.4-2,0.6c-1.4,0.5-2.7,1.1-4.1,1.7c-1.3,0.6-2.6,1.2-3.9,2c-2.5,1.5-5,3.1-7.2,5.1
					c-2.2,1.9-4.2,4.1-5.6,6.7L89.9,101.3z"/>
			</g>
			<g>
				<path d="M46.8,123.5c1.3-1.9,3.3-2.6,5.1-3.6l5.5-2.8c3.6-1.9,7.3-3.8,10.8-5.8l5.4-3c1.8-1,3.5-2,5.2-3.1
					c3.4-2.3,6.8-4.6,10.3-6.8c6.8-4.5,13.7-9.1,20.3-13.9c1.6-1.2,3.3-2.4,4.8-3.7c1.5-1.3,3-2.7,4.5-4.1c2.9-2.8,5.7-5.8,8.2-8.9
					c1.3-1.6,2.5-3.2,3.5-4.8c0.5-0.8,0.9-1.7,1-2.3c0-0.1,0-0.2,0-0.1c0,0,0,0.1,0.1,0.3c0.1,0.1,0.1,0.1,0.2,0.2
					c0.3,0.1,0,0-0.3,0.2c-0.7,0.2-1.5,0.7-2.3,1.2c-0.8,0.5-1.6,1.1-2.4,1.7c-1.6,1.2-3.1,2.5-4.6,3.8c-3,2.7-5.8,5.6-8.5,8.6
					c-1.2,1.5-2.5,3.1-3.7,4.7c-1.2,1.6-2.5,3.2-3.7,4.9c-5,6.5-9.6,13.3-14.7,19.7c-2.5,3.2-5.1,6.5-7.9,9.5
					c-1.4,1.5-2.8,3-4.3,4.5l-2.2,2.2c-0.3,0.4-0.9,0.6-1.4,0.9c-0.6,0.2-1.1,0.5-1.9,0.5l-0.4-0.3c-0.2-0.8-0.1-1.4-0.1-2
					c0.1-0.6,0.2-1.2,0.4-1.6l1.6-2.7c1-1.8,2.1-3.6,3.2-5.3c2.2-3.5,4.7-6.8,7.2-10c2.5-3.3,5.1-6.5,7.8-9.6l8-9.4
					c2.7-3.1,5.4-6.2,8.4-9.3c3-3,6.2-5.7,9.5-8.3c1.7-1.3,3.4-2.5,5.1-3.7c0.9-0.6,1.8-1.1,2.8-1.6c1-0.5,2-1,3.3-1.3
					c0.3-0.1,0.7-0.1,1.1-0.1c0.4,0,1,0.1,1.5,0.4c0.3,0.2,0.5,0.4,0.8,0.7c0.2,0.3,0.4,0.7,0.4,1c0.1,0.6,0,1-0.1,1.4
					c-0.4,1.4-1,2.3-1.5,3.2c-1.2,1.8-2.5,3.5-3.8,5.1c-2.7,3.2-5.5,6.2-8.5,9.1c-1.5,1.4-3,2.9-4.6,4.2c-1.6,1.4-3.3,2.6-4.9,3.8
					c-6.7,4.9-13.5,9.5-20.3,14.1c-3.4,2.3-6.8,4.6-10.2,6.9c-3.5,2.4-7.1,4.3-10.8,6.3c-3.6,1.9-7.3,3.8-10.9,5.7l-5.5,2.8
					c-1.8,0.9-3.6,2.1-5.9,2L46.8,123.5z"/>
			</g>
		</g>
	</g>
</g>
</svg>
