<?xml version="1.0" encoding="utf-8"?>
<!-- Generator: Adobe Illustrator 22.1.0, SVG Export Plug-In . SVG Version: 6.00 Build 0)  -->
<svg version="1.1" xmlns="http://www.w3.org/2000/svg" xmlns:xlink="http://www.w3.org/1999/xlink" x="0px" y="0px"
	 viewBox="0 0 146.6 180" style="enable-background:new 0 0 146.6 180;" xml:space="preserve">
<style type="text/css">
	.st0{display:none;}
	.st1{display:inline;fill:#FF0000;}
</style>
<g id="bg" class="st0">
	<polygon class="st1" points="140.5,0 138.8,0 138.3,0 134.3,0 132.6,0 132.2,0 130.9,0 130.5,0 130.1,0 126.6,0 126.5,0 126.1,0 
		124.8,0 124.4,0 124,0 123.2,0 122.7,0 122.3,0 120.5,0 118.8,0 118.7,0 118.3,0 118.3,0 117.8,0 117.1,0 116.6,0 116.1,0 115.4,0 
		114.9,0 114.4,0 114.3,0 112.6,0 112.2,0 110.9,0 110.9,0 110.5,0 110.4,0 110.1,0 110,0 109.2,0 108.8,0 108.3,0 107.5,0 107.1,0 
		106.7,0 106.5,0 106.1,0 104.8,0 104.4,0 104,0 103.2,0 103.1,0 102.7,0 102.7,0 102.3,0 102.2,0 101.4,0 101,0 100.6,0 99.3,0 
		98.9,0 98.7,0 98.3,0 97.8,0 97.1,0 96.6,0 96.1,0 95.4,0 95.3,0 94.9,0 94.9,0 94.4,0 94.4,0 93.2,0 92.7,0 91,0 90.9,0 90.4,0 
		90,0 89.2,0 88.8,0 88.3,0 87.8,0 87.5,0 87.1,0 87,0 86.7,0 86.6,0 84.9,0 83.1,0 82.7,0 82.2,0 81.7,0 81.4,0 81,0 80.6,0 80,0 
		79.6,0 79.3,0 78.9,0 78.8,0 75.6,0 75.3,0 74.9,0 74.4,0 73.9,0 73.4,0 73.2,0 72.7,0 72.2,0 71.7,0 71.3,0 71,0 67.8,0 67.7,0 
		67.3,0 67,0 66.6,0 66,0 65.6,0 65.2,0 64.9,0 64.4,0 63.9,0 63.5,0 61.7,0 60,0 59.9,0 59.6,0 59.5,0 59.1,0 58.8,0 58.3,0 
		57.8,0 57.4,0 56.6,0 56.2,0 55.7,0 55.6,0 53.9,0 53.4,0 52.2,0 52.1,0 51.7,0 51.6,0 51.3,0 51.2,0 50.4,0 50,0 49.5,0 48.7,0 
		48.3,0 47.9,0 47.7,0 47.3,0 46,0 45.6,0 45.2,0 44.4,0 44.3,0 43.9,0 43.9,0 43.5,0 43.4,0 42.6,0 42.2,0 41.8,0 40.5,0 40.1,0 
		39.9,0 39.5,0 39.1,0 38.3,0 37.8,0 37.4,0 36.6,0 36.5,0 36.2,0 36.1,0 35.7,0 35.7,0 34.4,0 34,0 32.3,0 32.1,0 31.6,0 31.2,0 
		30.4,0 30,0 29.5,0 28.7,0 28.3,0 28.2,0 27.9,0 27.8,0 26.1,0 24.3,0 23.9,0 23.4,0 22.6,0 22.2,0 21.8,0 20.5,0 20.1,0 20,0 
		16.5,0 16.1,0 15.7,0 14.4,0 14,0 12.3,0 8.2,0 7.8,0 6.1,0 0,0 0,180 6.1,180 7.8,180 8.2,180 12.3,180 14,180 14.4,180 15.7,180 
		16.1,180 16.5,180 20,180 20.1,180 20.5,180 21.8,180 22.2,180 22.6,180 23.4,180 23.9,180 24.3,180 26.1,180 27.8,180 27.9,180 
		28.2,180 28.3,180 28.7,180 29.5,180 30,180 30.4,180 31.2,180 31.6,180 32.1,180 32.3,180 34,180 34.4,180 35.7,180 35.7,180 
		36.1,180 36.2,180 36.5,180 36.6,180 37.4,180 37.8,180 38.3,180 39.1,180 39.5,180 39.9,180 40.1,180 40.5,180 41.8,180 42.2,180 
		42.6,180 43.4,180 43.5,180 43.9,180 43.9,180 44.3,180 44.4,180 45.2,180 45.6,180 46,180 47.3,180 47.7,180 47.9,180 48.3,180 
		48.7,180 49.5,180 50,180 50.4,180 51.2,180 51.3,180 51.6,180 51.7,180 52.1,180 52.2,180 53.4,180 53.9,180 55.6,180 55.7,180 
		56.2,180 56.6,180 57.4,180 57.8,180 58.3,180 58.8,180 59.1,180 59.5,180 59.6,180 59.9,180 60,180 61.7,180 63.5,180 63.9,180 
		64.4,180 64.9,180 65.2,180 65.6,180 66,180 66.6,180 67,180 67.3,180 67.7,180 67.8,180 71,180 71.3,180 71.7,180 72.2,180 
		72.7,180 73.2,180 73.4,180 73.9,180 74.4,180 74.9,180 75.3,180 75.6,180 78.8,180 78.9,180 79.3,180 79.6,180 80,180 80.6,180 
		81,180 81.4,180 81.7,180 82.2,180 82.7,180 83.1,180 84.9,180 86.6,180 86.7,180 87,180 87.1,180 87.5,180 87.8,180 88.3,180 
		88.8,180 89.2,180 90,180 90.4,180 90.9,180 91,180 92.7,180 93.2,180 94.4,180 94.4,180 94.9,180 94.9,180 95.3,180 95.4,180 
		96.1,180 96.6,180 97.1,180 97.8,180 98.3,180 98.7,180 98.9,180 99.3,180 100.6,180 101,180 101.4,180 102.2,180 102.3,180 
		102.7,180 102.7,180 103.1,180 103.2,180 104,180 104.4,180 104.8,180 106.1,180 106.5,180 106.7,180 107.1,180 107.5,180 
		108.3,180 108.8,180 109.2,180 110,180 110.1,180 110.4,180 110.5,180 110.9,180 110.9,180 112.2,180 112.6,180 114.3,180 
		114.4,180 114.9,180 115.4,180 116.1,180 116.6,180 117.1,180 117.8,180 118.3,180 118.3,180 118.7,180 118.8,180 120.5,180 
		122.3,180 122.7,180 123.2,180 124,180 124.4,180 124.8,180 126.1,180 126.5,180 126.6,180 130.1,180 130.5,180 130.9,180 
		132.2,180 132.6,180 134.3,180 138.3,180 138.8,180 140.5,180 146.6,180 146.6,0 	"/>
</g>
<g id="figure">
	<g>
		<g>
			<path d="M123.4,108.2c-0.2,0.4-0.5,0.5-0.8,0.6l-0.9,0.2l-1.7,0.3l-3.5,0.6c-2.3,0.4-4.6,0.9-6.8,1.6c-1.1,0.3-2.2,0.7-3.3,1.1
				c-1.1,0.4-2.1,0.8-3.2,1.3c-2.1,1-4.1,2.1-6.1,3.3c-2,1.2-4,2.4-5.8,3.8c-1.9,1.4-3.8,2.6-5.5,4c-1.6,1.5-3.2,3.3-4.8,5
				c-0.8,0.8-1.7,1.6-2.6,2.4c-0.4,0.4-0.9,0.7-1.4,1.1c-0.4,0.4-0.9,0.7-2.6-0.2l-0.7-0.7c-0.9-1.7-0.5-2.2-0.1-2.6
				c0.4-0.4,0.8-0.9,1.2-1.3c0.8-0.9,1.7-1.7,2.6-2.4c1.8-1.5,3.7-2.9,5.7-4.4c4-3.1,8.3-5,12.6-7.2c2.2-1,4.3-2,6.6-2.9
				c1.1-0.4,2.3-0.8,3.4-1.2c1.2-0.3,2.3-0.6,3.5-0.8l7-1.4c1.2-0.2,2.3-0.4,3.5-0.6c0.6-0.1,1.2-0.2,1.8-0.2l0.9-0.1
				c0.3,0,0.6,0,0.9,0.3L123.4,108.2z"/>
		</g>
		<g>
			<path d="M21.8,121.3c0.5-1.4,1.7-1.4,2.6-1.9c0.9-0.4,1.9-0.8,2.8-1.3c1.9-0.9,3.7-1.8,5.5-2.8c3.6-2,7.1-4.1,10.5-6.5
				c3.4-2.3,6.6-4.9,9.7-7.6c3-2.8,5.9-5.8,8.8-8.8l17.5-17.9l8.8-9l4.4-4.5c1.4-1.5,3-2.9,4.9-4l0,0H98L98,57.8
				c-0.4,3.3-2.6,5.2-4.3,7.5c-1.7,2.2-3.5,4.5-5.3,6.7c-3.5,4.4-7.1,8.8-10.7,13.2c-7.2,8.7-14.4,17.5-21.4,26.4
				c-3.5,4.4-7,8.9-10.5,13.4l-10.3,13.5c-3.4,4.5-6.9,8.9-10.5,13.4l-2.7,3.4c-1,1.2-2,2.4-3.1,3.4c-1.1,1.1-2.5,1.9-3.9,2.5
				c-0.7,0.3-1.5,0.6-2.3,0.7c-0.8,0.1-1.8,0.1-2.9-0.4l-0.2-0.5c0.2-1.1,0.4-1.9,0.8-2.6c0.3-0.7,0.7-1.2,1.1-1.8
				c0.7-1.2,1.5-2.2,2.4-3.1c0.9-0.9,1.8-1.9,2.6-2.9l2.7-3.2c3.6-4.4,7.3-8.7,11-13l22.2-25.8c7.4-8.6,14.6-17.4,21.7-26.2
				c3.6-4.4,7.2-8.8,10.9-13.1c1.8-2.2,3.7-4.3,5.5-6.5c1.9-2.1,3.3-4.6,6.5-5.7l0.7,0.7l0,0c-1,1.9-2.3,3.5-3.8,5l-4.3,4.5
				l-8.6,9.1c-5.8,6.1-11.6,12-17.4,18c-2.9,3-5.8,6-8.9,8.9c-3.2,2.8-6.5,5.5-10,7.9c-3.5,2.4-7.1,4.6-10.9,6.5
				c-1.9,1-3.8,1.9-5.7,2.8c-1,0.4-1.9,0.9-2.9,1.3c-0.5,0.2-1,0.4-1.5,0.6c-0.5,0.2-1.1,0.2-1.8-0.2L21.8,121.3z"/>
		</g>
		<g>
			<path d="M43.2,122.3c0.3-0.5,0.5-0.8,0.7-1c0.2-0.3,0.4-0.4,0.5-0.5c0.3-0.2,0.5-0.1,0.8-0.1c0.5,0.1,1,0.1,1.6,0.1
				c0.5,0,1.1,0,1.6,0c0.5,0,1.1-0.1,1.7-0.1c0.6,0,1.1-0.1,1.7-0.2c0.6-0.1,1.1-0.1,1.7-0.2l1.7-0.3l1.7-0.4
				c4.6-1,9.2-2.5,13.6-4.6c1.1-0.5,2.2-1.1,3.3-1.6c1.1-0.6,2.2-1.1,3.2-1.7c2.1-1.2,4.1-2.6,6.1-4c3.9-2.8,7.8-5.9,11.4-9.1
				c7.4-6.4,14.4-13.3,21.2-20.3c3.4-3.5,6.8-7,10.2-10.6c3.4-3.5,6.5-7.4,10.4-10.5l0,0l0.8,0.6c-0.4,3.3-2.6,5.2-4.3,7.5
				c-1.7,2.2-3.5,4.5-5.3,6.7c-3.5,4.4-7.1,8.8-10.7,13.2c-7.2,8.7-14.4,17.5-21.4,26.4c-3.5,4.5-7,8.9-10.5,13.4l-10.3,13.5
				c-3.4,4.5-6.9,8.9-10.5,13.4l-2.7,3.4c-1,1.2-2,2.4-3.1,3.4c-1.1,1.1-2.5,1.9-3.9,2.5c-0.7,0.3-1.5,0.6-2.3,0.7
				c-0.8,0.1-1.8,0.1-2.9-0.4l-0.2-0.5c0.2-1.1,0.4-1.9,0.8-2.6c0.3-0.7,0.7-1.2,1.1-1.8c0.7-1.2,1.5-2.2,2.4-3.1
				c0.9-0.9,1.8-1.9,2.6-2.9l2.7-3.2c3.6-4.4,7.3-8.7,11-13l22.2-25.8c7.4-8.6,14.6-17.4,21.7-26.2c3.6-4.4,7.2-8.8,10.9-13.1
				c1.8-2.2,3.7-4.3,5.5-6.5c1.9-2.1,3.3-4.6,6.5-5.7l0.8,0.6l0,0c-2.5,4.4-6,7.9-9.2,11.6c-3.3,3.7-6.6,7.3-10.1,10.9
				c-6.9,7.1-13.9,14-21.4,20.5c-3.7,3.2-7.5,6.4-11.6,9.4c-2,1.5-4.1,2.9-6.2,4.2c-2.2,1.3-4.3,2.6-6.5,3.8
				c-4.4,2.4-8.9,4.7-13.8,6.3c-2.4,0.8-5,1.3-7.7,1.6c-0.7,0.1-1.3,0.1-2,0.1c-0.7,0-1.4,0-2.1-0.1c-0.7,0-1.4-0.1-2.1-0.3
				c-0.7-0.1-1.6-0.3-1.6-2.5L43.2,122.3z"/>
		</g>
	</g>
</g>
</svg>
