<?xml version="1.0" encoding="utf-8"?>
<!-- Generator: Adobe Illustrator 22.1.0, SVG Export Plug-In . SVG Version: 6.00 Build 0)  -->
<svg version="1.1" xmlns="http://www.w3.org/2000/svg" xmlns:xlink="http://www.w3.org/1999/xlink" x="0px" y="0px"
	 viewBox="0 0 148.6 180" style="enable-background:new 0 0 148.6 180;" xml:space="preserve">
<style type="text/css">
	.st0{display:none;}
	.st1{display:inline;fill:#FF0000;}
</style>
<g id="bg" class="st0">
	<polygon class="st1" points="143.3,0 141.8,0 141.4,0 137.9,0 136.4,0 136,0 134.9,0 134.5,0 134.2,0 131.1,0 131,0 130.6,0 
		129.5,0 129.2,0 128.8,0 128.6,0 128.1,0 127.7,0 127.3,0 125.7,0 124.2,0 124.1,0 123.8,0 123.8,0 123.4,0 123.3,0 122.7,0 
		122.3,0 121.9,0 121.8,0 121.4,0 121.2,0 120.9,0 120.4,0 120.3,0 118.8,0 118.5,0 117.9,0 117.3,0 117.3,0 117,0 116.9,0 116.6,0 
		116.5,0 116.4,0 116,0 115.9,0 115.5,0 115,0 114.9,0 114.5,0 114.4,0 114.2,0 114,0 113.6,0 113.5,0 113.1,0 112,0 111.6,0 
		111.2,0 111.1,0 111,0 110.6,0 110.5,0 110.5,0 110.1,0 110.1,0 109.7,0 109.7,0 109.5,0 109.2,0 109,0 108.8,0 108.6,0 108.2,0 
		108.1,0 107.7,0 107.3,0 107.1,0 106.8,0 106.6,0 106.2,0 105.9,0 105.7,0 105.2,0 104.7,0 104.4,0 104.2,0 104.1,0 103.8,0 
		103.8,0 103.7,0 103.6,0 103.4,0 103.3,0 103.2,0 102.9,0 102.9,0 102.7,0 102.3,0 101.9,0 101.7,0 101.4,0 101.2,0 100.9,0 
		100.4,0 100.3,0 99.9,0 99.8,0 99.4,0 99,0 98.8,0 98.5,0 98.3,0 97.9,0 97.5,0 97.3,0 97.3,0 97.1,0 97,0 96.9,0 96.8,0 96.6,0 
		96.5,0 96.4,0 96.4,0 96.1,0 96,0 95.9,0 95.5,0 95,0 94.5,0 94.4,0 94,0 93.6,0 93.5,0 93.1,0 92.9,0 92.6,0 92.1,0 92,0 91.7,0 
		91.6,0 91.4,0 91.2,0 91.1,0 90.7,0 90.5,0 90.5,0 90.2,0 90.1,0 90.1,0 89.8,0 89.7,0 89.7,0 89.6,0 89.2,0 89.1,0 89,0 88.6,0 
		88.2,0 87.1,0 86.8,0 86.6,0 86.3,0 86.2,0 86.1,0 85.9,0 85.7,0 85.3,0 85.2,0 84.8,0 84.7,0 84.4,0 84.4,0 84.2,0 83.8,0 83.7,0 
		83.6,0 83.3,0 83.3,0 83.2,0 82.9,0 82.9,0 82.9,0 82.6,0 82.3,0 81.7,0 81.4,0 79.9,0 79.8,0 79.5,0 79.4,0 79.4,0 79.1,0 79,0 
		78.8,0 78.5,0 78.3,0 77.9,0 77.9,0 77.6,0 77.5,0 77.2,0 77.1,0 77,0 76.8,0 76.5,0 76.4,0 76.4,0 76.1,0 76.1,0 76,0 75.7,0 
		74.5,0 74.1,0 72.9,0 72.6,0 72.6,0 72.6,0 72.3,0 72.2,0 72.1,0 71.8,0 71.7,0 71.6,0 71.4,0 71.1,0 71.1,0 70.7,0 70.7,0 70.3,0 
		70.2,0 69.8,0 69.6,0 69.6,0 69.3,0 69.2,0 69.1,0 68.8,0 68.7,0 67.3,0 66.9,0 66.3,0 66.1,0 65.8,0 65.8,0 65.7,0 65.4,0 65.3,0 
		65.3,0 65,0 65,0 64.8,0 64.4,0 64.3,0 64.2,0 63.9,0 63.8,0 63.5,0 63.3,0 62.9,0 62.8,0 62.6,0 62.4,0 62.3,0 62,0 61.9,0 
		61.5,0 60.4,0 60,0 59.7,0 59.5,0 59.4,0 59.1,0 59,0 58.9,0 58.8,0 58.5,0 58.5,0 58.5,0 58.2,0 58.1,0 57.9,0 57.6,0 57.4,0 
		57.2,0 57,0 57,0 56.7,0 56.5,0 56.1,0 55.7,0 55.5,0 55.2,0 55,0 54.6,0 54.3,0 54.1,0 53.6,0 53.2,0 52.8,0 52.6,0 52.6,0 
		52.3,0 52.2,0 52.1,0 52,0 51.8,0 51.7,0 51.7,0 51.6,0 51.3,0 51.3,0 51.1,0 50.7,0 50.3,0 50.2,0 49.8,0 49.6,0 49.3,0 48.8,0 
		48.7,0 48.3,0 48.2,0 47.8,0 47.4,0 47.3,0 46.9,0 46.7,0 46.4,0 45.9,0 45.8,0 45.8,0 45.4,0 45.3,0 45.2,0 45,0 45,0 44.9,0 
		44.8,0 44.5,0 44.4,0 44.3,0 43.9,0 43.5,0 42.9,0 42.8,0 42.4,0 42,0 41.9,0 41.5,0 41.3,0 41,0 40.5,0 40.4,0 40,0 39.9,0 
		39.7,0 39.5,0 39.1,0 39,0 38.9,0 38.5,0 38.5,0 38.2,0 38.1,0 38,0 37.6,0 37.6,0 37.4,0 37,0 36.7,0 35.5,0 35.2,0 35,0 34.6,0 
		34.5,0 34.3,0 34.1,0 33.7,0 33.6,0 33.2,0 32.8,0 32.6,0 32.2,0 32.1,0 32,0 31.7,0 31.7,0 31.3,0 31.3,0 30.8,0 30.2,0 29.8,0 
		28.3,0 28.2,0 27.8,0 27.4,0 27.2,0 26.9,0 26.7,0 26.4,0 25.9,0 25.4,0 25.2,0 24.9,0 24.8,0 24.5,0 24.4,0 22.9,0 21.3,0 21,0 
		20.5,0 20,0 19.9,0 19.5,0 19.1,0 18,0 17.6,0 17.6,0 14.5,0 14.1,0 13.7,0 12.6,0 12.2,0 10.8,0 7.2,0 6.9,0 5.4,0 0,0 0,180 
		5.4,180 6.9,180 7.2,180 10.8,180 12.2,180 12.6,180 13.7,180 14.1,180 14.5,180 17.6,180 17.6,180 18,180 19.1,180 19.5,180 
		19.9,180 20,180 20.5,180 21,180 21.3,180 22.9,180 24.4,180 24.5,180 24.8,180 24.9,180 25.2,180 25.4,180 25.9,180 26.4,180 
		26.7,180 26.9,180 27.2,180 27.4,180 27.8,180 28.2,180 28.3,180 29.8,180 30.2,180 30.8,180 31.3,180 31.3,180 31.7,180 31.7,180 
		32,180 32.1,180 32.2,180 32.6,180 32.8,180 33.2,180 33.6,180 33.7,180 34.1,180 34.3,180 34.5,180 34.6,180 35,180 35.2,180 
		35.5,180 36.7,180 37,180 37.4,180 37.6,180 37.6,180 38,180 38.1,180 38.2,180 38.5,180 38.5,180 38.9,180 39,180 39.1,180 
		39.5,180 39.7,180 39.9,180 40,180 40.4,180 40.5,180 41,180 41.3,180 41.5,180 41.9,180 42,180 42.4,180 42.8,180 42.9,180 
		43.5,180 43.9,180 44.3,180 44.4,180 44.5,180 44.8,180 44.9,180 45,180 45,180 45.2,180 45.3,180 45.4,180 45.8,180 45.8,180 
		45.9,180 46.4,180 46.7,180 46.9,180 47.3,180 47.4,180 47.8,180 48.2,180 48.3,180 48.7,180 48.8,180 49.3,180 49.6,180 49.8,180 
		50.2,180 50.3,180 50.7,180 51.1,180 51.3,180 51.3,180 51.6,180 51.7,180 51.7,180 51.8,180 52,180 52.1,180 52.2,180 52.3,180 
		52.6,180 52.6,180 52.8,180 53.2,180 53.6,180 54.1,180 54.3,180 54.6,180 55,180 55.2,180 55.5,180 55.7,180 56.1,180 56.5,180 
		56.7,180 57,180 57,180 57.2,180 57.4,180 57.6,180 57.9,180 58.1,180 58.2,180 58.5,180 58.5,180 58.5,180 58.8,180 58.9,180 
		59,180 59.1,180 59.4,180 59.5,180 59.7,180 60,180 60.4,180 61.5,180 61.9,180 62,180 62.3,180 62.4,180 62.6,180 62.8,180 
		62.9,180 63.3,180 63.5,180 63.8,180 63.9,180 64.2,180 64.3,180 64.4,180 64.8,180 65,180 65,180 65.3,180 65.3,180 65.4,180 
		65.7,180 65.8,180 65.8,180 66.1,180 66.3,180 66.9,180 67.3,180 68.7,180 68.8,180 69.1,180 69.2,180 69.3,180 69.6,180 69.6,180 
		69.8,180 70.2,180 70.3,180 70.7,180 70.7,180 71.1,180 71.1,180 71.4,180 71.6,180 71.7,180 71.8,180 72.1,180 72.2,180 72.3,180 
		72.6,180 72.6,180 72.6,180 72.9,180 74.1,180 74.5,180 75.7,180 76,180 76.1,180 76.1,180 76.4,180 76.4,180 76.5,180 76.8,180 
		77,180 77.1,180 77.2,180 77.5,180 77.6,180 77.9,180 77.9,180 78.3,180 78.5,180 78.8,180 79,180 79.1,180 79.4,180 79.4,180 
		79.5,180 79.8,180 79.9,180 81.4,180 81.7,180 82.3,180 82.6,180 82.9,180 82.9,180 82.9,180 83.2,180 83.3,180 83.3,180 83.6,180 
		83.7,180 83.8,180 84.2,180 84.4,180 84.4,180 84.7,180 84.8,180 85.2,180 85.3,180 85.7,180 85.9,180 86.1,180 86.2,180 86.3,180 
		86.6,180 86.8,180 87.1,180 88.2,180 88.6,180 89,180 89.1,180 89.2,180 89.6,180 89.7,180 89.7,180 89.8,180 90.1,180 90.1,180 
		90.2,180 90.5,180 90.5,180 90.7,180 91.1,180 91.2,180 91.4,180 91.6,180 91.7,180 92,180 92.1,180 92.6,180 92.9,180 93.1,180 
		93.5,180 93.6,180 94,180 94.4,180 94.5,180 95,180 95.5,180 95.9,180 96,180 96.1,180 96.4,180 96.4,180 96.5,180 96.6,180 
		96.8,180 96.9,180 97,180 97.1,180 97.3,180 97.3,180 97.5,180 97.9,180 98.3,180 98.5,180 98.8,180 99,180 99.4,180 99.8,180 
		99.9,180 100.3,180 100.4,180 100.9,180 101.2,180 101.4,180 101.7,180 101.9,180 102.3,180 102.7,180 102.9,180 102.9,180 
		103.2,180 103.3,180 103.4,180 103.6,180 103.7,180 103.8,180 103.8,180 104.1,180 104.2,180 104.4,180 104.7,180 105.2,180 
		105.7,180 105.9,180 106.2,180 106.6,180 106.8,180 107.1,180 107.3,180 107.7,180 108.1,180 108.2,180 108.6,180 108.8,180 
		109,180 109.2,180 109.5,180 109.7,180 109.7,180 110.1,180 110.1,180 110.5,180 110.5,180 110.6,180 111,180 111.1,180 111.2,180 
		111.6,180 112,180 113.1,180 113.5,180 113.6,180 114,180 114.2,180 114.4,180 114.5,180 114.9,180 115,180 115.5,180 115.9,180 
		116,180 116.4,180 116.5,180 116.6,180 116.9,180 117,180 117.3,180 117.3,180 117.9,180 118.5,180 118.8,180 120.3,180 120.4,180 
		120.9,180 121.2,180 121.4,180 121.8,180 121.9,180 122.3,180 122.7,180 123.3,180 123.4,180 123.8,180 123.8,180 124.1,180 
		124.2,180 125.7,180 127.3,180 127.7,180 128.1,180 128.6,180 128.8,180 129.2,180 129.5,180 130.6,180 131,180 131.1,180 
		134.2,180 134.5,180 134.9,180 136,180 136.4,180 137.9,180 141.4,180 141.8,180 143.3,180 148.6,180 148.6,0 	"/>
</g>
<g id="figure">
	<g>
		<g>
			<path d="M21.8,121.3c0.5-1.4,1.6-1.5,2.5-2.1l2.8-1.4c1.8-1,3.6-2,5.4-3c3.6-2.1,7.1-4.2,10.5-6.6c3.4-2.3,6.7-4.8,9.9-7.4
				c3.1-2.6,6-5.5,9-8.5l17.5-17.8l8.7-8.9l4.4-4.5c1.4-1.5,2.9-3,4.9-4l0.9-0.5L98,57.8c-0.4,3.3-2.6,5.2-4.3,7.5
				c-1.7,2.2-3.5,4.5-5.3,6.7c-3.5,4.4-7.1,8.8-10.7,13.2c-7.2,8.7-14.4,17.5-21.4,26.4c-7,8.9-13.9,17.9-20.9,26.9
				c-3.5,4.5-7,9-10.5,13.4l-2.6,3.3c-1,1.2-2,2.4-3.1,3.4c-1.1,1.1-2.5,1.9-3.9,2.5c-0.7,0.3-1.5,0.6-2.3,0.7
				c-0.8,0.1-1.8,0.1-2.9-0.4l-0.2-0.5c0.2-1.1,0.4-1.9,0.8-2.6c0.3-0.7,0.7-1.2,1.1-1.8c0.7-1.2,1.5-2.2,2.4-3.1
				c0.9-0.9,1.8-1.9,2.6-2.9l2.7-3.3c3.6-4.4,7.3-8.7,11-13c7.4-8.6,14.9-17.1,22.2-25.8c7.4-8.6,14.5-17.4,21.7-26.2
				c3.6-4.4,7.2-8.8,10.9-13.1c1.8-2.2,3.7-4.3,5.5-6.5c1.9-2.1,3.3-4.6,6.5-5.7l0.7,0.7c-0.9,2-2.3,3.5-3.8,5.1l-4.3,4.5l-8.6,9.1
				c-5.7,6-11.5,12-17.4,18c-2.9,3-5.9,6-9.2,8.7c-3.3,2.7-6.7,5.2-10.2,7.5c-3.5,2.3-7.1,4.5-10.8,6.6c-1.8,1-3.7,2-5.6,3l-2.8,1.4
				c-1,0.4-1.8,1.2-3.2,0.6L21.8,121.3z"/>
		</g>
		<g>
			<path d="M49.4,114.9c2.1-2.2,4.3-2.9,6.6-3.5c2.2-0.6,4.6-0.8,6.8-1.2c2.3-0.4,4.5-0.9,6.7-1.6c1.1-0.3,2.2-0.6,3.2-1.1
				c0.5-0.2,1-0.4,1.5-0.6l0.7-0.3l0.8-0.4c4.3-2.1,8.6-4.1,13-6.1c2.2-1,4.4-2,6.6-2.9c1.1-0.5,2.3-1,3.5-1.4
				c0.6-0.2,1.3-0.4,2.1-0.5c0.8-0.1,1.7,0,2.6,0.3c0.9,0.3,1.7,0.9,2.4,1.7c0.6,0.8,1,1.6,1.2,2.5c0.4,1.7,0.2,3.3-0.2,4.7
				c-0.8,2.8-2.3,5.1-4,7.1c-0.9,1-1.7,1.9-2.5,2.8c-0.8,0.9-1.7,1.7-2.6,2.6c-1.8,1.7-3.8,3.2-6.1,4.6c-1.2,0.7-2.4,1.2-3.9,1.6
				c-0.8,0.2-1.6,0.3-2.6,0.2c-1-0.1-2.1-0.5-2.8-1.2c-0.8-0.7-1.2-1.6-1.4-2.3c-0.2-0.8-0.3-1.5-0.4-2.2c-0.1-1.7,0.4-2.9,0.8-4.1
				c0.9-2.4,2.1-4.5,3.4-6.5c1.3-2,2.6-4,4-6c2.8-3.9,5.6-7.7,8.6-11.4c3-3.7,6.1-7.3,9.2-10.8c1.5-1.8,3.1-3.5,4.6-5.3
				c1.5-1.9,3.2-3.7,4.9-5.4c3.5-3.4,7.3-6.4,11.7-8.8c1.1-0.6,2.3-1.1,3.5-1.6c1.2-0.5,2.6-0.8,4.3-0.7c0.4,0,0.9,0.1,1.3,0.2
				c0.5,0.1,0.9,0.3,1.3,0.5c0.8,0.4,1.6,1.1,2.1,2c0.6,0.9,0.8,1.8,1,2.7c0.1,0.9,0.1,1.7,0,2.5c-0.2,1.5-0.7,2.9-1.2,4.1
				c-0.5,1.2-1.2,2.4-1.8,3.5c-1.4,2.2-2.9,4.1-4.7,5.9c-1.9,1.9-3.8,3.4-5.8,4.8c-2,1.4-4,2.8-6.1,4c-2.1,1.2-4.1,2.4-6.3,3.6
				l-3.2,1.7l-1.6,0.8c-0.5,0.3-1.1,0.5-1.9,0.3l-0.5-0.8c0.2-0.8,0.6-1.2,1.1-1.6l1.4-1.1l2.8-2.2c1.8-1.5,3.7-2.9,5.5-4.5
				c1.8-1.5,3.6-3,5.2-4.6c1.7-1.5,3.3-3.1,4.6-4.8c0.7-0.8,1.4-1.8,2-2.6c0.7-0.9,1.3-1.8,1.9-2.7c1.3-1.7,2.4-3.6,3-5.2
				c0.3-0.8,0.4-1.4,0.4-1.7c0-0.2,0-0.4-0.3-0.6c-0.1-0.1-0.2-0.2-0.3-0.3c-0.1-0.1-0.2-0.1-0.4-0.2c-0.7-0.2-1.7-0.1-2.7,0.2
				c-1,0.3-2,0.7-3,1.2c-2,1-3.9,2.3-5.7,3.7c-1.8,1.4-3.6,2.9-5.2,4.5c-1.6,1.6-3.1,3.3-4.6,5.2c-1.5,1.9-3,3.7-4.6,5.5
				c-3.1,3.6-6.2,7.1-9.4,10.7c-3.1,3.5-6.3,7-9.2,10.7c-1.4,1.9-2.8,3.7-4,5.7c-0.6,1-1.2,2-1.7,3c-0.5,1-1,2.1-1.3,3.1
				c-0.3,1-0.4,2.1-0.2,2.8c0.2,0.9,0.8,1.8,1.2,1.8c0.2,0,0.2,0,0.5-0.1c0.2-0.1,0.5-0.2,0.9-0.4c0.7-0.4,1.6-0.9,2.4-1.6
				c1.7-1.2,3.4-2.8,5-4.3l2.5-2.4c0.8-0.8,1.7-1.7,2.4-2.4c1.4-1.5,2.7-3.3,3.3-4.9c0.4-0.8,0.6-1.6,0.6-2.3c0-0.7-0.1-1-0.4-1.3
				c-0.2-0.2-0.5-0.3-0.9-0.3c-0.4,0-0.9,0-1.4,0.1c-1.1,0.2-2.2,0.5-3.2,0.8c-2.2,0.8-4.3,1.8-6.4,2.9c-4.2,2.2-8.1,4.8-12.1,7.3
				l-0.7,0.5l-0.8,0.5c-0.6,0.3-1.1,0.6-1.7,0.9c-1.1,0.6-2.3,1-3.5,1.5c-2.3,0.9-4.7,1.5-7,2.2c-2.4,0.6-4.7,1.4-7.1,1.5
				c-2.4,0.2-4.9,0.2-7.5-1.6V114.9z"/>
		</g>
	</g>
</g>
</svg>
