<?xml version="1.0" encoding="utf-8"?>
<!-- Generator: Adobe Illustrator 22.1.0, SVG Export Plug-In . SVG Version: 6.00 Build 0)  -->
<svg version="1.1" xmlns="http://www.w3.org/2000/svg" xmlns:xlink="http://www.w3.org/1999/xlink" x="0px" y="0px"
	 viewBox="0 0 113.3 180" style="enable-background:new 0 0 113.3 180;" xml:space="preserve">
<style type="text/css">
	.st0{display:none;}
	.st1{display:inline;fill:#FF0000;}
</style>
<g id="bg" class="st0">
	<polygon class="st1" points="107.8,0 106.2,0 105.9,0 102.2,0 100.7,0 100.3,0 99.2,0 98.8,0 98.4,0 95.2,0 94.8,0 93.6,0 93.3,0 
		93.2,0 92.9,0 91.7,0 91.3,0 88.1,0 87.8,0 87.7,0 87.3,0 86.2,0 86.2,0 85.9,0 85.8,0 84.2,0 82.2,0 80.7,0 80.6,0 80.3,0 80.2,0 
		79.2,0 78.8,0 78.7,0 78.4,0 75.2,0 74.8,0 73.6,0 73.2,0 73.2,0 72.9,0 71.7,0 71.3,0 68.1,0 67.7,0 67.3,0 66.2,0 65.8,0 64.2,0 
		60.6,0 60.2,0 60.2,0 58.7,0 54.6,0 53.2,0 53.1,0 52.7,0 49.1,0 47.5,0 47.2,0 46,0 45.6,0 45.2,0 42,0 41.6,0 40.5,0 40.2,0 
		40.1,0 39.7,0 38.5,0 38.2,0 34.9,0 34.6,0 34.5,0 34.2,0 33.1,0 33,0 32.7,0 32.6,0 31.1,0 29.1,0 27.5,0 27.5,0 27.2,0 27.1,0 
		26,0 25.6,0 25.5,0 25.2,0 22,0 21.6,0 20.5,0 20.1,0 20,0 19.7,0 18.5,0 18.2,0 14.9,0 14.5,0 14.2,0 13,0 12.6,0 11.1,0 7.5,0 
		7.1,0 5.5,0 0,0 0,180 5.5,180 7.1,180 7.5,180 11.1,180 12.6,180 13,180 14.2,180 14.5,180 14.9,180 18.2,180 18.5,180 19.7,180 
		20,180 20.1,180 20.5,180 21.6,180 22,180 25.2,180 25.5,180 25.6,180 26,180 27.1,180 27.2,180 27.5,180 27.5,180 29.1,180 
		31.1,180 32.6,180 32.7,180 33,180 33.1,180 34.2,180 34.5,180 34.6,180 34.9,180 38.2,180 38.5,180 39.7,180 40.1,180 40.2,180 
		40.5,180 41.6,180 42,180 45.2,180 45.6,180 46,180 47.2,180 47.5,180 49.1,180 52.7,180 53.1,180 53.2,180 54.6,180 58.7,180 
		60.2,180 60.2,180 60.6,180 64.2,180 65.8,180 66.2,180 67.3,180 67.7,180 68.1,180 71.3,180 71.7,180 72.9,180 73.2,180 73.2,180 
		73.6,180 74.8,180 75.2,180 78.4,180 78.7,180 78.8,180 79.2,180 80.2,180 80.3,180 80.6,180 80.7,180 82.2,180 84.2,180 85.8,180 
		85.9,180 86.2,180 86.2,180 87.3,180 87.7,180 87.8,180 88.1,180 91.3,180 91.7,180 92.9,180 93.2,180 93.3,180 93.6,180 94.8,180 
		95.2,180 98.4,180 98.8,180 99.2,180 100.3,180 100.7,180 102.2,180 105.9,180 106.2,180 107.8,180 113.3,180 113.3,0 	"/>
</g>
<g id="figure">
	<g>
		<g>
			<path d="M9.9,89.9c-0.4-1.1-0.3-1.7-0.1-2.2c0.3-0.4,0.7-0.7,1-1.1l2.1-2.1c1.4-1.4,2.9-2.7,4.4-4.1c3-2.7,6-5.2,9.2-7.7
				c3.1-2.5,6.4-4.8,9.6-7.1c3.3-2.3,6.6-4.5,10.3-6.4c1.8-0.9,3.7-1.8,5.6-2.4c1-0.3,2-0.6,3-0.9c0.5-0.1,1.1-0.2,1.6-0.3
				c0.6-0.1,1.1-0.1,1.6-0.1c2.1-0.1,4.3,0,6.5,0.9c1.1,0.4,2.2,1.1,3.2,2c0.9,0.9,1.7,2.1,2.2,3.3c0.9,2.4,1.2,5,1,7.3
				c-0.1,2.4-0.6,4.6-1.3,6.7c-0.7,2.1-1.7,4-2.7,5.9c-0.5,1-1,1.8-1.6,2.8c-0.6,1-1.2,1.9-1.8,2.8c-1.2,1.8-2.5,3.4-3.9,5
				c-1.3,1.6-2.7,3.1-4.1,4.6c-2.8,3-5.7,5.8-8.8,8.5c-3,2.7-6.2,5.3-9.4,7.8c-3.2,2.5-6.7,4.7-10.5,6.6c-1.9,0.9-3.9,1.8-5.9,2.5
				c-1,0.4-2.1,0.7-3.3,1c-1.1,0.3-2.4,0.5-3.8,0.4c-0.7,0-1.5-0.1-2.4-0.4c-0.4-0.2-0.8-0.4-1.3-0.7c-0.4-0.3-0.7-0.5-1-0.9
				c-0.6-0.7-1-1.5-1.2-2.3c-0.2-0.8-0.3-1.6-0.2-2.2c0.1-1.4,0.4-2.5,0.8-3.6c0.4-1.1,0.8-2,1.3-3c1.9-3.8,4.2-7.1,6.7-10.3
				c2.5-3.2,5.2-6.2,7.9-9.1c5.5-5.8,11.4-11.3,17.9-16.1c6.3-4.8,12.9-9.4,20.1-13.1c3.6-1.8,7.3-3.5,11.3-4.5c2-0.5,3.9-0.9,6-1.3
				c1-0.2,2.1-0.3,3.2-0.3c1.1,0,2.2,0,3.6,0.5c0.7,0.3,1.5,0.7,2.1,1.6c0.6,0.9,0.7,2,0.6,2.8c-0.1,0.4-0.2,0.8-0.3,1.1l-0.2,0.7
				l-0.4,1.4c-0.3,0.9-0.7,1.9-1,2.6c-0.2,0.4-0.3,0.7-0.4,1c-0.1,0.3-0.1,0.4-0.3,0.2c-0.1-0.1-0.3-0.1-0.3-0.1c0,0,0,0.1,0.1,0.1
				c0.2,0.1,0.6,0.1,1.1,0.1c0.4,0,0.9-0.1,1.3-0.2c0.4-0.1,0.9-0.2,1.3-0.3c1.8-0.6,3.3-1.9,4.7-3.3l2.1-2c0.7-0.7,1.4-1.4,2.1-2
				c0.4-0.3,0.7-0.6,1.1-0.9c0.4-0.3,0.9-0.5,1.4-0.7c0.2-0.1,0.5-0.2,0.7-0.3c0.1-0.1,0.2-0.1,0.3-0.2l0.1,0
				c-0.2-0.1,1.4,1.4,0.7,0.7c0,0-0.1,0.1-0.1,0.1c-0.2,0.2-0.1,0.6-0.2,0.8c-0.1,0.2-0.2,0.5-0.3,0.7c-0.5,0.8-1.2,1.6-1.7,2.4
				L99.5,65l-3.6,4.7c-4.7,6.4-9.5,12.7-14.3,19c-4.8,6.3-10,12.2-14.9,18.5l-3.6,4.7c-1.2,1.6-2.3,3.2-3.7,4.7
				c-0.6,0.7-1.5,1.5-2.3,2.2c-0.8,0.7-1.5,1.4-2.4,2.1c-1.7,1.3-3.8,2.1-6.5,1.9l-0.3-0.5c0.3-1.3,0.7-2.3,1.1-3.3
				c0.4-1,1-1.7,1.6-2.5c0.6-0.7,1.2-1.4,1.8-2.2c0.6-0.7,1-1.5,1.6-2.3c1.2-1.5,2.6-3,3.9-4.4l3.9-4.4c5.2-6,10-12.3,15.2-18.3
				c5.2-6,10.5-11.9,15.9-17.7l4.1-4.3l2.1-2.2l1-1.1c0.3-0.4,0.7-0.7,1.1-1c0.2-0.1,0.4-0.3,0.7-0.4c0.2-0.1,0.7,0,0.8-0.2l0.1-0.2
				c-0.6-0.7,1,0.8,0.8,0.7l-0.1,0.1c-0.1,0.1-0.1,0.2-0.2,0.3c-0.1,0.2-0.2,0.5-0.4,0.7c-0.2,0.5-0.5,1-0.8,1.4
				c-0.3,0.4-0.7,0.7-1,1.1c-0.7,0.7-1.5,1.3-2.3,1.9c-0.8,0.6-1.6,1.2-2.4,1.8c-1.7,1.1-3.4,2.1-5.1,3.4c-0.4,0.3-0.9,0.6-1.4,0.9
				c-0.5,0.2-1,0.4-1.5,0.7c-0.6,0.2-1.1,0.4-1.9,0.4c-0.4,0-0.8,0-1.3-0.2c-0.5-0.2-1.1-0.5-1.4-1c-0.4-0.5-0.6-1-0.7-1.5
				C83,68.1,83,67.7,83,67.3c0-0.7,0.1-1.3,0.3-1.9c0.3-1.2,0.6-2,1.1-2.9l0.7-1.3l0.3-0.7c0.1-0.2,0.1-0.2,0.1-0.3
				c0.1-0.2,0-0.1,0.1-0.1c0.1,0,0-0.1-0.2-0.2c-0.5-0.3-1.3-0.5-2.2-0.6c-0.9-0.1-1.8-0.1-2.8-0.1c-0.9,0-1.9,0.1-2.9,0.2
				c-1,0.1-1.9,0.2-2.8,0.4c-3.7,1-7.2,2.7-10.5,4.6c-3.4,2-6.6,4.1-9.8,6.4c-3.2,2.3-6.3,4.7-9.4,7.1C38.9,82.7,33.3,88.2,28,94
				c-2.6,2.9-5.1,5.9-7.5,9c-1.2,1.5-2.3,3.1-3.4,4.7c-1.1,1.6-2.1,3.2-2.9,4.8c-0.4,0.8-0.7,1.7-1,2.5c-0.2,0.8-0.4,1.6-0.4,2.2
				c0,0.6,0.2,0.9,0.4,0.9c0,0,0.1,0,0.1,0.1c0,0,0,0,0.1,0c0.1,0,0.3,0,0.6-0.1c0.5-0.1,1.3-0.4,2-0.8c0.7-0.4,1.5-0.8,2.2-1.3
				c1.5-1,2.9-2.2,4.3-3.4c5.6-5,11.6-9.9,17.1-15.3c2.8-2.7,5.5-5.4,8.2-8.1c2.7-2.7,5.3-5.5,7.6-8.3c0.6-0.7,1.1-1.4,1.6-2.1
				c0.5-0.7,1.1-1.5,1.6-2.2c1-1.5,1.9-3.1,2.8-4.6c0.9-1.5,1.8-3,2.6-4.5c0.8-1.5,1.3-3.1,1.3-4.5c0-1.4-0.6-2.7-2-3.5
				c-1.4-0.8-3.2-1.1-5.1-1.1c-1.8-0.1-3.5,0.4-5.3,1.1c-1.7,0.7-3.4,1.6-5.1,2.6c-6.7,3.9-13,8.7-18.9,13.7c-3,2.5-6,5.1-8.9,7.7
				l-4.5,3.9l-2.2,1.9c-0.4,0.3-0.7,0.7-1.1,0.9c-0.5,0.2-1.1,0.2-2.2-0.2L9.9,89.9z"/>
		</g>
		<g>
			<path d="M54.6,105.7c0.5,0.9,0.7,1.6,0.8,2.1c0.1,0.5,0,1-0.1,1.3c-0.3,0.7-0.5,1.4-0.6,1.9c-0.1,0.2-0.1,0.4-0.1,0.4
				c0,0.1-0.2-0.1-0.1,0.1c0.2,0.4,0.8,0.9,1.4,1.3c1.4,0.9,3.2,1.3,4.9,1.3c1.7,0,3.5-0.3,5.1-1c1.6-0.7,3.2-1.7,4.8-2.6
				c1.6-1,3.2-2,4.7-3l4.6-3.2c0.8-0.5,1.6-1.1,2.4-1.6c0.8-0.4,1.4-1.3,2.9-0.8l0.2,0.3c-0.1,1.5-1,1.8-1.7,2.5
				c-0.7,0.6-1.5,1.1-2.3,1.7c-1.6,1.1-3.2,2.1-4.8,3.1c-3.2,2-6.3,4.2-9.9,5.9c-0.9,0.4-1.9,0.7-2.9,1c-1,0.2-2,0.4-3,0.5
				c-2,0.1-4.1,0.1-6.2-0.3c-1.1-0.2-2.2-0.6-3.4-1.5c-0.3-0.2-0.6-0.5-0.9-1c-0.3-0.4-0.5-0.9-0.6-1.3c-0.3-0.9-0.2-1.7-0.1-2.4
				c0.2-1.4,0.7-2.4,1.2-3.4c0.3-0.5,0.7-0.9,1.3-1.1c0.6-0.2,1.3-0.4,2.4-0.2L54.6,105.7z"/>
		</g>
	</g>
</g>
</svg>
