<?xml version="1.0" encoding="utf-8"?>
<!-- Generator: Adobe Illustrator 22.1.0, SVG Export Plug-In . SVG Version: 6.00 Build 0)  -->
<svg version="1.1" xmlns="http://www.w3.org/2000/svg" xmlns:xlink="http://www.w3.org/1999/xlink" x="0px" y="0px"
	 viewBox="0 0 116.2 180" style="enable-background:new 0 0 116.2 180;" xml:space="preserve">
<style type="text/css">
	.st0{display:none;}
	.st1{display:inline;fill:#FF0000;}
</style>
<g id="bg" class="st0">
	<polygon class="st1" points="112.4,0 111.4,0 111.1,0 108.6,0 107.6,0 107.3,0 106.5,0 106.2,0 106,0 103.8,0 103.5,0 102.7,0 
		102.4,0 102.2,0 101.5,0 101.4,0 101.1,0 98.9,0 98.6,0 98.6,0 98.4,0 97.7,0 97.6,0 97.3,0 96.7,0 96.4,0 96.3,0 96.2,0 94.9,0 
		93.9,0 93.8,0 93.8,0 93.5,0 93.5,0 92.9,0 92.6,0 92.5,0 92.4,0 91.8,0 91.6,0 91.4,0 91.3,0 91.1,0 91.1,0 90,0 89.7,0 89.1,0 
		88.9,0 88.8,0 88.7,0 88.7,0 88.6,0 88.4,0 88,0 87.8,0 87.6,0 87.5,0 87.3,0 86.7,0 86.5,0 86.5,0 86.2,0 86.2,0 86,0 85.9,0 
		85.1,0 84.9,0 84.6,0 84.2,0 84,0 84,0 83.8,0 83.8,0 83.7,0 83.6,0 83.5,0 82.9,0 82.7,0 82.7,0 82.4,0 82.2,0 81.6,0 81.5,0 
		81.4,0 81.3,0 81.1,0 81.1,0 80.8,0 80.2,0 80,0 79.8,0 79.8,0 79.1,0 79.1,0 78.9,0 78.9,0 78.9,0 78.7,0 78.6,0 78.6,0 78.4,0 
		77.8,0 77.7,0 77.6,0 77.3,0 76.7,0 76.4,0 76.4,0 76.3,0 76.2,0 76,0 76,0 75.3,0 75.1,0 74.9,0 74.9,0 74.9,0 74.6,0 74.3,0 
		74,0 74,0 73.9,0 73.8,0 73.8,0 73.7,0 73.5,0 73.5,0 72.9,0 72.6,0 72.5,0 72.2,0 71.8,0 71.6,0 71.5,0 71.3,0 71.3,0 71.1,0 
		71.1,0 71.1,0 70.9,0 70.5,0 70.2,0 70.1,0 70,0 69.9,0 69.8,0 69.7,0 69.5,0 69.2,0 69.1,0 68.9,0 68.9,0 68.8,0 68.7,0 68.7,0 
		68.4,0 68,0 67.8,0 67.5,0 67.3,0 67.1,0 66.7,0 66.7,0 66.5,0 66.4,0 66.3,0 66.2,0 66.1,0 66,0 65.9,0 65.7,0 65.4,0 65.1,0 
		65.1,0 65.1,0 64.9,0 64.9,0 64.7,0 64.6,0 64.2,0 64,0 64,0 64,0 63.8,0 63.7,0 63.6,0 62.9,0 62.7,0 62.5,0 62.2,0 62.2,0 
		61.9,0 61.6,0 61.6,0 61.3,0 61.3,0 61.3,0 61.1,0 61.1,0 60.9,0 60.8,0 60.2,0 60.2,0 60.2,0 60,0 60,0 59.8,0 59.8,0 59.8,0 
		59.1,0 59.1,0 58.9,0 58.9,0 58.7,0 58.4,0 57.8,0 57.5,0 57.4,0 57.3,0 57.1,0 57.1,0 56.4,0 56.4,0 56.4,0 56.2,0 56.2,0 56,0 
		56,0 56,0 55.4,0 55.3,0 55.1,0 55.1,0 54.9,0 54.9,0 54.9,0 54.6,0 54.6,0 54.3,0 54,0 54,0 53.7,0 53.6,0 53.3,0 52.6,0 52.5,0 
		52.4,0 52.2,0 52.2,0 52.2,0 52,0 51.6,0 51.5,0 51.3,0 51.3,0 51.1,0 51.1,0 51.1,0 50.9,0 50.5,0 50.3,0 50.2,0 50.1,0 50,0 
		49.9,0 49.8,0 49.8,0 49.5,0 49.5,0 49.2,0 48.9,0 48.7,0 48.4,0 48.2,0 47.8,0 47.5,0 47.5,0 47.4,0 47.3,0 47.3,0 47.1,0 47.1,0 
		46.7,0 46.5,0 46.4,0 46.3,0 46.2,0 46.1,0 46,0 45.7,0 45.4,0 45.2,0 45.1,0 45.1,0 44.9,0 44.9,0 44.7,0 44.6,0 44.4,0 44,0 
		43.7,0 43.6,0 43.3,0 42.7,0 42.7,0 42.5,0 42.4,0 42.4,0 42.3,0 42.2,0 42.2,0 41.9,0 41.6,0 41.4,0 41.3,0 41.3,0 41.1,0 40.9,0 
		40.2,0 40.2,0 40,0 39.9,0 39.8,0 39.8,0 39.5,0 38.9,0 38.6,0 38.5,0 38.4,0 37.8,0 37.6,0 37.6,0 37.5,0 37.4,0 37.3,0 37.3,0 
		37.1,0 37.1,0 36.4,0 36.4,0 36.2,0 36,0 35.4,0 35.1,0 35.1,0 34.9,0 34.8,0 34.7,0 34.6,0 34,0 33.8,0 33.6,0 33.5,0 33.3,0 
		32.7,0 32.6,0 32.5,0 32.5,0 32.4,0 32.2,0 32.2,0 32,0 31.6,0 31.3,0 31.1,0 30.3,0 30.2,0 30,0 30,0 29.8,0 29.7,0 29.5,0 
		28.9,0 28.7,0 28.7,0 28.4,0 28.2,0 27.8,0 27.6,0 27.5,0 27.5,0 27.4,0 27.3,0 27.1,0 26.5,0 26.2,0 25.2,0 25.1,0 24.9,0 24.9,0 
		24.6,0 24.4,0 23.8,0 23.7,0 23.6,0 23.3,0 22.7,0 22.7,0 22.4,0 22.4,0 22.3,0 21.4,0 20,0 19.9,0 19.8,0 19.5,0 18.9,0 18.6,0 
		18.5,0 17.8,0 17.6,0 17.6,0 17.3,0 15.1,0 14.8,0 14.7,0 14,0 13.8,0 13.5,0 12.7,0 12.5,0 10.2,0 10,0 9.7,0 8.9,0 8.7,0 7.6,0 
		5.1,0 4.9,0 3.8,0 0,0 0,180 3.8,180 4.9,180 5.1,180 7.6,180 8.7,180 8.9,180 9.7,180 10,180 10.2,180 12.5,180 12.7,180 
		13.5,180 13.8,180 14,180 14.7,180 14.8,180 15.1,180 17.3,180 17.6,180 17.6,180 17.8,180 18.5,180 18.6,180 18.9,180 19.5,180 
		19.8,180 19.9,180 20,180 21.4,180 22.3,180 22.4,180 22.4,180 22.7,180 22.7,180 23.3,180 23.6,180 23.7,180 23.8,180 24.4,180 
		24.6,180 24.9,180 24.9,180 25.1,180 25.2,180 26.2,180 26.5,180 27.1,180 27.3,180 27.4,180 27.5,180 27.5,180 27.6,180 27.8,180 
		28.2,180 28.4,180 28.7,180 28.7,180 28.9,180 29.5,180 29.7,180 29.8,180 30,180 30,180 30.2,180 30.3,180 31.1,180 31.3,180 
		31.6,180 32,180 32.2,180 32.2,180 32.4,180 32.5,180 32.5,180 32.6,180 32.7,180 33.3,180 33.5,180 33.6,180 33.8,180 34,180 
		34.6,180 34.7,180 34.8,180 34.9,180 35.1,180 35.1,180 35.4,180 36,180 36.2,180 36.4,180 36.4,180 37.1,180 37.1,180 37.3,180 
		37.3,180 37.4,180 37.5,180 37.6,180 37.6,180 37.8,180 38.4,180 38.5,180 38.6,180 38.9,180 39.5,180 39.8,180 39.8,180 39.9,180 
		40,180 40.2,180 40.2,180 40.9,180 41.1,180 41.3,180 41.3,180 41.4,180 41.6,180 41.9,180 42.2,180 42.2,180 42.3,180 42.4,180 
		42.4,180 42.5,180 42.7,180 42.7,180 43.3,180 43.6,180 43.7,180 44,180 44.4,180 44.6,180 44.7,180 44.9,180 44.9,180 45.1,180 
		45.1,180 45.2,180 45.4,180 45.7,180 46,180 46.1,180 46.2,180 46.3,180 46.4,180 46.5,180 46.7,180 47.1,180 47.1,180 47.3,180 
		47.3,180 47.4,180 47.5,180 47.5,180 47.8,180 48.2,180 48.4,180 48.7,180 48.9,180 49.2,180 49.5,180 49.5,180 49.8,180 49.8,180 
		49.9,180 50,180 50.1,180 50.2,180 50.3,180 50.5,180 50.9,180 51.1,180 51.1,180 51.1,180 51.3,180 51.3,180 51.5,180 51.6,180 
		52,180 52.2,180 52.2,180 52.2,180 52.4,180 52.5,180 52.6,180 53.3,180 53.6,180 53.7,180 54,180 54,180 54.3,180 54.6,180 
		54.6,180 54.9,180 54.9,180 54.9,180 55.1,180 55.1,180 55.3,180 55.4,180 56,180 56,180 56,180 56.2,180 56.2,180 56.4,180 
		56.4,180 56.4,180 57.1,180 57.1,180 57.3,180 57.4,180 57.5,180 57.8,180 58.4,180 58.7,180 58.9,180 58.9,180 59.1,180 59.1,180 
		59.8,180 59.8,180 59.8,180 60,180 60,180 60.2,180 60.2,180 60.2,180 60.8,180 60.9,180 61.1,180 61.1,180 61.3,180 61.3,180 
		61.3,180 61.6,180 61.6,180 61.9,180 62.2,180 62.2,180 62.5,180 62.7,180 62.9,180 63.6,180 63.7,180 63.8,180 64,180 64,180 
		64,180 64.2,180 64.6,180 64.7,180 64.9,180 64.9,180 65.1,180 65.1,180 65.1,180 65.4,180 65.7,180 65.9,180 66,180 66.1,180 
		66.2,180 66.3,180 66.4,180 66.5,180 66.7,180 66.7,180 67.1,180 67.3,180 67.5,180 67.8,180 68,180 68.4,180 68.7,180 68.7,180 
		68.8,180 68.9,180 68.9,180 69.1,180 69.2,180 69.5,180 69.7,180 69.8,180 69.9,180 70,180 70.1,180 70.2,180 70.5,180 70.9,180 
		71.1,180 71.1,180 71.1,180 71.3,180 71.3,180 71.5,180 71.6,180 71.8,180 72.2,180 72.5,180 72.6,180 72.9,180 73.5,180 73.5,180 
		73.7,180 73.8,180 73.8,180 73.9,180 74,180 74,180 74.3,180 74.6,180 74.9,180 74.9,180 74.9,180 75.1,180 75.3,180 76,180 
		76,180 76.2,180 76.3,180 76.4,180 76.4,180 76.7,180 77.3,180 77.6,180 77.7,180 77.8,180 78.4,180 78.6,180 78.6,180 78.7,180 
		78.9,180 78.9,180 78.9,180 79.1,180 79.1,180 79.8,180 79.8,180 80,180 80.2,180 80.8,180 81.1,180 81.1,180 81.3,180 81.4,180 
		81.5,180 81.6,180 82.2,180 82.4,180 82.7,180 82.7,180 82.9,180 83.5,180 83.6,180 83.7,180 83.8,180 83.8,180 84,180 84,180 
		84.2,180 84.6,180 84.9,180 85.1,180 85.9,180 86,180 86.2,180 86.2,180 86.5,180 86.5,180 86.7,180 87.3,180 87.5,180 87.6,180 
		87.8,180 88,180 88.4,180 88.6,180 88.7,180 88.7,180 88.8,180 88.9,180 89.1,180 89.7,180 90,180 91.1,180 91.1,180 91.3,180 
		91.4,180 91.6,180 91.8,180 92.4,180 92.5,180 92.6,180 92.9,180 93.5,180 93.5,180 93.8,180 93.8,180 93.9,180 94.9,180 96.2,180 
		96.3,180 96.4,180 96.7,180 97.3,180 97.6,180 97.7,180 98.4,180 98.6,180 98.6,180 98.9,180 101.1,180 101.4,180 101.5,180 
		102.2,180 102.4,180 102.7,180 103.5,180 103.8,180 106,180 106.2,180 106.5,180 107.3,180 107.6,180 108.6,180 111.1,180 
		111.4,180 112.4,180 116.2,180 116.2,0 	"/>
</g>
<g id="figure">
	<g>
		<g>
			<g>
				<path d="M21.3,168.7c-1.5,0.1-1.4-0.6-1.7-1c-0.3-0.5-0.5-1-0.8-1.5c-0.5-1-0.9-2-1.5-2.9c-0.2-0.2-0.3-0.4-0.5-0.6
					c-0.2-0.2-0.4-0.4-0.6-0.5l-0.3-0.3l0,0c0,0,0,0-0.1-0.1c-0.2-0.3-0.2-0.5-0.3-0.7c0-0.3,0-0.5,0-0.6c0.1-0.5,0.2-0.8,0.3-1.2
					c0.4-1.2,1-2.2,1.6-3.2c1.2-2,2.4-3.9,3.7-5.8c1.3-1.9,2.7-3.7,4.1-5.5c5.5-7.2,11.2-14.3,16.9-21.3l8.6-10.5l4.3-5.2l4.2-5.3
					c5.6-7.1,11.2-14.2,16.7-21.4l4.1-5.4c1.4-1.8,2.8-3.6,4.3-5.4c3-3.5,6-7,10-9.8c1-0.7,2.1-1.3,3.3-1.9c1.2-0.5,2.7-0.9,4.2-0.7
					c0.8,0.1,1.6,0.2,2.3,0.6c0.7,0.3,1.3,0.7,2,1.2c0.6,0.5,1.2,1.2,1.6,1.9c0.4,0.7,0.7,1.5,0.8,2.3c0.3,1.6,0.1,3-0.1,4.3
					c-0.2,1.3-0.6,2.5-1,3.7c-0.8,2.4-1.9,4.5-3.1,6.6c-2.4,4.1-5.4,7.8-8,11.3L88,100.5l-8.3,10.7c-2.8,3.6-5.4,7.3-8.7,10.4l0,0
					l-1,0.9l-0.1,0c-0.5,0.1-0.9,0.3-1.4,0.3c-0.5,0.1-1,0.1-1.5,0.1c-0.5,0-1.1-0.1-1.7-0.2c-0.6-0.1-1.2-0.2-1.8-0.4l-0.2-0.3
					c0.2-0.6,0.4-1.2,0.7-1.7c0.3-0.5,0.5-1.1,0.8-1.5c0.3-0.4,0.6-0.8,1-1.2c0.3-0.4,0.7-0.7,1.1-1l-1.1,0.9l0,0
					c2.1-4.1,5-7.6,7.7-11.2c2.7-3.6,5.5-7.2,8.3-10.8c2.8-3.6,5.6-7.1,8.6-10.6c1.5-1.8,3-3.5,4.3-5.2c1.4-1.7,2.7-3.4,4-5.2
					c1.3-1.7,2.5-3.5,3.6-5.2c1-1.7,1.8-3.7,1.7-5.1c0-0.7-0.2-1.2-0.7-1.7c-0.2-0.2-0.6-0.4-0.9-0.6c-0.3-0.2-0.6-0.2-0.9-0.3
					c-1.4-0.2-3.3,0.6-5,1.8c-3.5,2.3-6.6,5.5-9.6,8.8c-3,3.3-5.8,6.8-8.6,10.4c-5.6,7.1-11,14.3-16.6,21.5l-4.1,5.4l-4.2,5.3
					l-8.4,10.7c-5.5,7.1-11.1,14.3-16.5,21.5l-4,5.4c-1.4,1.8-2.8,3.5-4.1,5.3l-1.9,2.6c-0.1,0.2-0.3,0.4-0.3,0.4c0,0,0,0,0-0.2
					c0-0.1,0-0.2-0.2-0.5c-0.1-0.1-0.1-0.1-0.1-0.1l0,0l0.2,0.4c0.1,0.3,0.2,0.6,0.4,0.8c0.2,0.2,0.4,0.5,0.6,0.7
					c0.7,0.9,1.4,1.9,2,2.9c0.3,0.5,0.5,1,0.8,1.6C21.7,167.2,22.3,167.6,21.3,168.7L21.3,168.7z"/>
			</g>
			<g>
				<path d="M66.1,106.5c0.5,0.5,0.8,0.8,1.1,1.2c0.2,0.3,0.4,0.7,0.4,0.9c0.1,0.3,0.1,0.5,0,0.8c0,0.2-0.1,0.5-0.1,0.7
					c-0.2,0.9-0.7,1.8-1.1,2.7c-0.2,0.4-0.4,0.9-0.4,1.2c-0.1,0.4,0,0.7,0,0.8c0,0-0.1,0,0,0.1c0.1,0.1,0.2,0.1,0.3,0.2
					c0.3,0.1,0.8,0.3,1.2,0.4c1.9,0.4,4,0.3,6,0.1c2-0.2,4.1-0.7,5.9-1.3c1.7-0.7,3.6-1.9,5.3-3c1.8-1.1,3.5-2.4,5.2-3.7
					c1.7-1.3,3.4-2.5,5.2-3.8c0.9-0.6,1.8-1.2,2.7-1.8c0.5-0.3,0.9-0.6,1.4-0.8c0.5-0.2,1.1-0.2,2.1,0.1l0.1,0.1
					c0.1,1-0.1,1.6-0.5,2c-0.4,0.4-0.8,0.7-1.2,1.1c-0.8,0.7-1.7,1.3-2.5,2c-1.7,1.3-3.5,2.5-5.3,3.7l-5.5,3.5
					c-1.9,1.1-3.6,2.3-5.9,3.2c-2.2,0.8-4.4,1.2-6.6,1.5c-2.2,0.3-4.4,0.5-6.8,0.2c-0.6-0.1-1.2-0.2-1.9-0.4
					c-0.3-0.1-0.7-0.3-1.1-0.5c-0.4-0.2-0.8-0.7-1.1-1.1c-0.5-0.9-0.6-1.6-0.8-2.3c-0.1-0.7-0.3-1.3-0.3-2c-0.2-1.3-0.2-2.5,0.1-3.6
					c0.1-0.3,0.2-0.6,0.3-0.8c0.1-0.3,0.2-0.5,0.5-0.8c0.2-0.2,0.5-0.4,0.9-0.6c0.4-0.2,0.9-0.3,1.6-0.3L66.1,106.5z"/>
			</g>
		</g>
		<g>
			<path d="M9.9,125.8c0.1-1.4,1-1.5,1.6-1.9l2-1.2c1.4-0.8,2.7-1.6,4.1-2.4c2.7-1.6,5.5-3.1,8.3-4.6l8.3-4.5
				c1.4-0.8,2.8-1.5,4.2-2.2c1.4-0.7,2.7-1.5,4-2.3c2.6-1.7,5-3.6,7.6-5.5c1.3-1,2.5-1.9,4.1-2.7c0.4-0.2,0.8-0.4,1.3-0.6
				c0.3-0.1,0.6-0.2,1.2-0.3c0.1,0,0.4,0,0.6,0c0.1,0,0.3,0.1,0.4,0.1c0.2,0.1,0.4,0.2,0.5,0.3c0.2,0.1,0.3,0.3,0.5,0.4
				c0.1,0.2,0.2,0.3,0.3,0.5c0.1,0.3,0.2,0.6,0.2,0.8c0,0.8-0.1,1.1-0.2,1.4c-0.1,0.3-0.2,0.5-0.3,0.7c-0.2,0.4-0.4,0.8-0.6,1.1
				c-0.8,1.4-1.6,2.8-2.5,4.1c-0.9,1.3-1.7,2.7-2.5,4c-1.7,2.7-3.4,5.3-5.3,7.9l-0.9-0.5c1.2-2.9,2.5-5.8,3.9-8.6
				c0.7-1.4,1.4-2.8,2-4.3c0.6-1.5,1.2-2.9,1.8-4.3c0.1-0.3,0.3-0.7,0.4-1c0.1-0.2,0.1-0.3,0.1-0.4c0-0.1,0-0.2,0,0.2
				c0,0.1,0,0.3,0.1,0.5c0.1,0.2,0.3,0.5,0.6,0.7c0.1,0.1,0.3,0.2,0.4,0.2c0.1,0,0.2,0.1,0.3,0.1c0.1,0,0.3,0,0.3,0
				c0.2,0,0.1,0,0.1,0c-0.2,0.1-0.5,0.2-0.8,0.4l-3.9,2.4c-2.7,1.6-5.5,3.3-8.3,4.7l-2.2,1.1l-2.2,1.1c-1.4,0.7-2.8,1.4-4.2,2.1
				c-2.8,1.4-5.6,3-8.3,4.5l-8.3,4.5l-4.2,2.2l-2.1,1.1c-0.7,0.3-1.3,1-2.5,0.4L9.9,125.8z"/>
		</g>
	</g>
</g>
</svg>
