<?xml version="1.0" encoding="utf-8"?>
<!-- Generator: Adobe Illustrator 22.1.0, SVG Export Plug-In . SVG Version: 6.00 Build 0)  -->
<svg version="1.1" xmlns="http://www.w3.org/2000/svg" xmlns:xlink="http://www.w3.org/1999/xlink" x="0px" y="0px"
	 viewBox="0 0 101.5 180" style="enable-background:new 0 0 101.5 180;" xml:space="preserve">
<style type="text/css">
	.st0{display:none;}
	.st1{display:inline;fill:#FF0000;}
</style>
<g id="bg" class="st0">
	<polygon class="st1" points="96.7,0 95.3,0 95,0 91.8,0 90.5,0 90.1,0 89.1,0 88.8,0 88.5,0 85.6,0 85.3,0 84.3,0 84,0 83.6,0 
		82.6,0 82.3,0 81.5,0 79.5,0 79.1,0 78.8,0 77.8,0 77.4,0 76.7,0 76.1,0 75.3,0 75,0 72.9,0 72.6,0 71.8,0 71.3,0 70.5,0 70.1,0 
		69.1,0 68.8,0 68.5,0 66.4,0 65.6,0 65.3,0 64.3,0 64,0 63.6,0 62.6,0 62.3,0 59.5,0 59.1,0 58.8,0 57.8,0 57.4,0 56.1,0 55.1,0 
		52.9,0 52.6,0 51.3,0 50.2,0 48.9,0 48.6,0 46.4,0 45.4,0 44,0 43.7,0 42.7,0 42.4,0 42,0 39.2,0 38.9,0 37.9,0 37.5,0 37.2,0 
		36.2,0 35.9,0 35.1,0 33,0 32.7,0 32.4,0 31.4,0 31,0 30.2,0 29.7,0 28.9,0 28.6,0 26.5,0 26.2,0 25.4,0 24.8,0 24,0 23.7,0 
		22.7,0 22.4,0 22,0 20,0 19.2,0 18.9,0 17.9,0 17.5,0 17.2,0 16.2,0 15.9,0 13,0 12.7,0 12.4,0 11.4,0 11,0 9.7,0 6.5,0 6.2,0 
		4.8,0 0,0 0,180 4.8,180 6.2,180 6.5,180 9.7,180 11,180 11.4,180 12.4,180 12.7,180 13,180 15.9,180 16.2,180 17.2,180 17.5,180 
		17.9,180 18.9,180 19.2,180 20,180 22,180 22.4,180 22.7,180 23.7,180 24,180 24.8,180 25.4,180 26.2,180 26.5,180 28.6,180 
		28.9,180 29.7,180 30.2,180 31,180 31.4,180 32.4,180 32.7,180 33,180 35.1,180 35.9,180 36.2,180 37.2,180 37.5,180 37.9,180 
		38.9,180 39.2,180 42,180 42.4,180 42.7,180 43.7,180 44,180 45.4,180 46.4,180 48.6,180 48.9,180 50.2,180 51.3,180 52.6,180 
		52.9,180 55.1,180 56.1,180 57.4,180 57.8,180 58.8,180 59.1,180 59.5,180 62.3,180 62.6,180 63.6,180 64,180 64.3,180 65.3,180 
		65.6,180 66.4,180 68.5,180 68.8,180 69.1,180 70.1,180 70.5,180 71.3,180 71.8,180 72.6,180 72.9,180 75,180 75.3,180 76.1,180 
		76.7,180 77.4,180 77.8,180 78.8,180 79.1,180 79.5,180 81.5,180 82.3,180 82.6,180 83.6,180 84,180 84.3,180 85.3,180 85.6,180 
		88.5,180 88.8,180 89.1,180 90.1,180 90.5,180 91.8,180 95,180 95.3,180 96.7,180 101.5,180 101.5,0 	"/>
</g>
<g id="figure">
	<g>
		<g>
			<path d="M10,90.3c-0.1-1.8,0.5-3,1.3-4c0.8-1,1.7-1.9,2.6-2.9c1.8-1.9,3.6-3.8,5.5-5.6c3.8-3.6,7.8-6.9,12-9.9
				c4.2-3,8.7-5.8,13.5-7.9c2.4-1.1,4.9-1.9,7.4-2.7c2.5-0.8,5-1.4,7.7-1.7c0.7-0.1,1.4-0.1,2.1-0.1c0.7,0,1.6,0,2.5,0.4
				c0.5,0.2,0.9,0.5,1.3,1c0.4,0.5,0.6,1,0.7,1.6c0.2,1.1,0.1,2,0,2.8c-0.3,1.6-0.9,2.9-1.6,4.1c-0.7,1.2-1.4,2.3-2.2,3.3l-1.2,1.4
				c-0.3,0.4-0.6,0.8-0.9,1.2c-0.2,0.4-0.4,0.7-0.5,1c-0.1,0.2-0.2,0.2-0.1,0.5c0.1,0.2,0.4,0.5,0.9,0.7c0.5,0.2,1,0.3,1.6,0.3
				c0.6,0.1,1.2,0,1.7,0c0.5,0,1-0.2,1.6-0.4c2.2-0.9,4.4-2.3,6.5-3.7c2.1-1.4,4.1-3,6.1-4.5l6.1-4.7c2-1.6,4.1-3.1,6.5-4.2l0,0
				l0.7,0.7c-3.9,6.1-8.2,11.8-12.7,17.4L65.5,91c-4.6,5.5-9.2,11-14,16.3c-2.4,2.6-4.8,5.3-7.3,7.9l-3.7,3.9
				c-0.6,0.6-1.4,1.1-2.3,1.5c-1,0.3-2,0.6-3.5,0.5l-1.1-1c-0.3-1.5-0.2-2.6,0.1-3.5c0.3-1,0.7-1.8,1.2-2.5l3.5-4.1
				c2.3-2.7,4.7-5.4,7.1-8.1c4.8-5.3,9.7-10.5,14.7-15.7l15-15.4c5-5.1,10.2-10.1,15.9-14.6l0.7,0.7l0,0c-1.5,2.3-3.4,4-5.4,5.6
				c-2,1.6-4,3.2-6.2,4.7c-2.1,1.5-4.3,3-6.5,4.3c-1.1,0.7-2.2,1.4-3.4,2c-1.1,0.7-2.3,1.3-3.6,1.8c-0.7,0.2-1.3,0.5-2.1,0.6
				c-0.8,0.1-1.4,0.1-2.1,0.1c-0.7,0-1.4,0-2.2-0.1c-0.8-0.1-1.6-0.3-2.5-0.9c-0.4-0.3-0.9-0.8-1.1-1.3c-0.3-0.5-0.4-1.1-0.5-1.6
				c-0.1-1.1,0.1-2,0.3-2.8c0.3-0.8,0.6-1.5,1-2.2c0.4-0.6,0.7-1.2,1.1-1.7c0.7-1.1,1.4-2.1,2.1-3c0.7-1,1.4-1.9,1.9-2.7
				c0.3-0.4,0.4-0.8,0.5-1c0.1-0.2,0.2-0.3,0-0.5c-0.2-0.2-0.7-0.5-1.2-0.6c-0.5-0.1-1.1-0.1-1.7-0.1c-2.4,0.2-4.9,0.9-7.3,1.6
				c-2.4,0.7-4.8,1.6-7.1,2.6c-4.6,2.2-8.7,5.1-12.7,8.2c-4,3.2-7.7,6.6-11.3,10.2c-1.8,1.8-3.6,3.6-5.4,5.4l-2.6,2.8
				C12.8,89.3,11.8,90.1,10,90.3z"/>
		</g>
		<g>
			<path d="M38.8,99.4c-0.3,2.1-0.3,3.1-0.3,3.8c-0.1,0.6-0.3,1.1-0.6,1.9c-0.2,0.4-0.3,0.9-0.5,1.4c-0.1,0.5-0.2,1.1-0.2,1.7
				c0,0.6,0,1.2,0.2,1.8c0.1,0.3,0.1,0.6,0.3,0.9c0.1,0.3,0.2,0.6,0.3,0.8c0.9,1.6,3.4,2.1,5.8,1.8c2.4-0.2,4.8-0.9,7.2-1.8
				c4.7-1.7,9.2-4.1,13.7-6.6c2.2-1.2,4.5-2.5,6.7-3.7l3.3-1.9c0.6-0.3,1.1-0.7,1.7-0.9c0.6-0.2,1.4-0.2,2.4,0.2l0.3,0.5
				c-0.1,1.1-0.5,1.7-0.9,2.2c-0.5,0.5-1.1,0.8-1.6,1.1c-1.1,0.7-2.2,1.3-3.3,2c-2.3,1.3-4.5,2.5-6.9,3.6c-4.7,2.3-9.5,4.2-14.5,5.8
				c-1.3,0.4-2.5,0.7-3.8,1c-1.3,0.3-2.6,0.6-4,0.7c-1.4,0.1-2.8,0.1-4.2-0.2c-1.4-0.3-3-1.1-3.9-2.5c-0.2-0.4-0.4-0.6-0.6-0.9
				l-0.6-0.9l-1.3-1.8c-0.9-1.2-1.7-2.7-2-4.5c-0.2-1.8,0.2-3.9,1.6-5.4c1.4-1.4,3.5-2.1,5.5-1L38.8,99.4z"/>
		</g>
	</g>
</g>
</svg>
