<?xml version="1.0" encoding="utf-8"?>
<!-- Generator: Adobe Illustrator 22.1.0, SVG Export Plug-In . SVG Version: 6.00 Build 0)  -->
<svg version="1.1" xmlns="http://www.w3.org/2000/svg" xmlns:xlink="http://www.w3.org/1999/xlink" x="0px" y="0px"
	 viewBox="0 0 139.6 180" style="enable-background:new 0 0 139.6 180;" xml:space="preserve">
<style type="text/css">
	.st0{display:none;}
	.st1{display:inline;fill:#FF0000;}
</style>
<g id="bg" class="st0">
	<polygon class="st1" points="134.8,0 133.5,0 133.2,0 130,0 128.7,0 128.4,0 127.4,0 127,0 126.7,0 123.9,0 123.6,0 122.6,0 
		122.3,0 121.9,0 121.1,0 120.9,0 120.6,0 119.6,0 119.1,0 117.8,0 117.5,0 117.1,0 116.3,0 116.2,0 115.8,0 115,0 114.8,0 114.7,0 
		114.5,0 114.3,0 113.5,0 113.2,0 113,0 112.6,0 111.5,0 111.4,0 111,0 110.2,0 110,0 109.9,0 109.7,0 109.5,0 108.9,0 108.7,0 
		108.6,0 108.4,0 108.2,0 108.2,0 107.9,0 107.4,0 107,0 106.9,0 106.7,0 106.5,0 106.2,0 105.4,0 105.1,0 104.9,0 104.1,0 103.9,0 
		103.8,0 103.6,0 103.4,0 103.4,0 103.1,0 102.6,0 102.4,0 102.3,0 102.1,0 102.1,0 101.9,0 101.7,0 101.4,0 101.1,0 100.9,0 
		100.6,0 100.6,0 100.4,0 100.1,0 99.3,0 99.1,0 99,0 98.7,0 97.8,0 97.7,0 97.5,0 97.3,0 97.3,0 97.1,0 97,0 96.6,0 96.3,0 96.2,0 
		96,0 95.8,0 95.8,0 95.6,0 95.3,0 95,0 94.7,0 94.5,0 94.5,0 94.3,0 94.2,0 94,0 93.7,0 93,0 92.9,0 92.6,0 92.5,0 91.5,0 91.4,0 
		91.2,0 91,0 91,0 90.8,0 90.5,0 90.2,0 89.9,0 89.7,0 89.7,0 89.5,0 89.4,0 89.2,0 88.9,0 88.9,0 88.6,0 88.4,0 88.2,0 88.2,0 
		88,0 87.9,0 87.7,0 87.6,0 87.2,0 86.9,0 86.5,0 86.4,0 86.2,0 85.4,0 85.1,0 84.9,0 84.9,0 84.6,0 84.4,0 84.1,0 84.1,0 83.8,0 
		83.6,0 83.4,0 83.4,0 83.3,0 83.1,0 82.9,0 82.8,0 82.5,0 82.4,0 82.1,0 82.1,0 81.9,0 81.7,0 81.6,0 81.5,0 81.4,0 81.1,0 80.8,0 
		80.6,0 80.4,0 80.1,0 79.3,0 79,0 78.8,0 78.7,0 78.5,0 78.1,0 78,0 77.7,0 77.7,0 77.3,0 77.3,0 77.1,0 77,0 76.8,0 76.7,0 
		76.6,0 76.3,0 76,0 76,0 75.8,0 75.6,0 75.5,0 75.3,0 75.2,0 75,0 74.7,0 74.5,0 74.2,0 74,0 73.7,0 73.2,0 72.9,0 72.5,0 72.4,0 
		72,0 71.9,0 71.6,0 71.2,0 71.2,0 71,0 70.8,0 70.7,0 70.5,0 70.4,0 70.2,0 69.9,0 69.7,0 69.4,0 69.2,0 69.1,0 68.9,0 68.8,0 
		68.6,0 68.4,0 68.4,0 68,0 67.7,0 67.6,0 67.2,0 67.1,0 66.7,0 66.4,0 65.9,0 65.6,0 65.4,0 65.1,0 64.9,0 64.6,0 64.4,0 64.3,0 
		64.1,0 64,0 63.8,0 63.6,0 63.6,0 63.3,0 63,0 62.9,0 62.8,0 62.6,0 62.5,0 62.3,0 62.3,0 61.9,0 61.9,0 61.6,0 61.5,0 61.1,0 
		60.9,0 60.8,0 60.6,0 60.3,0 59.5,0 59.2,0 59,0 58.8,0 58.5,0 58.2,0 58.1,0 58,0 57.9,0 57.7,0 57.5,0 57.5,0 57.2,0 57.1,0 
		56.8,0 56.7,0 56.5,0 56.3,0 56.2,0 56.2,0 56,0 55.8,0 55.5,0 55.5,0 55.2,0 55,0 54.7,0 54.7,0 54.5,0 54.2,0 53.4,0 53.2,0 
		53.1,0 52.7,0 52.4,0 52,0 51.9,0 51.7,0 51.6,0 51.4,0 51.4,0 51.2,0 51,0 50.7,0 50.7,0 50.4,0 50.2,0 50.1,0 49.9,0 49.9,0 
		49.7,0 49.4,0 49.1,0 48.8,0 48.6,0 48.6,0 48.4,0 48.2,0 48.1,0 47.1,0 47,0 46.7,0 46.6,0 45.9,0 45.6,0 45.4,0 45.3,0 45.1,0 
		45.1,0 44.9,0 44.6,0 44.3,0 44,0 43.8,0 43.8,0 43.6,0 43.5,0 43.3,0 43,0 42.6,0 42.5,0 42.3,0 42.3,0 42.1,0 41.9,0 41.8,0 
		40.9,0 40.6,0 40.5,0 40.3,0 39.5,0 39.2,0 39,0 39,0 38.7,0 38.5,0 38.2,0 37.9,0 37.7,0 37.5,0 37.5,0 37.3,0 37.2,0 37,0 
		36.5,0 36.2,0 36.2,0 36,0 35.8,0 35.7,0 35.5,0 34.7,0 34.5,0 34.2,0 33.4,0 33.1,0 32.9,0 32.7,0 32.6,0 32.2,0 31.7,0 31.4,0 
		31.4,0 31.2,0 31,0 30.9,0 30.7,0 30.1,0 29.9,0 29.7,0 29.6,0 29.4,0 28.6,0 28.2,0 28.1,0 27,0 26.6,0 26.4,0 26.1,0 25.3,0 
		25.1,0 24.9,0 24.8,0 24.6,0 23.8,0 23.5,0 23.3,0 22.5,0 22.1,0 21.8,0 20.5,0 20,0 19,0 18.7,0 18.5,0 17.7,0 17.3,0 17,0 16,0 
		15.7,0 12.9,0 12.6,0 12.2,0 11.2,0 10.9,0 9.6,0 6.4,0 6.1,0 4.8,0 0,0 0,180 4.8,180 6.1,180 6.4,180 9.6,180 10.9,180 11.2,180 
		12.2,180 12.6,180 12.9,180 15.7,180 16,180 17,180 17.3,180 17.7,180 18.5,180 18.7,180 19,180 20,180 20.5,180 21.8,180 
		22.1,180 22.5,180 23.3,180 23.5,180 23.8,180 24.6,180 24.8,180 24.9,180 25.1,180 25.3,180 26.1,180 26.4,180 26.6,180 27,180 
		28.1,180 28.2,180 28.6,180 29.4,180 29.6,180 29.7,180 29.9,180 30.1,180 30.7,180 30.9,180 31,180 31.2,180 31.4,180 31.4,180 
		31.7,180 32.2,180 32.6,180 32.7,180 32.9,180 33.1,180 33.4,180 34.2,180 34.5,180 34.7,180 35.5,180 35.7,180 35.8,180 36,180 
		36.2,180 36.2,180 36.5,180 37,180 37.2,180 37.3,180 37.5,180 37.5,180 37.7,180 37.9,180 38.2,180 38.5,180 38.7,180 39,180 
		39,180 39.2,180 39.5,180 40.3,180 40.5,180 40.6,180 40.9,180 41.8,180 41.9,180 42.1,180 42.3,180 42.3,180 42.5,180 42.6,180 
		43,180 43.3,180 43.5,180 43.6,180 43.8,180 43.8,180 44,180 44.3,180 44.6,180 44.9,180 45.1,180 45.1,180 45.3,180 45.4,180 
		45.6,180 45.9,180 46.6,180 46.7,180 47,180 47.1,180 48.1,180 48.2,180 48.4,180 48.6,180 48.6,180 48.8,180 49.1,180 49.4,180 
		49.7,180 49.9,180 49.9,180 50.1,180 50.2,180 50.4,180 50.7,180 50.7,180 51,180 51.2,180 51.4,180 51.4,180 51.6,180 51.7,180 
		51.9,180 52,180 52.4,180 52.7,180 53.1,180 53.2,180 53.4,180 54.2,180 54.5,180 54.7,180 54.7,180 55,180 55.2,180 55.5,180 
		55.5,180 55.8,180 56,180 56.2,180 56.2,180 56.3,180 56.5,180 56.7,180 56.8,180 57.1,180 57.2,180 57.5,180 57.5,180 57.7,180 
		57.9,180 58,180 58.1,180 58.2,180 58.5,180 58.8,180 59,180 59.2,180 59.5,180 60.3,180 60.6,180 60.8,180 60.9,180 61.1,180 
		61.5,180 61.6,180 61.9,180 61.9,180 62.3,180 62.3,180 62.5,180 62.6,180 62.8,180 62.9,180 63,180 63.3,180 63.6,180 63.6,180 
		63.8,180 64,180 64.1,180 64.3,180 64.4,180 64.6,180 64.9,180 65.1,180 65.4,180 65.6,180 65.9,180 66.4,180 66.7,180 67.1,180 
		67.2,180 67.6,180 67.7,180 68,180 68.4,180 68.4,180 68.6,180 68.8,180 68.9,180 69.1,180 69.2,180 69.4,180 69.7,180 69.9,180 
		70.2,180 70.4,180 70.5,180 70.7,180 70.8,180 71,180 71.2,180 71.2,180 71.6,180 71.9,180 72,180 72.4,180 72.5,180 72.9,180 
		73.2,180 73.7,180 74,180 74.2,180 74.5,180 74.7,180 75,180 75.2,180 75.3,180 75.5,180 75.6,180 75.8,180 76,180 76,180 
		76.3,180 76.6,180 76.7,180 76.8,180 77,180 77.1,180 77.3,180 77.3,180 77.7,180 77.7,180 78,180 78.1,180 78.5,180 78.7,180 
		78.8,180 79,180 79.3,180 80.1,180 80.4,180 80.6,180 80.8,180 81.1,180 81.4,180 81.5,180 81.6,180 81.7,180 81.9,180 82.1,180 
		82.1,180 82.4,180 82.5,180 82.8,180 82.9,180 83.1,180 83.3,180 83.4,180 83.4,180 83.6,180 83.8,180 84.1,180 84.1,180 84.4,180 
		84.6,180 84.9,180 84.9,180 85.1,180 85.4,180 86.2,180 86.4,180 86.5,180 86.9,180 87.2,180 87.6,180 87.7,180 87.9,180 88,180 
		88.2,180 88.2,180 88.4,180 88.6,180 88.9,180 88.9,180 89.2,180 89.4,180 89.5,180 89.7,180 89.7,180 89.9,180 90.2,180 90.5,180 
		90.8,180 91,180 91,180 91.2,180 91.4,180 91.5,180 92.5,180 92.6,180 92.9,180 93,180 93.7,180 94,180 94.2,180 94.3,180 
		94.5,180 94.5,180 94.7,180 95,180 95.3,180 95.6,180 95.8,180 95.8,180 96,180 96.2,180 96.3,180 96.6,180 97,180 97.1,180 
		97.3,180 97.3,180 97.5,180 97.7,180 97.8,180 98.7,180 99,180 99.1,180 99.3,180 100.1,180 100.4,180 100.6,180 100.6,180 
		100.9,180 101.1,180 101.4,180 101.7,180 101.9,180 102.1,180 102.1,180 102.3,180 102.4,180 102.6,180 103.1,180 103.4,180 
		103.4,180 103.6,180 103.8,180 103.9,180 104.1,180 104.9,180 105.1,180 105.4,180 106.2,180 106.5,180 106.7,180 106.9,180 
		107,180 107.4,180 107.9,180 108.2,180 108.2,180 108.4,180 108.6,180 108.7,180 108.9,180 109.5,180 109.7,180 109.9,180 110,180 
		110.2,180 111,180 111.4,180 111.5,180 112.6,180 113,180 113.2,180 113.5,180 114.3,180 114.5,180 114.7,180 114.8,180 115,180 
		115.8,180 116.2,180 116.3,180 117.1,180 117.5,180 117.8,180 119.1,180 119.6,180 120.6,180 120.9,180 121.1,180 121.9,180 
		122.3,180 122.6,180 123.6,180 123.9,180 126.7,180 127,180 127.4,180 128.4,180 128.7,180 130,180 133.2,180 133.5,180 134.8,180 
		139.6,180 139.6,0 	"/>
</g>
<g id="figure">
	<g>
		<g>
			<path d="M85,98.7c0.1-0.9,0.4-1,0.8-1.1c0.3-0.2,0.7-0.4,1-0.5l2.1-0.9c1.4-0.6,2.8-1.4,4.1-2.1c2.7-1.5,5.3-3.1,7.9-4.8
				c2.6-1.7,5.2-3.4,7.6-5.2c2.5-1.8,4.9-3.8,7.2-5.8c2.3-2,4.5-4.1,6.6-6.4c2-2.3,3.9-4.8,5.1-7.4c0.3-0.7,0.6-1.3,0.7-2
				c0.2-0.6,0.1-1.3,0-1.3c0,0,0,0.1,0,0.1c0,0-0.2,0-0.4,0.1c-0.4,0.1-1,0.4-1.6,0.7c-2.4,1.4-4.7,3.4-6.9,5.4l-3.4,3.1l-1.7,1.5
				l-1.6,1.5c-2.2,2-4.2,4.2-6.2,6.5c-4,4.5-7.7,9.3-11.1,14.2c-3.3,5-6.5,10.4-9.8,15.7c-3.3,5.3-6.8,10.5-10.3,15.7
				c-1.8,2.6-3.5,5.1-5.4,7.7c-1.9,2.6-3.9,5.1-6.1,7.5c-4.3,4.7-9.1,9.1-14.6,12.6c-2.8,1.7-5.6,3.2-8.9,4.3
				c-0.8,0.3-1.6,0.5-2.5,0.7c-0.9,0.2-1.8,0.3-2.9,0.1c-0.6-0.1-1.2-0.2-1.9-0.7c-0.3-0.2-0.6-0.5-0.9-0.9
				c-0.2-0.4-0.4-0.7-0.5-1.2c-0.1-0.8,0-1.3,0.2-1.8c0.1-0.5,0.3-0.9,0.5-1.3c1.5-3.2,3.5-5.6,5.5-8.1c2.1-2.4,4.4-4.6,6.7-6.7
				c4.7-4.2,9.9-7.8,15.3-11.1c2.7-1.6,5.5-3.1,8.2-4.5l8.2-4.3c5.5-2.9,10.9-5.9,16.3-8.9l8.1-4.5l4-2.3l2-1.2
				c0.6-0.4,1.4-0.7,2.7,0l0.2,0.3c0,1.6-0.6,2-1.3,2.4l-2,1.2l-4,2.4c-2.7,1.6-5.4,3.1-8.1,4.6c-5.4,3.1-10.9,6-16.4,8.8
				c-2.8,1.4-5.5,2.8-8.3,4.2c-2.8,1.4-5.5,2.8-8.1,4.3c-5.3,3-10.3,6.6-14.9,10.6c-2.3,2-4.4,4.2-6.4,6.5c-1,1.2-1.9,2.3-2.7,3.6
				c-0.8,1.2-1.6,2.5-2,3.8c-0.1,0.3-0.2,0.6-0.3,0.9c-0.1,0.3-0.1,0.5,0,0.5c0-0.1,0-0.1,0-0.2c0,0-0.1-0.1-0.1-0.1
				c0,0,0.1,0,0.3,0c0.4,0,1.1-0.1,1.7-0.3c0.6-0.2,1.3-0.4,1.9-0.7c2.6-1.1,5.1-2.8,7.4-4.6c4.7-3.7,9-7.9,12.8-12.5
				c1.9-2.3,3.7-4.7,5.4-7.2l5.1-7.7c3.4-5.2,6.7-10.3,9.9-15.6c3.2-5.2,6.3-10.6,9.8-16c1.8-2.7,3.7-5.3,5.7-7.7
				c2-2.5,4.1-4.9,6.3-7.2c2.2-2.3,4.5-4.5,7-6.6c1.2-1.1,2.5-2,3.8-3c1.3-0.9,2.6-1.8,3.9-2.7c1.4-0.9,2.7-1.7,4.2-2.4
				c1.4-0.8,2.9-1.5,4.6-2.1c0.8-0.3,1.7-0.5,2.8-0.6c0.6,0,1.2,0,1.9,0.3c0.7,0.3,1.4,0.9,1.6,1.7c0.3,0.7,0.2,1.3,0.2,1.9
				c-0.1,0.5-0.2,1-0.3,1.4c-0.3,0.9-0.7,1.6-1.1,2.3c-1.6,2.9-3.7,5.3-5.8,7.7c-2.1,2.3-4.4,4.5-6.7,6.7c-2.3,2.1-4.8,4.1-7.3,5.9
				c-2.6,1.8-5.2,3.5-7.9,5.1c-2.7,1.6-5.4,3.2-8.1,4.6c-1.4,0.7-2.8,1.4-4.1,2.2c-0.7,0.4-1.4,0.7-2.1,1.1
				c-0.4,0.1-0.7,0.3-1.1,0.4c-0.4,0.1-0.7,0.3-1.4-0.3L85,98.7z"/>
		</g>
		<g>
			<g>
				<path d="M9.9,121.4c0.3-1.7,1.1-2.4,2.1-2.9l2.9-1.6l5.7-3.3l11.5-6.6c7.7-4.3,15.3-8.7,22.8-13.2c1.9-1.2,3.7-2.3,5.5-3.5
					l1.3-0.9l1.3-1c0.9-0.7,1.7-1.4,2.5-2.1c3.3-2.9,6.5-5.8,9.7-8.9c3.1-3.1,6.4-6.1,9.1-9.5c1.4-1.7,2.8-3.4,4.4-5
					c1.5-1.6,3.2-3.1,5.3-4.1l1.2-0.6l-0.5,1.2c-1.2,3.3-3.2,6-5.3,8.6c-2,2.7-4.1,5.3-6.2,7.9c-4.2,5.2-8.4,10.4-12.7,15.5
					c-4.2,5.2-8.5,10.3-12.6,15.6c-2.1,2.6-4.1,5.3-6.3,7.8c-1.1,1.3-2.2,2.6-3.3,3.8c-0.6,0.6-1.1,1.3-1.8,1.9
					c-0.3,0.3-0.6,0.6-0.9,0.9l-0.5,0.5l-0.3,0.3l-0.2,0.2l-0.1,0.1l-0.2,0.1c-0.1,0.1-0.2,0.1-0.3,0.2l0.4-0.2
					c-0.3,0.2-0.7,0.4-1.1,0.5c-0.4,0.1-0.9,0.1-1.3,0.1c-0.5,0-0.9,0.1-1.4,0.1c-0.5,0-1-0.1-1.6-0.2l-0.2-0.2
					c0-0.6,0.1-1.1,0.2-1.6c0.1-0.5,0.3-0.9,0.4-1.3c0.1-0.4,0.3-0.9,0.4-1.3c0.2-0.4,0.4-0.7,0.7-0.9l0.4-0.2
					c-0.1,0-0.1,0.1-0.2,0.1c-0.1,0-0.1,0.1-0.1,0.1l0,0l0,0l0.2-0.2l0.4-0.4L42,116l1.7-1.8l3.4-3.6l6.8-7.3
					c4.6-4.9,8.9-9.9,13.2-15L80,73.1c2.2-2.5,4.4-5,6.6-7.5c2.2-2.5,4.4-5,7.4-6.9l0.8,0.7c-0.9,2.2-2.3,3.9-3.8,5.5
					c-1.5,1.6-3.2,3.1-4.8,4.5c-3.4,2.9-6.4,6.1-9.5,9.2c-3.1,3.1-6.3,6.2-9.6,9.2c-0.8,0.8-1.6,1.5-2.5,2.2l-1.3,1.1l-1.3,1.1
					c-1.8,1.4-3.7,2.6-5.5,3.8c-7.4,4.8-15,9.4-22.5,14c-3.8,2.2-7.6,4.5-11.4,6.7l-5.8,3.3l-2.9,1.6c-0.9,0.6-2,1-3.6,0.3
					L9.9,121.4z"/>
			</g>
			<g>
				<path d="M45.1,106.9c1.1,1.2,0.9,1.8,0.9,2.4c-0.1,0.7-0.1,1.3-0.2,1.9c-0.1,0.6-0.1,1.1-0.1,1.3c0,0,0,0-0.1-0.1
					c0,0,0,0-0.1-0.1l0.1,0.1l0.1,0.2c0.2,0.2,0.4,0.4,0.6,0.6c0.8,0.7,1.8,1.4,3,1.7c1.2,0.3,2.5,0.3,3.9,0.2
					c1.1-0.1,2.5-0.7,3.7-1.3c1.3-0.6,2.6-1.2,3.8-1.8c2.5-1.3,5.1-2.6,7.6-3.9c5-2.7,10-5.6,14.9-8.4l7.4-4.3l3.7-2.1l1.9-1.1
					c0.7-0.3,1.1-1,2.2-0.5l0.2,0.2c-0.1,1.2-0.9,1.3-1.5,1.7l-1.8,1.1c-1.2,0.8-2.4,1.5-3.7,2.3c-2.4,1.5-4.9,2.9-7.4,4.4
					c-4.9,2.9-9.9,5.7-14.9,8.5c-2.5,1.4-5,2.8-7.6,4.1c-1.3,0.7-2.6,1.3-3.9,1.9c-0.7,0.3-1.3,0.6-2,0.9c-0.3,0.1-0.7,0.3-1.1,0.4
					c-0.4,0.1-0.9,0.2-1.2,0.3c-1.5,0.3-3.1,0.4-4.7,0.2c-1.6-0.2-3.3-0.6-4.8-1.6c-0.4-0.3-0.7-0.5-1-0.8l-0.2-0.2l-0.1-0.1
					c-0.1-0.1-0.1-0.2-0.2-0.3c-0.3-0.4-0.4-0.7-0.5-1.1c-0.2-0.6-0.2-1.2-0.2-1.7c0-0.5,0-0.9,0.1-1.3c0.1-0.8,0.4-1.6,0.7-2.3
					c0.3-0.7,0.6-1.4,2.2-1.6L45.1,106.9z"/>
			</g>
		</g>
	</g>
</g>
</svg>
