<?xml version="1.0" encoding="utf-8"?>
<!-- Generator: Adobe Illustrator 22.1.0, SVG Export Plug-In . SVG Version: 6.00 Build 0)  -->
<svg version="1.1" xmlns="http://www.w3.org/2000/svg" xmlns:xlink="http://www.w3.org/1999/xlink" x="0px" y="0px"
	 viewBox="0 0 137.3 180" style="enable-background:new 0 0 137.3 180;" xml:space="preserve">
<style type="text/css">
	.st0{display:none;}
	.st1{display:inline;fill:#FF0000;}
</style>
<g id="bg" class="st0">
	<polygon class="st1" points="132.8,0 131.5,0 131.2,0 128.2,0 126.9,0 126.6,0 125.6,0 125.3,0 125,0 122.3,0 122,0 121,0 120.7,0 
		120.4,0 119.6,0 119.5,0 119.1,0 117.3,0 116.5,0 116.2,0 115.8,0 115.1,0 114.9,0 114.8,0 114.6,0 113.8,0 113.5,0 113.3,0 
		112.8,0 111.5,0 111.2,0 110.5,0 110.3,0 110.3,0 110,0 109.2,0 109,0 108.9,0 108.7,0 108.7,0 108.2,0 107.9,0 107.6,0 107.3,0 
		106.9,0 106.6,0 105.7,0 105.6,0 105.3,0 105,0 104.6,0 104.4,0 104.3,0 104.1,0 104.1,0 103.4,0 103.1,0 103,0 102.8,0 102.7,0 
		102.5,0 102.3,0 102,0 101.8,0 101.5,0 101,0 100.7,0 100.4,0 99.8,0 99.6,0 99.5,0 99.5,0 99.1,0 98.8,0 98.6,0 98.5,0 98.2,0 
		98.1,0 97.9,0 97.2,0 97.1,0 97,0 96.9,0 96.7,0 96.5,0 96.2,0 95.8,0 95.6,0 95.1,0 94.9,0 94.8,0 94.6,0 94,0 93.8,0 93.7,0 
		93.5,0 93.4,0 93.3,0 93.3,0 92.6,0 92.6,0 92.4,0 92.3,0 92.1,0 91.3,0 91,0 91,0 90.8,0 90.5,0 90.3,0 90.3,0 90,0 89.2,0 89,0 
		88.9,0 88.8,0 88.7,0 88.7,0 88,0 87.9,0 87.8,0 87.6,0 87.5,0 87.5,0 87.3,0 87.2,0 86.7,0 86.4,0 86.4,0 86.2,0 85.7,0 85.4,0 
		85.1,0 84.8,0 84.6,0 84.4,0 84.3,0 84.2,0 84.1,0 84.1,0 83.4,0 83.1,0 83,0 83,0 82.8,0 82.7,0 82.6,0 82.5,0 82.1,0 81.8,0 
		81.8,0 81.7,0 81.6,0 81.5,0 81.4,0 81.1,0 80.9,0 80.5,0 80.2,0 79.8,0 79.5,0 79.3,0 79,0 78.8,0 78.6,0 78.5,0 78.4,0 78.2,0 
		78.1,0 78.1,0 77.9,0 77.2,0 77.1,0 77.1,0 77,0 76.9,0 76.8,0 76.7,0 76.5,0 76.3,0 76,0 75.7,0 75.7,0 75.6,0 75.5,0 75.2,0 
		74.7,0 74.4,0 74,0 73.7,0 73.4,0 73.3,0 73.1,0 72.6,0 72.6,0 72.5,0 72.4,0 72.3,0 72.2,0 72.1,0 71.9,0 71.3,0 71.1,0 71,0 
		71,0 70.9,0 70.9,0 70.8,0 70.6,0 70.1,0 69.8,0 69.8,0 69.5,0 69.3,0 68.8,0 68.5,0 68,0 67.8,0 67.5,0 67.5,0 67.2,0 66.7,0 
		66.5,0 66.4,0 66.4,0 66.4,0 66.3,0 66.2,0 66,0 65.4,0 65.3,0 65.1,0 65,0 64.9,0 64.8,0 64.8,0 64.7,0 64.2,0 64,0 63.9,0 
		63.7,0 63.4,0 63,0 62.6,0 62.1,0 61.8,0 61.7,0 61.7,0 61.6,0 61.4,0 61.1,0 60.9,0 60.7,0 60.5,0 60.5,0 60.4,0 60.2,0 60.2,0 
		60.1,0 59.4,0 59.3,0 59.2,0 59.1,0 59,0 58.9,0 58.8,0 58.6,0 58.4,0 58.1,0 57.8,0 57.5,0 57.1,0 56.8,0 56.5,0 56.3,0 56,0 
		55.9,0 55.7,0 55.7,0 55.6,0 55.5,0 55.2,0 54.8,0 54.7,0 54.6,0 54.5,0 54.4,0 54.3,0 54.2,0 54,0 53.2,0 53.2,0 53.1,0 53,0 
		52.9,0 52.7,0 52.5,0 52.2,0 51.9,0 51.7,0 51.1,0 50.9,0 50.9,0 50.6,0 50.1,0 50,0 49.8,0 49.8,0 49.7,0 49.5,0 49.4,0 49.3,0 
		48.7,0 48.6,0 48.5,0 48.4,0 48.3,0 48.1,0 47.3,0 47.1,0 47,0 46.9,0 46.5,0 46.4,0 46.3,0 46,0 45.3,0 45,0 44.9,0 44.8,0 
		44.7,0 44,0 44,0 43.9,0 43.9,0 43.7,0 43.5,0 43.4,0 42.8,0 42.5,0 42.4,0 42.3,0 41.7,0 41.5,0 41.2,0 40.9,0 40.7,0 40.5,0 
		40.4,0 40.2,0 40.1,0 39.4,0 39.2,0 39.1,0 38.9,0 38.8,0 38.6,0 38.2,0 37.9,0 37.8,0 37.7,0 37.5,0 36.9,0 36.6,0 36.3,0 35.9,0 
		35.6,0 35.3,0 35,0 34.8,0 34.6,0 34.5,0 34.3,0 34.2,0 34,0 33.2,0 33.2,0 33,0 32.9,0 32.7,0 32.3,0 32,0 31.7,0 31.7,0 30.7,0 
		30.4,0 30,0 29.7,0 29.4,0 29.2,0 28.7,0 28.6,0 28.4,0 28.3,0 28.1,0 27.3,0 27.1,0 27,0 26.9,0 26.2,0 25.9,0 24.6,0 24,0 
		23.9,0 23.5,0 22.8,0 22.5,0 22.4,0 22.3,0 21.5,0 21.2,0 20.9,0 20,0 18.2,0 17.9,0 17.7,0 16.9,0 16.6,0 16.3,0 15.3,0 15,0 
		12.3,0 12,0 11.7,0 10.7,0 10.4,0 9.2,0 6.2,0 5.9,0 4.6,0 0,0 0,180 4.6,180 5.9,180 6.2,180 9.2,180 10.4,180 10.7,180 11.7,180 
		12,180 12.3,180 15,180 15.3,180 16.3,180 16.6,180 16.9,180 17.7,180 17.9,180 18.2,180 20,180 20.9,180 21.2,180 21.5,180 
		22.3,180 22.4,180 22.5,180 22.8,180 23.5,180 23.9,180 24,180 24.6,180 25.9,180 26.2,180 26.9,180 27,180 27.1,180 27.3,180 
		28.1,180 28.3,180 28.4,180 28.6,180 28.7,180 29.2,180 29.4,180 29.7,180 30,180 30.4,180 30.7,180 31.7,180 31.7,180 32,180 
		32.3,180 32.7,180 32.9,180 33,180 33.2,180 33.2,180 34,180 34.2,180 34.3,180 34.5,180 34.6,180 34.8,180 35,180 35.3,180 
		35.6,180 35.9,180 36.3,180 36.6,180 36.9,180 37.5,180 37.7,180 37.8,180 37.9,180 38.2,180 38.6,180 38.8,180 38.9,180 39.1,180 
		39.2,180 39.4,180 40.1,180 40.2,180 40.4,180 40.5,180 40.7,180 40.9,180 41.2,180 41.5,180 41.7,180 42.3,180 42.4,180 42.5,180 
		42.8,180 43.4,180 43.5,180 43.7,180 43.9,180 43.9,180 44,180 44,180 44.7,180 44.8,180 44.9,180 45,180 45.3,180 46,180 
		46.3,180 46.4,180 46.5,180 46.9,180 47,180 47.1,180 47.3,180 48.1,180 48.3,180 48.4,180 48.5,180 48.6,180 48.7,180 49.3,180 
		49.4,180 49.5,180 49.7,180 49.8,180 49.8,180 50,180 50.1,180 50.6,180 50.9,180 50.9,180 51.1,180 51.7,180 51.9,180 52.2,180 
		52.5,180 52.7,180 52.9,180 53,180 53.1,180 53.2,180 53.2,180 54,180 54.2,180 54.3,180 54.4,180 54.5,180 54.6,180 54.7,180 
		54.8,180 55.2,180 55.5,180 55.6,180 55.7,180 55.7,180 55.9,180 56,180 56.3,180 56.5,180 56.8,180 57.1,180 57.5,180 57.8,180 
		58.1,180 58.4,180 58.6,180 58.8,180 58.9,180 59,180 59.1,180 59.2,180 59.3,180 59.4,180 60.1,180 60.2,180 60.2,180 60.4,180 
		60.5,180 60.5,180 60.7,180 60.9,180 61.1,180 61.4,180 61.6,180 61.7,180 61.7,180 61.8,180 62.1,180 62.6,180 63,180 63.4,180 
		63.7,180 63.9,180 64,180 64.2,180 64.7,180 64.8,180 64.8,180 64.9,180 65,180 65.1,180 65.3,180 65.4,180 66,180 66.2,180 
		66.3,180 66.4,180 66.4,180 66.4,180 66.5,180 66.7,180 67.2,180 67.5,180 67.5,180 67.8,180 68,180 68.5,180 68.8,180 69.3,180 
		69.5,180 69.8,180 69.8,180 70.1,180 70.6,180 70.8,180 70.9,180 70.9,180 71,180 71,180 71.1,180 71.3,180 71.9,180 72.1,180 
		72.2,180 72.3,180 72.4,180 72.5,180 72.6,180 72.6,180 73.1,180 73.3,180 73.4,180 73.7,180 74,180 74.4,180 74.7,180 75.2,180 
		75.5,180 75.6,180 75.7,180 75.7,180 76,180 76.3,180 76.5,180 76.7,180 76.8,180 76.9,180 77,180 77.1,180 77.1,180 77.2,180 
		77.9,180 78.1,180 78.1,180 78.2,180 78.4,180 78.5,180 78.6,180 78.8,180 79,180 79.3,180 79.5,180 79.8,180 80.2,180 80.5,180 
		80.9,180 81.1,180 81.4,180 81.5,180 81.6,180 81.7,180 81.8,180 81.8,180 82.1,180 82.5,180 82.6,180 82.7,180 82.8,180 83,180 
		83,180 83.1,180 83.4,180 84.1,180 84.1,180 84.2,180 84.3,180 84.4,180 84.6,180 84.8,180 85.1,180 85.4,180 85.7,180 86.2,180 
		86.4,180 86.4,180 86.7,180 87.2,180 87.3,180 87.5,180 87.5,180 87.6,180 87.8,180 87.9,180 88,180 88.7,180 88.7,180 88.8,180 
		88.9,180 89,180 89.2,180 90,180 90.3,180 90.3,180 90.5,180 90.8,180 91,180 91,180 91.3,180 92.1,180 92.3,180 92.4,180 
		92.6,180 92.6,180 93.3,180 93.3,180 93.4,180 93.5,180 93.7,180 93.8,180 94,180 94.6,180 94.8,180 94.9,180 95.1,180 95.6,180 
		95.8,180 96.2,180 96.5,180 96.7,180 96.9,180 97,180 97.1,180 97.2,180 97.9,180 98.1,180 98.2,180 98.5,180 98.6,180 98.8,180 
		99.1,180 99.5,180 99.5,180 99.6,180 99.8,180 100.4,180 100.7,180 101,180 101.5,180 101.8,180 102,180 102.3,180 102.5,180 
		102.7,180 102.8,180 103,180 103.1,180 103.4,180 104.1,180 104.1,180 104.3,180 104.4,180 104.6,180 105,180 105.3,180 105.6,180 
		105.7,180 106.6,180 106.9,180 107.3,180 107.6,180 107.9,180 108.2,180 108.7,180 108.7,180 108.9,180 109,180 109.2,180 110,180 
		110.3,180 110.3,180 110.5,180 111.2,180 111.5,180 112.8,180 113.3,180 113.5,180 113.8,180 114.6,180 114.8,180 114.9,180 
		115.1,180 115.8,180 116.2,180 116.5,180 117.3,180 119.1,180 119.5,180 119.6,180 120.4,180 120.7,180 121,180 122,180 122.3,180 
		125,180 125.3,180 125.6,180 126.6,180 126.9,180 128.2,180 131.2,180 131.5,180 132.8,180 137.3,180 137.3,0 	"/>
</g>
<g id="figure">
	<g>
		<g>
			<g>
				<path d="M9.9,121.4c0.3-1.7,1.1-2.4,2.1-2.9l2.9-1.6l5.7-3.3l11.5-6.6c7.7-4.3,15.3-8.7,22.8-13.2c1.9-1.2,3.7-2.3,5.5-3.5
					l1.3-0.9l1.3-1c0.9-0.7,1.7-1.4,2.5-2.1c3.3-2.9,6.5-5.8,9.7-8.9c3.1-3.1,6.4-6.1,9.1-9.5c1.4-1.7,2.8-3.4,4.4-5
					c1.5-1.6,3.2-3.1,5.3-4.1l1.2-0.6l-0.5,1.2c-1.2,3.3-3.2,6-5.3,8.6c-2,2.7-4.1,5.3-6.2,7.9c-4.2,5.2-8.4,10.4-12.7,15.5
					c-4.2,5.2-8.5,10.3-12.6,15.6c-2.1,2.6-4.1,5.3-6.3,7.8c-1.1,1.3-2.2,2.6-3.3,3.8c-0.6,0.6-1.1,1.3-1.8,1.9
					c-0.3,0.3-0.6,0.6-0.9,0.9l-0.5,0.5l-0.3,0.3l-0.2,0.2l-0.1,0.1l-0.2,0.1c-0.1,0.1-0.2,0.1-0.3,0.2l0.4-0.2
					c-0.3,0.2-0.7,0.4-1.1,0.5c-0.4,0.1-0.9,0.1-1.3,0.1c-0.5,0-0.9,0.1-1.4,0.1c-0.5,0-1-0.1-1.6-0.2l-0.2-0.2
					c0-0.6,0.1-1.1,0.2-1.6c0.1-0.5,0.3-0.9,0.4-1.3c0.1-0.4,0.3-0.9,0.4-1.3c0.2-0.4,0.4-0.7,0.7-0.9l0.4-0.2
					c-0.1,0-0.1,0.1-0.2,0.1c-0.1,0-0.1,0.1-0.1,0.1l0,0l0,0l0.2-0.2l0.4-0.4L42,116l1.7-1.8l3.4-3.6l6.8-7.3
					c4.6-4.9,8.9-9.9,13.2-15L80,73.1c2.2-2.5,4.4-5,6.6-7.5c2.2-2.5,4.4-5,7.4-6.9l0.8,0.7c-0.9,2.2-2.3,3.9-3.8,5.5
					c-1.5,1.6-3.2,3.1-4.8,4.5c-3.4,2.9-6.4,6.1-9.5,9.2c-3.1,3.1-6.3,6.2-9.6,9.2c-0.8,0.8-1.6,1.5-2.5,2.2l-1.3,1.1l-1.3,1.1
					c-1.8,1.4-3.7,2.6-5.5,3.8c-7.4,4.8-15,9.4-22.5,14c-3.8,2.2-7.6,4.5-11.4,6.7l-5.8,3.3l-2.9,1.6c-0.9,0.6-2,1-3.6,0.3
					L9.9,121.4z"/>
			</g>
			<g>
				<path d="M45.1,106.9c0.2,0.3,0.5,0.6,0.6,0.8l0.2,0.4c0.1,0.1,0.1,0.2,0.1,0.3c0.1,0.4,0,0.7,0,1.1c-0.1,0.7-0.2,1.4-0.2,2
					c0,0.3-0.1,0.6-0.1,0.8c0,0.2,0,0.4,0,0.3c0,0,0-0.1-0.1-0.1c0,0.1,0.2,0.2,0.3,0.4c0.2,0.3,0.3,0.5,0.4,0.7l0.4,0.9
					c0.2,0.4,0.3,0.6,0.7,0.8c0.4,0.2,1,0.4,1.7,0.4c1.3,0.1,2.8-0.1,4.2-0.4l0.5,2.3c-1.5,0.4-3,0.8-4.7,0.9
					c-0.9,0-1.8,0.1-2.8-0.2c-0.5-0.1-1-0.3-1.5-0.7c-0.5-0.3-0.9-0.8-1.2-1.2c-0.3-0.4-0.5-0.8-0.7-1.1c-0.1-0.1-0.2-0.2-0.2-0.3
					c0-0.1,0,0-0.1-0.1c-0.2-0.2-0.3-0.4-0.4-0.6c-0.4-0.8-0.5-1.4-0.5-1.9c0-0.5,0-1,0-1.5c0.1-0.9,0.4-1.7,0.7-2.5
					c0.2-0.4,0.3-0.8,0.6-1.1c0.1-0.1,0.2-0.2,0.3-0.2l0.4-0.2c0.2-0.1,0.6-0.2,1-0.3L45.1,106.9z"/>
			</g>
		</g>
		<g>
			<g>
				<path d="M78.1,106.9c1.3,1.4,0.8,2.1,0.8,2.9c-0.1,0.8-0.2,1.6-0.3,2.2c0,0.3,0,0.5,0,0.5c-0.2-0.3,0.1,0.2,0.3,0.4
					c0.5,0.5,1,0.9,1.6,1.3c1.2,0.8,2.8,1.1,4.5,1c0.4,0,0.8,0,1.2-0.1c0.4,0,0.7-0.1,1.1-0.2c0.8-0.2,1.6-0.5,2.4-0.9
					c3.2-1.4,6.2-3.3,9.1-5.2l4.4-3c0.7-0.5,1.5-1,2.2-1.5l1.1-0.7c0.4-0.2,0.6-0.7,1.6,0l0.2,0.2c0.2,1.1-0.3,1.2-0.6,1.5l-1.1,0.8
					c-0.7,0.5-1.5,1-2.2,1.6c-1.5,1-3,2-4.5,2.9c-3.1,1.8-6.1,3.7-9.4,5.3c-0.8,0.4-1.7,0.8-2.6,1.1c-0.5,0.2-1,0.3-1.5,0.4
					c-0.5,0.1-0.9,0.2-1.4,0.2c-1.9,0.2-3.9,0.2-6-0.5c-1-0.3-2-0.8-2.9-1.6c-0.2-0.2-0.4-0.4-0.6-0.6l-0.1-0.1l-0.1-0.1l-0.1-0.2
					c-0.2-0.2-0.3-0.5-0.4-0.7c-0.4-0.9-0.4-1.5-0.4-2.1c0-1.2,0.2-2.2,0.6-3.1c0.4-0.9,0.5-1.9,2.5-2.1L78.1,106.9z"/>
			</g>
		</g>
		<g>
			<path d="M46.1,115.3c0.7-0.5,1-0.7,1.3-0.8c0.3-0.1,0.4,0.1,0.6,0.1c0.4,0.1,0.8,0.2,1.2,0.3c0.8,0.1,1.7,0.1,2.6-0.1
				c0.9-0.1,1.8-0.4,2.7-0.8c0.9-0.3,1.9-0.7,2.8-1.1c3.8-1.6,7.5-3.7,11.1-5.8c0.9-0.5,1.8-1.1,2.6-1.7l2.6-1.8l5.2-3.7
				c3.4-2.5,6.9-5,10.3-7.5c3.4-2.5,6.8-5.1,10.2-7.7c1.7-1.3,3.4-2.6,5-3.9c0.8-0.7,1.6-1.4,2.3-2.1l2.3-2.2c1.5-1.5,3-3,4.5-4.5
				c1.5-1.5,2.8-3.2,4.2-4.8c1.3-1.7,2.7-3.3,4.3-4.7c1.5-1.5,3.2-2.8,5.5-3.5l0,0l0,0c-0.8,3.6-2.9,6.3-4.9,8.9
				c-2,2.7-4.1,5.3-6.1,7.9c-4.1,5.2-8.4,10.3-12.7,15.5c-4.2,5.2-8.5,10.3-12.7,15.6c-2.1,2.6-4.1,5.3-6.3,7.8
				c-1.1,1.3-2.2,2.6-3.3,3.8c-0.6,0.6-1.1,1.3-1.8,1.9c-0.3,0.3-0.6,0.6-0.9,0.9l-0.5,0.5l-0.3,0.3l-0.2,0.2l-0.1,0.1l-0.2,0.1
				c-0.1,0.1-0.2,0.1-0.3,0.2l0.4-0.2c-0.3,0.2-0.7,0.4-1.1,0.5c-0.4,0.1-0.9,0.1-1.3,0.1c-0.5,0-0.9,0.1-1.4,0.1
				c-0.5,0-1-0.1-1.6-0.2l-0.2-0.2c0-0.6,0.1-1.1,0.2-1.6c0.1-0.5,0.3-0.9,0.4-1.3c0.1-0.4,0.3-0.9,0.4-1.3c0.2-0.4,0.4-0.7,0.7-0.9
				l0.4-0.2c-0.1,0-0.1,0.1-0.2,0.1c-0.1,0-0.1,0.1-0.1,0.1l0,0l0,0l0.2-0.2l0.4-0.4L75,116l1.7-1.8l3.4-3.6l6.8-7.3
				c4.6-4.9,8.9-10,13.2-15c4.3-5.1,8.5-10.2,12.9-15.3c2.2-2.5,4.4-5,6.6-7.5c2.2-2.5,4.4-5,7.8-6.5l0,0l0,0
				c-0.6,2.4-1.8,4.1-3.3,5.7c-1.4,1.6-3,3-4.6,4.4c-1.6,1.4-3.3,2.8-4.7,4.3l-4.5,4.5l-2.3,2.3c-0.8,0.7-1.6,1.5-2.4,2.2
				c-1.6,1.4-3.3,2.7-5,4c-3.4,2.6-6.7,5.2-10.1,7.8c-6.8,5.1-13.6,10.2-20.5,15.3c-3.5,2.5-7.2,4.7-11.1,6.7c-1,0.5-2,0.9-3,1.3
				c-1,0.4-2.1,0.8-3.4,1c-1.2,0.2-2.5,0.2-3.8,0c-0.6-0.1-1.3-0.3-1.9-0.6c-0.3-0.1-0.6-0.2-0.8-0.6c-0.1-0.2-0.2-0.4-0.2-0.7
				c0-0.3,0-0.6,0.1-1L46.1,115.3z"/>
		</g>
	</g>
</g>
</svg>
