<?xml version="1.0" encoding="utf-8"?>
<!-- Generator: Adobe Illustrator 22.1.0, SVG Export Plug-In . SVG Version: 6.00 Build 0)  -->
<svg version="1.1" xmlns="http://www.w3.org/2000/svg" xmlns:xlink="http://www.w3.org/1999/xlink" x="0px" y="0px"
	 viewBox="0 0 123.6 180" style="enable-background:new 0 0 123.6 180;" xml:space="preserve">
<style type="text/css">
	.st0{display:none;}
	.st1{display:inline;fill:#FF0000;}
</style>
<g id="bg" class="st0">
	<polygon class="st1" points="118.6,0 117.2,0 116.9,0 113.6,0 112.2,0 111.8,0 110.8,0 110.5,0 110.1,0 107.2,0 106.8,0 105.8,0 
		105.5,0 105.1,0 104.3,0 104.1,0 103.7,0 103.6,0 100.8,0 100.5,0 100.1,0 99.3,0 99.1,0 98.7,0 98.6,0 97.9,0 97.5,0 97.3,0 
		97.2,0 96.9,0 94.3,0 94.1,0 93.7,0 93.6,0 92.9,0 92.5,0 92.3,0 92.2,0 91.8,0 91.5,0 91.1,0 90.8,0 90.8,0 90.5,0 90.1,0 87.9,0 
		87.5,0 87.3,0 87.2,0 86.8,0 86.5,0 86.1,0 85.8,0 85.8,0 85.5,0 85.1,0 84.7,0 84.4,0 84.3,0 84.1,0 83.7,0 81.5,0 81.1,0 80.8,0 
		80.8,0 80.5,0 80.1,0 79.7,0 79.4,0 79.3,0 79.1,0 78.7,0 78,0 77.9,0 77.5,0 77.3,0 75.6,0 74.7,0 74.4,0 74.3,0 74.1,0 73.7,0 
		73,0 72.9,0 72.5,0 72.3,0 71.5,0 71.1,0 70.8,0 70.6,0 69.2,0 68.9,0 68,0 67.9,0 67.5,0 67.3,0 66.5,0 66.1,0 65.8,0 65.6,0 
		64.7,0 64.4,0 64.2,0 63.8,0 62.8,0 62.5,0 62.1,0 61.5,0 61.1,0 60.8,0 59.7,0 59.4,0 59.2,0 58.8,0 58,0 57.8,0 57.5,0 57.1,0 
		56.3,0 56.1,0 55.7,0 55.6,0 54.7,0 54.4,0 53,0 52.8,0 52.5,0 52.1,0 51.3,0 51.1,0 50.7,0 50.6,0 49.9,0 49.5,0 49.3,0 49.2,0 
		48.9,0 48,0 46.3,0 46.1,0 45.7,0 45.6,0 44.9,0 44.5,0 44.3,0 44.2,0 43.8,0 43.5,0 43.1,0 42.8,0 42.8,0 42.5,0 42.1,0 39.9,0 
		39.5,0 39.3,0 39.2,0 38.8,0 38.5,0 38.1,0 37.8,0 37.8,0 37.5,0 37.1,0 36.7,0 36.4,0 36.3,0 36.1,0 35.7,0 33.5,0 33.1,0 32.8,0 
		32.8,0 32.5,0 32.1,0 31.7,0 31.4,0 31.3,0 31.1,0 30.7,0 30,0 29.9,0 29.5,0 29.3,0 26.7,0 26.4,0 26.3,0 26.1,0 25.7,0 25,0 
		24.9,0 24.5,0 24.3,0 23.5,0 23.1,0 22.8,0 20,0 19.9,0 19.5,0 19.3,0 18.5,0 18.1,0 17.8,0 16.7,0 16.4,0 13.5,0 13.1,0 12.8,0 
		11.7,0 11.4,0 10,0 6.7,0 6.4,0 5,0 0,0 0,180 5,180 6.4,180 6.7,180 10,180 11.4,180 11.7,180 12.8,180 13.1,180 13.5,180 
		16.4,180 16.7,180 17.8,180 18.1,180 18.5,180 19.3,180 19.5,180 19.9,180 20,180 22.8,180 23.1,180 23.5,180 24.3,180 24.5,180 
		24.9,180 25,180 25.7,180 26.1,180 26.3,180 26.4,180 26.7,180 29.3,180 29.5,180 29.9,180 30,180 30.7,180 31.1,180 31.3,180 
		31.4,180 31.7,180 32.1,180 32.5,180 32.8,180 32.8,180 33.1,180 33.5,180 35.7,180 36.1,180 36.3,180 36.4,180 36.7,180 37.1,180 
		37.5,180 37.8,180 37.8,180 38.1,180 38.5,180 38.8,180 39.2,180 39.3,180 39.5,180 39.9,180 42.1,180 42.5,180 42.8,180 42.8,180 
		43.1,180 43.5,180 43.8,180 44.2,180 44.3,180 44.5,180 44.9,180 45.6,180 45.7,180 46.1,180 46.3,180 48,180 48.9,180 49.2,180 
		49.3,180 49.5,180 49.9,180 50.6,180 50.7,180 51.1,180 51.3,180 52.1,180 52.5,180 52.8,180 53,180 54.4,180 54.7,180 55.6,180 
		55.7,180 56.1,180 56.3,180 57.1,180 57.5,180 57.8,180 58,180 58.8,180 59.2,180 59.4,180 59.7,180 60.8,180 61.1,180 61.5,180 
		62.1,180 62.5,180 62.8,180 63.8,180 64.2,180 64.4,180 64.7,180 65.6,180 65.8,180 66.1,180 66.5,180 67.3,180 67.5,180 67.9,180 
		68,180 68.9,180 69.2,180 70.6,180 70.8,180 71.1,180 71.5,180 72.3,180 72.5,180 72.9,180 73,180 73.7,180 74.1,180 74.3,180 
		74.4,180 74.7,180 75.6,180 77.3,180 77.5,180 77.9,180 78,180 78.7,180 79.1,180 79.3,180 79.4,180 79.7,180 80.1,180 80.5,180 
		80.8,180 80.8,180 81.1,180 81.5,180 83.7,180 84.1,180 84.3,180 84.4,180 84.7,180 85.1,180 85.5,180 85.8,180 85.8,180 86.1,180 
		86.5,180 86.8,180 87.2,180 87.3,180 87.5,180 87.9,180 90.1,180 90.5,180 90.8,180 90.8,180 91.1,180 91.5,180 91.8,180 92.2,180 
		92.3,180 92.5,180 92.9,180 93.6,180 93.7,180 94.1,180 94.3,180 96.9,180 97.2,180 97.3,180 97.5,180 97.9,180 98.6,180 98.7,180 
		99.1,180 99.3,180 100.1,180 100.5,180 100.8,180 103.6,180 103.7,180 104.1,180 104.3,180 105.1,180 105.5,180 105.8,180 
		106.8,180 107.2,180 110.1,180 110.5,180 110.8,180 111.8,180 112.2,180 113.6,180 116.9,180 117.2,180 118.6,180 123.6,180 
		123.6,0 	"/>
</g>
<g id="figure">
	<g>
		<g>
			<path d="M9.9,121.4c0.3-1.7,1.1-2.4,2.1-2.9l2.9-1.6l5.7-3.3l11.5-6.6c7.7-4.3,15.3-8.7,22.8-13.2c1.9-1.2,3.7-2.3,5.5-3.5
				l1.3-0.9l1.3-1c0.9-0.7,1.7-1.4,2.5-2.1c3.3-2.9,6.5-5.8,9.7-8.9c3.1-3.1,6.4-6.1,9.1-9.5c1.4-1.7,2.8-3.4,4.4-5
				c1.5-1.6,3.2-3.1,5.3-4.1l1.2-0.6l-0.5,1.2c-1.2,3.3-3.2,6-5.3,8.6c-2,2.7-4.1,5.3-6.2,7.9c-4.2,5.2-8.4,10.4-12.7,15.5
				c-4.2,5.2-8.5,10.3-12.6,15.6c-2.1,2.6-4.1,5.3-6.3,7.8c-1.1,1.3-2.2,2.6-3.3,3.8c-0.6,0.6-1.1,1.3-1.8,1.9
				c-0.3,0.3-0.6,0.6-0.9,0.9l-0.5,0.5l-0.3,0.3l-0.2,0.2l-0.1,0.1l-0.2,0.1c-0.1,0.1-0.2,0.1-0.3,0.2l0.4-0.2
				c-0.3,0.2-0.7,0.4-1.1,0.5c-0.4,0.1-0.9,0.1-1.3,0.1c-0.5,0-0.9,0.1-1.4,0.1c-0.5,0-1-0.1-1.6-0.2l-0.2-0.2
				c0-0.6,0.1-1.1,0.2-1.6c0.1-0.5,0.3-0.9,0.4-1.3c0.1-0.4,0.3-0.9,0.4-1.3c0.2-0.4,0.4-0.7,0.7-0.9l0.4-0.2
				c-0.1,0-0.1,0.1-0.2,0.1c-0.1,0-0.1,0.1-0.1,0.1l0,0l0,0l0.2-0.2l0.4-0.4L42,116l1.7-1.8l3.4-3.6l6.8-7.3
				c4.6-4.9,8.9-9.9,13.2-15L80,73.1c2.2-2.5,4.4-5,6.6-7.5c2.2-2.5,4.4-5,7.4-6.9l0.8,0.7c-0.9,2.2-2.3,3.9-3.8,5.5
				c-1.5,1.6-3.2,3.1-4.8,4.5c-3.4,2.9-6.4,6.1-9.5,9.2c-3.1,3.1-6.3,6.2-9.6,9.2c-0.8,0.8-1.6,1.5-2.5,2.2l-1.3,1.1l-1.3,1.1
				c-1.8,1.4-3.7,2.6-5.5,3.8c-7.4,4.8-15,9.4-22.5,14c-3.8,2.2-7.6,4.5-11.4,6.7l-5.8,3.3l-2.9,1.6c-0.9,0.6-2,1-3.6,0.3L9.9,121.4
				z"/>
		</g>
		<g>
			<path d="M68.9,121c0.4-1.2,1.2-1.9,1.9-2.6c0.7-0.8,1.4-1.5,2.2-2.1c1.5-1.4,3.1-2.5,4.7-3.8c1.5-1.3,3-2.7,4.4-4.1
				c1.4-1.4,2.8-2.8,4.2-4.1c1.3-1.4,2.6-2.7,3.2-3.9c0.1-0.1,0.2-0.3,0.3-0.4c0.1-0.1,0.2-0.3,0.3-0.4c0.1-0.1,0.2-0.4,0.3-0.6
				l0.2-0.4l0.1-0.2l0,0c0.1-0.1,0,0.1,0.2,0.4C90.9,99,91.1,99,91,99c-0.1-0.1-0.8-0.1-1.3,0.2c-0.3,0.1-0.5,0.2-0.9,0.5l-1.3,0.8
				c-1.7,1-3.5,2-5.3,3c-1.8,1-3.5,2.1-5.2,3.1c-1.7,1-3.6,2-5.4,2.9l-10.9,5.7c-0.9,0.5-1.8,0.9-2.8,1.4c-1,0.4-1.9,0.9-3,1.2
				c-0.3,0.1-0.6,0.2-0.9,0.2c-0.3,0.1-0.6,0.1-0.8,0.1c-0.5,0.1-1.1,0.1-1.7,0.2c-1.1,0.1-2.3,0-3.5-0.3c-1.2-0.3-2.3-0.7-3.4-1.5
				c-0.5-0.3-1-0.8-1.4-1.2c-0.2-0.3-0.4-0.3-0.8-0.9c-0.3-0.5-0.4-1-0.5-1.4c-0.2-1.6,0.1-2.6,0.5-3.7c0.1-0.3,0.2-0.5,0.3-0.8
				c0.1-0.2,0.4-0.4,0.6-0.7c0.5-0.4,0.9-0.8,1.4-1.2l0.5,0.2c0.1,0.6,0.2,1.1,0.4,1.7c0.1,0.3,0.2,0.6,0.2,0.8
				c0,0.2-0.1,0.5-0.1,0.7c-0.1,0.9-0.2,1.9-0.1,2.3c0,0.1,0.1,0.1,0,0.1c-0.1-0.2,0.1,0.1,0.2,0.2c0.3,0.3,0.6,0.5,0.9,0.7
				c0.6,0.4,1.4,0.8,2.2,1c0.8,0.2,1.7,0.3,2.6,0.3c0.4,0,0.9,0,1.4-0.1c0.2,0,0.5,0,0.7-0.1c0.2,0,0.3-0.1,0.5-0.1
				c0.8-0.3,1.7-0.6,2.6-1c0.9-0.4,1.8-0.9,2.7-1.3c3.5-1.8,7-4,10.3-6.3c1.7-1.1,3.4-2.3,5.1-3.3c1.7-1,3.5-2.1,5.1-3.2
				c1.7-1.1,3.4-2.3,5.1-3.4c0.4-0.3,0.9-0.5,1.4-0.8c0.4-0.2,1.2-0.6,1.8-0.8c0.7-0.2,1.4-0.4,2.1-0.5c0.8-0.1,1.6,0,2.5,0.2
				c0.9,0.3,2,0.9,2.7,2.1c0.3,0.6,0.5,1.2,0.6,1.8c0.1,0.6,0,1.1,0,1.6l-0.1,0.3c0,0.1,0,0.1,0,0.2l0,0.3c0,0.3-0.1,0.6-0.2,0.9
				c-0.1,0.7-0.3,1.4-0.6,2c-1.2,2.4-2.8,4-4.4,5.5c-1.6,1.4-3.3,2.7-5.1,3.8c-0.9,0.6-1.8,1.1-2.6,1.7l-2.6,1.7
				c-1.7,1.1-3.4,2.3-5.2,3.2c-0.9,0.5-1.8,0.9-2.8,1.3C71.1,120.7,70.2,121.1,68.9,121L68.9,121z"/>
		</g>
		<g>
			<path d="M68.8,120.9c0.1-0.4,0.2-0.6,0.3-0.8c0.1-0.2,0.3-0.4,0.5-0.6c0.4-0.3,0.7-0.4,1.1-0.6c0.8-0.3,1.6-0.6,2.4-0.9
				c1.6-0.7,3.2-1.4,5.2-1.9c1-0.2,2-0.4,3.4-0.1c0.7,0.1,1.5,0.5,2.2,1.1c0.7,0.6,1.2,1.5,1.5,2.3c0.5,1.6,0.4,2.9,0.2,4
				c-0.2,1.1-0.5,2.1-0.8,3c-1.4,3.6-3.2,6.7-5.4,9.4c-2.3,2.7-4.4,5.3-6.9,7.7c-2.4,2.4-5.1,4.7-7.7,7c-2.6,2.2-5.3,4.6-8.3,6.4
				c-1.5,0.9-3.1,1.8-5,2.3c-0.9,0.3-1.9,0.4-3,0.3c-1.1-0.1-2.3-0.5-3.2-1.4c-0.5-0.4-0.8-0.9-1.1-1.4c-0.1-0.3-0.2-0.5-0.3-0.8
				c0-0.2-0.1-0.3-0.1-0.4c0-0.2,0-0.4,0-0.6c0-0.7,0.2-1.2,0.4-1.7c0.2-0.5,0.4-0.9,0.6-1.3c0.9-1.6,1.9-3,2.9-4.4
				c4.3-5.4,8.9-10.3,14-15c1.3-1.2,2.6-2.3,4-3.3c1.4-1,2.8-2,4.2-2.9c2.8-1.9,5.6-3.7,8.5-5.6c5.7-3.6,11.4-7.3,17.1-10.8
				c2.9-1.8,5.8-3.5,8.7-5.2l4.4-2.6l2.2-1.3c0.8-0.3,1.2-1.3,2.8-0.3l0.3,0.4c0.2,1.9-0.9,1.8-1.5,2.3l-2.1,1.4l-4.3,2.7
				c-2.8,1.8-5.7,3.6-8.6,5.3c-5.7,3.6-11.5,7-17.2,10.6c-2.8,1.8-5.7,3.6-8.5,5.5c-1.4,0.9-2.8,1.9-4.1,2.8c-1.3,0.9-2.6,2-3.9,3.1
				c-2.5,2.2-5,4.5-7.3,6.8c-2.3,2.4-4.5,4.9-6.5,7.5c-1,1.3-1.9,2.7-2.6,4c-0.3,0.7-0.6,1.4-0.5,1.8c0,0,0,0.1,0,0.1l0,0.2
				c0,0.1,0.1,0.2,0.1,0.4c0.1,0.2,0.3,0.4,0.4,0.6c0.7,0.6,2,0.6,3.4,0.1c1.4-0.5,2.7-1.3,4-2.2c2.6-1.9,5-4.2,7.1-6.7
				c2.1-2.5,4-5.3,5.9-8c0.9-1.4,1.9-2.7,2.9-4.1c0.5-0.7,1-1.3,1.4-2l1.3-2c0.9-1.4,1.8-2.7,2.7-4c0.9-1.3,1.8-2.5,2.5-3.8
				c0.4-0.6,0.7-1.2,0.9-1.7c0.3-0.5,0.4-1,0.5-1c0.1,0,0.2,0.1,0.3,0.1c0.1,0,0.2-0.1,0-0.2c-0.2-0.2-0.9-0.5-1.6-0.5
				c-1.4-0.2-3.1,0-4.7,0.3c-0.8,0.2-1.5,0.5-2.3,0.8c-0.4,0.1-0.8,0.3-1.2,0.3c-0.2,0-0.5,0-0.7-0.1c-0.2,0-0.5-0.1-0.8-0.3
				L68.8,120.9z"/>
		</g>
	</g>
</g>
</svg>
