<?xml version="1.0" encoding="utf-8"?>
<!-- Generator: Adobe Illustrator 22.1.0, SVG Export Plug-In . SVG Version: 6.00 Build 0)  -->
<svg version="1.1" xmlns="http://www.w3.org/2000/svg" xmlns:xlink="http://www.w3.org/1999/xlink" x="0px" y="0px"
	 viewBox="0 0 117.8 180" style="enable-background:new 0 0 117.8 180;" xml:space="preserve">
<style type="text/css">
	.st0{display:none;}
	.st1{display:inline;fill:#FF0000;}
</style>
<g id="bg" class="st0">
	<polygon class="st1" points="113.1,0 111.8,0 111.5,0 108.4,0 107.1,0 106.7,0 105.8,0 105.4,0 105.1,0 102.3,0 102,0 101,0 
		100.7,0 100.4,0 99.6,0 99.4,0 99.1,0 97.8,0 96.3,0 96,0 95.7,0 94.9,0 94.7,0 94.4,0 93.5,0 93.2,0 93.1,0 93,0 91.8,0 91.5,0 
		90.1,0 89.9,0 89.6,0 88.8,0 88.5,0 88.4,0 88.3,0 87.5,0 87.2,0 87.1,0 86.9,0 86.7,0 85.8,0 85.4,0 85.1,0 84.1,0 83.8,0 83.6,0 
		82.8,0 82.5,0 82.3,0 82.1,0 82,0 81.1,0 81,0 80.8,0 80.7,0 80.4,0 79.6,0 79.4,0 79.1,0 78.1,0 77.7,0 77.4,0 76.4,0 76.3,0 
		76.1,0 76,0 75.7,0 74.9,0 74.8,0 74.7,0 74.4,0 73.5,0 73.2,0 73,0 72.5,0 71.7,0 71.4,0 70.1,0 70.1,0 69.9,0 69.6,0 68.8,0 
		68.5,0 68.3,0 67.8,0 67.5,0 67.2,0 66.9,0 66.5,0 66.1,0 65.3,0 64.1,0 63.8,0 63.6,0 63,0 62.8,0 62.5,0 62.1,0 61.7,0 61.4,0 
		61.1,0 60.8,0 60.4,0 60.1,0 59.8,0 58.1,0 57.7,0 57.4,0 57,0 56.7,0 56.4,0 56.1,0 55.7,0 55.4,0 55.1,0 54.8,0 54.2,0 54.1,0 
		53.7,0 52.5,0 51.7,0 51.4,0 51,0 50.7,0 50.3,0 50.1,0 49.5,0 49.3,0 49,0 48.2,0 47.9,0 47.8,0 47.7,0 46.5,0 46.1,0 45.3,0 
		44.8,0 44.6,0 44.3,0 43.5,0 43.2,0 43,0 43,0 42.2,0 41.8,0 41.7,0 41.5,0 41.4,0 40.4,0 40.1,0 39.8,0 38.8,0 38.4,0 38.3,0 
		37.4,0 37.1,0 37,0 36.8,0 36.7,0 35.8,0 35.7,0 35.5,0 35.4,0 35.1,0 34.2,0 34.1,0 33.7,0 32.7,0 32.4,0 32.1,0 31.1,0 31,0 
		30.8,0 30.7,0 30.3,0 29.5,0 29.5,0 29.3,0 29,0 28.2,0 27.9,0 27.7,0 26.4,0 26,0 24.8,0 24.7,0 24.6,0 24.3,0 23.5,0 23.2,0 
		23,0 22.2,0 21.8,0 21.5,0 20,0 18.8,0 18.4,0 18.3,0 17.4,0 17.1,0 16.8,0 15.8,0 15.5,0 12.7,0 12.4,0 12.1,0 11.1,0 10.8,0 
		9.5,0 6.4,0 6,0 4.7,0 0,0 0,180 4.7,180 6,180 6.4,180 9.5,180 10.8,180 11.1,180 12.1,180 12.4,180 12.7,180 15.5,180 15.8,180 
		16.8,180 17.1,180 17.4,180 18.3,180 18.4,180 18.8,180 20,180 21.5,180 21.8,180 22.2,180 23,180 23.2,180 23.5,180 24.3,180 
		24.6,180 24.7,180 24.8,180 26,180 26.4,180 27.7,180 27.9,180 28.2,180 29,180 29.3,180 29.5,180 29.5,180 30.3,180 30.7,180 
		30.8,180 31,180 31.1,180 32.1,180 32.4,180 32.7,180 33.7,180 34.1,180 34.2,180 35.1,180 35.4,180 35.5,180 35.7,180 35.8,180 
		36.7,180 36.8,180 37,180 37.1,180 37.4,180 38.3,180 38.4,180 38.8,180 39.8,180 40.1,180 40.4,180 41.4,180 41.5,180 41.7,180 
		41.8,180 42.2,180 43,180 43,180 43.2,180 43.5,180 44.3,180 44.6,180 44.8,180 45.3,180 46.1,180 46.5,180 47.7,180 47.8,180 
		47.9,180 48.2,180 49,180 49.3,180 49.5,180 50.1,180 50.3,180 50.7,180 51,180 51.4,180 51.7,180 52.5,180 53.7,180 54.1,180 
		54.2,180 54.8,180 55.1,180 55.4,180 55.7,180 56.1,180 56.4,180 56.7,180 57,180 57.4,180 57.7,180 58.1,180 59.8,180 60.1,180 
		60.4,180 60.8,180 61.1,180 61.4,180 61.7,180 62.1,180 62.5,180 62.8,180 63,180 63.6,180 63.8,180 64.1,180 65.3,180 66.1,180 
		66.5,180 66.9,180 67.2,180 67.5,180 67.8,180 68.3,180 68.5,180 68.8,180 69.6,180 69.9,180 70.1,180 70.1,180 71.4,180 71.7,180 
		72.5,180 73,180 73.2,180 73.5,180 74.4,180 74.7,180 74.8,180 74.9,180 75.7,180 76,180 76.1,180 76.3,180 76.4,180 77.4,180 
		77.7,180 78.1,180 79.1,180 79.4,180 79.6,180 80.4,180 80.7,180 80.8,180 81,180 81.1,180 82,180 82.1,180 82.3,180 82.5,180 
		82.8,180 83.6,180 83.8,180 84.1,180 85.1,180 85.4,180 85.8,180 86.7,180 86.9,180 87.1,180 87.2,180 87.5,180 88.3,180 88.4,180 
		88.5,180 88.8,180 89.6,180 89.9,180 90.1,180 91.5,180 91.8,180 93,180 93.1,180 93.2,180 93.5,180 94.4,180 94.7,180 94.9,180 
		95.7,180 96,180 96.3,180 97.8,180 99.1,180 99.4,180 99.6,180 100.4,180 100.7,180 101,180 102,180 102.3,180 105.1,180 
		105.4,180 105.8,180 106.7,180 107.1,180 108.4,180 111.5,180 111.8,180 113.1,180 117.8,180 117.8,0 	"/>
</g>
<g id="figure">
	<g>
		<g>
			<path d="M108,67.9c0.4,1.1-0.2,1.3-0.5,1.8c-0.4,0.5-0.7,0.9-1.1,1.4c-0.7,0.9-1.5,1.7-2.3,2.6c-1.6,1.7-3.2,3.3-4.9,4.9
				c-1.7,1.6-3.4,3.1-5.3,4.7c-1.9,1.5-3.9,2.8-6,3.9c-2.1,1.1-4.3,2-6.7,2.7c-1.2,0.4-2.4,0.6-3.6,0.8c-1.3,0.1-2.6,0.2-4.1-0.1
				c-0.7-0.1-1.5-0.4-2.2-0.9c-0.4-0.2-0.7-0.5-1.1-0.8c-0.3-0.3-0.6-0.6-0.9-1c-1.1-1.5-1.3-3.4-1.2-4.9l0.2-2.3
				c0.1-0.7,0.2-1.5,0.5-2.1c0.7-1.2,1.9-2.1,4.4-1.7l0.8,0.6c1,2.2,1,3.2,0.6,4.1c-0.2,0.4-0.5,0.7-0.8,1.1
				c-0.3,0.3-0.5,0.7-0.6,1.1c-0.2,0.7-0.2,1.3-0.1,1.7c0,0.1,0.1,0.3,0.2,0.4c0.1,0.1,0.1,0.2,0.3,0.3c0.2,0.2,0.5,0.4,0.9,0.5
				c0.8,0.3,1.8,0.5,2.8,0.5c1,0,2.1-0.1,3.2-0.3c2.1-0.4,4.3-1.1,6.3-1.9c2-0.9,4-2,5.7-3.4c1.7-1.4,3.3-3.1,4.9-4.7
				c1.6-1.6,3.2-3.3,4.7-5c0.8-0.8,1.6-1.7,2.4-2.5c0.4-0.4,0.8-0.8,1.2-1.2c0.5-0.4,0.6-1,1.8-0.7L108,67.9z"/>
		</g>
		<g>
			<path d="M9.9,123.2c0.1-1.1,0.7-1.3,1.2-1.6l1.5-0.9l3.1-1.7c2.1-1.2,4.1-2.3,6.2-3.4c4.1-2.3,8.3-4.5,12.5-6.7l12.5-6.6
				c2.1-1.1,4.2-2.1,6.3-3.2c2.1-1,4.2-2.1,6.5-2.8l0.7-0.2l-0.1,1c-0.1,1-0.4,1.7-0.7,2.5c-0.3,0.7-0.7,1.4-1.1,2
				c-0.9,1.2-1.9,2.3-2.9,3.4l-5.9,6.7c-2,2.2-4.1,4.4-6.2,6.5c-0.5,0.5-1.1,1.1-1.6,1.6c-0.6,0.5-1.2,0.9-1.9,1.2l-2.2,1
				c-0.7,0.3-1.5,0.6-2.5,0.7l-0.6-0.8c1.5-1.7,3.3-2.9,5.1-4c1.8-1.1,3.7-2,5.6-3.1l11-6.5c3.7-2.2,7.3-4.3,11-6.4
				c3.7-2.2,7.5-4,11.6-5.5l0.9-0.3l-0.3,1.1c-0.2,0.8-0.5,1.5-0.8,2.3c-0.1,0.4-0.2,0.8-0.4,1.2c-0.2,0.4-0.4,0.6-0.7,0.9l-2.8,3.4
				c-1.9,2.3-3.9,4.5-5.9,6.7c-2,2.2-4,4.4-6,6.5c-1,1.1-2.1,2.1-3.2,3.1c-0.3,0.2-0.5,0.5-0.9,0.7c-0.3,0.2-0.7,0.3-1.2,0.4
				c-0.8,0.2-1.6,0.5-2.6,0.6l-0.6-0.8c2.1-3.5,5.6-4.6,8.8-6.3c3.1-1.7,6.3-3.5,9.4-5.2c3.1-1.8,6.2-3.5,9.4-5.3
				c1.6-0.9,3.2-1.7,4.7-2.6l2.4-1.2l1.2-0.6c0.2-0.1,0.4-0.2,0.7-0.1c0.3,0,0.6,0.1,0.9,0.3l0.1,0.2c0,0.4-0.1,0.7-0.2,1
				c-0.1,0.2-0.3,0.4-0.5,0.5l-1.1,0.7l-2.3,1.4c-1.5,0.9-3.1,1.9-4.6,2.8c-3.1,1.8-6.2,3.6-9.3,5.4c-3.1,1.8-6.2,3.6-9.3,5.4
				c-3,1.9-5.8,4.3-9.9,4.4l-0.7,0l0.1-0.8c0.1-1,0.3-1.8,0.5-2.6c0.1-0.4,0.2-0.9,0.4-1.2c0.2-0.3,0.4-0.6,0.7-0.9
				c0.9-1.2,1.9-2.3,2.9-3.4c2-2.2,4.1-4.3,6.1-6.4c2.1-2.1,4.2-4.2,6.3-6.3l3.2-3c0.3-0.2,0.5-0.5,0.9-0.7c0.3-0.2,0.8-0.3,1.1-0.5
				c0.8-0.3,1.5-0.6,2.3-0.9l0.6,0.8c-3.3,2.8-6.8,5.2-10.6,7.3c-3.7,2.1-7.4,4.2-11.1,6.3l-11.2,6.3c-1.9,1.1-3.6,2.2-5.5,3.3
				c-1.9,1-3.8,2-6,2.4l-0.7,0.1l0.1-0.9c0.1-0.9,0.4-1.7,0.7-2.5l0.9-2.2c0.3-0.7,0.7-1.4,1.2-2c0.5-0.6,1-1.1,1.5-1.6
				c2-2.2,4.1-4.3,6.3-6.4l6.6-6.1c1.1-1,2.1-2.1,3.4-3c0.6-0.4,1.3-0.8,2-1.2c0.7-0.3,1.5-0.6,2.4-0.8l0.6,0.8
				c-1.9,1.5-3.9,2.7-6,3.8c-2,1.2-4.1,2.4-6.2,3.5l-12.5,6.7c-4.2,2.2-8.3,4.5-12.5,6.6c-2.1,1.1-4.2,2.2-6.3,3.2l-3.2,1.6
				l-1.6,0.8c-0.5,0.3-1,0.6-2,0.1L9.9,123.2z"/>
		</g>
	</g>
</g>
</svg>
