<?xml version="1.0" encoding="utf-8"?>
<!-- Generator: Adobe Illustrator 22.1.0, SVG Export Plug-In . SVG Version: 6.00 Build 0)  -->
<svg version="1.1" xmlns="http://www.w3.org/2000/svg" xmlns:xlink="http://www.w3.org/1999/xlink" x="0px" y="0px"
	 viewBox="0 0 108 180" style="enable-background:new 0 0 108 180;" xml:space="preserve">
<style type="text/css">
	.st0{display:none;}
	.st1{display:inline;fill:#FF0000;}
</style>
<g id="bg" class="st0">
	<polygon class="st1" points="103.7,0 102.6,0 102.3,0 99.5,0 98.3,0 98,0 97.1,0 96.8,0 96.5,0 94,0 93.8,0 92.9,0 92.6,0 92.3,0 
		91.7,0 91.4,0 91.1,0 88.6,0 88.3,0 88,0 88,0 87.4,0 87.1,0 86.8,0 86.3,0 86,0 85.7,0 83.7,0 83.2,0 82.9,0 82.6,0 82.6,0 
		82.3,0 82,0 81.7,0 81.4,0 80.8,0 80.5,0 80.2,0 79.5,0 78.3,0 78,0 77.7,0 77.5,0 77.1,0 77.1,0 76.8,0 76.6,0 76.5,0 76.3,0 
		76,0 75.1,0 74.8,0 74,0 73.8,0 72.9,0 72.6,0 72.3,0 72.3,0 72,0 71.7,0 71.7,0 71.4,0 71.1,0 70.8,0 70.5,0 69.4,0 68.6,0 
		68.3,0 68,0 67.4,0 67.2,0 67.1,0 66.8,0 66.6,0 66.3,0 66.3,0 66,0 65.7,0 65.1,0 63.2,0 62.9,0 62.9,0 62.6,0 62,0 61.7,0 
		61.7,0 61.4,0 61.4,0 60.8,0 60.8,0 60.5,0 60.2,0 58.6,0 57.7,0 57.5,0 57.5,0 57.2,0 57.1,0 56.6,0 56.3,0 56.3,0 56,0 56,0 
		55.7,0 55.1,0 54.8,0 53.2,0 52.9,0 52.3,0 52,0 52,0 51.7,0 51.7,0 51.4,0 50.9,0 50.8,0 50.5,0 50.5,0 50.3,0 49.4,0 47.8,0 
		47.5,0 47.2,0 47.2,0 46.6,0 46.6,0 46.3,0 46.3,0 46,0 45.4,0 45.1,0 45.1,0 44.8,0 42.9,0 42.3,0 42,0 41.7,0 41.7,0 41.4,0 
		41.2,0 40.9,0 40.8,0 40.6,0 40,0 39.7,0 39.4,0 38.6,0 37.5,0 37.2,0 36.9,0 36.6,0 36.3,0 36.3,0 36,0 35.7,0 35.7,0 35.4,0 
		35.1,0 34.2,0 34,0 33.2,0 32.9,0 32,0 31.7,0 31.5,0 31.4,0 31.2,0 30.9,0 30.9,0 30.5,0 30.3,0 30,0 29.7,0 28.5,0 27.8,0 
		27.5,0 27.2,0 26.6,0 26.3,0 26,0 25.7,0 25.4,0 25.4,0 25.1,0 24.8,0 24.3,0 22.3,0 22,0 21.7,0 21.2,0 20.9,0 20.6,0 20,0 20,0 
		19.7,0 19.4,0 16.9,0 16.6,0 16.3,0 15.7,0 15.4,0 15.1,0 14.2,0 14,0 11.5,0 11.2,0 10.9,0 10,0 9.7,0 8.5,0 5.7,0 5.4,0 4.3,0 
		0,0 0,180 4.3,180 5.4,180 5.7,180 8.5,180 9.7,180 10,180 10.9,180 11.2,180 11.5,180 14,180 14.2,180 15.1,180 15.4,180 
		15.7,180 16.3,180 16.6,180 16.9,180 19.4,180 19.7,180 20,180 20,180 20.6,180 20.9,180 21.2,180 21.7,180 22,180 22.3,180 
		24.3,180 24.8,180 25.1,180 25.4,180 25.4,180 25.7,180 26,180 26.3,180 26.6,180 27.2,180 27.5,180 27.8,180 28.5,180 29.7,180 
		30,180 30.3,180 30.5,180 30.9,180 30.9,180 31.2,180 31.4,180 31.5,180 31.7,180 32,180 32.9,180 33.2,180 34,180 34.2,180 
		35.1,180 35.4,180 35.7,180 35.7,180 36,180 36.3,180 36.3,180 36.6,180 36.9,180 37.2,180 37.5,180 38.6,180 39.4,180 39.7,180 
		40,180 40.6,180 40.8,180 40.9,180 41.2,180 41.4,180 41.7,180 41.7,180 42,180 42.3,180 42.9,180 44.8,180 45.1,180 45.1,180 
		45.4,180 46,180 46.3,180 46.3,180 46.6,180 46.6,180 47.2,180 47.2,180 47.5,180 47.8,180 49.4,180 50.3,180 50.5,180 50.5,180 
		50.8,180 50.9,180 51.4,180 51.7,180 51.7,180 52,180 52,180 52.3,180 52.9,180 53.2,180 54.8,180 55.1,180 55.7,180 56,180 
		56,180 56.3,180 56.3,180 56.6,180 57.1,180 57.2,180 57.5,180 57.5,180 57.7,180 58.6,180 60.2,180 60.5,180 60.8,180 60.8,180 
		61.4,180 61.4,180 61.7,180 61.7,180 62,180 62.6,180 62.9,180 62.9,180 63.2,180 65.1,180 65.7,180 66,180 66.3,180 66.3,180 
		66.6,180 66.8,180 67.1,180 67.2,180 67.4,180 68,180 68.3,180 68.6,180 69.4,180 70.5,180 70.8,180 71.1,180 71.4,180 71.7,180 
		71.7,180 72,180 72.3,180 72.3,180 72.6,180 72.9,180 73.8,180 74,180 74.8,180 75.1,180 76,180 76.3,180 76.5,180 76.6,180 
		76.8,180 77.1,180 77.1,180 77.5,180 77.7,180 78,180 78.3,180 79.5,180 80.2,180 80.5,180 80.8,180 81.4,180 81.7,180 82,180 
		82.3,180 82.6,180 82.6,180 82.9,180 83.2,180 83.7,180 85.7,180 86,180 86.3,180 86.8,180 87.1,180 87.4,180 88,180 88,180 
		88.3,180 88.6,180 91.1,180 91.4,180 91.7,180 92.3,180 92.6,180 92.9,180 93.8,180 94,180 96.5,180 96.8,180 97.1,180 98,180 
		98.3,180 99.5,180 102.3,180 102.6,180 103.7,180 108,180 108,0 	"/>
</g>
<g id="figure">
	<g>
		<g>
			<path d="M10,92.9c0.2-1.6,1-2.8,1.9-3.8l2.7-3.2c1.8-2.1,3.7-4.1,5.6-6.2c3.8-4,7.7-7.9,11.9-11.6c2.1-1.8,4.4-3.6,6.7-5.1
				c2.3-1.6,4.7-3.1,7.3-4.4c1.3-0.6,2.7-1.3,4.5-1.5c0.9-0.1,2,0,3,0.4c1.1,0.5,1.9,1.2,2.6,2.2c0.6,1,0.9,2.2,1,3.2
				c0.1,1-0.1,2-0.3,2.8c-0.4,1.7-1,3.2-1.7,4.6c-1.4,2.7-3.1,5.1-4.9,7.4c-1.7,2.2-3.5,4.3-5.2,6.5c-3.5,4.3-7.1,8.4-10.6,12.6
				c-3.6,4.4-7.4,8.3-10.4,12.6c-0.8,1-1.4,2.1-2.1,3.2c-0.6,1-1.1,2.1-1.4,3c-0.1,0.4-0.2,0.8-0.1,1.1c0,0.3,0.1,0.6,0.3,0.8
				c0.5,0.6,1.2,1.1,2.2,1.1c1,0.1,2.2-0.2,3.4-0.7c1.2-0.5,2.3-1.1,3.4-1.8c2.2-1.4,4.4-3.1,6.4-4.9c4.1-3.6,8-7.5,11.6-11.6
				c3.6-4.1,7.1-8.4,10.5-12.7l5.1-6.5c1.7-2.2,3.3-4.4,4.5-6.7c1.3-2.3,1.9-4.7,2.5-7.4c0.3-1.3,0.6-2.6,0.6-3.7
				c0-0.5-0.1-1-0.1-1.1c0,0,0.1,0.1,0.2,0.2c0.1,0,0,0-0.2,0c0,0,0,0,0.1,0l0.1,0c0.1,0,0.1,0,0.2-0.1c0.1,0,0.1-0.1,0.1-0.1
				c0,0-0.1,0.2-0.3,0.4c-0.2,0.4-0.4,0.9-0.6,1.5c-0.3,1.1-0.5,2.4-0.5,3.5c0,1.4,0,2.6,0.2,3.7c0.2,1.1,0.7,2,1.2,2.4
				c0.3,0.2,0.6,0.3,1,0.4c0.1,0,0.2,0,0.3,0c0,0,0,0,0.1,0c0.2,0,0.4-0.1,0.7-0.2c1-0.3,2.2-1,3.4-1.6c2.3-1.3,4.5-2.9,6.8-4.4
				c2.2-1.6,4.4-3.2,6.7-4.8l3.3-2.5l1.6-1.3c0.5-0.5,1.2-0.8,2.5-0.2l0,0l0.1,0.1c-5.4,9-13.1,15.8-19.6,23.6
				c-3.3,3.8-6.6,7.7-9.9,11.6l-9.8,11.6c-1.6,1.9-3.2,3.9-4.7,5.8c-1.5,1.9-3.1,3.8-4.1,5.5c-0.2,0.4-0.4,0.8-0.5,1
				c-0.1,0.3-0.2,0.3-0.2,0.3c0,0,0,0,0,0.1c0,0,0,0.1,0,0.1c0,0,0.1,0.1,0.1,0.2c0,0,0.1,0.1,0.1,0.1c0,0-0.1,0-0.1,0
				c-0.1,0.1,0.4,0.2,0.8,0.2c1,0,2.2-0.3,3.4-0.6c1.2-0.3,2.3-0.8,3.5-1.3c4.6-2,8.9-4.7,13.2-7.4l6.4-4.1l3.2-2
				c1-0.7,2.1-1.4,3.8-1.2l0.3,0.4c-0.2,1.8-1.3,2.6-2.4,3.4c-1,0.8-2.1,1.5-3.2,2.2c-2.1,1.4-4.3,2.8-6.5,4.1
				c-4.5,2.6-9,5-13.6,7.4c-1.2,0.6-2.3,1.1-3.6,1.7c-1.2,0.5-2.4,1.1-4,1.5c-0.8,0.2-1.6,0.4-2.9,0c-0.2-0.1-0.4-0.1-0.5-0.2
				c-0.2-0.1-0.2-0.1-0.4-0.2c-0.2-0.1-0.4-0.2-0.7-0.4c-0.2-0.2-0.4-0.3-0.6-0.5c-0.2-0.2-0.4-0.4-0.6-0.7c-0.7-1-1-2.4-1-3.4
				c0-1,0.2-1.9,0.4-2.7c1-3,2.4-5.3,3.9-7.5c1.6-2.2,3.2-4.2,4.9-6.2c3.3-4,6.8-7.8,10.3-11.5c3.5-3.7,7.1-7.4,10.8-11
				c3.7-3.6,7.5-7,11.3-10.4c1.9-1.7,3.9-3.3,5.9-4.9c2-1.6,4.1-3.1,6.4-4.4l0.1,0.1l0,0c0.3,1.4-0.1,2-0.7,2.4l-1.6,1.4l-3.2,2.7
				c-2.1,1.8-4.3,3.5-6.5,5.2c-2.2,1.7-4.5,3.3-7,4.8c-1.2,0.7-2.5,1.5-4,2c-0.4,0.1-0.8,0.3-1.3,0.4c-0.3,0-0.6,0.1-0.9,0.1
				c-0.2,0-0.5,0-0.7-0.1c-0.9-0.1-2-0.5-2.8-1.1c-0.8-0.6-1.5-1.5-1.9-2.3c-0.4-0.8-0.7-1.7-0.8-2.5c-0.3-1.6-0.3-3.1-0.3-4.5
				c0-1.7,0.3-3.1,0.7-4.6c0.2-0.8,0.5-1.5,0.9-2.3c0.2-0.4,0.5-0.8,1-1.3c0.2-0.2,0.5-0.5,0.9-0.7c0.2-0.1,0.4-0.2,0.7-0.2
				c0.1,0,0.3,0,0.4-0.1c0.1,0,0.3,0,0.3,0c0.5,0,1.2,0.1,1.9,0.4c0.7,0.3,1.3,1,1.6,1.6c0.6,1.2,0.5,2.2,0.5,3
				c-0.1,1.7-0.4,3.1-0.8,4.5c-0.7,2.7-2,5.6-3.6,8c-3.4,4.7-6.8,8.9-10.2,13.3c-3.4,4.3-7,8.6-10.7,12.8c-3.6,4.2-7.5,8.2-11.6,12
				c-2.1,1.9-4.2,3.7-6.6,5.4c-1.2,0.8-2.5,1.6-3.8,2.2c-0.7,0.3-1.4,0.6-2.2,0.8c-0.8,0.2-1.6,0.4-2.5,0.5c-0.9,0-1.8,0-2.8-0.3
				c-0.9-0.3-1.8-0.8-2.5-1.5c-0.8-0.7-1.4-1.7-1.8-2.7c-0.3-1-0.4-2-0.3-3c0.1-1.8,0.6-3.4,1.2-4.8c0.6-1.4,1.3-2.7,2.1-4
				c3-5,6.7-9.3,9.8-13.7c3.2-4.6,6.7-9,10.3-13.2c1.8-2.1,3.6-4.2,5.4-6.3c1.7-2,3.4-4,4.9-6c0.8-1,1.4-2,1.9-2.9
				c0.2-0.4,0.4-0.9,0.5-1.2C52,62.4,52,62.2,52,62c-0.1-0.5-0.3-1-1.3-1.2c-1-0.1-2.3,0.1-3.5,0.5c-1.2,0.4-2.5,1-3.6,1.6
				c-1.2,0.6-2.4,1.3-3.5,2c-2.4,1.4-4.5,3-6.5,4.8c-4.1,3.6-7.8,7.7-11.6,11.7l-5.6,6.1l-2.8,3C12.6,91.5,11.6,92.5,10,92.9
				L10,92.9z"/>
		</g>
		<g>
			<path d="M72.6,47.8c0-0.3,0.2-0.5,0.3-0.7l0.4-0.6l0.8-1.3l1.5-2.5c1-1.7,2.1-3.3,3.2-4.9c1.1-1.6,2.1-3.3,3.4-4.8
				c0.6-0.8,1-1.6,1.8-2.3c0.8-0.6,1.6-1.2,3.7-0.7l0.4,0.3c0.9,2,0.4,2.8-0.1,3.7c-0.5,0.9-1.3,1.4-1.9,2.2
				c-1.3,1.5-2.7,2.8-4.1,4.1c-1.4,1.3-2.8,2.7-4.3,4l-2.2,1.9l-1.1,1l-0.6,0.5c-0.2,0.2-0.4,0.3-0.6,0.4L72.6,47.8z"/>
		</g>
		<g>
			<path d="M81.6,47.8c0-0.3,0.2-0.5,0.3-0.7l0.4-0.6l0.8-1.3l1.5-2.5c1-1.7,2.1-3.3,3.2-4.9c1.1-1.6,2.1-3.3,3.4-4.8
				c0.6-0.8,1-1.6,1.8-2.3c0.8-0.6,1.6-1.2,3.7-0.7l0.4,0.3c0.9,2,0.4,2.8-0.1,3.7c-0.5,0.9-1.3,1.4-1.9,2.2
				c-1.3,1.5-2.7,2.8-4.1,4.1c-1.4,1.3-2.8,2.7-4.3,4l-2.2,1.9l-1.1,1l-0.6,0.5c-0.2,0.2-0.4,0.3-0.6,0.4L81.6,47.8z"/>
		</g>
	</g>
</g>
</svg>
