<?xml version="1.0" encoding="utf-8"?>
<!-- Generator: Adobe Illustrator 22.1.0, SVG Export Plug-In . SVG Version: 6.00 Build 0)  -->
<svg version="1.1" xmlns="http://www.w3.org/2000/svg" xmlns:xlink="http://www.w3.org/1999/xlink" x="0px" y="0px"
	 viewBox="0 0 80.4 180" style="enable-background:new 0 0 80.4 180;" xml:space="preserve">
<style type="text/css">
	.st0{display:none;}
	.st1{display:inline;fill:#FF0000;}
</style>
<g id="bg" class="st0">
	<polygon class="st1" points="77.5,0 76.7,0 76.5,0 74.5,0 73.7,0 73.5,0 72.9,0 72.7,0 72.5,0 70.8,0 70.6,0 70,0 69.8,0 69.6,0 
		69.1,0 69,0 68.8,0 67.1,0 66.9,0 66.7,0 66.2,0 66.1,0 65.9,0 65.4,0 65.2,0 65.1,0 63.3,0 63.2,0 63,0 62.5,0 62.3,0 62.2,0 
		61.7,0 61.5,0 61.3,0 60.4,0 59.6,0 59.4,0 59.2,0 58.7,0 58.5,0 58.3,0 57.7,0 57.5,0 57.5,0 56.7,0 56.5,0 55.8,0 55.6,0 55.4,0 
		54.8,0 54.6,0 54.5,0 53.8,0 53.7,0 53.5,0 52.9,0 52.7,0 52.5,0 52.4,0 51.9,0 51.7,0 50.9,0 50.8,0 50.6,0 50,0 49.8,0 49.6,0 
		49.5,0 49.1,0 49,0 48.8,0 48.7,0 48.5,0 48,0 47.1,0 46.9,0 46.7,0 46.6,0 46.2,0 46.1,0 45.9,0 45.8,0 45.6,0 45.4,0 45.2,0 
		45.1,0 44.9,0 44.7,0 44.5,0 43.3,0 43.2,0 43,0 42.8,0 42.6,0 42.5,0 42.3,0 42.2,0 42,0 41.8,0 41.7,0 41.6,0 41.5,0 41.3,0 
		41.1,0 41,0 40.8,0 39.6,0 39.4,0 39.2,0 39.1,0 38.9,0 38.7,0 38.7,0 38.5,0 38.3,0 38.2,0 38.1,0 37.9,0 37.7,0 37.5,0 37.4,0 
		37.2,0 37.1,0 35.8,0 35.6,0 35.4,0 35.3,0 35.2,0 35,0 34.8,0 34.6,0 34.5,0 34.3,0 34.2,0 33.8,0 33.7,0 33.5,0 33.3,0 32.4,0 
		31.9,0 31.7,0 31.6,0 31.4,0 31.3,0 30.9,0 30.8,0 30.6,0 30.4,0 29.8,0 29.6,0 29.5,0 28.7,0 28.5,0 28,0 27.9,0 27.7,0 27.5,0 
		26.8,0 26.6,0 26.6,0 25.8,0 25.8,0 25.6,0 24.9,0 24.7,0 24.5,0 23.9,0 23.7,0 22.9,0 22.8,0 22.6,0 22,0 21.8,0 21.6,0 21.1,0 
		21,0 20.8,0 20,0 19.1,0 18.9,0 18.7,0 18.2,0 18.1,0 17.9,0 17.4,0 17.2,0 17.1,0 15.3,0 15.2,0 15,0 14.5,0 14.3,0 14.2,0 
		13.7,0 13.5,0 13.3,0 11.6,0 11.4,0 11.3,0 10.8,0 10.6,0 10.4,0 9.8,0 9.6,0 7.9,0 7.7,0 7.5,0 6.8,0 6.6,0 5.8,0 3.9,0 3.7,0 
		2.9,0 0,0 0,180 2.9,180 3.7,180 3.9,180 5.8,180 6.6,180 6.8,180 7.5,180 7.7,180 7.9,180 9.6,180 9.8,180 10.4,180 10.6,180 
		10.8,180 11.3,180 11.4,180 11.6,180 13.3,180 13.5,180 13.7,180 14.2,180 14.3,180 14.5,180 15,180 15.2,180 15.3,180 17.1,180 
		17.2,180 17.4,180 17.9,180 18.1,180 18.2,180 18.7,180 18.9,180 19.1,180 20,180 20.8,180 21,180 21.1,180 21.6,180 21.8,180 
		22,180 22.6,180 22.8,180 22.9,180 23.7,180 23.9,180 24.5,180 24.7,180 24.9,180 25.6,180 25.8,180 25.8,180 26.6,180 26.6,180 
		26.8,180 27.5,180 27.7,180 27.9,180 28,180 28.5,180 28.7,180 29.5,180 29.6,180 29.8,180 30.4,180 30.6,180 30.8,180 30.9,180 
		31.3,180 31.4,180 31.6,180 31.7,180 31.9,180 32.4,180 33.3,180 33.5,180 33.7,180 33.8,180 34.2,180 34.3,180 34.5,180 34.6,180 
		34.8,180 35,180 35.2,180 35.3,180 35.4,180 35.6,180 35.8,180 37.1,180 37.2,180 37.4,180 37.5,180 37.7,180 37.9,180 38.1,180 
		38.2,180 38.3,180 38.5,180 38.7,180 38.7,180 38.9,180 39.1,180 39.2,180 39.4,180 39.6,180 40.8,180 41,180 41.1,180 41.3,180 
		41.5,180 41.6,180 41.7,180 41.8,180 42,180 42.2,180 42.3,180 42.5,180 42.6,180 42.8,180 43,180 43.2,180 43.3,180 44.5,180 
		44.7,180 44.9,180 45.1,180 45.2,180 45.4,180 45.6,180 45.8,180 45.9,180 46.1,180 46.2,180 46.6,180 46.7,180 46.9,180 47.1,180 
		48,180 48.5,180 48.7,180 48.8,180 49,180 49.1,180 49.5,180 49.6,180 49.8,180 50,180 50.6,180 50.8,180 50.9,180 51.7,180 
		51.9,180 52.4,180 52.5,180 52.7,180 52.9,180 53.5,180 53.7,180 53.8,180 54.5,180 54.6,180 54.8,180 55.4,180 55.6,180 55.8,180 
		56.5,180 56.7,180 57.5,180 57.5,180 57.7,180 58.3,180 58.5,180 58.7,180 59.2,180 59.4,180 59.6,180 60.4,180 61.3,180 61.5,180 
		61.7,180 62.2,180 62.3,180 62.5,180 63,180 63.2,180 63.3,180 65.1,180 65.2,180 65.4,180 65.9,180 66.1,180 66.2,180 66.7,180 
		66.9,180 67.1,180 68.8,180 69,180 69.1,180 69.6,180 69.8,180 70,180 70.6,180 70.8,180 72.5,180 72.7,180 72.9,180 73.5,180 
		73.7,180 74.5,180 76.5,180 76.7,180 77.5,180 80.4,180 80.4,0 	"/>
</g>
<g id="figure">
	<g>
		<path d="M10,128.6c0.1-0.7,0.3-1.2,0.7-1.5c0.3-0.3,0.7-0.5,1.1-0.8l2.3-1.5l4.6-3c3.1-2,6.2-4,9.3-5.9
			c6.2-3.9,12.4-7.7,18.7-11.5l4.7-2.8l2.4-1.4c0.8-0.5,1.7-0.7,2.6-1.1c0.2-0.1,0.5-0.1,0.7-0.2c0.3-0.1,0.4-0.1,0.8-0.3
			c0,0,0.1,0,0.2,0c0.3,0,0.6,0.3,0.6,0.4c0.1,0.3,0,0.4,0,0.4l0,0.1c0,0.1-0.1,0.2-0.1,0.3c0,0.2,0,0.3,0,0.5c0,0.3,0,0.6-0.1,0.9
			c0,0.3,0,0.6-0.1,0.8c-0.1,0.2-0.3,0.4-0.4,0.6l-0.9,1.1c-1.2,1.4-2.4,2.8-3.7,4.1c-2.6,2.6-5.2,5.2-7.8,7.8l-3.9,3.8
			c-0.7,0.6-1.3,1.3-1.9,1.9c-0.3,0.3-0.7,0.6-1.1,0.8c-0.4,0.2-0.8,0.5-1.3,0.6c-0.1,0-0.2,0.1-0.2,0c0-0.4-0.4-0.4-0.3-0.4
			c0,0,0.2-0.1,0.4-0.2c0.3-0.2,0.7-0.5,1-0.9c0.7-0.6,1.3-1.3,1.9-2c1.3-1.3,2.5-2.7,4.2-3.9c0.4-0.3,0.9-0.6,1.5-0.7
			c0.6-0.1,1.4-0.2,2.3,0.3c0.6,0.3,1.2,0.9,1.4,1.6c0.3,0.6,0.3,1.2,0.4,1.8c0.1,1.1,0,2,0.1,2.7c0,0.4,0.1,0.7,0.2,0.9
			c0.1,0.2,0.2,0.3,0.4,0.4c0,0,0.1,0,0.1,0.1l0.1,0l0,0c0,0,0,0,0,0c-0.1,0-0.2-0.1-0.2-0.1C50.1,122,50,122,50,122c0,0,0,0,0.1,0
			c0.2-0.1,0.6-0.3,0.9-0.5c0.7-0.4,1.4-0.9,2.1-1.4c1.4-1,2.8-2.1,4.1-3.3c2.7-2.3,5.2-4.7,7.4-7.2c1-1.2,2-2.3,2.6-3.5
			c0.3-0.6,0.6-1.1,0.8-1.6c0.2-0.5,0.4-1.1,0.2-1.6c-0.1-0.5-0.5-1-1-1.1c-0.4-0.1-1.4,0.1-2.1,0.5c-1.6,0.7-3,1.9-4.4,2.9
			c-1.4,1.1-2.8,2.3-4,3.5c-1.3,1.2-2.4,2.5-3.2,3.9c-1.7,2.9-2.7,6.5-3.3,9.9l-3.3-0.6c0.5-1.9,1-3.7,1.7-5.5
			c0.7-1.8,1.5-3.5,2.5-5.2c1.1-1.7,2.5-3.1,3.9-4.4c1.4-1.3,2.9-2.4,4.4-3.5c1.5-1.1,3.2-2,4.9-2.9c0.4-0.2,0.9-0.4,1.4-0.6
			c0.5-0.2,1.1-0.4,1.8-0.4c1.3,0,2.6,0.6,3.6,1.6c1,1,1.6,2.2,1.8,3.5c0.2,1.3,0.1,2.6-0.2,3.7c-0.7,2.3-1.9,4.2-3.3,5.7
			c-2.7,2.9-5.8,5.2-9,7.3c-1.6,1-3.3,2-5,2.8c-0.9,0.4-1.8,0.8-2.8,1.2c-0.5,0.2-1,0.3-1.7,0.5c-0.2,0-0.4,0.1-0.6,0.1
			c-0.2,0-0.5,0-1-0.1c-0.1,0-0.3-0.1-0.4-0.2c-0.1,0-0.1-0.1-0.1-0.1l-0.1,0l-0.2-0.2c-0.1-0.1-0.3-0.2-0.4-0.4
			c-0.5-0.5-0.9-1.3-1.1-1.9c-0.2-0.7-0.2-1.3-0.2-1.8c0-1.1,0.3-2,0.3-2.8c0-0.4,0-0.7,0-0.9c0-0.2-0.1-0.4-0.3-0.5
			c0,0-0.1,0-0.4,0.2c-0.3,0.1-0.6,0.3-1,0.4c-1.4,0.8-2.9,1.9-4.4,2.9l-2.2,1.7c-0.4,0.3-0.7,0.6-1.2,0.8c-0.2,0.1-0.4,0.3-0.8,0.4
			c-0.1,0-0.3,0-0.5-0.1c-0.1-0.1-0.2-0.1-0.2-0.2c0-0.1-0.1-0.2-0.1-0.2c0-0.1,0-0.1,0-0.1c0-0.3,0.1-0.4,0.1-0.6
			c0-0.6,0.2-1.1,0.4-1.6c0.1-0.5,0.3-1,0.6-1.3c0.6-0.7,1.2-1.5,1.7-2.2c1.2-1.4,2.4-2.8,3.6-4.2c2.5-2.7,5-5.4,7.5-8
			c1.3-1.3,2.6-2.6,3.9-3.8l1-0.9c0.2-0.1,0.3-0.3,0.5-0.4c0.2-0.1,0.5-0.1,0.8-0.2c0.3-0.1,0.5-0.1,0.8-0.2c0.1,0,0.3,0,0.4-0.1
			c0,0,0.1,0,0.1,0l0,0c0,0,0,0.1,0,0.3c0,0.1,0.3,0.4,0.5,0.4c0,0,0.1,0,0.1,0c-0.1,0-0.3,0.1-0.5,0.3l-0.5,0.5
			c-0.7,0.6-1.4,1.2-2.2,1.7l-2.3,1.4l-4.7,2.9L29.3,118c-3.1,1.9-6.2,3.9-9.4,5.7l-4.7,2.8l-2.3,1.4c-0.4,0.2-0.8,0.5-1.2,0.7
			C11.2,128.8,10.7,128.9,10,128.6L10,128.6z"/>
	</g>
</g>
</svg>
