<?xml version="1.0" encoding="utf-8"?>
<!-- Generator: Adobe Illustrator 22.1.0, SVG Export Plug-In . SVG Version: 6.00 Build 0)  -->
<svg version="1.1" xmlns="http://www.w3.org/2000/svg" xmlns:xlink="http://www.w3.org/1999/xlink" x="0px" y="0px"
	 viewBox="0 0 99.8 180" style="enable-background:new 0 0 99.8 180;" xml:space="preserve">
<style type="text/css">
	.st0{display:none;}
	.st1{display:inline;fill:#FF0000;}
</style>
<g id="bg" class="st0">
	<polygon class="st1" points="95.9,0 94.8,0 94.6,0 92.1,0 91,0 90.7,0 89.9,0 89.6,0 89.4,0 87.1,0 86.9,0 86.1,0 85.8,0 85.5,0 
		84.9,0 84.7,0 84.5,0 82.2,0 81.9,0 81.7,0 81,0 80.9,0 80.6,0 80,0 79.8,0 79.7,0 79.5,0 77.2,0 77,0 76.8,0 76.1,0 75.9,0 
		75.8,0 75.7,0 75,0 74.8,0 74.8,0 74.6,0 74.5,0 72.2,0 72.1,0 72,0 71.8,0 71.2,0 71,0 70.9,0 70.7,0 70.7,0 69.9,0 69.8,0 
		69.6,0 69.6,0 69.4,0 67.3,0 67.1,0 67.1,0 66.9,0 66.8,0 66.1,0 66,0 65.8,0 65.7,0 65.5,0 64.9,0 64.7,0 64.7,0 64.5,0 62.8,0 
		62.2,0 62.1,0 61.9,0 61.9,0 61.7,0 61,0 60.9,0 60.8,0 60.6,0 60,0 59.7,0 59.5,0 58.9,0 57.9,0 57.6,0 57.2,0 57,0 57,0 56.8,0 
		56.1,0 55.8,0 55.7,0 55.1,0 55,0 54.8,0 54.5,0 54,0 53.8,0 53,0 52.7,0 52.4,0 52.2,0 52,0 51.8,0 51.2,0 50.9,0 50.7,0 50.2,0 
		49.9,0 49.8,0 49.6,0 49.1,0 48.8,0 48.6,0 47.9,0 47.8,0 47.5,0 47.3,0 47.1,0 46.8,0 46,0 45.7,0 45.3,0 45,0 44.7,0 44.7,0 
		44.1,0 43.9,0 43.7,0 43,0 42.8,0 42.7,0 42.6,0 42.1,0 41.9,0 40.8,0 40.2,0 40.1,0 39.8,0 39.1,0 38.9,0 38.9,0 38.7,0 38.1,0 
		37.9,0 37.8,0 37.6,0 37.5,0 37,0 35.3,0 35.1,0 35,0 34.9,0 34.2,0 34,0 34,0 33.8,0 33.7,0 33,0 32.9,0 32.7,0 32.6,0 32.4,0 
		30.4,0 30.2,0 30.1,0 29.9,0 29.8,0 29.1,0 29,0 28.8,0 28.8,0 28.6,0 27.9,0 27.8,0 27.7,0 27.5,0 25.3,0 25.2,0 25,0 24.9,0 
		24.7,0 24.1,0 23.9,0 23.9,0 23.7,0 23,0 22.7,0 22.6,0 20.2,0 20.1,0 20,0 19.8,0 19.1,0 18.9,0 18.7,0 18.1,0 17.8,0 17.5,0 
		15.3,0 15,0 14.9,0 14.2,0 14,0 13.7,0 12.9,0 12.6,0 10.4,0 10.1,0 9.8,0 9,0 8.8,0 7.7,0 5.2,0 4.9,0 3.9,0 0,0 0,180 3.9,180 
		4.9,180 5.2,180 7.7,180 8.8,180 9,180 9.8,180 10.1,180 10.4,180 12.6,180 12.9,180 13.7,180 14,180 14.2,180 14.9,180 15,180 
		15.3,180 17.5,180 17.8,180 18.1,180 18.7,180 18.9,180 19.1,180 19.8,180 20,180 20.1,180 20.2,180 22.6,180 22.7,180 23,180 
		23.7,180 23.9,180 23.9,180 24.1,180 24.7,180 24.9,180 25,180 25.2,180 25.3,180 27.5,180 27.7,180 27.8,180 27.9,180 28.6,180 
		28.8,180 28.8,180 29,180 29.1,180 29.8,180 29.9,180 30.1,180 30.2,180 30.4,180 32.4,180 32.6,180 32.7,180 32.9,180 33,180 
		33.7,180 33.8,180 34,180 34,180 34.2,180 34.9,180 35,180 35.1,180 35.3,180 37,180 37.5,180 37.6,180 37.8,180 37.9,180 
		38.1,180 38.7,180 38.9,180 38.9,180 39.1,180 39.8,180 40.1,180 40.2,180 40.8,180 41.9,180 42.1,180 42.6,180 42.7,180 42.8,180 
		43,180 43.7,180 43.9,180 44.1,180 44.7,180 44.7,180 45,180 45.3,180 45.7,180 46,180 46.8,180 47.1,180 47.3,180 47.5,180 
		47.8,180 47.9,180 48.6,180 48.8,180 49.1,180 49.6,180 49.8,180 49.9,180 50.2,180 50.7,180 50.9,180 51.2,180 51.8,180 52,180 
		52.2,180 52.4,180 52.7,180 53,180 53.8,180 54,180 54.5,180 54.8,180 55,180 55.1,180 55.7,180 55.8,180 56.1,180 56.8,180 
		57,180 57,180 57.2,180 57.6,180 57.9,180 58.9,180 59.5,180 59.7,180 60,180 60.6,180 60.8,180 60.9,180 61,180 61.7,180 
		61.9,180 61.9,180 62.1,180 62.2,180 62.8,180 64.5,180 64.7,180 64.7,180 64.9,180 65.5,180 65.7,180 65.8,180 66,180 66.1,180 
		66.8,180 66.9,180 67.1,180 67.1,180 67.3,180 69.4,180 69.6,180 69.6,180 69.8,180 69.9,180 70.7,180 70.7,180 70.9,180 71,180 
		71.2,180 71.8,180 72,180 72.1,180 72.2,180 74.5,180 74.6,180 74.8,180 74.8,180 75,180 75.7,180 75.8,180 75.9,180 76.1,180 
		76.8,180 77,180 77.2,180 79.5,180 79.7,180 79.8,180 80,180 80.6,180 80.9,180 81,180 81.7,180 81.9,180 82.2,180 84.5,180 
		84.7,180 84.9,180 85.5,180 85.8,180 86.1,180 86.9,180 87.1,180 89.4,180 89.6,180 89.9,180 90.7,180 91,180 92.1,180 94.6,180 
		94.8,180 95.9,180 99.8,180 99.8,0 	"/>
</g>
<g id="figure">
	<g>
		<path d="M9.9,128.2c0.1-1.2,0.6-1.7,1.1-2.1l1.8-1.1l3.5-2.2l7.1-4.3c4.8-2.8,9.5-5.6,14.3-8.3c4.8-2.7,9.6-5.4,14.5-8
			c1.2-0.6,2.5-1.3,3.7-1.9c0.3-0.2,0.6-0.3,1-0.3c0.4,0,0.7,0,1.2-0.2c0.1,0,0.1,0,0.3,0c0.1,0,0.3,0.1,0.4,0.2
			c0.1,0.2,0.1,0.2,0.1,0.3c0,0.2,0,0.3,0,0.3c0,0.1,0,0.1,0,0.2l-0.2,0.6c-0.1,0.4-0.2,0.8-0.3,1.2c-0.2,0.8-0.5,1.4-0.8,2.1
			c-0.3,0.7-0.6,1.4-1,1.9c-0.9,1.1-1.9,2.1-2.8,3.1c-3.8,4.1-7.8,7.8-11.9,11.5c-1,0.9-2.3,1.6-3.5,2.3c-0.3,0.2-0.6,0.4-0.9,0.5
			c-0.3,0.2-0.7,0.3-1,0.4c-0.3,0.1-0.7,0.3-0.9,0.5l-0.1,0.1l0,0c0,0,0-0.1,0-0.1c0,0.1,0-0.4-0.2-0.4c-0.2-0.1-0.2-0.1-0.3-0.1
			l0,0c0.1,0,0.3-0.1,0.4-0.2c0.5-0.4,0.9-1.1,1.5-1.5c0.6-0.4,1.2-0.7,1.8-1.1l3.5-2.1c9.4-5.8,18.7-11.7,28.3-17.1
			c1.2-0.7,2.4-1.4,3.7-2c0.7-0.3,1.4-0.3,2.1-0.4c0.4-0.1,0.7-0.1,1.1-0.2l0.6-0.2c0.1,0,0.1,0,0.2,0c0.1,0,0.1,0,0.2,0
			c0,0,0.2,0,0.4,0.1c0.2,0.2,0.2,0.4,0.2,0.5c0,0.1,0,0.1,0,0.2l-0.1,0.2c-0.2,0.4-0.3,0.7-0.4,1.1c-0.1,0.4-0.2,0.8-0.3,1.2
			c-0.3,0.7-0.6,1.4-1,2c-0.4,0.6-0.9,1.1-1.4,1.6l-1.5,1.5c-3.9,4-7.8,7.8-11.7,11.5c-1,0.9-1.9,1.9-2.9,2.8
			c-0.4,0.5-1.1,0.8-1.8,1.1c-0.3,0.1-0.6,0.3-0.9,0.5c-0.3,0.1-0.7,0.3-0.8,0.5c0,0,0,0-0.1,0c0-0.1-0.2-0.2-0.2-0.2
			c0.1,0,0.2,0,0.3,0c0.3,0,0.5-0.2,0.8-0.3c0.6-0.3,1.1-0.7,1.7-1.1c1.1-0.8,2.1-1.7,3.1-2.7c1-0.9,2-1.9,3-2.9
			c0.5-0.5,1.1-0.9,1.7-1.4c0.6-0.4,1.2-0.9,2.1-1.3c0.5-0.2,1.1-0.3,1.8-0.1c0.4,0.1,0.9,0.3,1.3,0.8c0.4,0.5,0.5,1.1,0.5,1.4
			c0,0.8-0.1,1.2-0.2,1.7c-0.1,0.4-0.2,0.8-0.3,1.1c-0.3,0.7-0.4,1.3-0.7,1.7c-0.2,0.2-0.3,0.4-0.4,0.5c-0.1,0.1-0.2,0-0.3-0.2
			c-0.2-0.1-0.2-0.1-0.1,0c0.1,0.1,0.3,0.1,0.6,0.1c0.5,0,1.1-0.1,1.6-0.3c1.1-0.5,2.2-1.3,3.2-2.2c1-0.9,1.8-2,2.7-2.9l2.7-2.8
			c0.9-1,1.8-1.9,2.6-2.8c0.8-0.9,1.5-1.9,2.2-2.9c0.7-1,1.4-2.1,1.7-3.1c0.2-0.5,0.3-1,0.3-1.3c0-0.2,0-0.2,0-0.2
			c0,0,0.2,0.1,0.2,0.1c0,0,0,0-0.2-0.1c-0.2,0-0.5,0-0.8,0c-0.5,0-1.1,0.1-1.6,0.2c-1.1,0.3-2.4,0.7-3.4,1.5
			c-1.1,0.7-2.1,1.6-3,2.6c-1,0.9-1.8,1.9-2.8,2.9c-2,2-4.2,3.8-6.4,5.4c-2.2,1.7-4.5,3.2-6.9,4.6l-0.6-0.8
			c3.9-3.9,8.1-7.5,11.9-11.3c1.9-2,4.1-3.9,6.4-5.6c1.2-0.9,2.3-1.8,3.8-2.5c0.7-0.3,1.5-0.6,2.4-0.8c0.4-0.1,0.9-0.1,1.3-0.1
			c0.5,0,1.1,0,1.8,0.3c0.7,0.3,1.3,0.8,1.7,1.5c0.4,0.6,0.5,1.3,0.6,1.8c0.1,1.1,0,1.9-0.2,2.8c-0.4,1.6-0.9,3.1-1.5,4.4
			c-1.3,2.8-3.4,5.2-5.5,7.1c-1.1,1-2.2,1.9-3.4,2.7c-1.2,0.8-2.6,1.4-3.9,2c-1.3,0.6-2.6,1.3-4,1.8c-0.7,0.3-1.4,0.6-2.3,0.7
			c-0.4,0.1-0.9,0.1-1.5,0c-0.5-0.1-1.2-0.3-1.8-1c-0.6-0.7-0.7-1.6-0.7-2.1c0-0.6,0-1.1,0.1-1.5c0.2-0.9,0.7-1.4,1-2l0.5-0.7
			c0.1-0.2,0.2-0.4,0.3-0.3c0,0,0.1,0.2,0.3,0.4c0.2,0.2,0.4,0.3,0.4,0.2c0-0.1,0-0.1-0.2-0.2c-0.4,0-1,0.2-1.6,0.5
			c-0.6,0.3-1.1,0.6-1.7,1c-1.1,0.7-2.2,1.6-3.3,2.4c-1.1,0.8-2.2,1.7-3.3,2.5c-0.6,0.4-1.1,0.8-1.8,1.2c-0.3,0.2-0.7,0.3-1.1,0.4
			c-0.2,0-0.5,0.1-0.7,0c-0.1,0-0.5-0.2-0.6-0.5c-0.1-0.3,0-0.4,0-0.6c0.1-0.5,0.1-0.9,0.2-1.4c0.1-0.4,0.2-0.8,0.3-1.2
			c0.2-0.8,0.4-1.6,0.9-2.1c0.9-1.1,1.9-2.1,2.8-3.2c3.8-4.1,7.8-7.9,11.8-11.6l1.5-1.4c0.5-0.5,0.9-1,1.5-1.3
			c0.6-0.4,1.3-0.6,1.9-1c0.7-0.3,1.6-0.4,1.9-0.8c0,0,0,0,0,0c0,0,0,0,0,0.1c0,0,0,0.2,0.2,0.3c0.1,0.1,0.3,0.1,0.3,0.1
			c0,0,0,0,0,0l-0.1,0c-0.1,0-0.3,0.1-0.4,0.2c-0.3,0.2-0.5,0.4-0.8,0.7c-0.5,0.5-0.9,1.1-1.5,1.5c-1.1,0.7-2.4,1.4-3.5,2.1
			c-9.4,5.7-18.9,11.3-28.5,16.7l-3.6,2c-0.6,0.3-1.2,0.7-1.8,1c-0.6,0.3-1.4,0.3-2.1,0.5c-0.2,0-0.3,0.1-0.5,0.2
			c-0.1,0-0.1,0-0.2,0.1c-0.1,0-0.1,0.1-0.4-0.1c-0.2-0.1-0.3-0.6-0.3-0.6c0-0.1,0-0.2,0.1-0.2l0-0.1l0.1-0.2
			c0.2-0.4,0.3-0.7,0.4-1.1c0.1-0.4,0.2-0.8,0.4-1.1c0.1-0.3,0.3-0.7,0.5-1c0.7-1.3,1.4-2.6,2.3-3.6c3.7-4.1,7.5-8.1,11.5-11.9
			c1-0.9,1.9-1.9,3-2.8c0.5-0.4,1.2-0.7,1.8-1.1c0.6-0.3,1.2-0.7,1.9-1c0.3-0.1,0.7-0.3,1-0.4c0.1-0.1,0.3-0.2,0.4-0.3
			c0,0,0.1,0,0.1,0c0,0,0,0,0,0.1c0,0,0,0.1,0.1,0.2c0.1,0.1,0.2,0.1,0.3,0.2c0.1,0,0.1,0,0.1,0c-0.2,0-0.5,0.3-0.8,0.6
			c-0.2,0.3-0.5,0.4-0.8,0.6c-1.2,0.6-2.4,1.3-3.6,2c-4.7,2.8-9.4,5.6-14.1,8.5L24.9,121l-7.1,4.2l-3.6,2.1l-1.8,1.1
			c-0.6,0.3-1.3,0.5-2.4,0L9.9,128.2z"/>
	</g>
</g>
</svg>
