<?xml version="1.0" encoding="utf-8"?>
<!-- Generator: Adobe Illustrator 22.1.0, SVG Export Plug-In . SVG Version: 6.00 Build 0)  -->
<svg version="1.1" xmlns="http://www.w3.org/2000/svg" xmlns:xlink="http://www.w3.org/1999/xlink" x="0px" y="0px"
	 viewBox="0 0 141.1 180" style="enable-background:new 0 0 141.1 180;" xml:space="preserve">
<style type="text/css">
	.st0{display:none;}
	.st1{display:inline;fill:#FF0000;}
</style>
<g id="bg" class="st0">
	<polygon class="st1" points="133.9,0 131.9,0 131.5,0 126.7,0 124.8,0 124.3,0 122.8,0 122.3,0 121.8,0 121.1,0 117.6,0 117.1,0 
		115.6,0 115.1,0 114.6,0 113.9,0 113.1,0 112.6,0 111.9,0 111.5,0 108.4,0 107.9,0 107.4,0 106.7,0 105.9,0 105.4,0 104.8,0 
		104.3,0 103.4,0 102.8,0 102.3,0 101.8,0 98.7,0 98.2,0 97.6,0 97.1,0 96.2,0 95.6,0 95.1,0 94.6,0 93.1,0 92.6,0 89,0 88.4,0 
		87.9,0 87.4,0 85.9,0 85.4,0 83.4,0 78.7,0 78.2,0 76.2,0 72.1,0 69,0 64.9,0 62.9,0 62.4,0 57.7,0 55.7,0 55.3,0 53.7,0 53.3,0 
		52.8,0 52.1,0 48.6,0 48.1,0 46.6,0 46.1,0 45.6,0 44.9,0 44.1,0 43.6,0 42.9,0 42.4,0 39.4,0 38.9,0 38.4,0 37.7,0 36.9,0 36.4,0 
		35.7,0 35.3,0 34.4,0 33.7,0 33.3,0 32.8,0 29.7,0 29.2,0 28.6,0 28.1,0 27.2,0 26.6,0 26.1,0 25.6,0 24.1,0 23.6,0 20,0 19.4,0 
		18.9,0 18.4,0 16.9,0 16.4,0 14.4,0 9.7,0 9.2,0 7.2,0 0,0 0,180 7.2,180 9.2,180 9.7,180 14.4,180 16.4,180 16.9,180 18.4,180 
		18.9,180 19.4,180 20,180 23.6,180 24.1,180 25.6,180 26.1,180 26.6,180 27.2,180 28.1,180 28.6,180 29.2,180 29.7,180 32.8,180 
		33.3,180 33.7,180 34.4,180 35.3,180 35.7,180 36.4,180 36.9,180 37.7,180 38.4,180 38.9,180 39.4,180 42.4,180 42.9,180 43.6,180 
		44.1,180 44.9,180 45.6,180 46.1,180 46.6,180 48.1,180 48.6,180 52.1,180 52.8,180 53.3,180 53.7,180 55.3,180 55.7,180 57.7,180 
		62.4,180 62.9,180 64.9,180 69,180 72.1,180 76.2,180 78.2,180 78.7,180 83.4,180 85.4,180 85.9,180 87.4,180 87.9,180 88.4,180 
		89,180 92.6,180 93.1,180 94.6,180 95.1,180 95.6,180 96.2,180 97.1,180 97.6,180 98.2,180 98.7,180 101.8,180 102.3,180 
		102.8,180 103.4,180 104.3,180 104.8,180 105.4,180 105.9,180 106.7,180 107.4,180 107.9,180 108.4,180 111.5,180 111.9,180 
		112.6,180 113.1,180 113.9,180 114.6,180 115.1,180 115.6,180 117.1,180 117.6,180 121.1,180 121.8,180 122.3,180 122.8,180 
		124.3,180 124.8,180 126.7,180 131.5,180 131.9,180 133.9,180 141.1,180 141.1,0 	"/>
</g>
<g id="figure">
	<g>
		<path d="M9.9,94.8C9.7,93.9,9.8,93.4,10,93c0.2-0.4,0.6-0.6,0.9-1l1.8-1.8c1.2-1.2,2.4-2.4,3.6-3.6c2.4-2.4,5-4.7,7.5-7.1
			c2.5-2.3,5.1-4.6,7.8-6.9c2.7-2.2,5.5-4.4,8.5-6.1c3-1.8,6.2-3.3,9.3-4.8c1.6-0.7,3.1-1.5,4.8-2.1c0.8-0.3,1.7-0.6,2.7-0.9
			c0.9-0.2,1.9-0.3,2.8-0.4l2.6-0.1c0.8,0,1.8-0.1,2.8,0c1,0.1,2,0.2,3,0.6c1,0.3,2.1,1,2.9,1.9c0.8,0.9,1.3,1.9,1.8,2.9
			c0.2,0.5,0.4,1,0.5,1.4c0.1,0.2,0.1,0.5,0.2,0.7l0.1,0.4c0,0.2,0.1,0.4,0.1,0.6c0.1,1.5-0.1,2.5-0.3,3.5c-0.2,1-0.4,1.9-0.7,2.8
			c-1.1,3.6-3.1,6.6-4.9,9.6c-1.9,3-3.9,5.9-6,8.7c-2.1,2.8-4.4,5.5-6.9,8.1c-1.2,1.3-2.6,2.6-4,3.7l-3.9,3.3
			c-2.6,2.2-5.2,4.5-7.9,6.7c-2.7,2.2-5.4,4.4-8.4,6.3c-3,1.9-6.1,3.8-9.9,4.8c-1,0.2-2,0.4-3.1,0.3c-1.1,0-2.3-0.4-3.3-0.9
			c-0.5-0.3-0.9-0.6-1.3-1c-0.4-0.4-0.8-0.8-1.2-1.4c-0.3-0.5-0.6-1.2-0.7-1.8c-0.1-0.6-0.1-1.2-0.1-1.8c0.3-2.2,1.2-3.9,2.1-5.5
			c0.9-1.6,1.9-3,3-4.4c2.1-2.8,4.3-5.5,6.5-8.1c1.1-1.3,2.2-2.6,3.4-4c1.2-1.3,2.4-2.5,3.7-3.7c2.5-2.4,5.2-4.6,7.9-6.8
			c5.4-4.3,11.1-8.2,17-11.8c3-1.8,5.9-3.5,9-5.1c3.1-1.6,6.4-2.9,10-3.7c1.8-0.4,3.6-0.6,5.6-0.4c1,0.1,2,0.4,2.9,0.9
			c1,0.5,1.8,1.2,2.5,2.1c1.4,1.8,2,3.9,2.3,5.9c0.3,2,0.3,4-0.1,5.9c-0.1,0.5-0.2,0.9-0.3,1.4c-0.1,0.4-0.3,0.9-0.4,1.4
			c-0.3,1-0.7,1.9-1.1,2.7c-0.9,1.7-1.8,3.3-2.9,4.8c-2.1,3-4.6,5.6-7,8.1c-5,5-10.1,9.6-15.6,13.9c-2.7,2.2-5.5,4.2-8.4,6.1
			c-2.8,2-5.8,3.8-9.2,4.9l-0.6-0.8l0,0c3.2-2.5,6.5-4.8,9.8-7.1c3.4-2.2,6.8-4.4,10.4-6.2c1.9-0.9,3.8-1.7,6-2.1
			c0.6-0.1,1.2-0.1,1.9-0.1c0.3,0,0.6,0.1,1,0.1c0.3,0.1,0.7,0.2,1,0.3c0.7,0.2,1.3,0.7,1.8,1.2c0.5,0.5,1,1.1,1.3,1.7
			c1.2,2.5,1.1,4.9,0.7,7c-0.5,2.1-1.4,4.1-3.1,5.7l0,0l-0.2,0.2c0.3,0.2,0-1.1-0.2-0.9l-0.1,0c0,0,0,0,0,0l0.1,0l0.3-0.1
			c0.2-0.1,0.4-0.2,0.6-0.2c0.4-0.2,0.9-0.4,1.3-0.6c0.8-0.4,1.7-0.8,2.5-1.3c1.6-0.9,3.2-1.9,4.8-3c3.1-2.1,6.1-4.4,8.9-6.9
			c5.7-4.9,10.9-10.3,15.9-15.9c2.5-2.8,4.9-5.7,7.2-8.6c2.3-2.9,4.7-5.8,6.8-8.7c1.1-1.5,2.1-2.9,3-4.4c0.5-0.7,0.8-1.5,1.3-2.2
			c0.4-0.7,0.9-1.4,1.4-2.1c0.5-0.7,0.9-1.4,1.3-2.1c0.3-0.7,0.6-1.4,0.7-2.1c0.3-1.3,0.1-2.4-0.3-3l-0.1-0.2c0,0,0,0,0-0.1
			c0,0,0,0,0,0c0,0,0,0,0,0c0,0,0.1,0,0.1,0l0.1,0c0,0,0,0,0,0l-0.1,0l-0.1,0l-0.2-0.1l-0.5-0.1c-0.7-0.1-1.4,0-2.2,0.2
			c-1.6,0.3-3.3,1-4.9,1.9c-1.6,0.9-3.2,1.8-4.7,2.9c-1.5,1.1-3,2.2-4.5,3.4c-2.9,2.4-5.7,5-8.5,7.6c-2.7,2.7-5.5,5.3-8,8.1
			c-5.1,5.6-9.8,11.6-13.8,17.9c-2,3.2-3.9,6.4-5.3,9.7c-0.7,1.7-1.3,3.4-1.6,5.1l-0.3,1.3c-0.1,0.4-0.2,0.8-0.4,1.3
			c-0.3,0.9-0.6,1.7-1.1,2.7l-0.7,0.1c-0.8-0.9-1.2-1.9-1.4-3c-0.1-0.5-0.2-1.1-0.1-1.6c0-0.5,0.1-1.1,0.1-1.6c0.4-2.1,1-4,1.7-5.9
			c1.5-3.7,3.5-7.2,5.7-10.4C81,93,86.1,87.2,91.5,81.6c2.7-2.8,5.5-5.4,8.3-8.1c2.8-2.7,5.6-5.3,8.6-7.8c1.5-1.3,2.9-2.5,4.5-3.7
			c1.5-1.2,3.1-2.4,4.8-3.5c1.7-1.1,3.5-2.1,5.5-2.9c1-0.4,2.2-0.7,3.4-0.8l1-0.1l0.5,0l0.2,0l0.1,0l0.1,0l0.2,0l0.3,0.1l0.2,0.1
			c0.1,0,0.3,0.1,0.4,0.1c0.2,0.1,0.4,0.2,0.6,0.3c0.4,0.2,0.7,0.4,1,0.7c1.2,1,2.1,2.2,2.6,3.6c0.5,1.3,0.7,2.6,0.8,3.9
			c0.1,1.3-0.1,2.4-0.2,3.6c-0.1,1.2-0.3,2.3-0.5,3.4c-0.2,1.1-0.6,2.2-1,3.1c-0.4,1-0.9,1.9-1.5,2.8c-1,1.8-2.2,3.5-3.4,5.2
			c-2.4,3.3-5,6.3-7.7,9.1c-2.7,2.8-5.5,5.5-8.4,8.2c-5.8,5.2-12,10.1-18.6,14.3c-3.3,2.1-6.7,4-10.3,5.7c-1.8,0.8-3.6,1.5-5.5,2.2
			c-0.9,0.3-1.9,0.6-2.8,0.9c-0.5,0.1-1,0.2-1.4,0.3c-0.2,0-0.5,0.1-0.7,0.1l-0.4,0l-0.2,0l-0.1,0c0,0-0.1,0-0.2,0
			c-0.3,0.3-0.5-1.1-0.2-0.9l-0.2,0.2l0,0c-0.4-2.2-0.3-4.1-0.3-6c0.1-1.8,0.2-3.6-0.1-4.9c-0.1-0.6-0.4-1.1-0.8-1.5
			c-0.1-0.1-0.3-0.2-0.4-0.2c-0.2-0.1-0.3-0.1-0.5-0.2c-0.3-0.1-0.7-0.1-1.1-0.1c-1.7,0.1-3.6,0.8-5.4,1.5
			c-3.6,1.5-7.2,3.4-10.6,5.4c-3.4,2-6.8,4.2-10,6.6l0,0l-0.6-0.8c2.1-2.9,4.5-5.3,7-7.6c2.5-2.3,5-4.7,7.4-7
			c4.9-4.7,9.8-9.3,14.2-14.3c2.2-2.5,4.2-5.1,6.1-7.7c0.9-1.3,1.8-2.6,2.5-3.9c0.3-0.7,0.7-1.3,1-1.9c0.2-0.3,0.3-0.7,0.4-1
			l0.4-1.1c0.6-1.4,1.2-2.8,1.7-4.2c0.5-1.4,0.6-2.9,0-3.9c-0.6-1.1-1.8-1.7-3.3-1.9c-1.4-0.2-3.1-0.1-4.6,0.2
			c-6.4,1.3-12.2,5.2-17.8,8.9c-5.6,3.8-11.1,7.9-16.4,12.1c-2.6,2.1-5.2,4.3-7.7,6.6c-1.3,1.1-2.4,2.3-3.6,3.5
			c-1.1,1.2-2.3,2.4-3.4,3.7c-2.2,2.6-4.4,5.2-6.4,7.9c-1,1.3-2,2.7-2.8,4.1c-0.8,1.4-1.5,2.9-1.6,4.1c-0.1,0.6,0,1,0.3,1.4
			c0.2,0.4,0.7,0.8,1.3,1.1c0.9,0.5,2.2,0.5,3.6,0c1.4-0.4,2.8-1.2,4.1-2.1c1.3-0.9,2.6-1.9,3.9-3c5-4.3,10-9,14.9-13.7l3.7-3.6
			c1.2-1.1,2.2-2.3,3.3-3.5c2.1-2.5,4.2-5.1,6.2-7.8c2-2.7,3.9-5.4,5.7-8.2c1.8-2.8,3.4-5.7,5.1-8.4c0.4-0.7,0.8-1.3,1.2-2
			c0.3-0.6,0.6-1.3,0.8-1.5c0,0,0,0,0,0l0-0.3c0-0.2,0-0.4,0-0.6c0-0.4-0.1-0.7-0.1-1c-0.1-0.7-0.3-1.2-0.6-1.7
			c-0.3-0.4-0.7-0.8-1.3-1c-0.6-0.3-1.2-0.4-2-0.5c-0.8-0.1-1.5-0.1-2.4-0.1c-0.9,0-1.7,0-2.5,0c-1.6,0.1-2.9,0.4-4.5,1
			c-1.5,0.6-3,1.3-4.6,2.1c-3.1,1.5-6.1,3-8.9,4.7c-5.6,3.5-10.7,8.1-15.7,12.7c-2.5,2.3-5,4.7-7.5,7c-1.3,1.2-2.6,2.3-3.9,3.4
			l-2,1.7c-0.3,0.3-0.6,0.6-1,0.8c-0.4,0.2-0.9,0.3-1.8,0L9.9,94.8z"/>
	</g>
</g>
</svg>
