<?xml version="1.0" encoding="utf-8"?>
<!-- Generator: Adobe Illustrator 22.1.0, SVG Export Plug-In . SVG Version: 6.00 Build 0)  -->
<svg version="1.1" xmlns="http://www.w3.org/2000/svg" xmlns:xlink="http://www.w3.org/1999/xlink" x="0px" y="0px"
	 viewBox="0 0 113.4 180" style="enable-background:new 0 0 113.4 180;" xml:space="preserve">
<style type="text/css">
	.st0{display:none;}
	.st1{display:inline;fill:#FF0000;}
</style>
<g id="bg" class="st0">
	<polygon class="st1" points="107.8,0 106.3,0 105.9,0 103.4,0 102.3,0 100.8,0 100.4,0 99.2,0 98.8,0 98.5,0 97.8,0 96.3,0 95.9,0 
		95.2,0 94.8,0 93.7,0 93.4,0 93.3,0 92.9,0 92.3,0 91.8,0 91.4,0 90.8,0 90.4,0 89.2,0 88.8,0 88.5,0 88.1,0 87.8,0 87.8,0 87.4,0 
		86.3,0 86.2,0 85.9,0 85.8,0 85.2,0 84.8,0 84.3,0 83.7,0 83.3,0 82.9,0 82.3,0 81.8,0 81.4,0 80.8,0 80.7,0 80.4,0 80.3,0 79.2,0 
		78.8,0 78.7,0 78.5,0 78.1,0 77.8,0 77.4,0 76.2,0 75.8,0 75.2,0 74.8,0 74.3,0 73.7,0 73.3,0 73.2,0 72.9,0 71.8,0 71.4,0 70.7,0 
		70.3,0 68.7,0 68.1,0 67.8,0 67.4,0 66.2,0 65.8,0 64.3,0 63.2,0 60.7,0 60.3,0 60.2,0 58.7,0 54.6,0 53.2,0 53.1,0 52.7,0 50.2,0 
		49.1,0 47.6,0 47.2,0 46,0 45.6,0 45.3,0 44.6,0 43.1,0 42.7,0 42,0 41.6,0 40.5,0 40.2,0 40.1,0 39.7,0 39.1,0 38.6,0 38.2,0 
		37.6,0 37.2,0 36,0 35.6,0 35.3,0 34.9,0 34.6,0 34.5,0 34.2,0 33.1,0 33,0 32.7,0 32.6,0 32,0 31.6,0 31.1,0 30.5,0 30.1,0 
		29.7,0 29.1,0 28.6,0 28.2,0 27.6,0 27.5,0 27.2,0 27.1,0 26,0 25.6,0 25.5,0 25.3,0 24.9,0 24.5,0 24.2,0 23,0 22.6,0 22,0 
		21.6,0 21.1,0 20.5,0 20.1,0 20,0 19.7,0 18.6,0 18.2,0 17.5,0 17.1,0 15.5,0 14.9,0 14.5,0 14.2,0 13,0 12.6,0 11.1,0 10,0 7.5,0 
		7.1,0 5.5,0 0,0 0,180 5.5,180 7.1,180 7.5,180 10,180 11.1,180 12.6,180 13,180 14.2,180 14.5,180 14.9,180 15.5,180 17.1,180 
		17.5,180 18.2,180 18.6,180 19.7,180 20,180 20.1,180 20.5,180 21.1,180 21.6,180 22,180 22.6,180 23,180 24.2,180 24.5,180 
		24.9,180 25.3,180 25.5,180 25.6,180 26,180 27.1,180 27.2,180 27.5,180 27.6,180 28.2,180 28.6,180 29.1,180 29.7,180 30.1,180 
		30.5,180 31.1,180 31.6,180 32,180 32.6,180 32.7,180 33,180 33.1,180 34.2,180 34.5,180 34.6,180 34.9,180 35.3,180 35.6,180 
		36,180 37.2,180 37.6,180 38.2,180 38.6,180 39.1,180 39.7,180 40.1,180 40.2,180 40.5,180 41.6,180 42,180 42.7,180 43.1,180 
		44.6,180 45.3,180 45.6,180 46,180 47.2,180 47.6,180 49.1,180 50.2,180 52.7,180 53.1,180 53.2,180 54.6,180 58.7,180 60.2,180 
		60.3,180 60.7,180 63.2,180 64.3,180 65.8,180 66.2,180 67.4,180 67.8,180 68.1,180 68.7,180 70.3,180 70.7,180 71.4,180 71.8,180 
		72.9,180 73.2,180 73.3,180 73.7,180 74.3,180 74.8,180 75.2,180 75.8,180 76.2,180 77.4,180 77.8,180 78.1,180 78.5,180 78.7,180 
		78.8,180 79.2,180 80.3,180 80.4,180 80.7,180 80.8,180 81.4,180 81.8,180 82.3,180 82.9,180 83.3,180 83.7,180 84.3,180 84.8,180 
		85.2,180 85.8,180 85.9,180 86.2,180 86.3,180 87.4,180 87.8,180 87.8,180 88.1,180 88.5,180 88.8,180 89.2,180 90.4,180 90.8,180 
		91.4,180 91.8,180 92.3,180 92.9,180 93.3,180 93.4,180 93.7,180 94.8,180 95.2,180 95.9,180 96.3,180 97.8,180 98.5,180 98.8,180 
		99.2,180 100.4,180 100.8,180 102.3,180 103.4,180 105.9,180 106.3,180 107.8,180 113.4,180 113.4,0 	"/>
</g>
<g id="figure">
	<g>
		<path d="M12.8,90.9c-0.1-0.9,0.3-1.4,0.7-1.7l1.2-1.1l2.4-2.2c1.6-1.5,3.2-2.9,4.9-4.3c3.3-2.8,6.6-5.6,10.1-8.3
			c3.4-2.7,6.9-5.3,10.6-7.8c1.9-1.2,3.8-2.3,5.8-3.3c2-1,4.1-1.7,6.2-2.5c2.1-0.9,4.2-1.6,6.4-2.3c1.1-0.3,2.2-0.6,3.4-0.9
			c1.2-0.2,2.4-0.4,3.7-0.5c0.7,0,1.3,0,2.1,0.1c0.7,0.1,1.6,0.3,2.5,0.8c0.9,0.5,1.9,1.4,2.4,2.6c0.3,0.6,0.4,1.2,0.4,1.8l0,0.7
			c0,0.2,0,0.4,0,0.6c0,2.9-0.7,5.2-1.5,7.5c-0.8,2.2-1.9,4.3-3,6.3c-0.6,1-1.2,2-1.8,2.9L68.7,80c-0.2,0.2-0.4,0.5-0.6,0.8
			c-0.4,0.5-0.8,1-1.1,1.4c-3,3.4-6.1,6.4-9.3,9.5l-9.6,9c-0.8,0.8-1.7,1.4-2.5,2.3c-0.8,0.9-1.6,1.8-2.4,2.5
			c-0.8,0.7-1.8,1.3-2.7,1.9l-2.8,1.8c-3.7,2.3-7.5,4.6-11.3,6.6c-1.9,1-3.9,2-5.9,2.9c-2,0.9-4.1,1.8-6.4,2.4
			c-0.6,0.1-1.2,0.3-1.9,0.3c-0.4,0-0.7,0-1.1,0c-0.4-0.1-0.9-0.2-1.5-0.6c-0.1-0.1-0.3-0.2-0.4-0.3c-0.1-0.1-0.2-0.2-0.2-0.3
			c-0.1-0.2-0.3-0.4-0.3-0.6c-0.2-0.4-0.3-0.9-0.3-1.3c0-0.8,0.1-1.5,0.4-2.2c0.4-1.3,1.1-2.3,1.8-3.2c0.7-0.9,1.4-1.8,2.2-2.7
			c3.1-3.3,6.6-6.1,10.3-8.5c1.9-1.2,3.8-2.3,5.7-3.3c2-1,4-1.9,6-2.8c4-1.7,8.1-3.3,12.1-5c8.1-3.2,16.2-6.3,24.3-9.4l6-2.4
			c2-0.8,4-1.6,5.9-2.5c3.7-1.8,7.4-4.1,10.7-6.6c1.7-1.3,3.3-2.6,4.7-4.1c1.4-1.4,2.6-3.1,3-4.6c0.1-0.4,0.1-0.7,0.1-1
			c0-0.2,0-0.3-0.1-0.5c0-0.1-0.1-0.4-0.1-0.3c0,0,0.1,0-0.1,0c-0.2,0-0.6,0-1,0.1c-1.7,0.4-3.7,1.3-5.5,2.3
			c-3.7,2-7.2,4.5-10.6,7.1c-3.4,2.6-6.7,5.4-9.9,8.3c-3.2,2.9-6.3,5.9-9.2,9c-2.9,3.1-5.7,6.4-8.4,9.8c-2.7,3.3-5.5,6.6-8.2,9.8
			c-1.3,1.6-2.8,3.2-3.9,4.6c-0.6,0.8-1.1,1.3-1.5,2.1c-0.4,0.7-0.8,1.6-1.1,2.4c-0.3,0.8-0.5,1.6-0.6,2.3c0,0.3,0,0.6,0,0.8
			c0,0.2,0,0.3,0.1,0.4c0.1,0.2,0.7,0.5,1.6,0.5c0.8,0,1.8-0.2,2.8-0.6c3.9-1.5,7.8-3.4,11.6-5.3c3.8-2,7.6-4,11.5-6.1l5.7-3.1
			l2.9-1.5l1.4-0.8c0.5-0.3,1-0.4,1.9,0l0.3,0.6c-0.1,0.9-0.5,1.3-0.9,1.6l-1.4,0.9l-2.8,1.7c-1.9,1.1-3.7,2.2-5.6,3.3
			c-3.8,2.2-7.6,4.3-11.4,6.3c-3.9,2-7.7,4.1-11.9,5.7c-1.1,0.4-2.2,0.9-3.5,1.2c-0.6,0.1-1.4,0.2-2.2,0.2c-0.8-0.1-1.7-0.3-2.5-0.8
			c-0.8-0.5-1.5-1.3-2-2.1c-0.4-0.8-0.7-1.6-0.9-2.3c-0.3-1.5-0.3-2.8-0.2-4.1c0.1-1.3,0.4-2.6,0.8-3.8c0.4-1.3,1.1-2.6,1.6-3.6
			c1.2-2.1,2.6-3.9,4-5.7c2.8-3.5,5.9-6.6,9.2-9.6l9.8-8.8c3.4-2.9,6.8-5.6,10.3-8.2c3.5-2.6,7-5.2,10.6-7.7c3.6-2.5,7.2-5,11.1-7.2
			c1-0.6,2-1.1,3-1.6c1.1-0.5,2.1-0.9,3.4-1.2c0.6-0.1,1.3-0.2,2.2-0.1c0.4,0.1,0.9,0.2,1.4,0.4c0.5,0.2,0.9,0.7,1.2,1.1
			c0.3,0.5,0.4,0.8,0.5,1.2c0.1,0.4,0.2,0.8,0.2,1.1c0.1,0.8,0,1.5-0.1,2.2c-0.3,1.4-0.9,2.5-1.6,3.6c-0.7,1-1.4,1.9-2.2,2.8
			c-1.6,1.7-3.3,3.2-5.1,4.5c-1.8,1.3-3.7,2.6-5.6,3.7c-1.9,1.1-3.8,2.2-6,3.1c-2.1,0.9-4.1,1.6-6.2,2.4l-6.1,2.2
			c-8.2,2.9-16.4,5.8-24.4,8.9c-4,1.5-8.1,3.1-12,4.8c-2,0.9-3.9,1.7-5.8,2.7c-1.9,1-3.7,2.1-5.5,3.3c-3.5,2.4-6.8,5.1-9.6,8.2
			c-1.3,1.5-2.6,3.3-3.2,4.9c-0.1,0.4-0.2,0.8-0.2,1c0,0.1,0,0.2,0.1,0.3c0,0,0,0.1,0,0.1c0,0,0,0,0,0c0,0-0.1-0.1-0.1-0.1
			c-0.2-0.1,0.1,0,0.5,0c0.4,0,0.9-0.1,1.3-0.3c1.9-0.5,3.8-1.4,5.7-2.3c1.9-0.9,3.8-1.9,5.7-3c3.7-2.1,7.4-4.3,11-6.6
			c1.8-1.1,3.6-2.4,5.3-3.6c0.9-0.6,1.9-0.9,2.7-1.6c0.8-0.6,1.5-1.5,2.2-2.3c2.8-3.2,5.3-6.8,7.8-10.3c2.5-3.5,4.9-7.2,7.2-10.6
			c0.3-0.4,0.6-0.9,0.8-1.2c0.1-0.2,0.2-0.4,0.3-0.6l0.4-0.7l1.5-2.7c1-1.8,1.9-3.6,2.7-5.4c0.8-1.8,1.6-3.5,2-5
			c0-0.1,0-0.2,0.1-0.3l0-0.1c0-0.1,0,0,0,0c0,0,0.1,0.1,0.1,0.2c0.1,0.2,0.4,0.3,0.3,0.2c-0.1-0.2-0.8-0.6-1.7-0.7
			c-1.7-0.3-3.8-0.3-5.9,0c-2,0.3-4.1,0.7-6.1,1.3c-2,0.6-3.9,1.6-5.8,2.5c-1.9,0.9-3.8,1.9-5.5,3c-3.6,2.3-7.1,4.8-10.6,7.3
			c-3.5,2.6-6.9,5.2-10.3,7.9l-5.1,4l-2.5,2l-1.3,1C14.2,90.8,13.7,91.1,12.8,90.9z"/>
	</g>
</g>
</svg>
