<?xml version="1.0" encoding="utf-8"?>
<!-- Generator: Adobe Illustrator 22.1.0, SVG Export Plug-In . SVG Version: 6.00 Build 0)  -->
<svg version="1.1" xmlns="http://www.w3.org/2000/svg" xmlns:xlink="http://www.w3.org/1999/xlink" x="0px" y="0px"
	 viewBox="0 0 119 180" style="enable-background:new 0 0 119 180;" xml:space="preserve">
<style type="text/css">
	.st0{display:none;}
	.st1{display:inline;fill:#FF0000;}
</style>
<g id="bg" class="st0">
	<polygon class="st1" points="113.2,0 111.5,0 111.1,0 107.3,0 105.6,0 105.2,0 104,0 103.6,0 103.2,0 99.8,0 99.4,0 99,0 98.1,0 
		97.7,0 97.3,0 96.1,0 95.7,0 93.2,0 92.3,0 91.9,0 91.5,0 91.4,0 91.1,0 90.2,0 89.8,0 88.2,0 87.3,0 85.6,0 85.2,0 84.3,0 84,0 
		83.9,0 83.6,0 83.2,0 82.3,0 79.8,0 79.4,0 78.1,0 77.7,0 77.3,0 76.4,0 76.1,0 75.7,0 72.3,0 71.9,0 71.4,0 70.2,0 69.8,0 68.2,0 
		64.3,0 63.9,0 62.6,0 62.3,0 56.7,0 56.4,0 55.1,0 54.7,0 50.9,0 49.2,0 48.8,0 47.6,0 47.2,0 46.8,0 43.3,0 42.9,0 42.6,0 41.7,0 
		41.3,0 40.9,0 39.7,0 39.3,0 36.7,0 35.8,0 35.4,0 35.1,0 35,0 34.7,0 33.8,0 33.4,0 31.8,0 30.9,0 29.2,0 28.8,0 27.9,0 27.6,0 
		27.5,0 27.2,0 26.8,0 25.9,0 23.3,0 22.9,0 21.7,0 21.3,0 20.9,0 20,0 19.7,0 19.3,0 15.8,0 15.4,0 15,0 13.8,0 13.4,0 11.8,0 
		7.9,0 7.5,0 5.9,0 0,0 0,180 5.9,180 7.5,180 7.9,180 11.8,180 13.4,180 13.8,180 15,180 15.4,180 15.8,180 19.3,180 19.7,180 
		20,180 20.9,180 21.3,180 21.7,180 22.9,180 23.3,180 25.9,180 26.8,180 27.2,180 27.5,180 27.6,180 27.9,180 28.8,180 29.2,180 
		30.9,180 31.8,180 33.4,180 33.8,180 34.7,180 35,180 35.1,180 35.4,180 35.8,180 36.7,180 39.3,180 39.7,180 40.9,180 41.3,180 
		41.7,180 42.6,180 42.9,180 43.3,180 46.8,180 47.2,180 47.6,180 48.8,180 49.2,180 50.9,180 54.7,180 55.1,180 56.4,180 56.7,180 
		62.3,180 62.6,180 63.9,180 64.3,180 68.2,180 69.8,180 70.2,180 71.4,180 71.9,180 72.3,180 75.7,180 76.1,180 76.4,180 77.3,180 
		77.7,180 78.1,180 79.4,180 79.8,180 82.3,180 83.2,180 83.6,180 83.9,180 84,180 84.3,180 85.2,180 85.6,180 87.3,180 88.2,180 
		89.8,180 90.2,180 91.1,180 91.4,180 91.5,180 91.9,180 92.3,180 93.2,180 95.7,180 96.1,180 97.3,180 97.7,180 98.1,180 99,180 
		99.4,180 99.8,180 103.2,180 103.6,180 104,180 105.2,180 105.6,180 107.3,180 111.1,180 111.5,180 113.2,180 119,180 119,0 	"/>
</g>
<g id="figure">
	<g>
		<g>
			<path d="M25.4,94.2c-0.7-2.5,0.8-3.2,1.6-4.4l2.8-3.3c1.9-2.2,3.8-4.4,5.8-6.5c2-2.1,4-4.2,6.2-6.2c2.2-2,4.5-3.9,6.8-5.6
				c2.3-1.8,4.7-3.4,7.2-5.1c2.5-1.6,5-3.1,7.7-4.4c1.4-0.6,2.8-1.2,4.3-1.6c0.8-0.2,1.6-0.3,2.6-0.3c0.9,0,2.1,0.2,3.2,1
				c1,0.9,1.5,2.1,1.7,3c0.2,1,0.3,1.9,0.3,2.8c0,1.8-0.2,3.4-0.7,4.9c-1,3-2.4,5.8-3.8,8.4c-1.5,2.6-3.1,5.2-4.9,7.5
				c-3.6,4.8-7.5,9.1-11.6,13.3c-4.1,4.2-8.4,8.2-12.8,11.9c-4.4,3.8-9,7.4-13.8,10.7l-0.6-0.7l0,0c0.4-1.2,1.1-1.9,2-2.6l2.5-1.9
				c1.6-1.3,3.3-2.5,5-3.8c1.7-1.2,3.4-2.4,5.3-3.5c0.9-0.5,1.9-1.1,2.9-1.5c0.5-0.2,1.1-0.4,1.7-0.6c0.3-0.1,0.7-0.1,1.2-0.1
				c0.3,0,0.4,0.1,0.6,0.1l0.5,0.1c0.6,0.2,1.2,0.4,1.9,0.8c0.6,0.4,1.2,1,1.5,1.6c0.7,1.3,0.8,2.5,1,3.5l0.2,1.6l0.1,0.8
				c0,0.3,0,0.6,0,1c-0.1,1.3-0.5,2.4-1,3.5c-0.6,1.1-1.3,2.1-2.4,2.9c-0.6,0.4-1.2,0.8-2.2,0.8c-0.4,0-0.9,0-1.4-0.2
				c-0.4-0.2-0.8-0.5-1.1-0.8c-0.4-0.4-0.7-1.1-0.7-1.5c-0.1-0.5,0-0.8,0-1.2c0.1-0.7,0.3-1.2,0.5-1.8c0.4-1.1,0.9-2,1.4-3
				c2.1-3.7,4.5-7.1,6.8-10.6c2.4-3.4,4.7-6.8,7-10.3c2.4-3.5,4.9-6.8,7.6-10.1c2.7-3.2,5.5-6.3,8.4-9.3c2.9-3,6-5.8,9.4-8.4
				c3.4-2.6,6.9-5,10.9-6.7c1-0.4,2.1-0.8,3.2-1.1c1.1-0.3,2.3-0.5,3.6-0.6c0.7-0.1,1.5,0,2.2,0.3c0.8,0.3,1.6,0.8,2.1,1.5
				c1.2,1.4,1.5,3,1.7,4.3c0.4,2.7-0.1,5.2-0.8,7.3c-0.8,2.2-1.8,4.2-3,6.2c-1.2,1.9-2.3,3.7-3.6,5.4c-1.2,1.7-2.4,3.4-3.6,5.1
				c-2.4,3.4-4.9,6.7-7.5,10l-7.6,9.9c-1.3,1.6-2.6,3.3-3.9,4.9c-1.3,1.6-2.7,3.3-4.1,4.9c-5.7,6.4-11.7,12.1-17.8,17.8
				c-3.1,2.9-6.1,5.6-9.6,8.3c-0.4,0.3-0.9,0.7-1.4,1c-0.5,0.3-0.9,0.6-1.3,0.9c-0.9,0.6-1.7,1.2-2.6,1.7l-5.3,3.3
				c-3.5,2.2-7.1,4.3-10.8,6.4c-1.8,1-3.7,2-5.5,3c-0.9,0.5-1.9,0.9-2.9,1.4c-0.3,0.1-0.5,0.2-0.8,0.3c-0.3,0.1-0.6,0.2-0.9,0.3
				c-0.6,0.1-1.1,0.3-1.7,0.3c-1.2,0.1-2.5,0.1-3.8-0.4c-0.7-0.3-1.3-0.8-1.8-1.5c-0.4-0.7-0.5-1.5-0.5-2.2c0.1-1.4,0.6-2.5,1.1-3.5
				c0.5-1,1.2-1.9,1.9-2.7c1.4-1.7,2.9-3.1,4.5-4.5c1.6-1.4,3.2-2.7,4.9-4c3.3-2.5,6.8-4.9,10.4-7.1c3.6-2.2,7.2-4.3,11.1-5.9
				c7.6-3.4,15.4-6.4,23-9.5c3.8-1.6,7.6-3.2,11.4-4.8c3.8-1.7,7.6-3.3,11.3-5c3.7-1.7,7.4-3.5,10.8-5.7c1.7-1.1,3.3-2.3,4.8-3.6
				c0.7-0.7,1.5-1.4,2.1-2.1c0.3-0.4,0.6-0.8,1-1.1c0.4-0.3,1-0.5,2-0.4c0.3,0.9,0.3,1.5,0.1,2.1c-0.2,0.5-0.7,0.8-1,1.3
				c-0.7,0.8-1.5,1.6-2.3,2.3c-1.6,1.5-3.3,2.8-5.1,4c-3.6,2.4-7.3,4.2-11.1,6c-3.8,1.7-7.6,3.4-11.4,5c-3.8,1.6-7.7,3.2-11.6,4.7
				c-7.7,3-15.6,5.7-23.1,9c-3.8,1.6-7.3,3.6-10.9,5.7c-3.5,2.1-6.9,4.4-10.2,6.9c-3.3,2.5-6.4,5.1-8.9,8.2
				c-0.6,0.8-1.1,1.6-1.6,2.4c-0.4,0.8-0.7,1.7-0.7,2.4c0,0.7,0.2,1,0.8,1.2c0.6,0.2,1.5,0.2,2.3,0c0.4-0.1,0.9-0.2,1.3-0.3
				c0.2-0.1,0.4-0.2,0.6-0.2l0.6-0.3c0.8-0.4,1.7-1,2.5-1.5c1.7-1.1,3.4-2.3,5-3.5c3.3-2.4,6.6-5,9.8-7.5l4.9-3.8
				c1.6-1.3,3.4-2.6,4.7-3.8c2.9-2.6,5.9-5.6,8.8-8.4c2.9-2.9,5.8-5.8,8.6-8.8c2.8-3,5.6-6,8.2-9c2.6-3,5.1-6.3,7.6-9.5l7.6-9.7
				l7.5-9.8c1.2-1.6,2.5-3.3,3.7-4.9c1.2-1.6,2.4-3.3,3.4-4.9c1-1.5,1.8-3.3,2.6-4.9c0.7-1.7,1.5-3.3,1.9-4.7
				c0.2-0.7,0.3-1.3,0.2-1.6c0-0.2,0-0.3-0.2-0.5c-0.1-0.2-0.4-0.4-0.7-0.5c-0.7-0.3-1.6-0.2-2.5,0c-0.9,0.2-1.8,0.5-2.7,0.9
				c-1.8,0.8-3.5,1.8-5.1,3c-1.6,1.2-3.2,2.4-4.8,3.8c-3.1,2.7-6,5.5-8.9,8.4C73.4,82.3,67.8,88.4,63,95
				c-4.7,6.8-9.8,13.4-13.9,20.4c-0.5,0.9-0.9,1.8-1.3,2.6c-0.2,0.4-0.3,0.9-0.4,1.2c0,0.2,0,0.3,0,0.4c0,0.1,0-0.1-0.1-0.1
				c0.2,0.1,0.2,0.1,0.3,0.1c0.1,0,0.4-0.1,0.7-0.3c0.6-0.4,1.1-1.1,1.5-1.9c0.4-0.8,0.6-1.6,0.7-2.4c0-0.2,0-0.4,0-0.6l-0.1-0.7
				l-0.1-1.5c-0.1-1-0.3-1.9-0.6-2.4c-0.3-0.5-0.8-0.8-1.6-1.1l-0.3-0.1c-0.1,0-0.2,0-0.2,0c0,0-0.2,0-0.4,0
				c-0.4,0.1-0.8,0.2-1.2,0.4c-0.9,0.4-1.7,0.8-2.6,1.3c-1.7,1-3.5,2.1-5.1,3.3c-1.7,1.2-3.4,2.4-5,3.6l-2.5,1.9
				c-0.8,0.6-1.7,1.2-2.9,1.3l0,0l-0.6-0.7c7.7-8.6,15.5-17.2,22.7-26c3.6-4.4,7-9,10.2-13.5c3.2-4.6,6.3-9.2,8.4-14.1
				c0.5-1.2,1.2-2.4,1.7-3.4c0.3-0.5,0.5-1.1,0.7-1.5c0.1-0.5,0.2-0.8,0.2-0.9c0-0.2-0.3-0.4-0.8-0.5c-0.5,0-1.1,0.1-1.7,0.2
				c-1.2,0.3-2.5,0.9-3.7,1.5c-5,2.5-9.7,5.9-14.1,9.4c-2.2,1.8-4.4,3.6-6.4,5.6c-2,2-4,4.1-5.9,6.2l-5.8,6.4l-2.9,3.2
				c-1.1,1-1.5,2.5-4.1,2.2L25.4,94.2z"/>
		</g>
	</g>
</g>
</svg>
