<?xml version="1.0" encoding="utf-8"?>
<!-- Generator: Adobe Illustrator 22.1.0, SVG Export Plug-In . SVG Version: 6.00 Build 0)  -->
<svg version="1.1" xmlns="http://www.w3.org/2000/svg" xmlns:xlink="http://www.w3.org/1999/xlink" x="0px" y="0px"
	 viewBox="0 0 128.5 180" style="enable-background:new 0 0 128.5 180;" xml:space="preserve">
<style type="text/css">
	.st0{display:none;}
	.st1{display:inline;fill:#FF0000;}
</style>
<g id="bg" class="st0">
	<polygon class="st1" points="122,0 120.3,0 119.8,0 115.6,0 113.8,0 113.4,0 112,0 111.6,0 111.1,0 108.5,0 107.4,0 106.9,0 
		105.6,0 105.1,0 104.7,0 103.4,0 102.9,0 102,0 100.3,0 99.8,0 99.1,0 98.7,0 98.3,0 96.9,0 96.5,0 95.6,0 94.7,0 93.8,0 93.4,0 
		92,0 91.6,0 91.1,0 90.5,0 90,0 88.2,0 87.4,0 86.9,0 85.6,0 85.1,0 84.7,0 83.4,0 82.9,0 81.8,0 79.1,0 78.7,0 78.3,0 76.9,0 
		76.5,0 74.7,0 70.5,0 70,0 68.2,0 66.7,0 61.8,0 60.2,0 58.5,0 58,0 53.8,0 52,0 51.6,0 50.2,0 49.8,0 49.3,0 46.7,0 45.6,0 
		45.1,0 43.8,0 43.3,0 42.9,0 41.6,0 41.1,0 40.2,0 38.5,0 38,0 37.3,0 36.9,0 36.5,0 35.1,0 34.7,0 33.8,0 32.9,0 32,0 31.6,0 
		30.2,0 29.8,0 29.3,0 28.7,0 28.2,0 26.4,0 25.6,0 25.1,0 23.8,0 23.3,0 22.9,0 21.6,0 21.1,0 20,0 17.3,0 16.9,0 16.5,0 15.1,0 
		14.7,0 12.9,0 8.7,0 8.2,0 6.4,0 0,0 0,180 6.4,180 8.2,180 8.7,180 12.9,180 14.7,180 15.1,180 16.5,180 16.9,180 17.3,180 
		20,180 21.1,180 21.6,180 22.9,180 23.3,180 23.8,180 25.1,180 25.6,180 26.4,180 28.2,180 28.7,180 29.3,180 29.8,180 30.2,180 
		31.6,180 32,180 32.9,180 33.8,180 34.7,180 35.1,180 36.5,180 36.9,180 37.3,180 38,180 38.5,180 40.2,180 41.1,180 41.6,180 
		42.9,180 43.3,180 43.8,180 45.1,180 45.6,180 46.7,180 49.3,180 49.8,180 50.2,180 51.6,180 52,180 53.8,180 58,180 58.5,180 
		60.2,180 61.8,180 66.7,180 68.2,180 70,180 70.5,180 74.7,180 76.5,180 76.9,180 78.3,180 78.7,180 79.1,180 81.8,180 82.9,180 
		83.4,180 84.7,180 85.1,180 85.6,180 86.9,180 87.4,180 88.2,180 90,180 90.5,180 91.1,180 91.6,180 92,180 93.4,180 93.8,180 
		94.7,180 95.6,180 96.5,180 96.9,180 98.3,180 98.7,180 99.1,180 99.8,180 100.3,180 102,180 102.9,180 103.4,180 104.7,180 
		105.1,180 105.6,180 106.9,180 107.4,180 108.5,180 111.1,180 111.6,180 112,180 113.4,180 113.8,180 115.6,180 119.8,180 
		120.3,180 122,180 128.5,180 128.5,0 	"/>
</g>
<g id="figure">
	<g>
		<g>
			<path d="M25.4,94.2c-0.7-2.5,0.8-3.2,1.6-4.4l2.8-3.3c1.9-2.2,3.8-4.4,5.8-6.5c2-2.1,4-4.2,6.2-6.2c2.2-2,4.5-3.9,6.8-5.6
				c2.3-1.8,4.7-3.4,7.2-5.1c2.5-1.6,5-3.1,7.7-4.4c1.4-0.6,2.8-1.2,4.3-1.6c0.8-0.2,1.6-0.3,2.6-0.3c0.9,0,2.1,0.2,3.2,1
				c1,0.9,1.5,2.1,1.7,3c0.2,1,0.3,1.9,0.3,2.8c0,1.8-0.2,3.4-0.7,4.9c-1,3-2.4,5.8-3.8,8.4c-1.5,2.6-3.1,5.2-4.9,7.5
				c-3.6,4.8-7.5,9.1-11.6,13.3c-4.1,4.2-8.4,8.2-12.8,11.9c-4.4,3.8-9,7.4-13.8,10.7l-0.6-0.7l0,0c0.4-1.2,1.1-1.9,2-2.6l2.5-1.9
				c1.6-1.3,3.3-2.5,5-3.8c1.7-1.2,3.4-2.4,5.3-3.5c0.9-0.5,1.9-1.1,2.9-1.5c0.5-0.2,1.1-0.4,1.7-0.6c0.3-0.1,0.7-0.1,1.2-0.1
				c0.3,0,0.4,0.1,0.6,0.1l0.5,0.1c0.6,0.2,1.2,0.4,1.9,0.8c0.6,0.4,1.2,1,1.5,1.6c0.7,1.3,0.8,2.5,1,3.5l0.2,1.6l0.1,0.8
				c0,0.3,0,0.6,0,1c-0.1,1.3-0.5,2.4-1,3.5c-0.6,1.1-1.3,2.1-2.4,2.9c-0.6,0.4-1.2,0.8-2.2,0.8c-0.4,0-0.9,0-1.4-0.2
				c-0.4-0.2-0.8-0.5-1.1-0.8c-0.4-0.4-0.7-1.1-0.7-1.5c-0.1-0.5,0-0.8,0-1.2c0.1-0.7,0.3-1.2,0.5-1.8c0.4-1.1,0.9-2,1.4-3
				c2.1-3.7,4.5-7.1,6.8-10.6c2.4-3.4,4.7-6.8,7-10.3c2.4-3.5,4.9-6.8,7.6-10.1c2.7-3.2,5.5-6.3,8.4-9.3c2.9-3,6-5.8,9.4-8.4
				c3.4-2.6,6.9-5,10.9-6.7c1-0.4,2.1-0.8,3.2-1.1c1.1-0.3,2.3-0.5,3.6-0.6c0.7-0.1,1.5,0,2.2,0.3c0.8,0.3,1.6,0.8,2.1,1.5
				c1.2,1.4,1.5,3,1.7,4.3c0.4,2.7-0.1,5.2-0.8,7.3c-0.8,2.2-1.8,4.2-3,6.2c-1.2,1.9-2.3,3.7-3.6,5.4c-1.2,1.7-2.4,3.4-3.6,5.1
				c-2.4,3.4-4.9,6.7-7.5,10l-7.6,9.9c-1.3,1.6-2.6,3.3-3.9,4.9c-1.3,1.6-2.7,3.3-4.1,4.9c-5.7,6.4-11.7,12.1-17.8,17.8
				c-3.1,2.9-6.1,5.6-9.6,8.3c-0.4,0.3-0.9,0.7-1.4,1c-0.5,0.3-0.9,0.6-1.3,0.9c-0.9,0.6-1.7,1.2-2.6,1.7l-5.3,3.3
				c-3.5,2.2-7.1,4.3-10.8,6.4c-1.8,1-3.7,2-5.5,3c-0.9,0.5-1.9,0.9-2.9,1.4c-0.3,0.1-0.5,0.2-0.8,0.3c-0.3,0.1-0.6,0.2-0.9,0.3
				c-0.6,0.1-1.1,0.3-1.7,0.3c-1.2,0.1-2.5,0.1-3.8-0.4c-0.7-0.3-1.3-0.8-1.8-1.5c-0.4-0.7-0.5-1.5-0.5-2.2c0.1-1.4,0.6-2.5,1.1-3.5
				c0.5-1,1.2-1.9,1.9-2.7c1.4-1.7,2.9-3.1,4.5-4.5c1.6-1.4,3.2-2.7,4.9-4c3.3-2.5,6.8-4.9,10.4-7.1c3.6-2.2,7.2-4.3,11.1-5.9
				c7.6-3.4,15.4-6.4,23-9.5c3.8-1.6,7.6-3.2,11.4-4.8c3.8-1.7,7.6-3.3,11.3-5c3.7-1.7,7.4-3.5,10.8-5.7c1.7-1.1,3.3-2.3,4.8-3.6
				c0.7-0.7,1.5-1.4,2.1-2.1c0.3-0.4,0.6-0.8,1-1.1c0.4-0.3,1-0.5,2-0.4c0.3,0.9,0.3,1.5,0.1,2.1c-0.2,0.5-0.7,0.8-1,1.3
				c-0.7,0.8-1.5,1.6-2.3,2.3c-1.6,1.5-3.3,2.8-5.1,4c-3.6,2.4-7.3,4.2-11.1,6c-3.8,1.7-7.6,3.4-11.4,5c-3.8,1.6-7.7,3.2-11.6,4.7
				c-7.7,3-15.6,5.7-23.1,9c-3.8,1.6-7.3,3.6-10.9,5.7c-3.5,2.1-6.9,4.4-10.2,6.9c-3.3,2.5-6.4,5.1-8.9,8.2
				c-0.6,0.8-1.1,1.6-1.6,2.4c-0.4,0.8-0.7,1.7-0.7,2.4c0,0.7,0.2,1,0.8,1.2c0.6,0.2,1.5,0.2,2.3,0c0.4-0.1,0.9-0.2,1.3-0.3
				c0.2-0.1,0.4-0.2,0.6-0.2l0.6-0.3c0.8-0.4,1.7-1,2.5-1.5c1.7-1.1,3.4-2.3,5-3.5c3.3-2.4,6.6-5,9.8-7.5l4.9-3.8
				c1.6-1.3,3.4-2.6,4.7-3.8c2.9-2.6,5.9-5.6,8.8-8.4c2.9-2.9,5.8-5.8,8.6-8.8c2.8-3,5.6-6,8.2-9c2.6-3,5.1-6.3,7.6-9.5l7.6-9.7
				l7.5-9.8c1.2-1.6,2.5-3.3,3.7-4.9c1.2-1.6,2.4-3.3,3.4-4.9c1-1.5,1.8-3.3,2.6-4.9c0.7-1.7,1.5-3.3,1.9-4.7
				c0.2-0.7,0.3-1.3,0.2-1.6c0-0.2,0-0.3-0.2-0.5c-0.1-0.2-0.4-0.4-0.7-0.5c-0.7-0.3-1.6-0.2-2.5,0c-0.9,0.2-1.8,0.5-2.7,0.9
				c-1.8,0.8-3.5,1.8-5.1,3c-1.6,1.2-3.2,2.4-4.8,3.8c-3.1,2.7-6,5.5-8.9,8.4C73.4,82.3,67.8,88.4,63,95
				c-4.7,6.8-9.8,13.4-13.9,20.4c-0.5,0.9-0.9,1.8-1.3,2.6c-0.2,0.4-0.3,0.9-0.4,1.2c0,0.2,0,0.3,0,0.4c0,0.1,0-0.1-0.1-0.1
				c0.2,0.1,0.2,0.1,0.3,0.1c0.1,0,0.4-0.1,0.7-0.3c0.6-0.4,1.1-1.1,1.5-1.9c0.4-0.8,0.6-1.6,0.7-2.4c0-0.2,0-0.4,0-0.6l-0.1-0.7
				l-0.1-1.5c-0.1-1-0.3-1.9-0.6-2.4c-0.3-0.5-0.8-0.8-1.6-1.1l-0.3-0.1c-0.1,0-0.2,0-0.2,0c0,0-0.2,0-0.4,0
				c-0.4,0.1-0.8,0.2-1.2,0.4c-0.9,0.4-1.7,0.8-2.6,1.3c-1.7,1-3.5,2.1-5.1,3.3c-1.7,1.2-3.4,2.4-5,3.6l-2.5,1.9
				c-0.8,0.6-1.7,1.2-2.9,1.3l0,0l-0.6-0.7c7.7-8.6,15.5-17.2,22.7-26c3.6-4.4,7-9,10.2-13.5c3.2-4.6,6.3-9.2,8.4-14.1
				c0.5-1.2,1.2-2.4,1.7-3.4c0.3-0.5,0.5-1.1,0.7-1.5c0.1-0.5,0.2-0.8,0.2-0.9c0-0.2-0.3-0.4-0.8-0.5c-0.5,0-1.1,0.1-1.7,0.2
				c-1.2,0.3-2.5,0.9-3.7,1.5c-5,2.5-9.7,5.9-14.1,9.4c-2.2,1.8-4.4,3.6-6.4,5.6c-2,2-4,4.1-5.9,6.2l-5.8,6.4l-2.9,3.2
				c-1.1,1-1.5,2.5-4.1,2.2L25.4,94.2z"/>
		</g>
		<g>
			<path d="M94.4,47c0-0.3,0.2-0.5,0.3-0.7l0.4-0.6l0.8-1.3l1.5-2.5c1-1.7,2.1-3.3,3.2-4.9c1.1-1.6,2.1-3.3,3.4-4.8
				c0.6-0.8,1-1.6,1.8-2.3c0.8-0.6,1.6-1.2,3.7-0.7l0.4,0.3c0.9,2,0.4,2.8-0.1,3.7c-0.5,0.9-1.3,1.4-1.9,2.2
				c-1.3,1.5-2.7,2.8-4.1,4.1c-1.4,1.3-2.8,2.7-4.3,4L97,45.5l-1.1,1L95.4,47c-0.2,0.2-0.4,0.3-0.6,0.4L94.4,47z"/>
		</g>
		<g>
			<path d="M103.4,47c0-0.3,0.2-0.5,0.3-0.7l0.4-0.6l0.8-1.3l1.5-2.5c1-1.7,2.1-3.3,3.2-4.9c1.1-1.6,2.1-3.3,3.4-4.8
				c0.6-0.8,1-1.6,1.8-2.3c0.8-0.6,1.6-1.2,3.7-0.7l0.4,0.3c0.9,2,0.4,2.8-0.1,3.7c-0.5,0.9-1.3,1.4-1.9,2.2
				c-1.3,1.5-2.7,2.8-4.1,4.1c-1.4,1.3-2.8,2.7-4.3,4l-2.2,1.9l-1.1,1l-0.6,0.5c-0.2,0.2-0.4,0.3-0.6,0.4L103.4,47z"/>
		</g>
	</g>
</g>
</svg>
