<?xml version="1.0" encoding="utf-8"?>
<!-- Generator: Adobe Illustrator 22.1.0, SVG Export Plug-In . SVG Version: 6.00 Build 0)  -->
<svg version="1.1" xmlns="http://www.w3.org/2000/svg" xmlns:xlink="http://www.w3.org/1999/xlink" x="0px" y="0px"
	 viewBox="0 0 88.4 180" style="enable-background:new 0 0 88.4 180;" xml:space="preserve">
<style type="text/css">
	.st0{display:none;}
	.st1{display:inline;fill:#FF0000;}
	.st2{fill:none;stroke:#000000;stroke-miterlimit:10;}
</style>
<g id="bg" class="st0">
	<polygon class="st1" points="85.1,0 84.2,0 84,0 81.8,0 80.9,0 80.7,0 80,0 79.7,0 79.5,0 77.6,0 77.4,0 76.7,0 76.4,0 76.2,0 
		75.6,0 75.5,0 75.3,0 73.4,0 73.1,0 72.9,0 72.3,0 72.2,0 72,0 71.4,0 71.2,0 71.1,0 69,0 68.9,0 68.7,0 68.4,0 68.1,0 67.9,0 
		67.8,0 67.2,0 67,0 66.8,0 65.1,0 64.8,0 64.6,0 64.5,0 64.2,0 64,0 63.9,0 63.7,0 63.4,0 62.8,0 62.5,0 61.8,0 60.9,0 60.7,0 
		60.6,0 60.4,0 60.1,0 60,0 59.7,0 59.5,0 59.5,0 59.2,0 58.3,0 57.6,0 57.4,0 56.7,0 56.7,0 56.4,0 56.2,0 56.1,0 55.9,0 55.6,0 
		55.5,0 55.3,0 55,0 53.4,0 53.4,0 53.1,0 52.9,0 52.5,0 52.3,0 52.3,0 52.2,0 52,0 51.7,0 51.4,0 51.2,0 51.1,0 50.1,0 49.2,0 
		49,0 49,0 48.9,0 48.7,0 48.3,0 48.1,0 48,0 47.9,0 47.8,0 47.8,0 47.2,0 47,0 46.8,0 45.9,0 45.7,0 45,0 44.8,0 44.7,0 44.6,0 
		44.5,0 44.5,0 43.9,0 43.9,0 43.8,0 43.7,0 43.6,0 43.4,0 42.8,0 42.5,0 41.7,0 41.4,0 41.2,0 40.6,0 40.6,0 40.5,0 40.4,0 40.3,0 
		40.1,0 39.7,0 39.5,0 39.5,0 39.4,0 39.2,0 38.3,0 37.3,0 37.2,0 37,0 36.7,0 36.4,0 36.2,0 36.1,0 36.1,0 35.9,0 35.5,0 35.3,0 
		35.1,0 35,0 33.4,0 33.1,0 32.9,0 32.8,0 32.5,0 32.3,0 32.2,0 32,0 31.7,0 31.7,0 31.1,0 30.8,0 30.1,0 29.2,0 29,0 28.9,0 
		28.7,0 28.4,0 28.3,0 28,0 27.8,0 27.8,0 27.5,0 26.6,0 25.9,0 25.7,0 25,0 24.7,0 24.5,0 24.4,0 24.2,0 23.9,0 23.8,0 23.6,0 
		23.3,0 21.7,0 21.4,0 21.2,0 20.6,0 20.5,0 20.3,0 20,0 19.7,0 19.5,0 19.4,0 17.3,0 17.2,0 17,0 16.4,0 16.2,0 16.1,0 15.5,0 
		15.3,0 15.1,0 13.1,0 12.9,0 12.8,0 12.2,0 12,0 11.7,0 11.1,0 10.8,0 8.9,0 8.7,0 8.4,0 7.8,0 7.5,0 6.6,0 4.4,0 4.2,0 3.3,0 0,0 
		0,180 3.3,180 4.2,180 4.4,180 6.6,180 7.5,180 7.8,180 8.4,180 8.7,180 8.9,180 10.8,180 11.1,180 11.7,180 12,180 12.2,180 
		12.8,180 12.9,180 13.1,180 15.1,180 15.3,180 15.5,180 16.1,180 16.2,180 16.4,180 17,180 17.2,180 17.3,180 19.4,180 19.5,180 
		19.7,180 20,180 20.3,180 20.5,180 20.6,180 21.2,180 21.4,180 21.7,180 23.3,180 23.6,180 23.8,180 23.9,180 24.2,180 24.4,180 
		24.5,180 24.7,180 25,180 25.7,180 25.9,180 26.6,180 27.5,180 27.8,180 27.8,180 28,180 28.3,180 28.4,180 28.7,180 28.9,180 
		29,180 29.2,180 30.1,180 30.8,180 31.1,180 31.7,180 31.7,180 32,180 32.2,180 32.3,180 32.5,180 32.8,180 32.9,180 33.1,180 
		33.4,180 35,180 35.1,180 35.3,180 35.5,180 35.9,180 36.1,180 36.1,180 36.2,180 36.4,180 36.7,180 37,180 37.2,180 37.3,180 
		38.3,180 39.2,180 39.4,180 39.5,180 39.5,180 39.7,180 40.1,180 40.3,180 40.4,180 40.5,180 40.6,180 40.6,180 41.2,180 41.4,180 
		41.7,180 42.5,180 42.8,180 43.4,180 43.6,180 43.7,180 43.8,180 43.9,180 43.9,180 44.5,180 44.5,180 44.6,180 44.7,180 44.8,180 
		45,180 45.7,180 45.9,180 46.8,180 47,180 47.2,180 47.8,180 47.8,180 47.9,180 48,180 48.1,180 48.3,180 48.7,180 48.9,180 
		49,180 49,180 49.2,180 50.1,180 51.1,180 51.2,180 51.4,180 51.7,180 52,180 52.2,180 52.3,180 52.3,180 52.5,180 52.9,180 
		53.1,180 53.4,180 53.4,180 55,180 55.3,180 55.5,180 55.6,180 55.9,180 56.1,180 56.2,180 56.4,180 56.7,180 56.7,180 57.4,180 
		57.6,180 58.3,180 59.2,180 59.5,180 59.5,180 59.7,180 60,180 60.1,180 60.4,180 60.6,180 60.7,180 60.9,180 61.8,180 62.5,180 
		62.8,180 63.4,180 63.7,180 63.9,180 64,180 64.2,180 64.5,180 64.6,180 64.8,180 65.1,180 66.8,180 67,180 67.2,180 67.8,180 
		67.9,180 68.1,180 68.4,180 68.7,180 68.9,180 69,180 71.1,180 71.2,180 71.4,180 72,180 72.2,180 72.3,180 72.9,180 73.1,180 
		73.4,180 75.3,180 75.5,180 75.6,180 76.2,180 76.4,180 76.7,180 77.4,180 77.6,180 79.5,180 79.7,180 80,180 80.7,180 80.9,180 
		81.8,180 84,180 84.2,180 85.1,180 88.4,180 88.4,0 	"/>
</g>
<g id="figure">
	<g>
		<g>
			<path d="M33.7,122.6c0.1-0.4,0.2-0.6,0.3-0.8c0.1-0.2,0.3-0.4,0.5-0.6c0.4-0.3,0.7-0.4,1.1-0.6c0.8-0.3,1.6-0.6,2.4-0.9
				c1.6-0.7,3.2-1.4,5.2-1.9c1-0.2,2-0.4,3.4-0.1c0.7,0.1,1.5,0.5,2.2,1.1c0.7,0.6,1.2,1.5,1.5,2.3c0.5,1.6,0.4,2.9,0.2,4
				c-0.2,1.1-0.5,2.1-0.8,3c-1.4,3.6-3.2,6.7-5.4,9.4c-2.3,2.7-4.4,5.3-6.9,7.7c-2.4,2.4-5.1,4.7-7.7,7c-2.6,2.2-5.3,4.6-8.3,6.4
				c-1.5,0.9-3.1,1.8-5,2.3c-0.9,0.3-1.9,0.4-3,0.3c-1.1-0.1-2.3-0.5-3.2-1.4c-0.5-0.4-0.8-0.9-1.1-1.4c-0.1-0.3-0.2-0.5-0.3-0.8
				c0-0.2-0.1-0.3-0.1-0.4c0-0.2,0-0.4,0-0.6c0-0.7,0.2-1.2,0.4-1.7c0.2-0.5,0.4-0.9,0.6-1.3c0.9-1.6,1.9-3,2.9-4.4
				c4.3-5.4,8.9-10.3,14-15c1.3-1.2,2.6-2.3,4-3.3c1.4-1,2.8-2,4.2-2.9c2.8-1.9,5.6-3.7,8.5-5.6c5.7-3.6,11.4-7.3,17.1-10.8
				c2.9-1.8,5.8-3.5,8.7-5.2l4.4-2.6l2.2-1.3c0.8-0.3,1.2-1.3,2.8-0.3l0.3,0.4c0.2,1.9-0.9,1.8-1.5,2.3l-2.1,1.4l-4.3,2.7
				c-2.8,1.8-5.7,3.6-8.6,5.3c-5.7,3.6-11.5,7-17.2,10.6c-2.8,1.8-5.7,3.6-8.5,5.5c-1.4,0.9-2.8,1.9-4.1,2.8c-1.3,0.9-2.6,2-3.9,3.1
				c-2.5,2.2-5,4.5-7.3,6.8c-2.3,2.4-4.5,4.9-6.5,7.5c-1,1.3-1.9,2.7-2.6,4c-0.3,0.7-0.6,1.4-0.5,1.8c0,0,0,0.1,0,0.1l0,0.2
				c0,0.1,0.1,0.2,0.1,0.4c0.1,0.2,0.3,0.4,0.4,0.6c0.7,0.6,2,0.6,3.4,0.1c1.4-0.5,2.7-1.3,4-2.2c2.6-1.9,5-4.2,7.1-6.7
				c2.1-2.5,4-5.3,5.9-8c0.9-1.4,1.9-2.7,2.9-4.1c0.5-0.7,1-1.3,1.4-2l1.3-2c0.9-1.4,1.8-2.7,2.7-4c0.9-1.3,1.8-2.5,2.5-3.8
				c0.4-0.6,0.7-1.2,0.9-1.7c0.3-0.5,0.4-1,0.5-1c0.1,0,0.2,0.1,0.3,0.1c0.1,0,0.2-0.1,0-0.2c-0.2-0.2-0.9-0.5-1.6-0.5
				c-1.4-0.2-3.1,0-4.7,0.3c-0.8,0.2-1.5,0.5-2.3,0.8c-0.4,0.1-0.8,0.3-1.2,0.3c-0.2,0-0.5,0-0.7-0.1c-0.2,0-0.5-0.1-0.8-0.3
				L33.7,122.6z"/>
		</g>
		<path class="st2" d="M54.1,105.3c0,0,3.2-3.4,2.4-4.6c-0.9-1.2-4.7,0.7-4.7,0.7l0,0"/>
		<g>
			<path d="M10.2,123c0.3-1.9,1.4-2.1,2.3-2.7c1-0.6,1.9-1.1,2.9-1.7c1.9-1.1,3.8-2.2,5.8-3.2l11.7-6.1c3.9-2.1,7.8-4.1,11.8-6
				l3-1.5c1-0.5,2-0.9,3-1.3c0.5-0.2,1-0.4,1.5-0.7c0.5-0.2,1-0.5,1.5-0.8c0.5-0.3,1.1-0.5,1.8-0.7c0.3-0.1,0.7-0.2,1.3-0.2
				c0.3,0,0.6,0,1,0.2c0.2,0.1,0.4,0.2,0.6,0.4c0.1,0.1,0.2,0.2,0.3,0.3c0.1,0.2,0.2,0.2,0.3,0.6l0.1,0.2l0,0.3c0,0.3,0,0.4,0,0.6
				c0,0.2,0,0.3,0,0.4c0,0.3-0.1,0.5-0.1,0.7l-0.2,1.3c-0.2,0.8-0.3,1.7-0.6,2.5c-0.2,0.8-0.6,1.5-1,2.2c-0.4,0.6-0.9,1.3-1.4,1.8
				c-0.5,0.6-1,1.1-1.5,1.7c-0.5,0.5-1.1,1-1.7,1.5c-1.1,1-2.3,1.8-3.4,2.7c-2.3,1.7-4.9,3-7.3,4.5c-1.2,0.7-2.4,1.5-3.6,2.2
				c-0.6,0.3-1.2,0.7-1.9,0.9c-0.4,0.1-0.8,0-1.2,0.1c-0.4,0-0.8,0.1-1.2,0l-0.3-0.4c0.1-0.4,0.3-0.8,0.5-1.1
				c0.2-0.4,0.3-0.8,0.5-1.1c0.5-0.6,1-1,1.5-1.5l3.1-2.7c2.1-1.8,3.9-3.9,5.8-5.8c1.9-1.9,3.6-3.9,5.4-5.7c0.4-0.5,0.9-0.9,1.3-1.3
				c0.4-0.4,0.9-0.8,1.4-1.2c0.5-0.4,1.1-0.7,1.6-1.1c0.2-0.2,0.5-0.4,0.6-0.6c0.1-0.1,0.2-0.2,0.2-0.3l0.1-0.1c0,0,0-0.1,0,0.1
				l0.1,0.4c0.1,0.3,0.1,0.3,0.2,0.4c0.1,0.1,0.1,0.1,0.2,0.2c0.1,0.1,0.2,0.1,0.3,0.1c0.1,0,0.2,0,0.2-0.1c0-0.1-0.2-0.1-0.4-0.1
				c-0.4,0-0.9,0.2-1.3,0.3c-0.2,0.1-0.5,0.2-0.7,0.3l-0.7,0.4c-0.5,0.3-1,0.6-1.4,0.9c-0.9,0.6-1.9,1.2-2.8,1.8l-2.9,1.6
				c-3.9,2.2-7.8,4.2-11.7,6.2l-11.7,6.1c-2,1-3.9,2-5.9,2.9c-1,0.5-2,0.9-3,1.4C12.8,123.1,12,124,10.2,123L10.2,123z"/>
		</g>
	</g>
</g>
</svg>
