<?xml version="1.0" encoding="utf-8"?>
<!-- Generator: Adobe Illustrator 22.1.0, SVG Export Plug-In . SVG Version: 6.00 Build 0)  -->
<svg version="1.1" xmlns="http://www.w3.org/2000/svg" xmlns:xlink="http://www.w3.org/1999/xlink" x="0px" y="0px"
	 viewBox="0 0 107.2 180" style="enable-background:new 0 0 107.2 180;" xml:space="preserve">
<style type="text/css">
	.st0{display:none;}
	.st1{display:inline;fill:#FF0000;}
</style>
<g id="bg" class="st0">
	<polygon class="st1" points="102,0 100.6,0 100.2,0 96.8,0 95.4,0 95,0 94,0 93.6,0 93.2,0 90.2,0 89.9,0 88.8,0 88.4,0 88.1,0 
		87.2,0 87,0 86.6,0 83.6,0 83.2,0 82.9,0 82,0 81.8,0 81.5,0 80.6,0 80.2,0 80,0 76.8,0 76.6,0 76.3,0 75.4,0 75,0 74.8,0 74,0 
		73.6,0 73.2,0 70.2,0 69.9,0 69.7,0 68.8,0 68.4,0 68.1,0 67,0 66.6,0 63.6,0 63.2,0 62.9,0 61.8,0 61.5,0 60,0 57.5,0 56.6,0 
		56.3,0 54.8,0 52.3,0 50.9,0 50.5,0 49.7,0 47.2,0 45.7,0 45.4,0 44.3,0 43.9,0 43.6,0 40.6,0 40.2,0 39.1,0 38.8,0 38.4,0 37.5,0 
		37.3,0 37,0 33.9,0 33.6,0 33.2,0 32.3,0 32.1,0 31.8,0 30.9,0 30.5,0 30.4,0 27.2,0 27,0 26.6,0 25.7,0 25.4,0 25.2,0 24.3,0 
		23.9,0 23.6,0 20.6,0 20.2,0 20,0 19.1,0 18.8,0 18.4,0 17.3,0 17,0 13.9,0 13.6,0 13.2,0 12.1,0 11.8,0 10.4,0 7,0 6.6,0 5.2,0 
		0,0 0,180 5.2,180 6.6,180 7,180 10.4,180 11.8,180 12.1,180 13.2,180 13.6,180 13.9,180 17,180 17.3,180 18.4,180 18.8,180 
		19.1,180 20,180 20.2,180 20.6,180 23.6,180 23.9,180 24.3,180 25.2,180 25.4,180 25.7,180 26.6,180 27,180 27.2,180 30.4,180 
		30.5,180 30.9,180 31.8,180 32.1,180 32.3,180 33.2,180 33.6,180 33.9,180 37,180 37.3,180 37.5,180 38.4,180 38.8,180 39.1,180 
		40.2,180 40.6,180 43.6,180 43.9,180 44.3,180 45.4,180 45.7,180 47.2,180 49.7,180 50.5,180 50.9,180 52.3,180 54.8,180 56.3,180 
		56.6,180 57.5,180 60,180 61.5,180 61.8,180 62.9,180 63.2,180 63.6,180 66.6,180 67,180 68.1,180 68.4,180 68.8,180 69.7,180 
		69.9,180 70.2,180 73.2,180 73.6,180 74,180 74.8,180 75,180 75.4,180 76.3,180 76.6,180 76.8,180 80,180 80.2,180 80.6,180 
		81.5,180 81.8,180 82,180 82.9,180 83.2,180 83.6,180 86.6,180 87,180 87.2,180 88.1,180 88.4,180 88.8,180 89.9,180 90.2,180 
		93.2,180 93.6,180 94,180 95,180 95.4,180 96.8,180 100.2,180 100.6,180 102,180 107.2,180 107.2,0 	"/>
</g>
<g id="figure">
	<g>
		<path d="M31.2,95.9C31,95,31.1,94.4,31.4,94c0.3-0.4,0.6-0.8,1-1.1l2-2.2c1.4-1.5,2.7-2.9,4.1-4.3c2.8-2.8,5.7-5.6,8.6-8.2
			c2.9-2.7,6-5.3,9.1-7.7c3.2-2.5,6.4-4.8,9.8-6.9c1.7-1,3.5-2,5.4-2.9c1.9-0.8,3.9-1.5,6-1.8c2.1-0.2,4.1-0.4,6.3-0.3
			c1.1,0.1,2.2,0.3,3.4,0.8c1.2,0.5,2.5,1.5,3.2,2.8c0.8,1.3,1,2.7,1.1,4c0.1,1.3,0,2.5-0.2,3.6c-0.4,2.3-1.2,4.2-2.1,6.1
			c-0.4,0.9-0.8,1.9-1.3,2.8l-0.7,1.3c-0.2,0.4-0.5,1-0.8,1.5c-1.2,1.9-2.4,3.6-3.8,5.2c-2.7,3.2-5.6,6-8.6,8.7
			c-3,2.7-5.9,5.4-8.9,8.1c-3,2.6-6,5.2-9.1,7.7c-1.5,1.2-3,2.5-4.7,3.8c-1.7,1.2-3.4,2.3-5.1,3.4c-1.8,1-3.6,2-5.6,2.8
			c-1,0.4-2,0.7-3.2,1c-0.6,0.1-1.2,0.2-1.9,0.2c-0.7,0-1.5-0.1-2.4-0.7c-0.4-0.3-0.8-0.7-1.1-1.2c-0.3-0.5-0.4-1.1-0.4-1.6
			c0-1,0.4-1.7,0.7-2.2c0.7-1.1,1.4-1.9,2.2-2.7c1.5-1.5,3.2-2.7,4.8-3.9c1.7-1.2,3.4-2.2,5.2-3.2c1.8-1,3.8-1.9,5.9-2.4
			c2.1-0.5,4.1-0.8,6.3-0.8c2.2,0,4.3,0.3,6.8,1.5c0.6,0.3,1.3,0.8,1.8,1.3c0.5,0.5,1,1.1,1.4,1.8c0.7,1.3,1,2.8,0.9,4.1
			c-0.1,2.6-0.9,4.7-1.7,6.7c-0.4,1-0.8,2-1.3,2.9c-0.4,1-0.8,1.9-1.3,2.9c-0.1,0.2-0.2,0.5-0.4,0.7l-0.5,0.7
			c-0.3,0.5-0.6,1-0.9,1.4c-0.6,0.9-1.3,1.8-1.9,2.5c-2.6,3.2-5.4,6.2-8.3,9.1c-2.9,2.8-5.9,5.5-9,8.1c-3.1,2.6-6.5,4.9-10.1,6.9
			c-1.9,1.1-3.7,1.9-5.6,2.7c-1.8,0.8-3.7,1.7-5.6,2.5c-1.9,0.8-3.8,1.6-6.1,2c-1.1,0.2-2.5,0.2-3.8-0.3c-0.7-0.3-1.3-0.7-1.8-1.2
			c-0.2-0.3-0.5-0.5-0.7-0.8c-0.1-0.1-0.2-0.3-0.3-0.4c-0.1-0.2-0.2-0.2-0.3-0.5c-0.4-1-0.3-1.9-0.1-2.6c0.2-0.7,0.4-1.3,0.7-1.8
			c0.6-1,1.2-1.9,1.9-2.7c1.3-1.6,2.7-3.1,4.2-4.5c5.8-5.6,12.1-10.5,18.5-15.3c6.6-4.8,13.8-8.3,21-11.7c3.6-1.7,7.3-3.2,10.9-4.8
			c3.7-1.5,7.4-2.9,11-4.5c3.6-1.6,7-3.3,10.4-5.3c1.7-1,3.4-2,5-3.1c0.8-0.5,1.6-1.1,2.4-1.7l1.2-0.9c0.4-0.3,0.7-0.7,1.6-0.4
			l0.4,0.4c0.1,0.9-0.3,1.2-0.7,1.5l-1.2,1c-0.8,0.6-1.6,1.3-2.4,1.9c-1.6,1.2-3.2,2.4-4.9,3.5c-3.4,2.2-6.9,4.2-10.5,5.9
			c-3.7,1.7-7.3,3.1-10.9,4.7c-3.6,1.6-7.2,3.2-10.7,4.9c-3.5,1.7-7.1,3.5-10.5,5.3c-3.4,1.9-6.8,3.9-9.9,6.1
			c-6.3,4.7-12.5,9.5-18.1,14.9c-1.4,1.3-2.7,2.7-3.8,4.2c-0.6,0.7-1.1,1.5-1.4,2.2c-0.2,0.4-0.3,0.7-0.4,0.9
			c-0.1,0.3,0,0.4-0.1,0.3c0-0.1,0,0.1,0.1,0.1c0,0.1,0.1,0.1,0.1,0.2c0.1,0.1,0.2,0.3,0.2,0.4c0.2,0.2,0.3,0.4,0.6,0.5
			c0.4,0.3,1.2,0.4,2,0.4c1.7,0,3.5-0.7,5.2-1.5c1.7-0.9,3.3-1.9,4.9-3.1c1.6-1.1,3.1-2.4,4.5-3.6c2.8-2.6,5.5-5.4,8.2-8.1
			c2.8-2.7,5.5-5.5,8.2-8.3c2.7-2.8,5.4-5.6,7.7-8.5c0.6-0.7,1.1-1.4,1.7-2.2c0.3-0.4,0.5-0.7,0.7-1l0.3-0.5
			c0.1-0.2,0.2-0.4,0.4-0.6c0.5-0.8,1.1-1.5,1.6-2.3c0.5-0.8,0.9-1.6,1.3-2.4c0.8-1.6,1.4-3.2,1.7-4.6c0.2-0.7,0.3-1.2,0.5-1.8
			c0.1-0.3,0.1-0.6,0.1-0.9c0-0.3-0.1-0.5-0.3-0.7c-0.4-0.5-1.2-0.8-2-0.9c-0.8-0.2-1.7-0.2-2.6-0.2c-1.8,0-3.7,0.2-5.4,0.7
			c-1.8,0.4-3.4,1.1-5.1,2.1c-1.7,0.9-3.3,1.9-4.9,3.1c-1.5,1.1-3.1,2.3-4.3,3.6c-0.6,0.6-1.2,1.3-1.5,1.9c-0.2,0.3-0.2,0.6-0.2,0.6
			c0,0,0-0.1,0-0.2c0-0.1-0.1-0.1-0.1-0.1c0,0,0.1,0.1,0.4,0c0.3,0,0.7,0,1.1-0.1c0.8-0.2,1.6-0.5,2.5-0.9c1.7-0.7,3.3-1.7,4.9-2.7
			c1.6-1,3.2-2.1,4.7-3.3c1.4-1.1,2.9-2.5,4.4-3.8c3-2.6,5.9-5.2,8.7-7.9c2.9-2.7,5.7-5.4,8.3-8.3c2.6-2.9,5.1-5.9,7.3-9
			c1.1-1.5,2.1-3.1,2.9-4.6c0.2-0.4,0.4-0.7,0.6-1.2l0.6-1.3l1.2-2.6c0.8-1.7,1.5-3.4,2.2-5c0.7-1.5,1.3-3,1.3-4.1
			c0-0.5-0.2-1-0.8-1.5c-0.5-0.4-1.4-0.7-2.2-0.9c-1.7-0.4-3.7-0.3-5.6-0.1c-1.8,0.3-3.5,0.9-5.3,1.7c-1.7,0.8-3.4,1.7-5.1,2.8
			c-6.6,4.1-12.5,9.3-18.3,14.6c-2.9,2.7-5.7,5.4-8.5,8.2l-4.2,4.2l-2.1,2.1c-0.4,0.3-0.7,0.7-1.1,1c-0.4,0.3-1,0.4-1.8,0.3
			L31.2,95.9z"/>
	</g>
</g>
</svg>
