<?xml version="1.0" encoding="utf-8"?>
<!-- Generator: Adobe Illustrator 22.1.0, SVG Export Plug-In . SVG Version: 6.00 Build 0)  -->
<svg version="1.1" xmlns="http://www.w3.org/2000/svg" xmlns:xlink="http://www.w3.org/1999/xlink" x="0px" y="0px"
	 viewBox="0 0 66.9 180" style="enable-background:new 0 0 66.9 180;" xml:space="preserve">
<style type="text/css">
	.st0{display:none;}
	.st1{display:inline;fill:#FF0000;}
</style>
<g id="bg" class="st0">
	<polyline class="st1" points="66.9,0 0,0 0,0 0,0 0,0 0,0 0,0 0,0 0,0 0,0 0,0 0,0 0,0 0,0 0,0 0,0 0,0 0,0 0,0 0,0 0,0 0,0 0,0 
		0,0 0,0 0,0 0,0 0,0 0,0 0,0 0,0 0,0 0,0 0,0 0,0 0,0 0,0 0,0 0,0 0,0 0,0 0,0 0,0 0,0 0,0 0,0 0,0 0,0 0,0 0,0 0,0 0,0 0,0 0,0 
		0,0 0,0 0,0 0,0 0,0 0,0 0,0 0,0 0,0 0,0 0,0 0,0 0,0 0,0 0,0 0,0 0,0 0,0 0,0 0,0 0,0 0,0 0,0 0,0 0,0 0,0 0,0 0,0 0,0 0,0 0,0 
		0,0 0,0 0,0 0,0 0,0 0,0 0,0 0,0 0,0 0,0 0,0 0,0 0,0 0,0 0,0 0,0 0,0 0,0 0,0 0,0 0,0 0,0 0,0 0,0 0,0 0,0 0,0 0,0 0,0 0,0 0,0 
		0,0 0,0 0,0 0,0 0,0 0,0 0,0 0,0 0,0 0,0 0,0 0,0 0,0 0,0 0,0 0,0 0,0 0,0 0,0 0,0 0,0 0,0 0,0 0,0 0,0 0,0 0,0 0,0 0,0 0,0 0,0 
		0,0 0,0 0,0 0,0 0,0 0,0 0,0 0,0 0,0 0,0 0,0 0,0 0,0 0,0 0,0 0,0 0,0 0,0 0,0 0,0 0,0 0,0 0,0 0,0 0,0 0,0 0,0 0,0 0,0 0,0 0,0 
		0,0 0,0 0,0 0,0 0,0 0,0 0,0 0,0 0,0 0,0 0,0 0,0 0,0 0,0 0,0 0,0 0,0 0,0 0,0 0,0 0,0 0,0 0,0 0,0 0,0 0,0 0,0 0,0 0,0 0,0 0,0 
		0,0 0,0 0,0 0,0 0,0 0,0 0,0 0,0 0,0 0,0 0,0 0,0 0,0 0,0 0,0 0,0 0,0 0,0 0,0 0,0 0,0 0,0 0,0 0,0 0,0 0,0 0,0 0,0 0,0 0,0 0,0 
		0,0 0,0 0,0 0,0 0,0 0,0 0,0 0,0 0,0 0,0 0,0 0,0 0,0 0,0 0,0 0,0 0,0 0,0 0,0 0,0 0,0 0,0 0,0 0,0 0,0 0,0 0,0 0,0 0,0 0,0 0,0 
		0,0 0,0 0,0 0,0 0,0 0,0 0,0 0,0 0,0 0,0 0,0 0,0 0,0 0,0 0,0 0,0 0,0 0,0 0,0 0,0 0,0 0,0 0,0 0,0 0,0 0,0 0,0 0,0 0,0 0,0 0,0 
		0,0 0,0 0,0 0,0 0,0 0,0 0,0 0,0 0,0 0,0 0,0 0,0 0,0 0,0 0,0 0,0 0,0 0,0 0,0 0,0 0,0 0,0 0,0 0,0 0,0 0,0 0,0 0,0 0,0 0,0 0,0 
		0,0 0,0 0,0 0,0 0,0 0,0 0,0 0,0 0,0 0,0 0,0 0,0 0,0 0,0 0,0 0,0 0,0 0,0 0,0 0,0 0,0 0,0 0,0 0,0 0,0 0,0 0,0 0,0 0,0 0,0 0,0 
		0,0 0,0 0,0 0,0 0,0 0,0 0,0 0,0 0,0 0,0 0,0 0,0 0,0 0,0 0,0 0,0 0,0 0,0 0,0 0,0 0,0 0,0 0,0 0,0 0,0 0,0 0,0 0,0 0,0 0,0 0,0 
		0,0 0,0 0,0 0,0 0,0 0,0 0,0 0,0 0,0 0,0 0,0 0,0 0,0 0,0 0,0 0,0 0,0 0,0 0,0 0,0 0,0 0,0 0,0 0,0 0,0 0,0 0,0 0,0 0,0 0,0 0,0 
		0,0 0,0 0,0 0,0 0,0 0,0 0,180.5 0,180.5 0,180.5 0,180.5 0,180.5 0,180.5 0,180.5 0,180.5 0,180.5 0,180.5 0,180.5 0,180.5 
		0,180.5 0,180.5 0,180.5 0,180.5 0,180.5 0,180.5 0,180.5 0,180.5 0,180.5 0,180.5 0,180.5 0,180.5 0,180.5 0,180.5 0,180.5 
		0,180.5 0,180.5 0,180.5 0,180.5 0,180.5 0,180.5 0,180.5 0,180.5 0,180.5 0,180.5 0,180.5 0,180.5 0,180.5 0,180.5 0,180.5 
		0,180.5 0,180.5 0,180.5 0,180.5 0,180.5 0,180.5 0,180.5 0,180.5 0,180.5 0,180.5 0,180.5 0,180.5 0,180.5 0,180.5 0,180.5 
		0,180.5 0,180.5 0,180.5 0,180.5 0,180.5 0,180.5 0,180.5 0,180.5 0,180.5 0,180.5 0,180.5 0,180.5 0,180.5 0,180.5 0,180.5 
		0,180.5 0,180.5 0,180.5 0,180.5 0,180.5 0,180.5 0,180.5 0,180.5 0,180.5 0,180.5 0,180.5 0,180.5 0,180.5 0,180.5 0,180.5 
		0,180.5 0,180.5 0,180.5 0,180.5 0,180.5 0,180.5 0,180.5 0,180.5 0,180.5 0,180.5 0,180.5 0,180.5 0,180.5 0,180.5 0,180.5 
		0,180.5 0,180.5 0,180.5 0,180.5 0,180.5 0,180.5 0,180.5 0,180.5 0,180.5 0,180.5 0,180.5 0,180.5 0,180.5 0,180.5 0,180.5 
		0,180.5 0,180.5 0,180.5 0,180.5 0,180.5 0,180.5 0,180.5 0,180.5 0,180.5 0,180.5 0,180.5 0,180.5 0,180.5 0,180.5 0,180.5 
		0,180.5 0,180.5 0,180.5 0,180.5 0,180.5 0,180.5 0,180.5 0,180.5 0,180.5 0,180.5 0,180.5 0,180.5 0,180.5 0,180.5 0,180.5 
		0,180.5 0,180.5 0,180.5 0,180.5 0,180.5 0,180.5 0,180.5 0,180.5 0,180.5 0,180.5 0,180.5 0,180.5 0,180.5 0,180.5 0,180.5 
		0,180.5 0,180.5 0,180.5 0,180.5 0,180.5 0,180.5 0,180.5 0,180.5 0,180.5 0,180.5 0,180.5 0,180.5 0,180.5 0,180.5 0,180.5 
		0,180.5 0,180.5 0,180.5 0,180.5 0,180.5 0,180.5 0,180.5 0,180.5 0,180.5 0,180.5 0,180.5 0,180.5 0,180.5 0,180.5 0,180.5 
		0,180.5 0,180.5 0,180.5 0,180.5 0,180.5 0,180.5 0,180.5 0,180.5 0,180.5 0,180.5 0,180.5 0,180.5 0,180.5 0,180.5 0,180.5 
		0,180.5 0,180.5 0,180.5 0,180.5 0,180.5 0,180.5 0,180.5 0,180.5 0,180.5 0,180.5 0,180.5 0,180.5 0,180.5 0,180.5 0,180.5 
		0,180.5 0,180.5 0,180.5 0,180.5 0,180.5 0,180.5 0,180.5 0,180.5 0,180.5 0,180.5 0,180.5 0,180.5 0,180.5 0,180.5 0,180.5 
		0,180.5 0,180.5 0,180.5 0,180.5 0,180.5 0,180.5 0,180.5 0,180.5 0,180.5 0,180.5 0,180.5 0,180.5 0,180.5 0,180.5 0,180.5 
		0,180.5 0,180.5 0,180.5 0,180.5 0,180.5 0,180.5 0,180.5 0,180.5 0,180.5 0,180.5 0,180.5 0,180.5 0,180.5 0,180.5 0,180.5 
		0,180.5 0,180.5 0,180.5 0,180.5 0,180.5 0,180.5 0,180.5 0,180.5 0,180.5 0,180.5 0,180.5 0,180.5 0,180.5 0,180.5 0,180.5 
		0,180.5 0,180.5 0,180.5 0,180.5 0,180.5 0,180.5 0,180.5 0,180.5 0,180.5 0,180.5 0,180.5 0,180.5 0,180.5 0,180.5 0,180.5 
		0,180.5 0,180.5 0,180.5 0,180.5 0,180.5 0,180.5 0,180.5 0,180.5 0,180.5 0,180.5 0,180.5 0,180.5 0,180.5 0,180.5 0,180.5 
		0,180.5 0,180.5 0,180.5 0,180.5 0,180.5 0,180.5 0,180.5 0,180.5 0,180.5 0,180.5 0,180.5 0,180.5 0,180.5 0,180.5 0,180.5 
		0,180.5 0,180.5 0,180.5 0,180.5 0,180.5 0,180.5 0,180.5 0,180.5 0,180.5 0,180.5 0,180.5 0,180.5 0,180.5 0,180.5 0,180.5 
		0,180.5 0,180.5 0,180.5 0,180.5 0,180.5 0,180.5 0,180.5 0,180.5 0,180.5 0,180.5 0,180.5 0,180.5 0,180.5 0,180.5 0,180.5 
		0,180.5 0,180.5 0,180.5 0,180.5 0,180.5 0,180.5 0,180.5 0,180.5 0,180.5 0,180.5 0,180.5 0,180.5 0,180.5 0,180.5 0,180.5 
		0,180.5 0,180.5 0,180.5 0,180.5 0,180.5 0,180.5 0,180.5 0,180.5 0,180.5 0,180.5 0,180.5 0,180.5 0,180.5 0,180.5 0,180.5 
		0,180.5 0,180.5 0,180.5 0,180.5 0,180.5 0,180.5 0,180.5 0,180.5 0,180.5 0,180.5 0,180.5 0,180.5 0,180.5 0,180.5 0,180.5 
		0,180.5 0,180.5 0,180.5 0,180.5 0,180.5 0,180.5 0,180.5 0,180.5 0,180.5 0,180.5 0,180.5 0,180.5 0,180.5 0,180.5 0,180.5 
		0,180.5 0,180.5 0,180.5 0,180.5 0,180.5 0,180.5 0,180.5 0,180.5 0,180.5 0,180.5 0,180.5 0,180.5 0,180.5 0,180.5 66.9,180.5 	
		"/>
</g>
<g id="figure">
	<path d="M56.9,120.7c-2.2,0.4-9.5,1.7-15.2,3.7V118l-6,3.5c-3.8,2.3-6.5,2.8-7.6,2.8c-7.8,0-18.1-7.2-18.1-20.9
		c0-13.6,12-24.3,25.3-24.3c1.4,0,4.2,0.3,6.5,1.1V66.5c0-6.5-0.5-6.8-7.5-7.3v-2.4c5.1-0.7,11.7-2.2,15.3-3.4V112
		c0,5.1,0.7,5.6,4.3,6l3.1,0.3V120.7z M41.8,87.9c-2.4-3.4-6.4-5-10.1-5c-4.5,0-12.7,3.8-12.7,18c0,11.7,7.2,17.3,13.4,17.3
		c3.5,0,7.1-1.6,9.4-3.3V87.9z"/>
</g>
</svg>
