<?xml version="1.0" encoding="utf-8"?>
<!-- Generator: Adobe Illustrator 22.1.0, SVG Export Plug-In . SVG Version: 6.00 Build 0)  -->
<svg version="1.1" xmlns="http://www.w3.org/2000/svg" xmlns:xlink="http://www.w3.org/1999/xlink" x="0px" y="0px"
	 viewBox="0 0 70.7 180" style="enable-background:new 0 0 70.7 180;" xml:space="preserve">
<style type="text/css">
	.st0{display:none;}
	.st1{display:inline;fill:#FF0000;}
</style>
<g id="bg" class="st0">
	<polyline class="st1" points="70.7,0 0,0 0,0 0,0 0,0 0,0 0,0 0,0 0,0 0,0 0,0 0,0 0,0 0,0 0,0 0,0 0,0 0,0 0,0 0,0 0,0 0,0 0,0 
		0,0 0,0 0,0 0,0 0,0 0,0 0,0 0,0 0,0 0,0 0,0 0,0 0,0 0,0 0,0 0,0 0,0 0,0 0,0 0,0 0,0 0,0 0,0 0,0 0,0 0,0 0,0 0,0 0,0 0,0 0,0 
		0,0 0,0 0,0 0,0 0,0 0,0 0,0 0,0 0,0 0,0 0,0 0,0 0,0 0,0 0,0 0,0 0,0 0,0 0,0 0,0 0,0 0,0 0,0 0,0 0,0 0,0 0,0 0,0 0,0 0,0 0,0 
		0,0 0,0 0,0 0,0 0,0 0,0 0,0 0,0 0,0 0,0 0,0 0,0 0,0 0,0 0,0 0,0 0,0 0,0 0,0 0,0 0,0 0,0 0,0 0,0 0,0 0,0 0,0 0,0 0,0 0,0 0,0 
		0,0 0,0 0,0 0,0 0,0 0,0 0,0 0,0 0,0 0,0 0,0 0,0 0,0 0,0 0,0 0,0 0,0 0,0 0,0 0,0 0,0 0,0 0,0 0,0 0,0 0,0 0,0 0,0 0,0 0,0 0,0 
		0,0 0,0 0,0 0,0 0,0 0,0 0,0 0,0 0,0 0,0 0,0 0,0 0,0 0,0 0,0 0,0 0,0 0,0 0,0 0,0 0,0 0,0 0,0 0,0 0,0 0,0 0,0 0,0 0,0 0,0 0,0 
		0,0 0,0 0,0 0,0 0,0 0,0 0,0 0,0 0,0 0,0 0,0 0,0 0,0 0,0 0,0 0,0 0,0 0,0 0,0 0,0 0,0 0,0 0,0 0,0 0,0 0,0 0,0 0,0 0,0 0,0 0,0 
		0,0 0,0 0,0 0,0 0,0 0,0 0,0 0,0 0,0 0,0 0,0 0,0 0,0 0,0 0,0 0,0 0,0 0,0 0,0 0,0 0,0 0,0 0,0 0,0 0,0 0,0 0,0 0,0 0,0 0,0 0,0 
		0,0 0,0 0,0 0,0 0,0 0,0 0,0 0,0 0,0 0,0 0,0 0,0 0,0 0,0 0,0 0,0 0,0 0,0 0,0 0,0 0,0 0,0 0,0 0,0 0,0 0,0 0,0 0,0 0,0 0,0 0,0 
		0,0 0,0 0,0 0,0 0,0 0,0 0,0 0,0 0,0 0,0 0,0 0,0 0,0 0,0 0,0 0,0 0,0 0,0 0,0 0,0 0,0 0,0 0,0 0,0 0,0 0,0 0,0 0,0 0,0 0,0 0,0 
		0,0 0,0 0,0 0,0 0,0 0,0 0,0 0,0 0,0 0,0 0,0 0,0 0,0 0,0 0,0 0,0 0,0 0,0 0,0 0,0 0,0 0,0 0,0 0,0 0,0 0,0 0,0 0,0 0,0 0,0 0,0 
		0,0 0,0 0,0 0,0 0,0 0,0 0,0 0,0 0,0 0,0 0,0 0,0 0,0 0,0 0,0 0,0 0,0 0,0 0,0 0,0 0,0 0,0 0,0 0,0 0,0 0,0 0,0 0,0 0,0 0,0 0,0 
		0,0 0,0 0,0 0,0 0,0 0,0 0,0 0,0 0,0 0,0 0,0 0,0 0,0 0,0 0,0 0,0 0,0 0,0 0,0 0,0 0,0 0,0 0,0 0,0 0,0 0,0 0,0 0,0 0,0 0,0 0,0 
		0,0 0,0 0,0 0,0 0,0 0,0 0,0 0,0 0,0 0,0 0,0 0,0 0,0 0,0 0,0 0,0 0,0 0,0 0,0 0,0 0,0 0,0 0,0 0,0 0,0 0,0 0,0 0,0 0,0 0,0 0,0 
		0,0 0,0 0,0 0,0 0,0 0,0 0,180.5 0,180.5 0,180.5 0,180.5 0,180.5 0,180.5 0,180.5 0,180.5 0,180.5 0,180.5 0,180.5 0,180.5 
		0,180.5 0,180.5 0,180.5 0,180.5 0,180.5 0,180.5 0,180.5 0,180.5 0,180.5 0,180.5 0,180.5 0,180.5 0,180.5 0,180.5 0,180.5 
		0,180.5 0,180.5 0,180.5 0,180.5 0,180.5 0,180.5 0,180.5 0,180.5 0,180.5 0,180.5 0,180.5 0,180.5 0,180.5 0,180.5 0,180.5 
		0,180.5 0,180.5 0,180.5 0,180.5 0,180.5 0,180.5 0,180.5 0,180.5 0,180.5 0,180.5 0,180.5 0,180.5 0,180.5 0,180.5 0,180.5 
		0,180.5 0,180.5 0,180.5 0,180.5 0,180.5 0,180.5 0,180.5 0,180.5 0,180.5 0,180.5 0,180.5 0,180.5 0,180.5 0,180.5 0,180.5 
		0,180.5 0,180.5 0,180.5 0,180.5 0,180.5 0,180.5 0,180.5 0,180.5 0,180.5 0,180.5 0,180.5 0,180.5 0,180.5 0,180.5 0,180.5 
		0,180.5 0,180.5 0,180.5 0,180.5 0,180.5 0,180.5 0,180.5 0,180.5 0,180.5 0,180.5 0,180.5 0,180.5 0,180.5 0,180.5 0,180.5 
		0,180.5 0,180.5 0,180.5 0,180.5 0,180.5 0,180.5 0,180.5 0,180.5 0,180.5 0,180.5 0,180.5 0,180.5 0,180.5 0,180.5 0,180.5 
		0,180.5 0,180.5 0,180.5 0,180.5 0,180.5 0,180.5 0,180.5 0,180.5 0,180.5 0,180.5 0,180.5 0,180.5 0,180.5 0,180.5 0,180.5 
		0,180.5 0,180.5 0,180.5 0,180.5 0,180.5 0,180.5 0,180.5 0,180.5 0,180.5 0,180.5 0,180.5 0,180.5 0,180.5 0,180.5 0,180.5 
		0,180.5 0,180.5 0,180.5 0,180.5 0,180.5 0,180.5 0,180.5 0,180.5 0,180.5 0,180.5 0,180.5 0,180.5 0,180.5 0,180.5 0,180.5 
		0,180.5 0,180.5 0,180.5 0,180.5 0,180.5 0,180.5 0,180.5 0,180.5 0,180.5 0,180.5 0,180.5 0,180.5 0,180.5 0,180.5 0,180.5 
		0,180.5 0,180.5 0,180.5 0,180.5 0,180.5 0,180.5 0,180.5 0,180.5 0,180.5 0,180.5 0,180.5 0,180.5 0,180.5 0,180.5 0,180.5 
		0,180.5 0,180.5 0,180.5 0,180.5 0,180.5 0,180.5 0,180.5 0,180.5 0,180.5 0,180.5 0,180.5 0,180.5 0,180.5 0,180.5 0,180.5 
		0,180.5 0,180.5 0,180.5 0,180.5 0,180.5 0,180.5 0,180.5 0,180.5 0,180.5 0,180.5 0,180.5 0,180.5 0,180.5 0,180.5 0,180.5 
		0,180.5 0,180.5 0,180.5 0,180.5 0,180.5 0,180.5 0,180.5 0,180.5 0,180.5 0,180.5 0,180.5 0,180.5 0,180.5 0,180.5 0,180.5 
		0,180.5 0,180.5 0,180.5 0,180.5 0,180.5 0,180.5 0,180.5 0,180.5 0,180.5 0,180.5 0,180.5 0,180.5 0,180.5 0,180.5 0,180.5 
		0,180.5 0,180.5 0,180.5 0,180.5 0,180.5 0,180.5 0,180.5 0,180.5 0,180.5 0,180.5 0,180.5 0,180.5 0,180.5 0,180.5 0,180.5 
		0,180.5 0,180.5 0,180.5 0,180.5 0,180.5 0,180.5 0,180.5 0,180.5 0,180.5 0,180.5 0,180.5 0,180.5 0,180.5 0,180.5 0,180.5 
		0,180.5 0,180.5 0,180.5 0,180.5 0,180.5 0,180.5 0,180.5 0,180.5 0,180.5 0,180.5 0,180.5 0,180.5 0,180.5 0,180.5 0,180.5 
		0,180.5 0,180.5 0,180.5 0,180.5 0,180.5 0,180.5 0,180.5 0,180.5 0,180.5 0,180.5 0,180.5 0,180.5 0,180.5 0,180.5 0,180.5 
		0,180.5 0,180.5 0,180.5 0,180.5 0,180.5 0,180.5 0,180.5 0,180.5 0,180.5 0,180.5 0,180.5 0,180.5 0,180.5 0,180.5 0,180.5 
		0,180.5 0,180.5 0,180.5 0,180.5 0,180.5 0,180.5 0,180.5 0,180.5 0,180.5 0,180.5 0,180.5 0,180.5 0,180.5 0,180.5 0,180.5 
		0,180.5 0,180.5 0,180.5 0,180.5 0,180.5 0,180.5 0,180.5 0,180.5 0,180.5 0,180.5 0,180.5 0,180.5 0,180.5 0,180.5 0,180.5 
		0,180.5 0,180.5 0,180.5 0,180.5 0,180.5 0,180.5 0,180.5 0,180.5 0,180.5 0,180.5 0,180.5 0,180.5 0,180.5 0,180.5 0,180.5 
		0,180.5 0,180.5 0,180.5 0,180.5 0,180.5 0,180.5 0,180.5 0,180.5 0,180.5 0,180.5 0,180.5 0,180.5 0,180.5 0,180.5 0,180.5 
		0,180.5 0,180.5 0,180.5 0,180.5 0,180.5 0,180.5 0,180.5 0,180.5 0,180.5 0,180.5 0,180.5 0,180.5 0,180.5 0,180.5 0,180.5 
		0,180.5 0,180.5 0,180.5 0,180.5 0,180.5 0,180.5 0,180.5 0,180.5 0,180.5 0,180.5 0,180.5 0,180.5 0,180.5 0,180.5 0,180.5 
		0,180.5 0,180.5 0,180.5 0,180.5 0,180.5 0,180.5 0,180.5 0,180.5 0,180.5 0,180.5 0,180.5 0,180.5 0,180.5 0,180.5 70.7,180.5 	
		"/>
</g>
<g id="figure">
	<path d="M60.7,107.8c-0.6,3.2-2.5,12.4-3.4,15.5H10v-2.7c8.9-0.7,9.7-1.5,9.7-9.4v-39c0-8.8-0.8-9.1-8.4-9.8v-2.7H55
		c0,2.5,0.5,9.1,0.8,14.1l-2.8,0.5c-0.9-4.1-1.9-6.3-3.1-8.4c-1.4-2.1-4-2.7-11.1-2.7h-7.4c-3,0-3.2,0.2-3.2,3.1v22.2h9.2
		c8.8,0,9.3-0.8,10.6-7.4h2.8v18.8h-2.8c-1.3-7.1-2-7.6-10.5-7.6H28v18.5c0,4.6,0.6,6.7,2.4,7.9c1.9,1.2,5.3,1.3,10.2,1.3
		c7.4,0,10.2-0.8,12.3-3.3c1.7-2,3.5-5.3,4.8-9.2L60.7,107.8z"/>
</g>
</svg>
