<?xml version="1.0" encoding="utf-8"?>
<!-- Generator: Adobe Illustrator 22.1.0, SVG Export Plug-In . SVG Version: 6.00 Build 0)  -->
<svg version="1.1" xmlns="http://www.w3.org/2000/svg" xmlns:xlink="http://www.w3.org/1999/xlink" x="0px" y="0px"
	 viewBox="0 0 95 180" style="enable-background:new 0 0 95 180;" xml:space="preserve">
<style type="text/css">
	.st0{display:none;}
	.st1{display:inline;fill:#FF0000;}
</style>
<g id="bg" class="st0">
	<polyline class="st1" points="95,0 0,0 0,0 0,0 0,0 0,0 0,0 0,0 0,0 0,0 0,0 0,0 0,0 0,0 0,0 0,0 0,0 0,0 0,0 0,0 0,0 0,0 0,0 0,0 
		0,0 0,0 0,0 0,0 0,0 0,0 0,0 0,0 0,0 0,0 0,0 0,0 0,0 0,0 0,0 0,0 0,0 0,0 0,0 0,0 0,0 0,0 0,0 0,0 0,0 0,0 0,0 0,0 0,0 0,0 0,0 
		0,0 0,0 0,0 0,0 0,0 0,0 0,0 0,0 0,0 0,0 0,0 0,0 0,0 0,0 0,0 0,0 0,0 0,0 0,0 0,0 0,0 0,0 0,0 0,0 0,0 0,0 0,0 0,0 0,0 0,0 0,0 
		0,0 0,0 0,0 0,0 0,0 0,0 0,0 0,0 0,0 0,0 0,0 0,0 0,0 0,0 0,0 0,0 0,0 0,0 0,0 0,0 0,0 0,0 0,0 0,0 0,0 0,0 0,0 0,0 0,0 0,0 0,0 
		0,0 0,0 0,0 0,0 0,0 0,0 0,0 0,0 0,0 0,0 0,0 0,0 0,0 0,0 0,0 0,0 0,0 0,0 0,0 0,0 0,0 0,0 0,0 0,0 0,0 0,0 0,0 0,0 0,0 0,0 0,0 
		0,0 0,0 0,0 0,0 0,0 0,0 0,0 0,0 0,0 0,0 0,0 0,0 0,0 0,0 0,0 0,0 0,0 0,0 0,0 0,0 0,0 0,0 0,0 0,0 0,0 0,0 0,0 0,0 0,0 0,0 0,0 
		0,0 0,0 0,0 0,0 0,0 0,0 0,0 0,0 0,0 0,0 0,0 0,0 0,0 0,0 0,0 0,0 0,0 0,0 0,0 0,0 0,0 0,0 0,0 0,0 0,0 0,0 0,0 0,0 0,0 0,0 0,0 
		0,0 0,0 0,0 0,0 0,0 0,0 0,0 0,0 0,0 0,0 0,0 0,0 0,0 0,0 0,0 0,0 0,0 0,0 0,0 0,0 0,0 0,0 0,0 0,0 0,0 0,0 0,0 0,0 0,0 0,0 0,0 
		0,0 0,0 0,0 0,0 0,0 0,0 0,0 0,0 0,0 0,0 0,0 0,0 0,0 0,0 0,0 0,0 0,0 0,0 0,0 0,0 0,0 0,0 0,0 0,0 0,0 0,0 0,0 0,0 0,0 0,0 0,0 
		0,0 0,0 0,0 0,0 0,0 0,0 0,0 0,0 0,0 0,0 0,0 0,0 0,0 0,0 0,0 0,0 0,0 0,0 0,0 0,0 0,0 0,0 0,0 0,0 0,0 0,0 0,0 0,0 0,0 0,0 0,0 
		0,0 0,0 0,0 0,0 0,0 0,0 0,0 0,0 0,0 0,0 0,0 0,0 0,0 0,0 0,0 0,0 0,0 0,0 0,0 0,0 0,0 0,0 0,0 0,0 0,0 0,0 0,0 0,0 0,0 0,0 0,0 
		0,0 0,0 0,0 0,0 0,0 0,0 0,0 0,0 0,0 0,0 0,0 0,0 0,0 0,0 0,0 0,0 0,0 0,0 0,0 0,0 0,0 0,0 0,0 0,0 0,0 0,0 0,0 0,0 0,0 0,0 0,0 
		0,0 0,0 0,0 0,0 0,0 0,0 0,0 0,0 0,0 0,0 0,0 0,0 0,0 0,0 0,0 0,0 0,0 0,0 0,0 0,0 0,0 0,0 0,0 0,0 0,0 0,0 0,0 0,0 0,0 0,0 0,0 
		0,0 0,0 0,0 0,0 0,0 0,0 0,0 0,0 0,0 0,0 0,0 0,0 0,0 0,0 0,0 0,0 0,0 0,0 0,0 0,0 0,0 0,0 0,0 0,0 0,0 0,0 0,0 0,0 0,0 0,0 0,0 
		0,0 0,0 0,0 0,0 0,0 0,180.5 0,180.5 0,180.5 0,180.5 0,180.5 0,180.5 0,180.5 0,180.5 0,180.5 0,180.5 0,180.5 0,180.5 0,180.5 
		0,180.5 0,180.5 0,180.5 0,180.5 0,180.5 0,180.5 0,180.5 0,180.5 0,180.5 0,180.5 0,180.5 0,180.5 0,180.5 0,180.5 0,180.5 
		0,180.5 0,180.5 0,180.5 0,180.5 0,180.5 0,180.5 0,180.5 0,180.5 0,180.5 0,180.5 0,180.5 0,180.5 0,180.5 0,180.5 0,180.5 
		0,180.5 0,180.5 0,180.5 0,180.5 0,180.5 0,180.5 0,180.5 0,180.5 0,180.5 0,180.5 0,180.5 0,180.5 0,180.5 0,180.5 0,180.5 
		0,180.5 0,180.5 0,180.5 0,180.5 0,180.5 0,180.5 0,180.5 0,180.5 0,180.5 0,180.5 0,180.5 0,180.5 0,180.5 0,180.5 0,180.5 
		0,180.5 0,180.5 0,180.5 0,180.5 0,180.5 0,180.5 0,180.5 0,180.5 0,180.5 0,180.5 0,180.5 0,180.5 0,180.5 0,180.5 0,180.5 
		0,180.5 0,180.5 0,180.5 0,180.5 0,180.5 0,180.5 0,180.5 0,180.5 0,180.5 0,180.5 0,180.5 0,180.5 0,180.5 0,180.5 0,180.5 
		0,180.5 0,180.5 0,180.5 0,180.5 0,180.5 0,180.5 0,180.5 0,180.5 0,180.5 0,180.5 0,180.5 0,180.5 0,180.5 0,180.5 0,180.5 
		0,180.5 0,180.5 0,180.5 0,180.5 0,180.5 0,180.5 0,180.5 0,180.5 0,180.5 0,180.5 0,180.5 0,180.5 0,180.5 0,180.5 0,180.5 
		0,180.5 0,180.5 0,180.5 0,180.5 0,180.5 0,180.5 0,180.5 0,180.5 0,180.5 0,180.5 0,180.5 0,180.5 0,180.5 0,180.5 0,180.5 
		0,180.5 0,180.5 0,180.5 0,180.5 0,180.5 0,180.5 0,180.5 0,180.5 0,180.5 0,180.5 0,180.5 0,180.5 0,180.5 0,180.5 0,180.5 
		0,180.5 0,180.5 0,180.5 0,180.5 0,180.5 0,180.5 0,180.5 0,180.5 0,180.5 0,180.5 0,180.5 0,180.5 0,180.5 0,180.5 0,180.5 
		0,180.5 0,180.5 0,180.5 0,180.5 0,180.5 0,180.5 0,180.5 0,180.5 0,180.5 0,180.5 0,180.5 0,180.5 0,180.5 0,180.5 0,180.5 
		0,180.5 0,180.5 0,180.5 0,180.5 0,180.5 0,180.5 0,180.5 0,180.5 0,180.5 0,180.5 0,180.5 0,180.5 0,180.5 0,180.5 0,180.5 
		0,180.5 0,180.5 0,180.5 0,180.5 0,180.5 0,180.5 0,180.5 0,180.5 0,180.5 0,180.5 0,180.5 0,180.5 0,180.5 0,180.5 0,180.5 
		0,180.5 0,180.5 0,180.5 0,180.5 0,180.5 0,180.5 0,180.5 0,180.5 0,180.5 0,180.5 0,180.5 0,180.5 0,180.5 0,180.5 0,180.5 
		0,180.5 0,180.5 0,180.5 0,180.5 0,180.5 0,180.5 0,180.5 0,180.5 0,180.5 0,180.5 0,180.5 0,180.5 0,180.5 0,180.5 0,180.5 
		0,180.5 0,180.5 0,180.5 0,180.5 0,180.5 0,180.5 0,180.5 0,180.5 0,180.5 0,180.5 0,180.5 0,180.5 0,180.5 0,180.5 0,180.5 
		0,180.5 0,180.5 0,180.5 0,180.5 0,180.5 0,180.5 0,180.5 0,180.5 0,180.5 0,180.5 0,180.5 0,180.5 0,180.5 0,180.5 0,180.5 
		0,180.5 0,180.5 0,180.5 0,180.5 0,180.5 0,180.5 0,180.5 0,180.5 0,180.5 0,180.5 0,180.5 0,180.5 0,180.5 0,180.5 0,180.5 
		0,180.5 0,180.5 0,180.5 0,180.5 0,180.5 0,180.5 0,180.5 0,180.5 0,180.5 0,180.5 0,180.5 0,180.5 0,180.5 0,180.5 0,180.5 
		0,180.5 0,180.5 0,180.5 0,180.5 0,180.5 0,180.5 0,180.5 0,180.5 0,180.5 0,180.5 0,180.5 0,180.5 0,180.5 0,180.5 0,180.5 
		0,180.5 0,180.5 0,180.5 0,180.5 0,180.5 0,180.5 0,180.5 0,180.5 0,180.5 0,180.5 0,180.5 0,180.5 0,180.5 0,180.5 0,180.5 
		0,180.5 0,180.5 0,180.5 0,180.5 0,180.5 0,180.5 0,180.5 0,180.5 0,180.5 0,180.5 0,180.5 0,180.5 0,180.5 0,180.5 0,180.5 
		0,180.5 0,180.5 0,180.5 0,180.5 0,180.5 0,180.5 0,180.5 0,180.5 0,180.5 0,180.5 0,180.5 0,180.5 0,180.5 0,180.5 0,180.5 
		0,180.5 0,180.5 0,180.5 0,180.5 0,180.5 0,180.5 0,180.5 0,180.5 0,180.5 0,180.5 0,180.5 0,180.5 0,180.5 0,180.5 0,180.5 
		0,180.5 0,180.5 0,180.5 0,180.5 0,180.5 0,180.5 0,180.5 0,180.5 0,180.5 0,180.5 0,180.5 0,180.5 0,180.5 0,180.5 0,180.5 
		0,180.5 0,180.5 0,180.5 0,180.5 0,180.5 0,180.5 0,180.5 0,180.5 0,180.5 0,180.5 0,180.5 0,180.5 0,180.5 0,180.5 0,180.5 
		0,180.5 0,180.5 0,180.5 0,180.5 0,180.5 0,180.5 0,180.5 0,180.5 0,180.5 0,180.5 0,180.5 0,180.5 0,180.5 95,180.5 	"/>
</g>
<g id="figure">
	<g>
		<path d="M72.1,123.4c-4.7-4.8-11-12.9-16.4-19.4c-1.3-1.7-2.1-2.1-2.9-2.1c-0.6,0-1.1,0.1-1.8,0.3V113c0,6.5,0.7,7.1,7.1,7.6v2.5
			H36.9v-2.5c6-0.6,6.6-1.2,6.6-7.5V62.1c-2.4-2.6-5.4-4.5-9.1-4.5c-3.4,0-5.5,2.1-6.7,4C26.2,63.9,25,69,25,79.8v32.8
			c0,6.9,0.7,7.4,6.5,8v2.5H10.7v-2.5c5.8-0.7,6.6-1.4,6.6-7.3V84.2h-7l-0.3-1c0,0,5.5-2.7,7.3-7s3.5-13.3,8.5-17.4
			c3.7-3.2,7.4-4.9,11.3-5.4c3.2,0.1,6.2,1.1,7.4,2.4c1.9-0.5,4.4-1.5,6.1-2.4l0.5,0.5v45.6c3.1-0.7,4.8-1.8,6.3-3.2
			c2.2-2.2,5.3-6.1,7.4-9.2c1.6-2.4,1.4-3.4-3.2-3.8v-2.5l19.9-0.9v2.5c-6.4,1.1-8.9,2.4-12.5,5.8c-2.5,2.5-4.2,4.4-8.4,9.3
			c2.3,3.3,11.6,14.3,15.3,18c3.4,3.4,5.6,5,9.3,5.3v2.5L72.1,123.4z"/>
	</g>
</g>
</svg>
