<?xml version="1.0" encoding="utf-8"?>
<!-- Generator: Adobe Illustrator 22.1.0, SVG Export Plug-In . SVG Version: 6.00 Build 0)  -->
<svg version="1.1" xmlns="http://www.w3.org/2000/svg" xmlns:xlink="http://www.w3.org/1999/xlink" x="0px" y="0px"
	 viewBox="0 0 81.7 180" style="enable-background:new 0 0 81.7 180;" xml:space="preserve">
<style type="text/css">
	.st0{display:none;}
	.st1{display:inline;fill:#FF0000;}
</style>
<g id="bg" class="st0">
	<polyline class="st1" points="81.7,0 0,0 0,0 0,0 0,0 0,0 0,0 0,0 0,0 0,0 0,0 0,0 0,0 0,0 0,0 0,0 0,0 0,0 0,0 0,0 0,0 0,0 0,0 
		0,0 0,0 0,0 0,0 0,0 0,0 0,0 0,0 0,0 0,0 0,0 0,0 0,0 0,0 0,0 0,0 0,0 0,0 0,0 0,0 0,0 0,0 0,0 0,0 0,0 0,0 0,0 0,0 0,0 0,0 0,0 
		0,0 0,0 0,0 0,0 0,0 0,0 0,0 0,0 0,0 0,0 0,0 0,0 0,0 0,0 0,0 0,0 0,0 0,0 0,0 0,0 0,0 0,0 0,0 0,0 0,0 0,0 0,0 0,0 0,0 0,0 0,0 
		0,0 0,0 0,0 0,0 0,0 0,0 0,0 0,0 0,0 0,0 0,0 0,0 0,0 0,0 0,0 0,0 0,0 0,0 0,0 0,0 0,0 0,0 0,0 0,0 0,0 0,0 0,0 0,0 0,0 0,0 0,0 
		0,0 0,0 0,0 0,0 0,0 0,0 0,0 0,0 0,0 0,0 0,0 0,0 0,0 0,0 0,0 0,0 0,0 0,0 0,0 0,0 0,0 0,0 0,0 0,0 0,0 0,0 0,0 0,0 0,0 0,0 0,0 
		0,0 0,0 0,0 0,0 0,0 0,0 0,0 0,0 0,0 0,0 0,0 0,0 0,0 0,0 0,0 0,0 0,0 0,0 0,0 0,0 0,0 0,0 0,0 0,0 0,0 0,0 0,0 0,0 0,0 0,0 0,0 
		0,0 0,0 0,0 0,0 0,0 0,0 0,0 0,0 0,0 0,0 0,0 0,0 0,0 0,0 0,0 0,0 0,0 0,0 0,0 0,0 0,0 0,0 0,0 0,0 0,0 0,0 0,0 0,0 0,0 0,0 0,0 
		0,0 0,0 0,0 0,0 0,0 0,0 0,0 0,0 0,0 0,0 0,0 0,0 0,0 0,0 0,0 0,0 0,0 0,0 0,0 0,0 0,0 0,0 0,0 0,0 0,0 0,0 0,0 0,0 0,0 0,0 0,0 
		0,0 0,0 0,0 0,0 0,0 0,0 0,0 0,0 0,0 0,0 0,0 0,0 0,0 0,0 0,0 0,0 0,0 0,0 0,0 0,0 0,0 0,0 0,0 0,0 0,0 0,0 0,0 0,0 0,0 0,0 0,0 
		0,0 0,0 0,0 0,0 0,0 0,0 0,0 0,0 0,0 0,0 0,0 0,0 0,0 0,0 0,0 0,0 0,0 0,0 0,0 0,0 0,0 0,0 0,0 0,0 0,0 0,0 0,0 0,0 0,0 0,0 0,0 
		0,0 0,0 0,0 0,0 0,0 0,0 0,0 0,0 0,0 0,0 0,0 0,0 0,0 0,0 0,0 0,0 0,0 0,0 0,0 0,0 0,0 0,0 0,0 0,0 0,0 0,0 0,0 0,0 0,0 0,0 0,0 
		0,0 0,0 0,0 0,0 0,0 0,0 0,0 0,0 0,0 0,0 0,0 0,0 0,0 0,0 0,0 0,0 0,0 0,0 0,0 0,0 0,0 0,0 0,0 0,0 0,0 0,0 0,0 0,0 0,0 0,0 0,0 
		0,0 0,0 0,0 0,0 0,0 0,0 0,0 0,0 0,0 0,0 0,0 0,0 0,0 0,0 0,0 0,0 0,0 0,0 0,0 0,0 0,0 0,0 0,0 0,0 0,0 0,0 0,0 0,0 0,0 0,0 0,0 
		0,0 0,0 0,0 0,0 0,0 0,0 0,0 0,0 0,0 0,0 0,0 0,0 0,0 0,0 0,0 0,0 0,0 0,0 0,0 0,0 0,0 0,0 0,0 0,0 0,0 0,0 0,0 0,0 0,0 0,0 0,0 
		0,0 0,0 0,0 0,0 0,0 0,0 0,180.5 0,180.5 0,180.5 0,180.5 0,180.5 0,180.5 0,180.5 0,180.5 0,180.5 0,180.5 0,180.5 0,180.5 
		0,180.5 0,180.5 0,180.5 0,180.5 0,180.5 0,180.5 0,180.5 0,180.5 0,180.5 0,180.5 0,180.5 0,180.5 0,180.5 0,180.5 0,180.5 
		0,180.5 0,180.5 0,180.5 0,180.5 0,180.5 0,180.5 0,180.5 0,180.5 0,180.5 0,180.5 0,180.5 0,180.5 0,180.5 0,180.5 0,180.5 
		0,180.5 0,180.5 0,180.5 0,180.5 0,180.5 0,180.5 0,180.5 0,180.5 0,180.5 0,180.5 0,180.5 0,180.5 0,180.5 0,180.5 0,180.5 
		0,180.5 0,180.5 0,180.5 0,180.5 0,180.5 0,180.5 0,180.5 0,180.5 0,180.5 0,180.5 0,180.5 0,180.5 0,180.5 0,180.5 0,180.5 
		0,180.5 0,180.5 0,180.5 0,180.5 0,180.5 0,180.5 0,180.5 0,180.5 0,180.5 0,180.5 0,180.5 0,180.5 0,180.5 0,180.5 0,180.5 
		0,180.5 0,180.5 0,180.5 0,180.5 0,180.5 0,180.5 0,180.5 0,180.5 0,180.5 0,180.5 0,180.5 0,180.5 0,180.5 0,180.5 0,180.5 
		0,180.5 0,180.5 0,180.5 0,180.5 0,180.5 0,180.5 0,180.5 0,180.5 0,180.5 0,180.5 0,180.5 0,180.5 0,180.5 0,180.5 0,180.5 
		0,180.5 0,180.5 0,180.5 0,180.5 0,180.5 0,180.5 0,180.5 0,180.5 0,180.5 0,180.5 0,180.5 0,180.5 0,180.5 0,180.5 0,180.5 
		0,180.5 0,180.5 0,180.5 0,180.5 0,180.5 0,180.5 0,180.5 0,180.5 0,180.5 0,180.5 0,180.5 0,180.5 0,180.5 0,180.5 0,180.5 
		0,180.5 0,180.5 0,180.5 0,180.5 0,180.5 0,180.5 0,180.5 0,180.5 0,180.5 0,180.5 0,180.5 0,180.5 0,180.5 0,180.5 0,180.5 
		0,180.5 0,180.5 0,180.5 0,180.5 0,180.5 0,180.5 0,180.5 0,180.5 0,180.5 0,180.5 0,180.5 0,180.5 0,180.5 0,180.5 0,180.5 
		0,180.5 0,180.5 0,180.5 0,180.5 0,180.5 0,180.5 0,180.5 0,180.5 0,180.5 0,180.5 0,180.5 0,180.5 0,180.5 0,180.5 0,180.5 
		0,180.5 0,180.5 0,180.5 0,180.5 0,180.5 0,180.5 0,180.5 0,180.5 0,180.5 0,180.5 0,180.5 0,180.5 0,180.5 0,180.5 0,180.5 
		0,180.5 0,180.5 0,180.5 0,180.5 0,180.5 0,180.5 0,180.5 0,180.5 0,180.5 0,180.5 0,180.5 0,180.5 0,180.5 0,180.5 0,180.5 
		0,180.5 0,180.5 0,180.5 0,180.5 0,180.5 0,180.5 0,180.5 0,180.5 0,180.5 0,180.5 0,180.5 0,180.5 0,180.5 0,180.5 0,180.5 
		0,180.5 0,180.5 0,180.5 0,180.5 0,180.5 0,180.5 0,180.5 0,180.5 0,180.5 0,180.5 0,180.5 0,180.5 0,180.5 0,180.5 0,180.5 
		0,180.5 0,180.5 0,180.5 0,180.5 0,180.5 0,180.5 0,180.5 0,180.5 0,180.5 0,180.5 0,180.5 0,180.5 0,180.5 0,180.5 0,180.5 
		0,180.5 0,180.5 0,180.5 0,180.5 0,180.5 0,180.5 0,180.5 0,180.5 0,180.5 0,180.5 0,180.5 0,180.5 0,180.5 0,180.5 0,180.5 
		0,180.5 0,180.5 0,180.5 0,180.5 0,180.5 0,180.5 0,180.5 0,180.5 0,180.5 0,180.5 0,180.5 0,180.5 0,180.5 0,180.5 0,180.5 
		0,180.5 0,180.5 0,180.5 0,180.5 0,180.5 0,180.5 0,180.5 0,180.5 0,180.5 0,180.5 0,180.5 0,180.5 0,180.5 0,180.5 0,180.5 
		0,180.5 0,180.5 0,180.5 0,180.5 0,180.5 0,180.5 0,180.5 0,180.5 0,180.5 0,180.5 0,180.5 0,180.5 0,180.5 0,180.5 0,180.5 
		0,180.5 0,180.5 0,180.5 0,180.5 0,180.5 0,180.5 0,180.5 0,180.5 0,180.5 0,180.5 0,180.5 0,180.5 0,180.5 0,180.5 0,180.5 
		0,180.5 0,180.5 0,180.5 0,180.5 0,180.5 0,180.5 0,180.5 0,180.5 0,180.5 0,180.5 0,180.5 0,180.5 0,180.5 0,180.5 0,180.5 
		0,180.5 0,180.5 0,180.5 0,180.5 0,180.5 0,180.5 0,180.5 0,180.5 0,180.5 0,180.5 0,180.5 0,180.5 0,180.5 0,180.5 0,180.5 
		0,180.5 0,180.5 0,180.5 0,180.5 0,180.5 0,180.5 0,180.5 0,180.5 0,180.5 0,180.5 0,180.5 0,180.5 0,180.5 0,180.5 0,180.5 
		0,180.5 0,180.5 0,180.5 0,180.5 0,180.5 0,180.5 0,180.5 0,180.5 0,180.5 0,180.5 0,180.5 0,180.5 0,180.5 0,180.5 0,180.5 
		0,180.5 0,180.5 0,180.5 0,180.5 0,180.5 0,180.5 0,180.5 0,180.5 0,180.5 0,180.5 0,180.5 0,180.5 0,180.5 0,180.5 0,180.5 
		0,180.5 0,180.5 0,180.5 0,180.5 0,180.5 0,180.5 0,180.5 0,180.5 0,180.5 0,180.5 0,180.5 0,180.5 0,180.5 0,180.5 81.7,180.5 	
		"/>
</g>
<g id="figure">
	<g>
		<path d="M18.3,76.5C20,72,21.2,65.4,26,61.3c3.9-3.2,8-5,12.3-5.4c4.8,0.1,8.7,1.9,11.3,5c3.4-3.8,8.1-6.8,12.9-7.4
			c3.7,0.1,6.8,1.7,8.1,3.3c1,1.2,1.3,2.3,0.8,3.2c-0.4,0.8-1.4,1.8-2.2,2.5c-0.8,0.6-1.5,0.6-2.3-0.2c-2.1-2.2-4.8-4.1-8.1-4.1
			c-2.7,0-4.6,1.7-5.7,3.7c-1.4,2.5-2.2,7.5-2.2,19.2v31.5c0,7,0.7,7.4,6.8,8.1v2.5h-21v-2.5c5.7-0.6,6.5-1.2,6.5-7.6V84.3h-7.1
			L36,83.3c0,0,2.3-0.4,4.6-3.8c5.6-8,3.2-8.9,5.6-13.5c-2.7-3.3-6-6.1-11.2-6.1c-3.7,0-6.2,2.5-7.6,5.1c-1.6,2.6-2.5,8.1-2.5,17.9
			v29.9c0,7,0.5,7.3,6.3,7.9v2.5H10.5v-2.5c5.9-0.6,6.7-1.2,6.7-7.2V84.3h-6.9L10,83.3C10,83.3,16.7,80.9,18.3,76.5z"/>
	</g>
</g>
</svg>
