<?xml version="1.0" encoding="utf-8"?>
<!-- Generator: Adobe Illustrator 22.1.0, SVG Export Plug-In . SVG Version: 6.00 Build 0)  -->
<svg version="1.1" xmlns="http://www.w3.org/2000/svg" xmlns:xlink="http://www.w3.org/1999/xlink" x="0px" y="0px"
	 viewBox="0 0 112.1 180" style="enable-background:new 0 0 112.1 180;" xml:space="preserve">
<style type="text/css">
	.st0{display:none;}
	.st1{display:inline;fill:#FF0000;}
</style>
<g id="bg" class="st0">
	<polyline class="st1" points="112.1,0 0,0 0,0 0,0 0,0 0,0 0,0 0,0 0,0 0,0 0,0 0,0 0,0 0,0 0,0 0,0 0,0 0,0 0,0 0,0 0,0 0,0 0,0 
		0,0 0,0 0,0 0,0 0,0 0,0 0,0 0,0 0,0 0,0 0,0 0,0 0,0 0,0 0,0 0,0 0,0 0,0 0,0 0,0 0,0 0,0 0,0 0,0 0,0 0,0 0,0 0,0 0,0 0,0 0,0 
		0,0 0,0 0,0 0,0 0,0 0,0 0,0 0,0 0,0 0,0 0,0 0,0 0,0 0,0 0,0 0,0 0,0 0,0 0,0 0,0 0,0 0,0 0,0 0,0 0,0 0,0 0,0 0,0 0,0 0,0 0,0 
		0,0 0,0 0,0 0,0 0,0 0,0 0,0 0,0 0,0 0,0 0,0 0,0 0,0 0,0 0,0 0,0 0,0 0,0 0,0 0,0 0,0 0,0 0,0 0,0 0,0 0,0 0,0 0,0 0,0 0,0 0,0 
		0,0 0,0 0,0 0,0 0,0 0,0 0,0 0,0 0,0 0,0 0,0 0,0 0,0 0,0 0,0 0,0 0,0 0,0 0,0 0,0 0,0 0,0 0,0 0,0 0,0 0,0 0,0 0,0 0,0 0,0 0,0 
		0,0 0,0 0,0 0,0 0,0 0,0 0,0 0,0 0,0 0,0 0,0 0,0 0,0 0,0 0,0 0,0 0,0 0,0 0,0 0,0 0,0 0,0 0,0 0,0 0,0 0,0 0,0 0,0 0,0 0,0 0,0 
		0,0 0,0 0,0 0,0 0,0 0,0 0,0 0,0 0,0 0,0 0,0 0,0 0,0 0,0 0,0 0,0 0,0 0,0 0,0 0,0 0,0 0,0 0,0 0,0 0,0 0,0 0,0 0,0 0,0 0,0 0,0 
		0,0 0,0 0,0 0,0 0,0 0,0 0,0 0,0 0,0 0,0 0,0 0,0 0,0 0,0 0,0 0,0 0,0 0,0 0,0 0,0 0,0 0,0 0,0 0,0 0,0 0,0 0,0 0,0 0,0 0,0 0,0 
		0,0 0,0 0,0 0,0 0,0 0,0 0,0 0,0 0,0 0,0 0,0 0,0 0,0 0,0 0,0 0,0 0,0 0,0 0,0 0,0 0,0 0,0 0,0 0,0 0,0 0,0 0,0 0,0 0,0 0,0 0,0 
		0,0 0,0 0,0 0,0 0,0 0,0 0,0 0,0 0,0 0,0 0,0 0,0 0,0 0,0 0,0 0,0 0,0 0,0 0,0 0,0 0,0 0,0 0,0 0,0 0,0 0,0 0,0 0,0 0,0 0,0 0,0 
		0,0 0,0 0,0 0,0 0,0 0,0 0,0 0,0 0,0 0,0 0,0 0,0 0,0 0,0 0,0 0,0 0,0 0,0 0,0 0,0 0,0 0,0 0,0 0,0 0,0 0,0 0,0 0,0 0,0 0,0 0,0 
		0,0 0,0 0,0 0,0 0,0 0,0 0,0 0,0 0,0 0,0 0,0 0,0 0,0 0,0 0,0 0,0 0,0 0,0 0,0 0,0 0,0 0,0 0,0 0,0 0,0 0,0 0,0 0,0 0,0 0,0 0,0 
		0,0 0,0 0,0 0,0 0,0 0,0 0,0 0,0 0,0 0,0 0,0 0,0 0,0 0,0 0,0 0,0 0,0 0,0 0,0 0,0 0,0 0,0 0,0 0,0 0,0 0,0 0,0 0,0 0,0 0,0 0,0 
		0,0 0,0 0,0 0,0 0,0 0,0 0,0 0,0 0,0 0,0 0,0 0,0 0,0 0,0 0,0 0,0 0,0 0,0 0,0 0,0 0,0 0,0 0,0 0,0 0,0 0,0 0,0 0,0 0,0 0,0 0,0 
		0,0 0,0 0,0 0,0 0,0 0,0 0,180.5 0,180.5 0,180.5 0,180.5 0,180.5 0,180.5 0,180.5 0,180.5 0,180.5 0,180.5 0,180.5 0,180.5 
		0,180.5 0,180.5 0,180.5 0,180.5 0,180.5 0,180.5 0,180.5 0,180.5 0,180.5 0,180.5 0,180.5 0,180.5 0,180.5 0,180.5 0,180.5 
		0,180.5 0,180.5 0,180.5 0,180.5 0,180.5 0,180.5 0,180.5 0,180.5 0,180.5 0,180.5 0,180.5 0,180.5 0,180.5 0,180.5 0,180.5 
		0,180.5 0,180.5 0,180.5 0,180.5 0,180.5 0,180.5 0,180.5 0,180.5 0,180.5 0,180.5 0,180.5 0,180.5 0,180.5 0,180.5 0,180.5 
		0,180.5 0,180.5 0,180.5 0,180.5 0,180.5 0,180.5 0,180.5 0,180.5 0,180.5 0,180.5 0,180.5 0,180.5 0,180.5 0,180.5 0,180.5 
		0,180.5 0,180.5 0,180.5 0,180.5 0,180.5 0,180.5 0,180.5 0,180.5 0,180.5 0,180.5 0,180.5 0,180.5 0,180.5 0,180.5 0,180.5 
		0,180.5 0,180.5 0,180.5 0,180.5 0,180.5 0,180.5 0,180.5 0,180.5 0,180.5 0,180.5 0,180.5 0,180.5 0,180.5 0,180.5 0,180.5 
		0,180.5 0,180.5 0,180.5 0,180.5 0,180.5 0,180.5 0,180.5 0,180.5 0,180.5 0,180.5 0,180.5 0,180.5 0,180.5 0,180.5 0,180.5 
		0,180.5 0,180.5 0,180.5 0,180.5 0,180.5 0,180.5 0,180.5 0,180.5 0,180.5 0,180.5 0,180.5 0,180.5 0,180.5 0,180.5 0,180.5 
		0,180.5 0,180.5 0,180.5 0,180.5 0,180.5 0,180.5 0,180.5 0,180.5 0,180.5 0,180.5 0,180.5 0,180.5 0,180.5 0,180.5 0,180.5 
		0,180.5 0,180.5 0,180.5 0,180.5 0,180.5 0,180.5 0,180.5 0,180.5 0,180.5 0,180.5 0,180.5 0,180.5 0,180.5 0,180.5 0,180.5 
		0,180.5 0,180.5 0,180.5 0,180.5 0,180.5 0,180.5 0,180.5 0,180.5 0,180.5 0,180.5 0,180.5 0,180.5 0,180.5 0,180.5 0,180.5 
		0,180.5 0,180.5 0,180.5 0,180.5 0,180.5 0,180.5 0,180.5 0,180.5 0,180.5 0,180.5 0,180.5 0,180.5 0,180.5 0,180.5 0,180.5 
		0,180.5 0,180.5 0,180.5 0,180.5 0,180.5 0,180.5 0,180.5 0,180.5 0,180.5 0,180.5 0,180.5 0,180.5 0,180.5 0,180.5 0,180.5 
		0,180.5 0,180.5 0,180.5 0,180.5 0,180.5 0,180.5 0,180.5 0,180.5 0,180.5 0,180.5 0,180.5 0,180.5 0,180.5 0,180.5 0,180.5 
		0,180.5 0,180.5 0,180.5 0,180.5 0,180.5 0,180.5 0,180.5 0,180.5 0,180.5 0,180.5 0,180.5 0,180.5 0,180.5 0,180.5 0,180.5 
		0,180.5 0,180.5 0,180.5 0,180.5 0,180.5 0,180.5 0,180.5 0,180.5 0,180.5 0,180.5 0,180.5 0,180.5 0,180.5 0,180.5 0,180.5 
		0,180.5 0,180.5 0,180.5 0,180.5 0,180.5 0,180.5 0,180.5 0,180.5 0,180.5 0,180.5 0,180.5 0,180.5 0,180.5 0,180.5 0,180.5 
		0,180.5 0,180.5 0,180.5 0,180.5 0,180.5 0,180.5 0,180.5 0,180.5 0,180.5 0,180.5 0,180.5 0,180.5 0,180.5 0,180.5 0,180.5 
		0,180.5 0,180.5 0,180.5 0,180.5 0,180.5 0,180.5 0,180.5 0,180.5 0,180.5 0,180.5 0,180.5 0,180.5 0,180.5 0,180.5 0,180.5 
		0,180.5 0,180.5 0,180.5 0,180.5 0,180.5 0,180.5 0,180.5 0,180.5 0,180.5 0,180.5 0,180.5 0,180.5 0,180.5 0,180.5 0,180.5 
		0,180.5 0,180.5 0,180.5 0,180.5 0,180.5 0,180.5 0,180.5 0,180.5 0,180.5 0,180.5 0,180.5 0,180.5 0,180.5 0,180.5 0,180.5 
		0,180.5 0,180.5 0,180.5 0,180.5 0,180.5 0,180.5 0,180.5 0,180.5 0,180.5 0,180.5 0,180.5 0,180.5 0,180.5 0,180.5 0,180.5 
		0,180.5 0,180.5 0,180.5 0,180.5 0,180.5 0,180.5 0,180.5 0,180.5 0,180.5 0,180.5 0,180.5 0,180.5 0,180.5 0,180.5 0,180.5 
		0,180.5 0,180.5 0,180.5 0,180.5 0,180.5 0,180.5 0,180.5 0,180.5 0,180.5 0,180.5 0,180.5 0,180.5 0,180.5 0,180.5 0,180.5 
		0,180.5 0,180.5 0,180.5 0,180.5 0,180.5 0,180.5 0,180.5 0,180.5 0,180.5 0,180.5 0,180.5 0,180.5 0,180.5 0,180.5 0,180.5 
		0,180.5 0,180.5 0,180.5 0,180.5 0,180.5 0,180.5 0,180.5 0,180.5 0,180.5 0,180.5 0,180.5 0,180.5 0,180.5 0,180.5 0,180.5 
		0,180.5 0,180.5 0,180.5 0,180.5 0,180.5 0,180.5 0,180.5 0,180.5 0,180.5 0,180.5 0,180.5 0,180.5 0,180.5 0,180.5 0,180.5 
		0,180.5 0,180.5 0,180.5 0,180.5 0,180.5 0,180.5 0,180.5 0,180.5 0,180.5 0,180.5 0,180.5 0,180.5 0,180.5 0,180.5 112.1,180.5 	
		"/>
</g>
<g id="figure">
	<path d="M102.1,62.3c-6.8,0.9-7.6,1.7-10.6,9.8c-2.3,6.3-8.1,24.8-16.2,52.1h-3c-5.4-15.7-12.2-34.6-17.2-48.8H55
		c-5.5,17.2-11,33-16,48.8h-3c-5.2-17.6-10.7-34.9-16.1-52.3c-2.5-8-3.9-8.8-9.9-9.6v-2.7h23.8v2.7c-7.2,0.9-7.4,1.7-5.9,6.7
		c3.8,13.2,7.6,26.5,12,40.4h0.2C45.3,92.7,51,76.5,56,60.5h2.8c5.5,16.1,11.2,32,17.2,48.8h0.2c4.1-13,9.5-32.2,11.1-39.2
		c1.4-5.9,1-7-6.8-7.8v-2.7h21.7V62.3z"/>
</g>
</svg>
