<?xml version="1.0" encoding="utf-8"?>
<!-- Generator: Adobe Illustrator 22.1.0, SVG Export Plug-In . SVG Version: 6.00 Build 0)  -->
<svg version="1.1" xmlns="http://www.w3.org/2000/svg" xmlns:xlink="http://www.w3.org/1999/xlink" x="0px" y="0px"
	 viewBox="0 0 57.9 180" style="enable-background:new 0 0 57.9 180;" xml:space="preserve">
<style type="text/css">
	.st0{display:none;}
	.st1{display:inline;fill:#FF0000;}
</style>
<g id="bg" class="st0">
	<polygon class="st1" points="56.7,0 56.4,0 56.3,0 55.6,0 55.3,0 55.2,0 55,0 54.9,0 54.8,0 54.1,0 54.1,0 53.8,0 53.8,0 53.7,0 
		53.5,0 53.4,0 53.4,0 52.7,0 52.6,0 52.5,0 52.3,0 52.3,0 52.2,0 52,0 51.9,0 51.9,0 51.2,0 51.2,0 51.1,0 50.9,0 50.8,0 50.8,0 
		50.6,0 50.5,0 50.4,0 50.1,0 49.8,0 49.7,0 49.6,0 49.4,0 49.4,0 49.3,0 49.2,0 49,0 49,0 49,0 48.7,0 48.6,0 48.3,0 48.2,0 
		48.1,0 48,0 47.9,0 47.9,0 47.8,0 47.7,0 47.6,0 47.5,0 47.5,0 47.5,0 47.2,0 47.1,0 47.1,0 47,0 46.9,0 46.8,0 46.7,0 46.6,0 
		46.5,0 46.4,0 46.4,0 46.3,0 46.3,0 46.2,0 46.1,0 46.1,0 46,0 45.9,0 45.8,0 45.7,0 45.7,0 45.6,0 45.5,0 45.4,0 45.4,0 45.4,0 
		45.2,0 45.1,0 45.1,0 45,0 45,0 44.9,0 44.8,0 44.8,0 44.7,0 44.7,0 44.7,0 44.6,0 44.6,0 44.5,0 44.4,0 44.3,0 44.3,0 44.2,0 
		44.2,0 44.1,0 44,0 44,0 43.9,0 43.9,0 43.8,0 43.6,0 43.6,0 43.5,0 43.5,0 43.4,0 43.3,0 43.3,0 43.2,0 43.2,0 43.2,0 43.2,0 
		43.1,0 43.1,0 43,0 42.9,0 42.8,0 42.8,0 42.8,0 42.8,0 42.7,0 42.6,0 42.5,0 42.5,0 42.5,0 42.4,0 42.4,0 42.2,0 42.1,0 42.1,0 
		42,0 41.9,0 41.9,0 41.9,0 41.8,0 41.8,0 41.7,0 41.7,0 41.7,0 41.6,0 41.6,0 41.5,0 41.4,0 41.4,0 41.4,0 41.3,0 41.3,0 41.2,0 
		41.1,0 41.1,0 41,0 41,0 41,0 40.9,0 40.7,0 40.7,0 40.6,0 40.6,0 40.5,0 40.4,0 40.3,0 40.3,0 40.3,0 40.3,0 40.3,0 40.2,0 
		40.2,0 40.1,0 40,0 40,0 40,0 39.9,0 39.9,0 39.9,0 39.8,0 39.7,0 39.6,0 39.6,0 39.5,0 39.5,0 39.4,0 39.2,0 39.2,0 39.2,0 
		39.1,0 39,0 38.9,0 38.9,0 38.8,0 38.8,0 38.8,0 38.8,0 38.8,0 38.7,0 38.6,0 38.5,0 38.5,0 38.5,0 38.5,0 38.4,0 38.4,0 38.4,0 
		38.4,0 38.3,0 38.1,0 38.1,0 38.1,0 38.1,0 38,0 37.8,0 37.7,0 37.7,0 37.7,0 37.7,0 37.6,0 37.5,0 37.4,0 37.4,0 37.4,0 37.3,0 
		37.3,0 37.3,0 37.2,0 37.2,0 37.1,0 37.1,0 37,0 37,0 37,0 37,0 36.9,0 36.9,0 36.9,0 36.9,0 36.8,0 36.7,0 36.6,0 36.6,0 36.6,0 
		36.5,0 36.3,0 36.3,0 36.2,0 36.2,0 36.2,0 36.2,0 36.2,0 36.1,0 36,0 35.9,0 35.9,0 35.9,0 35.9,0 35.9,0 35.8,0 35.8,0 35.8,0 
		35.7,0 35.6,0 35.6,0 35.6,0 35.6,0 35.5,0 35.5,0 35.5,0 35.5,0 35.5,0 35.4,0 35.4,0 35.3,0 35.2,0 35.2,0 35.1,0 35,0 34.8,0 
		34.8,0 34.8,0 34.8,0 34.7,0 34.7,0 34.7,0 34.7,0 34.6,0 34.5,0 34.5,0 34.5,0 34.4,0 34.4,0 34.4,0 34.3,0 34.3,0 34.3,0 34.2,0 
		34.1,0 34.1,0 34.1,0 34.1,0 34.1,0 34.1,0 34,0 34,0 34,0 34,0 33.9,0 33.9,0 33.8,0 33.7,0 33.7,0 33.6,0 33.6,0 33.4,0 33.3,0 
		33.3,0 33.3,0 33.3,0 33.3,0 33.2,0 33.2,0 33.2,0 33.1,0 33,0 33,0 33,0 32.9,0 32.9,0 32.9,0 32.9,0 32.8,0 32.7,0 32.7,0 
		32.7,0 32.6,0 32.6,0 32.6,0 32.6,0 32.5,0 32.5,0 32.5,0 32.4,0 32.4,0 32.3,0 32.3,0 32.2,0 32.2,0 32.2,0 32.1,0 31.9,0 31.9,0 
		31.9,0 31.8,0 31.8,0 31.8,0 31.8,0 31.7,0 31.7,0 31.6,0 31.6,0 31.6,0 31.5,0 31.5,0 31.5,0 31.4,0 31.4,0 31.3,0 31.3,0 31.2,0 
		31.2,0 31.2,0 31.1,0 31.1,0 31.1,0 31.1,0 31,0 31,0 31,0 30.9,0 30.8,0 30.8,0 30.8,0 30.7,0 30.7,0 30.6,0 30.5,0 30.4,0 
		30.4,0 30.3,0 30.3,0 30.3,0 30.3,0 30.2,0 30.1,0 30.1,0 30.1,0 30,0 30,0 30,0 29.9,0 29.9,0 29.8,0 29.8,0 29.8,0 29.7,0 
		29.7,0 29.7,0 29.6,0 29.6,0 29.6,0 29.6,0 29.5,0 29.4,0 29.4,0 29.4,0 29.3,0 29.3,0 29.3,0 29.2,0 29.2,0 29.1,0 29.1,0 29,0 
		29,0 28.9,0 28.9,0 28.8,0 28.8,0 28.7,0 28.7,0 28.6,0 28.6,0 28.5,0 28.5,0 28.5,0 28.4,0 28.4,0 28.3,0 28.3,0 28.2,0 28.2,0 
		28.2,0 28.2,0 28.1,0 28.1,0 28,0 28,0 27.9,0 27.9,0 27.9,0 27.9,0 27.9,0 27.8,0 27.7,0 27.7,0 27.6,0 27.6,0 27.6,0 27.5,0 
		27.5,0 27.5,0 27.5,0 27.4,0 27.2,0 27.2,0 27.2,0 27.1,0 27.1,0 27.1,0 27,0 26.9,0 26.9,0 26.9,0 26.8,0 26.8,0 26.8,0 26.8,0 
		26.7,0 26.7,0 26.7,0 26.6,0 26.6,0 26.5,0 26.5,0 26.4,0 26.4,0 26.4,0 26.3,0 26.3,0 26.3,0 26.2,0 26.1,0 26.1,0 26.1,0 26.1,0 
		26,0 26,0 26,0 26,0 25.8,0 25.7,0 25.6,0 25.6,0 25.6,0 25.5,0 25.5,0 25.4,0 25.4,0 25.4,0 25.3,0 25.3,0 25.3,0 25.3,0 25.3,0 
		25.2,0 25.2,0 25.1,0 25,0 25,0 25,0 24.9,0 24.9,0 24.9,0 24.9,0 24.9,0 24.8,0 24.7,0 24.7,0 24.6,0 24.6,0 24.6,0 24.6,0 
		24.6,0 24.6,0 24.5,0 24.3,0 24.2,0 24.2,0 24.1,0 24,0 24,0 24,0 23.9,0 23.9,0 23.9,0 23.8,0 23.8,0 23.8,0 23.8,0 23.7,0 
		23.7,0 23.7,0 23.7,0 23.5,0 23.5,0 23.5,0 23.5,0 23.5,0 23.4,0 23.4,0 23.4,0 23.3,0 23.2,0 23.2,0 23.2,0 23.2,0 23.1,0 23.1,0 
		23.1,0 23.1,0 23,0 22.9,0 22.8,0 22.7,0 22.7,0 22.6,0 22.5,0 22.5,0 22.4,0 22.4,0 22.4,0 22.4,0 22.4,0 22.3,0 22.3,0 22.3,0 
		22.3,0 22.2,0 22.1,0 22.1,0 22.1,0 22,0 22,0 22,0 22,0 21.9,0 21.9,0 21.8,0 21.7,0 21.7,0 21.7,0 21.6,0 21.6,0 21.6,0 21.6,0 
		21.3,0 21.3,0 21.3,0 21.2,0 21.1,0 21.1,0 21,0 21,0 20.9,0 20.9,0 20.9,0 20.9,0 20.9,0 20.8,0 20.8,0 20.7,0 20.6,0 20.6,0 
		20.6,0 20.6,0 20.6,0 20.5,0 20.5,0 20.5,0 20.4,0 20.2,0 20.2,0 20.2,0 20.2,0 20.2,0 20.1,0 19.9,0 19.8,0 19.8,0 19.8,0 19.7,0 
		19.6,0 19.5,0 19.5,0 19.4,0 19.4,0 19.4,0 19.3,0 19.3,0 19.3,0 19.2,0 19.2,0 19.1,0 19.1,0 19.1,0 19,0 19,0 19,0 18.9,0 
		18.8,0 18.7,0 18.7,0 18.7,0 18.7,0 18.4,0 18.4,0 18.4,0 18.3,0 18.3,0 18.2,0 18.1,0 18,0 18,0 18,0 17.9,0 17.9,0 17.9,0 
		17.8,0 17.7,0 17.7,0 17.6,0 17.6,0 17.6,0 17.6,0 17.5,0 17.5,0 17.4,0 17.3,0 17.3,0 17.2,0 17.1,0 16.9,0 16.9,0 16.9,0 16.8,0 
		16.8,0 16.8,0 16.6,0 16.6,0 16.6,0 16.5,0 16.4,0 16.4,0 16.3,0 16.3,0 16.2,0 16.2,0 16.2,0 16.2,0 16.1,0 16.1,0 16,0 16,0 
		15.9,0 15.9,0 15.8,0 15.8,0 15.7,0 15.5,0 15.4,0 15.4,0 15.4,0 15.3,0 15.3,0 15.2,0 15.1,0 15.1,0 15,0 15,0 15,0 14.8,0 
		14.8,0 14.7,0 14.7,0 14.7,0 14.6,0 14.6,0 14.5,0 14.5,0 14.5,0 14.4,0 14.4,0 14.3,0 14.2,0 14,0 14,0 14,0 13.9,0 13.9,0 
		13.8,0 13.7,0 13.7,0 13.6,0 13.6,0 13.5,0 13.4,0 13.3,0 13.3,0 13.2,0 13.2,0 13.1,0 13.1,0 13.1,0 13,0 12.9,0 12.9,0 12.8,0 
		12.7,0 12.6,0 12.5,0 12.4,0 12.4,0 12.4,0 12.3,0 12.2,0 12.1,0 12,0 11.9,0 11.9,0 11.8,0 11.8,0 11.7,0 11.6,0 11.5,0 11.5,0 
		11.5,0 11.4,0 11.3,0 11.2,0 11.1,0 11,0 10.9,0 10.8,0 10.7,0 10.6,0 10.4,0 10.4,0 10.3,0 10.2,0 10.2,0 10,0 10,0 10,0 9.8,0 
		9.7,0 9.7,0 9.6,0 9.3,0 9.2,0 8.9,0 8.9,0 8.8,0 8.7,0 8.6,0 8.5,0 8.4,0 8.2,0 8.2,0 8.1,0 7.7,0 7.5,0 7.4,0 7.3,0 7.1,0 7.1,0 
		7,0 6.8,0 6.7,0 6.7,0 6,0 5.9,0 5.8,0 5.7,0 5.6,0 5.5,0 5.3,0 5.3,0 5.2,0 4.5,0 4.4,0 4.4,0 4.2,0 4.1,0 4,0 3.8,0 3.7,0 3.1,0 
		3,0 2.9,0 2.7,0 2.6,0 2.3,0 1.5,0 1.5,0 1.1,0 0,0 0,180 1.1,180 1.5,180 1.5,180 2.3,180 2.6,180 2.7,180 2.9,180 3,180 3.1,180 
		3.7,180 3.8,180 4,180 4.1,180 4.2,180 4.4,180 4.4,180 4.5,180 5.2,180 5.3,180 5.3,180 5.5,180 5.6,180 5.7,180 5.8,180 5.9,180 
		6,180 6.7,180 6.7,180 6.8,180 7,180 7.1,180 7.1,180 7.3,180 7.4,180 7.5,180 7.7,180 8.1,180 8.2,180 8.2,180 8.4,180 8.5,180 
		8.6,180 8.7,180 8.8,180 8.9,180 8.9,180 9.2,180 9.3,180 9.6,180 9.7,180 9.7,180 9.8,180 10,180 10,180 10,180 10.2,180 
		10.2,180 10.3,180 10.4,180 10.4,180 10.6,180 10.7,180 10.8,180 10.9,180 11,180 11.1,180 11.2,180 11.3,180 11.4,180 11.5,180 
		11.5,180 11.5,180 11.6,180 11.7,180 11.8,180 11.8,180 11.9,180 11.9,180 12,180 12.1,180 12.2,180 12.3,180 12.4,180 12.4,180 
		12.4,180 12.5,180 12.6,180 12.7,180 12.8,180 12.9,180 12.9,180 13,180 13.1,180 13.1,180 13.1,180 13.2,180 13.2,180 13.3,180 
		13.3,180 13.4,180 13.5,180 13.6,180 13.6,180 13.7,180 13.7,180 13.8,180 13.9,180 13.9,180 14,180 14,180 14,180 14.2,180 
		14.3,180 14.4,180 14.4,180 14.5,180 14.5,180 14.5,180 14.6,180 14.6,180 14.7,180 14.7,180 14.7,180 14.8,180 14.8,180 15,180 
		15,180 15,180 15.1,180 15.1,180 15.2,180 15.3,180 15.3,180 15.4,180 15.4,180 15.4,180 15.5,180 15.7,180 15.8,180 15.8,180 
		15.9,180 15.9,180 16,180 16,180 16.1,180 16.1,180 16.2,180 16.2,180 16.2,180 16.2,180 16.3,180 16.3,180 16.4,180 16.4,180 
		16.5,180 16.6,180 16.6,180 16.6,180 16.8,180 16.8,180 16.8,180 16.9,180 16.9,180 16.9,180 17.1,180 17.2,180 17.3,180 17.3,180 
		17.4,180 17.5,180 17.5,180 17.6,180 17.6,180 17.6,180 17.6,180 17.7,180 17.7,180 17.8,180 17.9,180 17.9,180 17.9,180 18,180 
		18,180 18,180 18.1,180 18.2,180 18.3,180 18.3,180 18.4,180 18.4,180 18.4,180 18.7,180 18.7,180 18.7,180 18.7,180 18.8,180 
		18.9,180 19,180 19,180 19,180 19.1,180 19.1,180 19.1,180 19.2,180 19.2,180 19.3,180 19.3,180 19.3,180 19.4,180 19.4,180 
		19.4,180 19.5,180 19.5,180 19.6,180 19.7,180 19.8,180 19.8,180 19.8,180 19.9,180 20.1,180 20.2,180 20.2,180 20.2,180 20.2,180 
		20.2,180 20.4,180 20.5,180 20.5,180 20.5,180 20.6,180 20.6,180 20.6,180 20.6,180 20.6,180 20.7,180 20.8,180 20.8,180 20.9,180 
		20.9,180 20.9,180 20.9,180 20.9,180 21,180 21,180 21.1,180 21.1,180 21.2,180 21.3,180 21.3,180 21.3,180 21.6,180 21.6,180 
		21.6,180 21.6,180 21.7,180 21.7,180 21.7,180 21.8,180 21.9,180 21.9,180 22,180 22,180 22,180 22,180 22.1,180 22.1,180 
		22.1,180 22.2,180 22.3,180 22.3,180 22.3,180 22.3,180 22.4,180 22.4,180 22.4,180 22.4,180 22.4,180 22.5,180 22.5,180 22.6,180 
		22.7,180 22.7,180 22.8,180 22.9,180 23,180 23.1,180 23.1,180 23.1,180 23.1,180 23.2,180 23.2,180 23.2,180 23.2,180 23.3,180 
		23.4,180 23.4,180 23.4,180 23.5,180 23.5,180 23.5,180 23.5,180 23.5,180 23.7,180 23.7,180 23.7,180 23.7,180 23.8,180 23.8,180 
		23.8,180 23.8,180 23.9,180 23.9,180 23.9,180 24,180 24,180 24,180 24.1,180 24.2,180 24.2,180 24.3,180 24.5,180 24.6,180 
		24.6,180 24.6,180 24.6,180 24.6,180 24.6,180 24.7,180 24.7,180 24.8,180 24.9,180 24.9,180 24.9,180 24.9,180 24.9,180 25,180 
		25,180 25,180 25.1,180 25.2,180 25.2,180 25.3,180 25.3,180 25.3,180 25.3,180 25.3,180 25.4,180 25.4,180 25.4,180 25.5,180 
		25.5,180 25.6,180 25.6,180 25.6,180 25.7,180 25.8,180 26,180 26,180 26,180 26,180 26.1,180 26.1,180 26.1,180 26.1,180 
		26.2,180 26.3,180 26.3,180 26.3,180 26.4,180 26.4,180 26.4,180 26.5,180 26.5,180 26.6,180 26.6,180 26.7,180 26.7,180 26.7,180 
		26.8,180 26.8,180 26.8,180 26.8,180 26.9,180 26.9,180 26.9,180 27,180 27.1,180 27.1,180 27.1,180 27.2,180 27.2,180 27.2,180 
		27.4,180 27.5,180 27.5,180 27.5,180 27.5,180 27.6,180 27.6,180 27.6,180 27.7,180 27.7,180 27.8,180 27.9,180 27.9,180 27.9,180 
		27.9,180 27.9,180 28,180 28,180 28.1,180 28.1,180 28.2,180 28.2,180 28.2,180 28.2,180 28.3,180 28.3,180 28.4,180 28.4,180 
		28.5,180 28.5,180 28.5,180 28.6,180 28.6,180 28.7,180 28.7,180 28.8,180 28.8,180 28.9,180 28.9,180 29,180 29,180 29.1,180 
		29.1,180 29.2,180 29.2,180 29.3,180 29.3,180 29.3,180 29.4,180 29.4,180 29.4,180 29.5,180 29.6,180 29.6,180 29.6,180 29.6,180 
		29.7,180 29.7,180 29.7,180 29.8,180 29.8,180 29.8,180 29.9,180 29.9,180 30,180 30,180 30,180 30.1,180 30.1,180 30.1,180 
		30.2,180 30.3,180 30.3,180 30.3,180 30.3,180 30.4,180 30.4,180 30.5,180 30.6,180 30.7,180 30.7,180 30.8,180 30.8,180 30.8,180 
		30.9,180 31,180 31,180 31,180 31.1,180 31.1,180 31.1,180 31.1,180 31.2,180 31.2,180 31.2,180 31.3,180 31.3,180 31.4,180 
		31.4,180 31.5,180 31.5,180 31.5,180 31.6,180 31.6,180 31.6,180 31.7,180 31.7,180 31.8,180 31.8,180 31.8,180 31.8,180 31.9,180 
		31.9,180 31.9,180 32.1,180 32.2,180 32.2,180 32.2,180 32.3,180 32.3,180 32.4,180 32.4,180 32.5,180 32.5,180 32.5,180 32.6,180 
		32.6,180 32.6,180 32.6,180 32.7,180 32.7,180 32.7,180 32.8,180 32.9,180 32.9,180 32.9,180 32.9,180 33,180 33,180 33,180 
		33.1,180 33.2,180 33.2,180 33.2,180 33.3,180 33.3,180 33.3,180 33.3,180 33.3,180 33.4,180 33.6,180 33.6,180 33.7,180 33.7,180 
		33.8,180 33.9,180 33.9,180 34,180 34,180 34,180 34,180 34.1,180 34.1,180 34.1,180 34.1,180 34.1,180 34.1,180 34.2,180 
		34.3,180 34.3,180 34.3,180 34.4,180 34.4,180 34.4,180 34.5,180 34.5,180 34.5,180 34.6,180 34.7,180 34.7,180 34.7,180 34.7,180 
		34.8,180 34.8,180 34.8,180 34.8,180 35,180 35.1,180 35.2,180 35.2,180 35.3,180 35.4,180 35.4,180 35.5,180 35.5,180 35.5,180 
		35.5,180 35.5,180 35.6,180 35.6,180 35.6,180 35.6,180 35.7,180 35.8,180 35.8,180 35.8,180 35.9,180 35.9,180 35.9,180 35.9,180 
		35.9,180 36,180 36.1,180 36.2,180 36.2,180 36.2,180 36.2,180 36.2,180 36.3,180 36.3,180 36.5,180 36.6,180 36.6,180 36.6,180 
		36.7,180 36.8,180 36.9,180 36.9,180 36.9,180 36.9,180 37,180 37,180 37,180 37,180 37.1,180 37.1,180 37.2,180 37.2,180 
		37.3,180 37.3,180 37.3,180 37.4,180 37.4,180 37.4,180 37.5,180 37.6,180 37.7,180 37.7,180 37.7,180 37.7,180 37.8,180 38,180 
		38.1,180 38.1,180 38.1,180 38.1,180 38.3,180 38.4,180 38.4,180 38.4,180 38.4,180 38.5,180 38.5,180 38.5,180 38.5,180 38.6,180 
		38.7,180 38.8,180 38.8,180 38.8,180 38.8,180 38.8,180 38.9,180 38.9,180 39,180 39.1,180 39.2,180 39.2,180 39.2,180 39.4,180 
		39.5,180 39.5,180 39.6,180 39.6,180 39.7,180 39.8,180 39.9,180 39.9,180 39.9,180 40,180 40,180 40,180 40.1,180 40.2,180 
		40.2,180 40.3,180 40.3,180 40.3,180 40.3,180 40.3,180 40.4,180 40.5,180 40.6,180 40.6,180 40.7,180 40.7,180 40.9,180 41,180 
		41,180 41,180 41.1,180 41.1,180 41.2,180 41.3,180 41.3,180 41.4,180 41.4,180 41.4,180 41.5,180 41.6,180 41.6,180 41.7,180 
		41.7,180 41.7,180 41.8,180 41.8,180 41.9,180 41.9,180 41.9,180 42,180 42.1,180 42.1,180 42.2,180 42.4,180 42.4,180 42.5,180 
		42.5,180 42.5,180 42.6,180 42.7,180 42.8,180 42.8,180 42.8,180 42.8,180 42.9,180 43,180 43.1,180 43.1,180 43.2,180 43.2,180 
		43.2,180 43.2,180 43.3,180 43.3,180 43.4,180 43.5,180 43.5,180 43.6,180 43.6,180 43.8,180 43.9,180 43.9,180 44,180 44,180 
		44.1,180 44.2,180 44.2,180 44.3,180 44.3,180 44.4,180 44.5,180 44.6,180 44.6,180 44.7,180 44.7,180 44.7,180 44.8,180 44.8,180 
		44.9,180 45,180 45,180 45.1,180 45.1,180 45.2,180 45.4,180 45.4,180 45.4,180 45.5,180 45.6,180 45.7,180 45.7,180 45.8,180 
		45.9,180 46,180 46.1,180 46.1,180 46.2,180 46.3,180 46.3,180 46.4,180 46.4,180 46.5,180 46.6,180 46.7,180 46.8,180 46.9,180 
		47,180 47.1,180 47.1,180 47.2,180 47.5,180 47.5,180 47.5,180 47.6,180 47.7,180 47.8,180 47.9,180 47.9,180 48,180 48.1,180 
		48.2,180 48.3,180 48.6,180 48.7,180 49,180 49,180 49,180 49.2,180 49.3,180 49.4,180 49.4,180 49.6,180 49.7,180 49.8,180 
		50.1,180 50.4,180 50.5,180 50.6,180 50.8,180 50.8,180 50.9,180 51.1,180 51.2,180 51.2,180 51.9,180 51.9,180 52,180 52.2,180 
		52.3,180 52.3,180 52.5,180 52.6,180 52.7,180 53.4,180 53.4,180 53.5,180 53.7,180 53.8,180 53.8,180 54.1,180 54.1,180 54.8,180 
		54.9,180 55,180 55.2,180 55.3,180 55.6,180 56.3,180 56.4,180 56.7,180 57.9,180 57.9,0 	"/>
</g>
<g id="figure">
	<path d="M47.9,119.2c0,0.6,0,1.2-0.2,1.6c-0.1,0.4-0.2,0.8-0.4,1.1c-0.2,0.3-0.4,0.5-0.6,0.6c-0.2,0.1-0.4,0.2-0.7,0.2h-34
		c-0.2,0-0.5-0.1-0.7-0.2s-0.4-0.3-0.6-0.6c-0.2-0.3-0.3-0.6-0.4-1.1c-0.1-0.4-0.2-1-0.2-1.6c0-0.6,0.1-1.1,0.2-1.6s0.2-0.8,0.4-1.1
		c0.2-0.3,0.3-0.5,0.6-0.7c0.2-0.2,0.5-0.2,0.7-0.2h13.6V66.1l-12.6,7.5c-0.6,0.3-1.1,0.5-1.5,0.6c-0.4,0.1-0.7,0-0.9-0.2
		c-0.2-0.2-0.4-0.6-0.5-1.1C10,72.4,10,71.8,10,71c0-0.6,0-1.1,0.1-1.5c0.1-0.4,0.1-0.7,0.2-1c0.1-0.3,0.2-0.5,0.4-0.7
		c0.2-0.2,0.4-0.4,0.7-0.6l15-9.6c0.1-0.1,0.3-0.2,0.5-0.3c0.2-0.1,0.5-0.1,0.8-0.2c0.3-0.1,0.7-0.1,1.1-0.1c0.4,0,0.9,0,1.5,0
		c0.8,0,1.5,0,2,0.1c0.5,0.1,1,0.2,1.3,0.3c0.3,0.1,0.5,0.3,0.6,0.5c0.1,0.2,0.2,0.4,0.2,0.6v57.2h11.8c0.3,0,0.5,0.1,0.8,0.2
		c0.2,0.2,0.4,0.4,0.6,0.7c0.2,0.3,0.3,0.6,0.4,1.1C47.8,118,47.9,118.5,47.9,119.2z"/>
</g>
</svg>
