<?xml version="1.0" encoding="utf-8"?>
<!-- Generator: Adobe Illustrator 22.1.0, SVG Export Plug-In . SVG Version: 6.00 Build 0)  -->
<svg version="1.1" xmlns="http://www.w3.org/2000/svg" xmlns:xlink="http://www.w3.org/1999/xlink" x="0px" y="0px"
	 viewBox="0 0 124.1 180" style="enable-background:new 0 0 124.1 180;" xml:space="preserve">
<style type="text/css">
	.st0{display:none;}
	.st1{display:inline;fill:#FF0000;}
</style>
<g id="bg" class="st0">
	<polygon class="st1" points="121.7,0 121,0 120.9,0 119.3,0 118.6,0 118.4,0 117.9,0 117.7,0 117.6,0 116.1,0 116,0 115.5,0 
		115.3,0 115.1,0 114.7,0 114.6,0 114.5,0 113,0 112.9,0 112.7,0 112.3,0 112.2,0 112,0 111.6,0 111.4,0 111.3,0 109.8,0 109.7,0 
		109.6,0 109.2,0 109,0 108.9,0 108.5,0 108.3,0 108.1,0 107.5,0 106.7,0 106.5,0 106.5,0 106,0 105.9,0 105.7,0 105.5,0 105.2,0 
		105.1,0 105,0 104.4,0 104.2,0 103.6,0 103.4,0 103.3,0 103,0 102.8,0 102.7,0 102.6,0 102.4,0 102.2,0 102,0 101.9,0 101.8,0 
		101.3,0 101.1,0 101,0 100.7,0 100.6,0 100.3,0 100.2,0 99.9,0 99.7,0 99.5,0 99.5,0 99.4,0 99.2,0 99.1,0 98.9,0 98.9,0 98.7,0 
		98.5,0 98.3,0 98.1,0 98,0 97.8,0 97.6,0 97.5,0 97.4,0 97.3,0 97,0 96.8,0 96.6,0 96.5,0 96.4,0 96.3,0 96.1,0 96,0 96,0 95.9,0 
		95.8,0 95.7,0 95.6,0 95.4,0 95.2,0 95,0 95,0 94.8,0 94.7,0 94.5,0 94.4,0 94.3,0 94.2,0 94.2,0 94,0 93.6,0 93.5,0 93.3,0 
		93.2,0 93.1,0 93,0 92.9,0 92.8,0 92.7,0 92.7,0 92.6,0 92.6,0 92.4,0 92.3,0 92.1,0 91.9,0 91.9,0 91.7,0 91.7,0 91.5,0 91.3,0 
		91.2,0 91.2,0 91.1,0 91.1,0 90.9,0 90.5,0 90.3,0 90.2,0 90.1,0 89.9,0 89.9,0 89.8,0 89.6,0 89.6,0 89.5,0 89.5,0 89.4,0 89.3,0 
		89.3,0 89.1,0 88.9,0 88.9,0 88.8,0 88.6,0 88.6,0 88.4,0 88.2,0 88.1,0 88,0 87.9,0 87.9,0 87.8,0 87.4,0 87.2,0 87,0 87,0 
		86.8,0 86.7,0 86.5,0 86.4,0 86.4,0 86.4,0 86.3,0 86.2,0 86.2,0 86,0 85.8,0 85.8,0 85.7,0 85.6,0 85.6,0 85.5,0 85.3,0 85.1,0 
		84.9,0 84.9,0 84.8,0 84.7,0 84.6,0 84.1,0 84.1,0 84,0 83.9,0 83.7,0 83.5,0 83.3,0 83.3,0 83.3,0 83.2,0 83.1,0 83.1,0 83.1,0 
		82.9,0 82.7,0 82.6,0 82.6,0 82.5,0 82.5,0 82.5,0 82.3,0 82.3,0 82.1,0 81.8,0 81.7,0 81.7,0 81.6,0 81.5,0 81,0 80.9,0 80.9,0 
		80.8,0 80.8,0 80.7,0 80.4,0 80.2,0 80.2,0 80.2,0 80.1,0 80,0 80,0 79.9,0 79.9,0 79.6,0 79.5,0 79.4,0 79.4,0 79.4,0 79.3,0 
		79.2,0 79.2,0 79.2,0 79.2,0 79,0 78.8,0 78.6,0 78.5,0 78.4,0 78.4,0 77.9,0 77.8,0 77.8,0 77.7,0 77.6,0 77.6,0 77.6,0 77.4,0 
		77.2,0 77.1,0 77,0 76.9,0 76.9,0 76.9,0 76.8,0 76.7,0 76.7,0 76.5,0 76.4,0 76.3,0 76.3,0 76.3,0 76.2,0 76.1,0 76.1,0 76.1,0 
		76.1,0 76,0 75.8,0 75.7,0 75.5,0 75.5,0 75.3,0 75.1,0 74.7,0 74.7,0 74.6,0 74.6,0 74.5,0 74.5,0 74.4,0 74.3,0 74.3,0 74.1,0 
		73.9,0 73.9,0 73.9,0 73.8,0 73.7,0 73.7,0 73.6,0 73.6,0 73.4,0 73.2,0 73.2,0 73.2,0 73.1,0 73.1,0 73,0 73,0 73,0 72.9,0 
		72.8,0 72.7,0 72.6,0 72.6,0 72.4,0 72.3,0 72.2,0 72,0 71.6,0 71.5,0 71.4,0 71.4,0 71.4,0 71.3,0 71.3,0 71.2,0 71.2,0 71,0 
		70.8,0 70.8,0 70.8,0 70.6,0 70.6,0 70.6,0 70.5,0 70.4,0 70.2,0 70.1,0 70.1,0 70,0 69.9,0 69.9,0 69.8,0 69.8,0 69.8,0 69.7,0 
		69.6,0 69.5,0 69.4,0 69.3,0 69.2,0 69.1,0 69,0 68.9,0 68.5,0 68.4,0 68.3,0 68.3,0 68.2,0 68.2,0 68.1,0 68.1,0 68,0 67.8,0 
		67.7,0 67.7,0 67.5,0 67.5,0 67.5,0 67.3,0 67.3,0 67.1,0 67.1,0 66.9,0 66.8,0 66.8,0 66.7,0 66.7,0 66.7,0 66.6,0 66.5,0 66.5,0 
		66.4,0 66.2,0 66.1,0 66.1,0 66,0 65.9,0 65.9,0 65.7,0 65.5,0 65.2,0 65.2,0 65.1,0 65,0 65,0 64.9,0 64.9,0 64.7,0 64.6,0 
		64.5,0 64.4,0 64.4,0 64.3,0 64.2,0 64.2,0 64,0 64,0 63.8,0 63.8,0 63.6,0 63.6,0 63.6,0 63.6,0 63.4,0 63.4,0 63.3,0 63.1,0 
		63,0 63,0 62.9,0 62.8,0 62.7,0 62.6,0 62.6,0 62.4,0 62.3,0 62.2,0 62.2,0 62,0 61.9,0 61.8,0 61.8,0 61.6,0 61.5,0 61.4,0 
		61.4,0 61.2,0 61.2,0 61.1,0 61,0 60.9,0 60.7,0 60.7,0 60.6,0 60.5,0 60.5,0 60.5,0 60.3,0 60.3,0 60.2,0 60.1,0 59.9,0 59.9,0 
		59.8,0 59.7,0 59.7,0 59.7,0 59.5,0 59.5,0 59.3,0 59.2,0 59.1,0 59.1,0 59.1,0 58.9,0 58.9,0 58.7,0 58.4,0 58.3,0 58.3,0 58.1,0 
		58.1,0 58.1,0 57.9,0 57.7,0 57.7,0 57.6,0 57.5,0 57.5,0 57.4,0 57.4,0 57.3,0 57.3,0 57.2,0 57,0 57,0 56.8,0 56.8,0 56.6,0 
		56.6,0 56.6,0 56.5,0 56.5,0 56.4,0 56.1,0 56,0 56,0 56,0 55.9,0 55.8,0 55.8,0 55.8,0 55.7,0 55.2,0 55.2,0 55,0 55,0 54.9,0 
		54.8,0 54.6,0 54.6,0 54.4,0 54.4,0 54.4,0 54.3,0 54.2,0 54.2,0 54.2,0 54,0 54,0 53.9,0 53.7,0 53.6,0 53.5,0 53.5,0 53.5,0 
		53.4,0 53.3,0 53.3,0 53.2,0 52.9,0 52.9,0 52.9,0 52.8,0 52.8,0 52.7,0 52.7,0 52.7,0 52.5,0 52.1,0 52,0 51.9,0 51.8,0 51.6,0 
		51.5,0 51.5,0 51.3,0 51.3,0 51.2,0 51.1,0 51.1,0 51.1,0 51.1,0 50.9,0 50.9,0 50.9,0 50.7,0 50.5,0 50.5,0 50.5,0 50.4,0 50.3,0 
		50.3,0 50.2,0 50.2,0 50.1,0 49.8,0 49.8,0 49.7,0 49.7,0 49.6,0 49.6,0 49.5,0 49.5,0 49.4,0 49,0 48.8,0 48.7,0 48.6,0 48.5,0 
		48.3,0 48.2,0 48.1,0 48.1,0 48,0 48,0 48,0 47.9,0 47.8,0 47.8,0 47.8,0 47.6,0 47.4,0 47.4,0 47.4,0 47.2,0 47.2,0 47.2,0 
		47.1,0 47,0 46.9,0 46.7,0 46.6,0 46.5,0 46.5,0 46.4,0 46.4,0 46.4,0 46.2,0 45.8,0 45.7,0 45.6,0 45.6,0 45.4,0 45.2,0 45,0 
		44.9,0 44.9,0 44.9,0 44.8,0 44.8,0 44.8,0 44.7,0 44.6,0 44.5,0 44.3,0 44.3,0 44.1,0 44.1,0 44.1,0 43.9,0 43.9,0 43.9,0 43.7,0 
		43.4,0 43.3,0 43.3,0 43.3,0 43.2,0 43.1,0 42.7,0 42.5,0 42.5,0 42.4,0 42.3,0 42.1,0 41.8,0 41.8,0 41.7,0 41.7,0 41.6,0 41.5,0 
		41.5,0 41.5,0 41.3,0 41.1,0 41,0 41,0 40.9,0 40.8,0 40.8,0 40.8,0 40.6,0 40.4,0 40.2,0 40.1,0 40,0 40,0 39.5,0 39.4,0 39.4,0 
		39.2,0 39.2,0 39.1,0 38.8,0 38.6,0 38.6,0 38.5,0 38.4,0 38.4,0 38.4,0 38.2,0 38,0 38,0 37.8,0 37.8,0 37.7,0 37.7,0 37.6,0 
		37.5,0 37.3,0 37.1,0 37.1,0 36.9,0 36.8,0 36.3,0 36.3,0 36.2,0 36.1,0 36.1,0 35.9,0 35.7,0 35.5,0 35.5,0 35.4,0 35.3,0 35.3,0 
		35,0 34.9,0 34.8,0 34.7,0 34.7,0 34.7,0 34.5,0 34.5,0 34.3,0 34.3,0 34.2,0 34,0 33.9,0 33.8,0 33.6,0 33.2,0 33.1,0 33.1,0 
		33,0 32.9,0 32.8,0 32.6,0 32.4,0 32.4,0 32.3,0 32.2,0 32.1,0 31.8,0 31.8,0 31.6,0 31.6,0 31.5,0 31.4,0 31.4,0 31.2,0 31.2,0 
		31,0 30.9,0 30.8,0 30.6,0 30.5,0 30.1,0 30,0 29.9,0 29.8,0 29.8,0 29.6,0 29.4,0 29.3,0 29.1,0 29.1,0 29,0 28.7,0 28.6,0 
		28.5,0 28.3,0 28.3,0 28.2,0 28.1,0 28.1,0 27.9,0 27.7,0 27.7,0 27.5,0 27.3,0 27.1,0 26.8,0 26.7,0 26.7,0 26.5,0 26.3,0 26.1,0 
		26,0 25.8,0 25.6,0 25.4,0 25.3,0 25.2,0 25.1,0 24.9,0 24.8,0 24.7,0 24.6,0 24.4,0 24.2,0 24,0 23.8,0 23.5,0 23.4,0 23.2,0 
		23,0 22.8,0 22.3,0 22.2,0 22.2,0 21.9,0 21.8,0 21.5,0 21.5,0 21.4,0 21.1,0 20.9,0 20.7,0 20.5,0 19.9,0 19.7,0 19.1,0 19,0 
		18.9,0 18.7,0 18.4,0 18.3,0 18.1,0 17.7,0 17.6,0 17.4,0 16.6,0 16,0 15.8,0 15.7,0 15.2,0 15.1,0 15,0 14.6,0 14.4,0 14.3,0 
		12.8,0 12.7,0 12.5,0 12.1,0 12,0 11.9,0 11.4,0 11.3,0 11.1,0 9.7,0 9.5,0 9.4,0 9,0 8.8,0 8.7,0 8.2,0 8,0 6.6,0 6.4,0 6.2,0 
		5.7,0 5.6,0 4.9,0 3.3,0 3.1,0 2.4,0 0,0 0,180 2.4,180 3.1,180 3.3,180 4.9,180 5.6,180 5.7,180 6.2,180 6.4,180 6.6,180 8,180 
		8.2,180 8.7,180 8.8,180 9,180 9.4,180 9.5,180 9.7,180 11.1,180 11.3,180 11.4,180 11.9,180 12,180 12.1,180 12.5,180 12.7,180 
		12.8,180 14.3,180 14.4,180 14.6,180 15,180 15.1,180 15.2,180 15.7,180 15.8,180 16,180 16.6,180 17.4,180 17.6,180 17.7,180 
		18.1,180 18.3,180 18.4,180 18.7,180 18.9,180 19,180 19.1,180 19.7,180 19.9,180 20.5,180 20.7,180 20.9,180 21.1,180 21.4,180 
		21.5,180 21.5,180 21.8,180 21.9,180 22.2,180 22.2,180 22.3,180 22.8,180 23,180 23.2,180 23.4,180 23.5,180 23.8,180 24,180 
		24.2,180 24.4,180 24.6,180 24.7,180 24.8,180 24.9,180 25.1,180 25.2,180 25.3,180 25.4,180 25.6,180 25.8,180 26,180 26.1,180 
		26.3,180 26.5,180 26.7,180 26.7,180 26.8,180 27.1,180 27.3,180 27.5,180 27.7,180 27.7,180 27.9,180 28.1,180 28.1,180 28.2,180 
		28.3,180 28.3,180 28.5,180 28.6,180 28.7,180 29,180 29.1,180 29.1,180 29.3,180 29.4,180 29.6,180 29.8,180 29.8,180 29.9,180 
		30,180 30.1,180 30.5,180 30.6,180 30.8,180 30.9,180 31,180 31.2,180 31.2,180 31.4,180 31.4,180 31.5,180 31.6,180 31.6,180 
		31.8,180 31.8,180 32.1,180 32.2,180 32.3,180 32.4,180 32.4,180 32.6,180 32.8,180 32.9,180 33,180 33.1,180 33.1,180 33.2,180 
		33.6,180 33.8,180 33.9,180 34,180 34.2,180 34.3,180 34.3,180 34.5,180 34.5,180 34.7,180 34.7,180 34.7,180 34.8,180 34.9,180 
		35,180 35.3,180 35.3,180 35.4,180 35.5,180 35.5,180 35.7,180 35.9,180 36.1,180 36.1,180 36.2,180 36.3,180 36.3,180 36.8,180 
		36.9,180 37.1,180 37.1,180 37.3,180 37.5,180 37.6,180 37.7,180 37.7,180 37.8,180 37.8,180 38,180 38,180 38.2,180 38.4,180 
		38.4,180 38.4,180 38.5,180 38.6,180 38.6,180 38.8,180 39.1,180 39.2,180 39.2,180 39.4,180 39.4,180 39.5,180 40,180 40,180 
		40.1,180 40.2,180 40.4,180 40.6,180 40.8,180 40.8,180 40.8,180 40.9,180 41,180 41,180 41.1,180 41.3,180 41.5,180 41.5,180 
		41.5,180 41.6,180 41.7,180 41.7,180 41.8,180 41.8,180 42.1,180 42.3,180 42.4,180 42.5,180 42.5,180 42.7,180 43.1,180 43.2,180 
		43.3,180 43.3,180 43.3,180 43.4,180 43.7,180 43.9,180 43.9,180 43.9,180 44.1,180 44.1,180 44.1,180 44.3,180 44.3,180 44.5,180 
		44.6,180 44.7,180 44.8,180 44.8,180 44.8,180 44.9,180 44.9,180 44.9,180 45,180 45.2,180 45.4,180 45.6,180 45.6,180 45.7,180 
		45.8,180 46.2,180 46.4,180 46.4,180 46.4,180 46.5,180 46.5,180 46.6,180 46.7,180 46.9,180 47,180 47.1,180 47.2,180 47.2,180 
		47.2,180 47.4,180 47.4,180 47.4,180 47.6,180 47.8,180 47.8,180 47.8,180 47.9,180 48,180 48,180 48,180 48.1,180 48.1,180 
		48.2,180 48.3,180 48.5,180 48.6,180 48.7,180 48.8,180 49,180 49.4,180 49.5,180 49.5,180 49.6,180 49.6,180 49.7,180 49.7,180 
		49.8,180 49.8,180 50.1,180 50.2,180 50.2,180 50.3,180 50.3,180 50.4,180 50.5,180 50.5,180 50.5,180 50.7,180 50.9,180 50.9,180 
		50.9,180 51.1,180 51.1,180 51.1,180 51.1,180 51.2,180 51.3,180 51.3,180 51.5,180 51.5,180 51.6,180 51.8,180 51.9,180 52,180 
		52.1,180 52.5,180 52.7,180 52.7,180 52.7,180 52.8,180 52.8,180 52.9,180 52.9,180 52.9,180 53.2,180 53.3,180 53.3,180 53.4,180 
		53.5,180 53.5,180 53.5,180 53.6,180 53.7,180 53.9,180 54,180 54,180 54.2,180 54.2,180 54.2,180 54.3,180 54.4,180 54.4,180 
		54.4,180 54.6,180 54.6,180 54.8,180 54.9,180 55,180 55,180 55.2,180 55.2,180 55.7,180 55.8,180 55.8,180 55.8,180 55.9,180 
		56,180 56,180 56,180 56.1,180 56.4,180 56.5,180 56.5,180 56.6,180 56.6,180 56.6,180 56.8,180 56.8,180 57,180 57,180 57.2,180 
		57.3,180 57.3,180 57.4,180 57.4,180 57.5,180 57.5,180 57.6,180 57.7,180 57.7,180 57.9,180 58.1,180 58.1,180 58.1,180 58.3,180 
		58.3,180 58.4,180 58.7,180 58.9,180 58.9,180 59.1,180 59.1,180 59.1,180 59.2,180 59.3,180 59.5,180 59.5,180 59.7,180 59.7,180 
		59.7,180 59.8,180 59.9,180 59.9,180 60.1,180 60.2,180 60.3,180 60.3,180 60.5,180 60.5,180 60.5,180 60.6,180 60.7,180 60.7,180 
		60.9,180 61,180 61.1,180 61.2,180 61.2,180 61.4,180 61.4,180 61.5,180 61.6,180 61.8,180 61.8,180 61.9,180 62,180 62.2,180 
		62.2,180 62.3,180 62.4,180 62.6,180 62.6,180 62.7,180 62.8,180 62.9,180 63,180 63,180 63.1,180 63.3,180 63.4,180 63.4,180 
		63.6,180 63.6,180 63.6,180 63.6,180 63.8,180 63.8,180 64,180 64,180 64.2,180 64.2,180 64.3,180 64.4,180 64.4,180 64.5,180 
		64.6,180 64.7,180 64.9,180 64.9,180 65,180 65,180 65.1,180 65.2,180 65.2,180 65.5,180 65.7,180 65.9,180 65.9,180 66,180 
		66.1,180 66.1,180 66.2,180 66.4,180 66.5,180 66.5,180 66.6,180 66.7,180 66.7,180 66.7,180 66.8,180 66.8,180 66.9,180 67.1,180 
		67.1,180 67.3,180 67.3,180 67.5,180 67.5,180 67.5,180 67.7,180 67.7,180 67.8,180 68,180 68.1,180 68.1,180 68.2,180 68.2,180 
		68.3,180 68.3,180 68.4,180 68.5,180 68.9,180 69,180 69.1,180 69.2,180 69.3,180 69.4,180 69.5,180 69.6,180 69.7,180 69.8,180 
		69.8,180 69.8,180 69.9,180 69.9,180 70,180 70.1,180 70.1,180 70.2,180 70.4,180 70.5,180 70.6,180 70.6,180 70.6,180 70.8,180 
		70.8,180 70.8,180 71,180 71.2,180 71.2,180 71.3,180 71.3,180 71.4,180 71.4,180 71.4,180 71.5,180 71.6,180 72,180 72.2,180 
		72.3,180 72.4,180 72.6,180 72.6,180 72.7,180 72.8,180 72.9,180 73,180 73,180 73,180 73.1,180 73.1,180 73.2,180 73.2,180 
		73.2,180 73.4,180 73.6,180 73.6,180 73.7,180 73.7,180 73.8,180 73.9,180 73.9,180 73.9,180 74.1,180 74.3,180 74.3,180 74.4,180 
		74.5,180 74.5,180 74.6,180 74.6,180 74.7,180 74.7,180 75.1,180 75.3,180 75.5,180 75.5,180 75.7,180 75.8,180 76,180 76.1,180 
		76.1,180 76.1,180 76.1,180 76.2,180 76.3,180 76.3,180 76.3,180 76.4,180 76.5,180 76.7,180 76.7,180 76.8,180 76.9,180 76.9,180 
		76.9,180 77,180 77.1,180 77.2,180 77.4,180 77.6,180 77.6,180 77.6,180 77.7,180 77.8,180 77.8,180 77.9,180 78.4,180 78.4,180 
		78.5,180 78.6,180 78.8,180 79,180 79.2,180 79.2,180 79.2,180 79.2,180 79.3,180 79.4,180 79.4,180 79.4,180 79.5,180 79.6,180 
		79.9,180 79.9,180 80,180 80,180 80.1,180 80.2,180 80.2,180 80.2,180 80.4,180 80.7,180 80.8,180 80.8,180 80.9,180 80.9,180 
		81,180 81.5,180 81.6,180 81.7,180 81.7,180 81.8,180 82.1,180 82.3,180 82.3,180 82.5,180 82.5,180 82.5,180 82.6,180 82.6,180 
		82.7,180 82.9,180 83.1,180 83.1,180 83.1,180 83.2,180 83.3,180 83.3,180 83.3,180 83.5,180 83.7,180 83.9,180 84,180 84.1,180 
		84.1,180 84.6,180 84.7,180 84.8,180 84.9,180 84.9,180 85.1,180 85.3,180 85.5,180 85.6,180 85.6,180 85.7,180 85.8,180 85.8,180 
		86,180 86.2,180 86.2,180 86.3,180 86.4,180 86.4,180 86.4,180 86.5,180 86.7,180 86.8,180 87,180 87,180 87.2,180 87.4,180 
		87.8,180 87.9,180 87.9,180 88,180 88.1,180 88.2,180 88.4,180 88.6,180 88.6,180 88.8,180 88.9,180 88.9,180 89.1,180 89.3,180 
		89.3,180 89.4,180 89.5,180 89.5,180 89.6,180 89.6,180 89.8,180 89.9,180 89.9,180 90.1,180 90.2,180 90.3,180 90.5,180 90.9,180 
		91.1,180 91.1,180 91.2,180 91.2,180 91.3,180 91.5,180 91.7,180 91.7,180 91.9,180 91.9,180 92.1,180 92.3,180 92.4,180 92.6,180 
		92.6,180 92.7,180 92.7,180 92.8,180 92.9,180 93,180 93.1,180 93.2,180 93.3,180 93.5,180 93.6,180 94,180 94.2,180 94.2,180 
		94.3,180 94.4,180 94.5,180 94.7,180 94.8,180 95,180 95,180 95.2,180 95.4,180 95.6,180 95.7,180 95.8,180 95.9,180 96,180 
		96,180 96.1,180 96.3,180 96.4,180 96.5,180 96.6,180 96.8,180 97,180 97.3,180 97.4,180 97.5,180 97.6,180 97.8,180 98,180 
		98.1,180 98.3,180 98.5,180 98.7,180 98.9,180 98.9,180 99.1,180 99.2,180 99.4,180 99.5,180 99.5,180 99.7,180 99.9,180 
		100.2,180 100.3,180 100.6,180 100.7,180 101,180 101.1,180 101.3,180 101.8,180 101.9,180 102,180 102.2,180 102.4,180 102.6,180 
		102.7,180 102.8,180 103,180 103.3,180 103.4,180 103.6,180 104.2,180 104.4,180 105,180 105.1,180 105.2,180 105.5,180 105.7,180 
		105.9,180 106,180 106.5,180 106.5,180 106.7,180 107.5,180 108.1,180 108.3,180 108.5,180 108.9,180 109,180 109.2,180 109.6,180 
		109.7,180 109.8,180 111.3,180 111.4,180 111.6,180 112,180 112.2,180 112.3,180 112.7,180 112.9,180 113,180 114.5,180 114.6,180 
		114.7,180 115.1,180 115.3,180 115.5,180 116,180 116.1,180 117.6,180 117.7,180 117.9,180 118.4,180 118.6,180 119.3,180 
		120.9,180 121,180 121.7,180 124.1,180 124.1,0 	"/>
</g>
<g id="figure">
	<g>
		<path d="M65.6,119.5c0.3,0.7,0.4,1.3,0.4,1.8c0,0.5-0.1,0.8-0.4,1c-0.3,0.2-0.7,0.4-1.3,0.5c-0.6,0.1-1.5,0.1-2.5,0.1
			c-1,0-1.9,0-2.5-0.1c-0.6-0.1-1.1-0.1-1.4-0.3c-0.3-0.1-0.6-0.3-0.7-0.5c-0.2-0.2-0.3-0.5-0.4-0.8l-5.6-15.8H24.2l-5.3,15.6
			c-0.1,0.3-0.2,0.6-0.4,0.8c-0.2,0.2-0.4,0.4-0.7,0.6c-0.3,0.2-0.8,0.3-1.4,0.3c-0.6,0.1-1.3,0.1-2.3,0.1c-1,0-1.8,0-2.4-0.1
			c-0.6-0.1-1.1-0.2-1.3-0.5c-0.3-0.2-0.4-0.6-0.4-1c0-0.5,0.2-1,0.4-1.8L32.3,59c0.1-0.4,0.3-0.7,0.5-0.9c0.2-0.2,0.5-0.4,1-0.6
			c0.4-0.1,1-0.2,1.6-0.3c0.7,0,1.5-0.1,2.5-0.1c1.1,0,2,0,2.7,0.1c0.7,0.1,1.3,0.1,1.7,0.3c0.4,0.1,0.8,0.3,1,0.6
			c0.2,0.3,0.4,0.6,0.6,0.9L65.6,119.5z M37.6,66.1L37.6,66.1L26.3,98.6H49L37.6,66.1z"/>
		<path d="M114.1,96.7c0,1.3-0.3,2.2-1,2.8c-0.7,0.6-1.4,0.8-2.2,0.8H81.1c0,2.5,0.3,4.8,0.8,6.8c0.5,2,1.3,3.7,2.5,5.2
			c1.2,1.4,2.7,2.5,4.6,3.3c1.9,0.8,4.2,1.2,6.9,1.2c2.2,0,4.1-0.2,5.8-0.5c1.7-0.4,3.1-0.7,4.4-1.2c1.2-0.4,2.2-0.8,3-1.2
			c0.8-0.4,1.4-0.5,1.8-0.5c0.2,0,0.4,0.1,0.6,0.2c0.2,0.1,0.3,0.3,0.4,0.5c0.1,0.2,0.2,0.6,0.2,1s0.1,0.9,0.1,1.5
			c0,0.4,0,0.8-0.1,1.1c0,0.3-0.1,0.6-0.1,0.9c0,0.3-0.1,0.5-0.3,0.7c-0.1,0.2-0.3,0.4-0.5,0.6c-0.2,0.2-0.7,0.5-1.6,0.9
			c-0.9,0.4-2.1,0.8-3.5,1.2c-1.4,0.4-3.1,0.8-5,1.1c-1.9,0.3-3.9,0.5-6.1,0.5c-3.7,0-7-0.5-9.8-1.6c-2.8-1-5.2-2.6-7.1-4.6
			c-1.9-2-3.4-4.6-4.3-7.7c-1-3.1-1.5-6.7-1.5-10.8c0-3.9,0.5-7.4,1.5-10.5c1-3.1,2.5-5.7,4.4-7.9c1.9-2.2,4.2-3.8,6.9-5
			c2.7-1.2,5.7-1.7,9-1.7c3.6,0,6.6,0.6,9.1,1.7c2.5,1.1,4.6,2.7,6.2,4.6c1.6,1.9,2.8,4.2,3.5,6.8c0.8,2.6,1.1,5.4,1.1,8.3V96.7z
			 M105.8,94.3c0.1-4.4-0.9-7.8-2.9-10.3c-2-2.5-5.1-3.7-9.1-3.7c-2.1,0-3.9,0.4-5.4,1.2c-1.6,0.8-2.9,1.8-3.9,3.1
			c-1,1.3-1.9,2.8-2.4,4.5c-0.6,1.7-0.9,3.5-1,5.3H105.8z"/>
	</g>
</g>
</svg>
