<?xml version="1.0" encoding="utf-8"?>
<!-- Generator: Adobe Illustrator 22.1.0, SVG Export Plug-In . SVG Version: 6.00 Build 0)  -->
<svg version="1.1" xmlns="http://www.w3.org/2000/svg" xmlns:xlink="http://www.w3.org/1999/xlink" x="0px" y="0px"
	 viewBox="0 0 141 180" style="enable-background:new 0 0 141 180;" xml:space="preserve">
<style type="text/css">
	.st0{display:none;}
	.st1{display:inline;fill:#FF0000;}
</style>
<g id="bg" class="st0">
	<polygon class="st1" points="138.2,0 137.5,0 137.3,0 135.5,0 134.7,0 134.5,0 133.9,0 133.7,0 133.5,0 131.9,0 131.7,0 131.2,0 
		131,0 130.8,0 130.3,0 130.2,0 130,0 128.4,0 128.2,0 128,0 127.5,0 127.4,0 127.2,0 126.8,0 126.6,0 126.5,0 124.8,0 124.7,0 
		124.5,0 124,0 123.8,0 123.7,0 123.2,0 123,0 122.8,0 122.1,0 121.2,0 121,0 120.9,0 120.5,0 120.3,0 120.1,0 119.8,0 119.5,0 
		119.4,0 119.3,0 118.6,0 118.4,0 117.7,0 117.5,0 117.3,0 117,0 116.7,0 116.6,0 116.5,0 116.3,0 116.1,0 115.8,0 115.8,0 115.6,0 
		115.1,0 114.9,0 114.7,0 114.4,0 114.3,0 114,0 113.8,0 113.5,0 113.3,0 113.1,0 113,0 112.9,0 112.7,0 112.5,0 112.3,0 112.3,0 
		112.1,0 111.9,0 111.7,0 111.4,0 111.3,0 111.1,0 110.9,0 110.7,0 110.7,0 110.5,0 110.2,0 110,0 109.8,0 109.6,0 109.5,0 109.3,0 
		109.1,0 109.1,0 109,0 108.9,0 108.8,0 108.7,0 108.6,0 108.4,0 108.1,0 107.9,0 107.9,0 107.7,0 107.6,0 107.3,0 107.2,0 107.2,0 
		107,0 107,0 106.8,0 106.3,0 106.2,0 106,0 105.9,0 105.8,0 105.6,0 105.6,0 105.4,0 105.3,0 105.3,0 105.2,0 105.1,0 104.9,0 
		104.8,0 104.6,0 104.4,0 104.4,0 104.2,0 104.2,0 104,0 103.7,0 103.6,0 103.6,0 103.5,0 103.4,0 103.3,0 102.8,0 102.6,0 102.5,0 
		102.4,0 102.2,0 102.1,0 102,0 101.8,0 101.8,0 101.6,0 101.6,0 101.6,0 101.4,0 101.4,0 101.2,0 100.9,0 100.9,0 100.8,0 100.7,0 
		100.6,0 100.4,0 100.2,0 100,0 100,0 99.9,0 99.8,0 99.7,0 99.2,0 99.1,0 98.9,0 98.8,0 98.6,0 98.4,0 98.3,0 98.2,0 98.2,0 
		98.1,0 98.1,0 97.9,0 97.9,0 97.7,0 97.4,0 97.4,0 97.4,0 97.2,0 97.2,0 97.1,0 96.9,0 96.6,0 96.5,0 96.4,0 96.3,0 96.3,0 96.1,0 
		95.6,0 95.5,0 95.4,0 95.3,0 95.1,0 94.9,0 94.7,0 94.6,0 94.6,0 94.6,0 94.4,0 94.4,0 94.3,0 94.1,0 93.9,0 93.9,0 93.9,0 93.7,0 
		93.7,0 93.7,0 93.5,0 93.5,0 93.2,0 92.9,0 92.8,0 92.7,0 92.7,0 92.6,0 92,0 91.9,0 91.9,0 91.8,0 91.8,0 91.7,0 91.4,0 91.1,0 
		91.1,0 91.1,0 90.9,0 90.9,0 90.9,0 90.7,0 90.7,0 90.4,0 90.4,0 90.2,0 90.2,0 90.1,0 90.1,0 90,0 90,0 89.9,0 89.9,0 89.7,0 
		89.5,0 89.3,0 89.2,0 89.1,0 89,0 88.5,0 88.3,0 88.3,0 88.3,0 88.2,0 88.1,0 88.1,0 87.9,0 87.7,0 87.6,0 87.5,0 87.4,0 87.4,0 
		87.4,0 87.2,0 87.2,0 87.2,0 86.9,0 86.7,0 86.7,0 86.7,0 86.6,0 86.5,0 86.5,0 86.4,0 86.4,0 86.4,0 86.3,0 86.1,0 86,0 85.8,0 
		85.7,0 85.5,0 85.3,0 84.9,0 84.8,0 84.8,0 84.7,0 84.6,0 84.6,0 84.6,0 84.4,0 84.4,0 84.1,0 84,0 83.9,0 83.9,0 83.9,0 83.7,0 
		83.7,0 83.6,0 83.6,0 83.4,0 83.2,0 83.2,0 83.2,0 83,0 83,0 83,0 82.9,0 82.9,0 82.8,0 82.7,0 82.6,0 82.5,0 82.4,0 82.2,0 
		82.1,0 82,0 81.8,0 81.3,0 81.2,0 81.2,0 81.1,0 81.1,0 81,0 81,0 80.9,0 80.9,0 80.6,0 80.4,0 80.4,0 80.4,0 80.2,0 80.2,0 
		80.2,0 80.1,0 80,0 79.7,0 79.6,0 79.6,0 79.5,0 79.5,0 79.4,0 79.3,0 79.3,0 79.2,0 79.2,0 79,0 79,0 78.8,0 78.7,0 78.6,0 
		78.5,0 78.4,0 78.3,0 77.8,0 77.6,0 77.6,0 77.6,0 77.5,0 77.4,0 77.4,0 77.4,0 77.2,0 77,0 76.9,0 76.9,0 76.7,0 76.7,0 76.7,0 
		76.5,0 76.5,0 76.2,0 76.2,0 76,0 75.9,0 75.9,0 75.8,0 75.8,0 75.7,0 75.7,0 75.6,0 75.5,0 75.4,0 75.2,0 75.1,0 75,0 75,0 
		74.8,0 74.8,0 74.6,0 74.4,0 74.1,0 74,0 73.9,0 73.9,0 73.9,0 73.7,0 73.7,0 73.5,0 73.4,0 73.2,0 73.1,0 73.1,0 73,0 73,0 
		72.9,0 72.7,0 72.7,0 72.5,0 72.5,0 72.3,0 72.3,0 72.2,0 72.2,0 72.1,0 72,0 71.9,0 71.7,0 71.6,0 71.5,0 71.5,0 71.3,0 71.3,0 
		71.1,0 71.1,0 70.8,0 70.8,0 70.7,0 70.6,0 70.4,0 70.3,0 70.2,0 70.2,0 69.9,0 69.9,0 69.7,0 69.7,0 69.5,0 69.5,0 69.4,0 69.3,0 
		69.1,0 69,0 68.9,0 68.8,0 68.8,0 68.7,0 68.7,0 68.5,0 68.5,0 68.3,0 68.3,0 68.1,0 68,0 68,0 67.9,0 67.9,0 67.8,0 67.6,0 
		67.5,0 67.3,0 67.3,0 67.1,0 67.1,0 67.1,0 67,0 66.9,0 66.6,0 66.4,0 66.2,0 66.2,0 66,0 66,0 65.9,0 65.8,0 65.6,0 65.5,0 
		65.4,0 65.3,0 65.3,0 65.2,0 65.2,0 65.1,0 65.1,0 65,0 64.8,0 64.8,0 64.5,0 64.5,0 64.3,0 64.3,0 64.3,0 64.1,0 64.1,0 64,0 
		63.8,0 63.7,0 63.6,0 63.6,0 63.5,0 63.4,0 63.4,0 63.4,0 63.2,0 62.8,0 62.6,0 62.5,0 62.4,0 62.3,0 62.2,0 62,0 62,0 61.8,0 
		61.8,0 61.7,0 61.7,0 61.6,0 61.6,0 61.5,0 61.4,0 61.4,0 61.3,0 61,0 60.9,0 60.8,0 60.8,0 60.8,0 60.6,0 60.6,0 60.6,0 60.4,0 
		60.1,0 60.1,0 60,0 60,0 59.9,0 59.9,0 59.8,0 59.8,0 59.7,0 59.2,0 59,0 58.9,0 58.8,0 58.6,0 58.5,0 58.4,0 58.3,0 58.2,0 
		58.1,0 58.1,0 58,0 58,0 58,0 57.8,0 57.8,0 57.8,0 57.6,0 57.4,0 57.4,0 57.3,0 57.3,0 57.2,0 57.1,0 57.1,0 57,0 56.9,0 56.6,0 
		56.6,0 56.4,0 56.4,0 56.4,0 56.3,0 56.3,0 56.2,0 56.1,0 55.7,0 55.5,0 55.3,0 55.2,0 55.1,0 54.9,0 54.7,0 54.6,0 54.6,0 54.6,0 
		54.5,0 54.5,0 54.4,0 54.3,0 54.3,0 54.3,0 54.1,0 53.8,0 53.8,0 53.8,0 53.6,0 53.6,0 53.6,0 53.5,0 53.4,0 53.3,0 53.1,0 52.9,0 
		52.9,0 52.8,0 52.7,0 52.7,0 52.7,0 52.5,0 52,0 51.9,0 51.8,0 51.8,0 51.5,0 51.3,0 51.1,0 51.1,0 51,0 51,0 50.9,0 50.9,0 
		50.8,0 50.8,0 50.7,0 50.6,0 50.3,0 50.3,0 50.1,0 50.1,0 50.1,0 49.9,0 49.9,0 49.9,0 49.6,0 49.3,0 49.2,0 49.2,0 49.1,0 49.1,0 
		49,0 48.4,0 48.3,0 48.3,0 48.2,0 48.1,0 47.8,0 47.5,0 47.5,0 47.3,0 47.3,0 47.3,0 47.1,0 47.1,0 47.1,0 46.9,0 46.7,0 46.6,0 
		46.6,0 46.4,0 46.4,0 46.4,0 46.3,0 46.1,0 45.9,0 45.7,0 45.6,0 45.5,0 45.4,0 44.9,0 44.7,0 44.7,0 44.6,0 44.5,0 44.4,0 44.1,0 
		43.9,0 43.8,0 43.8,0 43.6,0 43.6,0 43.6,0 43.3,0 43.1,0 43.1,0 42.9,0 42.9,0 42.8,0 42.8,0 42.7,0 42.6,0 42.4,0 42.2,0 42.1,0 
		41.9,0 41.8,0 41.3,0 41.2,0 41.1,0 41,0 41,0 40.8,0 40.6,0 40.4,0 40.4,0 40.2,0 40.1,0 40.1,0 39.8,0 39.6,0 39.6,0 39.4,0 
		39.4,0 39.4,0 39.2,0 39.2,0 39,0 38.9,0 38.8,0 38.6,0 38.5,0 38.4,0 38.2,0 37.7,0 37.6,0 37.6,0 37.4,0 37.4,0 37.3,0 37,0 
		36.8,0 36.8,0 36.6,0 36.6,0 36.4,0 36.2,0 36.1,0 35.9,0 35.9,0 35.7,0 35.7,0 35.6,0 35.4,0 35.4,0 35.2,0 35.1,0 35,0 34.8,0 
		34.7,0 34.2,0 34,0 34,0 33.9,0 33.8,0 33.7,0 33.4,0 33.3,0 33.1,0 33.1,0 32.9,0 32.6,0 32.4,0 32.3,0 32.2,0 32.1,0 32,0 
		31.9,0 31.9,0 31.7,0 31.5,0 31.4,0 31.2,0 31.1,0 30.8,0 30.5,0 30.3,0 30.3,0 30.1,0 29.9,0 29.7,0 29.6,0 29.4,0 29.1,0 28.9,0 
		28.7,0 28.7,0 28.5,0 28.3,0 28.1,0 28,0 27.9,0 27.7,0 27.5,0 27.2,0 27.1,0 26.7,0 26.6,0 26.3,0 26.1,0 25.9,0 25.4,0 25.2,0 
		25.2,0 24.9,0 24.7,0 24.5,0 24.4,0 24.3,0 24,0 23.7,0 23.5,0 23.3,0 22.6,0 22.4,0 21.7,0 21.6,0 21.5,0 21.2,0 20.9,0 20.7,0 
		20.6,0 20.1,0 20,0 19.8,0 18.9,0 18.2,0 18,0 17.8,0 17.3,0 17.2,0 17,0 16.5,0 16.4,0 16.2,0 14.5,0 14.4,0 14.2,0 13.8,0 
		13.6,0 13.5,0 13,0 12.8,0 12.6,0 11,0 10.8,0 10.7,0 10.2,0 10,0 9.8,0 9.3,0 9.1,0 7.5,0 7.3,0 7.1,0 6.5,0 6.3,0 5.5,0 3.7,0 
		3.5,0 2.8,0 0,0 0,180 2.8,180 3.5,180 3.7,180 5.5,180 6.3,180 6.5,180 7.1,180 7.3,180 7.5,180 9.1,180 9.3,180 9.8,180 10,180 
		10.2,180 10.7,180 10.8,180 11,180 12.6,180 12.8,180 13,180 13.5,180 13.6,180 13.8,180 14.2,180 14.4,180 14.5,180 16.2,180 
		16.4,180 16.5,180 17,180 17.2,180 17.3,180 17.8,180 18,180 18.2,180 18.9,180 19.8,180 20,180 20.1,180 20.6,180 20.7,180 
		20.9,180 21.2,180 21.5,180 21.6,180 21.7,180 22.4,180 22.6,180 23.3,180 23.5,180 23.7,180 24,180 24.3,180 24.4,180 24.5,180 
		24.7,180 24.9,180 25.2,180 25.2,180 25.4,180 25.9,180 26.1,180 26.3,180 26.6,180 26.7,180 27.1,180 27.2,180 27.5,180 27.7,180 
		27.9,180 28,180 28.1,180 28.3,180 28.5,180 28.7,180 28.7,180 28.9,180 29.1,180 29.4,180 29.6,180 29.7,180 29.9,180 30.1,180 
		30.3,180 30.3,180 30.5,180 30.8,180 31.1,180 31.2,180 31.4,180 31.5,180 31.7,180 31.9,180 31.9,180 32,180 32.1,180 32.2,180 
		32.3,180 32.4,180 32.6,180 32.9,180 33.1,180 33.1,180 33.3,180 33.4,180 33.7,180 33.8,180 33.9,180 34,180 34,180 34.2,180 
		34.7,180 34.8,180 35,180 35.1,180 35.2,180 35.4,180 35.4,180 35.6,180 35.7,180 35.7,180 35.9,180 35.9,180 36.1,180 36.2,180 
		36.4,180 36.6,180 36.6,180 36.8,180 36.8,180 37,180 37.3,180 37.4,180 37.4,180 37.6,180 37.6,180 37.7,180 38.2,180 38.4,180 
		38.5,180 38.6,180 38.8,180 38.9,180 39,180 39.2,180 39.2,180 39.4,180 39.4,180 39.4,180 39.6,180 39.6,180 39.8,180 40.1,180 
		40.1,180 40.2,180 40.4,180 40.4,180 40.6,180 40.8,180 41,180 41,180 41.1,180 41.2,180 41.3,180 41.8,180 41.9,180 42.1,180 
		42.2,180 42.4,180 42.6,180 42.7,180 42.8,180 42.8,180 42.9,180 42.9,180 43.1,180 43.1,180 43.3,180 43.6,180 43.6,180 43.6,180 
		43.8,180 43.8,180 43.9,180 44.1,180 44.4,180 44.5,180 44.6,180 44.7,180 44.7,180 44.9,180 45.4,180 45.5,180 45.6,180 45.7,180 
		45.9,180 46.1,180 46.3,180 46.4,180 46.4,180 46.4,180 46.6,180 46.6,180 46.7,180 46.9,180 47.1,180 47.1,180 47.1,180 47.3,180 
		47.3,180 47.3,180 47.5,180 47.5,180 47.8,180 48.1,180 48.2,180 48.3,180 48.3,180 48.4,180 49,180 49.1,180 49.1,180 49.2,180 
		49.2,180 49.3,180 49.6,180 49.9,180 49.9,180 49.9,180 50.1,180 50.1,180 50.1,180 50.3,180 50.3,180 50.6,180 50.7,180 50.8,180 
		50.8,180 50.9,180 50.9,180 51,180 51,180 51.1,180 51.1,180 51.3,180 51.5,180 51.8,180 51.8,180 51.9,180 52,180 52.5,180 
		52.7,180 52.7,180 52.7,180 52.8,180 52.9,180 52.9,180 53.1,180 53.3,180 53.4,180 53.5,180 53.6,180 53.6,180 53.6,180 53.8,180 
		53.8,180 53.8,180 54.1,180 54.3,180 54.3,180 54.3,180 54.4,180 54.5,180 54.5,180 54.6,180 54.6,180 54.6,180 54.7,180 54.9,180 
		55.1,180 55.2,180 55.3,180 55.5,180 55.7,180 56.1,180 56.2,180 56.3,180 56.3,180 56.4,180 56.4,180 56.4,180 56.6,180 56.6,180 
		56.9,180 57,180 57.1,180 57.1,180 57.2,180 57.3,180 57.3,180 57.4,180 57.4,180 57.6,180 57.8,180 57.8,180 57.8,180 58,180 
		58,180 58,180 58.1,180 58.1,180 58.2,180 58.3,180 58.4,180 58.5,180 58.6,180 58.8,180 58.9,180 59,180 59.2,180 59.7,180 
		59.8,180 59.8,180 59.9,180 59.9,180 60,180 60,180 60.1,180 60.1,180 60.4,180 60.6,180 60.6,180 60.6,180 60.8,180 60.8,180 
		60.8,180 60.9,180 61,180 61.3,180 61.4,180 61.4,180 61.5,180 61.6,180 61.6,180 61.7,180 61.7,180 61.8,180 61.8,180 62,180 
		62,180 62.2,180 62.3,180 62.4,180 62.5,180 62.6,180 62.8,180 63.2,180 63.4,180 63.4,180 63.4,180 63.5,180 63.6,180 63.6,180 
		63.7,180 63.8,180 64,180 64.1,180 64.1,180 64.3,180 64.3,180 64.3,180 64.5,180 64.5,180 64.8,180 64.8,180 65,180 65.1,180 
		65.1,180 65.2,180 65.2,180 65.3,180 65.3,180 65.4,180 65.5,180 65.6,180 65.8,180 65.9,180 66,180 66,180 66.2,180 66.2,180 
		66.4,180 66.6,180 66.9,180 67,180 67.1,180 67.1,180 67.1,180 67.3,180 67.3,180 67.5,180 67.6,180 67.8,180 67.9,180 67.9,180 
		68,180 68,180 68.1,180 68.3,180 68.3,180 68.5,180 68.5,180 68.7,180 68.7,180 68.8,180 68.8,180 68.9,180 69,180 69.1,180 
		69.3,180 69.4,180 69.5,180 69.5,180 69.7,180 69.7,180 69.9,180 69.9,180 70.2,180 70.2,180 70.3,180 70.4,180 70.6,180 70.7,180 
		70.8,180 70.8,180 71.1,180 71.1,180 71.3,180 71.3,180 71.5,180 71.5,180 71.6,180 71.7,180 71.9,180 72,180 72.1,180 72.2,180 
		72.2,180 72.3,180 72.3,180 72.5,180 72.5,180 72.7,180 72.7,180 72.9,180 73,180 73,180 73.1,180 73.1,180 73.2,180 73.4,180 
		73.5,180 73.7,180 73.7,180 73.9,180 73.9,180 73.9,180 74,180 74.1,180 74.4,180 74.6,180 74.8,180 74.8,180 75,180 75,180 
		75.1,180 75.2,180 75.4,180 75.5,180 75.6,180 75.7,180 75.7,180 75.8,180 75.8,180 75.9,180 75.9,180 76,180 76.2,180 76.2,180 
		76.5,180 76.5,180 76.7,180 76.7,180 76.7,180 76.9,180 76.9,180 77,180 77.2,180 77.4,180 77.4,180 77.4,180 77.5,180 77.6,180 
		77.6,180 77.6,180 77.8,180 78.3,180 78.4,180 78.5,180 78.6,180 78.7,180 78.8,180 79,180 79,180 79.2,180 79.2,180 79.3,180 
		79.3,180 79.4,180 79.5,180 79.5,180 79.6,180 79.6,180 79.7,180 80,180 80.1,180 80.2,180 80.2,180 80.2,180 80.4,180 80.4,180 
		80.4,180 80.6,180 80.9,180 80.9,180 81,180 81,180 81.1,180 81.1,180 81.2,180 81.2,180 81.3,180 81.8,180 82,180 82.1,180 
		82.2,180 82.4,180 82.5,180 82.6,180 82.7,180 82.8,180 82.9,180 82.9,180 83,180 83,180 83,180 83.2,180 83.2,180 83.2,180 
		83.4,180 83.6,180 83.6,180 83.7,180 83.7,180 83.9,180 83.9,180 83.9,180 84,180 84.1,180 84.4,180 84.4,180 84.6,180 84.6,180 
		84.6,180 84.7,180 84.8,180 84.8,180 84.9,180 85.3,180 85.5,180 85.7,180 85.8,180 86,180 86.1,180 86.3,180 86.4,180 86.4,180 
		86.4,180 86.5,180 86.5,180 86.6,180 86.7,180 86.7,180 86.7,180 86.9,180 87.2,180 87.2,180 87.2,180 87.4,180 87.4,180 87.4,180 
		87.5,180 87.6,180 87.7,180 87.9,180 88.1,180 88.1,180 88.2,180 88.3,180 88.3,180 88.3,180 88.5,180 89,180 89.1,180 89.2,180 
		89.3,180 89.5,180 89.7,180 89.9,180 89.9,180 90,180 90,180 90.1,180 90.1,180 90.2,180 90.2,180 90.4,180 90.4,180 90.7,180 
		90.7,180 90.9,180 90.9,180 90.9,180 91.1,180 91.1,180 91.1,180 91.4,180 91.7,180 91.8,180 91.8,180 91.9,180 91.9,180 92,180 
		92.6,180 92.7,180 92.7,180 92.8,180 92.9,180 93.2,180 93.5,180 93.5,180 93.7,180 93.7,180 93.7,180 93.9,180 93.9,180 93.9,180 
		94.1,180 94.3,180 94.4,180 94.4,180 94.6,180 94.6,180 94.6,180 94.7,180 94.9,180 95.1,180 95.3,180 95.4,180 95.5,180 95.6,180 
		96.1,180 96.3,180 96.3,180 96.4,180 96.5,180 96.6,180 96.9,180 97.1,180 97.2,180 97.2,180 97.4,180 97.4,180 97.4,180 97.7,180 
		97.9,180 97.9,180 98.1,180 98.1,180 98.2,180 98.2,180 98.3,180 98.4,180 98.6,180 98.8,180 98.9,180 99.1,180 99.2,180 99.7,180 
		99.8,180 99.9,180 100,180 100,180 100.2,180 100.4,180 100.6,180 100.7,180 100.8,180 100.9,180 100.9,180 101.2,180 101.4,180 
		101.4,180 101.6,180 101.6,180 101.6,180 101.8,180 101.8,180 102,180 102.1,180 102.2,180 102.4,180 102.5,180 102.6,180 
		102.8,180 103.3,180 103.4,180 103.5,180 103.6,180 103.6,180 103.7,180 104,180 104.2,180 104.2,180 104.4,180 104.4,180 
		104.6,180 104.8,180 104.9,180 105.1,180 105.2,180 105.3,180 105.3,180 105.4,180 105.6,180 105.6,180 105.8,180 105.9,180 
		106,180 106.2,180 106.3,180 106.8,180 107,180 107,180 107.2,180 107.2,180 107.3,180 107.6,180 107.7,180 107.9,180 107.9,180 
		108.1,180 108.4,180 108.6,180 108.7,180 108.8,180 108.9,180 109,180 109.1,180 109.1,180 109.3,180 109.5,180 109.6,180 
		109.8,180 110,180 110.2,180 110.5,180 110.7,180 110.7,180 110.9,180 111.1,180 111.3,180 111.4,180 111.7,180 111.9,180 
		112.1,180 112.3,180 112.3,180 112.5,180 112.7,180 112.9,180 113,180 113.1,180 113.3,180 113.5,180 113.8,180 114,180 114.3,180 
		114.4,180 114.7,180 114.9,180 115.1,180 115.6,180 115.8,180 115.8,180 116.1,180 116.3,180 116.5,180 116.6,180 116.7,180 
		117,180 117.3,180 117.5,180 117.7,180 118.4,180 118.6,180 119.3,180 119.4,180 119.5,180 119.8,180 120.1,180 120.3,180 
		120.5,180 120.9,180 121,180 121.2,180 122.1,180 122.8,180 123,180 123.2,180 123.7,180 123.8,180 124,180 124.5,180 124.7,180 
		124.8,180 126.5,180 126.6,180 126.8,180 127.2,180 127.4,180 127.5,180 128,180 128.2,180 128.4,180 130,180 130.2,180 130.3,180 
		130.8,180 131,180 131.2,180 131.7,180 131.9,180 133.5,180 133.7,180 133.9,180 134.5,180 134.7,180 135.5,180 137.3,180 
		137.5,180 138.2,180 141,180 141,0 	"/>
</g>
<g id="figure">
	<g>
		<path d="M45.7,114.4c0,0.6,0,1.1-0.1,1.5c0,0.4-0.1,0.8-0.2,1.1s-0.2,0.5-0.3,0.8c-0.1,0.2-0.4,0.5-0.8,1s-1.1,0.9-2.1,1.6
			c-1,0.6-2.1,1.2-3.4,1.7c-1.3,0.5-2.6,0.9-4.1,1.2c-1.5,0.3-3,0.5-4.6,0.5c-3.3,0-6.1-0.5-8.7-1.6c-2.5-1.1-4.6-2.6-6.3-4.7
			c-1.7-2.1-3-4.6-3.9-7.6c-0.9-3-1.3-6.5-1.3-10.4c0-4.5,0.5-8.3,1.6-11.5c1.1-3.2,2.6-5.8,4.5-7.9c1.9-2,4.1-3.6,6.7-4.6
			c2.6-1,5.3-1.5,8.3-1.5c1.4,0,2.8,0.1,4.2,0.4c1.4,0.3,2.6,0.6,3.7,1.1c1.1,0.4,2.2,0.9,3,1.5c0.9,0.6,1.5,1.1,1.9,1.5
			s0.7,0.7,0.8,1c0.2,0.2,0.3,0.5,0.4,0.8c0.1,0.3,0.2,0.7,0.2,1.1s0.1,0.9,0.1,1.5c0,1.3-0.2,2.2-0.5,2.7c-0.3,0.5-0.7,0.8-1.1,0.8
			c-0.5,0-1.1-0.3-1.7-0.8c-0.7-0.6-1.5-1.2-2.5-1.8c-1-0.7-2.2-1.3-3.6-1.8c-1.4-0.6-3.1-0.8-5.1-0.8c-4,0-7,1.5-9.2,4.6
			c-2.1,3.1-3.2,7.5-3.2,13.4c0,2.9,0.3,5.5,0.8,7.7c0.6,2.2,1.4,4,2.4,5.5s2.4,2.6,3.9,3.3c1.6,0.7,3.3,1.1,5.4,1.1
			c1.9,0,3.6-0.3,5-0.9c1.4-0.6,2.7-1.3,3.7-2c1.1-0.7,1.9-1.4,2.7-2c0.7-0.6,1.3-0.9,1.7-0.9c0.2,0,0.4,0.1,0.6,0.2
			c0.2,0.1,0.3,0.4,0.4,0.7c0.1,0.3,0.2,0.7,0.3,1.2C45.7,113.2,45.7,113.8,45.7,114.4z"/>
		<path d="M93.9,121.3c0,0.3-0.1,0.5-0.2,0.7c-0.1,0.2-0.4,0.4-0.7,0.5c-0.3,0.1-0.8,0.2-1.3,0.3c-0.6,0.1-1.3,0.1-2.2,0.1
			c-0.9,0-1.7,0-2.2-0.1c-0.6-0.1-1.1-0.1-1.5-0.3s-0.7-0.3-1-0.5c-0.3-0.2-0.5-0.5-0.7-0.8L65,96.2v25.1c0,0.3-0.1,0.5-0.2,0.7
			c-0.1,0.2-0.4,0.3-0.7,0.5c-0.3,0.1-0.7,0.2-1.3,0.3c-0.5,0.1-1.2,0.1-2.1,0.1c-0.8,0-1.5,0-2-0.1c-0.5-0.1-1-0.2-1.3-0.3
			s-0.5-0.3-0.7-0.5c-0.1-0.2-0.2-0.4-0.2-0.7V54.1c0-0.3,0.1-0.5,0.2-0.7c0.1-0.2,0.3-0.4,0.7-0.5c0.3-0.1,0.7-0.2,1.3-0.3
			c0.5-0.1,1.2-0.1,2-0.1c0.8,0,1.5,0,2.1,0.1c0.5,0.1,1,0.2,1.3,0.3c0.3,0.1,0.5,0.3,0.7,0.5c0.1,0.2,0.2,0.4,0.2,0.7v40.9
			l17.1-18.8c0.3-0.3,0.6-0.6,0.9-0.8c0.3-0.2,0.7-0.4,1.1-0.6c0.4-0.2,0.9-0.3,1.5-0.3c0.6,0,1.3-0.1,2.1-0.1c0.8,0,1.5,0,2.1,0.1
			c0.6,0.1,1,0.1,1.4,0.3c0.4,0.1,0.6,0.3,0.8,0.5c0.2,0.2,0.2,0.4,0.2,0.7c0,0.4-0.1,0.8-0.3,1.2s-0.6,0.9-1.1,1.4L74.3,95
			l18.4,23.9c0.4,0.6,0.7,1,0.9,1.4C93.8,120.6,93.9,121,93.9,121.3z"/>
		<path d="M131,109c0,2.3-0.4,4.4-1.3,6.2c-0.9,1.8-2.1,3.3-3.6,4.6c-1.6,1.2-3.5,2.2-5.6,2.8c-2.2,0.6-4.6,1-7.2,1
			c-1.6,0-3.1-0.1-4.6-0.4c-1.5-0.3-2.8-0.6-3.9-1c-1.2-0.4-2.1-0.8-2.9-1.2s-1.4-0.8-1.8-1.1c-0.4-0.3-0.6-0.8-0.8-1.4
			c-0.2-0.6-0.3-1.4-0.3-2.5c0-0.6,0-1.2,0.1-1.6s0.2-0.8,0.3-1.1c0.1-0.3,0.2-0.5,0.4-0.6c0.2-0.1,0.4-0.2,0.6-0.2
			c0.4,0,0.9,0.2,1.6,0.7c0.7,0.5,1.6,0.9,2.7,1.5c1.1,0.5,2.3,1,3.7,1.5c1.4,0.5,3.1,0.7,5,0.7c1.4,0,2.7-0.2,3.8-0.5
			c1.1-0.3,2.1-0.7,3-1.3c0.8-0.6,1.5-1.3,1.9-2.2c0.5-0.9,0.7-2,0.7-3.2c0-1.3-0.3-2.3-1-3.2c-0.7-0.9-1.5-1.6-2.6-2.3
			c-1.1-0.7-2.3-1.3-3.6-1.8c-1.3-0.5-2.7-1.1-4.1-1.6c-1.4-0.6-2.8-1.2-4.2-1.9c-1.4-0.7-2.6-1.6-3.6-2.6c-1.1-1-1.9-2.3-2.6-3.7
			c-0.7-1.4-1-3.2-1-5.2c0-1.8,0.3-3.5,1-5.1c0.7-1.6,1.7-3.1,3.1-4.3c1.4-1.2,3.1-2.2,5.2-2.9c2.1-0.7,4.5-1.1,7.2-1.1
			c1.2,0,2.4,0.1,3.6,0.3s2.3,0.5,3.3,0.8c1,0.3,1.8,0.6,2.5,1c0.7,0.4,1.2,0.7,1.6,0.9c0.4,0.3,0.6,0.5,0.7,0.7
			c0.1,0.2,0.2,0.4,0.3,0.7c0.1,0.3,0.1,0.6,0.2,0.9c0,0.4,0.1,0.8,0.1,1.4c0,0.6,0,1.1-0.1,1.5c-0.1,0.4-0.1,0.8-0.3,1
			c-0.1,0.3-0.3,0.5-0.4,0.6c-0.2,0.1-0.4,0.2-0.6,0.2c-0.3,0-0.7-0.2-1.3-0.6c-0.6-0.4-1.3-0.8-2.2-1.2c-0.9-0.4-2-0.8-3.2-1.2
			c-1.2-0.4-2.6-0.6-4.2-0.6c-1.4,0-2.6,0.2-3.7,0.5c-1.1,0.3-2,0.8-2.6,1.4c-0.7,0.6-1.2,1.3-1.6,2.1c-0.4,0.8-0.5,1.7-0.5,2.6
			c0,1.3,0.3,2.4,1,3.3c0.7,0.9,1.5,1.7,2.6,2.3c1.1,0.7,2.3,1.3,3.7,1.8c1.4,0.5,2.8,1.1,4.2,1.7c1.4,0.6,2.8,1.2,4.2,1.9
			s2.6,1.6,3.7,2.6s1.9,2.2,2.6,3.6C130.7,105.4,131,107,131,109z"/>
	</g>
</g>
</svg>
