<?xml version="1.0" encoding="utf-8"?>
<!-- Generator: Adobe Illustrator 22.1.0, SVG Export Plug-In . SVG Version: 6.00 Build 0)  -->
<svg version="1.1" xmlns="http://www.w3.org/2000/svg" xmlns:xlink="http://www.w3.org/1999/xlink" x="0px" y="0px"
	 viewBox="0 0 167.2 180" style="enable-background:new 0 0 167.2 180;" xml:space="preserve">
<style type="text/css">
	.st0{display:none;}
	.st1{display:inline;fill:#FF0000;}
</style>
<g id="bg" class="st0">
	<polygon class="st1" points="163.9,0 163,0 162.8,0 160.6,0 159.7,0 159.5,0 158.8,0 158.6,0 158.4,0 156.4,0 156.2,0 155.5,0 
		155.3,0 155.1,0 154.5,0 154.4,0 154.2,0 152.2,0 152,0 151.8,0 151.2,0 151.1,0 150.9,0 150.3,0 150.1,0 150,0 147.9,0 147.8,0 
		147.6,0 147,0 146.8,0 146.7,0 146.1,0 145.9,0 145.7,0 144.8,0 143.7,0 143.5,0 143.4,0 142.8,0 142.6,0 142.4,0 142.1,0 141.7,0 
		141.6,0 141.5,0 140.6,0 140.4,0 139.5,0 139.3,0 139.1,0 138.8,0 138.4,0 138.3,0 138.2,0 137.9,0 137.6,0 137.4,0 137.3,0 
		137.1,0 136.4,0 136.2,0 136,0 135.7,0 135.5,0 135.1,0 134.9,0 134.6,0 134.4,0 134.1,0 134,0 133.8,0 133.7,0 133.4,0 133.2,0 
		133.2,0 132.9,0 132.7,0 132.4,0 132.1,0 132,0 131.8,0 131.5,0 131.3,0 131.3,0 131.1,0 130.7,0 130.4,0 130.2,0 129.9,0 129.9,0 
		129.6,0 129.4,0 129.4,0 129.2,0 129.1,0 129,0 128.9,0 128.7,0 128.5,0 128.2,0 128,0 127.9,0 127.7,0 127.6,0 127.3,0 127.1,0 
		127.1,0 126.9,0 126.8,0 126.6,0 126.1,0 126,0 125.7,0 125.6,0 125.5,0 125.2,0 125.2,0 124.9,0 124.9,0 124.8,0 124.7,0 124.7,0 
		124.4,0 124.3,0 124,0 123.8,0 123.8,0 123.6,0 123.5,0 123.3,0 123,0 122.9,0 122.8,0 122.7,0 122.6,0 122.5,0 121.9,0 121.7,0 
		121.5,0 121.4,0 121.2,0 121,0 121,0 120.8,0 120.7,0 120.5,0 120.5,0 120.5,0 120.3,0 120.2,0 120,0 119.7,0 119.7,0 119.6,0 
		119.4,0 119.3,0 119.1,0 118.8,0 118.6,0 118.6,0 118.4,0 118.4,0 118.3,0 117.7,0 117.5,0 117.2,0 117.2,0 117,0 116.7,0 116.6,0 
		116.4,0 116.4,0 116.3,0 116.3,0 116.1,0 116,0 115.8,0 115.5,0 115.5,0 115.5,0 115.3,0 115.3,0 115.2,0 114.9,0 114.6,0 114.4,0 
		114.4,0 114.2,0 114.1,0 114,0 113.3,0 113.3,0 113.1,0 113,0 112.8,0 112.5,0 112.2,0 112.2,0 112.2,0 112.1,0 112,0 112,0 
		111.9,0 111.6,0 111.3,0 111.3,0 111.3,0 111.1,0 111.1,0 111.1,0 110.9,0 110.9,0 110.5,0 110.2,0 110,0 110,0 109.9,0 109.8,0 
		109.1,0 109,0 108.9,0 108.9,0 108.8,0 108.7,0 108.3,0 108.1,0 108,0 108,0 107.8,0 107.8,0 107.8,0 107.6,0 107.6,0 107.3,0 
		107.1,0 107,0 106.9,0 106.9,0 106.9,0 106.7,0 106.7,0 106.7,0 106.7,0 106.3,0 106.1,0 105.8,0 105.8,0 105.6,0 105.6,0 104.9,0 
		104.8,0 104.7,0 104.7,0 104.5,0 104.5,0 104.5,0 104.3,0 104,0 103.9,0 103.7,0 103.6,0 103.6,0 103.6,0 103.4,0 103.4,0 103.4,0 
		103.1,0 102.8,0 102.8,0 102.8,0 102.7,0 102.6,0 102.5,0 102.5,0 102.5,0 102.5,0 102.3,0 102.1,0 101.9,0 101.7,0 101.6,0 
		101.4,0 101.2,0 100.6,0 100.6,0 100.5,0 100.4,0 100.3,0 100.3,0 100.3,0 100.1,0 100.1,0 99.8,0 99.6,0 99.5,0 99.5,0 99.4,0 
		99.3,0 99.2,0 99.2,0 99.2,0 98.9,0 98.6,0 98.6,0 98.6,0 98.4,0 98.4,0 98.4,0 98.4,0 98.3,0 98.2,0 98.1,0 97.9,0 97.8,0 97.7,0 
		97.5,0 97.3,0 97.2,0 97,0 96.4,0 96.3,0 96.2,0 96.2,0 96.1,0 96.1,0 96,0 95.9,0 95.9,0 95.6,0 95.4,0 95.4,0 95.3,0 95.1,0 
		95.1,0 95.1,0 95,0 94.9,0 94.6,0 94.4,0 94.4,0 94.2,0 94.2,0 94.2,0 94.1,0 94,0 94,0 93.9,0 93.7,0 93.7,0 93.4,0 93.3,0 
		93.2,0 93.1,0 92.9,0 92.8,0 92.2,0 92.1,0 92,0 92,0 91.8,0 91.8,0 91.8,0 91.7,0 91.6,0 91.3,0 91.2,0 91.2,0 90.9,0 90.9,0 
		90.9,0 90.7,0 90.7,0 90.4,0 90.4,0 90.1,0 90,0 90,0 89.9,0 89.9,0 89.8,0 89.8,0 89.6,0 89.5,0 89.5,0 89.2,0 89,0 89,0 88.9,0 
		88.7,0 88.7,0 88.5,0 88.2,0 87.9,0 87.8,0 87.7,0 87.6,0 87.6,0 87.4,0 87.4,0 87.1,0 87.1,0 86.9,0 86.7,0 86.7,0 86.6,0 86.5,0 
		86.5,0 86.2,0 86.2,0 86,0 85.9,0 85.7,0 85.7,0 85.7,0 85.6,0 85.5,0 85.4,0 85.2,0 85,0 84.9,0 84.8,0 84.8,0 84.5,0 84.5,0 
		84.3,0 84.3,0 84,0 84,0 83.8,0 83.8,0 83.5,0 83.4,0 83.2,0 83.2,0 82.9,0 82.9,0 82.7,0 82.7,0 82.4,0 82.4,0 82.3,0 82.2,0 
		82,0 81.8,0 81.7,0 81.6,0 81.5,0 81.5,0 81.5,0 81.3,0 81.2,0 81,0 81,0 80.7,0 80.7,0 80.6,0 80.5,0 80.5,0 80.4,0 80.1,0 
		80.1,0 79.8,0 79.8,0 79.6,0 79.6,0 79.6,0 79.4,0 79.3,0 79,0 78.7,0 78.5,0 78.5,0 78.3,0 78.2,0 78.2,0 78,0 77.8,0 77.7,0 
		77.6,0 77.4,0 77.4,0 77.4,0 77.3,0 77.2,0 77.2,0 77.1,0 76.8,0 76.8,0 76.5,0 76.5,0 76.3,0 76.3,0 76.3,0 76.1,0 76,0 75.9,0 
		75.6,0 75.5,0 75.4,0 75.4,0 75.4,0 75.2,0 75.2,0 75.1,0 75,0 74.4,0 74.3,0 74.1,0 74,0 73.9,0 73.8,0 73.6,0 73.5,0 73.3,0 
		73.2,0 73.2,0 73.2,0 73,0 73,0 73,0 72.8,0 72.8,0 72.6,0 72.3,0 72.2,0 72.1,0 72.1,0 72.1,0 71.9,0 71.9,0 71.8,0 71.6,0 
		71.3,0 71.3,0 71.2,0 71.1,0 71.1,0 71,0 71,0 70.9,0 70.8,0 70.2,0 70,0 69.9,0 69.7,0 69.5,0 69.4,0 69.3,0 69.1,0 69,0 68.9,0 
		68.9,0 68.8,0 68.8,0 68.8,0 68.6,0 68.6,0 68.6,0 68.3,0 68,0 68,0 68,0 67.9,0 67.8,0 67.7,0 67.7,0 67.6,0 67.4,0 67.1,0 
		67.1,0 66.9,0 66.9,0 66.9,0 66.8,0 66.7,0 66.6,0 66.6,0 66,0 65.8,0 65.6,0 65.5,0 65.3,0 65.1,0 64.9,0 64.7,0 64.7,0 64.7,0 
		64.7,0 64.6,0 64.5,0 64.4,0 64.4,0 64.4,0 64.1,0 63.8,0 63.8,0 63.8,0 63.6,0 63.6,0 63.6,0 63.5,0 63.4,0 63.2,0 62.9,0 62.7,0 
		62.7,0 62.7,0 62.5,0 62.5,0 62.4,0 62.3,0 61.6,0 61.6,0 61.5,0 61.4,0 61.1,0 60.9,0 60.6,0 60.5,0 60.5,0 60.5,0 60.3,0 60.3,0 
		60.3,0 60.2,0 60.1,0 59.9,0 59.6,0 59.6,0 59.4,0 59.4,0 59.4,0 59.2,0 59.2,0 59.2,0 58.9,0 58.5,0 58.4,0 58.3,0 58.3,0 58.2,0 
		58.1,0 57.4,0 57.3,0 57.2,0 57.2,0 57,0 56.7,0 56.4,0 56.3,0 56.1,0 56.1,0 56.1,0 55.9,0 55.9,0 55.9,0 55.6,0 55.3,0 55.2,0 
		55.2,0 55.1,0 55,0 55,0 55,0 54.7,0 54.4,0 54.2,0 54.1,0 53.9,0 53.9,0 53.3,0 53.1,0 53,0 52.8,0 52.8,0 52.6,0 52.3,0 52,0 
		51.9,0 51.9,0 51.7,0 51.7,0 51.7,0 51.4,0 51.2,0 51.1,0 50.9,0 50.9,0 50.8,0 50.8,0 50.7,0 50.5,0 50.3,0 50,0 50,0 49.7,0 
		49.5,0 49,0 48.8,0 48.8,0 48.6,0 48.6,0 48.4,0 48.1,0 47.9,0 47.8,0 47.6,0 47.5,0 47.5,0 47.2,0 47,0 46.9,0 46.7,0 46.7,0 
		46.7,0 46.5,0 46.5,0 46.2,0 46.2,0 46.1,0 45.8,0 45.7,0 45.5,0 45.3,0 44.8,0 44.6,0 44.5,0 44.4,0 44.3,0 44.2,0 43.9,0 43.7,0 
		43.7,0 43.5,0 43.4,0 43.2,0 42.9,0 42.8,0 42.5,0 42.5,0 42.4,0 42.3,0 42.3,0 42,0 42,0 41.8,0 41.6,0 41.5,0 41.2,0 41.1,0 
		40.6,0 40.4,0 40.3,0 40.1,0 40.1,0 39.9,0 39.6,0 39.5,0 39.3,0 39.2,0 39,0 38.7,0 38.5,0 38.3,0 38.2,0 38.1,0 38,0 37.8,0 
		37.8,0 37.6,0 37.3,0 37.3,0 37,0 36.8,0 36.5,0 36.1,0 35.9,0 35.9,0 35.7,0 35.4,0 35.2,0 35.1,0 34.8,0 34.5,0 34.3,0 34,0 
		34,0 33.8,0 33.5,0 33.4,0 33.2,0 33.1,0 32.8,0 32.6,0 32.3,0 32.1,0 31.7,0 31.5,0 31.2,0 31,0 30.8,0 30.1,0 29.9,0 29.9,0 
		29.6,0 29.3,0 29,0 28.9,0 28.8,0 28.4,0 28.1,0 27.9,0 27.7,0 26.8,0 26.6,0 25.7,0 25.7,0 25.5,0 25.1,0 24.8,0 24.6,0 24.4,0 
		23.8,0 23.7,0 23.5,0 22.4,0 21.5,0 21.3,0 21.1,0 20.5,0 20.4,0 20.2,0 19.6,0 19.4,0 19.3,0 17.2,0 17.1,0 16.9,0 16.3,0 16.1,0 
		16,0 15.4,0 15.2,0 15,0 13,0 12.8,0 12.7,0 12.1,0 11.9,0 11.7,0 11,0 10.8,0 8.8,0 8.6,0 8.4,0 7.7,0 7.5,0 6.6,0 4.4,0 4.2,0 
		3.3,0 0,0 0,180 3.3,180 4.2,180 4.4,180 6.6,180 7.5,180 7.7,180 8.4,180 8.6,180 8.8,180 10.8,180 11,180 11.7,180 11.9,180 
		12.1,180 12.7,180 12.8,180 13,180 15,180 15.2,180 15.4,180 16,180 16.1,180 16.3,180 16.9,180 17.1,180 17.2,180 19.3,180 
		19.4,180 19.6,180 20.2,180 20.4,180 20.5,180 21.1,180 21.3,180 21.5,180 22.4,180 23.5,180 23.7,180 23.8,180 24.4,180 24.6,180 
		24.8,180 25.1,180 25.5,180 25.7,180 25.7,180 26.6,180 26.8,180 27.7,180 27.9,180 28.1,180 28.4,180 28.8,180 28.9,180 29,180 
		29.3,180 29.6,180 29.9,180 29.9,180 30.1,180 30.8,180 31,180 31.2,180 31.5,180 31.7,180 32.1,180 32.3,180 32.6,180 32.8,180 
		33.1,180 33.2,180 33.4,180 33.5,180 33.8,180 34,180 34,180 34.3,180 34.5,180 34.8,180 35.1,180 35.2,180 35.4,180 35.7,180 
		35.9,180 35.9,180 36.1,180 36.5,180 36.8,180 37,180 37.3,180 37.3,180 37.6,180 37.8,180 37.8,180 38,180 38.1,180 38.2,180 
		38.3,180 38.5,180 38.7,180 39,180 39.2,180 39.3,180 39.5,180 39.6,180 39.9,180 40.1,180 40.1,180 40.3,180 40.4,180 40.6,180 
		41.1,180 41.2,180 41.5,180 41.6,180 41.8,180 42,180 42,180 42.3,180 42.3,180 42.4,180 42.5,180 42.5,180 42.8,180 42.9,180 
		43.2,180 43.4,180 43.5,180 43.7,180 43.7,180 43.9,180 44.2,180 44.3,180 44.4,180 44.5,180 44.6,180 44.8,180 45.3,180 45.5,180 
		45.7,180 45.8,180 46.1,180 46.2,180 46.2,180 46.5,180 46.5,180 46.7,180 46.7,180 46.7,180 46.9,180 47,180 47.2,180 47.5,180 
		47.5,180 47.6,180 47.8,180 47.9,180 48.1,180 48.4,180 48.6,180 48.6,180 48.8,180 48.8,180 49,180 49.5,180 49.7,180 50,180 
		50,180 50.3,180 50.5,180 50.7,180 50.8,180 50.8,180 50.9,180 50.9,180 51.1,180 51.2,180 51.4,180 51.7,180 51.7,180 51.7,180 
		51.9,180 51.9,180 52,180 52.3,180 52.6,180 52.8,180 52.8,180 53,180 53.1,180 53.3,180 53.9,180 53.9,180 54.1,180 54.2,180 
		54.4,180 54.7,180 55,180 55,180 55,180 55.1,180 55.2,180 55.2,180 55.3,180 55.6,180 55.9,180 55.9,180 55.9,180 56.1,180 
		56.1,180 56.1,180 56.3,180 56.4,180 56.7,180 57,180 57.2,180 57.2,180 57.3,180 57.4,180 58.1,180 58.2,180 58.3,180 58.3,180 
		58.4,180 58.5,180 58.9,180 59.2,180 59.2,180 59.2,180 59.4,180 59.4,180 59.4,180 59.6,180 59.6,180 59.9,180 60.1,180 60.2,180 
		60.3,180 60.3,180 60.3,180 60.5,180 60.5,180 60.5,180 60.6,180 60.9,180 61.1,180 61.4,180 61.5,180 61.6,180 61.6,180 62.3,180 
		62.4,180 62.5,180 62.5,180 62.7,180 62.7,180 62.7,180 62.9,180 63.2,180 63.4,180 63.5,180 63.6,180 63.6,180 63.6,180 63.8,180 
		63.8,180 63.8,180 64.1,180 64.4,180 64.4,180 64.4,180 64.5,180 64.6,180 64.7,180 64.7,180 64.7,180 64.7,180 64.9,180 65.1,180 
		65.3,180 65.5,180 65.6,180 65.8,180 66,180 66.6,180 66.6,180 66.7,180 66.8,180 66.9,180 66.9,180 66.9,180 67.1,180 67.1,180 
		67.4,180 67.6,180 67.7,180 67.7,180 67.8,180 67.9,180 68,180 68,180 68,180 68.3,180 68.6,180 68.6,180 68.6,180 68.8,180 
		68.8,180 68.8,180 68.9,180 68.9,180 69,180 69.1,180 69.3,180 69.4,180 69.5,180 69.7,180 69.9,180 70,180 70.2,180 70.8,180 
		70.9,180 71,180 71,180 71.1,180 71.1,180 71.2,180 71.3,180 71.3,180 71.6,180 71.8,180 71.9,180 71.9,180 72.1,180 72.1,180 
		72.1,180 72.2,180 72.3,180 72.6,180 72.8,180 72.8,180 73,180 73,180 73,180 73.2,180 73.2,180 73.2,180 73.3,180 73.5,180 
		73.6,180 73.8,180 73.9,180 74,180 74.1,180 74.3,180 74.4,180 75,180 75.1,180 75.2,180 75.2,180 75.4,180 75.4,180 75.4,180 
		75.5,180 75.6,180 75.9,180 76,180 76.1,180 76.3,180 76.3,180 76.3,180 76.5,180 76.5,180 76.8,180 76.8,180 77.1,180 77.2,180 
		77.2,180 77.3,180 77.4,180 77.4,180 77.4,180 77.6,180 77.7,180 77.8,180 78,180 78.2,180 78.2,180 78.3,180 78.5,180 78.5,180 
		78.7,180 79,180 79.3,180 79.4,180 79.6,180 79.6,180 79.6,180 79.8,180 79.8,180 80.1,180 80.1,180 80.4,180 80.5,180 80.5,180 
		80.6,180 80.7,180 80.7,180 81,180 81,180 81.2,180 81.3,180 81.5,180 81.5,180 81.5,180 81.6,180 81.7,180 81.8,180 82,180 
		82.2,180 82.3,180 82.4,180 82.4,180 82.7,180 82.7,180 82.9,180 82.9,180 83.2,180 83.2,180 83.4,180 83.5,180 83.8,180 83.8,180 
		84,180 84,180 84.3,180 84.3,180 84.5,180 84.5,180 84.8,180 84.8,180 84.9,180 85,180 85.2,180 85.4,180 85.5,180 85.6,180 
		85.7,180 85.7,180 85.7,180 85.9,180 86,180 86.2,180 86.2,180 86.5,180 86.5,180 86.6,180 86.7,180 86.7,180 86.9,180 87.1,180 
		87.1,180 87.4,180 87.4,180 87.6,180 87.6,180 87.7,180 87.8,180 87.9,180 88.2,180 88.5,180 88.7,180 88.7,180 88.9,180 89,180 
		89,180 89.2,180 89.5,180 89.5,180 89.6,180 89.8,180 89.8,180 89.9,180 89.9,180 90,180 90,180 90.1,180 90.4,180 90.4,180 
		90.7,180 90.7,180 90.9,180 90.9,180 90.9,180 91.2,180 91.2,180 91.3,180 91.6,180 91.7,180 91.8,180 91.8,180 91.8,180 92,180 
		92,180 92.1,180 92.2,180 92.8,180 92.9,180 93.1,180 93.2,180 93.3,180 93.4,180 93.7,180 93.7,180 93.9,180 94,180 94,180 
		94.1,180 94.2,180 94.2,180 94.2,180 94.4,180 94.4,180 94.6,180 94.9,180 95,180 95.1,180 95.1,180 95.1,180 95.3,180 95.4,180 
		95.4,180 95.6,180 95.9,180 95.9,180 96,180 96.1,180 96.1,180 96.2,180 96.2,180 96.3,180 96.4,180 97,180 97.2,180 97.3,180 
		97.5,180 97.7,180 97.8,180 97.9,180 98.1,180 98.2,180 98.3,180 98.4,180 98.4,180 98.4,180 98.4,180 98.6,180 98.6,180 98.6,180 
		98.9,180 99.2,180 99.2,180 99.2,180 99.3,180 99.4,180 99.5,180 99.5,180 99.6,180 99.8,180 100.1,180 100.1,180 100.3,180 
		100.3,180 100.3,180 100.4,180 100.5,180 100.6,180 100.6,180 101.2,180 101.4,180 101.6,180 101.7,180 101.9,180 102.1,180 
		102.3,180 102.5,180 102.5,180 102.5,180 102.5,180 102.6,180 102.7,180 102.8,180 102.8,180 102.8,180 103.1,180 103.4,180 
		103.4,180 103.4,180 103.6,180 103.6,180 103.6,180 103.7,180 103.9,180 104,180 104.3,180 104.5,180 104.5,180 104.5,180 
		104.7,180 104.7,180 104.8,180 104.9,180 105.6,180 105.6,180 105.8,180 105.8,180 106.1,180 106.3,180 106.7,180 106.7,180 
		106.7,180 106.7,180 106.9,180 106.9,180 106.9,180 107,180 107.1,180 107.3,180 107.6,180 107.6,180 107.8,180 107.8,180 
		107.8,180 108,180 108,180 108.1,180 108.3,180 108.7,180 108.8,180 108.9,180 108.9,180 109,180 109.1,180 109.8,180 109.9,180 
		110,180 110,180 110.2,180 110.5,180 110.9,180 110.9,180 111.1,180 111.1,180 111.1,180 111.3,180 111.3,180 111.3,180 111.6,180 
		111.9,180 112,180 112,180 112.1,180 112.2,180 112.2,180 112.2,180 112.5,180 112.8,180 113,180 113.1,180 113.3,180 113.3,180 
		114,180 114.1,180 114.2,180 114.4,180 114.4,180 114.6,180 114.9,180 115.2,180 115.3,180 115.3,180 115.5,180 115.5,180 
		115.5,180 115.8,180 116,180 116.1,180 116.3,180 116.3,180 116.4,180 116.4,180 116.6,180 116.7,180 117,180 117.2,180 117.2,180 
		117.5,180 117.7,180 118.3,180 118.4,180 118.4,180 118.6,180 118.6,180 118.8,180 119.1,180 119.3,180 119.4,180 119.6,180 
		119.7,180 119.7,180 120,180 120.2,180 120.3,180 120.5,180 120.5,180 120.5,180 120.7,180 120.8,180 121,180 121,180 121.2,180 
		121.4,180 121.5,180 121.7,180 121.9,180 122.5,180 122.6,180 122.7,180 122.8,180 122.9,180 123,180 123.3,180 123.5,180 
		123.6,180 123.8,180 123.8,180 124,180 124.3,180 124.4,180 124.7,180 124.7,180 124.8,180 124.9,180 124.9,180 125.2,180 
		125.2,180 125.5,180 125.6,180 125.7,180 126,180 126.1,180 126.6,180 126.8,180 126.9,180 127.1,180 127.1,180 127.3,180 
		127.6,180 127.7,180 127.9,180 128,180 128.2,180 128.5,180 128.7,180 128.9,180 129,180 129.1,180 129.2,180 129.4,180 129.4,180 
		129.6,180 129.9,180 129.9,180 130.2,180 130.4,180 130.7,180 131.1,180 131.3,180 131.3,180 131.5,180 131.8,180 132,180 
		132.1,180 132.4,180 132.7,180 132.9,180 133.2,180 133.2,180 133.4,180 133.7,180 133.8,180 134,180 134.1,180 134.4,180 
		134.6,180 134.9,180 135.1,180 135.5,180 135.7,180 136,180 136.2,180 136.4,180 137.1,180 137.3,180 137.4,180 137.6,180 
		137.9,180 138.2,180 138.3,180 138.4,180 138.8,180 139.1,180 139.3,180 139.5,180 140.4,180 140.6,180 141.5,180 141.6,180 
		141.7,180 142.1,180 142.4,180 142.6,180 142.8,180 143.4,180 143.5,180 143.7,180 144.8,180 145.7,180 145.9,180 146.1,180 
		146.7,180 146.8,180 147,180 147.6,180 147.8,180 147.9,180 150,180 150.1,180 150.3,180 150.9,180 151.1,180 151.2,180 151.8,180 
		152,180 152.2,180 154.2,180 154.4,180 154.5,180 155.1,180 155.3,180 155.5,180 156.2,180 156.4,180 158.4,180 158.6,180 
		158.8,180 159.5,180 159.7,180 160.6,180 162.8,180 163,180 163.9,180 167.2,180 167.2,0 	"/>
</g>
<g id="figure">
	<g>
		<path d="M51.6,121.3c0,0.3-0.1,0.5-0.2,0.7c-0.1,0.2-0.3,0.4-0.6,0.5c-0.3,0.1-0.7,0.2-1.1,0.3c-0.5,0.1-1,0.1-1.7,0.1
			c-0.7,0-1.3,0-1.8-0.1c-0.5-0.1-0.9-0.2-1.2-0.3s-0.5-0.3-0.7-0.5c-0.1-0.2-0.2-0.4-0.2-0.7v-6c-2.4,2.6-4.9,4.6-7.4,6
			c-2.6,1.4-5.4,2.2-8.4,2.2c-3.3,0-6.2-0.6-8.5-1.9c-2.3-1.3-4.2-3-5.7-5.2c-1.5-2.2-2.5-4.8-3.2-7.7c-0.7-3-1-6.1-1-9.4
			c0-3.9,0.4-7.4,1.3-10.5c0.8-3.1,2.1-5.8,3.7-8s3.7-3.9,6.1-5.1c2.4-1.2,5.2-1.8,8.4-1.8c2.6,0,5.1,0.6,7.3,1.7
			c2.2,1.2,4.4,2.9,6.5,5.1V54.3c0-0.2,0.1-0.5,0.2-0.7c0.1-0.2,0.3-0.4,0.7-0.5c0.3-0.1,0.8-0.2,1.3-0.3c0.5-0.1,1.2-0.1,2-0.1
			c0.8,0,1.5,0,2.1,0.1c0.5,0.1,1,0.2,1.3,0.3c0.3,0.1,0.5,0.3,0.7,0.5c0.2,0.2,0.2,0.4,0.2,0.7V121.3z M43.3,89.5
			c-2.2-2.8-4.4-4.9-6.5-6.4c-2.1-1.5-4.3-2.2-6.6-2.2c-2.1,0-3.9,0.5-5.4,1.5s-2.7,2.3-3.6,4c-0.9,1.6-1.6,3.5-2,5.6
			c-0.4,2.1-0.6,4.2-0.6,6.3c0,2.3,0.2,4.5,0.5,6.7c0.4,2.2,1,4.1,1.8,5.8c0.9,1.7,2,3.1,3.5,4.1c1.4,1,3.3,1.5,5.4,1.5
			c1.1,0,2.2-0.2,3.2-0.5c1-0.3,2.1-0.8,3.1-1.5c1.1-0.7,2.2-1.6,3.4-2.7c1.2-1.1,2.4-2.5,3.7-4.1V89.5z"/>
		<path d="M105.6,96.7c0,1.3-0.3,2.2-1,2.8c-0.7,0.6-1.4,0.8-2.2,0.8H72.6c0,2.5,0.3,4.8,0.8,6.8c0.5,2,1.3,3.7,2.5,5.2
			c1.2,1.4,2.7,2.5,4.6,3.3c1.9,0.8,4.2,1.2,6.9,1.2c2.2,0,4.1-0.2,5.8-0.5c1.7-0.4,3.1-0.7,4.4-1.2c1.2-0.4,2.2-0.8,3-1.2
			c0.8-0.4,1.4-0.5,1.8-0.5c0.2,0,0.4,0.1,0.6,0.2s0.3,0.3,0.4,0.5c0.1,0.2,0.2,0.6,0.2,1c0.1,0.4,0.1,0.9,0.1,1.5
			c0,0.4,0,0.8,0,1.1c0,0.3-0.1,0.6-0.1,0.9c0,0.3-0.1,0.5-0.3,0.7c-0.1,0.2-0.3,0.4-0.5,0.6c-0.2,0.2-0.7,0.5-1.6,0.9
			c-0.9,0.4-2.1,0.8-3.5,1.2s-3.1,0.8-5,1.1s-3.9,0.5-6.1,0.5c-3.7,0-7-0.5-9.8-1.6c-2.8-1-5.2-2.6-7.1-4.6c-1.9-2-3.4-4.6-4.3-7.7
			c-1-3.1-1.5-6.7-1.5-10.8c0-3.9,0.5-7.4,1.5-10.5c1-3.1,2.5-5.7,4.4-7.9c1.9-2.2,4.2-3.8,6.9-5c2.7-1.2,5.7-1.7,9-1.7
			c3.6,0,6.6,0.6,9.1,1.7c2.5,1.1,4.6,2.7,6.2,4.6c1.6,1.9,2.8,4.2,3.5,6.8c0.8,2.6,1.1,5.4,1.1,8.3V96.7z M97.3,94.3
			c0.1-4.4-0.9-7.8-2.9-10.3c-2-2.5-5.1-3.7-9.1-3.7c-2.1,0-3.9,0.4-5.4,1.2c-1.6,0.8-2.9,1.8-3.9,3.1c-1,1.3-1.9,2.8-2.4,4.5
			c-0.6,1.7-0.9,3.5-1,5.3H97.3z"/>
		<path d="M157.2,121.3c0,0.3-0.1,0.5-0.2,0.7c-0.1,0.2-0.4,0.3-0.7,0.5c-0.3,0.1-0.7,0.2-1.3,0.3c-0.5,0.1-1.2,0.1-2,0.1
			c-0.8,0-1.5,0-2.1-0.1c-0.5-0.1-1-0.2-1.3-0.3s-0.5-0.3-0.7-0.5s-0.2-0.4-0.2-0.7V94.8c0-2.6-0.2-4.7-0.6-6.2
			c-0.4-1.6-1-2.9-1.8-4.1c-0.8-1.1-1.8-2-3-2.6c-1.2-0.6-2.6-0.9-4.2-0.9c-2.1,0-4.2,0.7-6.2,2.2c-2.1,1.5-4.3,3.6-6.5,6.5v31.6
			c0,0.3-0.1,0.5-0.2,0.7c-0.1,0.2-0.4,0.3-0.7,0.5c-0.3,0.1-0.7,0.2-1.3,0.3c-0.5,0.1-1.2,0.1-2.1,0.1c-0.8,0-1.5,0-2-0.1
			c-0.5-0.1-1-0.2-1.3-0.3s-0.5-0.3-0.7-0.5c-0.1-0.2-0.2-0.4-0.2-0.7V76.1c0-0.3,0-0.5,0.2-0.7c0.1-0.2,0.3-0.4,0.6-0.5
			c0.3-0.2,0.7-0.3,1.2-0.3c0.5,0,1.1-0.1,1.9-0.1c0.7,0,1.3,0,1.8,0.1c0.5,0.1,0.9,0.2,1.1,0.3c0.3,0.2,0.5,0.3,0.6,0.5
			c0.1,0.2,0.2,0.4,0.2,0.7v6c2.5-2.8,5.1-4.9,7.6-6.3c2.5-1.3,5.1-2,7.7-2c3,0,5.6,0.5,7.6,1.5c2.1,1,3.7,2.4,5,4.1
			c1.3,1.7,2.2,3.7,2.7,6c0.6,2.3,0.8,5.1,0.8,8.3V121.3z"/>
	</g>
</g>
</svg>
