<?xml version="1.0" encoding="utf-8"?>
<!-- Generator: Adobe Illustrator 22.1.0, SVG Export Plug-In . SVG Version: 6.00 Build 0)  -->
<svg version="1.1" xmlns="http://www.w3.org/2000/svg" xmlns:xlink="http://www.w3.org/1999/xlink" x="0px" y="0px"
	 viewBox="0 0 418 180" style="enable-background:new 0 0 418 180;" xml:space="preserve">
<style type="text/css">
	.st0{display:none;}
	.st1{display:inline;fill:#FF0000;}
</style>
<g id="bg" class="st0">
	<polygon class="st1" points="409.8,0 407.5,0 407,0 401.6,0 399.3,0 398.7,0 397,0 396.5,0 395.9,0 391.1,0 390.5,0 388.8,0 
		388.3,0 387.7,0 386.3,0 386,0 385.4,0 380.6,0 380,0 379.5,0 378.1,0 377.8,0 377.2,0 375.8,0 375.2,0 374.9,0 369.9,0 369.5,0 
		369,0 367.6,0 367,0 366.7,0 365.3,0 364.7,0 364.2,0 362.1,0 359.4,0 358.8,0 358.5,0 357.1,0 356.5,0 356,0 355.2,0 354.2,0 
		353.9,0 353.7,0 351.6,0 351,0 348.9,0 348.3,0 347.7,0 346.9,0 346,0 345.7,0 345.5,0 344.7,0 344.1,0 343.4,0 343.2,0 342.8,0 
		341.1,0 340.5,0 340,0 339.2,0 338.7,0 337.8,0 337.3,0 336.5,0 335.9,0 335.2,0 335,0 334.6,0 334.2,0 333.6,0 333,0 332.9,0 
		332.3,0 331.8,0 331,0 330.4,0 330.1,0 329.5,0 328.7,0 328.2,0 328.2,0 327.7,0 326.8,0 326,0 325.4,0 324.8,0 324.7,0 324.1,0 
		323.6,0 323.4,0 323.1,0 322.8,0 322.6,0 322.2,0 321.8,0 321.3,0 320.5,0 319.9,0 319.9,0 319.3,0 319,0 318.2,0 317.7,0 317.7,0 
		317.2,0 317.1,0 316.6,0 315.2,0 314.9,0 314.3,0 313.9,0 313.6,0 313.1,0 312.9,0 312.4,0 312.3,0 312.1,0 311.7,0 311.7,0 
		311.1,0 310.8,0 310,0 309.4,0 309.4,0 308.9,0 308.8,0 308.3,0 307.5,0 307.2,0 307,0 306.7,0 306.6,0 306.1,0 304.7,0 304.2,0 
		303.8,0 303.4,0 302.9,0 302.6,0 302.4,0 301.9,0 301.8,0 301.3,0 301.2,0 301.2,0 300.7,0 300.6,0 300,0 299.3,0 299.2,0 299,0 
		298.4,0 298.3,0 297.8,0 297,0 296.5,0 296.4,0 296.1,0 295.9,0 295.6,0 294.2,0 293.7,0 293.1,0 293,0 292.4,0 291.8,0 291.4,0 
		291.1,0 291,0 290.8,0 290.7,0 290.2,0 290.1,0 289.5,0 288.8,0 288.8,0 288.8,0 288.2,0 288.2,0 287.9,0 287.3,0 286.5,0 286,0 
		285.9,0 285.5,0 285.4,0 284.9,0 283.3,0 283.2,0 282.8,0 282.6,0 281.9,0 281.3,0 280.6,0 280.6,0 280.5,0 280.3,0 280,0 280,0 
		279.7,0 279.1,0 278.3,0 278.3,0 278.3,0 277.8,0 277.7,0 277.7,0 277.2,0 277.1,0 276.4,0 275.4,0 275.1,0 275,0 274.9,0 274.4,0 
		272.8,0 272.4,0 272.3,0 272.2,0 272.1,0 271.8,0 270.8,0 270.1,0 270.1,0 270,0 269.6,0 269.5,0 269.5,0 268.9,0 268.9,0 268.1,0 
		267.9,0 267.5,0 267.3,0 267.2,0 267.2,0 266.9,0 266.7,0 266.7,0 266.6,0 265.9,0 265.3,0 264.6,0 264.4,0 264,0 263.9,0 262.3,0 
		261.9,0 261.8,0 261.7,0 261.4,0 261.3,0 261.2,0 260.7,0 259.9,0 259.6,0 259.3,0 259.1,0 259,0 259,0 258.5,0 258.4,0 258.4,0 
		257.7,0 257.1,0 257.1,0 257,0 256.8,0 256.5,0 256.4,0 256.2,0 256.2,0 256.1,0 255.8,0 255.4,0 254.8,0 254.2,0 254.1,0 253.5,0 
		253,0 251.6,0 251.4,0 251.3,0 251.1,0 250.9,0 250.8,0 250.7,0 250.3,0 250.2,0 249.4,0 248.9,0 248.9,0 248.8,0 248.6,0 248.2,0 
		248,0 248,0 247.9,0 247.2,0 246.6,0 246.6,0 246.5,0 246,0 246,0 246,0 245.9,0 245.7,0 245.4,0 245.3,0 244.8,0 244.6,0 244.3,0 
		243.8,0 243.3,0 243,0 242.5,0 241.1,0 240.7,0 240.6,0 240.5,0 240.4,0 240.2,0 240,0 239.8,0 239.7,0 238.9,0 238.4,0 238.4,0 
		238.3,0 237.8,0 237.8,0 237.7,0 237.5,0 237.2,0 236.4,0 236.1,0 236.1,0 235.6,0 235.5,0 235.5,0 235.1,0 235,0 234.9,0 234.8,0 
		234.3,0 234.1,0 233.6,0 233.3,0 232.9,0 232.9,0 232.3,0 232,0 230.6,0 230.2,0 230.1,0 230,0 229.6,0 229.5,0 229.4,0 229.3,0 
		229,0 228.2,0 227.9,0 227.9,0 227.3,0 227.3,0 227.3,0 226.8,0 226.7,0 226,0 225.9,0 225.4,0 225.1,0 225,0 224.7,0 224.6,0 
		224.5,0 224.4,0 224.1,0 223.8,0 223.6,0 223.1,0 222.5,0 222.4,0 222.4,0 221.9,0 221.8,0 221.2,0 220.4,0 219.7,0 219.5,0 
		219.1,0 219,0 219,0 218.6,0 218.5,0 217.8,0 217.7,0 217.1,0 216.8,0 216.8,0 216.5,0 216.3,0 216.2,0 215.5,0 215.4,0 214.9,0 
		214.9,0 214.3,0 214.2,0 214.1,0 214,0 213.6,0 213.6,0 213,0 212.6,0 212.2,0 212,0 211.9,0 211.4,0 211.3,0 210.8,0 210.7,0 
		210,0 209.9,0 209.6,0 209.4,0 208.6,0 208.5,0 208.1,0 208,0 207.3,0 207.2,0 206.7,0 206.6,0 206.1,0 206,0 205.8,0 205.4,0 
		205,0 204.4,0 204.4,0 204,0 203.9,0 203.8,0 203.7,0 203.2,0 203.1,0 202.6,0 202.5,0 201.8,0 201.7,0 201.5,0 201.2,0 201.2,0 
		200.9,0 200.3,0 200.2,0 199.5,0 199.5,0 199.1,0 199,0 198.9,0 198.5,0 198.3,0 197.6,0 196.8,0 196.2,0 196.2,0 195.7,0 195.6,0 
		195.5,0 194.9,0 194.4,0 194.3,0 193.9,0 193.6,0 193.5,0 193.4,0 193.3,0 193,0 193,0 192.7,0 192.1,0 192,0 191.3,0 191.2,0 
		190.8,0 190.7,0 190.7,0 190.1,0 190.1,0 189.8,0 189,0 188.7,0 188.6,0 188.5,0 188.4,0 188,0 187.9,0 187.8,0 187.4,0 186,0 
		185.7,0 185.2,0 185.1,0 184.8,0 184.4,0 183.9,0 183.8,0 183.2,0 183.1,0 183,0 182.9,0 182.5,0 182.5,0 182.5,0 181.9,0 181.9,0 
		181.6,0 180.8,0 180.5,0 180.3,0 180.2,0 180.2,0 179.7,0 179.6,0 179.6,0 179.1,0 178.3,0 178.2,0 178,0 177.8,0 177.7,0 177.5,0 
		177.4,0 177.3,0 176.9,0 175.5,0 175,0 174.7,0 174.3,0 173.7,0 173.4,0 173.3,0 172.7,0 172.6,0 172.3,0 172.1,0 172.1,0 172,0 
		172,0 171.5,0 171.4,0 171.4,0 170.9,0 170.1,0 170.1,0 170,0 169.8,0 169.4,0 169.2,0 169.1,0 169.1,0 168.6,0 167.8,0 167.7,0 
		167.3,0 167.2,0 167.2,0 166.9,0 166.8,0 166.6,0 166.5,0 165.1,0 164.5,0 163.9,0 163.8,0 163.2,0 162.6,0 162.2,0 161.9,0 
		161.9,0 161.8,0 161.6,0 161.6,0 161.2,0 161,0 160.9,0 160.9,0 160.4,0 159.6,0 159.6,0 159.5,0 159,0 159,0 158.9,0 158.7,0 
		158.4,0 158.1,0 157.3,0 156.8,0 156.8,0 156.7,0 156.3,0 156.2,0 156.1,0 155.7,0 154.1,0 154,0 153.6,0 153.4,0 152.7,0 152.2,0 
		151.4,0 151.4,0 151.3,0 151.2,0 150.8,0 150.8,0 150.7,0 150.5,0 150.2,0 149.9,0 149.1,0 149.1,0 148.5,0 148.5,0 148.4,0 148,0 
		148,0 147.9,0 147.2,0 146.3,0 145.9,0 145.8,0 145.7,0 145.6,0 145.2,0 143.6,0 143.1,0 143.1,0 142.9,0 142.6,0 141.7,0 140.9,0 
		140.9,0 140.3,0 140.3,0 140.2,0 139.8,0 139.7,0 139.7,0 139,0 138.3,0 138,0 138,0 137.7,0 137.5,0 137.5,0 137.4,0 136.7,0 
		136.1,0 135.4,0 135.2,0 134.8,0 134.7,0 133.1,0 132.7,0 132.6,0 132.1,0 132,0 131.5,0 130.8,0 130.1,0 129.8,0 129.8,0 129.3,0 
		129.2,0 129.2,0 128.5,0 127.9,0 127.8,0 127.3,0 127.2,0 127,0 127,0 126.6,0 126.2,0 125.6,0 125.1,0 124.9,0 124.4,0 123.8,0 
		122.4,0 122.1,0 121.9,0 121.6,0 121.5,0 121,0 120.3,0 119.7,0 119.6,0 119.1,0 118.8,0 118.8,0 118,0 117.4,0 117.3,0 116.9,0 
		116.8,0 116.7,0 116.2,0 116.1,0 115.6,0 115.4,0 115.1,0 114.6,0 114.2,0 113.9,0 113.3,0 111.9,0 111.4,0 111.3,0 111,0 110.8,0 
		110.5,0 109.8,0 109.2,0 109.1,0 108.6,0 108.6,0 108,0 107.2,0 106.9,0 106.4,0 106.3,0 106,0 105.7,0 105.6,0 105.1,0 105,0 
		104.4,0 104.1,0 103.7,0 103.1,0 102.8,0 101.4,0 100.9,0 100.8,0 100.4,0 100.3,0 99.8,0 99,0 98.7,0 98.1,0 98.1,0 97.5,0 
		96.7,0 96.2,0 95.9,0 95.5,0 95.2,0 94.9,0 94.6,0 94.5,0 93.9,0 93.3,0 93.2,0 92.6,0 92.1,0 91.3,0 90.3,0 89.9,0 89.8,0 89.3,0 
		88.5,0 88,0 87.7,0 87,0 86.2,0 85.7,0 85.1,0 85,0 84.4,0 83.8,0 83.4,0 83,0 82.8,0 82.1,0 81.6,0 80.8,0 80.2,0 79.3,0 78.8,0 
		78,0 77.5,0 76.9,0 75.2,0 74.8,0 74.6,0 73.9,0 73.3,0 72.6,0 72.3,0 72,0 71.1,0 70.3,0 69.7,0 69.1,0 67,0 66.4,0 64.3,0 
		64.1,0 63.8,0 62.9,0 62.1,0 61.5,0 60.9,0 59.5,0 59.2,0 58.7,0 55.9,0 53.8,0 53.3,0 52.7,0 51.3,0 51,0 50.4,0 49,0 48.5,0 
		48.2,0 43.1,0 42.8,0 42.2,0 40.8,0 40.3,0 39.9,0 38.5,0 38,0 37.4,0 32.6,0 32,0 31.7,0 30.3,0 29.8,0 29.2,0 27.5,0 26.9,0 
		22.1,0 21.6,0 21,0 19.3,0 18.7,0 16.4,0 11.1,0 10.5,0 8.2,0 0,0 0,180 8.2,180 10.5,180 11.1,180 16.4,180 18.7,180 19.3,180 
		21,180 21.6,180 22.1,180 26.9,180 27.5,180 29.2,180 29.8,180 30.3,180 31.7,180 32,180 32.6,180 37.4,180 38,180 38.5,180 
		39.9,180 40.3,180 40.8,180 42.2,180 42.8,180 43.1,180 48.2,180 48.5,180 49,180 50.4,180 51,180 51.3,180 52.7,180 53.3,180 
		53.8,180 55.9,180 58.7,180 59.2,180 59.5,180 60.9,180 61.5,180 62.1,180 62.9,180 63.8,180 64.1,180 64.3,180 66.4,180 67,180 
		69.1,180 69.7,180 70.3,180 71.1,180 72,180 72.3,180 72.6,180 73.3,180 73.9,180 74.6,180 74.8,180 75.2,180 76.9,180 77.5,180 
		78,180 78.8,180 79.3,180 80.2,180 80.8,180 81.6,180 82.1,180 82.8,180 83,180 83.4,180 83.8,180 84.4,180 85,180 85.1,180 
		85.7,180 86.2,180 87,180 87.7,180 88,180 88.5,180 89.3,180 89.8,180 89.9,180 90.3,180 91.3,180 92.1,180 92.6,180 93.2,180 
		93.3,180 93.9,180 94.5,180 94.6,180 94.9,180 95.2,180 95.5,180 95.9,180 96.2,180 96.7,180 97.5,180 98.1,180 98.1,180 98.7,180 
		99,180 99.8,180 100.3,180 100.4,180 100.8,180 100.9,180 101.4,180 102.8,180 103.1,180 103.7,180 104.1,180 104.4,180 105,180 
		105.1,180 105.6,180 105.7,180 106,180 106.3,180 106.4,180 106.9,180 107.2,180 108,180 108.6,180 108.6,180 109.1,180 109.2,180 
		109.8,180 110.5,180 110.8,180 111,180 111.3,180 111.4,180 111.9,180 113.3,180 113.9,180 114.2,180 114.6,180 115.1,180 
		115.4,180 115.6,180 116.1,180 116.2,180 116.7,180 116.8,180 116.9,180 117.3,180 117.4,180 118,180 118.8,180 118.8,180 
		119.1,180 119.6,180 119.7,180 120.3,180 121,180 121.5,180 121.6,180 121.9,180 122.1,180 122.4,180 123.8,180 124.4,180 
		124.9,180 125.1,180 125.6,180 126.2,180 126.6,180 127,180 127,180 127.2,180 127.3,180 127.8,180 127.9,180 128.5,180 129.2,180 
		129.2,180 129.3,180 129.8,180 129.8,180 130.1,180 130.8,180 131.5,180 132,180 132.1,180 132.6,180 132.7,180 133.1,180 
		134.7,180 134.8,180 135.2,180 135.4,180 136.1,180 136.7,180 137.4,180 137.5,180 137.5,180 137.7,180 138,180 138,180 138.3,180 
		139,180 139.7,180 139.7,180 139.8,180 140.2,180 140.3,180 140.3,180 140.9,180 140.9,180 141.7,180 142.6,180 142.9,180 
		143.1,180 143.1,180 143.6,180 145.2,180 145.6,180 145.7,180 145.8,180 145.9,180 146.3,180 147.2,180 147.9,180 148,180 148,180 
		148.4,180 148.5,180 148.5,180 149.1,180 149.1,180 149.9,180 150.2,180 150.5,180 150.7,180 150.8,180 150.8,180 151.2,180 
		151.3,180 151.4,180 151.4,180 152.2,180 152.7,180 153.4,180 153.6,180 154,180 154.1,180 155.7,180 156.1,180 156.2,180 
		156.3,180 156.7,180 156.8,180 156.8,180 157.3,180 158.1,180 158.4,180 158.7,180 158.9,180 159,180 159,180 159.5,180 159.6,180 
		159.6,180 160.4,180 160.9,180 160.9,180 161,180 161.2,180 161.6,180 161.6,180 161.8,180 161.9,180 161.9,180 162.2,180 
		162.6,180 163.2,180 163.8,180 163.9,180 164.5,180 165.1,180 166.5,180 166.6,180 166.8,180 166.9,180 167.2,180 167.2,180 
		167.3,180 167.7,180 167.8,180 168.6,180 169.1,180 169.1,180 169.2,180 169.4,180 169.8,180 170,180 170.1,180 170.1,180 
		170.9,180 171.4,180 171.4,180 171.5,180 172,180 172,180 172.1,180 172.1,180 172.3,180 172.6,180 172.7,180 173.3,180 173.4,180 
		173.7,180 174.3,180 174.7,180 175,180 175.5,180 176.9,180 177.3,180 177.4,180 177.5,180 177.7,180 177.8,180 178,180 178.2,180 
		178.3,180 179.1,180 179.6,180 179.6,180 179.7,180 180.2,180 180.2,180 180.3,180 180.5,180 180.8,180 181.6,180 181.9,180 
		181.9,180 182.5,180 182.5,180 182.5,180 182.9,180 183,180 183.1,180 183.2,180 183.8,180 183.9,180 184.4,180 184.8,180 
		185.1,180 185.2,180 185.7,180 186,180 187.4,180 187.8,180 187.9,180 188,180 188.4,180 188.5,180 188.6,180 188.7,180 189,180 
		189.8,180 190.1,180 190.1,180 190.7,180 190.7,180 190.8,180 191.2,180 191.3,180 192,180 192.1,180 192.7,180 193,180 193,180 
		193.3,180 193.4,180 193.5,180 193.6,180 193.9,180 194.3,180 194.4,180 194.9,180 195.5,180 195.6,180 195.7,180 196.2,180 
		196.2,180 196.8,180 197.6,180 198.3,180 198.5,180 198.9,180 199,180 199.1,180 199.5,180 199.5,180 200.2,180 200.3,180 
		200.9,180 201.2,180 201.2,180 201.5,180 201.7,180 201.8,180 202.5,180 202.6,180 203.1,180 203.2,180 203.7,180 203.8,180 
		203.9,180 204,180 204.4,180 204.4,180 205,180 205.4,180 205.8,180 206,180 206.1,180 206.6,180 206.7,180 207.2,180 207.3,180 
		208,180 208.1,180 208.5,180 208.6,180 209.4,180 209.6,180 209.9,180 210,180 210.7,180 210.8,180 211.3,180 211.4,180 211.9,180 
		212,180 212.2,180 212.6,180 213,180 213.6,180 213.6,180 214,180 214.1,180 214.2,180 214.3,180 214.9,180 214.9,180 215.4,180 
		215.5,180 216.2,180 216.3,180 216.5,180 216.8,180 216.8,180 217.1,180 217.7,180 217.8,180 218.5,180 218.6,180 219,180 219,180 
		219.1,180 219.5,180 219.7,180 220.4,180 221.2,180 221.8,180 221.9,180 222.4,180 222.4,180 222.5,180 223.1,180 223.6,180 
		223.8,180 224.1,180 224.4,180 224.5,180 224.6,180 224.7,180 225,180 225.1,180 225.4,180 225.9,180 226,180 226.7,180 226.8,180 
		227.3,180 227.3,180 227.3,180 227.9,180 227.9,180 228.2,180 229,180 229.3,180 229.4,180 229.5,180 229.6,180 230,180 230.1,180 
		230.2,180 230.6,180 232,180 232.3,180 232.9,180 232.9,180 233.3,180 233.6,180 234.1,180 234.3,180 234.8,180 234.9,180 235,180 
		235.1,180 235.5,180 235.5,180 235.6,180 236.1,180 236.1,180 236.4,180 237.2,180 237.5,180 237.7,180 237.8,180 237.8,180 
		238.3,180 238.4,180 238.4,180 238.9,180 239.7,180 239.8,180 240,180 240.2,180 240.4,180 240.5,180 240.6,180 240.7,180 
		241.1,180 242.5,180 243,180 243.3,180 243.8,180 244.3,180 244.6,180 244.8,180 245.3,180 245.4,180 245.7,180 245.9,180 246,180 
		246,180 246,180 246.5,180 246.6,180 246.6,180 247.2,180 247.9,180 248,180 248,180 248.2,180 248.6,180 248.8,180 248.9,180 
		248.9,180 249.4,180 250.2,180 250.3,180 250.7,180 250.8,180 250.9,180 251.1,180 251.3,180 251.4,180 251.6,180 253,180 
		253.5,180 254.1,180 254.2,180 254.8,180 255.4,180 255.8,180 256.1,180 256.2,180 256.2,180 256.4,180 256.5,180 256.8,180 
		257,180 257.1,180 257.1,180 257.7,180 258.4,180 258.4,180 258.5,180 259,180 259,180 259.1,180 259.3,180 259.6,180 259.9,180 
		260.7,180 261.2,180 261.3,180 261.4,180 261.7,180 261.8,180 261.9,180 262.3,180 263.9,180 264,180 264.4,180 264.6,180 
		265.3,180 265.9,180 266.6,180 266.7,180 266.7,180 266.9,180 267.2,180 267.2,180 267.3,180 267.5,180 267.9,180 268.1,180 
		268.9,180 268.9,180 269.5,180 269.5,180 269.6,180 270,180 270.1,180 270.1,180 270.8,180 271.8,180 272.1,180 272.2,180 
		272.3,180 272.4,180 272.8,180 274.4,180 274.9,180 275,180 275.1,180 275.4,180 276.4,180 277.1,180 277.2,180 277.7,180 
		277.7,180 277.8,180 278.3,180 278.3,180 278.3,180 279.1,180 279.7,180 280,180 280,180 280.3,180 280.5,180 280.6,180 280.6,180 
		281.3,180 281.9,180 282.6,180 282.8,180 283.2,180 283.3,180 284.9,180 285.4,180 285.5,180 285.9,180 286,180 286.5,180 
		287.3,180 287.9,180 288.2,180 288.2,180 288.8,180 288.8,180 288.8,180 289.5,180 290.1,180 290.2,180 290.7,180 290.8,180 
		291,180 291.1,180 291.4,180 291.8,180 292.4,180 293,180 293.1,180 293.7,180 294.2,180 295.6,180 295.9,180 296.1,180 296.4,180 
		296.5,180 297,180 297.8,180 298.3,180 298.4,180 299,180 299.2,180 299.3,180 300,180 300.6,180 300.7,180 301.2,180 301.2,180 
		301.3,180 301.8,180 301.9,180 302.4,180 302.6,180 302.9,180 303.4,180 303.8,180 304.2,180 304.7,180 306.1,180 306.6,180 
		306.7,180 307,180 307.2,180 307.5,180 308.3,180 308.8,180 308.9,180 309.4,180 309.4,180 310,180 310.8,180 311.1,180 311.7,180 
		311.7,180 312.1,180 312.3,180 312.4,180 312.9,180 313.1,180 313.6,180 313.9,180 314.3,180 314.9,180 315.2,180 316.6,180 
		317.1,180 317.2,180 317.7,180 317.7,180 318.2,180 319,180 319.3,180 319.9,180 319.9,180 320.5,180 321.3,180 321.8,180 
		322.2,180 322.6,180 322.8,180 323.1,180 323.4,180 323.6,180 324.1,180 324.7,180 324.8,180 325.4,180 326,180 326.8,180 
		327.7,180 328.2,180 328.2,180 328.7,180 329.5,180 330.1,180 330.4,180 331,180 331.8,180 332.3,180 332.9,180 333,180 333.6,180 
		334.2,180 334.6,180 335,180 335.2,180 335.9,180 336.5,180 337.3,180 337.8,180 338.7,180 339.2,180 340,180 340.5,180 341.1,180 
		342.8,180 343.2,180 343.4,180 344.1,180 344.7,180 345.5,180 345.7,180 346,180 346.9,180 347.7,180 348.3,180 348.9,180 351,180 
		351.6,180 353.7,180 353.9,180 354.2,180 355.2,180 356,180 356.5,180 357.1,180 358.5,180 358.8,180 359.4,180 362.1,180 
		364.2,180 364.7,180 365.3,180 366.7,180 367,180 367.6,180 369,180 369.5,180 369.9,180 374.9,180 375.2,180 375.8,180 377.2,180 
		377.8,180 378.1,180 379.5,180 380,180 380.6,180 385.4,180 386,180 386.3,180 387.7,180 388.3,180 388.8,180 390.5,180 391.1,180 
		395.9,180 396.5,180 397,180 398.7,180 399.3,180 401.6,180 407,180 407.5,180 409.8,180 418,180 418,0 	"/>
</g>
<g id="figure">
	<g>
		<path d="M51.6,121.3c0,0.3-0.1,0.5-0.2,0.7c-0.1,0.2-0.3,0.4-0.6,0.5c-0.3,0.1-0.7,0.2-1.1,0.3c-0.5,0.1-1,0.1-1.7,0.1
			c-0.7,0-1.3,0-1.8-0.1c-0.5-0.1-0.9-0.2-1.2-0.3s-0.5-0.3-0.7-0.5c-0.1-0.2-0.2-0.4-0.2-0.7v-6c-2.4,2.6-4.9,4.6-7.4,6
			c-2.6,1.4-5.4,2.2-8.4,2.2c-3.3,0-6.2-0.6-8.5-1.9c-2.3-1.3-4.2-3-5.7-5.2c-1.5-2.2-2.5-4.8-3.2-7.7c-0.7-3-1-6.1-1-9.4
			c0-3.9,0.4-7.4,1.3-10.5c0.8-3.1,2.1-5.8,3.7-8c1.6-2.2,3.7-3.9,6.1-5.1c2.4-1.2,5.2-1.8,8.4-1.8c2.6,0,5.1,0.6,7.3,1.7
			c2.2,1.2,4.4,2.9,6.5,5.1V54.3c0-0.2,0.1-0.5,0.2-0.7c0.1-0.2,0.3-0.4,0.7-0.5c0.3-0.1,0.8-0.2,1.3-0.3c0.5-0.1,1.2-0.1,2-0.1
			c0.8,0,1.5,0,2.1,0.1c0.5,0.1,1,0.2,1.3,0.3c0.3,0.1,0.5,0.3,0.7,0.5c0.2,0.2,0.2,0.4,0.2,0.7V121.3z M43.3,89.5
			c-2.2-2.8-4.4-4.9-6.5-6.4c-2.1-1.5-4.3-2.2-6.6-2.2c-2.1,0-3.9,0.5-5.4,1.5c-1.5,1-2.7,2.3-3.6,4c-0.9,1.6-1.6,3.5-2,5.6
			c-0.4,2.1-0.6,4.2-0.6,6.3c0,2.3,0.2,4.5,0.5,6.7c0.4,2.2,1,4.1,1.8,5.8c0.9,1.7,2,3.1,3.5,4.1c1.4,1,3.3,1.5,5.4,1.5
			c1.1,0,2.2-0.2,3.2-0.5c1-0.3,2.1-0.8,3.1-1.5c1.1-0.7,2.2-1.6,3.4-2.7c1.2-1.1,2.4-2.5,3.7-4.1V89.5z"/>
		<path d="M105.6,96.7c0,1.3-0.3,2.2-1,2.8c-0.7,0.6-1.4,0.8-2.2,0.8H72.6c0,2.5,0.3,4.8,0.8,6.8c0.5,2,1.3,3.7,2.5,5.2
			c1.2,1.4,2.7,2.5,4.6,3.3c1.9,0.8,4.2,1.2,6.9,1.2c2.2,0,4.1-0.2,5.8-0.5c1.7-0.4,3.1-0.7,4.4-1.2c1.2-0.4,2.2-0.8,3-1.2
			c0.8-0.4,1.4-0.5,1.8-0.5c0.2,0,0.4,0.1,0.6,0.2c0.2,0.1,0.3,0.3,0.4,0.5c0.1,0.2,0.2,0.6,0.2,1s0.1,0.9,0.1,1.5
			c0,0.4,0,0.8-0.1,1.1c0,0.3-0.1,0.6-0.1,0.9c0,0.3-0.1,0.5-0.3,0.7c-0.1,0.2-0.3,0.4-0.5,0.6c-0.2,0.2-0.7,0.5-1.6,0.9
			c-0.9,0.4-2.1,0.8-3.5,1.2c-1.4,0.4-3.1,0.8-5,1.1c-1.9,0.3-3.9,0.5-6.1,0.5c-3.7,0-7-0.5-9.8-1.6c-2.8-1-5.2-2.6-7.1-4.6
			c-1.9-2-3.4-4.6-4.3-7.7c-1-3.1-1.5-6.7-1.5-10.8c0-3.9,0.5-7.4,1.5-10.5c1-3.1,2.5-5.7,4.4-7.9c1.9-2.2,4.2-3.8,6.9-5
			c2.7-1.2,5.7-1.7,9-1.7c3.6,0,6.6,0.6,9.1,1.7c2.5,1.1,4.6,2.7,6.2,4.6c1.6,1.9,2.8,4.2,3.5,6.8c0.8,2.6,1.1,5.4,1.1,8.3V96.7z
			 M97.3,94.3c0.1-4.4-0.9-7.8-2.9-10.3c-2-2.5-5.1-3.7-9.1-3.7c-2.1,0-3.9,0.4-5.4,1.2c-1.6,0.8-2.9,1.8-3.9,3.1
			c-1,1.3-1.9,2.8-2.4,4.5c-0.6,1.7-0.9,3.5-1,5.3H97.3z"/>
		<path d="M146.6,109c0,2.3-0.4,4.4-1.3,6.2c-0.9,1.8-2.1,3.3-3.6,4.6c-1.6,1.2-3.5,2.2-5.6,2.8c-2.2,0.6-4.6,1-7.2,1
			c-1.6,0-3.1-0.1-4.6-0.4c-1.5-0.3-2.8-0.6-3.9-1c-1.2-0.4-2.1-0.8-2.9-1.2s-1.4-0.8-1.8-1.1c-0.4-0.3-0.6-0.8-0.8-1.4
			c-0.2-0.6-0.3-1.4-0.3-2.5c0-0.6,0-1.2,0.1-1.6c0.1-0.4,0.2-0.8,0.3-1.1c0.1-0.3,0.2-0.5,0.4-0.6c0.2-0.1,0.4-0.2,0.6-0.2
			c0.4,0,0.9,0.2,1.6,0.7c0.7,0.5,1.6,0.9,2.7,1.5c1.1,0.5,2.3,1,3.7,1.5c1.4,0.5,3.1,0.7,5,0.7c1.4,0,2.7-0.2,3.8-0.5
			c1.1-0.3,2.1-0.7,3-1.3c0.8-0.6,1.5-1.3,1.9-2.2c0.5-0.9,0.7-2,0.7-3.2c0-1.3-0.3-2.3-1-3.2c-0.7-0.9-1.5-1.6-2.6-2.3
			c-1.1-0.7-2.3-1.3-3.6-1.8c-1.3-0.5-2.7-1.1-4.1-1.6c-1.4-0.6-2.8-1.2-4.2-1.9c-1.4-0.7-2.6-1.6-3.6-2.6s-1.9-2.3-2.6-3.7
			c-0.7-1.4-1-3.2-1-5.2c0-1.8,0.3-3.5,1-5.1c0.7-1.6,1.7-3.1,3.1-4.3c1.4-1.2,3.1-2.2,5.2-2.9c2.1-0.7,4.5-1.1,7.2-1.1
			c1.2,0,2.4,0.1,3.6,0.3s2.3,0.5,3.3,0.8c1,0.3,1.8,0.6,2.5,1c0.7,0.4,1.2,0.7,1.6,0.9c0.4,0.3,0.6,0.5,0.7,0.7
			c0.1,0.2,0.2,0.4,0.3,0.7c0.1,0.3,0.1,0.6,0.2,0.9c0,0.4,0.1,0.8,0.1,1.4c0,0.6,0,1.1-0.1,1.5c-0.1,0.4-0.1,0.8-0.3,1
			c-0.1,0.3-0.3,0.5-0.4,0.6c-0.2,0.1-0.4,0.2-0.6,0.2c-0.3,0-0.7-0.2-1.3-0.6c-0.6-0.4-1.3-0.8-2.2-1.2c-0.9-0.4-2-0.8-3.2-1.2
			c-1.2-0.4-2.6-0.6-4.2-0.6c-1.4,0-2.6,0.2-3.7,0.5c-1.1,0.3-2,0.8-2.6,1.4c-0.7,0.6-1.2,1.3-1.6,2.1c-0.4,0.8-0.5,1.7-0.5,2.6
			c0,1.3,0.3,2.4,1,3.3c0.7,0.9,1.5,1.7,2.6,2.3c1.1,0.7,2.3,1.3,3.7,1.8c1.4,0.5,2.8,1.1,4.2,1.7c1.4,0.6,2.8,1.2,4.2,1.9
			s2.6,1.6,3.7,2.6s1.9,2.2,2.6,3.6C146.3,105.4,146.6,107,146.6,109z"/>
		<path d="M229.6,121.3c0,0.3-0.1,0.5-0.2,0.7c-0.1,0.2-0.4,0.4-0.7,0.5c-0.3,0.1-0.8,0.2-1.3,0.3c-0.6,0.1-1.2,0.1-2,0.1
			c-0.9,0-1.6,0-2.1-0.1c-0.5-0.1-1-0.2-1.3-0.3c-0.3-0.1-0.6-0.3-0.7-0.5c-0.1-0.2-0.2-0.4-0.2-0.7V92.4h-29.6v28.9
			c0,0.3-0.1,0.5-0.2,0.7c-0.1,0.2-0.4,0.4-0.7,0.5c-0.3,0.1-0.8,0.2-1.3,0.3c-0.6,0.1-1.2,0.1-2.1,0.1c-0.8,0-1.5,0-2.1-0.1
			c-0.6-0.1-1-0.2-1.4-0.3c-0.3-0.1-0.6-0.3-0.7-0.5c-0.1-0.2-0.2-0.4-0.2-0.7V58.8c0-0.3,0.1-0.5,0.2-0.7c0.1-0.2,0.4-0.4,0.7-0.5
			c0.3-0.1,0.8-0.2,1.4-0.3c0.6-0.1,1.3-0.1,2.1-0.1c0.8,0,1.5,0,2.1,0.1c0.6,0.1,1,0.2,1.3,0.3c0.3,0.1,0.6,0.3,0.7,0.5
			c0.1,0.2,0.2,0.4,0.2,0.7v26.1H221V58.8c0-0.3,0.1-0.5,0.2-0.7c0.1-0.2,0.4-0.4,0.7-0.5c0.3-0.1,0.8-0.2,1.3-0.3
			c0.5-0.1,1.2-0.1,2.1-0.1c0.8,0,1.5,0,2,0.1c0.6,0.1,1,0.2,1.3,0.3c0.3,0.1,0.6,0.3,0.7,0.5c0.1,0.2,0.2,0.4,0.2,0.7V121.3z"/>
		<path d="M284.6,96.7c0,1.3-0.3,2.2-1,2.8c-0.7,0.6-1.4,0.8-2.2,0.8h-29.8c0,2.5,0.3,4.8,0.8,6.8c0.5,2,1.3,3.7,2.5,5.2
			c1.2,1.4,2.7,2.5,4.6,3.3c1.9,0.8,4.2,1.2,6.9,1.2c2.2,0,4.1-0.2,5.8-0.5c1.7-0.4,3.1-0.7,4.4-1.2c1.2-0.4,2.2-0.8,3-1.2
			c0.8-0.4,1.4-0.5,1.8-0.5c0.2,0,0.4,0.1,0.6,0.2s0.3,0.3,0.4,0.5c0.1,0.2,0.2,0.6,0.2,1c0.1,0.4,0.1,0.9,0.1,1.5
			c0,0.4,0,0.8,0,1.1c0,0.3-0.1,0.6-0.1,0.9c0,0.3-0.1,0.5-0.3,0.7c-0.1,0.2-0.3,0.4-0.5,0.6c-0.2,0.2-0.7,0.5-1.6,0.9
			c-0.9,0.4-2.1,0.8-3.5,1.2s-3.1,0.8-5,1.1s-3.9,0.5-6.1,0.5c-3.7,0-7-0.5-9.8-1.6c-2.8-1-5.2-2.6-7.1-4.6c-1.9-2-3.4-4.6-4.3-7.7
			c-1-3.1-1.5-6.7-1.5-10.8c0-3.9,0.5-7.4,1.5-10.5c1-3.1,2.5-5.7,4.4-7.9c1.9-2.2,4.2-3.8,6.9-5c2.7-1.2,5.7-1.7,9-1.7
			c3.6,0,6.6,0.6,9.1,1.7c2.5,1.1,4.6,2.7,6.2,4.6c1.6,1.9,2.8,4.2,3.5,6.8c0.8,2.6,1.1,5.4,1.1,8.3V96.7z M276.3,94.3
			c0.1-4.4-0.9-7.8-2.9-10.3c-2-2.5-5.1-3.7-9.1-3.7c-2.1,0-3.9,0.4-5.4,1.2c-1.6,0.8-2.9,1.8-3.9,3.1c-1,1.3-1.9,2.8-2.4,4.5
			c-0.6,1.7-0.9,3.5-1,5.3H276.3z"/>
		<path d="M323.7,79c0,0.7,0,1.4,0,1.9c0,0.5-0.1,0.9-0.2,1.2c-0.1,0.3-0.2,0.5-0.4,0.7c-0.2,0.2-0.4,0.2-0.6,0.2
			c-0.3,0-0.6-0.1-1-0.2c-0.4-0.2-0.8-0.3-1.3-0.5c-0.5-0.2-1-0.3-1.6-0.4c-0.6-0.1-1.3-0.2-2-0.2c-0.8,0-1.7,0.2-2.5,0.5
			c-0.8,0.3-1.7,0.9-2.5,1.7c-0.9,0.8-1.8,1.8-2.8,3.1c-1,1.3-2,2.8-3.2,4.7v29.8c0,0.3-0.1,0.5-0.2,0.7c-0.1,0.2-0.4,0.3-0.7,0.5
			c-0.3,0.1-0.7,0.2-1.3,0.3c-0.5,0.1-1.2,0.1-2.1,0.1c-0.8,0-1.5,0-2-0.1c-0.5-0.1-1-0.2-1.3-0.3s-0.5-0.3-0.7-0.5
			c-0.1-0.2-0.2-0.4-0.2-0.7V76.1c0-0.3,0-0.5,0.2-0.7c0.1-0.2,0.3-0.4,0.6-0.5c0.3-0.2,0.7-0.3,1.2-0.3c0.5,0,1.1-0.1,1.9-0.1
			c0.7,0,1.3,0,1.8,0.1c0.5,0.1,0.9,0.2,1.1,0.3c0.3,0.2,0.5,0.3,0.6,0.5c0.1,0.2,0.2,0.4,0.2,0.7v6.6c1.2-1.8,2.4-3.3,3.5-4.4
			c1.1-1.1,2.1-2,3.1-2.7c1-0.7,1.9-1.1,2.9-1.4c1-0.3,1.9-0.4,2.9-0.4c0.4,0,0.9,0,1.5,0.1c0.6,0.1,1.1,0.1,1.7,0.3
			c0.6,0.1,1.1,0.3,1.6,0.5c0.5,0.2,0.8,0.3,1,0.5c0.2,0.2,0.3,0.3,0.4,0.5c0.1,0.2,0.1,0.3,0.2,0.6c0,0.2,0.1,0.6,0.1,1
			C323.7,77.6,323.7,78.2,323.7,79z"/>
		<path d="M359.6,79c0,0.7,0,1.4,0,1.9c0,0.5-0.1,0.9-0.2,1.2c-0.1,0.3-0.2,0.5-0.4,0.7c-0.2,0.2-0.4,0.2-0.6,0.2
			c-0.3,0-0.6-0.1-1-0.2c-0.4-0.2-0.8-0.3-1.3-0.5c-0.5-0.2-1-0.3-1.6-0.4c-0.6-0.1-1.3-0.2-2-0.2c-0.8,0-1.7,0.2-2.5,0.5
			c-0.8,0.3-1.7,0.9-2.5,1.7c-0.9,0.8-1.8,1.8-2.8,3.1c-1,1.3-2,2.8-3.2,4.7v29.8c0,0.3-0.1,0.5-0.2,0.7c-0.1,0.2-0.4,0.3-0.7,0.5
			c-0.3,0.1-0.7,0.2-1.3,0.3c-0.5,0.1-1.2,0.1-2.1,0.1c-0.8,0-1.5,0-2-0.1c-0.5-0.1-1-0.2-1.3-0.3s-0.5-0.3-0.7-0.5
			c-0.1-0.2-0.2-0.4-0.2-0.7V76.1c0-0.3,0-0.5,0.2-0.7c0.1-0.2,0.3-0.4,0.6-0.5c0.3-0.2,0.7-0.3,1.2-0.3c0.5,0,1.1-0.1,1.9-0.1
			c0.7,0,1.3,0,1.8,0.1c0.5,0.1,0.9,0.2,1.1,0.3c0.3,0.2,0.5,0.3,0.6,0.5c0.1,0.2,0.2,0.4,0.2,0.7v6.6c1.2-1.8,2.4-3.3,3.5-4.4
			c1.1-1.1,2.1-2,3.1-2.7c1-0.7,1.9-1.1,2.9-1.4c1-0.3,1.9-0.4,2.9-0.4c0.4,0,0.9,0,1.5,0.1c0.6,0.1,1.1,0.1,1.7,0.3
			c0.6,0.1,1.1,0.3,1.6,0.5c0.5,0.2,0.8,0.3,1,0.5c0.2,0.2,0.3,0.3,0.4,0.5c0.1,0.2,0.1,0.3,0.2,0.6c0,0.2,0.1,0.6,0.1,1
			C359.6,77.6,359.6,78.2,359.6,79z"/>
		<path d="M408,121.3c0,0.3-0.1,0.5-0.2,0.7c-0.1,0.2-0.4,0.3-0.7,0.5c-0.3,0.1-0.7,0.2-1.3,0.3c-0.5,0.1-1.2,0.1-2,0.1
			c-0.8,0-1.5,0-2.1-0.1c-0.5-0.1-1-0.2-1.3-0.3s-0.5-0.3-0.7-0.5s-0.2-0.4-0.2-0.7V94.8c0-2.6-0.2-4.7-0.6-6.2
			c-0.4-1.6-1-2.9-1.8-4.1c-0.8-1.1-1.8-2-3-2.6c-1.2-0.6-2.6-0.9-4.2-0.9c-2.1,0-4.2,0.7-6.2,2.2c-2.1,1.5-4.3,3.6-6.5,6.5v31.6
			c0,0.3-0.1,0.5-0.2,0.7c-0.1,0.2-0.4,0.3-0.7,0.5c-0.3,0.1-0.7,0.2-1.3,0.3c-0.5,0.1-1.2,0.1-2.1,0.1c-0.8,0-1.5,0-2-0.1
			c-0.5-0.1-1-0.2-1.3-0.3s-0.5-0.3-0.7-0.5c-0.1-0.2-0.2-0.4-0.2-0.7V76.1c0-0.3,0-0.5,0.2-0.7c0.1-0.2,0.3-0.4,0.6-0.5
			c0.3-0.2,0.7-0.3,1.2-0.3c0.5,0,1.1-0.1,1.9-0.1c0.7,0,1.3,0,1.8,0.1c0.5,0.1,0.9,0.2,1.1,0.3c0.3,0.2,0.5,0.3,0.6,0.5
			c0.1,0.2,0.2,0.4,0.2,0.7v6c2.5-2.8,5.1-4.9,7.6-6.3c2.5-1.3,5.1-2,7.7-2c3,0,5.6,0.5,7.6,1.5c2.1,1,3.7,2.4,5,4.1
			c1.3,1.7,2.2,3.7,2.7,6c0.6,2.3,0.8,5.1,0.8,8.3V121.3z"/>
	</g>
</g>
</svg>
