<?xml version="1.0" encoding="utf-8"?>
<!-- Generator: Adobe Illustrator 22.1.0, SVG Export Plug-In . SVG Version: 6.00 Build 0)  -->
<svg version="1.1" xmlns="http://www.w3.org/2000/svg" xmlns:xlink="http://www.w3.org/1999/xlink" x="0px" y="0px"
	 viewBox="0 0 106.8 180" style="enable-background:new 0 0 106.8 180;" xml:space="preserve">
<style type="text/css">
	.st0{display:none;}
	.st1{display:inline;fill:#FF0000;}
</style>
<g id="bg" class="st0">
	<polygon class="st1" points="104.7,0 104.1,0 104,0 102.6,0 102,0 101.9,0 101.4,0 101.3,0 101.2,0 99.9,0 99.8,0 99.3,0 99.2,0 
		99.1,0 98.7,0 98.6,0 98.5,0 97.2,0 97.1,0 97,0 96.6,0 96.5,0 96.4,0 96,0 95.9,0 95.8,0 94.5,0 94.4,0 94.3,0 93.9,0 93.8,0 
		93.7,0 93.3,0 93.2,0 93,0 92.5,0 91.8,0 91.7,0 91.6,0 91.2,0 91.1,0 90.9,0 90.7,0 90.5,0 90.4,0 90.4,0 89.8,0 89.7,0 89.1,0 
		89,0 88.8,0 88.6,0 88.4,0 88.3,0 88.3,0 88.1,0 87.9,0 87.7,0 87.7,0 87.6,0 87.2,0 87,0 86.9,0 86.7,0 86.5,0 86.3,0 86.2,0 
		86,0 85.8,0 85.6,0 85.6,0 85.5,0 85.4,0 85.2,0 85.1,0 85.1,0 84.9,0 84.8,0 84.6,0 84.4,0 84.3,0 84.2,0 84,0 83.9,0 83.8,0 
		83.7,0 83.5,0 83.3,0 83.1,0 83,0 83,0 82.8,0 82.7,0 82.6,0 82.6,0 82.5,0 82.4,0 82.3,0 82.2,0 82.1,0 81.9,0 81.7,0 81.7,0 
		81.6,0 81.5,0 81.3,0 81.2,0 81.2,0 81,0 81,0 80.9,0 80.5,0 80.5,0 80.3,0 80.2,0 80.1,0 80,0 80,0 79.8,0 79.8,0 79.7,0 79.6,0 
		79.6,0 79.5,0 79.4,0 79.2,0 79.1,0 79,0 78.9,0 78.9,0 78.8,0 78.6,0 78.5,0 78.4,0 78.4,0 78.3,0 78.2,0 77.9,0 77.7,0 77.6,0 
		77.5,0 77.4,0 77.3,0 77.3,0 77.1,0 77.1,0 77,0 77,0 76.9,0 76.8,0 76.8,0 76.7,0 76.5,0 76.5,0 76.4,0 76.2,0 76.2,0 76.1,0 
		75.9,0 75.8,0 75.7,0 75.7,0 75.6,0 75.5,0 75.2,0 75,0 74.9,0 74.9,0 74.7,0 74.6,0 74.5,0 74.4,0 74.4,0 74.3,0 74.3,0 74.1,0 
		74.1,0 74,0 73.8,0 73.8,0 73.8,0 73.6,0 73.6,0 73.6,0 73.4,0 73.2,0 73.1,0 73.1,0 72.9,0 72.9,0 72.8,0 72.4,0 72.4,0 72.3,0 
		72.2,0 72,0 71.9,0 71.7,0 71.7,0 71.7,0 71.6,0 71.5,0 71.5,0 71.5,0 71.3,0 71.1,0 71.1,0 71.1,0 71,0 71,0 71,0 70.8,0 70.8,0 
		70.6,0 70.4,0 70.3,0 70.3,0 70.2,0 70.1,0 69.7,0 69.6,0 69.6,0 69.6,0 69.5,0 69.4,0 69.2,0 69,0 69,0 69,0 68.9,0 68.9,0 
		68.9,0 68.7,0 68.7,0 68.5,0 68.4,0 68.3,0 68.3,0 68.3,0 68.3,0 68.2,0 68.1,0 68.1,0 68.1,0 67.9,0 67.8,0 67.6,0 67.6,0 67.5,0 
		67.4,0 67,0 66.9,0 66.9,0 66.9,0 66.8,0 66.8,0 66.7,0 66.6,0 66.4,0 66.3,0 66.3,0 66.2,0 66.2,0 66.2,0 66.1,0 66,0 66,0 
		65.8,0 65.7,0 65.7,0 65.7,0 65.6,0 65.5,0 65.5,0 65.5,0 65.5,0 65.4,0 65.4,0 65.2,0 65.1,0 65,0 64.9,0 64.8,0 64.6,0 64.3,0 
		64.2,0 64.2,0 64.2,0 64.1,0 64.1,0 64.1,0 64,0 63.9,0 63.7,0 63.6,0 63.6,0 63.6,0 63.5,0 63.4,0 63.4,0 63.4,0 63.3,0 63.1,0 
		63,0 63,0 63,0 62.9,0 62.9,0 62.8,0 62.8,0 62.8,0 62.7,0 62.7,0 62.5,0 62.5,0 62.4,0 62.3,0 62.2,0 62.1,0 62,0 61.6,0 61.5,0 
		61.5,0 61.4,0 61.4,0 61.4,0 61.3,0 61.3,0 61.2,0 61.1,0 60.9,0 60.9,0 60.9,0 60.8,0 60.8,0 60.7,0 60.7,0 60.6,0 60.4,0 60.3,0 
		60.3,0 60.2,0 60.2,0 60.2,0 60.1,0 60,0 60,0 60,0 59.9,0 59.8,0 59.7,0 59.6,0 59.5,0 59.5,0 59.4,0 59.3,0 58.9,0 58.8,0 
		58.8,0 58.8,0 58.7,0 58.6,0 58.6,0 58.6,0 58.5,0 58.3,0 58.2,0 58.2,0 58.1,0 58.1,0 58.1,0 57.9,0 57.9,0 57.7,0 57.7,0 57.6,0 
		57.5,0 57.5,0 57.4,0 57.4,0 57.4,0 57.3,0 57.3,0 57.2,0 57.1,0 57,0 56.9,0 56.8,0 56.8,0 56.7,0 56.7,0 56.5,0 56.3,0 56.1,0 
		56.1,0 56,0 56,0 55.9,0 55.8,0 55.8,0 55.6,0 55.6,0 55.5,0 55.4,0 55.4,0 55.3,0 55.3,0 55.2,0 55.1,0 55,0 54.9,0 54.9,0 
		54.8,0 54.7,0 54.7,0 54.7,0 54.6,0 54.6,0 54.4,0 54.3,0 54.2,0 54.2,0 54.1,0 54,0 54,0 53.9,0 53.8,0 53.7,0 53.6,0 53.5,0 
		53.5,0 53.3,0 53.3,0 53.2,0 53.1,0 53,0 52.9,0 52.8,0 52.8,0 52.7,0 52.6,0 52.6,0 52.5,0 52.4,0 52.2,0 52.2,0 52.1,0 52.1,0 
		52.1,0 52.1,0 51.9,0 51.9,0 51.8,0 51.7,0 51.6,0 51.5,0 51.5,0 51.4,0 51.4,0 51.3,0 51.2,0 51.2,0 51,0 51,0 50.9,0 50.8,0 
		50.8,0 50.7,0 50.7,0 50.5,0 50.3,0 50.1,0 50.1,0 50,0 50,0 50,0 49.8,0 49.7,0 49.6,0 49.6,0 49.5,0 49.4,0 49.4,0 49.4,0 
		49.3,0 49.3,0 49.2,0 49.1,0 49.1,0 48.9,0 48.9,0 48.7,0 48.7,0 48.7,0 48.6,0 48.6,0 48.5,0 48.3,0 48.2,0 48.2,0 48.2,0 48.1,0 
		48,0 48,0 48,0 47.9,0 47.5,0 47.5,0 47.3,0 47.3,0 47.2,0 47.1,0 47,0 47,0 46.8,0 46.8,0 46.8,0 46.7,0 46.6,0 46.6,0 46.6,0 
		46.5,0 46.5,0 46.4,0 46.2,0 46.1,0 46.1,0 46,0 46,0 45.9,0 45.9,0 45.9,0 45.8,0 45.6,0 45.5,0 45.5,0 45.4,0 45.4,0 45.4,0 
		45.3,0 45.3,0 45.2,0 44.9,0 44.7,0 44.6,0 44.5,0 44.4,0 44.3,0 44.3,0 44.1,0 44.1,0 44,0 44,0 44,0 43.9,0 43.9,0 43.8,0 
		43.8,0 43.8,0 43.7,0 43.5,0 43.5,0 43.4,0 43.4,0 43.3,0 43.2,0 43.2,0 43.2,0 43.1,0 42.9,0 42.9,0 42.8,0 42.7,0 42.7,0 42.7,0 
		42.6,0 42.6,0 42.5,0 42.2,0 42,0 41.9,0 41.8,0 41.7,0 41.6,0 41.4,0 41.4,0 41.4,0 41.3,0 41.3,0 41.3,0 41.2,0 41.1,0 41.1,0 
		41.1,0 41,0 40.8,0 40.8,0 40.8,0 40.6,0 40.6,0 40.6,0 40.6,0 40.5,0 40.4,0 40.2,0 40.1,0 40.1,0 40,0 39.9,0 39.9,0 39.9,0 
		39.8,0 39.4,0 39.3,0 39.3,0 39.2,0 39,0 38.9,0 38.7,0 38.7,0 38.7,0 38.6,0 38.5,0 38.5,0 38.5,0 38.5,0 38.4,0 38.3,0 38.1,0 
		38.1,0 38,0 37.9,0 37.9,0 37.8,0 37.8,0 37.8,0 37.6,0 37.4,0 37.3,0 37.2,0 37.2,0 37.2,0 37.1,0 36.7,0 36.6,0 36.6,0 36.5,0 
		36.4,0 36.2,0 36,0 36,0 35.9,0 35.8,0 35.8,0 35.7,0 35.7,0 35.7,0 35.5,0 35.3,0 35.3,0 35.3,0 35.2,0 35.1,0 35.1,0 35.1,0 
		34.9,0 34.8,0 34.6,0 34.5,0 34.5,0 34.4,0 34,0 33.9,0 33.9,0 33.7,0 33.7,0 33.6,0 33.4,0 33.2,0 33.2,0 33.2,0 33,0 33,0 33,0 
		32.8,0 32.7,0 32.7,0 32.5,0 32.5,0 32.4,0 32.4,0 32.4,0 32.2,0 32.1,0 32,0 31.9,0 31.8,0 31.6,0 31.3,0 31.2,0 31.1,0 31.1,0 
		31,0 30.9,0 30.7,0 30.6,0 30.6,0 30.4,0 30.3,0 30.3,0 30.1,0 30,0 30,0 29.9,0 29.8,0 29.8,0 29.7,0 29.7,0 29.5,0 29.5,0 
		29.4,0 29.3,0 29.2,0 29.1,0 28.9,0 28.6,0 28.5,0 28.4,0 28.4,0 28.3,0 28.2,0 28,0 27.9,0 27.9,0 27.8,0 27.7,0 27.6,0 27.4,0 
		27.3,0 27.2,0 27.2,0 27.1,0 27,0 27,0 26.8,0 26.8,0 26.7,0 26.6,0 26.5,0 26.3,0 26.3,0 25.9,0 25.8,0 25.8,0 25.6,0 25.6,0 
		25.5,0 25.3,0 25.2,0 25.1,0 25.1,0 24.9,0 24.7,0 24.6,0 24.5,0 24.4,0 24.3,0 24.2,0 24.2,0 24.1,0 24,0 23.8,0 23.8,0 23.7,0 
		23.5,0 23.3,0 23.1,0 23,0 22.9,0 22.8,0 22.6,0 22.5,0 22.4,0 22.2,0 22,0 21.9,0 21.7,0 21.7,0 21.6,0 21.4,0 21.3,0 21.2,0 
		21.2,0 21,0 20.8,0 20.6,0 20.5,0 20.3,0 20.1,0 19.9,0 19.8,0 19.6,0 19.2,0 19.1,0 19.1,0 18.9,0 18.7,0 18.5,0 18.5,0 18.4,0 
		18.2,0 18,0 17.8,0 17.7,0 17.1,0 17,0 16.4,0 16.4,0 16.3,0 16.1,0 15.9,0 15.7,0 15.6,0 15.2,0 15.1,0 15,0 14.3,0 13.8,0 
		13.6,0 13.5,0 13.1,0 13,0 12.9,0 12.5,0 12.4,0 12.3,0 11,0 10.9,0 10.8,0 10.4,0 10.3,0 10.2,0 9.8,0 9.7,0 9.6,0 8.3,0 8.2,0 
		8.1,0 7.7,0 7.6,0 7.5,0 7,0 6.9,0 5.7,0 5.5,0 5.4,0 4.9,0 4.8,0 4.2,0 2.8,0 2.7,0 2.1,0 0,0 0,180 2.1,180 2.7,180 2.8,180 
		4.2,180 4.8,180 4.9,180 5.4,180 5.5,180 5.7,180 6.9,180 7,180 7.5,180 7.6,180 7.7,180 8.1,180 8.2,180 8.3,180 9.6,180 9.7,180 
		9.8,180 10.2,180 10.3,180 10.4,180 10.8,180 10.9,180 11,180 12.3,180 12.4,180 12.5,180 12.9,180 13,180 13.1,180 13.5,180 
		13.6,180 13.8,180 14.3,180 15,180 15.1,180 15.2,180 15.6,180 15.7,180 15.9,180 16.1,180 16.3,180 16.4,180 16.4,180 17,180 
		17.1,180 17.7,180 17.8,180 18,180 18.2,180 18.4,180 18.5,180 18.5,180 18.7,180 18.9,180 19.1,180 19.1,180 19.2,180 19.6,180 
		19.8,180 19.9,180 20.1,180 20.3,180 20.5,180 20.6,180 20.8,180 21,180 21.2,180 21.2,180 21.3,180 21.4,180 21.6,180 21.7,180 
		21.7,180 21.9,180 22,180 22.2,180 22.4,180 22.5,180 22.6,180 22.8,180 22.9,180 23,180 23.1,180 23.3,180 23.5,180 23.7,180 
		23.8,180 23.8,180 24,180 24.1,180 24.2,180 24.2,180 24.3,180 24.4,180 24.5,180 24.6,180 24.7,180 24.9,180 25.1,180 25.1,180 
		25.2,180 25.3,180 25.5,180 25.6,180 25.6,180 25.8,180 25.8,180 25.9,180 26.3,180 26.3,180 26.5,180 26.6,180 26.7,180 26.8,180 
		26.8,180 27,180 27,180 27.1,180 27.2,180 27.2,180 27.3,180 27.4,180 27.6,180 27.7,180 27.8,180 27.9,180 27.9,180 28,180 
		28.2,180 28.3,180 28.4,180 28.4,180 28.5,180 28.6,180 28.9,180 29.1,180 29.2,180 29.3,180 29.4,180 29.5,180 29.5,180 29.7,180 
		29.7,180 29.8,180 29.8,180 29.9,180 30,180 30,180 30.1,180 30.3,180 30.3,180 30.4,180 30.6,180 30.6,180 30.7,180 30.9,180 
		31,180 31.1,180 31.1,180 31.2,180 31.3,180 31.6,180 31.8,180 31.9,180 32,180 32.1,180 32.2,180 32.4,180 32.4,180 32.4,180 
		32.5,180 32.5,180 32.7,180 32.7,180 32.8,180 33,180 33,180 33,180 33.2,180 33.2,180 33.2,180 33.4,180 33.6,180 33.7,180 
		33.7,180 33.9,180 33.9,180 34,180 34.4,180 34.5,180 34.5,180 34.6,180 34.8,180 34.9,180 35.1,180 35.1,180 35.1,180 35.2,180 
		35.3,180 35.3,180 35.3,180 35.5,180 35.7,180 35.7,180 35.7,180 35.8,180 35.8,180 35.9,180 36,180 36,180 36.2,180 36.4,180 
		36.5,180 36.6,180 36.6,180 36.7,180 37.1,180 37.2,180 37.2,180 37.2,180 37.3,180 37.4,180 37.6,180 37.8,180 37.8,180 37.8,180 
		37.9,180 37.9,180 38,180 38.1,180 38.1,180 38.3,180 38.4,180 38.5,180 38.5,180 38.5,180 38.5,180 38.6,180 38.7,180 38.7,180 
		38.7,180 38.9,180 39,180 39.2,180 39.3,180 39.3,180 39.4,180 39.8,180 39.9,180 39.9,180 39.9,180 40,180 40.1,180 40.1,180 
		40.2,180 40.4,180 40.5,180 40.6,180 40.6,180 40.6,180 40.6,180 40.8,180 40.8,180 40.8,180 41,180 41.1,180 41.1,180 41.1,180 
		41.2,180 41.3,180 41.3,180 41.3,180 41.4,180 41.4,180 41.4,180 41.6,180 41.7,180 41.8,180 41.9,180 42,180 42.2,180 42.5,180 
		42.6,180 42.6,180 42.7,180 42.7,180 42.7,180 42.8,180 42.9,180 42.9,180 43.1,180 43.2,180 43.2,180 43.2,180 43.3,180 43.4,180 
		43.4,180 43.5,180 43.5,180 43.7,180 43.8,180 43.8,180 43.8,180 43.9,180 43.9,180 44,180 44,180 44,180 44.1,180 44.1,180 
		44.3,180 44.3,180 44.4,180 44.5,180 44.6,180 44.7,180 44.9,180 45.2,180 45.3,180 45.3,180 45.4,180 45.4,180 45.4,180 45.5,180 
		45.5,180 45.6,180 45.8,180 45.9,180 45.9,180 45.9,180 46,180 46,180 46.1,180 46.1,180 46.2,180 46.4,180 46.5,180 46.5,180 
		46.6,180 46.6,180 46.6,180 46.7,180 46.8,180 46.8,180 46.8,180 47,180 47,180 47.1,180 47.2,180 47.3,180 47.3,180 47.5,180 
		47.5,180 47.9,180 48,180 48,180 48,180 48.1,180 48.2,180 48.2,180 48.2,180 48.3,180 48.5,180 48.6,180 48.6,180 48.7,180 
		48.7,180 48.7,180 48.9,180 48.9,180 49.1,180 49.1,180 49.2,180 49.3,180 49.3,180 49.4,180 49.4,180 49.4,180 49.5,180 49.6,180 
		49.6,180 49.7,180 49.8,180 50,180 50,180 50,180 50.1,180 50.1,180 50.3,180 50.5,180 50.7,180 50.7,180 50.8,180 50.8,180 
		50.9,180 51,180 51,180 51.2,180 51.2,180 51.3,180 51.4,180 51.4,180 51.5,180 51.5,180 51.6,180 51.7,180 51.8,180 51.9,180 
		51.9,180 52.1,180 52.1,180 52.1,180 52.1,180 52.2,180 52.2,180 52.4,180 52.5,180 52.6,180 52.6,180 52.7,180 52.8,180 52.8,180 
		52.9,180 53,180 53.1,180 53.2,180 53.3,180 53.3,180 53.5,180 53.5,180 53.6,180 53.7,180 53.8,180 53.9,180 54,180 54,180 
		54.1,180 54.2,180 54.2,180 54.3,180 54.4,180 54.6,180 54.6,180 54.7,180 54.7,180 54.7,180 54.8,180 54.9,180 54.9,180 55,180 
		55.1,180 55.2,180 55.3,180 55.3,180 55.4,180 55.4,180 55.5,180 55.6,180 55.6,180 55.8,180 55.8,180 55.9,180 56,180 56,180 
		56.1,180 56.1,180 56.3,180 56.5,180 56.7,180 56.7,180 56.8,180 56.8,180 56.9,180 57,180 57.1,180 57.2,180 57.3,180 57.3,180 
		57.4,180 57.4,180 57.4,180 57.5,180 57.5,180 57.6,180 57.7,180 57.7,180 57.9,180 57.9,180 58.1,180 58.1,180 58.1,180 58.2,180 
		58.2,180 58.3,180 58.5,180 58.6,180 58.6,180 58.6,180 58.7,180 58.8,180 58.8,180 58.8,180 58.9,180 59.3,180 59.4,180 59.5,180 
		59.5,180 59.6,180 59.7,180 59.8,180 59.9,180 60,180 60,180 60,180 60.1,180 60.2,180 60.2,180 60.2,180 60.3,180 60.3,180 
		60.4,180 60.6,180 60.7,180 60.7,180 60.8,180 60.8,180 60.9,180 60.9,180 60.9,180 61.1,180 61.2,180 61.3,180 61.3,180 61.4,180 
		61.4,180 61.4,180 61.5,180 61.5,180 61.6,180 62,180 62.1,180 62.2,180 62.3,180 62.4,180 62.5,180 62.5,180 62.7,180 62.7,180 
		62.8,180 62.8,180 62.8,180 62.9,180 62.9,180 63,180 63,180 63,180 63.1,180 63.3,180 63.4,180 63.4,180 63.4,180 63.5,180 
		63.6,180 63.6,180 63.6,180 63.7,180 63.9,180 64,180 64.1,180 64.1,180 64.1,180 64.2,180 64.2,180 64.2,180 64.3,180 64.6,180 
		64.8,180 64.9,180 65,180 65.1,180 65.2,180 65.4,180 65.4,180 65.5,180 65.5,180 65.5,180 65.5,180 65.6,180 65.7,180 65.7,180 
		65.7,180 65.8,180 66,180 66,180 66.1,180 66.2,180 66.2,180 66.2,180 66.3,180 66.3,180 66.4,180 66.6,180 66.7,180 66.8,180 
		66.8,180 66.9,180 66.9,180 66.9,180 67,180 67.4,180 67.5,180 67.6,180 67.6,180 67.8,180 67.9,180 68.1,180 68.1,180 68.1,180 
		68.2,180 68.3,180 68.3,180 68.3,180 68.3,180 68.4,180 68.5,180 68.7,180 68.7,180 68.9,180 68.9,180 68.9,180 69,180 69,180 
		69,180 69.2,180 69.4,180 69.5,180 69.6,180 69.6,180 69.6,180 69.7,180 70.1,180 70.2,180 70.3,180 70.3,180 70.4,180 70.6,180 
		70.8,180 70.8,180 71,180 71,180 71,180 71.1,180 71.1,180 71.1,180 71.3,180 71.5,180 71.5,180 71.5,180 71.6,180 71.7,180 
		71.7,180 71.7,180 71.9,180 72,180 72.2,180 72.3,180 72.4,180 72.4,180 72.8,180 72.9,180 72.9,180 73.1,180 73.1,180 73.2,180 
		73.4,180 73.6,180 73.6,180 73.6,180 73.8,180 73.8,180 73.8,180 74,180 74.1,180 74.1,180 74.3,180 74.3,180 74.4,180 74.4,180 
		74.5,180 74.6,180 74.7,180 74.9,180 74.9,180 75,180 75.2,180 75.5,180 75.6,180 75.7,180 75.7,180 75.8,180 75.9,180 76.1,180 
		76.2,180 76.2,180 76.4,180 76.5,180 76.5,180 76.7,180 76.8,180 76.8,180 76.9,180 77,180 77,180 77.1,180 77.1,180 77.3,180 
		77.3,180 77.4,180 77.5,180 77.6,180 77.7,180 77.9,180 78.2,180 78.3,180 78.4,180 78.4,180 78.5,180 78.6,180 78.8,180 78.9,180 
		78.9,180 79,180 79.1,180 79.2,180 79.4,180 79.5,180 79.6,180 79.6,180 79.7,180 79.8,180 79.8,180 80,180 80,180 80.1,180 
		80.2,180 80.3,180 80.5,180 80.5,180 80.9,180 81,180 81,180 81.2,180 81.2,180 81.3,180 81.5,180 81.6,180 81.7,180 81.7,180 
		81.9,180 82.1,180 82.2,180 82.3,180 82.4,180 82.5,180 82.6,180 82.6,180 82.7,180 82.8,180 83,180 83,180 83.1,180 83.3,180 
		83.5,180 83.7,180 83.8,180 83.9,180 84,180 84.2,180 84.3,180 84.4,180 84.6,180 84.8,180 84.9,180 85.1,180 85.1,180 85.2,180 
		85.4,180 85.5,180 85.6,180 85.6,180 85.8,180 86,180 86.2,180 86.3,180 86.5,180 86.7,180 86.9,180 87,180 87.2,180 87.6,180 
		87.7,180 87.7,180 87.9,180 88.1,180 88.3,180 88.3,180 88.4,180 88.6,180 88.8,180 89,180 89.1,180 89.7,180 89.8,180 90.4,180 
		90.4,180 90.5,180 90.7,180 90.9,180 91.1,180 91.2,180 91.6,180 91.7,180 91.8,180 92.5,180 93,180 93.2,180 93.3,180 93.7,180 
		93.8,180 93.9,180 94.3,180 94.4,180 94.5,180 95.8,180 95.9,180 96,180 96.4,180 96.5,180 96.6,180 97,180 97.1,180 97.2,180 
		98.5,180 98.6,180 98.7,180 99.1,180 99.2,180 99.3,180 99.8,180 99.9,180 101.2,180 101.3,180 101.4,180 101.9,180 102,180 
		102.6,180 104,180 104.1,180 104.7,180 106.8,180 106.8,0 	"/>
</g>
<g id="figure">
	<g>
		<path d="M51.6,96.7c0,1.3-0.3,2.2-1,2.8c-0.7,0.6-1.4,0.8-2.2,0.8H18.6c0,2.5,0.3,4.8,0.8,6.8c0.5,2,1.3,3.7,2.5,5.2
			c1.2,1.4,2.7,2.5,4.6,3.3c1.9,0.8,4.2,1.2,6.9,1.2c2.2,0,4.1-0.2,5.8-0.5c1.7-0.4,3.1-0.7,4.4-1.2c1.2-0.4,2.2-0.8,3-1.2
			c0.8-0.4,1.4-0.5,1.8-0.5c0.2,0,0.4,0.1,0.6,0.2c0.2,0.1,0.3,0.3,0.4,0.5c0.1,0.2,0.2,0.6,0.2,1s0.1,0.9,0.1,1.5
			c0,0.4,0,0.8-0.1,1.1c0,0.3-0.1,0.6-0.1,0.9c0,0.3-0.1,0.5-0.3,0.7c-0.1,0.2-0.3,0.4-0.5,0.6c-0.2,0.2-0.7,0.5-1.6,0.9
			c-0.9,0.4-2.1,0.8-3.5,1.2c-1.4,0.4-3.1,0.8-5,1.1c-1.9,0.3-3.9,0.5-6.1,0.5c-3.7,0-7-0.5-9.8-1.6c-2.8-1-5.2-2.6-7.1-4.6
			c-1.9-2-3.4-4.6-4.3-7.7c-1-3.1-1.5-6.7-1.5-10.8c0-3.9,0.5-7.4,1.5-10.5c1-3.1,2.5-5.7,4.4-7.9c1.9-2.2,4.2-3.8,6.9-5
			c2.7-1.2,5.7-1.7,9-1.7c3.6,0,6.6,0.6,9.1,1.7c2.5,1.1,4.6,2.7,6.2,4.6c1.6,1.9,2.8,4.2,3.5,6.8c0.8,2.6,1.1,5.4,1.1,8.3V96.7z
			 M43.3,94.3c0.1-4.4-0.9-7.8-2.9-10.3c-2-2.5-5.1-3.7-9.1-3.7c-2.1,0-3.9,0.4-5.4,1.2c-1.6,0.8-2.9,1.8-3.9,3.1
			c-1,1.3-1.9,2.8-2.4,4.5c-0.6,1.7-0.9,3.5-1,5.3H43.3z"/>
		<path d="M96.8,114.4c0,0.6,0,1.1-0.1,1.5c0,0.4-0.1,0.8-0.2,1.1c-0.1,0.3-0.2,0.5-0.3,0.8c-0.1,0.2-0.4,0.5-0.8,1
			c-0.4,0.4-1.1,0.9-2.1,1.6c-1,0.6-2.1,1.2-3.4,1.7c-1.3,0.5-2.6,0.9-4.1,1.2c-1.5,0.3-3,0.5-4.6,0.5c-3.3,0-6.1-0.5-8.7-1.6
			c-2.5-1.1-4.6-2.6-6.3-4.7c-1.7-2.1-3-4.6-3.9-7.6c-0.9-3-1.3-6.5-1.3-10.4c0-4.5,0.5-8.3,1.6-11.5c1.1-3.2,2.6-5.8,4.5-7.9
			c1.9-2,4.1-3.6,6.7-4.6c2.6-1,5.3-1.5,8.3-1.5c1.4,0,2.8,0.1,4.2,0.4c1.4,0.3,2.6,0.6,3.7,1.1c1.1,0.4,2.2,0.9,3,1.5
			c0.9,0.6,1.5,1.1,1.9,1.5s0.7,0.7,0.8,1c0.2,0.2,0.3,0.5,0.4,0.8c0.1,0.3,0.2,0.7,0.2,1.1c0,0.4,0.1,0.9,0.1,1.5
			c0,1.3-0.2,2.2-0.5,2.7c-0.3,0.5-0.7,0.8-1.1,0.8c-0.5,0-1.1-0.3-1.7-0.8c-0.7-0.6-1.5-1.2-2.5-1.8c-1-0.7-2.2-1.3-3.6-1.8
			c-1.4-0.6-3.1-0.8-5.1-0.8c-4,0-7,1.5-9.2,4.6c-2.1,3.1-3.2,7.5-3.2,13.4c0,2.9,0.3,5.5,0.8,7.7c0.6,2.2,1.4,4,2.4,5.5
			c1.1,1.5,2.4,2.6,3.9,3.3c1.6,0.7,3.3,1.1,5.4,1.1c1.9,0,3.6-0.3,5-0.9c1.4-0.6,2.7-1.3,3.7-2c1.1-0.7,1.9-1.4,2.7-2
			c0.7-0.6,1.3-0.9,1.7-0.9c0.2,0,0.4,0.1,0.6,0.2c0.2,0.1,0.3,0.4,0.4,0.7c0.1,0.3,0.2,0.7,0.3,1.2
			C96.8,113.2,96.8,113.8,96.8,114.4z"/>
	</g>
</g>
</svg>
