<?xml version="1.0" encoding="utf-8"?>
<!-- Generator: Adobe Illustrator 22.1.0, SVG Export Plug-In . SVG Version: 6.00 Build 0)  -->
<svg version="1.1" xmlns="http://www.w3.org/2000/svg" xmlns:xlink="http://www.w3.org/1999/xlink" x="0px" y="0px"
	 viewBox="0 0 28.3 180" style="enable-background:new 0 0 28.3 180;" xml:space="preserve">
<style type="text/css">
	.st0{display:none;}
	.st1{display:inline;fill:#FF0000;}
</style>
<g id="bg" class="st0">
	<polygon class="st1" points="27.7,0 27.6,0 27.5,0 27.2,0 27,0 27,0 26.9,0 26.8,0 26.8,0 26.5,0 26.4,0 26.3,0 26.3,0 26.2,0 
		26.1,0 26.1,0 26.1,0 25.8,0 25.7,0 25.7,0 25.6,0 25.6,0 25.5,0 25.4,0 25.4,0 25.4,0 25,0 25,0 25,0 24.9,0 24.8,0 24.8,0 
		24.7,0 24.7,0 24.7,0 24.5,0 24.3,0 24.3,0 24.3,0 24.2,0 24.1,0 24.1,0 24,0 24,0 24,0 23.9,0 23.8,0 23.8,0 23.6,0 23.6,0 
		23.5,0 23.5,0 23.4,0 23.4,0 23.4,0 23.3,0 23.3,0 23.2,0 23.2,0 23.2,0 23.1,0 23.1,0 23,0 23,0 22.9,0 22.9,0 22.8,0 22.8,0 
		22.7,0 22.7,0 22.7,0 22.7,0 22.6,0 22.6,0 22.5,0 22.5,0 22.5,0 22.5,0 22.4,0 22.4,0 22.3,0 22.3,0 22.3,0 22.2,0 22.2,0 22.2,0 
		22.1,0 22.1,0 22,0 22,0 22,0 21.9,0 21.9,0 21.9,0 21.9,0 21.8,0 21.8,0 21.8,0 21.8,0 21.7,0 21.7,0 21.7,0 21.7,0 21.6,0 
		21.6,0 21.5,0 21.5,0 21.5,0 21.5,0 21.5,0 21.4,0 21.3,0 21.3,0 21.3,0 21.3,0 21.2,0 21.2,0 21.2,0 21.1,0 21.1,0 21.1,0 21.1,0 
		21.1,0 21.1,0 21,0 21,0 20.9,0 20.9,0 20.9,0 20.9,0 20.9,0 20.8,0 20.8,0 20.8,0 20.8,0 20.8,0 20.7,0 20.6,0 20.6,0 20.6,0 
		20.5,0 20.5,0 20.5,0 20.5,0 20.4,0 20.4,0 20.4,0 20.4,0 20.4,0 20.4,0 20.3,0 20.3,0 20.3,0 20.3,0 20.2,0 20.2,0 20.2,0 20.2,0 
		20.1,0 20.1,0 20.1,0 20,0 20,0 20,0 19.9,0 19.9,0 19.8,0 19.8,0 19.8,0 19.8,0 19.7,0 19.7,0 19.7,0 19.7,0 19.7,0 19.6,0 
		19.6,0 19.6,0 19.6,0 19.5,0 19.5,0 19.5,0 19.5,0 19.5,0 19.4,0 19.4,0 19.4,0 19.4,0 19.3,0 19.3,0 19.3,0 19.2,0 19.2,0 19.1,0 
		19.1,0 19.1,0 19,0 19,0 19,0 19,0 19,0 19,0 19,0 18.9,0 18.9,0 18.8,0 18.8,0 18.8,0 18.8,0 18.8,0 18.8,0 18.8,0 18.8,0 18.7,0 
		18.6,0 18.6,0 18.6,0 18.6,0 18.6,0 18.5,0 18.4,0 18.4,0 18.4,0 18.4,0 18.4,0 18.3,0 18.3,0 18.3,0 18.3,0 18.2,0 18.2,0 18.2,0 
		18.2,0 18.2,0 18.2,0 18.1,0 18.1,0 18.1,0 18.1,0 18.1,0 18.1,0 18.1,0 18.1,0 18,0 18,0 18,0 17.9,0 17.9,0 17.9,0 17.9,0 
		17.8,0 17.7,0 17.7,0 17.7,0 17.7,0 17.7,0 17.7,0 17.6,0 17.6,0 17.6,0 17.6,0 17.5,0 17.5,0 17.5,0 17.5,0 17.5,0 17.5,0 17.4,0 
		17.4,0 17.4,0 17.4,0 17.4,0 17.4,0 17.4,0 17.3,0 17.3,0 17.3,0 17.3,0 17.3,0 17.2,0 17.2,0 17.2,0 17.2,0 17.1,0 17,0 17,0 
		17,0 17,0 17,0 17,0 17,0 16.9,0 16.9,0 16.9,0 16.8,0 16.8,0 16.8,0 16.8,0 16.8,0 16.8,0 16.8,0 16.8,0 16.7,0 16.7,0 16.7,0 
		16.7,0 16.7,0 16.7,0 16.6,0 16.6,0 16.6,0 16.6,0 16.6,0 16.6,0 16.6,0 16.5,0 16.5,0 16.5,0 16.5,0 16.4,0 16.3,0 16.3,0 16.3,0 
		16.3,0 16.3,0 16.3,0 16.2,0 16.2,0 16.2,0 16.2,0 16.1,0 16.1,0 16.1,0 16.1,0 16.1,0 16.1,0 16.1,0 16.1,0 16,0 16,0 16,0 
		15.9,0 15.9,0 15.9,0 15.9,0 15.9,0 15.9,0 15.9,0 15.9,0 15.8,0 15.8,0 15.8,0 15.8,0 15.8,0 15.7,0 15.7,0 15.6,0 15.6,0 15.6,0 
		15.6,0 15.5,0 15.5,0 15.5,0 15.5,0 15.5,0 15.4,0 15.4,0 15.4,0 15.4,0 15.4,0 15.4,0 15.4,0 15.3,0 15.3,0 15.3,0 15.3,0 15.2,0 
		15.2,0 15.2,0 15.2,0 15.2,0 15.2,0 15.2,0 15.1,0 15.1,0 15.1,0 15.1,0 15.1,0 15.1,0 15,0 15,0 15,0 14.9,0 14.9,0 14.9,0 
		14.8,0 14.8,0 14.8,0 14.8,0 14.8,0 14.7,0 14.7,0 14.7,0 14.7,0 14.7,0 14.7,0 14.6,0 14.6,0 14.6,0 14.6,0 14.5,0 14.5,0 14.5,0 
		14.5,0 14.5,0 14.5,0 14.5,0 14.5,0 14.4,0 14.4,0 14.4,0 14.4,0 14.3,0 14.3,0 14.3,0 14.3,0 14.3,0 14.2,0 14.2,0 14.2,0 14.2,0 
		14.1,0 14.1,0 14.1,0 14.1,0 14,0 14,0 14,0 14,0 14,0 13.9,0 13.9,0 13.9,0 13.9,0 13.8,0 13.8,0 13.8,0 13.8,0 13.8,0 13.8,0 
		13.8,0 13.7,0 13.7,0 13.7,0 13.7,0 13.7,0 13.6,0 13.6,0 13.6,0 13.6,0 13.6,0 13.6,0 13.5,0 13.5,0 13.5,0 13.5,0 13.5,0 13.4,0 
		13.4,0 13.4,0 13.3,0 13.3,0 13.3,0 13.2,0 13.2,0 13.2,0 13.2,0 13.2,0 13.1,0 13.1,0 13.1,0 13.1,0 13.1,0 13.1,0 13.1,0 13.1,0 
		13,0 13,0 13,0 13,0 12.9,0 12.9,0 12.9,0 12.9,0 12.9,0 12.9,0 12.8,0 12.8,0 12.8,0 12.8,0 12.8,0 12.8,0 12.7,0 12.7,0 12.7,0 
		12.7,0 12.6,0 12.6,0 12.5,0 12.5,0 12.5,0 12.5,0 12.4,0 12.4,0 12.4,0 12.4,0 12.4,0 12.4,0 12.4,0 12.4,0 12.4,0 12.3,0 12.3,0 
		12.3,0 12.2,0 12.2,0 12.2,0 12.2,0 12.2,0 12.2,0 12.2,0 12.2,0 12.1,0 12.1,0 12.1,0 12,0 12,0 12,0 12,0 12,0 12,0 12,0 11.9,0 
		11.8,0 11.8,0 11.8,0 11.8,0 11.7,0 11.7,0 11.7,0 11.7,0 11.7,0 11.7,0 11.6,0 11.6,0 11.6,0 11.6,0 11.6,0 11.6,0 11.6,0 11.5,0 
		11.5,0 11.5,0 11.5,0 11.5,0 11.5,0 11.4,0 11.4,0 11.4,0 11.4,0 11.4,0 11.3,0 11.3,0 11.3,0 11.3,0 11.3,0 11.3,0 11.3,0 11.2,0 
		11.1,0 11.1,0 11.1,0 11,0 11,0 11,0 11,0 11,0 11,0 10.9,0 10.9,0 10.9,0 10.9,0 10.9,0 10.9,0 10.9,0 10.8,0 10.8,0 10.8,0 
		10.8,0 10.8,0 10.8,0 10.7,0 10.7,0 10.7,0 10.6,0 10.6,0 10.6,0 10.6,0 10.6,0 10.6,0 10.6,0 10.5,0 10.4,0 10.4,0 10.4,0 10.4,0 
		10.3,0 10.3,0 10.2,0 10.2,0 10.2,0 10.2,0 10.2,0 10.2,0 10.2,0 10.2,0 10.2,0 10.1,0 10.1,0 10.1,0 10.1,0 10.1,0 10,0 10,0 
		10,0 10,0 10,0 9.9,0 9.9,0 9.9,0 9.9,0 9.9,0 9.8,0 9.7,0 9.7,0 9.7,0 9.7,0 9.7,0 9.6,0 9.5,0 9.5,0 9.5,0 9.5,0 9.5,0 9.5,0 
		9.5,0 9.5,0 9.4,0 9.4,0 9.3,0 9.3,0 9.3,0 9.3,0 9.3,0 9.3,0 9.3,0 9.2,0 9.2,0 9.2,0 9.1,0 9.1,0 9,0 9,0 9,0 8.9,0 8.9,0 8.9,0 
		8.9,0 8.8,0 8.8,0 8.8,0 8.8,0 8.7,0 8.7,0 8.7,0 8.7,0 8.7,0 8.6,0 8.6,0 8.6,0 8.6,0 8.6,0 8.5,0 8.5,0 8.5,0 8.5,0 8.4,0 8.4,0 
		8.3,0 8.3,0 8.3,0 8.2,0 8.2,0 8.2,0 8.1,0 8.1,0 8.1,0 8.1,0 8,0 8,0 8,0 7.9,0 7.9,0 7.9,0 7.9,0 7.9,0 7.9,0 7.9,0 7.8,0 7.8,0 
		7.8,0 7.8,0 7.7,0 7.7,0 7.7,0 7.6,0 7.5,0 7.5,0 7.5,0 7.5,0 7.5,0 7.4,0 7.4,0 7.4,0 7.4,0 7.3,0 7.3,0 7.3,0 7.2,0 7.2,0 7.2,0 
		7.2,0 7.2,0 7.2,0 7.1,0 7.1,0 7.1,0 7,0 7,0 7,0 7,0 6.9,0 6.8,0 6.8,0 6.8,0 6.8,0 6.8,0 6.7,0 6.7,0 6.6,0 6.6,0 6.6,0 6.5,0 
		6.5,0 6.5,0 6.5,0 6.4,0 6.4,0 6.4,0 6.4,0 6.4,0 6.3,0 6.3,0 6.3,0 6.2,0 6.2,0 6.1,0 6.1,0 6.1,0 6,0 6,0 6,0 5.9,0 5.9,0 5.8,0 
		5.8,0 5.8,0 5.8,0 5.7,0 5.7,0 5.6,0 5.6,0 5.6,0 5.6,0 5.5,0 5.5,0 5.4,0 5.4,0 5.3,0 5.3,0 5.2,0 5.2,0 5.1,0 5.1,0 5.1,0 5,0 
		5,0 4.9,0 4.9,0 4.9,0 4.8,0 4.8,0 4.7,0 4.7,0 4.5,0 4.5,0 4.4,0 4.3,0 4.3,0 4.3,0 4.2,0 4.2,0 4.1,0 4,0 4,0 4,0 3.8,0 3.6,0 
		3.6,0 3.6,0 3.5,0 3.5,0 3.4,0 3.3,0 3.3,0 3.3,0 2.9,0 2.9,0 2.9,0 2.8,0 2.7,0 2.7,0 2.6,0 2.6,0 2.5,0 2.2,0 2.2,0 2.1,0 2.1,0 
		2,0 2,0 1.9,0 1.8,0 1.5,0 1.5,0 1.4,0 1.3,0 1.3,0 1.1,0 0.7,0 0.7,0 0.6,0 0,0 0,180 0.6,180 0.7,180 0.7,180 1.1,180 1.3,180 
		1.3,180 1.4,180 1.5,180 1.5,180 1.8,180 1.9,180 2,180 2,180 2.1,180 2.1,180 2.2,180 2.2,180 2.5,180 2.6,180 2.6,180 2.7,180 
		2.7,180 2.8,180 2.9,180 2.9,180 2.9,180 3.3,180 3.3,180 3.3,180 3.4,180 3.5,180 3.5,180 3.6,180 3.6,180 3.6,180 3.8,180 4,180 
		4,180 4,180 4.1,180 4.2,180 4.2,180 4.3,180 4.3,180 4.3,180 4.4,180 4.5,180 4.5,180 4.7,180 4.7,180 4.8,180 4.8,180 4.9,180 
		4.9,180 4.9,180 5,180 5,180 5.1,180 5.1,180 5.1,180 5.2,180 5.2,180 5.3,180 5.3,180 5.4,180 5.4,180 5.5,180 5.5,180 5.6,180 
		5.6,180 5.6,180 5.6,180 5.7,180 5.7,180 5.8,180 5.8,180 5.8,180 5.8,180 5.9,180 5.9,180 6,180 6,180 6,180 6.1,180 6.1,180 
		6.1,180 6.2,180 6.2,180 6.3,180 6.3,180 6.3,180 6.4,180 6.4,180 6.4,180 6.4,180 6.4,180 6.5,180 6.5,180 6.5,180 6.5,180 
		6.6,180 6.6,180 6.6,180 6.7,180 6.7,180 6.8,180 6.8,180 6.8,180 6.8,180 6.8,180 6.9,180 7,180 7,180 7,180 7,180 7.1,180 
		7.1,180 7.1,180 7.2,180 7.2,180 7.2,180 7.2,180 7.2,180 7.2,180 7.3,180 7.3,180 7.3,180 7.4,180 7.4,180 7.4,180 7.4,180 
		7.5,180 7.5,180 7.5,180 7.5,180 7.5,180 7.6,180 7.7,180 7.7,180 7.7,180 7.8,180 7.8,180 7.8,180 7.8,180 7.9,180 7.9,180 
		7.9,180 7.9,180 7.9,180 7.9,180 7.9,180 8,180 8,180 8,180 8.1,180 8.1,180 8.1,180 8.1,180 8.2,180 8.2,180 8.2,180 8.3,180 
		8.3,180 8.3,180 8.4,180 8.4,180 8.5,180 8.5,180 8.5,180 8.5,180 8.6,180 8.6,180 8.6,180 8.6,180 8.6,180 8.7,180 8.7,180 
		8.7,180 8.7,180 8.7,180 8.8,180 8.8,180 8.8,180 8.8,180 8.9,180 8.9,180 8.9,180 8.9,180 9,180 9,180 9,180 9.1,180 9.1,180 
		9.2,180 9.2,180 9.2,180 9.3,180 9.3,180 9.3,180 9.3,180 9.3,180 9.3,180 9.3,180 9.4,180 9.4,180 9.5,180 9.5,180 9.5,180 
		9.5,180 9.5,180 9.5,180 9.5,180 9.5,180 9.6,180 9.7,180 9.7,180 9.7,180 9.7,180 9.7,180 9.8,180 9.9,180 9.9,180 9.9,180 
		9.9,180 9.9,180 10,180 10,180 10,180 10,180 10,180 10.1,180 10.1,180 10.1,180 10.1,180 10.1,180 10.2,180 10.2,180 10.2,180 
		10.2,180 10.2,180 10.2,180 10.2,180 10.2,180 10.2,180 10.3,180 10.3,180 10.4,180 10.4,180 10.4,180 10.4,180 10.5,180 10.6,180 
		10.6,180 10.6,180 10.6,180 10.6,180 10.6,180 10.6,180 10.7,180 10.7,180 10.7,180 10.8,180 10.8,180 10.8,180 10.8,180 10.8,180 
		10.8,180 10.9,180 10.9,180 10.9,180 10.9,180 10.9,180 10.9,180 10.9,180 11,180 11,180 11,180 11,180 11,180 11,180 11.1,180 
		11.1,180 11.1,180 11.2,180 11.3,180 11.3,180 11.3,180 11.3,180 11.3,180 11.3,180 11.3,180 11.4,180 11.4,180 11.4,180 11.4,180 
		11.4,180 11.5,180 11.5,180 11.5,180 11.5,180 11.5,180 11.5,180 11.6,180 11.6,180 11.6,180 11.6,180 11.6,180 11.6,180 11.6,180 
		11.7,180 11.7,180 11.7,180 11.7,180 11.7,180 11.7,180 11.8,180 11.8,180 11.8,180 11.8,180 11.9,180 12,180 12,180 12,180 
		12,180 12,180 12,180 12,180 12.1,180 12.1,180 12.1,180 12.2,180 12.2,180 12.2,180 12.2,180 12.2,180 12.2,180 12.2,180 
		12.2,180 12.3,180 12.3,180 12.3,180 12.4,180 12.4,180 12.4,180 12.4,180 12.4,180 12.4,180 12.4,180 12.4,180 12.4,180 12.5,180 
		12.5,180 12.5,180 12.5,180 12.6,180 12.6,180 12.7,180 12.7,180 12.7,180 12.7,180 12.8,180 12.8,180 12.8,180 12.8,180 12.8,180 
		12.8,180 12.9,180 12.9,180 12.9,180 12.9,180 12.9,180 12.9,180 13,180 13,180 13,180 13,180 13.1,180 13.1,180 13.1,180 
		13.1,180 13.1,180 13.1,180 13.1,180 13.1,180 13.2,180 13.2,180 13.2,180 13.2,180 13.2,180 13.3,180 13.3,180 13.3,180 13.4,180 
		13.4,180 13.4,180 13.5,180 13.5,180 13.5,180 13.5,180 13.5,180 13.6,180 13.6,180 13.6,180 13.6,180 13.6,180 13.6,180 13.7,180 
		13.7,180 13.7,180 13.7,180 13.7,180 13.8,180 13.8,180 13.8,180 13.8,180 13.8,180 13.8,180 13.8,180 13.9,180 13.9,180 13.9,180 
		13.9,180 14,180 14,180 14,180 14,180 14,180 14.1,180 14.1,180 14.1,180 14.1,180 14.2,180 14.2,180 14.2,180 14.2,180 14.3,180 
		14.3,180 14.3,180 14.3,180 14.3,180 14.4,180 14.4,180 14.4,180 14.4,180 14.5,180 14.5,180 14.5,180 14.5,180 14.5,180 14.5,180 
		14.5,180 14.5,180 14.6,180 14.6,180 14.6,180 14.6,180 14.7,180 14.7,180 14.7,180 14.7,180 14.7,180 14.7,180 14.8,180 14.8,180 
		14.8,180 14.8,180 14.8,180 14.9,180 14.9,180 14.9,180 15,180 15,180 15,180 15.1,180 15.1,180 15.1,180 15.1,180 15.1,180 
		15.1,180 15.2,180 15.2,180 15.2,180 15.2,180 15.2,180 15.2,180 15.2,180 15.3,180 15.3,180 15.3,180 15.3,180 15.4,180 15.4,180 
		15.4,180 15.4,180 15.4,180 15.4,180 15.4,180 15.5,180 15.5,180 15.5,180 15.5,180 15.5,180 15.6,180 15.6,180 15.6,180 15.6,180 
		15.7,180 15.7,180 15.8,180 15.8,180 15.8,180 15.8,180 15.8,180 15.9,180 15.9,180 15.9,180 15.9,180 15.9,180 15.9,180 15.9,180 
		15.9,180 16,180 16,180 16,180 16.1,180 16.1,180 16.1,180 16.1,180 16.1,180 16.1,180 16.1,180 16.1,180 16.2,180 16.2,180 
		16.2,180 16.2,180 16.3,180 16.3,180 16.3,180 16.3,180 16.3,180 16.3,180 16.4,180 16.5,180 16.5,180 16.5,180 16.5,180 16.6,180 
		16.6,180 16.6,180 16.6,180 16.6,180 16.6,180 16.6,180 16.7,180 16.7,180 16.7,180 16.7,180 16.7,180 16.7,180 16.8,180 16.8,180 
		16.8,180 16.8,180 16.8,180 16.8,180 16.8,180 16.8,180 16.9,180 16.9,180 16.9,180 17,180 17,180 17,180 17,180 17,180 17,180 
		17,180 17.1,180 17.2,180 17.2,180 17.2,180 17.2,180 17.3,180 17.3,180 17.3,180 17.3,180 17.3,180 17.4,180 17.4,180 17.4,180 
		17.4,180 17.4,180 17.4,180 17.4,180 17.5,180 17.5,180 17.5,180 17.5,180 17.5,180 17.5,180 17.6,180 17.6,180 17.6,180 17.6,180 
		17.7,180 17.7,180 17.7,180 17.7,180 17.7,180 17.7,180 17.8,180 17.9,180 17.9,180 17.9,180 17.9,180 18,180 18,180 18,180 
		18.1,180 18.1,180 18.1,180 18.1,180 18.1,180 18.1,180 18.1,180 18.1,180 18.2,180 18.2,180 18.2,180 18.2,180 18.2,180 18.2,180 
		18.3,180 18.3,180 18.3,180 18.3,180 18.4,180 18.4,180 18.4,180 18.4,180 18.4,180 18.5,180 18.6,180 18.6,180 18.6,180 18.6,180 
		18.6,180 18.7,180 18.8,180 18.8,180 18.8,180 18.8,180 18.8,180 18.8,180 18.8,180 18.8,180 18.9,180 18.9,180 19,180 19,180 
		19,180 19,180 19,180 19,180 19,180 19.1,180 19.1,180 19.1,180 19.2,180 19.2,180 19.3,180 19.3,180 19.3,180 19.4,180 19.4,180 
		19.4,180 19.4,180 19.5,180 19.5,180 19.5,180 19.5,180 19.5,180 19.6,180 19.6,180 19.6,180 19.6,180 19.7,180 19.7,180 19.7,180 
		19.7,180 19.7,180 19.8,180 19.8,180 19.8,180 19.8,180 19.9,180 19.9,180 20,180 20,180 20,180 20.1,180 20.1,180 20.1,180 
		20.2,180 20.2,180 20.2,180 20.2,180 20.3,180 20.3,180 20.3,180 20.3,180 20.4,180 20.4,180 20.4,180 20.4,180 20.4,180 20.4,180 
		20.5,180 20.5,180 20.5,180 20.5,180 20.6,180 20.6,180 20.6,180 20.7,180 20.8,180 20.8,180 20.8,180 20.8,180 20.8,180 20.9,180 
		20.9,180 20.9,180 20.9,180 20.9,180 21,180 21,180 21.1,180 21.1,180 21.1,180 21.1,180 21.1,180 21.1,180 21.2,180 21.2,180 
		21.2,180 21.3,180 21.3,180 21.3,180 21.3,180 21.4,180 21.5,180 21.5,180 21.5,180 21.5,180 21.5,180 21.6,180 21.6,180 21.7,180 
		21.7,180 21.7,180 21.7,180 21.8,180 21.8,180 21.8,180 21.8,180 21.9,180 21.9,180 21.9,180 21.9,180 22,180 22,180 22,180 
		22.1,180 22.1,180 22.2,180 22.2,180 22.2,180 22.3,180 22.3,180 22.3,180 22.4,180 22.4,180 22.5,180 22.5,180 22.5,180 22.5,180 
		22.6,180 22.6,180 22.7,180 22.7,180 22.7,180 22.7,180 22.8,180 22.8,180 22.9,180 22.9,180 23,180 23,180 23.1,180 23.1,180 
		23.2,180 23.2,180 23.2,180 23.3,180 23.3,180 23.4,180 23.4,180 23.4,180 23.5,180 23.5,180 23.6,180 23.6,180 23.8,180 23.8,180 
		23.9,180 24,180 24,180 24,180 24.1,180 24.1,180 24.2,180 24.3,180 24.3,180 24.3,180 24.5,180 24.7,180 24.7,180 24.7,180 
		24.8,180 24.8,180 24.9,180 25,180 25,180 25,180 25.4,180 25.4,180 25.4,180 25.5,180 25.6,180 25.6,180 25.7,180 25.7,180 
		25.8,180 26.1,180 26.1,180 26.1,180 26.2,180 26.3,180 26.3,180 26.4,180 26.5,180 26.8,180 26.8,180 26.9,180 27,180 27,180 
		27.2,180 27.5,180 27.6,180 27.7,180 28.3,180 28.3,0 	"/>
</g>
<g id="figure">
	<path d="M18.3,121.3c0,0.3-0.1,0.5-0.2,0.7c-0.1,0.2-0.4,0.3-0.7,0.5s-0.7,0.2-1.3,0.3c-0.5,0.1-1.2,0.1-2.1,0.1
		c-0.8,0-1.5,0-2-0.1c-0.5-0.1-1-0.2-1.3-0.3c-0.3-0.1-0.5-0.3-0.7-0.5c-0.1-0.2-0.2-0.4-0.2-0.7V54.1c0-0.3,0.1-0.5,0.2-0.7
		c0.1-0.2,0.3-0.4,0.7-0.5c0.3-0.1,0.7-0.2,1.3-0.3c0.5-0.1,1.2-0.1,2-0.1c0.8,0,1.5,0,2.1,0.1c0.5,0.1,1,0.2,1.3,0.3
		c0.3,0.1,0.5,0.3,0.7,0.5c0.1,0.2,0.2,0.4,0.2,0.7V121.3z"/>
</g>
</svg>
