<?xml version="1.0" encoding="utf-8"?>
<!-- Generator: Adobe Illustrator 22.1.0, SVG Export Plug-In . SVG Version: 6.00 Build 0)  -->
<svg version="1.1" xmlns="http://www.w3.org/2000/svg" xmlns:xlink="http://www.w3.org/1999/xlink" x="0px" y="0px"
	 viewBox="0 0 169.4 180" style="enable-background:new 0 0 169.4 180;" xml:space="preserve">
<style type="text/css">
	.st0{display:none;}
	.st1{display:inline;fill:#FF0000;}
</style>
<g id="bg" class="st0">
	<polygon class="st1" points="166.1,0 165.2,0 164.9,0 162.8,0 161.8,0 161.6,0 160.9,0 160.7,0 160.5,0 158.5,0 158.3,0 157.6,0 
		157.4,0 157.1,0 156.6,0 156.4,0 156.2,0 154.3,0 154,0 153.8,0 153.2,0 153.1,0 152.9,0 152.3,0 152.1,0 152,0 149.9,0 149.8,0 
		149.5,0 149,0 148.8,0 148.6,0 148.1,0 147.8,0 147.6,0 146.8,0 145.7,0 145.4,0 145.3,0 144.7,0 144.5,0 144.3,0 143.9,0 143.6,0 
		143.4,0 143.3,0 142.5,0 142.3,0 141.4,0 141.2,0 140.9,0 140.6,0 140.2,0 140.1,0 140,0 139.7,0 139.5,0 139.2,0 139.1,0 138.9,0 
		138.3,0 138,0 137.8,0 137.5,0 137.3,0 136.9,0 136.7,0 136.4,0 136.1,0 135.8,0 135.8,0 135.6,0 135.4,0 135.2,0 135,0 134.9,0 
		134.7,0 134.5,0 134.2,0 133.9,0 133.8,0 133.5,0 133.2,0 133,0 133,0 132.8,0 132.4,0 132.1,0 131.9,0 131.7,0 131.6,0 131.4,0 
		131.1,0 131.1,0 131,0 130.8,0 130.7,0 130.6,0 130.4,0 130.2,0 129.9,0 129.7,0 129.6,0 129.4,0 129.3,0 129,0 128.8,0 128.7,0 
		128.6,0 128.5,0 128.3,0 127.8,0 127.6,0 127.4,0 127.2,0 127.1,0 126.9,0 126.8,0 126.6,0 126.6,0 126.5,0 126.3,0 126.3,0 
		126.1,0 126,0 125.6,0 125.4,0 125.4,0 125.2,0 125.2,0 124.9,0 124.6,0 124.5,0 124.4,0 124.3,0 124.3,0 124.1,0 123.5,0 123.3,0 
		123.2,0 123,0 122.8,0 122.6,0 122.6,0 122.4,0 122.3,0 122.1,0 122.1,0 122.1,0 121.9,0 121.8,0 121.6,0 121.3,0 121.3,0 121.2,0 
		120.9,0 120.9,0 120.7,0 120.4,0 120.2,0 120.1,0 120,0 119.9,0 119.8,0 119.3,0 119,0 118.8,0 118.7,0 118.5,0 118.3,0 118.1,0 
		118,0 118,0 117.9,0 117.8,0 117.6,0 117.6,0 117.4,0 117.1,0 117,0 117,0 116.8,0 116.8,0 116.7,0 116.4,0 116.1,0 115.9,0 
		115.9,0 115.7,0 115.7,0 115.5,0 114.8,0 114.8,0 114.6,0 114.5,0 114.3,0 114,0 113.7,0 113.7,0 113.7,0 113.6,0 113.5,0 113.5,0 
		113.4,0 113.1,0 112.8,0 112.8,0 112.8,0 112.6,0 112.6,0 112.5,0 112.3,0 112.3,0 112,0 111.6,0 111.5,0 111.4,0 111.4,0 111.2,0 
		110.6,0 110.4,0 110.4,0 110.3,0 110.3,0 110.1,0 109.8,0 109.5,0 109.5,0 109.4,0 109.3,0 109.2,0 109.2,0 109,0 109,0 108.7,0 
		108.6,0 108.4,0 108.3,0 108.3,0 108.3,0 108.2,0 108.1,0 108.1,0 108.1,0 107.8,0 107.5,0 107.2,0 107.2,0 107,0 107,0 106.3,0 
		106.2,0 106.1,0 106.1,0 105.9,0 105.9,0 105.9,0 105.7,0 105.4,0 105.2,0 105.1,0 105,0 105,0 105,0 104.8,0 104.7,0 104.7,0 
		104.4,0 104.2,0 104.2,0 104.2,0 104.1,0 103.9,0 103.9,0 103.9,0 103.8,0 103.8,0 103.7,0 103.5,0 103.3,0 103,0 103,0 102.8,0 
		102.5,0 102,0 101.9,0 101.8,0 101.8,0 101.7,0 101.6,0 101.6,0 101.4,0 101.4,0 101.1,0 100.9,0 100.9,0 100.8,0 100.8,0 100.6,0 
		100.5,0 100.5,0 100.5,0 100.2,0 100,0 99.9,0 99.9,0 99.7,0 99.7,0 99.7,0 99.7,0 99.6,0 99.5,0 99.4,0 99.2,0 99.1,0 99,0 
		98.8,0 98.6,0 98.5,0 98.3,0 97.7,0 97.5,0 97.5,0 97.5,0 97.4,0 97.4,0 97.3,0 97.2,0 97.2,0 96.8,0 96.6,0 96.6,0 96.6,0 96.4,0 
		96.4,0 96.4,0 96.3,0 96.1,0 95.8,0 95.7,0 95.7,0 95.5,0 95.5,0 95.4,0 95.3,0 95.2,0 95.2,0 95.2,0 94.9,0 94.9,0 94.7,0 94.5,0 
		94.4,0 94.4,0 94.1,0 94,0 93.5,0 93.3,0 93.3,0 93.2,0 93.1,0 93,0 93,0 92.9,0 92.8,0 92.5,0 92.4,0 92.4,0 92.1,0 92.1,0 
		92.1,0 91.9,0 91.9,0 91.6,0 91.6,0 91.3,0 91.2,0 91.2,0 91.1,0 91,0 91,0 91,0 90.8,0 90.7,0 90.6,0 90.4,0 90.2,0 90.1,0 
		90.1,0 89.9,0 89.9,0 89.7,0 89.3,0 89,0 89,0 88.8,0 88.8,0 88.7,0 88.6,0 88.5,0 88.3,0 88.2,0 88,0 87.9,0 87.9,0 87.7,0 
		87.7,0 87.6,0 87.3,0 87.3,0 87.1,0 87.1,0 86.9,0 86.8,0 86.8,0 86.7,0 86.6,0 86.6,0 86.3,0 86.2,0 86,0 85.9,0 85.9,0 85.7,0 
		85.6,0 85.4,0 85.4,0 85.1,0 85.1,0 84.9,0 84.9,0 84.6,0 84.5,0 84.3,0 84.3,0 84,0 84,0 83.8,0 83.8,0 83.5,0 83.5,0 83.4,0 
		83.3,0 83.1,0 82.9,0 82.8,0 82.7,0 82.6,0 82.6,0 82.6,0 82.3,0 82.3,0 82.1,0 82.1,0 81.8,0 81.8,0 81.7,0 81.5,0 81.5,0 81.4,0 
		81.2,0 81.2,0 80.9,0 80.8,0 80.7,0 80.6,0 80.6,0 80.5,0 80.4,0 80.1,0 79.8,0 79.5,0 79.5,0 79.3,0 79.3,0 79.2,0 79,0 78.8,0 
		78.7,0 78.6,0 78.5,0 78.4,0 78.4,0 78.3,0 78.2,0 78.2,0 78.1,0 77.9,0 77.8,0 77.5,0 77.5,0 77.3,0 77.3,0 77.3,0 77.1,0 77.1,0 
		76.9,0 76.6,0 76.5,0 76.4,0 76.4,0 76.4,0 76.2,0 76.2,0 76.1,0 76,0 75.4,0 75.3,0 75,0 75,0 74.9,0 74.8,0 74.5,0 74.5,0 
		74.2,0 74.2,0 74.2,0 74.1,0 74,0 74,0 74,0 73.7,0 73.7,0 73.6,0 73.3,0 73.2,0 73.1,0 73,0 73,0 72.8,0 72.8,0 72.8,0 72.6,0 
		72.3,0 72.2,0 72.1,0 72.1,0 72,0 71.9,0 71.9,0 71.9,0 71.7,0 71.1,0 70.9,0 70.8,0 70.6,0 70.4,0 70.3,0 70.2,0 70,0 70,0 
		69.8,0 69.8,0 69.7,0 69.7,0 69.7,0 69.5,0 69.5,0 69.5,0 69.2,0 68.9,0 68.9,0 68.9,0 68.8,0 68.7,0 68.6,0 68.6,0 68.5,0 68.3,0 
		68,0 68,0 67.8,0 67.8,0 67.7,0 67.7,0 67.6,0 67.5,0 67.5,0 66.9,0 66.7,0 66.4,0 66.4,0 66.1,0 65.9,0 65.7,0 65.6,0 65.6,0 
		65.6,0 65.5,0 65.5,0 65.3,0 65.3,0 65.2,0 65.2,0 65,0 64.7,0 64.7,0 64.6,0 64.5,0 64.4,0 64.4,0 64.3,0 64.2,0 64.1,0 63.8,0 
		63.6,0 63.5,0 63.5,0 63.3,0 63.3,0 63.3,0 63.1,0 62.5,0 62.4,0 62.3,0 62.2,0 61.9,0 61.7,0 61.4,0 61.3,0 61.3,0 61.3,0 61.1,0 
		61.1,0 61.1,0 61,0 60.9,0 60.7,0 60.4,0 60.4,0 60.2,0 60.2,0 60.2,0 60,0 60,0 59.9,0 59.7,0 59.3,0 59.1,0 59.1,0 59.1,0 59,0 
		58.9,0 58.2,0 58,0 58,0 57.9,0 57.8,0 57.4,0 57.1,0 57.1,0 56.9,0 56.9,0 56.8,0 56.6,0 56.6,0 56.6,0 56.3,0 56.1,0 55.9,0 
		55.9,0 55.8,0 55.7,0 55.7,0 55.7,0 55.4,0 55.2,0 54.9,0 54.8,0 54.7,0 54.6,0 54,0 53.8,0 53.7,0 53.5,0 53.5,0 53.3,0 53,0 
		52.7,0 52.6,0 52.6,0 52.4,0 52.4,0 52.4,0 52.1,0 51.8,0 51.8,0 51.6,0 51.6,0 51.5,0 51.5,0 51.3,0 51.1,0 50.9,0 50.7,0 50.6,0 
		50.4,0 50.2,0 49.6,0 49.5,0 49.4,0 49.3,0 49.2,0 49.1,0 48.7,0 48.5,0 48.5,0 48.3,0 48.1,0 48.1,0 47.8,0 47.6,0 47.6,0 47.4,0 
		47.3,0 47.3,0 47.1,0 47.1,0 46.8,0 46.8,0 46.7,0 46.4,0 46.3,0 46.1,0 45.9,0 45.3,0 45.2,0 45.1,0 45,0 44.9,0 44.8,0 44.5,0 
		44.3,0 44.2,0 44,0 44,0 43.8,0 43.5,0 43.3,0 43.1,0 43.1,0 42.9,0 42.9,0 42.8,0 42.6,0 42.5,0 42.3,0 42.2,0 42,0 41.8,0 
		41.7,0 41.1,0 40.9,0 40.9,0 40.7,0 40.6,0 40.4,0 40.1,0 40,0 39.8,0 39.8,0 39.5,0 39.2,0 39,0 38.9,0 38.7,0 38.6,0 38.5,0 
		38.3,0 38.3,0 38.1,0 37.8,0 37.8,0 37.5,0 37.3,0 37,0 36.6,0 36.4,0 36.4,0 36.2,0 35.9,0 35.7,0 35.5,0 35.3,0 35,0 34.7,0 
		34.5,0 34.4,0 34.2,0 34,0 33.8,0 33.7,0 33.6,0 33.3,0 33.1,0 32.7,0 32.5,0 32.1,0 31.9,0 31.6,0 31.4,0 31.2,0 30.5,0 30.3,0 
		30.2,0 30,0 29.7,0 29.4,0 29.3,0 29.2,0 28.8,0 28.5,0 28.3,0 28,0 27.1,0 26.9,0 26.1,0 26,0 25.8,0 25.5,0 25.2,0 24.9,0 
		24.7,0 24.1,0 24,0 23.8,0 22.7,0 21.8,0 21.6,0 21.4,0 20.8,0 20.7,0 20.4,0 19.9,0 19.6,0 19.5,0 17.5,0 17.3,0 17.1,0 16.5,0 
		16.3,0 16.2,0 15.6,0 15.4,0 15.2,0 13.2,0 13,0 12.9,0 12.3,0 12.1,0 11.8,0 11.1,0 10.9,0 9,0 8.7,0 8.5,0 7.8,0 7.6,0 6.7,0 
		4.5,0 4.3,0 3.3,0 0,0 0,180 3.3,180 4.3,180 4.5,180 6.7,180 7.6,180 7.8,180 8.5,180 8.7,180 9,180 10.9,180 11.1,180 11.8,180 
		12.1,180 12.3,180 12.9,180 13,180 13.2,180 15.2,180 15.4,180 15.6,180 16.2,180 16.3,180 16.5,180 17.1,180 17.3,180 17.5,180 
		19.5,180 19.6,180 19.9,180 20.4,180 20.7,180 20.8,180 21.4,180 21.6,180 21.8,180 22.7,180 23.8,180 24,180 24.1,180 24.7,180 
		24.9,180 25.2,180 25.5,180 25.8,180 26,180 26.1,180 26.9,180 27.1,180 28,180 28.3,180 28.5,180 28.8,180 29.2,180 29.3,180 
		29.4,180 29.7,180 30,180 30.2,180 30.3,180 30.5,180 31.2,180 31.4,180 31.6,180 31.9,180 32.1,180 32.5,180 32.7,180 33.1,180 
		33.3,180 33.6,180 33.7,180 33.8,180 34,180 34.2,180 34.4,180 34.5,180 34.7,180 35,180 35.3,180 35.5,180 35.7,180 35.9,180 
		36.2,180 36.4,180 36.4,180 36.6,180 37,180 37.3,180 37.5,180 37.8,180 37.8,180 38.1,180 38.3,180 38.3,180 38.5,180 38.6,180 
		38.7,180 38.9,180 39,180 39.2,180 39.5,180 39.8,180 39.8,180 40,180 40.1,180 40.4,180 40.6,180 40.7,180 40.9,180 40.9,180 
		41.1,180 41.7,180 41.8,180 42,180 42.2,180 42.3,180 42.5,180 42.6,180 42.8,180 42.9,180 42.9,180 43.1,180 43.1,180 43.3,180 
		43.5,180 43.8,180 44,180 44,180 44.2,180 44.3,180 44.5,180 44.8,180 44.9,180 45,180 45.1,180 45.2,180 45.3,180 45.9,180 
		46.1,180 46.3,180 46.4,180 46.7,180 46.8,180 46.8,180 47.1,180 47.1,180 47.3,180 47.3,180 47.4,180 47.6,180 47.6,180 47.8,180 
		48.1,180 48.1,180 48.3,180 48.5,180 48.5,180 48.7,180 49.1,180 49.2,180 49.3,180 49.4,180 49.5,180 49.6,180 50.2,180 50.4,180 
		50.6,180 50.7,180 50.9,180 51.1,180 51.3,180 51.5,180 51.5,180 51.6,180 51.6,180 51.8,180 51.8,180 52.1,180 52.4,180 52.4,180 
		52.4,180 52.6,180 52.6,180 52.7,180 53,180 53.3,180 53.5,180 53.5,180 53.7,180 53.8,180 54,180 54.6,180 54.7,180 54.8,180 
		54.9,180 55.2,180 55.4,180 55.7,180 55.7,180 55.7,180 55.8,180 55.9,180 55.9,180 56.1,180 56.3,180 56.6,180 56.6,180 56.6,180 
		56.8,180 56.9,180 56.9,180 57.1,180 57.1,180 57.4,180 57.8,180 57.9,180 58,180 58,180 58.2,180 58.9,180 59,180 59.1,180 
		59.1,180 59.1,180 59.3,180 59.7,180 59.9,180 60,180 60,180 60.2,180 60.2,180 60.2,180 60.4,180 60.4,180 60.7,180 60.9,180 
		61,180 61.1,180 61.1,180 61.1,180 61.3,180 61.3,180 61.3,180 61.4,180 61.7,180 61.9,180 62.2,180 62.3,180 62.4,180 62.5,180 
		63.1,180 63.3,180 63.3,180 63.3,180 63.5,180 63.5,180 63.6,180 63.8,180 64.1,180 64.2,180 64.3,180 64.4,180 64.4,180 64.5,180 
		64.6,180 64.7,180 64.7,180 65,180 65.2,180 65.2,180 65.3,180 65.3,180 65.5,180 65.5,180 65.6,180 65.6,180 65.6,180 65.7,180 
		65.9,180 66.1,180 66.4,180 66.4,180 66.7,180 66.9,180 67.5,180 67.5,180 67.6,180 67.7,180 67.7,180 67.8,180 67.8,180 68,180 
		68,180 68.3,180 68.5,180 68.6,180 68.6,180 68.7,180 68.8,180 68.9,180 68.9,180 68.9,180 69.2,180 69.5,180 69.5,180 69.5,180 
		69.7,180 69.7,180 69.7,180 69.8,180 69.8,180 70,180 70,180 70.2,180 70.3,180 70.4,180 70.6,180 70.8,180 70.9,180 71.1,180 
		71.7,180 71.9,180 71.9,180 71.9,180 72,180 72.1,180 72.1,180 72.2,180 72.3,180 72.6,180 72.8,180 72.8,180 72.8,180 73,180 
		73,180 73.1,180 73.2,180 73.3,180 73.6,180 73.7,180 73.7,180 74,180 74,180 74,180 74.1,180 74.2,180 74.2,180 74.2,180 
		74.5,180 74.5,180 74.8,180 74.9,180 75,180 75,180 75.3,180 75.4,180 76,180 76.1,180 76.2,180 76.2,180 76.4,180 76.4,180 
		76.4,180 76.5,180 76.6,180 76.9,180 77.1,180 77.1,180 77.3,180 77.3,180 77.3,180 77.5,180 77.5,180 77.8,180 77.9,180 78.1,180 
		78.2,180 78.2,180 78.3,180 78.4,180 78.4,180 78.5,180 78.6,180 78.7,180 78.8,180 79,180 79.2,180 79.3,180 79.3,180 79.5,180 
		79.5,180 79.8,180 80.1,180 80.4,180 80.5,180 80.6,180 80.6,180 80.7,180 80.8,180 80.9,180 81.2,180 81.2,180 81.4,180 81.5,180 
		81.5,180 81.7,180 81.8,180 81.8,180 82.1,180 82.1,180 82.3,180 82.3,180 82.6,180 82.6,180 82.6,180 82.7,180 82.8,180 82.9,180 
		83.1,180 83.3,180 83.4,180 83.5,180 83.5,180 83.8,180 83.8,180 84,180 84,180 84.3,180 84.3,180 84.5,180 84.6,180 84.9,180 
		84.9,180 85.1,180 85.1,180 85.4,180 85.4,180 85.6,180 85.7,180 85.9,180 85.9,180 86,180 86.2,180 86.3,180 86.6,180 86.6,180 
		86.7,180 86.8,180 86.8,180 86.9,180 87.1,180 87.1,180 87.3,180 87.3,180 87.6,180 87.7,180 87.7,180 87.9,180 87.9,180 88,180 
		88.2,180 88.3,180 88.5,180 88.6,180 88.7,180 88.8,180 88.8,180 89,180 89,180 89.3,180 89.7,180 89.9,180 89.9,180 90.1,180 
		90.1,180 90.2,180 90.4,180 90.6,180 90.7,180 90.8,180 91,180 91,180 91,180 91.1,180 91.2,180 91.2,180 91.3,180 91.6,180 
		91.6,180 91.9,180 91.9,180 92.1,180 92.1,180 92.1,180 92.4,180 92.4,180 92.5,180 92.8,180 92.9,180 93,180 93,180 93.1,180 
		93.2,180 93.3,180 93.3,180 93.5,180 94,180 94.1,180 94.4,180 94.4,180 94.5,180 94.7,180 94.9,180 94.9,180 95.2,180 95.2,180 
		95.2,180 95.3,180 95.4,180 95.5,180 95.5,180 95.7,180 95.7,180 95.8,180 96.1,180 96.3,180 96.4,180 96.4,180 96.4,180 96.6,180 
		96.6,180 96.6,180 96.8,180 97.2,180 97.2,180 97.3,180 97.4,180 97.4,180 97.5,180 97.5,180 97.5,180 97.7,180 98.3,180 98.5,180 
		98.6,180 98.8,180 99,180 99.1,180 99.2,180 99.4,180 99.5,180 99.6,180 99.7,180 99.7,180 99.7,180 99.7,180 99.9,180 99.9,180 
		100,180 100.2,180 100.5,180 100.5,180 100.5,180 100.6,180 100.8,180 100.8,180 100.9,180 100.9,180 101.1,180 101.4,180 
		101.4,180 101.6,180 101.6,180 101.7,180 101.8,180 101.8,180 101.9,180 102,180 102.5,180 102.8,180 103,180 103,180 103.3,180 
		103.5,180 103.7,180 103.8,180 103.8,180 103.9,180 103.9,180 103.9,180 104.1,180 104.2,180 104.2,180 104.2,180 104.4,180 
		104.7,180 104.7,180 104.8,180 105,180 105,180 105,180 105.1,180 105.2,180 105.4,180 105.7,180 105.9,180 105.9,180 105.9,180 
		106.1,180 106.1,180 106.2,180 106.3,180 107,180 107,180 107.2,180 107.2,180 107.5,180 107.8,180 108.1,180 108.1,180 108.1,180 
		108.2,180 108.3,180 108.3,180 108.3,180 108.4,180 108.6,180 108.7,180 109,180 109,180 109.2,180 109.2,180 109.3,180 109.4,180 
		109.5,180 109.5,180 109.8,180 110.1,180 110.3,180 110.3,180 110.4,180 110.4,180 110.6,180 111.2,180 111.4,180 111.4,180 
		111.5,180 111.6,180 112,180 112.3,180 112.3,180 112.5,180 112.6,180 112.6,180 112.8,180 112.8,180 112.8,180 113.1,180 
		113.4,180 113.5,180 113.5,180 113.6,180 113.7,180 113.7,180 113.7,180 114,180 114.3,180 114.5,180 114.6,180 114.8,180 
		114.8,180 115.5,180 115.7,180 115.7,180 115.9,180 115.9,180 116.1,180 116.4,180 116.7,180 116.8,180 116.8,180 117,180 117,180 
		117.1,180 117.4,180 117.6,180 117.6,180 117.8,180 117.9,180 118,180 118,180 118.1,180 118.3,180 118.5,180 118.7,180 118.8,180 
		119,180 119.3,180 119.8,180 119.9,180 120,180 120.1,180 120.2,180 120.4,180 120.7,180 120.9,180 120.9,180 121.2,180 121.3,180 
		121.3,180 121.6,180 121.8,180 121.9,180 122.1,180 122.1,180 122.1,180 122.3,180 122.4,180 122.6,180 122.6,180 122.8,180 
		123,180 123.2,180 123.3,180 123.5,180 124.1,180 124.3,180 124.3,180 124.4,180 124.5,180 124.6,180 124.9,180 125.2,180 
		125.2,180 125.4,180 125.4,180 125.6,180 126,180 126.1,180 126.3,180 126.3,180 126.5,180 126.6,180 126.6,180 126.8,180 
		126.9,180 127.1,180 127.2,180 127.4,180 127.6,180 127.8,180 128.3,180 128.5,180 128.6,180 128.7,180 128.8,180 129,180 
		129.3,180 129.4,180 129.6,180 129.7,180 129.9,180 130.2,180 130.4,180 130.6,180 130.7,180 130.8,180 131,180 131.1,180 
		131.1,180 131.4,180 131.6,180 131.7,180 131.9,180 132.1,180 132.4,180 132.8,180 133,180 133,180 133.2,180 133.5,180 133.8,180 
		133.9,180 134.2,180 134.5,180 134.7,180 134.9,180 135,180 135.2,180 135.4,180 135.6,180 135.8,180 135.8,180 136.1,180 
		136.4,180 136.7,180 136.9,180 137.3,180 137.5,180 137.8,180 138,180 138.3,180 138.9,180 139.1,180 139.2,180 139.5,180 
		139.7,180 140,180 140.1,180 140.2,180 140.6,180 140.9,180 141.2,180 141.4,180 142.3,180 142.5,180 143.3,180 143.4,180 
		143.6,180 143.9,180 144.3,180 144.5,180 144.7,180 145.3,180 145.4,180 145.7,180 146.8,180 147.6,180 147.8,180 148.1,180 
		148.6,180 148.8,180 149,180 149.5,180 149.8,180 149.9,180 152,180 152.1,180 152.3,180 152.9,180 153.1,180 153.2,180 153.8,180 
		154,180 154.3,180 156.2,180 156.4,180 156.6,180 157.1,180 157.4,180 157.6,180 158.3,180 158.5,180 160.5,180 160.7,180 
		160.9,180 161.6,180 161.8,180 162.8,180 164.9,180 165.2,180 166.1,180 169.4,180 169.4,0 	"/>
</g>
<g id="figure">
	<g>
		<path d="M77.1,121.3c0,0.3-0.1,0.5-0.2,0.7c-0.1,0.2-0.4,0.3-0.7,0.5c-0.3,0.1-0.7,0.2-1.3,0.3c-0.5,0.1-1.2,0.1-2,0.1
			c-0.8,0-1.5,0-2.1-0.1c-0.5-0.1-1-0.2-1.3-0.3s-0.5-0.3-0.7-0.5c-0.1-0.2-0.2-0.4-0.2-0.7V93.8c0-1.9-0.2-3.7-0.5-5.2
			c-0.3-1.6-0.9-2.9-1.6-4.1c-0.7-1.1-1.7-2-2.8-2.6c-1.1-0.6-2.5-0.9-4-0.9c-1.9,0-3.8,0.7-5.8,2.2c-1.9,1.5-4,3.6-6.4,6.5v31.6
			c0,0.3-0.1,0.5-0.2,0.7s-0.4,0.3-0.7,0.5s-0.7,0.2-1.3,0.3c-0.5,0.1-1.2,0.1-2,0.1c-0.8,0-1.4,0-2-0.1c-0.6-0.1-1-0.2-1.3-0.3
			c-0.3-0.1-0.5-0.3-0.7-0.5s-0.2-0.4-0.2-0.7V93.8c0-1.9-0.2-3.7-0.6-5.2c-0.4-1.6-0.9-2.9-1.7-4.1c-0.7-1.1-1.7-2-2.8-2.6
			c-1.1-0.6-2.5-0.9-4-0.9c-1.9,0-3.8,0.7-5.8,2.2c-1.9,1.5-4.1,3.6-6.3,6.5v31.6c0,0.3-0.1,0.5-0.2,0.7c-0.1,0.2-0.4,0.3-0.7,0.5
			c-0.3,0.1-0.7,0.2-1.3,0.3c-0.5,0.1-1.2,0.1-2.1,0.1c-0.8,0-1.5,0-2-0.1c-0.5-0.1-1-0.2-1.3-0.3s-0.5-0.3-0.7-0.5
			c-0.1-0.2-0.2-0.4-0.2-0.7V76.1c0-0.3,0-0.5,0.2-0.7c0.1-0.2,0.3-0.4,0.6-0.5c0.3-0.2,0.7-0.3,1.2-0.3c0.5,0,1.1-0.1,1.9-0.1
			c0.7,0,1.3,0,1.8,0.1c0.5,0.1,0.9,0.2,1.1,0.3c0.3,0.2,0.5,0.3,0.6,0.5c0.1,0.2,0.2,0.4,0.2,0.7v6c2.5-2.8,5-4.9,7.4-6.3
			c2.4-1.3,4.8-2,7.3-2c1.9,0,3.6,0.2,5.1,0.7c1.5,0.4,2.8,1,3.9,1.8c1.1,0.8,2.1,1.7,2.9,2.8c0.8,1.1,1.5,2.3,2,3.6
			c1.5-1.6,2.9-3,4.3-4.2c1.4-1.1,2.7-2.1,3.9-2.8c1.3-0.7,2.5-1.2,3.7-1.5c1.2-0.3,2.4-0.5,3.6-0.5c2.9,0,5.4,0.5,7.3,1.5
			c2,1,3.6,2.4,4.8,4.1c1.2,1.7,2.1,3.7,2.6,6c0.5,2.3,0.8,4.7,0.8,7.3V121.3z"/>
		<path d="M159.4,121.3c0,0.3-0.1,0.5-0.2,0.7c-0.1,0.2-0.4,0.3-0.7,0.5c-0.3,0.1-0.7,0.2-1.3,0.3c-0.5,0.1-1.2,0.1-2,0.1
			c-0.8,0-1.5,0-2.1-0.1c-0.5-0.1-1-0.2-1.3-0.3s-0.5-0.3-0.7-0.5c-0.1-0.2-0.2-0.4-0.2-0.7V93.8c0-1.9-0.2-3.7-0.5-5.2
			c-0.3-1.6-0.9-2.9-1.6-4.1c-0.7-1.1-1.7-2-2.8-2.6c-1.1-0.6-2.5-0.9-4-0.9c-1.9,0-3.8,0.7-5.8,2.2c-1.9,1.5-4,3.6-6.4,6.5v31.6
			c0,0.3-0.1,0.5-0.2,0.7s-0.4,0.3-0.7,0.5s-0.7,0.2-1.3,0.3c-0.5,0.1-1.2,0.1-2,0.1c-0.8,0-1.4,0-2-0.1c-0.6-0.1-1-0.2-1.3-0.3
			c-0.3-0.1-0.5-0.3-0.7-0.5s-0.2-0.4-0.2-0.7V93.8c0-1.9-0.2-3.7-0.6-5.2c-0.4-1.6-0.9-2.9-1.7-4.1c-0.7-1.1-1.7-2-2.8-2.6
			c-1.1-0.6-2.5-0.9-4-0.9c-1.9,0-3.8,0.7-5.8,2.2c-1.9,1.5-4.1,3.6-6.3,6.5v31.6c0,0.3-0.1,0.5-0.2,0.7c-0.1,0.2-0.4,0.3-0.7,0.5
			c-0.3,0.1-0.7,0.2-1.3,0.3c-0.5,0.1-1.2,0.1-2.1,0.1c-0.8,0-1.5,0-2-0.1c-0.5-0.1-1-0.2-1.3-0.3s-0.5-0.3-0.7-0.5
			c-0.1-0.2-0.2-0.4-0.2-0.7V76.1c0-0.3,0-0.5,0.2-0.7c0.1-0.2,0.3-0.4,0.6-0.5c0.3-0.2,0.7-0.3,1.2-0.3c0.5,0,1.1-0.1,1.9-0.1
			c0.7,0,1.3,0,1.8,0.1c0.5,0.1,0.9,0.2,1.1,0.3c0.3,0.2,0.5,0.3,0.6,0.5c0.1,0.2,0.2,0.4,0.2,0.7v6c2.5-2.8,5-4.9,7.4-6.3
			c2.4-1.3,4.8-2,7.3-2c1.9,0,3.6,0.2,5.1,0.7c1.5,0.4,2.8,1,3.9,1.8c1.1,0.8,2.1,1.7,2.9,2.8c0.8,1.1,1.5,2.3,2,3.6
			c1.5-1.6,2.9-3,4.3-4.2c1.4-1.1,2.7-2.1,3.9-2.8c1.3-0.7,2.5-1.2,3.7-1.5c1.2-0.3,2.4-0.5,3.6-0.5c2.9,0,5.4,0.5,7.3,1.5
			c2,1,3.6,2.4,4.8,4.1c1.2,1.7,2.1,3.7,2.6,6c0.5,2.3,0.8,4.7,0.8,7.3V121.3z"/>
	</g>
</g>
</svg>
