<?xml version="1.0" encoding="utf-8"?>
<!-- Generator: Adobe Illustrator 22.1.0, SVG Export Plug-In . SVG Version: 6.00 Build 0)  -->
<svg version="1.1" xmlns="http://www.w3.org/2000/svg" xmlns:xlink="http://www.w3.org/1999/xlink" x="0px" y="0px"
	 viewBox="0 0 146.4 180" style="enable-background:new 0 0 146.4 180;" xml:space="preserve">
<style type="text/css">
	.st0{display:none;}
	.st1{display:inline;fill:#FF0000;}
</style>
<g id="bg" class="st0">
	<polygon class="st1" points="143.6,0 142.8,0 142.6,0 140.7,0 139.9,0 139.7,0 139.1,0 138.9,0 138.7,0 137,0 136.8,0 136.2,0 
		136,0 135.8,0 135.3,0 135.2,0 135,0 133.3,0 133.1,0 132.9,0 132.4,0 132.3,0 132.1,0 131.6,0 131.4,0 131.3,0 129.6,0 129.5,0 
		129.3,0 128.8,0 128.6,0 128.5,0 128,0 127.8,0 127.6,0 126.8,0 125.9,0 125.7,0 125.6,0 125.1,0 124.9,0 124.7,0 124.4,0 124.1,0 
		124,0 123.9,0 123.2,0 123,0 122.2,0 122,0 121.8,0 121.5,0 121.2,0 121.1,0 121,0 120.7,0 120.5,0 120.3,0 120.2,0 120.1,0 
		119.5,0 119.3,0 119.1,0 118.8,0 118.7,0 118.3,0 118.1,0 117.9,0 117.7,0 117.4,0 117.3,0 117.2,0 117.1,0 116.9,0 116.7,0 
		116.6,0 116.4,0 116.2,0 116,0 115.7,0 115.6,0 115.4,0 115.2,0 115,0 115,0 114.8,0 114.5,0 114.2,0 114,0 113.8,0 113.7,0 
		113.5,0 113.3,0 113.3,0 113.2,0 113.1,0 113,0 112.9,0 112.7,0 112.5,0 112.3,0 112.1,0 112.1,0 111.9,0 111.7,0 111.5,0 111.3,0 
		111.3,0 111.1,0 111.1,0 110.9,0 110.4,0 110.3,0 110.1,0 110,0 109.9,0 109.7,0 109.6,0 109.4,0 109.4,0 109.3,0 109.2,0 109.2,0 
		109,0 108.9,0 108.6,0 108.4,0 108.4,0 108.2,0 108.2,0 108,0 107.7,0 107.6,0 107.5,0 107.4,0 107.4,0 107.2,0 106.7,0 106.5,0 
		106.4,0 106.3,0 106.1,0 106,0 105.9,0 105.8,0 105.7,0 105.6,0 105.5,0 105.5,0 105.3,0 105.3,0 105.1,0 104.8,0 104.8,0 104.7,0 
		104.5,0 104.5,0 104.3,0 104,0 103.9,0 103.8,0 103.7,0 103.7,0 103.6,0 103.1,0 102.9,0 102.7,0 102.6,0 102.4,0 102.2,0 102.1,0 
		102,0 101.9,0 101.9,0 101.8,0 101.7,0 101.6,0 101.4,0 101.2,0 101.2,0 101.2,0 101,0 101,0 100.9,0 100.6,0 100.4,0 100.2,0 
		100.2,0 100,0 100,0 99.8,0 99.2,0 99.2,0 99.1,0 99,0 98.7,0 98.6,0 98.3,0 98.3,0 98.3,0 98.2,0 98.1,0 98.1,0 98,0 97.8,0 
		97.5,0 97.5,0 97.5,0 97.3,0 97.3,0 97.3,0 97.1,0 97.1,0 96.8,0 96.5,0 96.4,0 96.3,0 96.3,0 96.1,0 95.6,0 95.4,0 95.4,0 95.4,0 
		95.3,0 95.2,0 94.9,0 94.6,0 94.6,0 94.6,0 94.4,0 94.4,0 94.4,0 94.2,0 94.2,0 93.9,0 93.8,0 93.7,0 93.6,0 93.6,0 93.6,0 93.5,0 
		93.4,0 93.4,0 93.4,0 93.1,0 92.9,0 92.7,0 92.6,0 92.5,0 92.4,0 91.9,0 91.8,0 91.7,0 91.7,0 91.6,0 91.5,0 91.5,0 91.3,0 91.1,0 
		91,0 90.8,0 90.8,0 90.7,0 90.7,0 90.6,0 90.5,0 90.5,0 90.3,0 90.1,0 90.1,0 90,0 90,0 89.8,0 89.8,0 89.8,0 89.7,0 89.7,0 
		89.6,0 89.5,0 89.3,0 89.1,0 89,0 88.8,0 88.6,0 88.1,0 88.1,0 88,0 88,0 87.9,0 87.8,0 87.8,0 87.7,0 87.6,0 87.4,0 87.2,0 
		87.2,0 87.2,0 87.1,0 87,0 86.9,0 86.9,0 86.9,0 86.6,0 86.4,0 86.4,0 86.4,0 86.2,0 86.2,0 86.2,0 86.1,0 86.1,0 86,0 85.9,0 
		85.7,0 85.7,0 85.6,0 85.4,0 85.2,0 85.1,0 84.9,0 84.4,0 84.3,0 84.3,0 84.3,0 84.2,0 84.1,0 84.1,0 84,0 84,0 83.7,0 83.5,0 
		83.5,0 83.5,0 83.3,0 83.3,0 83.3,0 83.2,0 83.1,0 82.8,0 82.7,0 82.7,0 82.5,0 82.5,0 82.5,0 82.4,0 82.3,0 82.3,0 82.3,0 82.1,0 
		82,0 81.8,0 81.7,0 81.6,0 81.6,0 81.4,0 81.3,0 80.8,0 80.6,0 80.6,0 80.6,0 80.4,0 80.4,0 80.4,0 80.3,0 80.2,0 79.9,0 79.8,0 
		79.8,0 79.6,0 79.6,0 79.6,0 79.4,0 79.4,0 79.2,0 79.1,0 78.9,0 78.8,0 78.8,0 78.7,0 78.7,0 78.6,0 78.6,0 78.5,0 78.4,0 78.3,0 
		78.1,0 77.9,0 77.9,0 77.9,0 77.7,0 77.7,0 77.5,0 77.2,0 77,0 76.9,0 76.8,0 76.7,0 76.7,0 76.6,0 76.5,0 76.3,0 76.3,0 76.1,0 
		76,0 76,0 75.8,0 75.8,0 75.7,0 75.5,0 75.5,0 75.3,0 75.3,0 75.1,0 75,0 75,0 75,0 74.8,0 74.8,0 74.6,0 74.5,0 74.3,0 74.3,0 
		74.2,0 74,0 74,0 73.8,0 73.8,0 73.6,0 73.5,0 73.4,0 73.3,0 73.1,0 73,0 72.9,0 72.9,0 72.6,0 72.6,0 72.4,0 72.4,0 72.2,0 
		72.2,0 72.1,0 72,0 71.8,0 71.6,0 71.6,0 71.5,0 71.4,0 71.4,0 71.4,0 71.2,0 71.1,0 71,0 70.9,0 70.7,0 70.7,0 70.6,0 70.5,0 
		70.5,0 70.4,0 70.2,0 70.1,0 69.9,0 69.9,0 69.7,0 69.7,0 69.7,0 69.5,0 69.5,0 69.2,0 68.9,0 68.7,0 68.7,0 68.5,0 68.5,0 68.5,0 
		68.3,0 68.1,0 68,0 67.9,0 67.8,0 67.8,0 67.7,0 67.7,0 67.6,0 67.6,0 67.5,0 67.3,0 67.3,0 67,0 67,0 66.8,0 66.8,0 66.8,0 
		66.6,0 66.6,0 66.5,0 66.2,0 66.1,0 66.1,0 66,0 66,0 65.9,0 65.8,0 65.8,0 65.7,0 65.2,0 65.1,0 64.9,0 64.8,0 64.7,0 64.6,0 
		64.4,0 64.4,0 64.2,0 64.1,0 64.1,0 64.1,0 63.9,0 63.9,0 63.9,0 63.7,0 63.7,0 63.6,0 63.3,0 63.2,0 63.1,0 63.1,0 63.1,0 63,0 
		62.9,0 62.9,0 62.7,0 62.5,0 62.4,0 62.4,0 62.3,0 62.2,0 62.2,0 62.2,0 62.1,0 62,0 61.5,0 61.3,0 61.2,0 61,0 60.8,0 60.7,0 
		60.7,0 60.5,0 60.5,0 60.3,0 60.3,0 60.3,0 60.2,0 60.2,0 60.1,0 60.1,0 60,0 59.9,0 59.6,0 59.6,0 59.6,0 59.5,0 59.4,0 59.3,0 
		59.3,0 59.2,0 59.1,0 58.8,0 58.8,0 58.6,0 58.6,0 58.6,0 58.5,0 58.4,0 58.4,0 58.3,0 57.8,0 57.6,0 57.4,0 57.4,0 57.2,0 57,0 
		56.8,0 56.7,0 56.7,0 56.7,0 56.6,0 56.6,0 56.5,0 56.4,0 56.4,0 56.4,0 56.2,0 55.9,0 55.9,0 55.9,0 55.7,0 55.7,0 55.7,0 55.6,0 
		55.5,0 55.4,0 55.1,0 54.9,0 54.9,0 54.9,0 54.7,0 54.7,0 54.7,0 54.5,0 54,0 53.9,0 53.8,0 53.7,0 53.5,0 53.3,0 53,0 53,0 53,0 
		52.9,0 52.8,0 52.8,0 52.8,0 52.7,0 52.6,0 52.5,0 52.2,0 52.2,0 52,0 52,0 52,0 51.8,0 51.8,0 51.8,0 51.6,0 51.2,0 51.1,0 
		51.1,0 51,0 51,0 50.9,0 50.3,0 50.1,0 50.1,0 50.1,0 49.9,0 49.6,0 49.4,0 49.3,0 49.2,0 49.1,0 49.1,0 49,0 49,0 48.9,0 48.7,0 
		48.5,0 48.4,0 48.3,0 48.2,0 48.2,0 48.2,0 48.1,0 47.9,0 47.7,0 47.4,0 47.4,0 47.2,0 47.2,0 46.6,0 46.5,0 46.4,0 46.3,0 46.2,0 
		46.1,0 45.8,0 45.6,0 45.5,0 45.5,0 45.3,0 45.3,0 45.3,0 45,0 44.8,0 44.8,0 44.6,0 44.6,0 44.5,0 44.5,0 44.4,0 44.2,0 44,0 
		43.8,0 43.8,0 43.6,0 43.4,0 42.9,0 42.8,0 42.7,0 42.6,0 42.6,0 42.4,0 42.1,0 41.9,0 41.9,0 41.7,0 41.6,0 41.6,0 41.3,0 41.1,0 
		41.1,0 40.9,0 40.9,0 40.9,0 40.7,0 40.7,0 40.5,0 40.4,0 40.3,0 40.1,0 40,0 39.9,0 39.7,0 39.2,0 39,0 39,0 38.9,0 38.8,0 
		38.7,0 38.5,0 38.3,0 38.2,0 38.1,0 38,0 37.8,0 37.6,0 37.5,0 37.3,0 37.2,0 37.1,0 37,0 37,0 36.8,0 36.8,0 36.6,0 36.5,0 
		36.3,0 36.1,0 36,0 35.5,0 35.4,0 35.3,0 35.2,0 35.1,0 35,0 34.7,0 34.6,0 34.4,0 34.4,0 34.2,0 33.9,0 33.7,0 33.6,0 33.4,0 
		33.4,0 33.2,0 33.1,0 33.1,0 32.9,0 32.7,0 32.6,0 32.4,0 32.2,0 32,0 31.6,0 31.5,0 31.4,0 31.3,0 31,0 30.8,0 30.7,0 30.5,0 
		30.2,0 30,0 29.8,0 29.8,0 29.6,0 29.4,0 29.2,0 29.1,0 29,0 28.8,0 28.6,0 28.3,0 28.1,0 27.8,0 27.6,0 27.3,0 27.1,0 26.9,0 
		26.3,0 26.2,0 26.1,0 25.9,0 25.7,0 25.4,0 25.3,0 25.2,0 24.9,0 24.6,0 24.4,0 24.2,0 23.5,0 23.3,0 22.5,0 22.5,0 22.3,0 22,0 
		21.7,0 21.5,0 21.3,0 20.9,0 20.7,0 20.5,0 19.6,0 18.9,0 18.7,0 18.5,0 18,0 17.9,0 17.7,0 17.2,0 17,0 16.9,0 15.1,0 15,0 
		14.8,0 14.3,0 14.1,0 14,0 13.5,0 13.3,0 13.1,0 11.4,0 11.2,0 11.1,0 10.6,0 10.4,0 10.2,0 9.6,0 9.4,0 7.7,0 7.5,0 7.4,0 6.8,0 
		6.6,0 5.8,0 3.9,0 3.7,0 2.9,0 0,0 0,180 2.9,180 3.7,180 3.9,180 5.8,180 6.6,180 6.8,180 7.4,180 7.5,180 7.7,180 9.4,180 
		9.6,180 10.2,180 10.4,180 10.6,180 11.1,180 11.2,180 11.4,180 13.1,180 13.3,180 13.5,180 14,180 14.1,180 14.3,180 14.8,180 
		15,180 15.1,180 16.9,180 17,180 17.2,180 17.7,180 17.9,180 18,180 18.5,180 18.7,180 18.9,180 19.6,180 20.5,180 20.7,180 
		20.9,180 21.3,180 21.5,180 21.7,180 22,180 22.3,180 22.5,180 22.5,180 23.3,180 23.5,180 24.2,180 24.4,180 24.6,180 24.9,180 
		25.2,180 25.3,180 25.4,180 25.7,180 25.9,180 26.1,180 26.2,180 26.3,180 26.9,180 27.1,180 27.3,180 27.6,180 27.8,180 28.1,180 
		28.3,180 28.6,180 28.8,180 29,180 29.1,180 29.2,180 29.4,180 29.6,180 29.8,180 29.8,180 30,180 30.2,180 30.5,180 30.7,180 
		30.8,180 31,180 31.3,180 31.4,180 31.5,180 31.6,180 32,180 32.2,180 32.4,180 32.6,180 32.7,180 32.9,180 33.1,180 33.1,180 
		33.2,180 33.4,180 33.4,180 33.6,180 33.7,180 33.9,180 34.2,180 34.4,180 34.4,180 34.6,180 34.7,180 35,180 35.1,180 35.2,180 
		35.3,180 35.4,180 35.5,180 36,180 36.1,180 36.3,180 36.5,180 36.6,180 36.8,180 36.8,180 37,180 37,180 37.1,180 37.2,180 
		37.3,180 37.5,180 37.6,180 37.8,180 38,180 38.1,180 38.2,180 38.3,180 38.5,180 38.7,180 38.8,180 38.9,180 39,180 39,180 
		39.2,180 39.7,180 39.9,180 40,180 40.1,180 40.3,180 40.4,180 40.5,180 40.7,180 40.7,180 40.9,180 40.9,180 40.9,180 41.1,180 
		41.1,180 41.3,180 41.6,180 41.6,180 41.7,180 41.9,180 41.9,180 42.1,180 42.4,180 42.6,180 42.6,180 42.7,180 42.8,180 42.9,180 
		43.4,180 43.6,180 43.8,180 43.8,180 44,180 44.2,180 44.4,180 44.5,180 44.5,180 44.6,180 44.6,180 44.8,180 44.8,180 45,180 
		45.3,180 45.3,180 45.3,180 45.5,180 45.5,180 45.6,180 45.8,180 46.1,180 46.2,180 46.3,180 46.4,180 46.5,180 46.6,180 47.2,180 
		47.2,180 47.4,180 47.4,180 47.7,180 47.9,180 48.1,180 48.2,180 48.2,180 48.2,180 48.3,180 48.4,180 48.5,180 48.7,180 48.9,180 
		49,180 49,180 49.1,180 49.1,180 49.2,180 49.3,180 49.4,180 49.6,180 49.9,180 50.1,180 50.1,180 50.1,180 50.3,180 50.9,180 
		51,180 51,180 51.1,180 51.1,180 51.2,180 51.6,180 51.8,180 51.8,180 51.8,180 52,180 52,180 52,180 52.2,180 52.2,180 52.5,180 
		52.6,180 52.7,180 52.8,180 52.8,180 52.8,180 52.9,180 53,180 53,180 53,180 53.3,180 53.5,180 53.7,180 53.8,180 53.9,180 
		54,180 54.5,180 54.7,180 54.7,180 54.7,180 54.9,180 54.9,180 54.9,180 55.1,180 55.4,180 55.5,180 55.6,180 55.7,180 55.7,180 
		55.7,180 55.9,180 55.9,180 55.9,180 56.2,180 56.4,180 56.4,180 56.4,180 56.5,180 56.6,180 56.6,180 56.7,180 56.7,180 56.7,180 
		56.8,180 57,180 57.2,180 57.4,180 57.4,180 57.6,180 57.8,180 58.3,180 58.4,180 58.4,180 58.5,180 58.6,180 58.6,180 58.6,180 
		58.8,180 58.8,180 59.1,180 59.2,180 59.3,180 59.3,180 59.4,180 59.5,180 59.6,180 59.6,180 59.6,180 59.9,180 60,180 60.1,180 
		60.1,180 60.2,180 60.2,180 60.3,180 60.3,180 60.3,180 60.5,180 60.5,180 60.7,180 60.7,180 60.8,180 61,180 61.2,180 61.3,180 
		61.5,180 62,180 62.1,180 62.2,180 62.2,180 62.2,180 62.3,180 62.4,180 62.4,180 62.5,180 62.7,180 62.9,180 62.9,180 63,180 
		63.1,180 63.1,180 63.1,180 63.2,180 63.3,180 63.6,180 63.7,180 63.7,180 63.9,180 63.9,180 63.9,180 64.1,180 64.1,180 64.1,180 
		64.2,180 64.4,180 64.4,180 64.6,180 64.7,180 64.8,180 64.9,180 65.1,180 65.2,180 65.7,180 65.8,180 65.8,180 65.9,180 66,180 
		66,180 66.1,180 66.1,180 66.2,180 66.5,180 66.6,180 66.6,180 66.8,180 66.8,180 66.8,180 67,180 67,180 67.3,180 67.3,180 
		67.5,180 67.6,180 67.6,180 67.7,180 67.7,180 67.8,180 67.8,180 67.9,180 68,180 68.1,180 68.3,180 68.5,180 68.5,180 68.5,180 
		68.7,180 68.7,180 68.9,180 69.2,180 69.5,180 69.5,180 69.7,180 69.7,180 69.7,180 69.9,180 69.9,180 70.1,180 70.2,180 70.4,180 
		70.5,180 70.5,180 70.6,180 70.7,180 70.7,180 70.9,180 71,180 71.1,180 71.2,180 71.4,180 71.4,180 71.4,180 71.5,180 71.6,180 
		71.6,180 71.8,180 72,180 72.1,180 72.2,180 72.2,180 72.4,180 72.4,180 72.6,180 72.6,180 72.9,180 72.9,180 73,180 73.1,180 
		73.3,180 73.4,180 73.5,180 73.6,180 73.8,180 73.8,180 74,180 74,180 74.2,180 74.3,180 74.3,180 74.5,180 74.6,180 74.8,180 
		74.8,180 75,180 75,180 75,180 75.1,180 75.3,180 75.3,180 75.5,180 75.5,180 75.7,180 75.8,180 75.8,180 76,180 76,180 76.1,180 
		76.3,180 76.3,180 76.5,180 76.6,180 76.7,180 76.7,180 76.8,180 76.9,180 77,180 77.2,180 77.5,180 77.7,180 77.7,180 77.9,180 
		77.9,180 77.9,180 78.1,180 78.3,180 78.4,180 78.5,180 78.6,180 78.6,180 78.7,180 78.7,180 78.8,180 78.8,180 78.9,180 79.1,180 
		79.2,180 79.4,180 79.4,180 79.6,180 79.6,180 79.6,180 79.8,180 79.8,180 79.9,180 80.2,180 80.3,180 80.4,180 80.4,180 80.4,180 
		80.6,180 80.6,180 80.6,180 80.8,180 81.3,180 81.4,180 81.6,180 81.6,180 81.7,180 81.8,180 82,180 82.1,180 82.3,180 82.3,180 
		82.3,180 82.4,180 82.5,180 82.5,180 82.5,180 82.7,180 82.7,180 82.8,180 83.1,180 83.2,180 83.3,180 83.3,180 83.3,180 83.5,180 
		83.5,180 83.5,180 83.7,180 84,180 84,180 84.1,180 84.1,180 84.2,180 84.3,180 84.3,180 84.3,180 84.4,180 84.9,180 85.1,180 
		85.2,180 85.4,180 85.6,180 85.7,180 85.7,180 85.9,180 86,180 86.1,180 86.1,180 86.2,180 86.2,180 86.2,180 86.4,180 86.4,180 
		86.4,180 86.6,180 86.9,180 86.9,180 86.9,180 87,180 87.1,180 87.2,180 87.2,180 87.2,180 87.4,180 87.6,180 87.7,180 87.8,180 
		87.8,180 87.9,180 88,180 88,180 88.1,180 88.1,180 88.6,180 88.8,180 89,180 89.1,180 89.3,180 89.5,180 89.6,180 89.7,180 
		89.7,180 89.8,180 89.8,180 89.8,180 90,180 90,180 90.1,180 90.1,180 90.3,180 90.5,180 90.5,180 90.6,180 90.7,180 90.7,180 
		90.8,180 90.8,180 91,180 91.1,180 91.3,180 91.5,180 91.5,180 91.6,180 91.7,180 91.7,180 91.8,180 91.9,180 92.4,180 92.5,180 
		92.6,180 92.7,180 92.9,180 93.1,180 93.4,180 93.4,180 93.4,180 93.5,180 93.6,180 93.6,180 93.6,180 93.7,180 93.8,180 93.9,180 
		94.2,180 94.2,180 94.4,180 94.4,180 94.4,180 94.6,180 94.6,180 94.6,180 94.9,180 95.2,180 95.3,180 95.4,180 95.4,180 95.4,180 
		95.6,180 96.1,180 96.3,180 96.3,180 96.4,180 96.5,180 96.8,180 97.1,180 97.1,180 97.3,180 97.3,180 97.3,180 97.5,180 97.5,180 
		97.5,180 97.8,180 98,180 98.1,180 98.1,180 98.2,180 98.3,180 98.3,180 98.3,180 98.6,180 98.7,180 99,180 99.1,180 99.2,180 
		99.2,180 99.8,180 100,180 100,180 100.2,180 100.2,180 100.4,180 100.6,180 100.9,180 101,180 101,180 101.2,180 101.2,180 
		101.2,180 101.4,180 101.6,180 101.7,180 101.8,180 101.9,180 101.9,180 102,180 102.1,180 102.2,180 102.4,180 102.6,180 
		102.7,180 102.9,180 103.1,180 103.6,180 103.7,180 103.7,180 103.8,180 103.9,180 104,180 104.3,180 104.5,180 104.5,180 
		104.7,180 104.8,180 104.8,180 105.1,180 105.3,180 105.3,180 105.5,180 105.5,180 105.6,180 105.7,180 105.8,180 105.9,180 
		106,180 106.1,180 106.3,180 106.4,180 106.5,180 106.7,180 107.2,180 107.4,180 107.4,180 107.5,180 107.6,180 107.7,180 108,180 
		108.2,180 108.2,180 108.4,180 108.4,180 108.6,180 108.9,180 109,180 109.2,180 109.2,180 109.3,180 109.4,180 109.4,180 
		109.6,180 109.7,180 109.9,180 110,180 110.1,180 110.3,180 110.4,180 110.9,180 111.1,180 111.1,180 111.3,180 111.3,180 
		111.5,180 111.7,180 111.9,180 112.1,180 112.1,180 112.3,180 112.5,180 112.7,180 112.9,180 113,180 113.1,180 113.2,180 
		113.3,180 113.3,180 113.5,180 113.7,180 113.8,180 114,180 114.2,180 114.5,180 114.8,180 115,180 115,180 115.2,180 115.4,180 
		115.6,180 115.7,180 116,180 116.2,180 116.4,180 116.6,180 116.7,180 116.9,180 117.1,180 117.2,180 117.3,180 117.4,180 
		117.7,180 117.9,180 118.1,180 118.3,180 118.7,180 118.8,180 119.1,180 119.3,180 119.5,180 120.1,180 120.2,180 120.3,180 
		120.5,180 120.7,180 121,180 121.1,180 121.2,180 121.5,180 121.8,180 122,180 122.2,180 123,180 123.2,180 123.9,180 124,180 
		124.1,180 124.4,180 124.7,180 124.9,180 125.1,180 125.6,180 125.7,180 125.9,180 126.8,180 127.6,180 127.8,180 128,180 
		128.5,180 128.6,180 128.8,180 129.3,180 129.5,180 129.6,180 131.3,180 131.4,180 131.6,180 132.1,180 132.3,180 132.4,180 
		132.9,180 133.1,180 133.3,180 135,180 135.2,180 135.3,180 135.8,180 136,180 136.2,180 136.8,180 137,180 138.7,180 138.9,180 
		139.1,180 139.7,180 139.9,180 140.7,180 142.6,180 142.8,180 143.6,180 146.4,180 146.4,0 	"/>
</g>
<g id="figure">
	<g>
		<path d="M42,109c0,2.3-0.4,4.4-1.3,6.2c-0.9,1.8-2.1,3.3-3.6,4.6c-1.6,1.2-3.5,2.2-5.6,2.8c-2.2,0.6-4.6,1-7.2,1
			c-1.6,0-3.1-0.1-4.6-0.4c-1.5-0.3-2.8-0.6-3.9-1c-1.2-0.4-2.1-0.8-2.9-1.2s-1.4-0.8-1.8-1.1c-0.4-0.3-0.6-0.8-0.8-1.4
			c-0.2-0.6-0.3-1.4-0.3-2.5c0-0.6,0-1.2,0.1-1.6c0.1-0.4,0.2-0.8,0.3-1.1c0.1-0.3,0.2-0.5,0.4-0.6c0.2-0.1,0.4-0.2,0.6-0.2
			c0.4,0,0.9,0.2,1.6,0.7c0.7,0.5,1.6,0.9,2.7,1.5c1.1,0.5,2.3,1,3.7,1.5c1.4,0.5,3.1,0.7,5,0.7c1.4,0,2.7-0.2,3.8-0.5
			c1.1-0.3,2.1-0.7,3-1.3c0.8-0.6,1.5-1.3,1.9-2.2c0.5-0.9,0.7-2,0.7-3.2c0-1.3-0.3-2.3-1-3.2c-0.7-0.9-1.5-1.6-2.6-2.3
			c-1.1-0.7-2.3-1.3-3.6-1.8c-1.3-0.5-2.7-1.1-4.1-1.6c-1.4-0.6-2.8-1.2-4.2-1.9c-1.4-0.7-2.6-1.6-3.6-2.6c-1.1-1-1.9-2.3-2.6-3.7
			c-0.7-1.4-1-3.2-1-5.2c0-1.8,0.3-3.5,1-5.1c0.7-1.6,1.7-3.1,3.1-4.3c1.4-1.2,3.1-2.2,5.2-2.9c2.1-0.7,4.5-1.1,7.2-1.1
			c1.2,0,2.4,0.1,3.6,0.3s2.3,0.5,3.3,0.8c1,0.3,1.8,0.6,2.5,1c0.7,0.4,1.2,0.7,1.6,0.9c0.4,0.3,0.6,0.5,0.7,0.7
			c0.1,0.2,0.2,0.4,0.3,0.7c0.1,0.3,0.1,0.6,0.2,0.9c0,0.4,0.1,0.8,0.1,1.4c0,0.6,0,1.1-0.1,1.5c-0.1,0.4-0.1,0.8-0.3,1
			c-0.1,0.3-0.3,0.5-0.4,0.6c-0.2,0.1-0.4,0.2-0.6,0.2c-0.3,0-0.7-0.2-1.3-0.6c-0.6-0.4-1.3-0.8-2.2-1.2c-0.9-0.4-2-0.8-3.2-1.2
			c-1.2-0.4-2.6-0.6-4.2-0.6c-1.4,0-2.6,0.2-3.7,0.5c-1.1,0.3-2,0.8-2.6,1.4c-0.7,0.6-1.2,1.3-1.6,2.1c-0.4,0.8-0.5,1.7-0.5,2.6
			c0,1.3,0.3,2.4,1,3.3c0.7,0.9,1.5,1.7,2.6,2.3c1.1,0.7,2.3,1.3,3.7,1.8c1.4,0.5,2.8,1.1,4.2,1.7c1.4,0.6,2.8,1.2,4.2,1.9
			c1.4,0.7,2.6,1.6,3.7,2.6c1.1,1,1.9,2.2,2.6,3.6C41.7,105.4,42,107,42,109z"/>
		<path d="M86.4,114.4c0,0.6,0,1.1-0.1,1.5c0,0.4-0.1,0.8-0.2,1.1c-0.1,0.3-0.2,0.5-0.3,0.8c-0.1,0.2-0.4,0.5-0.8,1
			c-0.4,0.4-1.1,0.9-2.1,1.6c-1,0.6-2.1,1.2-3.4,1.7c-1.3,0.5-2.6,0.9-4.1,1.2c-1.5,0.3-3,0.5-4.6,0.5c-3.3,0-6.1-0.5-8.7-1.6
			c-2.5-1.1-4.6-2.6-6.3-4.7c-1.7-2.1-3-4.6-3.9-7.6c-0.9-3-1.3-6.5-1.3-10.4c0-4.5,0.5-8.3,1.6-11.5c1.1-3.2,2.6-5.8,4.5-7.9
			c1.9-2,4.1-3.6,6.7-4.6c2.6-1,5.3-1.5,8.3-1.5c1.4,0,2.8,0.1,4.2,0.4c1.4,0.3,2.6,0.6,3.7,1.1c1.1,0.4,2.2,0.9,3,1.5
			c0.9,0.6,1.5,1.1,1.9,1.5s0.7,0.7,0.8,1c0.2,0.2,0.3,0.5,0.4,0.8c0.1,0.3,0.2,0.7,0.2,1.1c0,0.4,0.1,0.9,0.1,1.5
			c0,1.3-0.2,2.2-0.5,2.7c-0.3,0.5-0.7,0.8-1.1,0.8c-0.5,0-1.1-0.3-1.7-0.8c-0.7-0.6-1.5-1.2-2.5-1.8c-1-0.7-2.2-1.3-3.6-1.8
			c-1.4-0.6-3.1-0.8-5.1-0.8c-4,0-7,1.5-9.2,4.6c-2.1,3.1-3.2,7.5-3.2,13.4c0,2.9,0.3,5.5,0.8,7.7c0.6,2.2,1.4,4,2.4,5.5
			c1.1,1.5,2.4,2.6,3.9,3.3c1.6,0.7,3.3,1.1,5.4,1.1c1.9,0,3.6-0.3,5-0.9c1.4-0.6,2.7-1.3,3.7-2c1.1-0.7,1.9-1.4,2.7-2
			c0.7-0.6,1.3-0.9,1.7-0.9c0.2,0,0.4,0.1,0.6,0.2c0.2,0.1,0.3,0.4,0.4,0.7c0.1,0.3,0.2,0.7,0.3,1.2
			C86.4,113.2,86.4,113.8,86.4,114.4z"/>
		<path d="M136.4,121.3c0,0.3-0.1,0.5-0.2,0.7c-0.1,0.2-0.4,0.3-0.7,0.5c-0.3,0.1-0.7,0.2-1.3,0.3c-0.5,0.1-1.2,0.1-2,0.1
			c-0.8,0-1.5,0-2.1-0.1c-0.5-0.1-1-0.2-1.3-0.3s-0.5-0.3-0.7-0.5s-0.2-0.4-0.2-0.7V94.8c0-2.6-0.2-4.7-0.6-6.2
			c-0.4-1.6-1-2.9-1.8-4.1c-0.8-1.1-1.8-2-3-2.6c-1.2-0.6-2.6-0.9-4.2-0.9c-2.1,0-4.2,0.7-6.2,2.2c-2.1,1.5-4.3,3.6-6.5,6.5v31.6
			c0,0.3-0.1,0.5-0.2,0.7c-0.1,0.2-0.4,0.3-0.7,0.5s-0.7,0.2-1.3,0.3c-0.5,0.1-1.2,0.1-2.1,0.1c-0.8,0-1.5,0-2-0.1
			c-0.5-0.1-1-0.2-1.3-0.3c-0.3-0.1-0.5-0.3-0.7-0.5c-0.1-0.2-0.2-0.4-0.2-0.7V54.1c0-0.3,0.1-0.5,0.2-0.7c0.1-0.2,0.3-0.4,0.7-0.5
			c0.3-0.1,0.7-0.2,1.3-0.3c0.5-0.1,1.2-0.1,2-0.1c0.8,0,1.5,0,2.1,0.1c0.5,0.1,1,0.2,1.3,0.3c0.3,0.1,0.5,0.3,0.7,0.5
			c0.1,0.2,0.2,0.4,0.2,0.7v27.1c2.4-2.5,4.8-4.4,7.2-5.6c2.4-1.2,4.8-1.8,7.3-1.8c3,0,5.6,0.5,7.6,1.5c2.1,1,3.7,2.4,5,4.1
			c1.3,1.7,2.2,3.7,2.7,6c0.6,2.3,0.8,5.1,0.8,8.3V121.3z"/>
	</g>
</g>
</svg>
