<?xml version="1.0" encoding="utf-8"?>
<!-- Generator: Adobe Illustrator 22.1.0, SVG Export Plug-In . SVG Version: 6.00 Build 0)  -->
<svg version="1.1" xmlns="http://www.w3.org/2000/svg" xmlns:xlink="http://www.w3.org/1999/xlink" x="0px" y="0px"
	 viewBox="0 0 154 180" style="enable-background:new 0 0 154 180;" xml:space="preserve">
<style type="text/css">
	.st0{display:none;}
	.st1{display:inline;fill:#FF0000;}
</style>
<g id="bg" class="st0">
	<polygon class="st1" points="151,0 150.1,0 149.9,0 147.9,0 147.1,0 146.9,0 146.2,0 146,0 145.8,0 144.1,0 143.9,0 143.2,0 143,0 
		142.8,0 142.3,0 142.2,0 142,0 140.2,0 140,0 139.8,0 139.3,0 139.2,0 138.9,0 138.4,0 138.2,0 138.1,0 136.2,0 136.1,0 135.9,0 
		135.4,0 135.2,0 135.1,0 134.6,0 134.4,0 134.1,0 133.4,0 132.4,0 132.2,0 132.1,0 131.5,0 131.3,0 131.1,0 130.8,0 130.5,0 
		130.4,0 130.3,0 129.5,0 129.3,0 128.5,0 128.3,0 128.1,0 127.8,0 127.5,0 127.3,0 127.3,0 127,0 126.8,0 126.5,0 126.4,0 126.3,0 
		125.7,0 125.4,0 125.2,0 125,0 124.8,0 124.4,0 124.2,0 123.9,0 123.7,0 123.5,0 123.4,0 123.3,0 123.1,0 122.9,0 122.7,0 122.6,0 
		122.4,0 122.2,0 121.9,0 121.7,0 121.6,0 121.4,0 121.1,0 120.9,0 120.9,0 120.7,0 120.4,0 120.1,0 119.9,0 119.7,0 119.6,0 
		119.4,0 119.2,0 119.1,0 119,0 118.9,0 118.8,0 118.7,0 118.6,0 118.3,0 118.1,0 117.9,0 117.8,0 117.6,0 117.5,0 117.2,0 117,0 
		117,0 116.8,0 116.8,0 116.6,0 116.1,0 116,0 115.8,0 115.6,0 115.5,0 115.3,0 115.3,0 115.1,0 115,0 115,0 114.8,0 114.8,0 
		114.6,0 114.5,0 114.2,0 114,0 114,0 113.8,0 113.8,0 113.5,0 113.3,0 113.1,0 113.1,0 113,0 112.9,0 112.8,0 112.2,0 112,0 
		111.9,0 111.8,0 111.6,0 111.5,0 111.4,0 111.2,0 111.2,0 111,0 111,0 110.9,0 110.8,0 110.7,0 110.5,0 110.2,0 110.2,0 110.1,0 
		109.9,0 109.9,0 109.7,0 109.4,0 109.2,0 109.2,0 109.1,0 109,0 108.9,0 108.4,0 108.2,0 108,0 107.9,0 107.7,0 107.5,0 107.3,0 
		107.2,0 107.2,0 107.1,0 107.1,0 106.9,0 106.9,0 106.7,0 106.4,0 106.4,0 106.4,0 106.2,0 106.2,0 106,0 105.8,0 105.5,0 105.4,0 
		105.3,0 105.1,0 105.1,0 104.9,0 104.4,0 104.3,0 104.2,0 104.1,0 103.8,0 103.6,0 103.4,0 103.3,0 103.3,0 103.3,0 103.1,0 
		103.1,0 103,0 102.8,0 102.5,0 102.5,0 102.5,0 102.3,0 102.3,0 102.3,0 102.1,0 102.1,0 101.8,0 101.5,0 101.3,0 101.3,0 101.3,0 
		101.1,0 100.5,0 100.3,0 100.3,0 100.3,0 100.2,0 100.1,0 99.8,0 99.5,0 99.5,0 99.5,0 99.3,0 99.3,0 99.3,0 99.1,0 99.1,0 98.8,0 
		98.7,0 98.5,0 98.5,0 98.4,0 98.4,0 98.3,0 98.2,0 98.2,0 98.2,0 97.9,0 97.7,0 97.5,0 97.4,0 97.3,0 97.2,0 96.6,0 96.5,0 96.4,0 
		96.4,0 96.3,0 96.2,0 96.2,0 96,0 95.7,0 95.6,0 95.5,0 95.4,0 95.4,0 95.4,0 95.2,0 95.2,0 95.2,0 94.9,0 94.7,0 94.7,0 94.7,0 
		94.6,0 94.5,0 94.4,0 94.4,0 94.4,0 94.4,0 94.2,0 94.1,0 93.9,0 93.7,0 93.6,0 93.4,0 93.2,0 92.7,0 92.6,0 92.5,0 92.5,0 92.4,0 
		92.4,0 92.3,0 92.2,0 92.2,0 91.9,0 91.7,0 91.7,0 91.6,0 91.6,0 91.4,0 91.4,0 91.3,0 91.3,0 91,0 90.8,0 90.8,0 90.8,0 90.6,0 
		90.6,0 90.6,0 90.6,0 90.5,0 90.4,0 90.4,0 90.2,0 90.1,0 90,0 89.8,0 89.6,0 89.5,0 89.3,0 88.8,0 88.7,0 88.6,0 88.6,0 88.5,0 
		88.5,0 88.4,0 88.3,0 88.3,0 88,0 87.8,0 87.8,0 87.8,0 87.6,0 87.6,0 87.6,0 87.5,0 87.4,0 87.1,0 87,0 87,0 86.8,0 86.8,0 
		86.7,0 86.6,0 86.6,0 86.5,0 86.5,0 86.3,0 86.2,0 86,0 85.9,0 85.8,0 85.8,0 85.6,0 85.5,0 84.9,0 84.8,0 84.8,0 84.7,0 84.6,0 
		84.5,0 84.5,0 84.5,0 84.3,0 84.1,0 84,0 83.9,0 83.7,0 83.7,0 83.7,0 83.5,0 83.5,0 83.2,0 83.2,0 83,0 82.9,0 82.9,0 82.8,0 
		82.7,0 82.7,0 82.7,0 82.5,0 82.4,0 82.4,0 82.2,0 82,0 81.9,0 81.9,0 81.7,0 81.7,0 81.5,0 81.2,0 80.9,0 80.9,0 80.7,0 80.7,0 
		80.7,0 80.5,0 80.5,0 80.2,0 80.2,0 80,0 79.9,0 79.9,0 79.7,0 79.7,0 79.6,0 79.4,0 79.4,0 79.2,0 79.1,0 78.9,0 78.9,0 78.9,0 
		78.8,0 78.7,0 78.7,0 78.5,0 78.3,0 78.2,0 78.1,0 78.1,0 77.9,0 77.8,0 77.7,0 77.6,0 77.4,0 77.3,0 77.2,0 77.1,0 76.9,0 76.8,0 
		76.6,0 76.6,0 76.4,0 76.3,0 76.1,0 76.1,0 75.9,0 75.9,0 75.8,0 75.7,0 75.5,0 75.3,0 75.3,0 75.1,0 75.1,0 75.1,0 75,0 74.8,0 
		74.8,0 74.6,0 74.6,0 74.3,0 74.3,0 74.2,0 74.1,0 74.1,0 74,0 73.8,0 73.8,0 73.5,0 73.5,0 73.3,0 73.3,0 73.3,0 73.1,0 73.1,0 
		72.8,0 72.5,0 72.3,0 72.3,0 72.1,0 72,0 72,0 71.8,0 71.6,0 71.6,0 71.4,0 71.3,0 71.3,0 71.2,0 71.2,0 71.1,0 71.1,0 71,0 
		70.8,0 70.7,0 70.5,0 70.4,0 70.3,0 70.2,0 70.2,0 70,0 70,0 69.9,0 69.6,0 69.5,0 69.5,0 69.4,0 69.4,0 69.3,0 69.2,0 69.2,0 
		69,0 68.5,0 68.4,0 68.2,0 68.2,0 68.1,0 67.9,0 67.7,0 67.7,0 67.5,0 67.5,0 67.4,0 67.4,0 67.2,0 67.2,0 67.2,0 67,0 67,0 
		66.9,0 66.6,0 66.5,0 66.4,0 66.4,0 66.4,0 66.2,0 66.2,0 66.2,0 66,0 65.7,0 65.6,0 65.6,0 65.5,0 65.4,0 65.4,0 65.4,0 65.3,0 
		65.2,0 64.7,0 64.5,0 64.3,0 64.2,0 64,0 63.9,0 63.8,0 63.6,0 63.6,0 63.5,0 63.4,0 63.4,0 63.4,0 63.3,0 63.2,0 63.1,0 63.1,0 
		62.9,0 62.7,0 62.6,0 62.6,0 62.5,0 62.4,0 62.3,0 62.3,0 62.3,0 62.1,0 61.8,0 61.8,0 61.6,0 61.6,0 61.6,0 61.5,0 61.4,0 61.4,0 
		61.3,0 60.8,0 60.6,0 60.4,0 60.3,0 60.1,0 59.9,0 59.8,0 59.6,0 59.6,0 59.6,0 59.5,0 59.5,0 59.4,0 59.3,0 59.3,0 59.3,0 59.1,0 
		58.8,0 58.8,0 58.8,0 58.6,0 58.6,0 58.5,0 58.5,0 58.3,0 58.2,0 57.9,0 57.8,0 57.7,0 57.7,0 57.6,0 57.5,0 57.5,0 57.4,0 56.8,0 
		56.7,0 56.6,0 56.5,0 56.3,0 56,0 55.8,0 55.8,0 55.7,0 55.7,0 55.6,0 55.5,0 55.5,0 55.4,0 55.3,0 55.2,0 54.9,0 54.9,0 54.7,0 
		54.7,0 54.7,0 54.5,0 54.5,0 54.5,0 54.2,0 53.9,0 53.7,0 53.7,0 53.7,0 53.6,0 53.5,0 52.9,0 52.7,0 52.7,0 52.7,0 52.5,0 52.2,0 
		51.9,0 51.9,0 51.7,0 51.7,0 51.7,0 51.5,0 51.5,0 51.4,0 51.2,0 51,0 50.8,0 50.8,0 50.7,0 50.6,0 50.6,0 50.6,0 50.3,0 50.1,0 
		49.9,0 49.8,0 49.7,0 49.6,0 49,0 48.9,0 48.8,0 48.7,0 48.6,0 48.4,0 48.2,0 47.9,0 47.8,0 47.8,0 47.6,0 47.6,0 47.6,0 47.3,0 
		47.1,0 47.1,0 46.9,0 46.9,0 46.8,0 46.8,0 46.6,0 46.5,0 46.3,0 46.1,0 46,0 45.8,0 45.6,0 45.1,0 45,0 44.9,0 44.8,0 44.8,0 
		44.6,0 44.3,0 44.1,0 44.1,0 43.9,0 43.8,0 43.7,0 43.5,0 43.3,0 43.2,0 43,0 43,0 43,0 42.8,0 42.8,0 42.6,0 42.5,0 42.4,0 
		42.2,0 42.1,0 41.9,0 41.7,0 41.2,0 41,0 41,0 40.9,0 40.8,0 40.7,0 40.4,0 40.2,0 40.2,0 40,0 40,0 39.8,0 39.5,0 39.4,0 39.2,0 
		39.2,0 39,0 38.9,0 38.9,0 38.7,0 38.7,0 38.5,0 38.3,0 38.2,0 38,0 37.9,0 37.3,0 37.2,0 37.1,0 37,0 36.9,0 36.8,0 36.5,0 
		36.4,0 36.2,0 36.1,0 35.9,0 35.6,0 35.4,0 35.3,0 35.2,0 35.1,0 35,0 34.8,0 34.8,0 34.6,0 34.4,0 34.3,0 34.1,0 33.9,0 33.6,0 
		33.3,0 33.1,0 33.1,0 32.9,0 32.6,0 32.4,0 32.3,0 32.1,0 31.8,0 31.6,0 31.4,0 31.3,0 31.1,0 30.9,0 30.7,0 30.6,0 30.5,0 30.3,0 
		30,0 29.8,0 29.5,0 29.2,0 29,0 28.7,0 28.5,0 28.3,0 27.7,0 27.6,0 27.5,0 27.2,0 27,0 26.7,0 26.6,0 26.5,0 26.2,0 25.9,0 
		25.7,0 25.5,0 24.7,0 24.5,0 23.7,0 23.6,0 23.5,0 23.2,0 22.9,0 22.7,0 22.4,0 21.9,0 21.8,0 21.6,0 20.6,0 19.8,0 19.6,0 19.4,0 
		18.9,0 18.8,0 18.6,0 18.1,0 17.9,0 17.7,0 15.9,0 15.8,0 15.6,0 15,0 14.8,0 14.7,0 14.2,0 14,0 13.8,0 12,0 11.8,0 11.7,0 
		11.2,0 11,0 10.8,0 10.1,0 9.9,0 8.1,0 7.9,0 7.7,0 7.1,0 6.9,0 6.1,0 4.1,0 3.9,0 3,0 0,0 0,180 3,180 3.9,180 4.1,180 6.1,180 
		6.9,180 7.1,180 7.7,180 7.9,180 8.1,180 9.9,180 10.1,180 10.8,180 11,180 11.2,180 11.7,180 11.8,180 12,180 13.8,180 14,180 
		14.2,180 14.7,180 14.8,180 15,180 15.6,180 15.8,180 15.9,180 17.7,180 17.9,180 18.1,180 18.6,180 18.8,180 18.9,180 19.4,180 
		19.6,180 19.8,180 20.6,180 21.6,180 21.8,180 21.9,180 22.4,180 22.7,180 22.9,180 23.2,180 23.5,180 23.6,180 23.7,180 24.5,180 
		24.7,180 25.5,180 25.7,180 25.9,180 26.2,180 26.5,180 26.6,180 26.7,180 27,180 27.2,180 27.5,180 27.6,180 27.7,180 28.3,180 
		28.5,180 28.7,180 29,180 29.2,180 29.5,180 29.8,180 30,180 30.3,180 30.5,180 30.6,180 30.7,180 30.9,180 31.1,180 31.3,180 
		31.4,180 31.6,180 31.8,180 32.1,180 32.3,180 32.4,180 32.6,180 32.9,180 33.1,180 33.1,180 33.3,180 33.6,180 33.9,180 34.1,180 
		34.3,180 34.4,180 34.6,180 34.8,180 34.8,180 35,180 35.1,180 35.2,180 35.3,180 35.4,180 35.6,180 35.9,180 36.1,180 36.2,180 
		36.4,180 36.5,180 36.8,180 36.9,180 37,180 37.1,180 37.2,180 37.3,180 37.9,180 38,180 38.2,180 38.3,180 38.5,180 38.7,180 
		38.7,180 38.9,180 38.9,180 39,180 39.2,180 39.2,180 39.4,180 39.5,180 39.8,180 40,180 40,180 40.2,180 40.2,180 40.4,180 
		40.7,180 40.8,180 40.9,180 41,180 41,180 41.2,180 41.7,180 41.9,180 42.1,180 42.2,180 42.4,180 42.5,180 42.6,180 42.8,180 
		42.8,180 43,180 43,180 43,180 43.2,180 43.3,180 43.5,180 43.7,180 43.8,180 43.9,180 44.1,180 44.1,180 44.3,180 44.6,180 
		44.8,180 44.8,180 44.9,180 45,180 45.1,180 45.6,180 45.8,180 46,180 46.1,180 46.3,180 46.5,180 46.6,180 46.8,180 46.8,180 
		46.9,180 46.9,180 47.1,180 47.1,180 47.3,180 47.6,180 47.6,180 47.6,180 47.8,180 47.8,180 47.9,180 48.2,180 48.4,180 48.6,180 
		48.7,180 48.8,180 48.9,180 49,180 49.6,180 49.7,180 49.8,180 49.9,180 50.1,180 50.3,180 50.6,180 50.6,180 50.6,180 50.7,180 
		50.8,180 50.8,180 51,180 51.2,180 51.4,180 51.5,180 51.5,180 51.7,180 51.7,180 51.7,180 51.9,180 51.9,180 52.2,180 52.5,180 
		52.7,180 52.7,180 52.7,180 52.9,180 53.5,180 53.6,180 53.7,180 53.7,180 53.7,180 53.9,180 54.2,180 54.5,180 54.5,180 54.5,180 
		54.7,180 54.7,180 54.7,180 54.9,180 54.9,180 55.2,180 55.3,180 55.4,180 55.5,180 55.5,180 55.6,180 55.7,180 55.7,180 55.8,180 
		55.8,180 56,180 56.3,180 56.5,180 56.6,180 56.7,180 56.8,180 57.4,180 57.5,180 57.5,180 57.6,180 57.7,180 57.7,180 57.8,180 
		57.9,180 58.2,180 58.3,180 58.5,180 58.5,180 58.6,180 58.6,180 58.8,180 58.8,180 58.8,180 59.1,180 59.3,180 59.3,180 59.3,180 
		59.4,180 59.5,180 59.5,180 59.6,180 59.6,180 59.6,180 59.8,180 59.9,180 60.1,180 60.3,180 60.4,180 60.6,180 60.8,180 61.3,180 
		61.4,180 61.4,180 61.5,180 61.6,180 61.6,180 61.6,180 61.8,180 61.8,180 62.1,180 62.3,180 62.3,180 62.3,180 62.4,180 62.5,180 
		62.6,180 62.6,180 62.7,180 62.9,180 63.1,180 63.1,180 63.2,180 63.3,180 63.4,180 63.4,180 63.4,180 63.5,180 63.6,180 63.6,180 
		63.8,180 63.9,180 64,180 64.2,180 64.3,180 64.5,180 64.7,180 65.2,180 65.3,180 65.4,180 65.4,180 65.4,180 65.5,180 65.6,180 
		65.6,180 65.7,180 66,180 66.2,180 66.2,180 66.2,180 66.4,180 66.4,180 66.4,180 66.5,180 66.6,180 66.9,180 67,180 67,180 
		67.2,180 67.2,180 67.2,180 67.4,180 67.4,180 67.5,180 67.5,180 67.7,180 67.7,180 67.9,180 68.1,180 68.2,180 68.2,180 68.4,180 
		68.5,180 69,180 69.2,180 69.2,180 69.3,180 69.4,180 69.4,180 69.5,180 69.5,180 69.6,180 69.9,180 70,180 70,180 70.2,180 
		70.2,180 70.3,180 70.4,180 70.5,180 70.7,180 70.8,180 71,180 71.1,180 71.1,180 71.2,180 71.2,180 71.3,180 71.3,180 71.4,180 
		71.6,180 71.6,180 71.8,180 72,180 72,180 72.1,180 72.3,180 72.3,180 72.5,180 72.8,180 73.1,180 73.1,180 73.3,180 73.3,180 
		73.3,180 73.5,180 73.5,180 73.8,180 73.8,180 74,180 74.1,180 74.1,180 74.2,180 74.3,180 74.3,180 74.6,180 74.6,180 74.8,180 
		74.8,180 75,180 75.1,180 75.1,180 75.1,180 75.3,180 75.3,180 75.5,180 75.7,180 75.8,180 75.9,180 75.9,180 76.1,180 76.1,180 
		76.3,180 76.4,180 76.6,180 76.6,180 76.8,180 76.9,180 77.1,180 77.2,180 77.3,180 77.4,180 77.6,180 77.7,180 77.8,180 77.9,180 
		78.1,180 78.1,180 78.2,180 78.3,180 78.5,180 78.7,180 78.7,180 78.8,180 78.9,180 78.9,180 78.9,180 79.1,180 79.2,180 79.4,180 
		79.4,180 79.6,180 79.7,180 79.7,180 79.9,180 79.9,180 80,180 80.2,180 80.2,180 80.5,180 80.5,180 80.7,180 80.7,180 80.7,180 
		80.9,180 80.9,180 81.2,180 81.5,180 81.7,180 81.7,180 81.9,180 81.9,180 82,180 82.2,180 82.4,180 82.4,180 82.5,180 82.7,180 
		82.7,180 82.7,180 82.8,180 82.9,180 82.9,180 83,180 83.2,180 83.2,180 83.5,180 83.5,180 83.7,180 83.7,180 83.7,180 83.9,180 
		84,180 84.1,180 84.3,180 84.5,180 84.5,180 84.5,180 84.6,180 84.7,180 84.8,180 84.8,180 84.9,180 85.5,180 85.6,180 85.8,180 
		85.8,180 85.9,180 86,180 86.2,180 86.3,180 86.5,180 86.5,180 86.6,180 86.6,180 86.7,180 86.8,180 86.8,180 87,180 87,180 
		87.1,180 87.4,180 87.5,180 87.6,180 87.6,180 87.6,180 87.8,180 87.8,180 87.8,180 88,180 88.3,180 88.3,180 88.4,180 88.5,180 
		88.5,180 88.6,180 88.6,180 88.7,180 88.8,180 89.3,180 89.5,180 89.6,180 89.8,180 90,180 90.1,180 90.2,180 90.4,180 90.4,180 
		90.5,180 90.6,180 90.6,180 90.6,180 90.6,180 90.8,180 90.8,180 90.8,180 91,180 91.3,180 91.3,180 91.4,180 91.4,180 91.6,180 
		91.6,180 91.7,180 91.7,180 91.9,180 92.2,180 92.2,180 92.3,180 92.4,180 92.4,180 92.5,180 92.5,180 92.6,180 92.7,180 93.2,180 
		93.4,180 93.6,180 93.7,180 93.9,180 94.1,180 94.2,180 94.4,180 94.4,180 94.4,180 94.4,180 94.5,180 94.6,180 94.7,180 94.7,180 
		94.7,180 94.9,180 95.2,180 95.2,180 95.2,180 95.4,180 95.4,180 95.4,180 95.5,180 95.6,180 95.7,180 96,180 96.2,180 96.2,180 
		96.3,180 96.4,180 96.4,180 96.5,180 96.6,180 97.2,180 97.3,180 97.4,180 97.5,180 97.7,180 97.9,180 98.2,180 98.2,180 98.2,180 
		98.3,180 98.4,180 98.4,180 98.5,180 98.5,180 98.7,180 98.8,180 99.1,180 99.1,180 99.3,180 99.3,180 99.3,180 99.5,180 99.5,180 
		99.5,180 99.8,180 100.1,180 100.2,180 100.3,180 100.3,180 100.3,180 100.5,180 101.1,180 101.3,180 101.3,180 101.3,180 
		101.5,180 101.8,180 102.1,180 102.1,180 102.3,180 102.3,180 102.3,180 102.5,180 102.5,180 102.5,180 102.8,180 103,180 
		103.1,180 103.1,180 103.3,180 103.3,180 103.3,180 103.4,180 103.6,180 103.8,180 104.1,180 104.2,180 104.3,180 104.4,180 
		104.9,180 105.1,180 105.1,180 105.3,180 105.4,180 105.5,180 105.8,180 106,180 106.2,180 106.2,180 106.4,180 106.4,180 
		106.4,180 106.7,180 106.9,180 106.9,180 107.1,180 107.1,180 107.2,180 107.2,180 107.3,180 107.5,180 107.7,180 107.9,180 
		108,180 108.2,180 108.4,180 108.9,180 109,180 109.1,180 109.2,180 109.2,180 109.4,180 109.7,180 109.9,180 109.9,180 110.1,180 
		110.2,180 110.2,180 110.5,180 110.7,180 110.8,180 110.9,180 111,180 111,180 111.2,180 111.2,180 111.4,180 111.5,180 111.6,180 
		111.8,180 111.9,180 112,180 112.2,180 112.8,180 112.9,180 113,180 113.1,180 113.1,180 113.3,180 113.5,180 113.8,180 113.8,180 
		114,180 114,180 114.2,180 114.5,180 114.6,180 114.8,180 114.8,180 115,180 115,180 115.1,180 115.3,180 115.3,180 115.5,180 
		115.6,180 115.8,180 116,180 116.1,180 116.6,180 116.8,180 116.8,180 117,180 117,180 117.2,180 117.5,180 117.6,180 117.8,180 
		117.9,180 118.1,180 118.3,180 118.6,180 118.7,180 118.8,180 118.9,180 119,180 119.1,180 119.2,180 119.4,180 119.6,180 
		119.7,180 119.9,180 120.1,180 120.4,180 120.7,180 120.9,180 120.9,180 121.1,180 121.4,180 121.6,180 121.7,180 121.9,180 
		122.2,180 122.4,180 122.6,180 122.7,180 122.9,180 123.1,180 123.3,180 123.4,180 123.5,180 123.7,180 123.9,180 124.2,180 
		124.4,180 124.8,180 125,180 125.2,180 125.4,180 125.7,180 126.3,180 126.4,180 126.5,180 126.8,180 127,180 127.3,180 127.3,180 
		127.5,180 127.8,180 128.1,180 128.3,180 128.5,180 129.3,180 129.5,180 130.3,180 130.4,180 130.5,180 130.8,180 131.1,180 
		131.3,180 131.5,180 132.1,180 132.2,180 132.4,180 133.4,180 134.1,180 134.4,180 134.6,180 135.1,180 135.2,180 135.4,180 
		135.9,180 136.1,180 136.2,180 138.1,180 138.2,180 138.4,180 138.9,180 139.2,180 139.3,180 139.8,180 140,180 140.2,180 142,180 
		142.2,180 142.3,180 142.8,180 143,180 143.2,180 143.9,180 144.1,180 145.8,180 146,180 146.2,180 146.9,180 147.1,180 147.9,180 
		149.9,180 150.1,180 151,180 154,180 154,0 	"/>
</g>
<g id="figure">
	<g>
		<path d="M50,104.3c0,3.1-0.6,5.8-1.7,8.1c-1.1,2.4-2.7,4.4-4.7,6.1c-2,1.7-4.3,2.9-7,3.7c-2.7,0.8-5.6,1.3-8.7,1.3
			c-2.2,0-4.2-0.2-6.1-0.6c-1.9-0.4-3.5-0.8-5-1.4c-1.5-0.5-2.7-1.1-3.7-1.7c-1-0.6-1.7-1.1-2.1-1.5s-0.7-0.9-0.9-1.5
			c-0.2-0.6-0.3-1.5-0.3-2.5c0-0.7,0-1.3,0.1-1.8c0.1-0.5,0.2-0.9,0.3-1.2c0.1-0.3,0.3-0.5,0.5-0.6s0.4-0.2,0.7-0.2
			c0.5,0,1.1,0.3,2,0.9c0.9,0.6,2,1.2,3.3,1.9c1.3,0.7,3,1.3,4.9,1.9c1.9,0.6,4.1,0.9,6.6,0.9c1.9,0,3.6-0.3,5.2-0.8
			c1.6-0.5,2.9-1.2,4-2.1s2-2.1,2.6-3.4c0.6-1.3,0.9-2.9,0.9-4.6c0-1.8-0.4-3.4-1.3-4.7c-0.8-1.3-1.9-2.5-3.3-3.4
			c-1.4-1-2.9-1.9-4.7-2.7c-1.8-0.8-3.6-1.7-5.4-2.5c-1.8-0.9-3.6-1.8-5.4-2.8c-1.7-1-3.3-2.3-4.7-3.7s-2.5-3.1-3.3-5
			c-0.9-1.9-1.3-4.2-1.3-6.8c0-2.7,0.5-5.1,1.5-7.3c1-2.1,2.4-3.9,4.1-5.4c1.8-1.4,3.9-2.5,6.3-3.3c2.4-0.8,5.1-1.1,7.9-1.1
			c1.4,0,2.9,0.1,4.4,0.4c1.5,0.3,2.8,0.6,4.1,1c1.3,0.4,2.4,0.9,3.4,1.4c1,0.5,1.7,0.9,2,1.3c0.3,0.3,0.5,0.6,0.6,0.8
			c0.1,0.2,0.2,0.4,0.3,0.7c0.1,0.3,0.1,0.6,0.2,1c0,0.4,0,0.9,0,1.6c0,0.6,0,1.1-0.1,1.6c-0.1,0.5-0.1,0.9-0.2,1.2
			c-0.1,0.3-0.2,0.6-0.4,0.7c-0.2,0.2-0.4,0.2-0.6,0.2c-0.4,0-0.9-0.2-1.7-0.7c-0.8-0.5-1.8-1-2.9-1.6c-1.1-0.6-2.5-1.1-4-1.6
			c-1.6-0.5-3.3-0.7-5.3-0.7c-1.8,0-3.4,0.2-4.7,0.7c-1.3,0.5-2.4,1.1-3.3,1.9c-0.9,0.8-1.5,1.8-2,2.9s-0.7,2.3-0.7,3.5
			c0,1.8,0.4,3.4,1.3,4.7s2,2.5,3.3,3.5c1.4,1,3,1.9,4.8,2.8c1.8,0.8,3.6,1.7,5.4,2.5c1.8,0.9,3.7,1.8,5.4,2.8
			c1.8,1,3.4,2.2,4.8,3.6c1.4,1.4,2.5,3,3.4,4.9C49.6,99.5,50,101.7,50,104.3z"/>
		<path d="M94,114.4c0,0.6,0,1.1-0.1,1.5c0,0.4-0.1,0.8-0.2,1.1s-0.2,0.5-0.3,0.8c-0.1,0.2-0.4,0.5-0.8,1s-1.1,0.9-2.1,1.6
			c-1,0.6-2.1,1.2-3.4,1.7c-1.3,0.5-2.6,0.9-4.1,1.2c-1.5,0.3-3,0.5-4.6,0.5c-3.3,0-6.1-0.5-8.7-1.6c-2.5-1.1-4.6-2.6-6.3-4.7
			c-1.7-2.1-3-4.6-3.9-7.6c-0.9-3-1.3-6.5-1.3-10.4c0-4.5,0.5-8.3,1.6-11.5c1.1-3.2,2.6-5.8,4.5-7.9c1.9-2,4.1-3.6,6.7-4.6
			c2.6-1,5.3-1.5,8.3-1.5c1.4,0,2.8,0.1,4.2,0.4c1.4,0.3,2.6,0.6,3.7,1.1c1.1,0.4,2.2,0.9,3,1.5c0.9,0.6,1.5,1.1,1.9,1.5
			s0.7,0.7,0.8,1c0.2,0.2,0.3,0.5,0.4,0.8c0.1,0.3,0.2,0.7,0.2,1.1s0.1,0.9,0.1,1.5c0,1.3-0.2,2.2-0.5,2.7c-0.3,0.5-0.7,0.8-1.1,0.8
			c-0.5,0-1.1-0.3-1.7-0.8c-0.7-0.6-1.5-1.2-2.5-1.8c-1-0.7-2.2-1.3-3.6-1.8c-1.4-0.6-3.1-0.8-5.1-0.8c-4,0-7,1.5-9.2,4.6
			c-2.1,3.1-3.2,7.5-3.2,13.4c0,2.9,0.3,5.5,0.8,7.7c0.6,2.2,1.4,4,2.4,5.5s2.4,2.6,3.9,3.3c1.6,0.7,3.3,1.1,5.4,1.1
			c1.9,0,3.6-0.3,5-0.9c1.4-0.6,2.7-1.3,3.7-2c1.1-0.7,1.9-1.4,2.7-2c0.7-0.6,1.3-0.9,1.7-0.9c0.2,0,0.4,0.1,0.6,0.2
			c0.2,0.1,0.3,0.4,0.4,0.7c0.1,0.3,0.2,0.7,0.3,1.2C94,113.2,94,113.8,94,114.4z"/>
		<path d="M144,121.3c0,0.3-0.1,0.5-0.2,0.7c-0.1,0.2-0.4,0.3-0.7,0.5c-0.3,0.1-0.7,0.2-1.3,0.3c-0.5,0.1-1.2,0.1-2,0.1
			c-0.8,0-1.5,0-2.1-0.1c-0.5-0.1-1-0.2-1.3-0.3s-0.5-0.3-0.7-0.5s-0.2-0.4-0.2-0.7V94.8c0-2.6-0.2-4.7-0.6-6.2
			c-0.4-1.6-1-2.9-1.8-4.1c-0.8-1.1-1.8-2-3-2.6c-1.2-0.6-2.6-0.9-4.2-0.9c-2.1,0-4.2,0.7-6.2,2.2c-2.1,1.5-4.3,3.6-6.5,6.5v31.6
			c0,0.3-0.1,0.5-0.2,0.7c-0.1,0.2-0.4,0.3-0.7,0.5c-0.3,0.1-0.7,0.2-1.3,0.3c-0.5,0.1-1.2,0.1-2.1,0.1c-0.8,0-1.5,0-2-0.1
			c-0.5-0.1-1-0.2-1.3-0.3s-0.5-0.3-0.7-0.5c-0.1-0.2-0.2-0.4-0.2-0.7V54.1c0-0.3,0.1-0.5,0.2-0.7c0.1-0.2,0.3-0.4,0.7-0.5
			c0.3-0.1,0.7-0.2,1.3-0.3c0.5-0.1,1.2-0.1,2-0.1c0.8,0,1.5,0,2.1,0.1c0.5,0.1,1,0.2,1.3,0.3c0.3,0.1,0.5,0.3,0.7,0.5
			c0.1,0.2,0.2,0.4,0.2,0.7v27.1c2.4-2.5,4.8-4.4,7.2-5.6c2.4-1.2,4.8-1.8,7.3-1.8c3,0,5.6,0.5,7.6,1.5c2.1,1,3.7,2.4,5,4.1
			c1.3,1.7,2.2,3.7,2.7,6c0.6,2.3,0.8,5.1,0.8,8.3V121.3z"/>
	</g>
</g>
</svg>
