<?xml version="1.0" encoding="utf-8"?>
<!-- Generator: Adobe Illustrator 22.1.0, SVG Export Plug-In . SVG Version: 6.00 Build 0)  -->
<svg version="1.1" xmlns="http://www.w3.org/2000/svg" xmlns:xlink="http://www.w3.org/1999/xlink" x="0px" y="0px"
	 viewBox="0 0 108.6 180" style="enable-background:new 0 0 108.6 180;" xml:space="preserve">
<style type="text/css">
	.st0{display:none;}
	.st1{display:inline;fill:#FF0000;}
</style>
<g id="bg" class="st0">
	<polygon class="st1" points="106.5,0 105.9,0 105.7,0 104.4,0 103.8,0 103.6,0 103.2,0 103,0 102.9,0 101.6,0 101.5,0 101,0 
		100.9,0 100.7,0 100.4,0 100.3,0 100.1,0 98.9,0 98.8,0 98.6,0 98.2,0 98.2,0 98,0 97.6,0 97.5,0 97.4,0 96.1,0 96,0 95.9,0 
		95.5,0 95.4,0 95.3,0 94.9,0 94.8,0 94.6,0 94.1,0 93.4,0 93.2,0 93.2,0 92.8,0 92.6,0 92.5,0 92.3,0 92,0 92,0 91.9,0 91.4,0 
		91.2,0 90.7,0 90.5,0 90.4,0 90.2,0 89.9,0 89.8,0 89.8,0 89.6,0 89.4,0 89.2,0 89.2,0 89.1,0 88.6,0 88.5,0 88.3,0 88.1,0 88,0 
		87.8,0 87.6,0 87.4,0 87.3,0 87.1,0 87,0 86.9,0 86.8,0 86.7,0 86.5,0 86.5,0 86.4,0 86.2,0 86,0 85.8,0 85.8,0 85.6,0 85.4,0 
		85.3,0 85.3,0 85.1,0 84.9,0 84.7,0 84.6,0 84.4,0 84.4,0 84.2,0 84.1,0 84,0 84,0 83.9,0 83.8,0 83.7,0 83.6,0 83.5,0 83.3,0 
		83.1,0 83.1,0 83,0 82.9,0 82.7,0 82.6,0 82.5,0 82.4,0 82.4,0 82.3,0 81.9,0 81.8,0 81.7,0 81.6,0 81.5,0 81.3,0 81.3,0 81.2,0 
		81.1,0 81.1,0 81,0 81,0 80.8,0 80.8,0 80.6,0 80.4,0 80.4,0 80.3,0 80.2,0 80.1,0 79.9,0 79.8,0 79.8,0 79.7,0 79.7,0 79.5,0 
		79.2,0 79,0 79,0 78.8,0 78.7,0 78.6,0 78.6,0 78.4,0 78.4,0 78.3,0 78.3,0 78.3,0 78.1,0 78.1,0 78,0 77.8,0 77.8,0 77.7,0 
		77.5,0 77.5,0 77.4,0 77.2,0 77,0 77,0 76.9,0 76.9,0 76.8,0 76.5,0 76.3,0 76.2,0 76.1,0 76,0 75.8,0 75.7,0 75.6,0 75.6,0 
		75.6,0 75.5,0 75.4,0 75.4,0 75.2,0 75.1,0 75,0 75,0 74.9,0 74.9,0 74.8,0 74.6,0 74.4,0 74.3,0 74.3,0 74.2,0 74.2,0 74,0 
		73.6,0 73.6,0 73.5,0 73.4,0 73.2,0 73.1,0 72.9,0 72.9,0 72.9,0 72.8,0 72.8,0 72.7,0 72.7,0 72.5,0 72.3,0 72.3,0 72.3,0 72.2,0 
		72.2,0 72.2,0 72,0 72,0 71.8,0 71.6,0 71.5,0 71.4,0 71.4,0 71.3,0 70.9,0 70.8,0 70.8,0 70.7,0 70.7,0 70.6,0 70.4,0 70.2,0 
		70.2,0 70.2,0 70,0 70,0 70,0 69.9,0 69.9,0 69.7,0 69.6,0 69.5,0 69.5,0 69.4,0 69.4,0 69.3,0 69.3,0 69.3,0 69.3,0 69.1,0 
		68.9,0 68.8,0 68.7,0 68.6,0 68.6,0 68.2,0 68.1,0 68,0 68,0 67.9,0 67.9,0 67.9,0 67.7,0 67.5,0 67.5,0 67.4,0 67.3,0 67.3,0 
		67.3,0 67.2,0 67.2,0 67.1,0 66.9,0 66.8,0 66.8,0 66.8,0 66.7,0 66.6,0 66.6,0 66.6,0 66.6,0 66.6,0 66.5,0 66.4,0 66.2,0 66.1,0 
		66,0 65.9,0 65.7,0 65.4,0 65.3,0 65.3,0 65.2,0 65.2,0 65.2,0 65.1,0 65,0 65,0 64.8,0 64.7,0 64.7,0 64.7,0 64.6,0 64.5,0 
		64.4,0 64.4,0 64.4,0 64.2,0 64.1,0 64.1,0 64.1,0 63.9,0 63.9,0 63.9,0 63.9,0 63.9,0 63.8,0 63.7,0 63.6,0 63.6,0 63.5,0 63.3,0 
		63.2,0 63.2,0 63,0 62.6,0 62.5,0 62.5,0 62.5,0 62.5,0 62.4,0 62.4,0 62.3,0 62.3,0 62.1,0 61.9,0 61.9,0 61.9,0 61.8,0 61.8,0 
		61.8,0 61.7,0 61.6,0 61.4,0 61.4,0 61.3,0 61.2,0 61.2,0 61.2,0 61.1,0 61.1,0 61,0 61,0 60.9,0 60.8,0 60.7,0 60.6,0 60.5,0 
		60.5,0 60.4,0 60.3,0 59.9,0 59.8,0 59.8,0 59.8,0 59.7,0 59.6,0 59.6,0 59.6,0 59.5,0 59.3,0 59.2,0 59.2,0 59.1,0 59.1,0 59.1,0 
		58.9,0 58.9,0 58.7,0 58.7,0 58.6,0 58.5,0 58.5,0 58.4,0 58.4,0 58.3,0 58.3,0 58.2,0 58.1,0 58.1,0 58,0 57.8,0 57.8,0 57.8,0 
		57.6,0 57.6,0 57.5,0 57.3,0 57.1,0 57,0 56.9,0 56.9,0 56.9,0 56.8,0 56.8,0 56.6,0 56.6,0 56.4,0 56.3,0 56.3,0 56.3,0 56.2,0 
		56.2,0 56,0 56,0 55.8,0 55.8,0 55.7,0 55.7,0 55.6,0 55.6,0 55.5,0 55.5,0 55.4,0 55.2,0 55.1,0 55.1,0 55.1,0 54.9,0 54.9,0 
		54.8,0 54.8,0 54.6,0 54.6,0 54.5,0 54.4,0 54.2,0 54.2,0 54.1,0 54,0 53.9,0 53.8,0 53.7,0 53.7,0 53.5,0 53.5,0 53.5,0 53.4,0 
		53.3,0 53.1,0 53.1,0 53,0 53,0 53,0 52.9,0 52.8,0 52.8,0 52.6,0 52.6,0 52.4,0 52.4,0 52.4,0 52.3,0 52.3,0 52.2,0 52.1,0 52,0 
		51.8,0 51.8,0 51.7,0 51.7,0 51.7,0 51.6,0 51.5,0 51.3,0 51.1,0 51,0 51,0 50.8,0 50.8,0 50.8,0 50.7,0 50.5,0 50.5,0 50.4,0 
		50.3,0 50.3,0 50.2,0 50.2,0 50.1,0 50.1,0 50.1,0 49.9,0 49.9,0 49.7,0 49.7,0 49.6,0 49.6,0 49.5,0 49.4,0 49.4,0 49.3,0 49.1,0 
		49,0 49,0 49,0 49,0 48.9,0 48.8,0 48.8,0 48.7,0 48.3,0 48.3,0 48.1,0 48.1,0 48,0 47.9,0 47.8,0 47.7,0 47.6,0 47.6,0 47.6,0 
		47.5,0 47.4,0 47.4,0 47.4,0 47.3,0 47.3,0 47.2,0 47,0 46.9,0 46.8,0 46.8,0 46.8,0 46.7,0 46.7,0 46.7,0 46.5,0 46.3,0 46.3,0 
		46.2,0 46.2,0 46.2,0 46.1,0 46.1,0 46.1,0 46,0 45.6,0 45.5,0 45.4,0 45.3,0 45.1,0 45.1,0 45,0 44.9,0 44.9,0 44.8,0 44.7,0 
		44.7,0 44.7,0 44.7,0 44.6,0 44.5,0 44.5,0 44.4,0 44.2,0 44.2,0 44.2,0 44.1,0 44,0 44,0 44,0 43.9,0 43.8,0 43.6,0 43.6,0 
		43.5,0 43.5,0 43.4,0 43.4,0 43.3,0 43.3,0 43.3,0 42.9,0 42.7,0 42.6,0 42.6,0 42.4,0 42.3,0 42.1,0 42.1,0 42.1,0 42,0 42,0 
		42,0 41.9,0 41.8,0 41.8,0 41.8,0 41.7,0 41.5,0 41.5,0 41.4,0 41.3,0 41.3,0 41.3,0 41.2,0 41.2,0 41.1,0 40.9,0 40.8,0 40.7,0 
		40.7,0 40.6,0 40.6,0 40.6,0 40.5,0 40,0 40,0 39.9,0 39.9,0 39.7,0 39.5,0 39.3,0 39.3,0 39.3,0 39.3,0 39.2,0 39.2,0 39.2,0 
		39.1,0 39,0 38.9,0 38.7,0 38.7,0 38.6,0 38.6,0 38.6,0 38.5,0 38.4,0 38.4,0 38.2,0 38,0 37.9,0 37.9,0 37.9,0 37.8,0 37.7,0 
		37.3,0 37.2,0 37.2,0 37.1,0 37,0 36.8,0 36.6,0 36.6,0 36.5,0 36.5,0 36.4,0 36.3,0 36.3,0 36.3,0 36.1,0 35.9,0 35.9,0 35.9,0 
		35.8,0 35.7,0 35.7,0 35.7,0 35.5,0 35.4,0 35.2,0 35.1,0 35,0 35,0 34.6,0 34.5,0 34.4,0 34.3,0 34.3,0 34.2,0 34,0 33.8,0 
		33.7,0 33.7,0 33.6,0 33.6,0 33.6,0 33.4,0 33.2,0 33.2,0 33.1,0 33.1,0 33,0 33,0 32.9,0 32.8,0 32.6,0 32.5,0 32.5,0 32.3,0 
		32.2,0 31.8,0 31.7,0 31.7,0 31.6,0 31.6,0 31.4,0 31.2,0 31.1,0 31.1,0 30.9,0 30.9,0 30.9,0 30.7,0 30.5,0 30.5,0 30.4,0 30.3,0 
		30.3,0 30.2,0 30.2,0 30,0 30,0 29.9,0 29.8,0 29.7,0 29.6,0 29.4,0 29.1,0 28.9,0 28.9,0 28.8,0 28.8,0 28.7,0 28.5,0 28.4,0 
		28.4,0 28.2,0 28.2,0 28.1,0 27.9,0 27.8,0 27.6,0 27.6,0 27.5,0 27.5,0 27.5,0 27.3,0 27.3,0 27.1,0 27,0 26.9,0 26.8,0 26.7,0 
		26.3,0 26.2,0 26.2,0 26.1,0 26.1,0 25.9,0 25.7,0 25.6,0 25.5,0 25.5,0 25.3,0 25.1,0 25,0 24.9,0 24.8,0 24.7,0 24.7,0 24.6,0 
		24.5,0 24.4,0 24.3,0 24.2,0 24.1,0 23.9,0 23.7,0 23.5,0 23.3,0 23.3,0 23.2,0 23,0 22.9,0 22.8,0 22.6,0 22.4,0 22.3,0 22.1,0 
		22.1,0 21.9,0 21.8,0 21.7,0 21.6,0 21.5,0 21.3,0 21.2,0 21,0 20.8,0 20.6,0 20.5,0 20.3,0 20.1,0 20,0 19.5,0 19.4,0 19.4,0 
		19.2,0 19.1,0 18.9,0 18.8,0 18.7,0 18.5,0 18.3,0 18.1,0 18,0 17.4,0 17.3,0 16.7,0 16.7,0 16.6,0 16.3,0 16.1,0 16,0 15.8,0 
		15.5,0 15.4,0 15.2,0 14.5,0 14,0 13.8,0 13.7,0 13.3,0 13.3,0 13.1,0 12.7,0 12.6,0 12.5,0 11.2,0 11.1,0 11,0 10.6,0 10.5,0 
		10.4,0 10,0 9.9,0 9.7,0 8.5,0 8.3,0 8.2,0 7.9,0 7.7,0 7.6,0 7.1,0 7,0 5.7,0 5.6,0 5.5,0 5,0 4.9,0 4.3,0 2.9,0 2.7,0 2.1,0 0,0 
		0,180 2.1,180 2.7,180 2.9,180 4.3,180 4.9,180 5,180 5.5,180 5.6,180 5.7,180 7,180 7.1,180 7.6,180 7.7,180 7.9,180 8.2,180 
		8.3,180 8.5,180 9.7,180 9.9,180 10,180 10.4,180 10.5,180 10.6,180 11,180 11.1,180 11.2,180 12.5,180 12.6,180 12.7,180 
		13.1,180 13.3,180 13.3,180 13.7,180 13.8,180 14,180 14.5,180 15.2,180 15.4,180 15.5,180 15.8,180 16,180 16.1,180 16.3,180 
		16.6,180 16.7,180 16.7,180 17.3,180 17.4,180 18,180 18.1,180 18.3,180 18.5,180 18.7,180 18.8,180 18.9,180 19.1,180 19.2,180 
		19.4,180 19.4,180 19.5,180 20,180 20.1,180 20.3,180 20.5,180 20.6,180 20.8,180 21,180 21.2,180 21.3,180 21.5,180 21.6,180 
		21.7,180 21.8,180 21.9,180 22.1,180 22.1,180 22.3,180 22.4,180 22.6,180 22.8,180 22.9,180 23,180 23.2,180 23.3,180 23.3,180 
		23.5,180 23.7,180 23.9,180 24.1,180 24.2,180 24.3,180 24.4,180 24.5,180 24.6,180 24.7,180 24.7,180 24.8,180 24.9,180 25,180 
		25.1,180 25.3,180 25.5,180 25.5,180 25.6,180 25.7,180 25.9,180 26.1,180 26.1,180 26.2,180 26.2,180 26.3,180 26.7,180 26.8,180 
		26.9,180 27,180 27.1,180 27.3,180 27.3,180 27.5,180 27.5,180 27.5,180 27.6,180 27.6,180 27.8,180 27.9,180 28.1,180 28.2,180 
		28.2,180 28.4,180 28.4,180 28.5,180 28.7,180 28.8,180 28.8,180 28.9,180 28.9,180 29.1,180 29.4,180 29.6,180 29.7,180 29.8,180 
		29.9,180 30,180 30,180 30.2,180 30.2,180 30.3,180 30.3,180 30.4,180 30.5,180 30.5,180 30.7,180 30.9,180 30.9,180 30.9,180 
		31.1,180 31.1,180 31.2,180 31.4,180 31.6,180 31.6,180 31.7,180 31.7,180 31.8,180 32.2,180 32.3,180 32.5,180 32.5,180 32.6,180 
		32.8,180 32.9,180 33,180 33,180 33.1,180 33.1,180 33.2,180 33.2,180 33.4,180 33.6,180 33.6,180 33.6,180 33.7,180 33.7,180 
		33.8,180 34,180 34.2,180 34.3,180 34.3,180 34.4,180 34.5,180 34.6,180 35,180 35,180 35.1,180 35.2,180 35.4,180 35.5,180 
		35.7,180 35.7,180 35.7,180 35.8,180 35.9,180 35.9,180 35.9,180 36.1,180 36.3,180 36.3,180 36.3,180 36.4,180 36.5,180 36.5,180 
		36.6,180 36.6,180 36.8,180 37,180 37.1,180 37.2,180 37.2,180 37.3,180 37.7,180 37.8,180 37.9,180 37.9,180 37.9,180 38,180 
		38.2,180 38.4,180 38.4,180 38.5,180 38.6,180 38.6,180 38.6,180 38.7,180 38.7,180 38.9,180 39,180 39.1,180 39.2,180 39.2,180 
		39.2,180 39.3,180 39.3,180 39.3,180 39.3,180 39.5,180 39.7,180 39.9,180 39.9,180 40,180 40,180 40.5,180 40.6,180 40.6,180 
		40.6,180 40.7,180 40.7,180 40.8,180 40.9,180 41.1,180 41.2,180 41.2,180 41.3,180 41.3,180 41.3,180 41.4,180 41.5,180 41.5,180 
		41.7,180 41.8,180 41.8,180 41.8,180 41.9,180 42,180 42,180 42,180 42.1,180 42.1,180 42.1,180 42.3,180 42.4,180 42.6,180 
		42.6,180 42.7,180 42.9,180 43.3,180 43.3,180 43.3,180 43.4,180 43.4,180 43.5,180 43.5,180 43.6,180 43.6,180 43.8,180 43.9,180 
		44,180 44,180 44,180 44.1,180 44.2,180 44.2,180 44.2,180 44.4,180 44.5,180 44.5,180 44.6,180 44.7,180 44.7,180 44.7,180 
		44.7,180 44.8,180 44.9,180 44.9,180 45,180 45.1,180 45.1,180 45.3,180 45.4,180 45.5,180 45.6,180 46,180 46.1,180 46.1,180 
		46.1,180 46.2,180 46.2,180 46.2,180 46.3,180 46.3,180 46.5,180 46.7,180 46.7,180 46.7,180 46.8,180 46.8,180 46.8,180 46.9,180 
		47,180 47.2,180 47.3,180 47.3,180 47.4,180 47.4,180 47.4,180 47.5,180 47.6,180 47.6,180 47.6,180 47.7,180 47.8,180 47.9,180 
		48,180 48.1,180 48.1,180 48.3,180 48.3,180 48.7,180 48.8,180 48.8,180 48.9,180 49,180 49,180 49,180 49,180 49.1,180 49.3,180 
		49.4,180 49.4,180 49.5,180 49.6,180 49.6,180 49.7,180 49.7,180 49.9,180 49.9,180 50.1,180 50.1,180 50.1,180 50.2,180 50.2,180 
		50.3,180 50.3,180 50.4,180 50.5,180 50.5,180 50.7,180 50.8,180 50.8,180 50.8,180 51,180 51,180 51.1,180 51.3,180 51.5,180 
		51.6,180 51.7,180 51.7,180 51.7,180 51.8,180 51.8,180 52,180 52.1,180 52.2,180 52.3,180 52.3,180 52.4,180 52.4,180 52.4,180 
		52.6,180 52.6,180 52.8,180 52.8,180 52.9,180 53,180 53,180 53,180 53.1,180 53.1,180 53.3,180 53.4,180 53.5,180 53.5,180 
		53.5,180 53.7,180 53.7,180 53.8,180 53.9,180 54,180 54.1,180 54.2,180 54.2,180 54.4,180 54.5,180 54.6,180 54.6,180 54.8,180 
		54.8,180 54.9,180 54.9,180 55.1,180 55.1,180 55.1,180 55.2,180 55.4,180 55.5,180 55.5,180 55.6,180 55.6,180 55.7,180 55.7,180 
		55.8,180 55.8,180 56,180 56,180 56.2,180 56.2,180 56.3,180 56.3,180 56.3,180 56.4,180 56.6,180 56.6,180 56.8,180 56.8,180 
		56.9,180 56.9,180 56.9,180 57,180 57.1,180 57.3,180 57.5,180 57.6,180 57.6,180 57.8,180 57.8,180 57.8,180 58,180 58.1,180 
		58.1,180 58.2,180 58.3,180 58.3,180 58.4,180 58.4,180 58.5,180 58.5,180 58.6,180 58.7,180 58.7,180 58.9,180 58.9,180 59.1,180 
		59.1,180 59.1,180 59.2,180 59.2,180 59.3,180 59.5,180 59.6,180 59.6,180 59.6,180 59.7,180 59.8,180 59.8,180 59.8,180 59.9,180 
		60.3,180 60.4,180 60.5,180 60.5,180 60.6,180 60.7,180 60.8,180 60.9,180 61,180 61,180 61.1,180 61.1,180 61.2,180 61.2,180 
		61.2,180 61.3,180 61.4,180 61.4,180 61.6,180 61.7,180 61.8,180 61.8,180 61.8,180 61.9,180 61.9,180 61.9,180 62.1,180 62.3,180 
		62.3,180 62.4,180 62.4,180 62.5,180 62.5,180 62.5,180 62.5,180 62.6,180 63,180 63.2,180 63.2,180 63.3,180 63.5,180 63.6,180 
		63.6,180 63.7,180 63.8,180 63.9,180 63.9,180 63.9,180 63.9,180 63.9,180 64.1,180 64.1,180 64.1,180 64.2,180 64.4,180 64.4,180 
		64.4,180 64.5,180 64.6,180 64.7,180 64.7,180 64.7,180 64.8,180 65,180 65,180 65.1,180 65.2,180 65.2,180 65.2,180 65.3,180 
		65.3,180 65.4,180 65.7,180 65.9,180 66,180 66.1,180 66.2,180 66.4,180 66.5,180 66.6,180 66.6,180 66.6,180 66.6,180 66.6,180 
		66.7,180 66.8,180 66.8,180 66.8,180 66.9,180 67.1,180 67.2,180 67.2,180 67.3,180 67.3,180 67.3,180 67.4,180 67.5,180 67.5,180 
		67.7,180 67.9,180 67.9,180 67.9,180 68,180 68,180 68.1,180 68.2,180 68.6,180 68.6,180 68.7,180 68.8,180 68.9,180 69.1,180 
		69.3,180 69.3,180 69.3,180 69.3,180 69.4,180 69.4,180 69.5,180 69.5,180 69.6,180 69.7,180 69.9,180 69.9,180 70,180 70,180 
		70,180 70.2,180 70.2,180 70.2,180 70.4,180 70.6,180 70.7,180 70.7,180 70.8,180 70.8,180 70.9,180 71.3,180 71.4,180 71.4,180 
		71.5,180 71.6,180 71.8,180 72,180 72,180 72.2,180 72.2,180 72.2,180 72.3,180 72.3,180 72.3,180 72.5,180 72.7,180 72.7,180 
		72.8,180 72.8,180 72.9,180 72.9,180 72.9,180 73.1,180 73.2,180 73.4,180 73.5,180 73.6,180 73.6,180 74,180 74.2,180 74.2,180 
		74.3,180 74.3,180 74.4,180 74.6,180 74.8,180 74.9,180 74.9,180 75,180 75,180 75.1,180 75.2,180 75.4,180 75.4,180 75.5,180 
		75.6,180 75.6,180 75.6,180 75.7,180 75.8,180 76,180 76.1,180 76.2,180 76.3,180 76.5,180 76.8,180 76.9,180 76.9,180 77,180 
		77,180 77.2,180 77.4,180 77.5,180 77.5,180 77.7,180 77.8,180 77.8,180 78,180 78.1,180 78.1,180 78.3,180 78.3,180 78.3,180 
		78.4,180 78.4,180 78.6,180 78.6,180 78.7,180 78.8,180 79,180 79,180 79.2,180 79.5,180 79.7,180 79.7,180 79.8,180 79.8,180 
		79.9,180 80.1,180 80.2,180 80.3,180 80.4,180 80.4,180 80.6,180 80.8,180 80.8,180 81,180 81,180 81.1,180 81.1,180 81.2,180 
		81.3,180 81.3,180 81.5,180 81.6,180 81.7,180 81.8,180 81.9,180 82.3,180 82.4,180 82.4,180 82.5,180 82.6,180 82.7,180 82.9,180 
		83,180 83.1,180 83.1,180 83.3,180 83.5,180 83.6,180 83.7,180 83.8,180 83.9,180 84,180 84,180 84.1,180 84.2,180 84.4,180 
		84.4,180 84.6,180 84.7,180 84.9,180 85.1,180 85.3,180 85.3,180 85.4,180 85.6,180 85.8,180 85.8,180 86,180 86.2,180 86.4,180 
		86.5,180 86.5,180 86.7,180 86.8,180 86.9,180 87,180 87.1,180 87.3,180 87.4,180 87.6,180 87.8,180 88,180 88.1,180 88.3,180 
		88.5,180 88.6,180 89.1,180 89.2,180 89.2,180 89.4,180 89.6,180 89.8,180 89.8,180 89.9,180 90.2,180 90.4,180 90.5,180 90.7,180 
		91.2,180 91.4,180 91.9,180 92,180 92,180 92.3,180 92.5,180 92.6,180 92.8,180 93.2,180 93.2,180 93.4,180 94.1,180 94.6,180 
		94.8,180 94.9,180 95.3,180 95.4,180 95.5,180 95.9,180 96,180 96.1,180 97.4,180 97.5,180 97.6,180 98,180 98.2,180 98.2,180 
		98.6,180 98.8,180 98.9,180 100.1,180 100.3,180 100.4,180 100.7,180 100.9,180 101,180 101.5,180 101.6,180 102.9,180 103,180 
		103.2,180 103.6,180 103.8,180 104.4,180 105.7,180 105.9,180 106.5,180 108.6,180 108.6,0 	"/>
</g>
<g id="figure">
	<g>
		<path d="M50,104.3c0,3.1-0.6,5.8-1.7,8.1c-1.1,2.4-2.7,4.4-4.7,6.1c-2,1.7-4.3,2.9-7,3.7c-2.7,0.8-5.6,1.3-8.7,1.3
			c-2.2,0-4.2-0.2-6.1-0.6c-1.9-0.4-3.5-0.8-5-1.4c-1.5-0.5-2.7-1.1-3.7-1.7c-1-0.6-1.7-1.1-2.1-1.5s-0.7-0.9-0.9-1.5
			c-0.2-0.6-0.3-1.5-0.3-2.5c0-0.7,0-1.3,0.1-1.8c0.1-0.5,0.2-0.9,0.3-1.2c0.1-0.3,0.3-0.5,0.5-0.6s0.4-0.2,0.7-0.2
			c0.5,0,1.1,0.3,2,0.9c0.9,0.6,2,1.2,3.3,1.9c1.3,0.7,3,1.3,4.9,1.9c1.9,0.6,4.1,0.9,6.6,0.9c1.9,0,3.6-0.3,5.2-0.8
			c1.6-0.5,2.9-1.2,4-2.1s2-2.1,2.6-3.4c0.6-1.3,0.9-2.9,0.9-4.6c0-1.8-0.4-3.4-1.3-4.7c-0.8-1.3-1.9-2.5-3.3-3.4
			c-1.4-1-2.9-1.9-4.7-2.7c-1.8-0.8-3.6-1.7-5.4-2.5c-1.8-0.9-3.6-1.8-5.4-2.8c-1.7-1-3.3-2.3-4.7-3.7s-2.5-3.1-3.3-5
			c-0.9-1.9-1.3-4.2-1.3-6.8c0-2.7,0.5-5.1,1.5-7.3c1-2.1,2.4-3.9,4.1-5.4c1.8-1.4,3.9-2.5,6.3-3.3c2.4-0.8,5.1-1.1,7.9-1.1
			c1.4,0,2.9,0.1,4.4,0.4c1.5,0.3,2.8,0.6,4.1,1c1.3,0.4,2.4,0.9,3.4,1.4c1,0.5,1.7,0.9,2,1.3c0.3,0.3,0.5,0.6,0.6,0.8
			c0.1,0.2,0.2,0.4,0.3,0.7c0.1,0.3,0.1,0.6,0.2,1c0,0.4,0,0.9,0,1.6c0,0.6,0,1.1-0.1,1.6c-0.1,0.5-0.1,0.9-0.2,1.2
			c-0.1,0.3-0.2,0.6-0.4,0.7c-0.2,0.2-0.4,0.2-0.6,0.2c-0.4,0-0.9-0.2-1.7-0.7c-0.8-0.5-1.8-1-2.9-1.6c-1.1-0.6-2.5-1.1-4-1.6
			c-1.6-0.5-3.3-0.7-5.3-0.7c-1.8,0-3.4,0.2-4.7,0.7c-1.3,0.5-2.4,1.1-3.3,1.9c-0.9,0.8-1.5,1.8-2,2.9s-0.7,2.3-0.7,3.5
			c0,1.8,0.4,3.4,1.3,4.7s2,2.5,3.3,3.5s3,1.9,4.8,2.8c1.8,0.8,3.6,1.7,5.4,2.5c1.8,0.9,3.7,1.8,5.4,2.8c1.8,1,3.4,2.2,4.8,3.6
			c1.4,1.4,2.5,3,3.4,4.9C49.6,99.5,50,101.7,50,104.3z"/>
		<path d="M98.6,121.3c0,0.3-0.1,0.5-0.2,0.7c-0.1,0.2-0.4,0.4-0.7,0.5c-0.3,0.1-0.8,0.2-1.3,0.3c-0.6,0.1-1.3,0.1-2.2,0.1
			c-0.9,0-1.7,0-2.2-0.1c-0.6-0.1-1.1-0.1-1.5-0.3s-0.7-0.3-1-0.5c-0.3-0.2-0.5-0.5-0.7-0.8l-19.1-25v25.1c0,0.3-0.1,0.5-0.2,0.7
			c-0.1,0.2-0.4,0.3-0.7,0.5c-0.3,0.1-0.7,0.2-1.3,0.3c-0.5,0.1-1.2,0.1-2.1,0.1c-0.8,0-1.5,0-2-0.1c-0.5-0.1-1-0.2-1.3-0.3
			s-0.5-0.3-0.7-0.5c-0.1-0.2-0.2-0.4-0.2-0.7V54.1c0-0.3,0.1-0.5,0.2-0.7c0.1-0.2,0.3-0.4,0.7-0.5c0.3-0.1,0.7-0.2,1.3-0.3
			c0.5-0.1,1.2-0.1,2-0.1c0.8,0,1.5,0,2.1,0.1c0.5,0.1,1,0.2,1.3,0.3c0.3,0.1,0.5,0.3,0.7,0.5c0.1,0.2,0.2,0.4,0.2,0.7v40.9
			l17.1-18.8c0.3-0.3,0.6-0.6,0.9-0.8c0.3-0.2,0.7-0.4,1.1-0.6c0.4-0.2,0.9-0.3,1.5-0.3c0.6,0,1.3-0.1,2.1-0.1c0.8,0,1.5,0,2.1,0.1
			c0.6,0.1,1,0.1,1.4,0.3c0.4,0.1,0.6,0.3,0.8,0.5c0.2,0.2,0.2,0.4,0.2,0.7c0,0.4-0.1,0.8-0.3,1.2s-0.6,0.9-1.1,1.4L79,95l18.4,23.9
			c0.4,0.6,0.7,1,0.9,1.4C98.5,120.6,98.6,121,98.6,121.3z"/>
	</g>
</g>
</svg>
